<?xml version="1.0" encoding="UTF-8" standalone="no"?>
<!DOCTYPE svg PUBLIC "-//W3C//DTD SVG 1.1//EN"
 "http://www.w3.org/Graphics/SVG/1.1/DTD/svg11.dtd">
<!-- Generated by graphviz version 12.2.1 (0)
 -->
<!-- Title: G Pages: 1 -->
<svg width="784pt" height="405pt"
 viewBox="36.00 36.00 747.64 369.29" xmlns="http://www.w3.org/2000/svg" xmlns:xlink="http://www.w3.org/1999/xlink">
<g id="graph0" class="graph" transform="scale(1 1) rotate(0) translate(40 365.29)">
<title>G</title>
<polygon fill="white" stroke="none" points="-4,4 -4,-329.29 707.64,-329.29 707.64,4 -4,4"/>
<text text-anchor="middle" x="351.82" y="-308.69" font-family="Times New Roman,serif" font-size="14.00">(&#39;best_4tree_5000pop_15gen_15runs_res200_15subrun&#39;, &#39;&#39;)</text>
<!-- 0 -->
<g id="node1" class="node">
<title>0</title>
<ellipse fill="white" stroke="black" cx="250.82" cy="-262.43" rx="27" ry="22.06"/>
<text text-anchor="middle" x="250.82" y="-258.23" font-family="Arial" font-size="14.00">add</text>
</g>
<!-- 1 -->
<g id="node2" class="node">
<title>1</title>
<ellipse fill="white" stroke="black" cx="186.82" cy="-182.31" rx="27" ry="22.06"/>
<text text-anchor="middle" x="186.82" y="-178.11" font-family="Arial" font-size="14.00">mul</text>
</g>
<!-- 0&#45;&gt;1 -->
<g id="edge1" class="edge">
<title>0&#45;&gt;1</title>
<path fill="none" stroke="black" d="M236.3,-243.7C228.17,-233.79 217.88,-221.22 208.79,-210.12"/>
<polygon fill="black" stroke="black" points="211.51,-207.92 202.47,-202.41 206.1,-212.36 211.51,-207.92"/>
</g>
<!-- 4 -->
<g id="node5" class="node">
<title>4</title>
<ellipse fill="white" stroke="black" cx="315.82" cy="-182.31" rx="27" ry="22.06"/>
<text text-anchor="middle" x="315.82" y="-178.11" font-family="Arial" font-size="14.00">sub</text>
</g>
<!-- 0&#45;&gt;4 -->
<g id="edge4" class="edge">
<title>0&#45;&gt;4</title>
<path fill="none" stroke="black" d="M265.57,-243.7C273.9,-233.69 284.49,-220.97 293.79,-209.79"/>
<polygon fill="black" stroke="black" points="296.23,-212.33 299.94,-202.4 290.85,-207.85 296.23,-212.33"/>
</g>
<!-- 2 -->
<g id="node3" class="node">
<title>2</title>
<ellipse fill="white" stroke="black" cx="60.82" cy="-102.19" rx="60.82" ry="22.06"/>
<text text-anchor="middle" x="60.82" y="-97.99" font-family="Arial" font-size="14.00">elevation_u</text>
</g>
<!-- 1&#45;&gt;2 -->
<g id="edge2" class="edge">
<title>1&#45;&gt;2</title>
<path fill="none" stroke="black" d="M165.73,-168.23C147.87,-157.16 121.78,-140.98 100.09,-127.53"/>
<polygon fill="black" stroke="black" points="102.11,-124.67 91.77,-122.37 98.42,-130.62 102.11,-124.67"/>
</g>
<!-- 3 -->
<g id="node4" class="node">
<title>3</title>
<ellipse fill="white" stroke="black" cx="186.82" cy="-102.19" rx="47.05" ry="22.06"/>
<text text-anchor="middle" x="186.82" y="-97.99" font-family="Arial" font-size="14.00">distance</text>
</g>
<!-- 1&#45;&gt;3 -->
<g id="edge3" class="edge">
<title>1&#45;&gt;3</title>
<path fill="none" stroke="black" d="M186.82,-159.96C186.82,-152.55 186.82,-144.07 186.82,-135.96"/>
<polygon fill="black" stroke="black" points="190.32,-136.02 186.82,-126.02 183.32,-136.02 190.32,-136.02"/>
</g>
<!-- 5 -->
<g id="node6" class="node">
<title>5</title>
<ellipse fill="white" stroke="black" cx="315.82" cy="-102.19" rx="63.57" ry="22.06"/>
<text text-anchor="middle" x="315.82" y="-97.99" font-family="Arial" font-size="14.00">if_then_else</text>
</g>
<!-- 4&#45;&gt;5 -->
<g id="edge5" class="edge">
<title>4&#45;&gt;5</title>
<path fill="none" stroke="black" d="M315.82,-159.96C315.82,-152.55 315.82,-144.07 315.82,-135.96"/>
<polygon fill="black" stroke="black" points="319.32,-136.02 315.82,-126.02 312.32,-136.02 319.32,-136.02"/>
</g>
<!-- 9 -->
<g id="node10" class="node">
<title>9</title>
<ellipse fill="white" stroke="black" cx="503.82" cy="-102.19" rx="27" ry="22.06"/>
<text text-anchor="middle" x="503.82" y="-97.99" font-family="Arial" font-size="14.00">add</text>
</g>
<!-- 4&#45;&gt;9 -->
<g id="edge9" class="edge">
<title>4&#45;&gt;9</title>
<path fill="none" stroke="black" d="M339.63,-171.41C372.45,-157.77 431.81,-133.11 469.44,-117.47"/>
<polygon fill="black" stroke="black" points="470.62,-120.77 478.51,-113.7 467.93,-114.31 470.62,-120.77"/>
</g>
<!-- 6 -->
<g id="node7" class="node">
<title>6</title>
<ellipse fill="white" stroke="black" cx="161.82" cy="-22.06" rx="47.04" ry="22.06"/>
<text text-anchor="middle" x="161.82" y="-17.86" font-family="Arial" font-size="14.00">is_water</text>
</g>
<!-- 5&#45;&gt;6 -->
<g id="edge6" class="edge">
<title>5&#45;&gt;6</title>
<path fill="none" stroke="black" d="M280.88,-83.46C257.81,-71.76 227.49,-56.38 203.22,-44.06"/>
<polygon fill="black" stroke="black" points="205.08,-41.08 194.58,-39.68 201.91,-47.32 205.08,-41.08"/>
</g>
<!-- 7 -->
<g id="node8" class="node">
<title>7</title>
<ellipse fill="white" stroke="black" cx="261.82" cy="-22.06" rx="34.96" ry="22.06"/>
<text text-anchor="middle" x="261.82" y="-17.86" font-family="Arial" font-size="14.00">0.338</text>
</g>
<!-- 5&#45;&gt;7 -->
<g id="edge7" class="edge">
<title>5&#45;&gt;7</title>
<path fill="none" stroke="black" d="M301.35,-80.25C295.37,-71.59 288.33,-61.41 281.87,-52.06"/>
<polygon fill="black" stroke="black" points="284.83,-50.19 276.26,-43.96 279.07,-54.17 284.83,-50.19"/>
</g>
<!-- 8 -->
<g id="node9" class="node">
<title>8</title>
<ellipse fill="white" stroke="black" cx="369.82" cy="-22.06" rx="55.31" ry="22.06"/>
<text text-anchor="middle" x="369.82" y="-17.86" font-family="Arial" font-size="14.00">steepness</text>
</g>
<!-- 5&#45;&gt;8 -->
<g id="edge8" class="edge">
<title>5&#45;&gt;8</title>
<path fill="none" stroke="black" d="M330.29,-80.25C336.03,-71.95 342.73,-62.25 348.97,-53.22"/>
<polygon fill="black" stroke="black" points="351.83,-55.25 354.64,-45.03 346.07,-51.27 351.83,-55.25"/>
</g>
<!-- 10 -->
<g id="node11" class="node">
<title>10</title>
<ellipse fill="white" stroke="black" cx="503.82" cy="-22.06" rx="60.26" ry="22.06"/>
<text text-anchor="middle" x="503.82" y="-17.86" font-family="Arial" font-size="14.00">elevation_v</text>
</g>
<!-- 9&#45;&gt;10 -->
<g id="edge10" class="edge">
<title>9&#45;&gt;10</title>
<path fill="none" stroke="black" d="M503.82,-79.84C503.82,-72.43 503.82,-63.95 503.82,-55.83"/>
<polygon fill="black" stroke="black" points="507.32,-55.9 503.82,-45.9 500.32,-55.9 507.32,-55.9"/>
</g>
<!-- 11 -->
<g id="node12" class="node">
<title>11</title>
<ellipse fill="white" stroke="black" cx="642.82" cy="-22.06" rx="60.82" ry="22.06"/>
<text text-anchor="middle" x="642.82" y="-17.86" font-family="Arial" font-size="14.00">elevation_u</text>
</g>
<!-- 9&#45;&gt;11 -->
<g id="edge11" class="edge">
<title>9&#45;&gt;11</title>
<path fill="none" stroke="black" d="M525.85,-88.81C545.9,-77.54 576.04,-60.59 600.71,-46.73"/>
<polygon fill="black" stroke="black" points="602.23,-49.89 609.23,-41.94 598.8,-43.79 602.23,-49.89"/>
</g>
</g>
</svg>
