<?xml version="1.0" encoding="UTF-8" standalone="no"?>
<!DOCTYPE svg PUBLIC "-//W3C//DTD SVG 1.1//EN"
 "http://www.w3.org/Graphics/SVG/1.1/DTD/svg11.dtd">
<!-- Generated by graphviz version 12.2.1 (0)
 -->
<!-- Title: G Pages: 1 -->
<svg width="801pt" height="485pt"
 viewBox="36.00 36.00 765.13 449.42" xmlns="http://www.w3.org/2000/svg" xmlns:xlink="http://www.w3.org/1999/xlink">
<g id="graph0" class="graph" transform="scale(1 1) rotate(0) translate(40 445.42)">
<title>G</title>
<polygon fill="white" stroke="none" points="-4,4 -4,-409.42 725.13,-409.42 725.13,4 -4,4"/>
<text text-anchor="middle" x="360.57" y="-388.82" font-family="Times New Roman,serif" font-size="14.00">(&#39;best_tree_5000pop_15gen_15runs_res200_2subrun&#39;, &#39;&#39;)</text>
<!-- 0 -->
<g id="node1" class="node">
<title>0</title>
<ellipse fill="white" stroke="black" cx="272.82" cy="-342.56" rx="27" ry="22.06"/>
<text text-anchor="middle" x="272.82" y="-338.36" font-family="Arial" font-size="14.00">add</text>
</g>
<!-- 1 -->
<g id="node2" class="node">
<title>1</title>
<ellipse fill="white" stroke="black" cx="166.82" cy="-262.43" rx="27" ry="22.06"/>
<text text-anchor="middle" x="166.82" y="-258.23" font-family="Arial" font-size="14.00">add</text>
</g>
<!-- 0&#45;&gt;1 -->
<g id="edge1" class="edge">
<title>0&#45;&gt;1</title>
<path fill="none" stroke="black" d="M253.38,-327.23C237.19,-315.3 213.92,-298.14 195.58,-284.62"/>
<polygon fill="black" stroke="black" points="197.84,-281.95 187.72,-278.83 193.69,-287.58 197.84,-281.95"/>
</g>
<!-- 6 -->
<g id="node7" class="node">
<title>6</title>
<ellipse fill="white" stroke="black" cx="378.82" cy="-262.43" rx="27" ry="22.06"/>
<text text-anchor="middle" x="378.82" y="-258.23" font-family="Arial" font-size="14.00">add</text>
</g>
<!-- 0&#45;&gt;6 -->
<g id="edge6" class="edge">
<title>0&#45;&gt;6</title>
<path fill="none" stroke="black" d="M292.26,-327.23C308.45,-315.3 331.73,-298.14 350.07,-284.62"/>
<polygon fill="black" stroke="black" points="351.95,-287.58 357.92,-278.83 347.8,-281.95 351.95,-287.58"/>
</g>
<!-- 2 -->
<g id="node3" class="node">
<title>2</title>
<ellipse fill="white" stroke="black" cx="60.82" cy="-182.31" rx="60.82" ry="22.06"/>
<text text-anchor="middle" x="60.82" y="-178.11" font-family="Arial" font-size="14.00">elevation_u</text>
</g>
<!-- 1&#45;&gt;2 -->
<g id="edge2" class="edge">
<title>1&#45;&gt;2</title>
<path fill="none" stroke="black" d="M147.38,-247.1C133.06,-236.55 113.18,-221.9 96.09,-209.3"/>
<polygon fill="black" stroke="black" points="98.27,-206.56 88.15,-203.45 94.12,-212.2 98.27,-206.56"/>
</g>
<!-- 3 -->
<g id="node4" class="node">
<title>3</title>
<ellipse fill="white" stroke="black" cx="166.82" cy="-182.31" rx="27" ry="22.06"/>
<text text-anchor="middle" x="166.82" y="-178.11" font-family="Arial" font-size="14.00">mul</text>
</g>
<!-- 1&#45;&gt;3 -->
<g id="edge3" class="edge">
<title>1&#45;&gt;3</title>
<path fill="none" stroke="black" d="M166.82,-240.08C166.82,-232.68 166.82,-224.19 166.82,-216.08"/>
<polygon fill="black" stroke="black" points="170.32,-216.14 166.82,-206.14 163.32,-216.14 170.32,-216.14"/>
</g>
<!-- 4 -->
<g id="node5" class="node">
<title>4</title>
<ellipse fill="white" stroke="black" cx="66.82" cy="-102.19" rx="47.05" ry="22.06"/>
<text text-anchor="middle" x="66.82" y="-97.99" font-family="Arial" font-size="14.00">distance</text>
</g>
<!-- 3&#45;&gt;4 -->
<g id="edge4" class="edge">
<title>3&#45;&gt;4</title>
<path fill="none" stroke="black" d="M147.54,-166.25C133.88,-155.57 115.21,-140.99 99.28,-128.54"/>
<polygon fill="black" stroke="black" points="101.49,-125.83 91.46,-122.43 97.18,-131.35 101.49,-125.83"/>
</g>
<!-- 5 -->
<g id="node6" class="node">
<title>5</title>
<ellipse fill="white" stroke="black" cx="166.82" cy="-102.19" rx="34.96" ry="22.06"/>
<text text-anchor="middle" x="166.82" y="-97.99" font-family="Arial" font-size="14.00">7.357</text>
</g>
<!-- 3&#45;&gt;5 -->
<g id="edge5" class="edge">
<title>3&#45;&gt;5</title>
<path fill="none" stroke="black" d="M166.82,-159.96C166.82,-152.55 166.82,-144.07 166.82,-135.96"/>
<polygon fill="black" stroke="black" points="170.32,-136.02 166.82,-126.02 163.32,-136.02 170.32,-136.02"/>
</g>
<!-- 7 -->
<g id="node8" class="node">
<title>7</title>
<ellipse fill="white" stroke="black" cx="378.82" cy="-182.31" rx="63.57" ry="22.06"/>
<text text-anchor="middle" x="378.82" y="-178.11" font-family="Arial" font-size="14.00">if_then_else</text>
</g>
<!-- 6&#45;&gt;7 -->
<g id="edge7" class="edge">
<title>6&#45;&gt;7</title>
<path fill="none" stroke="black" d="M378.82,-240.08C378.82,-232.68 378.82,-224.19 378.82,-216.08"/>
<polygon fill="black" stroke="black" points="382.32,-216.14 378.82,-206.14 375.32,-216.14 382.32,-216.14"/>
</g>
<!-- 11 -->
<g id="node12" class="node">
<title>11</title>
<ellipse fill="white" stroke="black" cx="542.82" cy="-182.31" rx="27" ry="22.06"/>
<text text-anchor="middle" x="542.82" y="-178.11" font-family="Arial" font-size="14.00">neg</text>
</g>
<!-- 6&#45;&gt;11 -->
<g id="edge11" class="edge">
<title>6&#45;&gt;11</title>
<path fill="none" stroke="black" d="M401.97,-250.4C430.05,-237.03 477.6,-214.38 509.59,-199.14"/>
<polygon fill="black" stroke="black" points="510.9,-202.39 518.42,-194.93 507.89,-196.07 510.9,-202.39"/>
</g>
<!-- 8 -->
<g id="node9" class="node">
<title>8</title>
<ellipse fill="white" stroke="black" cx="266.82" cy="-102.19" rx="47.04" ry="22.06"/>
<text text-anchor="middle" x="266.82" y="-97.99" font-family="Arial" font-size="14.00">is_water</text>
</g>
<!-- 7&#45;&gt;8 -->
<g id="edge8" class="edge">
<title>7&#45;&gt;8</title>
<path fill="none" stroke="black" d="M351.14,-162C336.08,-151.5 317.32,-138.41 301.32,-127.25"/>
<polygon fill="black" stroke="black" points="303.72,-124.65 293.51,-121.8 299.71,-130.4 303.72,-124.65"/>
</g>
<!-- 9 -->
<g id="node10" class="node">
<title>9</title>
<ellipse fill="white" stroke="black" cx="378.82" cy="-102.19" rx="47.05" ry="22.06"/>
<text text-anchor="middle" x="378.82" y="-97.99" font-family="Arial" font-size="14.00">distance</text>
</g>
<!-- 7&#45;&gt;9 -->
<g id="edge9" class="edge">
<title>7&#45;&gt;9</title>
<path fill="none" stroke="black" d="M378.82,-159.96C378.82,-152.55 378.82,-144.07 378.82,-135.96"/>
<polygon fill="black" stroke="black" points="382.32,-136.02 378.82,-126.02 375.32,-136.02 382.32,-136.02"/>
</g>
<!-- 10 -->
<g id="node11" class="node">
<title>10</title>
<ellipse fill="white" stroke="black" cx="498.82" cy="-102.19" rx="55.31" ry="22.06"/>
<text text-anchor="middle" x="498.82" y="-97.99" font-family="Arial" font-size="14.00">steepness</text>
</g>
<!-- 7&#45;&gt;10 -->
<g id="edge10" class="edge">
<title>7&#45;&gt;10</title>
<path fill="none" stroke="black" d="M407.87,-162.4C424.02,-151.88 444.3,-138.68 461.6,-127.42"/>
<polygon fill="black" stroke="black" points="463.13,-130.6 469.6,-122.21 459.31,-124.73 463.13,-130.6"/>
</g>
<!-- 12 -->
<g id="node13" class="node">
<title>12</title>
<ellipse fill="white" stroke="black" cx="598.82" cy="-102.19" rx="27" ry="22.06"/>
<text text-anchor="middle" x="598.82" y="-97.99" font-family="Arial" font-size="14.00">mul</text>
</g>
<!-- 11&#45;&gt;12 -->
<g id="edge12" class="edge">
<title>11&#45;&gt;12</title>
<path fill="none" stroke="black" d="M556.09,-162.79C562.88,-153.33 571.28,-141.61 578.83,-131.08"/>
<polygon fill="black" stroke="black" points="581.59,-133.23 584.57,-123.07 575.9,-129.16 581.59,-133.23"/>
</g>
<!-- 13 -->
<g id="node14" class="node">
<title>13</title>
<ellipse fill="white" stroke="black" cx="531.82" cy="-22.06" rx="60.26" ry="22.06"/>
<text text-anchor="middle" x="531.82" y="-17.86" font-family="Arial" font-size="14.00">elevation_v</text>
</g>
<!-- 12&#45;&gt;13 -->
<g id="edge13" class="edge">
<title>12&#45;&gt;13</title>
<path fill="none" stroke="black" d="M583.62,-83.46C575.65,-74.17 565.7,-62.57 556.65,-52.02"/>
<polygon fill="black" stroke="black" points="559.48,-49.94 550.32,-44.63 554.17,-54.5 559.48,-49.94"/>
</g>
<!-- 14 -->
<g id="node15" class="node">
<title>14</title>
<ellipse fill="white" stroke="black" cx="665.82" cy="-22.06" rx="55.31" ry="22.06"/>
<text text-anchor="middle" x="665.82" y="-17.86" font-family="Arial" font-size="14.00">steepness</text>
</g>
<!-- 12&#45;&gt;14 -->
<g id="edge14" class="edge">
<title>12&#45;&gt;14</title>
<path fill="none" stroke="black" d="M614.02,-83.46C621.99,-74.17 631.94,-62.57 640.99,-52.02"/>
<polygon fill="black" stroke="black" points="643.47,-54.5 647.32,-44.63 638.16,-49.94 643.47,-54.5"/>
</g>
</g>
</svg>
