<?xml version="1.0" encoding="UTF-8" standalone="no"?>
<!DOCTYPE svg PUBLIC "-//W3C//DTD SVG 1.1//EN"
 "http://www.w3.org/Graphics/SVG/1.1/DTD/svg11.dtd">
<!-- Generated by graphviz version 12.2.1 (0)
 -->
<!-- Title: G Pages: 1 -->
<svg width="928pt" height="485pt"
 viewBox="36.00 36.00 892.10 449.42" xmlns="http://www.w3.org/2000/svg" xmlns:xlink="http://www.w3.org/1999/xlink">
<g id="graph0" class="graph" transform="scale(1 1) rotate(0) translate(40 445.42)">
<title>G</title>
<polygon fill="white" stroke="none" points="-4,4 -4,-409.42 852.1,-409.42 852.1,4 -4,4"/>
<text text-anchor="middle" x="424.05" y="-388.82" font-family="Times New Roman,serif" font-size="14.00">(&#39;best_tree_5000pop_15gen_15runs_res200_11subrun&#39;, &#39;&#39;)</text>
<!-- 0 -->
<g id="node1" class="node">
<title>0</title>
<ellipse fill="white" stroke="black" cx="425.04" cy="-342.56" rx="27" ry="22.06"/>
<text text-anchor="middle" x="425.04" y="-338.36" font-family="Arial" font-size="14.00">add</text>
</g>
<!-- 1 -->
<g id="node2" class="node">
<title>1</title>
<ellipse fill="white" stroke="black" cx="389.04" cy="-262.43" rx="27" ry="22.06"/>
<text text-anchor="middle" x="389.04" y="-258.23" font-family="Arial" font-size="14.00">neg</text>
</g>
<!-- 0&#45;&gt;1 -->
<g id="edge1" class="edge">
<title>0&#45;&gt;1</title>
<path fill="none" stroke="black" d="M415.77,-321.44C411.91,-313.05 407.34,-303.13 403.08,-293.89"/>
<polygon fill="black" stroke="black" points="406.28,-292.47 398.92,-284.86 399.92,-295.4 406.28,-292.47"/>
</g>
<!-- 6 -->
<g id="node7" class="node">
<title>6</title>
<ellipse fill="white" stroke="black" cx="537.04" cy="-262.43" rx="27" ry="22.06"/>
<text text-anchor="middle" x="537.04" y="-258.23" font-family="Arial" font-size="14.00">add</text>
</g>
<!-- 0&#45;&gt;6 -->
<g id="edge6" class="edge">
<title>0&#45;&gt;6</title>
<path fill="none" stroke="black" d="M445.33,-327.41C462.69,-315.3 487.92,-297.7 507.52,-284.02"/>
<polygon fill="black" stroke="black" points="509.47,-286.93 515.67,-278.34 505.47,-281.19 509.47,-286.93"/>
</g>
<!-- 2 -->
<g id="node3" class="node">
<title>2</title>
<ellipse fill="white" stroke="black" cx="243.04" cy="-182.31" rx="63.57" ry="22.06"/>
<text text-anchor="middle" x="243.04" y="-178.11" font-family="Arial" font-size="14.00">if_then_else</text>
</g>
<!-- 1&#45;&gt;2 -->
<g id="edge2" class="edge">
<title>1&#45;&gt;2</title>
<path fill="none" stroke="black" d="M366.87,-249.57C345.74,-238.26 313.34,-220.92 286.98,-206.82"/>
<polygon fill="black" stroke="black" points="288.65,-203.74 278.18,-202.11 285.34,-209.91 288.65,-203.74"/>
</g>
<!-- 3 -->
<g id="node4" class="node">
<title>3</title>
<ellipse fill="white" stroke="black" cx="47.04" cy="-102.19" rx="47.04" ry="22.06"/>
<text text-anchor="middle" x="47.04" y="-97.99" font-family="Arial" font-size="14.00">is_water</text>
</g>
<!-- 2&#45;&gt;3 -->
<g id="edge3" class="edge">
<title>2&#45;&gt;3</title>
<path fill="none" stroke="black" d="M202.43,-165.12C170.46,-152.38 125.91,-134.62 92.7,-121.38"/>
<polygon fill="black" stroke="black" points="94.34,-118.27 83.75,-117.82 91.75,-124.77 94.34,-118.27"/>
</g>
<!-- 4 -->
<g id="node5" class="node">
<title>4</title>
<ellipse fill="white" stroke="black" cx="173.04" cy="-102.19" rx="60.82" ry="22.06"/>
<text text-anchor="middle" x="173.04" y="-97.99" font-family="Arial" font-size="14.00">elevation_u</text>
</g>
<!-- 2&#45;&gt;4 -->
<g id="edge4" class="edge">
<title>2&#45;&gt;4</title>
<path fill="none" stroke="black" d="M224.65,-160.78C216.78,-151.99 207.44,-141.57 198.88,-132.02"/>
<polygon fill="black" stroke="black" points="201.6,-129.81 192.32,-124.7 196.39,-134.48 201.6,-129.81"/>
</g>
<!-- 5 -->
<g id="node6" class="node">
<title>5</title>
<ellipse fill="white" stroke="black" cx="312.04" cy="-102.19" rx="60.26" ry="22.06"/>
<text text-anchor="middle" x="312.04" y="-97.99" font-family="Arial" font-size="14.00">elevation_v</text>
</g>
<!-- 2&#45;&gt;5 -->
<g id="edge5" class="edge">
<title>2&#45;&gt;5</title>
<path fill="none" stroke="black" d="M261.17,-160.78C268.94,-151.99 278.14,-141.57 286.57,-132.02"/>
<polygon fill="black" stroke="black" points="289.04,-134.52 293.03,-124.71 283.79,-129.89 289.04,-134.52"/>
</g>
<!-- 7 -->
<g id="node8" class="node">
<title>7</title>
<ellipse fill="white" stroke="black" cx="537.04" cy="-182.31" rx="63.57" ry="22.06"/>
<text text-anchor="middle" x="537.04" y="-178.11" font-family="Arial" font-size="14.00">if_then_else</text>
</g>
<!-- 6&#45;&gt;7 -->
<g id="edge7" class="edge">
<title>6&#45;&gt;7</title>
<path fill="none" stroke="black" d="M537.04,-240.08C537.04,-232.68 537.04,-224.19 537.04,-216.08"/>
<polygon fill="black" stroke="black" points="540.54,-216.14 537.04,-206.14 533.54,-216.14 540.54,-216.14"/>
</g>
<!-- 11 -->
<g id="node12" class="node">
<title>11</title>
<ellipse fill="white" stroke="black" cx="695.04" cy="-182.31" rx="27" ry="22.06"/>
<text text-anchor="middle" x="695.04" y="-178.11" font-family="Arial" font-size="14.00">neg</text>
</g>
<!-- 6&#45;&gt;11 -->
<g id="edge11" class="edge">
<title>6&#45;&gt;11</title>
<path fill="none" stroke="black" d="M560.02,-250.07C586.89,-236.78 631.58,-214.69 662.13,-199.58"/>
<polygon fill="black" stroke="black" points="663.53,-202.8 670.94,-195.23 660.43,-196.52 663.53,-202.8"/>
</g>
<!-- 8 -->
<g id="node9" class="node">
<title>8</title>
<ellipse fill="white" stroke="black" cx="437.04" cy="-102.19" rx="47.04" ry="22.06"/>
<text text-anchor="middle" x="437.04" y="-97.99" font-family="Arial" font-size="14.00">is_water</text>
</g>
<!-- 7&#45;&gt;8 -->
<g id="edge8" class="edge">
<title>7&#45;&gt;8</title>
<path fill="none" stroke="black" d="M511.81,-161.59C498.9,-151.51 483.04,-139.12 469.26,-128.35"/>
<polygon fill="black" stroke="black" points="471.78,-125.88 461.75,-122.48 467.47,-131.4 471.78,-125.88"/>
</g>
<!-- 9 -->
<g id="node10" class="node">
<title>9</title>
<ellipse fill="white" stroke="black" cx="537.04" cy="-102.19" rx="34.96" ry="22.06"/>
<text text-anchor="middle" x="537.04" y="-97.99" font-family="Arial" font-size="14.00">6.748</text>
</g>
<!-- 7&#45;&gt;9 -->
<g id="edge9" class="edge">
<title>7&#45;&gt;9</title>
<path fill="none" stroke="black" d="M537.04,-159.96C537.04,-152.55 537.04,-144.07 537.04,-135.96"/>
<polygon fill="black" stroke="black" points="540.54,-136.02 537.04,-126.02 533.54,-136.02 540.54,-136.02"/>
</g>
<!-- 10 -->
<g id="node11" class="node">
<title>10</title>
<ellipse fill="white" stroke="black" cx="645.04" cy="-102.19" rx="55.31" ry="22.06"/>
<text text-anchor="middle" x="645.04" y="-97.99" font-family="Arial" font-size="14.00">steepness</text>
</g>
<!-- 7&#45;&gt;10 -->
<g id="edge10" class="edge">
<title>7&#45;&gt;10</title>
<path fill="none" stroke="black" d="M563.74,-162C577.71,-151.89 594.98,-139.4 610.01,-128.53"/>
<polygon fill="black" stroke="black" points="611.75,-131.59 617.8,-122.89 607.65,-125.92 611.75,-131.59"/>
</g>
<!-- 12 -->
<g id="node13" class="node">
<title>12</title>
<ellipse fill="white" stroke="black" cx="745.04" cy="-102.19" rx="27" ry="22.06"/>
<text text-anchor="middle" x="745.04" y="-97.99" font-family="Arial" font-size="14.00">mul</text>
</g>
<!-- 11&#45;&gt;12 -->
<g id="edge12" class="edge">
<title>11&#45;&gt;12</title>
<path fill="none" stroke="black" d="M707.15,-162.4C713.06,-153.16 720.3,-141.85 726.86,-131.59"/>
<polygon fill="black" stroke="black" points="729.62,-133.78 732.06,-123.47 723.72,-130 729.62,-133.78"/>
</g>
<!-- 13 -->
<g id="node14" class="node">
<title>13</title>
<ellipse fill="white" stroke="black" cx="689.04" cy="-22.06" rx="47.05" ry="22.06"/>
<text text-anchor="middle" x="689.04" y="-17.86" font-family="Arial" font-size="14.00">distance</text>
</g>
<!-- 12&#45;&gt;13 -->
<g id="edge13" class="edge">
<title>12&#45;&gt;13</title>
<path fill="none" stroke="black" d="M731.77,-82.67C725.35,-73.71 717.48,-62.74 710.26,-52.66"/>
<polygon fill="black" stroke="black" points="713.15,-50.68 704.48,-44.59 707.46,-54.76 713.15,-50.68"/>
</g>
<!-- 14 -->
<g id="node15" class="node">
<title>14</title>
<ellipse fill="white" stroke="black" cx="801.04" cy="-22.06" rx="47.05" ry="22.06"/>
<text text-anchor="middle" x="801.04" y="-17.86" font-family="Arial" font-size="14.00">distance</text>
</g>
<!-- 12&#45;&gt;14 -->
<g id="edge14" class="edge">
<title>12&#45;&gt;14</title>
<path fill="none" stroke="black" d="M758.32,-82.67C764.74,-73.71 772.6,-62.74 779.83,-52.66"/>
<polygon fill="black" stroke="black" points="782.63,-54.76 785.61,-44.59 776.94,-50.68 782.63,-54.76"/>
</g>
</g>
</svg>
