<?xml version="1.0" encoding="UTF-8" standalone="no"?>
<!DOCTYPE svg PUBLIC "-//W3C//DTD SVG 1.1//EN"
 "http://www.w3.org/Graphics/SVG/1.1/DTD/svg11.dtd">
<!-- Generated by graphviz version 12.2.1 (0)
 -->
<!-- Title: G Pages: 1 -->
<svg width="1049pt" height="405pt"
 viewBox="36.00 36.00 1012.78 369.29" xmlns="http://www.w3.org/2000/svg" xmlns:xlink="http://www.w3.org/1999/xlink">
<g id="graph0" class="graph" transform="scale(1 1) rotate(0) translate(40 365.29)">
<title>G</title>
<polygon fill="white" stroke="none" points="-4,4 -4,-329.29 972.78,-329.29 972.78,4 -4,4"/>
<text text-anchor="middle" x="484.39" y="-308.69" font-family="Times New Roman,serif" font-size="14.00">(&#39;best_tree_5000pop_15gen_15runs_res200_1subrun&#39;, &#39;&#39;)</text>
<!-- 0 -->
<g id="node1" class="node">
<title>0</title>
<ellipse fill="white" stroke="black" cx="590.82" cy="-262.43" rx="27" ry="22.06"/>
<text text-anchor="middle" x="590.82" y="-258.23" font-family="Arial" font-size="14.00">add</text>
</g>
<!-- 1 -->
<g id="node2" class="node">
<title>1</title>
<ellipse fill="white" stroke="black" cx="401.82" cy="-182.31" rx="27" ry="22.06"/>
<text text-anchor="middle" x="401.82" y="-178.11" font-family="Arial" font-size="14.00">add</text>
</g>
<!-- 0&#45;&gt;1 -->
<g id="edge1" class="edge">
<title>0&#45;&gt;1</title>
<path fill="none" stroke="black" d="M566.88,-251.54C533.89,-237.9 474.22,-213.23 436.38,-197.59"/>
<polygon fill="black" stroke="black" points="437.84,-194.41 427.26,-193.82 435.16,-200.88 437.84,-194.41"/>
</g>
<!-- 8 -->
<g id="node9" class="node">
<title>8</title>
<ellipse fill="white" stroke="black" cx="713.82" cy="-182.31" rx="27" ry="22.06"/>
<text text-anchor="middle" x="713.82" y="-178.11" font-family="Arial" font-size="14.00">sub</text>
</g>
<!-- 0&#45;&gt;8 -->
<g id="edge8" class="edge">
<title>0&#45;&gt;8</title>
<path fill="none" stroke="black" d="M611.69,-248.18C631.3,-235.72 660.9,-216.92 683.19,-202.77"/>
<polygon fill="black" stroke="black" points="685.01,-205.75 691.58,-197.44 681.26,-199.84 685.01,-205.75"/>
</g>
<!-- 2 -->
<g id="node3" class="node">
<title>2</title>
<ellipse fill="white" stroke="black" cx="200.82" cy="-102.19" rx="27" ry="22.06"/>
<text text-anchor="middle" x="200.82" y="-97.99" font-family="Arial" font-size="14.00">sub</text>
</g>
<!-- 1&#45;&gt;2 -->
<g id="edge2" class="edge">
<title>1&#45;&gt;2</title>
<path fill="none" stroke="black" d="M377.58,-171.89C342.19,-158.13 276.2,-132.48 235.63,-116.71"/>
<polygon fill="black" stroke="black" points="237.15,-113.55 226.56,-113.19 234.62,-120.08 237.15,-113.55"/>
</g>
<!-- 5 -->
<g id="node6" class="node">
<title>5</title>
<ellipse fill="white" stroke="black" cx="401.82" cy="-102.19" rx="27" ry="22.06"/>
<text text-anchor="middle" x="401.82" y="-97.99" font-family="Arial" font-size="14.00">add</text>
</g>
<!-- 1&#45;&gt;5 -->
<g id="edge5" class="edge">
<title>1&#45;&gt;5</title>
<path fill="none" stroke="black" d="M401.82,-159.96C401.82,-152.55 401.82,-144.07 401.82,-135.96"/>
<polygon fill="black" stroke="black" points="405.32,-136.02 401.82,-126.02 398.32,-136.02 405.32,-136.02"/>
</g>
<!-- 3 -->
<g id="node4" class="node">
<title>3</title>
<ellipse fill="white" stroke="black" cx="60.82" cy="-22.06" rx="60.82" ry="22.06"/>
<text text-anchor="middle" x="60.82" y="-17.86" font-family="Arial" font-size="14.00">elevation_u</text>
</g>
<!-- 2&#45;&gt;3 -->
<g id="edge3" class="edge">
<title>2&#45;&gt;3</title>
<path fill="none" stroke="black" d="M178.95,-88.98C158.74,-77.7 128.15,-60.63 103.17,-46.69"/>
<polygon fill="black" stroke="black" points="104.96,-43.69 94.52,-41.87 101.55,-49.8 104.96,-43.69"/>
</g>
<!-- 4 -->
<g id="node5" class="node">
<title>4</title>
<ellipse fill="white" stroke="black" cx="200.82" cy="-22.06" rx="60.82" ry="22.06"/>
<text text-anchor="middle" x="200.82" y="-17.86" font-family="Arial" font-size="14.00">elevation_u</text>
</g>
<!-- 2&#45;&gt;4 -->
<g id="edge4" class="edge">
<title>2&#45;&gt;4</title>
<path fill="none" stroke="black" d="M200.82,-79.84C200.82,-72.43 200.82,-63.95 200.82,-55.83"/>
<polygon fill="black" stroke="black" points="204.32,-55.9 200.82,-45.9 197.32,-55.9 204.32,-55.9"/>
</g>
<!-- 6 -->
<g id="node7" class="node">
<title>6</title>
<ellipse fill="white" stroke="black" cx="334.82" cy="-22.06" rx="55.31" ry="22.06"/>
<text text-anchor="middle" x="334.82" y="-17.86" font-family="Arial" font-size="14.00">steepness</text>
</g>
<!-- 5&#45;&gt;6 -->
<g id="edge6" class="edge">
<title>5&#45;&gt;6</title>
<path fill="none" stroke="black" d="M386.62,-83.46C378.65,-74.17 368.7,-62.57 359.65,-52.02"/>
<polygon fill="black" stroke="black" points="362.48,-49.94 353.32,-44.63 357.17,-54.5 362.48,-49.94"/>
</g>
<!-- 7 -->
<g id="node8" class="node">
<title>7</title>
<ellipse fill="white" stroke="black" cx="468.82" cy="-22.06" rx="60.26" ry="22.06"/>
<text text-anchor="middle" x="468.82" y="-17.86" font-family="Arial" font-size="14.00">elevation_v</text>
</g>
<!-- 5&#45;&gt;7 -->
<g id="edge7" class="edge">
<title>5&#45;&gt;7</title>
<path fill="none" stroke="black" d="M417.02,-83.46C424.99,-74.17 434.94,-62.57 443.99,-52.02"/>
<polygon fill="black" stroke="black" points="446.47,-54.5 450.32,-44.63 441.16,-49.94 446.47,-54.5"/>
</g>
<!-- 9 -->
<g id="node10" class="node">
<title>9</title>
<ellipse fill="white" stroke="black" cx="713.82" cy="-102.19" rx="63.57" ry="22.06"/>
<text text-anchor="middle" x="713.82" y="-97.99" font-family="Arial" font-size="14.00">if_then_else</text>
</g>
<!-- 8&#45;&gt;9 -->
<g id="edge9" class="edge">
<title>8&#45;&gt;9</title>
<path fill="none" stroke="black" d="M713.82,-159.96C713.82,-152.55 713.82,-144.07 713.82,-135.96"/>
<polygon fill="black" stroke="black" points="717.32,-136.02 713.82,-126.02 710.32,-136.02 717.32,-136.02"/>
</g>
<!-- 13 -->
<g id="node14" class="node">
<title>13</title>
<ellipse fill="white" stroke="black" cx="877.82" cy="-102.19" rx="27" ry="22.06"/>
<text text-anchor="middle" x="877.82" y="-97.99" font-family="Arial" font-size="14.00">neg</text>
</g>
<!-- 8&#45;&gt;13 -->
<g id="edge13" class="edge">
<title>8&#45;&gt;13</title>
<path fill="none" stroke="black" d="M736.97,-170.28C765.05,-156.9 812.6,-134.26 844.59,-119.02"/>
<polygon fill="black" stroke="black" points="845.9,-122.27 853.42,-114.81 842.89,-115.95 845.9,-122.27"/>
</g>
<!-- 10 -->
<g id="node11" class="node">
<title>10</title>
<ellipse fill="white" stroke="black" cx="593.82" cy="-22.06" rx="47.04" ry="22.06"/>
<text text-anchor="middle" x="593.82" y="-17.86" font-family="Arial" font-size="14.00">is_water</text>
</g>
<!-- 9&#45;&gt;10 -->
<g id="edge10" class="edge">
<title>9&#45;&gt;10</title>
<path fill="none" stroke="black" d="M684.77,-82.27C668.27,-71.53 647.46,-57.98 629.91,-46.56"/>
<polygon fill="black" stroke="black" points="632.11,-43.81 621.82,-41.29 628.29,-49.68 632.11,-43.81"/>
</g>
<!-- 11 -->
<g id="node12" class="node">
<title>11</title>
<ellipse fill="white" stroke="black" cx="713.82" cy="-22.06" rx="55.31" ry="22.06"/>
<text text-anchor="middle" x="713.82" y="-17.86" font-family="Arial" font-size="14.00">steepness</text>
</g>
<!-- 9&#45;&gt;11 -->
<g id="edge11" class="edge">
<title>9&#45;&gt;11</title>
<path fill="none" stroke="black" d="M713.82,-79.84C713.82,-72.43 713.82,-63.95 713.82,-55.83"/>
<polygon fill="black" stroke="black" points="717.32,-55.9 713.82,-45.9 710.32,-55.9 717.32,-55.9"/>
</g>
<!-- 12 -->
<g id="node13" class="node">
<title>12</title>
<ellipse fill="white" stroke="black" cx="833.82" cy="-22.06" rx="47.05" ry="22.06"/>
<text text-anchor="middle" x="833.82" y="-17.86" font-family="Arial" font-size="14.00">distance</text>
</g>
<!-- 9&#45;&gt;12 -->
<g id="edge12" class="edge">
<title>9&#45;&gt;12</title>
<path fill="none" stroke="black" d="M742.87,-82.27C759.37,-71.53 780.18,-57.98 797.73,-46.56"/>
<polygon fill="black" stroke="black" points="799.35,-49.68 805.82,-41.29 795.53,-43.81 799.35,-49.68"/>
</g>
<!-- 14 -->
<g id="node15" class="node">
<title>14</title>
<ellipse fill="white" stroke="black" cx="933.82" cy="-22.06" rx="34.96" ry="22.06"/>
<text text-anchor="middle" x="933.82" y="-17.86" font-family="Arial" font-size="14.00">4.542</text>
</g>
<!-- 13&#45;&gt;14 -->
<g id="edge14" class="edge">
<title>13&#45;&gt;14</title>
<path fill="none" stroke="black" d="M891.09,-82.67C897.73,-73.41 905.91,-62 913.33,-51.65"/>
<polygon fill="black" stroke="black" points="916,-53.93 918.98,-43.76 910.31,-49.85 916,-53.93"/>
</g>
</g>
</svg>
