<?xml version="1.0" encoding="UTF-8" standalone="no"?>
<!DOCTYPE svg PUBLIC "-//W3C//DTD SVG 1.1//EN"
 "http://www.w3.org/Graphics/SVG/1.1/DTD/svg11.dtd">
<!-- Generated by graphviz version 12.2.1 (0)
 -->
<!-- Title: G Pages: 1 -->
<svg width="807pt" height="405pt"
 viewBox="36.00 36.00 771.32 369.29" xmlns="http://www.w3.org/2000/svg" xmlns:xlink="http://www.w3.org/1999/xlink">
<g id="graph0" class="graph" transform="scale(1 1) rotate(0) translate(40 365.29)">
<title>G</title>
<polygon fill="white" stroke="none" points="-4,4 -4,-329.29 731.32,-329.29 731.32,4 -4,4"/>
<text text-anchor="middle" x="363.66" y="-308.69" font-family="Times New Roman,serif" font-size="14.00">(&#39;best_tree_5000pop_15gen_20runs_res200_2subrun&#39;, &#39;&#39;)</text>
<!-- 0 -->
<g id="node1" class="node">
<title>0</title>
<ellipse fill="white" stroke="black" cx="268.05" cy="-262.43" rx="27" ry="22.06"/>
<text text-anchor="middle" x="268.05" y="-258.23" font-family="Arial" font-size="14.00">add</text>
</g>
<!-- 1 -->
<g id="node2" class="node">
<title>1</title>
<ellipse fill="white" stroke="black" cx="214.05" cy="-182.31" rx="63.57" ry="22.06"/>
<text text-anchor="middle" x="214.05" y="-178.11" font-family="Arial" font-size="14.00">if_then_else</text>
</g>
<!-- 0&#45;&gt;1 -->
<g id="edge1" class="edge">
<title>0&#45;&gt;1</title>
<path fill="none" stroke="black" d="M255.26,-242.92C249.16,-234.1 241.71,-223.32 234.83,-213.37"/>
<polygon fill="black" stroke="black" points="237.9,-211.65 229.33,-205.41 232.14,-215.63 237.9,-211.65"/>
</g>
<!-- 7 -->
<g id="node8" class="node">
<title>7</title>
<ellipse fill="white" stroke="black" cx="364.05" cy="-182.31" rx="27" ry="22.06"/>
<text text-anchor="middle" x="364.05" y="-178.11" font-family="Arial" font-size="14.00">mul</text>
</g>
<!-- 0&#45;&gt;7 -->
<g id="edge7" class="edge">
<title>0&#45;&gt;7</title>
<path fill="none" stroke="black" d="M286.56,-246.37C300.68,-234.88 320.36,-218.87 336.35,-205.85"/>
<polygon fill="black" stroke="black" points="338.55,-208.57 344.1,-199.55 334.13,-203.14 338.55,-208.57"/>
</g>
<!-- 2 -->
<g id="node3" class="node">
<title>2</title>
<ellipse fill="white" stroke="black" cx="80.05" cy="-102.19" rx="47.04" ry="22.06"/>
<text text-anchor="middle" x="80.05" y="-97.99" font-family="Arial" font-size="14.00">is_water</text>
</g>
<!-- 1&#45;&gt;2 -->
<g id="edge2" class="edge">
<title>1&#45;&gt;2</title>
<path fill="none" stroke="black" d="M182.3,-162.79C163.23,-151.68 138.84,-137.46 118.66,-125.69"/>
<polygon fill="black" stroke="black" points="120.55,-122.74 110.15,-120.73 117.03,-128.79 120.55,-122.74"/>
</g>
<!-- 3 -->
<g id="node4" class="node">
<title>3</title>
<ellipse fill="white" stroke="black" cx="172.05" cy="-102.19" rx="27" ry="22.06"/>
<text text-anchor="middle" x="172.05" y="-97.99" font-family="Arial" font-size="14.00">sub</text>
</g>
<!-- 1&#45;&gt;3 -->
<g id="edge3" class="edge">
<title>1&#45;&gt;3</title>
<path fill="none" stroke="black" d="M202.8,-160.37C198.24,-151.9 192.9,-141.97 187.96,-132.78"/>
<polygon fill="black" stroke="black" points="191.15,-131.32 183.33,-124.17 184.99,-134.63 191.15,-131.32"/>
</g>
<!-- 6 -->
<g id="node7" class="node">
<title>6</title>
<ellipse fill="white" stroke="black" cx="264.05" cy="-102.19" rx="47.05" ry="22.06"/>
<text text-anchor="middle" x="264.05" y="-97.99" font-family="Arial" font-size="14.00">distance</text>
</g>
<!-- 1&#45;&gt;6 -->
<g id="edge6" class="edge">
<title>1&#45;&gt;6</title>
<path fill="none" stroke="black" d="M227.45,-160.37C232.81,-152.01 239.07,-142.22 244.89,-133.13"/>
<polygon fill="black" stroke="black" points="247.71,-135.22 250.15,-124.91 241.81,-131.45 247.71,-135.22"/>
</g>
<!-- 4 -->
<g id="node5" class="node">
<title>4</title>
<ellipse fill="white" stroke="black" cx="47.05" cy="-22.06" rx="47.05" ry="22.06"/>
<text text-anchor="middle" x="47.05" y="-17.86" font-family="Arial" font-size="14.00">distance</text>
</g>
<!-- 3&#45;&gt;4 -->
<g id="edge4" class="edge">
<title>3&#45;&gt;4</title>
<path fill="none" stroke="black" d="M150.85,-87.93C132.61,-76.53 105.87,-59.82 84.1,-46.22"/>
<polygon fill="black" stroke="black" points="86.12,-43.35 75.78,-41.02 82.41,-49.28 86.12,-43.35"/>
</g>
<!-- 5 -->
<g id="node6" class="node">
<title>5</title>
<ellipse fill="white" stroke="black" cx="172.05" cy="-22.06" rx="60.26" ry="22.06"/>
<text text-anchor="middle" x="172.05" y="-17.86" font-family="Arial" font-size="14.00">elevation_v</text>
</g>
<!-- 3&#45;&gt;5 -->
<g id="edge5" class="edge">
<title>3&#45;&gt;5</title>
<path fill="none" stroke="black" d="M172.05,-79.84C172.05,-72.43 172.05,-63.95 172.05,-55.83"/>
<polygon fill="black" stroke="black" points="175.55,-55.9 172.05,-45.9 168.55,-55.9 175.55,-55.9"/>
</g>
<!-- 8 -->
<g id="node9" class="node">
<title>8</title>
<ellipse fill="white" stroke="black" cx="364.05" cy="-102.19" rx="27" ry="22.06"/>
<text text-anchor="middle" x="364.05" y="-97.99" font-family="Arial" font-size="14.00">sub</text>
</g>
<!-- 7&#45;&gt;8 -->
<g id="edge8" class="edge">
<title>7&#45;&gt;8</title>
<path fill="none" stroke="black" d="M364.05,-159.96C364.05,-152.55 364.05,-144.07 364.05,-135.96"/>
<polygon fill="black" stroke="black" points="367.55,-136.02 364.05,-126.02 360.55,-136.02 367.55,-136.02"/>
</g>
<!-- 11 -->
<g id="node12" class="node">
<title>11</title>
<ellipse fill="white" stroke="black" cx="533.05" cy="-102.19" rx="27" ry="22.06"/>
<text text-anchor="middle" x="533.05" y="-97.99" font-family="Arial" font-size="14.00">sub</text>
</g>
<!-- 7&#45;&gt;11 -->
<g id="edge11" class="edge">
<title>7&#45;&gt;11</title>
<path fill="none" stroke="black" d="M387.2,-170.61C416.24,-157.19 466.25,-134.07 499.49,-118.7"/>
<polygon fill="black" stroke="black" points="500.66,-122.01 508.27,-114.64 497.73,-115.66 500.66,-122.01"/>
</g>
<!-- 9 -->
<g id="node10" class="node">
<title>9</title>
<ellipse fill="white" stroke="black" cx="285.05" cy="-22.06" rx="34.96" ry="22.06"/>
<text text-anchor="middle" x="285.05" y="-17.86" font-family="Arial" font-size="14.00">5.305</text>
</g>
<!-- 8&#45;&gt;9 -->
<g id="edge9" class="edge">
<title>8&#45;&gt;9</title>
<path fill="none" stroke="black" d="M347.3,-84.62C336.85,-74.28 323.17,-60.76 311.31,-49.02"/>
<polygon fill="black" stroke="black" points="314.09,-46.85 304.52,-42.31 309.16,-51.83 314.09,-46.85"/>
</g>
<!-- 10 -->
<g id="node11" class="node">
<title>10</title>
<ellipse fill="white" stroke="black" cx="399.05" cy="-22.06" rx="60.82" ry="22.06"/>
<text text-anchor="middle" x="399.05" y="-17.86" font-family="Arial" font-size="14.00">elevation_u</text>
</g>
<!-- 8&#45;&gt;10 -->
<g id="edge10" class="edge">
<title>8&#45;&gt;10</title>
<path fill="none" stroke="black" d="M373.07,-81.07C376.67,-73.03 380.9,-63.58 384.89,-54.68"/>
<polygon fill="black" stroke="black" points="388.07,-56.14 388.96,-45.59 381.68,-53.28 388.07,-56.14"/>
</g>
<!-- 12 -->
<g id="node13" class="node">
<title>12</title>
<ellipse fill="white" stroke="black" cx="533.05" cy="-22.06" rx="55.31" ry="22.06"/>
<text text-anchor="middle" x="533.05" y="-17.86" font-family="Arial" font-size="14.00">steepness</text>
</g>
<!-- 11&#45;&gt;12 -->
<g id="edge12" class="edge">
<title>11&#45;&gt;12</title>
<path fill="none" stroke="black" d="M533.05,-79.84C533.05,-72.43 533.05,-63.95 533.05,-55.83"/>
<polygon fill="black" stroke="black" points="536.55,-55.9 533.05,-45.9 529.55,-55.9 536.55,-55.9"/>
</g>
<!-- 13 -->
<g id="node14" class="node">
<title>13</title>
<ellipse fill="white" stroke="black" cx="667.05" cy="-22.06" rx="60.26" ry="22.06"/>
<text text-anchor="middle" x="667.05" y="-17.86" font-family="Arial" font-size="14.00">elevation_v</text>
</g>
<!-- 11&#45;&gt;13 -->
<g id="edge13" class="edge">
<title>11&#45;&gt;13</title>
<path fill="none" stroke="black" d="M554.58,-88.63C573.81,-77.42 602.49,-60.7 626.08,-46.95"/>
<polygon fill="black" stroke="black" points="627.65,-50.08 634.53,-42.02 624.13,-44.04 627.65,-50.08"/>
</g>
</g>
</svg>
