<?xml version="1.0" encoding="UTF-8" standalone="no"?>
<!DOCTYPE svg PUBLIC "-//W3C//DTD SVG 1.1//EN"
 "http://www.w3.org/Graphics/SVG/1.1/DTD/svg11.dtd">
<!-- Generated by graphviz version 12.2.1 (0)
 -->
<!-- Title: G Pages: 1 -->
<svg width="784pt" height="405pt"
 viewBox="36.00 36.00 748.22 369.29" xmlns="http://www.w3.org/2000/svg" xmlns:xlink="http://www.w3.org/1999/xlink">
<g id="graph0" class="graph" transform="scale(1 1) rotate(0) translate(40 365.29)">
<title>G</title>
<polygon fill="white" stroke="none" points="-4,4 -4,-329.29 708.22,-329.29 708.22,4 -4,4"/>
<text text-anchor="middle" x="352.11" y="-308.69" font-family="Times New Roman,serif" font-size="14.00">(&#39;best_tree_5000pop_15gen_20runs_res200_6subrun&#39;, &#39;&#39;)</text>
<!-- 0 -->
<g id="node1" class="node">
<title>0</title>
<ellipse fill="white" stroke="black" cx="238.96" cy="-262.43" rx="27" ry="22.06"/>
<text text-anchor="middle" x="238.96" y="-258.23" font-family="Arial" font-size="14.00">add</text>
</g>
<!-- 1 -->
<g id="node2" class="node">
<title>1</title>
<ellipse fill="white" stroke="black" cx="184.96" cy="-182.31" rx="63.57" ry="22.06"/>
<text text-anchor="middle" x="184.96" y="-178.11" font-family="Arial" font-size="14.00">if_then_else</text>
</g>
<!-- 0&#45;&gt;1 -->
<g id="edge1" class="edge">
<title>0&#45;&gt;1</title>
<path fill="none" stroke="black" d="M226.16,-242.92C220.06,-234.1 212.61,-223.32 205.73,-213.37"/>
<polygon fill="black" stroke="black" points="208.8,-211.65 200.23,-205.41 203.04,-215.63 208.8,-211.65"/>
</g>
<!-- 7 -->
<g id="node8" class="node">
<title>7</title>
<ellipse fill="white" stroke="black" cx="334.96" cy="-182.31" rx="27" ry="22.06"/>
<text text-anchor="middle" x="334.96" y="-178.11" font-family="Arial" font-size="14.00">mul</text>
</g>
<!-- 0&#45;&gt;7 -->
<g id="edge7" class="edge">
<title>0&#45;&gt;7</title>
<path fill="none" stroke="black" d="M257.47,-246.37C271.58,-234.88 291.26,-218.87 307.25,-205.85"/>
<polygon fill="black" stroke="black" points="309.45,-208.57 315,-199.55 305.04,-203.14 309.45,-208.57"/>
</g>
<!-- 2 -->
<g id="node3" class="node">
<title>2</title>
<ellipse fill="white" stroke="black" cx="50.96" cy="-102.19" rx="47.04" ry="22.06"/>
<text text-anchor="middle" x="50.96" y="-97.99" font-family="Arial" font-size="14.00">is_water</text>
</g>
<!-- 1&#45;&gt;2 -->
<g id="edge2" class="edge">
<title>1&#45;&gt;2</title>
<path fill="none" stroke="black" d="M153.2,-162.79C134.13,-151.68 109.74,-137.46 89.56,-125.69"/>
<polygon fill="black" stroke="black" points="91.45,-122.74 81.05,-120.73 87.93,-128.79 91.45,-122.74"/>
</g>
<!-- 3 -->
<g id="node4" class="node">
<title>3</title>
<ellipse fill="white" stroke="black" cx="142.96" cy="-102.19" rx="27" ry="22.06"/>
<text text-anchor="middle" x="142.96" y="-97.99" font-family="Arial" font-size="14.00">sub</text>
</g>
<!-- 1&#45;&gt;3 -->
<g id="edge3" class="edge">
<title>1&#45;&gt;3</title>
<path fill="none" stroke="black" d="M173.7,-160.37C169.15,-151.9 163.8,-141.97 158.86,-132.78"/>
<polygon fill="black" stroke="black" points="162.05,-131.32 154.24,-124.17 155.89,-134.63 162.05,-131.32"/>
</g>
<!-- 6 -->
<g id="node7" class="node">
<title>6</title>
<ellipse fill="white" stroke="black" cx="234.96" cy="-102.19" rx="47.05" ry="22.06"/>
<text text-anchor="middle" x="234.96" y="-97.99" font-family="Arial" font-size="14.00">distance</text>
</g>
<!-- 1&#45;&gt;6 -->
<g id="edge6" class="edge">
<title>1&#45;&gt;6</title>
<path fill="none" stroke="black" d="M198.35,-160.37C203.71,-152.01 209.97,-142.22 215.79,-133.13"/>
<polygon fill="black" stroke="black" points="218.61,-135.22 221.05,-124.91 212.71,-131.45 218.61,-135.22"/>
</g>
<!-- 4 -->
<g id="node5" class="node">
<title>4</title>
<ellipse fill="white" stroke="black" cx="34.96" cy="-22.06" rx="34.96" ry="22.06"/>
<text text-anchor="middle" x="34.96" y="-17.86" font-family="Arial" font-size="14.00">7.361</text>
</g>
<!-- 3&#45;&gt;4 -->
<g id="edge4" class="edge">
<title>3&#45;&gt;4</title>
<path fill="none" stroke="black" d="M123.15,-86.86C107.28,-75.38 84.72,-59.06 66.39,-45.8"/>
<polygon fill="black" stroke="black" points="68.63,-43.1 58.47,-40.07 64.52,-48.77 68.63,-43.1"/>
</g>
<!-- 5 -->
<g id="node6" class="node">
<title>5</title>
<ellipse fill="white" stroke="black" cx="142.96" cy="-22.06" rx="55.31" ry="22.06"/>
<text text-anchor="middle" x="142.96" y="-17.86" font-family="Arial" font-size="14.00">steepness</text>
</g>
<!-- 3&#45;&gt;5 -->
<g id="edge5" class="edge">
<title>3&#45;&gt;5</title>
<path fill="none" stroke="black" d="M142.96,-79.84C142.96,-72.43 142.96,-63.95 142.96,-55.83"/>
<polygon fill="black" stroke="black" points="146.46,-55.9 142.96,-45.9 139.46,-55.9 146.46,-55.9"/>
</g>
<!-- 8 -->
<g id="node9" class="node">
<title>8</title>
<ellipse fill="white" stroke="black" cx="334.96" cy="-102.19" rx="27" ry="22.06"/>
<text text-anchor="middle" x="334.96" y="-97.99" font-family="Arial" font-size="14.00">sub</text>
</g>
<!-- 7&#45;&gt;8 -->
<g id="edge8" class="edge">
<title>7&#45;&gt;8</title>
<path fill="none" stroke="black" d="M334.96,-159.96C334.96,-152.55 334.96,-144.07 334.96,-135.96"/>
<polygon fill="black" stroke="black" points="338.46,-136.02 334.96,-126.02 331.46,-136.02 338.46,-136.02"/>
</g>
<!-- 11 -->
<g id="node12" class="node">
<title>11</title>
<ellipse fill="white" stroke="black" cx="504.96" cy="-102.19" rx="27" ry="22.06"/>
<text text-anchor="middle" x="504.96" y="-97.99" font-family="Arial" font-size="14.00">sub</text>
</g>
<!-- 7&#45;&gt;11 -->
<g id="edge11" class="edge">
<title>7&#45;&gt;11</title>
<path fill="none" stroke="black" d="M358.24,-170.61C387.53,-157.15 438.04,-133.94 471.48,-118.57"/>
<polygon fill="black" stroke="black" points="472.68,-121.87 480.31,-114.51 469.76,-115.51 472.68,-121.87"/>
</g>
<!-- 9 -->
<g id="node10" class="node">
<title>9</title>
<ellipse fill="white" stroke="black" cx="250.96" cy="-22.06" rx="34.96" ry="22.06"/>
<text text-anchor="middle" x="250.96" y="-17.86" font-family="Arial" font-size="14.00">6.609</text>
</g>
<!-- 8&#45;&gt;9 -->
<g id="edge9" class="edge">
<title>8&#45;&gt;9</title>
<path fill="none" stroke="black" d="M317.55,-85C306.2,-74.44 291.14,-60.44 278.22,-48.42"/>
<polygon fill="black" stroke="black" points="280.91,-46.14 271.2,-41.89 276.14,-51.27 280.91,-46.14"/>
</g>
<!-- 10 -->
<g id="node11" class="node">
<title>10</title>
<ellipse fill="white" stroke="black" cx="364.96" cy="-22.06" rx="60.82" ry="22.06"/>
<text text-anchor="middle" x="364.96" y="-17.86" font-family="Arial" font-size="14.00">elevation_u</text>
</g>
<!-- 8&#45;&gt;10 -->
<g id="edge10" class="edge">
<title>8&#45;&gt;10</title>
<path fill="none" stroke="black" d="M342.84,-80.66C345.86,-72.78 349.4,-63.58 352.74,-54.88"/>
<polygon fill="black" stroke="black" points="355.95,-56.27 356.27,-45.68 349.42,-53.76 355.95,-56.27"/>
</g>
<!-- 12 -->
<g id="node13" class="node">
<title>12</title>
<ellipse fill="white" stroke="black" cx="504.96" cy="-22.06" rx="60.82" ry="22.06"/>
<text text-anchor="middle" x="504.96" y="-17.86" font-family="Arial" font-size="14.00">elevation_u</text>
</g>
<!-- 11&#45;&gt;12 -->
<g id="edge12" class="edge">
<title>11&#45;&gt;12</title>
<path fill="none" stroke="black" d="M504.96,-79.84C504.96,-72.43 504.96,-63.95 504.96,-55.83"/>
<polygon fill="black" stroke="black" points="508.46,-55.9 504.96,-45.9 501.46,-55.9 508.46,-55.9"/>
</g>
<!-- 13 -->
<g id="node14" class="node">
<title>13</title>
<ellipse fill="white" stroke="black" cx="643.96" cy="-22.06" rx="60.26" ry="22.06"/>
<text text-anchor="middle" x="643.96" y="-17.86" font-family="Arial" font-size="14.00">elevation_v</text>
</g>
<!-- 11&#45;&gt;13 -->
<g id="edge13" class="edge">
<title>11&#45;&gt;13</title>
<path fill="none" stroke="black" d="M526.98,-88.81C547.1,-77.5 577.38,-60.48 602.09,-46.59"/>
<polygon fill="black" stroke="black" points="603.63,-49.74 610.63,-41.79 600.2,-43.64 603.63,-49.74"/>
</g>
</g>
</svg>
