<?xml version="1.0" encoding="UTF-8" standalone="no"?>
<!DOCTYPE svg PUBLIC "-//W3C//DTD SVG 1.1//EN"
 "http://www.w3.org/Graphics/SVG/1.1/DTD/svg11.dtd">
<!-- Generated by graphviz version 12.2.1 (0)
 -->
<!-- Title: G Pages: 1 -->
<svg width="780pt" height="405pt"
 viewBox="36.00 36.00 744.36 369.29" xmlns="http://www.w3.org/2000/svg" xmlns:xlink="http://www.w3.org/1999/xlink">
<g id="graph0" class="graph" transform="scale(1 1) rotate(0) translate(40 365.29)">
<title>G</title>
<polygon fill="white" stroke="none" points="-4,4 -4,-329.29 704.36,-329.29 704.36,4 -4,4"/>
<text text-anchor="middle" x="350.18" y="-308.69" font-family="Times New Roman,serif" font-size="14.00">(&#39;best_1tree_5000pop_15gen_20runs_res200_20subrun&#39;, &#39;&#39;)</text>
<!-- 0 -->
<g id="node1" class="node">
<title>0</title>
<ellipse fill="white" stroke="black" cx="269.05" cy="-262.43" rx="27" ry="22.06"/>
<text text-anchor="middle" x="269.05" y="-258.23" font-family="Arial" font-size="14.00">add</text>
</g>
<!-- 1 -->
<g id="node2" class="node">
<title>1</title>
<ellipse fill="white" stroke="black" cx="215.05" cy="-182.31" rx="63.57" ry="22.06"/>
<text text-anchor="middle" x="215.05" y="-178.11" font-family="Arial" font-size="14.00">if_then_else</text>
</g>
<!-- 0&#45;&gt;1 -->
<g id="edge1" class="edge">
<title>0&#45;&gt;1</title>
<path fill="none" stroke="black" d="M256.26,-242.92C250.16,-234.1 242.71,-223.32 235.83,-213.37"/>
<polygon fill="black" stroke="black" points="238.9,-211.65 230.33,-205.41 233.14,-215.63 238.9,-211.65"/>
</g>
<!-- 7 -->
<g id="node8" class="node">
<title>7</title>
<ellipse fill="white" stroke="black" cx="365.05" cy="-182.31" rx="27" ry="22.06"/>
<text text-anchor="middle" x="365.05" y="-178.11" font-family="Arial" font-size="14.00">mul</text>
</g>
<!-- 0&#45;&gt;7 -->
<g id="edge7" class="edge">
<title>0&#45;&gt;7</title>
<path fill="none" stroke="black" d="M287.56,-246.37C301.68,-234.88 321.36,-218.87 337.35,-205.85"/>
<polygon fill="black" stroke="black" points="339.55,-208.57 345.1,-199.55 335.13,-203.14 339.55,-208.57"/>
</g>
<!-- 2 -->
<g id="node3" class="node">
<title>2</title>
<ellipse fill="white" stroke="black" cx="81.05" cy="-102.19" rx="47.04" ry="22.06"/>
<text text-anchor="middle" x="81.05" y="-97.99" font-family="Arial" font-size="14.00">is_water</text>
</g>
<!-- 1&#45;&gt;2 -->
<g id="edge2" class="edge">
<title>1&#45;&gt;2</title>
<path fill="none" stroke="black" d="M183.3,-162.79C164.23,-151.68 139.84,-137.46 119.66,-125.69"/>
<polygon fill="black" stroke="black" points="121.55,-122.74 111.15,-120.73 118.03,-128.79 121.55,-122.74"/>
</g>
<!-- 3 -->
<g id="node4" class="node">
<title>3</title>
<ellipse fill="white" stroke="black" cx="173.05" cy="-102.19" rx="27" ry="22.06"/>
<text text-anchor="middle" x="173.05" y="-97.99" font-family="Arial" font-size="14.00">sub</text>
</g>
<!-- 1&#45;&gt;3 -->
<g id="edge3" class="edge">
<title>1&#45;&gt;3</title>
<path fill="none" stroke="black" d="M203.8,-160.37C199.24,-151.9 193.9,-141.97 188.96,-132.78"/>
<polygon fill="black" stroke="black" points="192.15,-131.32 184.33,-124.17 185.99,-134.63 192.15,-131.32"/>
</g>
<!-- 6 -->
<g id="node7" class="node">
<title>6</title>
<ellipse fill="white" stroke="black" cx="265.05" cy="-102.19" rx="47.05" ry="22.06"/>
<text text-anchor="middle" x="265.05" y="-97.99" font-family="Arial" font-size="14.00">distance</text>
</g>
<!-- 1&#45;&gt;6 -->
<g id="edge6" class="edge">
<title>1&#45;&gt;6</title>
<path fill="none" stroke="black" d="M228.45,-160.37C233.81,-152.01 240.07,-142.22 245.89,-133.13"/>
<polygon fill="black" stroke="black" points="248.71,-135.22 251.15,-124.91 242.81,-131.45 248.71,-135.22"/>
</g>
<!-- 4 -->
<g id="node5" class="node">
<title>4</title>
<ellipse fill="white" stroke="black" cx="47.05" cy="-22.06" rx="47.05" ry="22.06"/>
<text text-anchor="middle" x="47.05" y="-17.86" font-family="Arial" font-size="14.00">distance</text>
</g>
<!-- 3&#45;&gt;4 -->
<g id="edge4" class="edge">
<title>3&#45;&gt;4</title>
<path fill="none" stroke="black" d="M151.96,-88.11C133.62,-76.73 106.59,-59.98 84.56,-46.32"/>
<polygon fill="black" stroke="black" points="86.48,-43.39 76.13,-41.09 82.79,-49.33 86.48,-43.39"/>
</g>
<!-- 5 -->
<g id="node6" class="node">
<title>5</title>
<ellipse fill="white" stroke="black" cx="173.05" cy="-22.06" rx="60.82" ry="22.06"/>
<text text-anchor="middle" x="173.05" y="-17.86" font-family="Arial" font-size="14.00">elevation_u</text>
</g>
<!-- 3&#45;&gt;5 -->
<g id="edge5" class="edge">
<title>3&#45;&gt;5</title>
<path fill="none" stroke="black" d="M173.05,-79.84C173.05,-72.43 173.05,-63.95 173.05,-55.83"/>
<polygon fill="black" stroke="black" points="176.55,-55.9 173.05,-45.9 169.55,-55.9 176.55,-55.9"/>
</g>
<!-- 8 -->
<g id="node9" class="node">
<title>8</title>
<ellipse fill="white" stroke="black" cx="365.05" cy="-102.19" rx="27" ry="22.06"/>
<text text-anchor="middle" x="365.05" y="-97.99" font-family="Arial" font-size="14.00">add</text>
</g>
<!-- 7&#45;&gt;8 -->
<g id="edge8" class="edge">
<title>7&#45;&gt;8</title>
<path fill="none" stroke="black" d="M365.05,-159.96C365.05,-152.55 365.05,-144.07 365.05,-135.96"/>
<polygon fill="black" stroke="black" points="368.55,-136.02 365.05,-126.02 361.55,-136.02 368.55,-136.02"/>
</g>
<!-- 11 -->
<g id="node12" class="node">
<title>11</title>
<ellipse fill="white" stroke="black" cx="537.05" cy="-102.19" rx="27" ry="22.06"/>
<text text-anchor="middle" x="537.05" y="-97.99" font-family="Arial" font-size="14.00">sub</text>
</g>
<!-- 7&#45;&gt;11 -->
<g id="edge11" class="edge">
<title>7&#45;&gt;11</title>
<path fill="none" stroke="black" d="M388.25,-170.77C417.87,-157.32 469.35,-133.94 503.31,-118.51"/>
<polygon fill="black" stroke="black" points="504.64,-121.75 512.3,-114.43 501.75,-115.38 504.64,-121.75"/>
</g>
<!-- 9 -->
<g id="node10" class="node">
<title>9</title>
<ellipse fill="white" stroke="black" cx="299.05" cy="-22.06" rx="47.05" ry="22.06"/>
<text text-anchor="middle" x="299.05" y="-17.86" font-family="Arial" font-size="14.00">distance</text>
</g>
<!-- 8&#45;&gt;9 -->
<g id="edge9" class="edge">
<title>8&#45;&gt;9</title>
<path fill="none" stroke="black" d="M350.08,-83.46C342.11,-74.03 332.13,-62.22 323.11,-51.54"/>
<polygon fill="black" stroke="black" points="325.93,-49.45 316.81,-44.07 320.59,-53.97 325.93,-49.45"/>
</g>
<!-- 10 -->
<g id="node11" class="node">
<title>10</title>
<ellipse fill="white" stroke="black" cx="424.05" cy="-22.06" rx="60.26" ry="22.06"/>
<text text-anchor="middle" x="424.05" y="-17.86" font-family="Arial" font-size="14.00">elevation_v</text>
</g>
<!-- 8&#45;&gt;10 -->
<g id="edge10" class="edge">
<title>8&#45;&gt;10</title>
<path fill="none" stroke="black" d="M378.74,-83.07C385.51,-74.09 393.87,-63.03 401.56,-52.85"/>
<polygon fill="black" stroke="black" points="404.21,-55.14 407.45,-45.05 398.63,-50.92 404.21,-55.14"/>
</g>
<!-- 12 -->
<g id="node13" class="node">
<title>12</title>
<ellipse fill="white" stroke="black" cx="537.05" cy="-22.06" rx="34.96" ry="22.06"/>
<text text-anchor="middle" x="537.05" y="-17.86" font-family="Arial" font-size="14.00">0.217</text>
</g>
<!-- 11&#45;&gt;12 -->
<g id="edge12" class="edge">
<title>11&#45;&gt;12</title>
<path fill="none" stroke="black" d="M537.05,-79.84C537.05,-72.43 537.05,-63.95 537.05,-55.83"/>
<polygon fill="black" stroke="black" points="540.55,-55.9 537.05,-45.9 533.55,-55.9 540.55,-55.9"/>
</g>
<!-- 13 -->
<g id="node14" class="node">
<title>13</title>
<ellipse fill="white" stroke="black" cx="645.05" cy="-22.06" rx="55.31" ry="22.06"/>
<text text-anchor="middle" x="645.05" y="-17.86" font-family="Arial" font-size="14.00">steepness</text>
</g>
<!-- 11&#45;&gt;13 -->
<g id="edge13" class="edge">
<title>11&#45;&gt;13</title>
<path fill="none" stroke="black" d="M556.86,-86.86C571.8,-76.05 592.66,-60.96 610.34,-48.17"/>
<polygon fill="black" stroke="black" points="611.98,-51.31 618.03,-42.61 607.87,-45.64 611.98,-51.31"/>
</g>
</g>
</svg>
