<?xml version="1.0" encoding="UTF-8" standalone="no"?>
<!DOCTYPE svg PUBLIC "-//W3C//DTD SVG 1.1//EN"
 "http://www.w3.org/Graphics/SVG/1.1/DTD/svg11.dtd">
<!-- Generated by graphviz version 12.2.1 (0)
 -->
<!-- Title: G Pages: 1 -->
<svg width="689pt" height="485pt"
 viewBox="36.00 36.00 653.08 449.42" xmlns="http://www.w3.org/2000/svg" xmlns:xlink="http://www.w3.org/1999/xlink">
<g id="graph0" class="graph" transform="scale(1 1) rotate(0) translate(40 445.42)">
<title>G</title>
<polygon fill="white" stroke="none" points="-4,4 -4,-409.42 613.08,-409.42 613.08,4 -4,4"/>
<text text-anchor="middle" x="304.54" y="-388.82" font-family="Times New Roman,serif" font-size="14.00">(&#39;best_tree_5000pop_15gen_20runs_res200_1subrun&#39;, &#39;&#39;)</text>
<!-- 0 -->
<g id="node1" class="node">
<title>0</title>
<ellipse fill="white" stroke="black" cx="347.26" cy="-342.56" rx="27" ry="22.06"/>
<text text-anchor="middle" x="347.26" y="-338.36" font-family="Arial" font-size="14.00">add</text>
</g>
<!-- 1 -->
<g id="node2" class="node">
<title>1</title>
<ellipse fill="white" stroke="black" cx="277.26" cy="-262.43" rx="63.57" ry="22.06"/>
<text text-anchor="middle" x="277.26" y="-258.23" font-family="Arial" font-size="14.00">if_then_else</text>
</g>
<!-- 0&#45;&gt;1 -->
<g id="edge1" class="edge">
<title>0&#45;&gt;1</title>
<path fill="none" stroke="black" d="M331.73,-324.22C323.27,-314.78 312.6,-302.87 302.94,-292.09"/>
<polygon fill="black" stroke="black" points="305.77,-290 296.49,-284.89 300.56,-294.67 305.77,-290"/>
</g>
<!-- 9 -->
<g id="node10" class="node">
<title>9</title>
<ellipse fill="white" stroke="black" cx="440.26" cy="-262.43" rx="27" ry="22.06"/>
<text text-anchor="middle" x="440.26" y="-258.23" font-family="Arial" font-size="14.00">mul</text>
</g>
<!-- 0&#45;&gt;9 -->
<g id="edge9" class="edge">
<title>0&#45;&gt;9</title>
<path fill="none" stroke="black" d="M365.64,-326.12C379.26,-314.67 398.06,-298.88 413.37,-286.02"/>
<polygon fill="black" stroke="black" points="415.36,-288.92 420.77,-279.81 410.86,-283.56 415.36,-288.92"/>
</g>
<!-- 2 -->
<g id="node3" class="node">
<title>2</title>
<ellipse fill="white" stroke="black" cx="105.26" cy="-182.31" rx="71.26" ry="22.06"/>
<text text-anchor="middle" x="105.26" y="-178.11" font-family="Arial" font-size="14.00">identity_water</text>
</g>
<!-- 1&#45;&gt;2 -->
<g id="edge2" class="edge">
<title>1&#45;&gt;2</title>
<path fill="none" stroke="black" d="M239.52,-244.29C214.63,-232.99 181.79,-218.07 154.81,-205.81"/>
<polygon fill="black" stroke="black" points="156.34,-202.67 145.79,-201.72 153.45,-209.04 156.34,-202.67"/>
</g>
<!-- 5 -->
<g id="node6" class="node">
<title>5</title>
<ellipse fill="white" stroke="black" cx="231.26" cy="-182.31" rx="27" ry="22.06"/>
<text text-anchor="middle" x="231.26" y="-178.11" font-family="Arial" font-size="14.00">sub</text>
</g>
<!-- 1&#45;&gt;5 -->
<g id="edge5" class="edge">
<title>1&#45;&gt;5</title>
<path fill="none" stroke="black" d="M264.93,-240.5C259.85,-231.87 253.88,-221.72 248.38,-212.39"/>
<polygon fill="black" stroke="black" points="251.53,-210.84 243.44,-204 245.5,-214.39 251.53,-210.84"/>
</g>
<!-- 8 -->
<g id="node9" class="node">
<title>8</title>
<ellipse fill="white" stroke="black" cx="323.26" cy="-182.31" rx="47.05" ry="22.06"/>
<text text-anchor="middle" x="323.26" y="-178.11" font-family="Arial" font-size="14.00">distance</text>
</g>
<!-- 1&#45;&gt;8 -->
<g id="edge8" class="edge">
<title>1&#45;&gt;8</title>
<path fill="none" stroke="black" d="M289.59,-240.5C294.42,-232.29 300.06,-222.7 305.33,-213.76"/>
<polygon fill="black" stroke="black" points="308.23,-215.73 310.29,-205.34 302.2,-212.18 308.23,-215.73"/>
</g>
<!-- 3 -->
<g id="node4" class="node">
<title>3</title>
<ellipse fill="white" stroke="black" cx="71.26" cy="-102.19" rx="71.26" ry="22.06"/>
<text text-anchor="middle" x="71.26" y="-97.99" font-family="Arial" font-size="14.00">identity_water</text>
</g>
<!-- 2&#45;&gt;3 -->
<g id="edge3" class="edge">
<title>2&#45;&gt;3</title>
<path fill="none" stroke="black" d="M95.97,-159.96C92.6,-152.21 88.71,-143.28 85.03,-134.83"/>
<polygon fill="black" stroke="black" points="88.34,-133.67 81.14,-125.89 81.93,-136.46 88.34,-133.67"/>
</g>
<!-- 4 -->
<g id="node5" class="node">
<title>4</title>
<ellipse fill="white" stroke="black" cx="71.26" cy="-22.06" rx="47.04" ry="22.06"/>
<text text-anchor="middle" x="71.26" y="-17.86" font-family="Arial" font-size="14.00">is_water</text>
</g>
<!-- 3&#45;&gt;4 -->
<g id="edge4" class="edge">
<title>3&#45;&gt;4</title>
<path fill="none" stroke="black" d="M71.26,-79.84C71.26,-72.43 71.26,-63.95 71.26,-55.83"/>
<polygon fill="black" stroke="black" points="74.76,-55.9 71.26,-45.9 67.76,-55.9 74.76,-55.9"/>
</g>
<!-- 6 -->
<g id="node7" class="node">
<title>6</title>
<ellipse fill="white" stroke="black" cx="207.26" cy="-102.19" rx="47.05" ry="22.06"/>
<text text-anchor="middle" x="207.26" y="-97.99" font-family="Arial" font-size="14.00">distance</text>
</g>
<!-- 5&#45;&gt;6 -->
<g id="edge6" class="edge">
<title>5&#45;&gt;6</title>
<path fill="none" stroke="black" d="M224.83,-160.37C222.45,-152.64 219.71,-143.69 217.1,-135.2"/>
<polygon fill="black" stroke="black" points="220.52,-134.43 214.24,-125.9 213.83,-136.48 220.52,-134.43"/>
</g>
<!-- 7 -->
<g id="node8" class="node">
<title>7</title>
<ellipse fill="white" stroke="black" cx="332.26" cy="-102.19" rx="60.26" ry="22.06"/>
<text text-anchor="middle" x="332.26" y="-97.99" font-family="Arial" font-size="14.00">elevation_v</text>
</g>
<!-- 5&#45;&gt;7 -->
<g id="edge7" class="edge">
<title>5&#45;&gt;7</title>
<path fill="none" stroke="black" d="M250.26,-166.61C263.73,-156.19 282.18,-141.92 298.17,-129.56"/>
<polygon fill="black" stroke="black" points="300.27,-132.35 306.04,-123.46 295.99,-126.81 300.27,-132.35"/>
</g>
<!-- 10 -->
<g id="node11" class="node">
<title>10</title>
<ellipse fill="white" stroke="black" cx="440.26" cy="-182.31" rx="27" ry="22.06"/>
<text text-anchor="middle" x="440.26" y="-178.11" font-family="Arial" font-size="14.00">sub</text>
</g>
<!-- 9&#45;&gt;10 -->
<g id="edge10" class="edge">
<title>9&#45;&gt;10</title>
<path fill="none" stroke="black" d="M440.26,-240.08C440.26,-232.68 440.26,-224.19 440.26,-216.08"/>
<polygon fill="black" stroke="black" points="443.76,-216.14 440.26,-206.14 436.76,-216.14 443.76,-216.14"/>
</g>
<!-- 13 -->
<g id="node14" class="node">
<title>13</title>
<ellipse fill="white" stroke="black" cx="540.26" cy="-182.31" rx="55.31" ry="22.06"/>
<text text-anchor="middle" x="540.26" y="-178.11" font-family="Arial" font-size="14.00">steepness</text>
</g>
<!-- 9&#45;&gt;13 -->
<g id="edge13" class="edge">
<title>9&#45;&gt;13</title>
<path fill="none" stroke="black" d="M459.54,-246.37C472.92,-235.92 491.09,-221.72 506.81,-209.45"/>
<polygon fill="black" stroke="black" points="508.8,-212.33 514.53,-203.41 504.49,-206.81 508.8,-212.33"/>
</g>
<!-- 11 -->
<g id="node12" class="node">
<title>11</title>
<ellipse fill="white" stroke="black" cx="440.26" cy="-102.19" rx="29.45" ry="22.06"/>
<text text-anchor="middle" x="440.26" y="-97.99" font-family="Arial" font-size="14.00">6.02</text>
</g>
<!-- 10&#45;&gt;11 -->
<g id="edge11" class="edge">
<title>10&#45;&gt;11</title>
<path fill="none" stroke="black" d="M440.26,-159.96C440.26,-152.55 440.26,-144.07 440.26,-135.96"/>
<polygon fill="black" stroke="black" points="443.76,-136.02 440.26,-126.02 436.76,-136.02 443.76,-136.02"/>
</g>
<!-- 12 -->
<g id="node13" class="node">
<title>12</title>
<ellipse fill="white" stroke="black" cx="548.26" cy="-102.19" rx="60.82" ry="22.06"/>
<text text-anchor="middle" x="548.26" y="-97.99" font-family="Arial" font-size="14.00">elevation_u</text>
</g>
<!-- 10&#45;&gt;12 -->
<g id="edge12" class="edge">
<title>10&#45;&gt;12</title>
<path fill="none" stroke="black" d="M460.07,-166.98C474.8,-156.33 495.29,-141.5 512.81,-128.83"/>
<polygon fill="black" stroke="black" points="514.38,-132.01 520.43,-123.31 510.28,-126.34 514.38,-132.01"/>
</g>
</g>
</svg>
