<?xml version="1.0" encoding="UTF-8" standalone="no"?>
<!DOCTYPE svg PUBLIC "-//W3C//DTD SVG 1.1//EN"
 "http://www.w3.org/Graphics/SVG/1.1/DTD/svg11.dtd">
<!-- Generated by graphviz version 12.2.1 (0)
 -->
<!-- Title: G Pages: 1 -->
<svg width="868pt" height="405pt"
 viewBox="36.00 36.00 832.35 369.29" xmlns="http://www.w3.org/2000/svg" xmlns:xlink="http://www.w3.org/1999/xlink">
<g id="graph0" class="graph" transform="scale(1 1) rotate(0) translate(40 365.29)">
<title>G</title>
<polygon fill="white" stroke="none" points="-4,4 -4,-329.29 792.35,-329.29 792.35,4 -4,4"/>
<text text-anchor="middle" x="394.18" y="-308.69" font-family="Times New Roman,serif" font-size="14.00">(&#39;best_3tree_5000pop_15gen_20runs_res200_20subrun&#39;, &#39;&#39;)</text>
<!-- 0 -->
<g id="node1" class="node">
<title>0</title>
<ellipse fill="white" stroke="black" cx="329.04" cy="-262.43" rx="27" ry="22.06"/>
<text text-anchor="middle" x="329.04" y="-258.23" font-family="Arial" font-size="14.00">add</text>
</g>
<!-- 1 -->
<g id="node2" class="node">
<title>1</title>
<ellipse fill="white" stroke="black" cx="275.04" cy="-182.31" rx="63.57" ry="22.06"/>
<text text-anchor="middle" x="275.04" y="-178.11" font-family="Arial" font-size="14.00">if_then_else</text>
</g>
<!-- 0&#45;&gt;1 -->
<g id="edge1" class="edge">
<title>0&#45;&gt;1</title>
<path fill="none" stroke="black" d="M316.25,-242.92C310.15,-234.1 302.7,-223.32 295.82,-213.37"/>
<polygon fill="black" stroke="black" points="298.89,-211.65 290.32,-205.41 293.13,-215.63 298.89,-211.65"/>
</g>
<!-- 8 -->
<g id="node9" class="node">
<title>8</title>
<ellipse fill="white" stroke="black" cx="421.04" cy="-182.31" rx="27" ry="22.06"/>
<text text-anchor="middle" x="421.04" y="-178.11" font-family="Arial" font-size="14.00">mul</text>
</g>
<!-- 0&#45;&gt;8 -->
<g id="edge8" class="edge">
<title>0&#45;&gt;8</title>
<path fill="none" stroke="black" d="M347.22,-246C360.62,-234.62 379.05,-218.97 394.15,-206.15"/>
<polygon fill="black" stroke="black" points="396.08,-209.1 401.44,-199.96 391.55,-203.76 396.08,-209.1"/>
</g>
<!-- 2 -->
<g id="node3" class="node">
<title>2</title>
<ellipse fill="white" stroke="black" cx="91.04" cy="-102.19" rx="71.26" ry="22.06"/>
<text text-anchor="middle" x="91.04" y="-97.99" font-family="Arial" font-size="14.00">identity_water</text>
</g>
<!-- 1&#45;&gt;2 -->
<g id="edge2" class="edge">
<title>1&#45;&gt;2</title>
<path fill="none" stroke="black" d="M235.57,-164.55C208.39,-153.01 172.01,-137.56 142.56,-125.06"/>
<polygon fill="black" stroke="black" points="144.01,-121.87 133.44,-121.18 141.28,-128.31 144.01,-121.87"/>
</g>
<!-- 4 -->
<g id="node5" class="node">
<title>4</title>
<ellipse fill="white" stroke="black" cx="227.04" cy="-102.19" rx="27" ry="22.06"/>
<text text-anchor="middle" x="227.04" y="-97.99" font-family="Arial" font-size="14.00">sub</text>
</g>
<!-- 1&#45;&gt;4 -->
<g id="edge4" class="edge">
<title>1&#45;&gt;4</title>
<path fill="none" stroke="black" d="M262.18,-160.37C256.84,-151.68 250.55,-141.44 244.78,-132.05"/>
<polygon fill="black" stroke="black" points="247.8,-130.28 239.58,-123.59 241.84,-133.95 247.8,-130.28"/>
</g>
<!-- 7 -->
<g id="node8" class="node">
<title>7</title>
<ellipse fill="white" stroke="black" cx="319.04" cy="-102.19" rx="47.05" ry="22.06"/>
<text text-anchor="middle" x="319.04" y="-97.99" font-family="Arial" font-size="14.00">distance</text>
</g>
<!-- 1&#45;&gt;7 -->
<g id="edge7" class="edge">
<title>1&#45;&gt;7</title>
<path fill="none" stroke="black" d="M286.84,-160.37C291.41,-152.25 296.74,-142.79 301.73,-133.92"/>
<polygon fill="black" stroke="black" points="304.77,-135.66 306.63,-125.23 298.67,-132.22 304.77,-135.66"/>
</g>
<!-- 3 -->
<g id="node4" class="node">
<title>3</title>
<ellipse fill="white" stroke="black" cx="47.04" cy="-22.06" rx="47.04" ry="22.06"/>
<text text-anchor="middle" x="47.04" y="-17.86" font-family="Arial" font-size="14.00">is_water</text>
</g>
<!-- 2&#45;&gt;3 -->
<g id="edge3" class="edge">
<title>2&#45;&gt;3</title>
<path fill="none" stroke="black" d="M79.25,-80.25C74.68,-72.13 69.35,-62.66 64.36,-53.8"/>
<polygon fill="black" stroke="black" points="67.42,-52.1 59.46,-45.1 61.32,-55.53 67.42,-52.1"/>
</g>
<!-- 5 -->
<g id="node6" class="node">
<title>5</title>
<ellipse fill="white" stroke="black" cx="147.04" cy="-22.06" rx="34.96" ry="22.06"/>
<text text-anchor="middle" x="147.04" y="-17.86" font-family="Arial" font-size="14.00">0.232</text>
</g>
<!-- 4&#45;&gt;5 -->
<g id="edge5" class="edge">
<title>4&#45;&gt;5</title>
<path fill="none" stroke="black" d="M210.08,-84.62C199.49,-74.28 185.65,-60.76 173.63,-49.02"/>
<polygon fill="black" stroke="black" points="176.34,-46.78 166.74,-42.3 171.45,-51.79 176.34,-46.78"/>
</g>
<!-- 6 -->
<g id="node7" class="node">
<title>6</title>
<ellipse fill="white" stroke="black" cx="261.04" cy="-22.06" rx="60.82" ry="22.06"/>
<text text-anchor="middle" x="261.04" y="-17.86" font-family="Arial" font-size="14.00">elevation_u</text>
</g>
<!-- 4&#45;&gt;6 -->
<g id="edge6" class="edge">
<title>4&#45;&gt;6</title>
<path fill="none" stroke="black" d="M235.8,-81.07C239.3,-73.03 243.41,-63.58 247.29,-54.68"/>
<polygon fill="black" stroke="black" points="250.46,-56.16 251.24,-45.59 244.04,-53.37 250.46,-56.16"/>
</g>
<!-- 9 -->
<g id="node10" class="node">
<title>9</title>
<ellipse fill="white" stroke="black" cx="421.04" cy="-102.19" rx="27" ry="22.06"/>
<text text-anchor="middle" x="421.04" y="-97.99" font-family="Arial" font-size="14.00">add</text>
</g>
<!-- 8&#45;&gt;9 -->
<g id="edge9" class="edge">
<title>8&#45;&gt;9</title>
<path fill="none" stroke="black" d="M421.04,-159.96C421.04,-152.55 421.04,-144.07 421.04,-135.96"/>
<polygon fill="black" stroke="black" points="424.54,-136.02 421.04,-126.02 417.54,-136.02 424.54,-136.02"/>
</g>
<!-- 12 -->
<g id="node13" class="node">
<title>12</title>
<ellipse fill="white" stroke="black" cx="625.04" cy="-102.19" rx="27" ry="22.06"/>
<text text-anchor="middle" x="625.04" y="-97.99" font-family="Arial" font-size="14.00">sub</text>
</g>
<!-- 8&#45;&gt;12 -->
<g id="edge12" class="edge">
<title>8&#45;&gt;12</title>
<path fill="none" stroke="black" d="M445.25,-172.04C481.21,-158.27 548.94,-132.33 590.23,-116.52"/>
<polygon fill="black" stroke="black" points="591.37,-119.83 599.46,-112.98 588.87,-113.29 591.37,-119.83"/>
</g>
<!-- 10 -->
<g id="node11" class="node">
<title>10</title>
<ellipse fill="white" stroke="black" cx="387.04" cy="-22.06" rx="47.05" ry="22.06"/>
<text text-anchor="middle" x="387.04" y="-17.86" font-family="Arial" font-size="14.00">distance</text>
</g>
<!-- 9&#45;&gt;10 -->
<g id="edge10" class="edge">
<title>9&#45;&gt;10</title>
<path fill="none" stroke="black" d="M412.29,-81.07C408.76,-72.97 404.61,-63.43 400.71,-54.46"/>
<polygon fill="black" stroke="black" points="403.93,-53.09 396.73,-45.32 397.51,-55.88 403.93,-53.09"/>
</g>
<!-- 11 -->
<g id="node12" class="node">
<title>11</title>
<ellipse fill="white" stroke="black" cx="512.04" cy="-22.06" rx="60.26" ry="22.06"/>
<text text-anchor="middle" x="512.04" y="-17.86" font-family="Arial" font-size="14.00">elevation_v</text>
</g>
<!-- 9&#45;&gt;11 -->
<g id="edge11" class="edge">
<title>9&#45;&gt;11</title>
<path fill="none" stroke="black" d="M439.02,-85.75C450.86,-75.59 466.68,-62 480.57,-50.08"/>
<polygon fill="black" stroke="black" points="482.46,-53.07 487.77,-43.9 477.9,-47.76 482.46,-53.07"/>
</g>
<!-- 13 -->
<g id="node14" class="node">
<title>13</title>
<ellipse fill="white" stroke="black" cx="625.04" cy="-22.06" rx="34.96" ry="22.06"/>
<text text-anchor="middle" x="625.04" y="-17.86" font-family="Arial" font-size="14.00">0.232</text>
</g>
<!-- 12&#45;&gt;13 -->
<g id="edge13" class="edge">
<title>12&#45;&gt;13</title>
<path fill="none" stroke="black" d="M625.04,-79.84C625.04,-72.43 625.04,-63.95 625.04,-55.83"/>
<polygon fill="black" stroke="black" points="628.54,-55.9 625.04,-45.9 621.54,-55.9 628.54,-55.9"/>
</g>
<!-- 14 -->
<g id="node15" class="node">
<title>14</title>
<ellipse fill="white" stroke="black" cx="733.04" cy="-22.06" rx="55.31" ry="22.06"/>
<text text-anchor="middle" x="733.04" y="-17.86" font-family="Arial" font-size="14.00">steepness</text>
</g>
<!-- 12&#45;&gt;14 -->
<g id="edge14" class="edge">
<title>12&#45;&gt;14</title>
<path fill="none" stroke="black" d="M644.85,-86.86C659.79,-76.05 680.65,-60.96 698.33,-48.17"/>
<polygon fill="black" stroke="black" points="699.97,-51.31 706.02,-42.61 695.86,-45.64 699.97,-51.31"/>
</g>
</g>
</svg>
