<?xml version="1.0" encoding="UTF-8" standalone="no"?>
<!DOCTYPE svg PUBLIC "-//W3C//DTD SVG 1.1//EN"
 "http://www.w3.org/Graphics/SVG/1.1/DTD/svg11.dtd">
<!-- Generated by graphviz version 12.2.1 (0)
 -->
<!-- Title: G Pages: 1 -->
<svg width="756pt" height="405pt"
 viewBox="36.00 36.00 720.27 369.29" xmlns="http://www.w3.org/2000/svg" xmlns:xlink="http://www.w3.org/1999/xlink">
<g id="graph0" class="graph" transform="scale(1 1) rotate(0) translate(40 365.29)">
<title>G</title>
<polygon fill="white" stroke="none" points="-4,4 -4,-329.29 680.27,-329.29 680.27,4 -4,4"/>
<text text-anchor="middle" x="338.13" y="-308.69" font-family="Times New Roman,serif" font-size="14.00">(&#39;best_4tree_5000pop_15gen_20runs_res200_20subrun&#39;, &#39;&#39;)</text>
<!-- 0 -->
<g id="node1" class="node">
<title>0</title>
<ellipse fill="white" stroke="black" cx="244.96" cy="-262.43" rx="27" ry="22.06"/>
<text text-anchor="middle" x="244.96" y="-258.23" font-family="Arial" font-size="14.00">add</text>
</g>
<!-- 1 -->
<g id="node2" class="node">
<title>1</title>
<ellipse fill="white" stroke="black" cx="190.96" cy="-182.31" rx="63.57" ry="22.06"/>
<text text-anchor="middle" x="190.96" y="-178.11" font-family="Arial" font-size="14.00">if_then_else</text>
</g>
<!-- 0&#45;&gt;1 -->
<g id="edge1" class="edge">
<title>0&#45;&gt;1</title>
<path fill="none" stroke="black" d="M232.16,-242.92C226.06,-234.1 218.61,-223.32 211.73,-213.37"/>
<polygon fill="black" stroke="black" points="214.8,-211.65 206.23,-205.41 209.04,-215.63 214.8,-211.65"/>
</g>
<!-- 7 -->
<g id="node8" class="node">
<title>7</title>
<ellipse fill="white" stroke="black" cx="340.96" cy="-182.31" rx="27" ry="22.06"/>
<text text-anchor="middle" x="340.96" y="-178.11" font-family="Arial" font-size="14.00">mul</text>
</g>
<!-- 0&#45;&gt;7 -->
<g id="edge7" class="edge">
<title>0&#45;&gt;7</title>
<path fill="none" stroke="black" d="M263.47,-246.37C277.58,-234.88 297.26,-218.87 313.25,-205.85"/>
<polygon fill="black" stroke="black" points="315.45,-208.57 321,-199.55 311.04,-203.14 315.45,-208.57"/>
</g>
<!-- 2 -->
<g id="node3" class="node">
<title>2</title>
<ellipse fill="white" stroke="black" cx="56.96" cy="-102.19" rx="47.04" ry="22.06"/>
<text text-anchor="middle" x="56.96" y="-97.99" font-family="Arial" font-size="14.00">is_water</text>
</g>
<!-- 1&#45;&gt;2 -->
<g id="edge2" class="edge">
<title>1&#45;&gt;2</title>
<path fill="none" stroke="black" d="M159.2,-162.79C140.13,-151.68 115.74,-137.46 95.56,-125.69"/>
<polygon fill="black" stroke="black" points="97.45,-122.74 87.05,-120.73 93.93,-128.79 97.45,-122.74"/>
</g>
<!-- 3 -->
<g id="node4" class="node">
<title>3</title>
<ellipse fill="white" stroke="black" cx="148.96" cy="-102.19" rx="27" ry="22.06"/>
<text text-anchor="middle" x="148.96" y="-97.99" font-family="Arial" font-size="14.00">sub</text>
</g>
<!-- 1&#45;&gt;3 -->
<g id="edge3" class="edge">
<title>1&#45;&gt;3</title>
<path fill="none" stroke="black" d="M179.7,-160.37C175.15,-151.9 169.8,-141.97 164.86,-132.78"/>
<polygon fill="black" stroke="black" points="168.05,-131.32 160.24,-124.17 161.89,-134.63 168.05,-131.32"/>
</g>
<!-- 6 -->
<g id="node7" class="node">
<title>6</title>
<ellipse fill="white" stroke="black" cx="240.96" cy="-102.19" rx="47.05" ry="22.06"/>
<text text-anchor="middle" x="240.96" y="-97.99" font-family="Arial" font-size="14.00">distance</text>
</g>
<!-- 1&#45;&gt;6 -->
<g id="edge6" class="edge">
<title>1&#45;&gt;6</title>
<path fill="none" stroke="black" d="M204.35,-160.37C209.71,-152.01 215.97,-142.22 221.79,-133.13"/>
<polygon fill="black" stroke="black" points="224.61,-135.22 227.05,-124.91 218.71,-131.45 224.61,-135.22"/>
</g>
<!-- 4 -->
<g id="node5" class="node">
<title>4</title>
<ellipse fill="white" stroke="black" cx="34.96" cy="-22.06" rx="34.96" ry="22.06"/>
<text text-anchor="middle" x="34.96" y="-17.86" font-family="Arial" font-size="14.00">0.242</text>
</g>
<!-- 3&#45;&gt;4 -->
<g id="edge4" class="edge">
<title>3&#45;&gt;4</title>
<path fill="none" stroke="black" d="M128.57,-87.22C111.51,-75.53 86.86,-58.63 67.14,-45.11"/>
<polygon fill="black" stroke="black" points="69.38,-42.41 59.15,-39.64 65.42,-48.18 69.38,-42.41"/>
</g>
<!-- 5 -->
<g id="node6" class="node">
<title>5</title>
<ellipse fill="white" stroke="black" cx="148.96" cy="-22.06" rx="60.82" ry="22.06"/>
<text text-anchor="middle" x="148.96" y="-17.86" font-family="Arial" font-size="14.00">elevation_u</text>
</g>
<!-- 3&#45;&gt;5 -->
<g id="edge5" class="edge">
<title>3&#45;&gt;5</title>
<path fill="none" stroke="black" d="M148.96,-79.84C148.96,-72.43 148.96,-63.95 148.96,-55.83"/>
<polygon fill="black" stroke="black" points="152.46,-55.9 148.96,-45.9 145.46,-55.9 152.46,-55.9"/>
</g>
<!-- 8 -->
<g id="node9" class="node">
<title>8</title>
<ellipse fill="white" stroke="black" cx="340.96" cy="-102.19" rx="27" ry="22.06"/>
<text text-anchor="middle" x="340.96" y="-97.99" font-family="Arial" font-size="14.00">add</text>
</g>
<!-- 7&#45;&gt;8 -->
<g id="edge8" class="edge">
<title>7&#45;&gt;8</title>
<path fill="none" stroke="black" d="M340.96,-159.96C340.96,-152.55 340.96,-144.07 340.96,-135.96"/>
<polygon fill="black" stroke="black" points="344.46,-136.02 340.96,-126.02 337.46,-136.02 344.46,-136.02"/>
</g>
<!-- 11 -->
<g id="node12" class="node">
<title>11</title>
<ellipse fill="white" stroke="black" cx="512.96" cy="-102.19" rx="27" ry="22.06"/>
<text text-anchor="middle" x="512.96" y="-97.99" font-family="Arial" font-size="14.00">sub</text>
</g>
<!-- 7&#45;&gt;11 -->
<g id="edge11" class="edge">
<title>7&#45;&gt;11</title>
<path fill="none" stroke="black" d="M364.15,-170.77C393.77,-157.32 445.25,-133.94 479.22,-118.51"/>
<polygon fill="black" stroke="black" points="480.54,-121.75 488.2,-114.43 477.65,-115.38 480.54,-121.75"/>
</g>
<!-- 9 -->
<g id="node10" class="node">
<title>9</title>
<ellipse fill="white" stroke="black" cx="274.96" cy="-22.06" rx="47.05" ry="22.06"/>
<text text-anchor="middle" x="274.96" y="-17.86" font-family="Arial" font-size="14.00">distance</text>
</g>
<!-- 8&#45;&gt;9 -->
<g id="edge9" class="edge">
<title>8&#45;&gt;9</title>
<path fill="none" stroke="black" d="M325.98,-83.46C318.02,-74.03 308.03,-62.22 299.01,-51.54"/>
<polygon fill="black" stroke="black" points="301.83,-49.45 292.71,-44.07 296.49,-53.97 301.83,-49.45"/>
</g>
<!-- 10 -->
<g id="node11" class="node">
<title>10</title>
<ellipse fill="white" stroke="black" cx="399.96" cy="-22.06" rx="60.26" ry="22.06"/>
<text text-anchor="middle" x="399.96" y="-17.86" font-family="Arial" font-size="14.00">elevation_v</text>
</g>
<!-- 8&#45;&gt;10 -->
<g id="edge10" class="edge">
<title>8&#45;&gt;10</title>
<path fill="none" stroke="black" d="M354.64,-83.07C361.42,-74.09 369.77,-63.03 377.46,-52.85"/>
<polygon fill="black" stroke="black" points="380.11,-55.14 383.35,-45.05 374.53,-50.92 380.11,-55.14"/>
</g>
<!-- 12 -->
<g id="node13" class="node">
<title>12</title>
<ellipse fill="white" stroke="black" cx="512.96" cy="-22.06" rx="34.96" ry="22.06"/>
<text text-anchor="middle" x="512.96" y="-17.86" font-family="Arial" font-size="14.00">0.232</text>
</g>
<!-- 11&#45;&gt;12 -->
<g id="edge12" class="edge">
<title>11&#45;&gt;12</title>
<path fill="none" stroke="black" d="M512.96,-79.84C512.96,-72.43 512.96,-63.95 512.96,-55.83"/>
<polygon fill="black" stroke="black" points="516.46,-55.9 512.96,-45.9 509.46,-55.9 516.46,-55.9"/>
</g>
<!-- 13 -->
<g id="node14" class="node">
<title>13</title>
<ellipse fill="white" stroke="black" cx="620.96" cy="-22.06" rx="55.31" ry="22.06"/>
<text text-anchor="middle" x="620.96" y="-17.86" font-family="Arial" font-size="14.00">steepness</text>
</g>
<!-- 11&#45;&gt;13 -->
<g id="edge13" class="edge">
<title>11&#45;&gt;13</title>
<path fill="none" stroke="black" d="M532.76,-86.86C547.7,-76.05 568.56,-60.96 586.25,-48.17"/>
<polygon fill="black" stroke="black" points="587.88,-51.31 593.93,-42.61 583.78,-45.64 587.88,-51.31"/>
</g>
</g>
</svg>
