<?xml version="1.0" encoding="UTF-8" standalone="no"?>
<!DOCTYPE svg PUBLIC "-//W3C//DTD SVG 1.1//EN"
 "http://www.w3.org/Graphics/SVG/1.1/DTD/svg11.dtd">
<!-- Generated by graphviz version 12.2.1 (0)
 -->
<!-- Title: G Pages: 1 -->
<svg width="1068pt" height="405pt"
 viewBox="36.00 36.00 1032.00 369.29" xmlns="http://www.w3.org/2000/svg" xmlns:xlink="http://www.w3.org/1999/xlink">
<g id="graph0" class="graph" transform="scale(1 1) rotate(0) translate(40 365.29)">
<title>G</title>
<polygon fill="white" stroke="none" points="-4,4 -4,-329.29 992,-329.29 992,4 -4,4"/>
<text text-anchor="middle" x="494" y="-308.69" font-family="Times New Roman,serif" font-size="14.00">(&#39;best_5tree_1000pop_15gen_15runs_res200_15subrun&#39;, &#39;&#39;)</text>
<!-- 0 -->
<g id="node1" class="node">
<title>0</title>
<ellipse fill="white" stroke="black" cx="339.04" cy="-262.43" rx="63.57" ry="22.06"/>
<text text-anchor="middle" x="339.04" y="-258.23" font-family="Arial" font-size="14.00">if_then_else</text>
</g>
<!-- 1 -->
<g id="node2" class="node">
<title>1</title>
<ellipse fill="white" stroke="black" cx="202.04" cy="-182.31" rx="71.26" ry="22.06"/>
<text text-anchor="middle" x="202.04" y="-178.11" font-family="Arial" font-size="14.00">identity_water</text>
</g>
<!-- 0&#45;&gt;1 -->
<g id="edge1" class="edge">
<title>0&#45;&gt;1</title>
<path fill="none" stroke="black" d="M306.92,-243.12C288.39,-232.54 264.84,-219.12 244.76,-207.67"/>
<polygon fill="black" stroke="black" points="246.65,-204.72 236.23,-202.8 243.18,-210.8 246.65,-204.72"/>
</g>
<!-- 4 -->
<g id="node5" class="node">
<title>4</title>
<ellipse fill="white" stroke="black" cx="339.04" cy="-182.31" rx="27" ry="22.06"/>
<text text-anchor="middle" x="339.04" y="-178.11" font-family="Arial" font-size="14.00">add</text>
</g>
<!-- 0&#45;&gt;4 -->
<g id="edge4" class="edge">
<title>0&#45;&gt;4</title>
<path fill="none" stroke="black" d="M339.04,-240.08C339.04,-232.68 339.04,-224.19 339.04,-216.08"/>
<polygon fill="black" stroke="black" points="342.54,-216.14 339.04,-206.14 335.54,-216.14 342.54,-216.14"/>
</g>
<!-- 11 -->
<g id="node12" class="node">
<title>11</title>
<ellipse fill="white" stroke="black" cx="670.04" cy="-182.31" rx="27" ry="22.06"/>
<text text-anchor="middle" x="670.04" y="-178.11" font-family="Arial" font-size="14.00">mul</text>
</g>
<!-- 0&#45;&gt;11 -->
<g id="edge11" class="edge">
<title>0&#45;&gt;11</title>
<path fill="none" stroke="black" d="M390.76,-249.23C458.09,-233.33 574.13,-205.95 633.19,-192.01"/>
<polygon fill="black" stroke="black" points="633.81,-195.46 642.74,-189.75 632.2,-188.64 633.81,-195.46"/>
</g>
<!-- 2 -->
<g id="node3" class="node">
<title>2</title>
<ellipse fill="white" stroke="black" cx="84.04" cy="-102.19" rx="71.26" ry="22.06"/>
<text text-anchor="middle" x="84.04" y="-97.99" font-family="Arial" font-size="14.00">identity_water</text>
</g>
<!-- 1&#45;&gt;2 -->
<g id="edge2" class="edge">
<title>1&#45;&gt;2</title>
<path fill="none" stroke="black" d="M172.57,-161.8C157.51,-151.82 138.98,-139.56 122.78,-128.83"/>
<polygon fill="black" stroke="black" points="125.08,-126.16 114.81,-123.56 121.22,-131.99 125.08,-126.16"/>
</g>
<!-- 3 -->
<g id="node4" class="node">
<title>3</title>
<ellipse fill="white" stroke="black" cx="47.04" cy="-22.06" rx="47.04" ry="22.06"/>
<text text-anchor="middle" x="47.04" y="-17.86" font-family="Arial" font-size="14.00">is_water</text>
</g>
<!-- 2&#45;&gt;3 -->
<g id="edge3" class="edge">
<title>2&#45;&gt;3</title>
<path fill="none" stroke="black" d="M74.13,-80.25C70.35,-72.28 65.97,-63.02 61.84,-54.3"/>
<polygon fill="black" stroke="black" points="65.08,-52.96 57.63,-45.42 58.75,-55.96 65.08,-52.96"/>
</g>
<!-- 5 -->
<g id="node6" class="node">
<title>5</title>
<ellipse fill="white" stroke="black" cx="282.04" cy="-102.19" rx="69.62" ry="22.06"/>
<text text-anchor="middle" x="282.04" y="-97.99" font-family="Arial" font-size="14.00">protected_div</text>
</g>
<!-- 4&#45;&gt;5 -->
<g id="edge5" class="edge">
<title>4&#45;&gt;5</title>
<path fill="none" stroke="black" d="M325.54,-162.79C319.1,-153.97 311.24,-143.2 303.98,-133.24"/>
<polygon fill="black" stroke="black" points="306.88,-131.28 298.16,-125.27 301.22,-135.41 306.88,-131.28"/>
</g>
<!-- 8 -->
<g id="node9" class="node">
<title>8</title>
<ellipse fill="white" stroke="black" cx="397.04" cy="-102.19" rx="27" ry="22.06"/>
<text text-anchor="middle" x="397.04" y="-97.99" font-family="Arial" font-size="14.00">mul</text>
</g>
<!-- 4&#45;&gt;8 -->
<g id="edge8" class="edge">
<title>4&#45;&gt;8</title>
<path fill="none" stroke="black" d="M352.79,-162.79C359.94,-153.16 368.82,-141.2 376.75,-130.53"/>
<polygon fill="black" stroke="black" points="379.34,-132.9 382.5,-122.78 373.72,-128.72 379.34,-132.9"/>
</g>
<!-- 6 -->
<g id="node7" class="node">
<title>6</title>
<ellipse fill="white" stroke="black" cx="172.04" cy="-22.06" rx="60.26" ry="22.06"/>
<text text-anchor="middle" x="172.04" y="-17.86" font-family="Arial" font-size="14.00">elevation_v</text>
</g>
<!-- 5&#45;&gt;6 -->
<g id="edge6" class="edge">
<title>5&#45;&gt;6</title>
<path fill="none" stroke="black" d="M254.29,-81.47C240.27,-71.51 223.09,-59.31 208.06,-48.64"/>
<polygon fill="black" stroke="black" points="210.45,-46.04 200.27,-43.11 206.39,-51.75 210.45,-46.04"/>
</g>
<!-- 7 -->
<g id="node8" class="node">
<title>7</title>
<ellipse fill="white" stroke="black" cx="285.04" cy="-22.06" rx="34.96" ry="22.06"/>
<text text-anchor="middle" x="285.04" y="-17.86" font-family="Arial" font-size="14.00">0.729</text>
</g>
<!-- 5&#45;&gt;7 -->
<g id="edge7" class="edge">
<title>5&#45;&gt;7</title>
<path fill="none" stroke="black" d="M282.86,-79.84C283.15,-72.43 283.47,-63.95 283.79,-55.83"/>
<polygon fill="black" stroke="black" points="287.28,-56.02 284.17,-45.9 280.29,-55.75 287.28,-56.02"/>
</g>
<!-- 9 -->
<g id="node10" class="node">
<title>9</title>
<ellipse fill="white" stroke="black" cx="393.04" cy="-22.06" rx="55.31" ry="22.06"/>
<text text-anchor="middle" x="393.04" y="-17.86" font-family="Arial" font-size="14.00">steepness</text>
</g>
<!-- 8&#45;&gt;9 -->
<g id="edge9" class="edge">
<title>8&#45;&gt;9</title>
<path fill="none" stroke="black" d="M395.95,-79.84C395.57,-72.43 395.14,-63.95 394.72,-55.83"/>
<polygon fill="black" stroke="black" points="398.22,-55.7 394.21,-45.9 391.23,-56.06 398.22,-55.7"/>
</g>
<!-- 10 -->
<g id="node11" class="node">
<title>10</title>
<ellipse fill="white" stroke="black" cx="513.04" cy="-22.06" rx="47.05" ry="22.06"/>
<text text-anchor="middle" x="513.04" y="-17.86" font-family="Arial" font-size="14.00">distance</text>
</g>
<!-- 8&#45;&gt;10 -->
<g id="edge10" class="edge">
<title>8&#45;&gt;10</title>
<path fill="none" stroke="black" d="M417.52,-87.4C433.99,-76.31 457.53,-60.45 477.12,-47.25"/>
<polygon fill="black" stroke="black" points="479.07,-50.16 485.41,-41.67 475.16,-44.36 479.07,-50.16"/>
</g>
<!-- 12 -->
<g id="node13" class="node">
<title>12</title>
<ellipse fill="white" stroke="black" cx="670.04" cy="-102.19" rx="27" ry="22.06"/>
<text text-anchor="middle" x="670.04" y="-97.99" font-family="Arial" font-size="14.00">mul</text>
</g>
<!-- 11&#45;&gt;12 -->
<g id="edge12" class="edge">
<title>11&#45;&gt;12</title>
<path fill="none" stroke="black" d="M670.04,-159.96C670.04,-152.55 670.04,-144.07 670.04,-135.96"/>
<polygon fill="black" stroke="black" points="673.54,-136.02 670.04,-126.02 666.54,-136.02 673.54,-136.02"/>
</g>
<!-- 15 -->
<g id="node16" class="node">
<title>15</title>
<ellipse fill="white" stroke="black" cx="853.04" cy="-102.19" rx="69.62" ry="22.06"/>
<text text-anchor="middle" x="853.04" y="-97.99" font-family="Arial" font-size="14.00">protected_div</text>
</g>
<!-- 11&#45;&gt;15 -->
<g id="edge15" class="edge">
<title>11&#45;&gt;15</title>
<path fill="none" stroke="black" d="M693.59,-171.26C720.92,-159.59 766.77,-140.02 802.3,-124.85"/>
<polygon fill="black" stroke="black" points="803.28,-128.23 811.11,-121.09 800.53,-121.8 803.28,-128.23"/>
</g>
<!-- 13 -->
<g id="node14" class="node">
<title>13</title>
<ellipse fill="white" stroke="black" cx="613.04" cy="-22.06" rx="34.96" ry="22.06"/>
<text text-anchor="middle" x="613.04" y="-17.86" font-family="Arial" font-size="14.00">4.285</text>
</g>
<!-- 12&#45;&gt;13 -->
<g id="edge13" class="edge">
<title>12&#45;&gt;13</title>
<path fill="none" stroke="black" d="M656.54,-82.67C649.78,-73.41 641.46,-62 633.9,-51.65"/>
<polygon fill="black" stroke="black" points="636.86,-49.77 628.14,-43.76 631.21,-53.9 636.86,-49.77"/>
</g>
<!-- 14 -->
<g id="node15" class="node">
<title>14</title>
<ellipse fill="white" stroke="black" cx="727.04" cy="-22.06" rx="60.82" ry="22.06"/>
<text text-anchor="middle" x="727.04" y="-17.86" font-family="Arial" font-size="14.00">elevation_u</text>
</g>
<!-- 12&#45;&gt;14 -->
<g id="edge14" class="edge">
<title>12&#45;&gt;14</title>
<path fill="none" stroke="black" d="M683.55,-82.67C690.04,-73.78 697.97,-62.91 705.28,-52.89"/>
<polygon fill="black" stroke="black" points="708.07,-55.01 711.14,-44.86 702.42,-50.88 708.07,-55.01"/>
</g>
<!-- 16 -->
<g id="node17" class="node">
<title>16</title>
<ellipse fill="white" stroke="black" cx="853.04" cy="-22.06" rx="47.05" ry="22.06"/>
<text text-anchor="middle" x="853.04" y="-17.86" font-family="Arial" font-size="14.00">distance</text>
</g>
<!-- 15&#45;&gt;16 -->
<g id="edge16" class="edge">
<title>15&#45;&gt;16</title>
<path fill="none" stroke="black" d="M853.04,-79.84C853.04,-72.43 853.04,-63.95 853.04,-55.83"/>
<polygon fill="black" stroke="black" points="856.54,-55.9 853.04,-45.9 849.54,-55.9 856.54,-55.9"/>
</g>
<!-- 17 -->
<g id="node18" class="node">
<title>17</title>
<ellipse fill="white" stroke="black" cx="953.04" cy="-22.06" rx="34.96" ry="22.06"/>
<text text-anchor="middle" x="953.04" y="-17.86" font-family="Arial" font-size="14.00">3.479</text>
</g>
<!-- 15&#45;&gt;17 -->
<g id="edge17" class="edge">
<title>15&#45;&gt;17</title>
<path fill="none" stroke="black" d="M878.54,-81.27C892.02,-70.74 908.66,-57.74 922.79,-46.7"/>
<polygon fill="black" stroke="black" points="924.74,-49.62 930.46,-40.7 920.43,-44.1 924.74,-49.62"/>
</g>
</g>
</svg>
