<?xml version="1.0" encoding="UTF-8" standalone="no"?>
<!DOCTYPE svg PUBLIC "-//W3C//DTD SVG 1.1//EN"
 "http://www.w3.org/Graphics/SVG/1.1/DTD/svg11.dtd">
<!-- Generated by graphviz version 12.2.1 (0)
 -->
<!-- Title: G Pages: 1 -->
<svg width="1106pt" height="726pt"
 viewBox="36.00 36.00 1070.22 689.79" xmlns="http://www.w3.org/2000/svg" xmlns:xlink="http://www.w3.org/1999/xlink">
<g id="graph0" class="graph" transform="scale(1 1) rotate(0) translate(40 685.79)">
<title>G</title>
<polygon fill="white" stroke="none" points="-4,4 -4,-649.79 1030.22,-649.79 1030.22,4 -4,4"/>
<text text-anchor="middle" x="513.11" y="-629.19" font-family="Times New Roman,serif" font-size="14.00">(&#39;best_tree_1000pop_15gen_15runs_res200_12subrun&#39;, &#39;&#39;)</text>
<!-- 0 -->
<g id="node1" class="node">
<title>0</title>
<ellipse fill="white" stroke="black" cx="388.26" cy="-582.93" rx="63.57" ry="22.06"/>
<text text-anchor="middle" x="388.26" y="-578.73" font-family="Arial" font-size="14.00">if_then_else</text>
</g>
<!-- 1 -->
<g id="node2" class="node">
<title>1</title>
<ellipse fill="white" stroke="black" cx="251.26" cy="-502.8" rx="71.26" ry="22.06"/>
<text text-anchor="middle" x="251.26" y="-498.6" font-family="Arial" font-size="14.00">identity_water</text>
</g>
<!-- 0&#45;&gt;1 -->
<g id="edge1" class="edge">
<title>0&#45;&gt;1</title>
<path fill="none" stroke="black" d="M356.14,-563.61C337.6,-553.04 314.06,-539.61 293.97,-528.16"/>
<polygon fill="black" stroke="black" points="295.87,-525.21 285.45,-523.3 292.4,-531.29 295.87,-525.21"/>
</g>
<!-- 8 -->
<g id="node9" class="node">
<title>8</title>
<ellipse fill="white" stroke="black" cx="388.26" cy="-502.8" rx="27" ry="22.06"/>
<text text-anchor="middle" x="388.26" y="-498.6" font-family="Arial" font-size="14.00">add</text>
</g>
<!-- 0&#45;&gt;8 -->
<g id="edge8" class="edge">
<title>0&#45;&gt;8</title>
<path fill="none" stroke="black" d="M388.26,-560.58C388.26,-553.17 388.26,-544.69 388.26,-536.58"/>
<polygon fill="black" stroke="black" points="391.76,-536.64 388.26,-526.64 384.76,-536.64 391.76,-536.64"/>
</g>
<!-- 15 -->
<g id="node16" class="node">
<title>15</title>
<ellipse fill="white" stroke="black" cx="711.26" cy="-502.8" rx="27" ry="22.06"/>
<text text-anchor="middle" x="711.26" y="-498.6" font-family="Arial" font-size="14.00">mul</text>
</g>
<!-- 0&#45;&gt;15 -->
<g id="edge15" class="edge">
<title>0&#45;&gt;15</title>
<path fill="none" stroke="black" d="M439.44,-569.55C504.84,-553.73 616.49,-526.73 674.23,-512.76"/>
<polygon fill="black" stroke="black" points="675,-516.17 683.89,-510.42 673.35,-509.37 675,-516.17"/>
</g>
<!-- 2 -->
<g id="node3" class="node">
<title>2</title>
<ellipse fill="white" stroke="black" cx="120.26" cy="-422.68" rx="71.26" ry="22.06"/>
<text text-anchor="middle" x="120.26" y="-418.48" font-family="Arial" font-size="14.00">identity_water</text>
</g>
<!-- 1&#45;&gt;2 -->
<g id="edge2" class="edge">
<title>1&#45;&gt;2</title>
<path fill="none" stroke="black" d="M219.22,-482.69C201.88,-472.35 180.27,-459.47 161.67,-448.37"/>
<polygon fill="black" stroke="black" points="163.66,-445.48 153.28,-443.37 160.07,-451.5 163.66,-445.48"/>
</g>
<!-- 3 -->
<g id="node4" class="node">
<title>3</title>
<ellipse fill="white" stroke="black" cx="71.26" cy="-342.56" rx="71.26" ry="22.06"/>
<text text-anchor="middle" x="71.26" y="-338.36" font-family="Arial" font-size="14.00">identity_water</text>
</g>
<!-- 2&#45;&gt;3 -->
<g id="edge3" class="edge">
<title>2&#45;&gt;3</title>
<path fill="none" stroke="black" d="M107.13,-400.74C102.02,-392.6 96.07,-383.1 90.49,-374.22"/>
<polygon fill="black" stroke="black" points="93.51,-372.44 85.23,-365.83 87.58,-376.16 93.51,-372.44"/>
</g>
<!-- 4 -->
<g id="node5" class="node">
<title>4</title>
<ellipse fill="white" stroke="black" cx="71.26" cy="-262.43" rx="71.26" ry="22.06"/>
<text text-anchor="middle" x="71.26" y="-258.23" font-family="Arial" font-size="14.00">identity_water</text>
</g>
<!-- 3&#45;&gt;4 -->
<g id="edge4" class="edge">
<title>3&#45;&gt;4</title>
<path fill="none" stroke="black" d="M71.26,-320.21C71.26,-312.8 71.26,-304.32 71.26,-296.2"/>
<polygon fill="black" stroke="black" points="74.76,-296.27 71.26,-286.27 67.76,-296.27 74.76,-296.27"/>
</g>
<!-- 5 -->
<g id="node6" class="node">
<title>5</title>
<ellipse fill="white" stroke="black" cx="71.26" cy="-182.31" rx="71.26" ry="22.06"/>
<text text-anchor="middle" x="71.26" y="-178.11" font-family="Arial" font-size="14.00">identity_water</text>
</g>
<!-- 4&#45;&gt;5 -->
<g id="edge5" class="edge">
<title>4&#45;&gt;5</title>
<path fill="none" stroke="black" d="M71.26,-240.08C71.26,-232.68 71.26,-224.19 71.26,-216.08"/>
<polygon fill="black" stroke="black" points="74.76,-216.14 71.26,-206.14 67.76,-216.14 74.76,-216.14"/>
</g>
<!-- 6 -->
<g id="node7" class="node">
<title>6</title>
<ellipse fill="white" stroke="black" cx="71.26" cy="-102.19" rx="71.26" ry="22.06"/>
<text text-anchor="middle" x="71.26" y="-97.99" font-family="Arial" font-size="14.00">identity_water</text>
</g>
<!-- 5&#45;&gt;6 -->
<g id="edge6" class="edge">
<title>5&#45;&gt;6</title>
<path fill="none" stroke="black" d="M71.26,-159.96C71.26,-152.55 71.26,-144.07 71.26,-135.96"/>
<polygon fill="black" stroke="black" points="74.76,-136.02 71.26,-126.02 67.76,-136.02 74.76,-136.02"/>
</g>
<!-- 7 -->
<g id="node8" class="node">
<title>7</title>
<ellipse fill="white" stroke="black" cx="71.26" cy="-22.06" rx="47.04" ry="22.06"/>
<text text-anchor="middle" x="71.26" y="-17.86" font-family="Arial" font-size="14.00">is_water</text>
</g>
<!-- 6&#45;&gt;7 -->
<g id="edge7" class="edge">
<title>6&#45;&gt;7</title>
<path fill="none" stroke="black" d="M71.26,-79.84C71.26,-72.43 71.26,-63.95 71.26,-55.83"/>
<polygon fill="black" stroke="black" points="74.76,-55.9 71.26,-45.9 67.76,-55.9 74.76,-55.9"/>
</g>
<!-- 9 -->
<g id="node10" class="node">
<title>9</title>
<ellipse fill="white" stroke="black" cx="331.26" cy="-422.68" rx="69.62" ry="22.06"/>
<text text-anchor="middle" x="331.26" y="-418.48" font-family="Arial" font-size="14.00">protected_div</text>
</g>
<!-- 8&#45;&gt;9 -->
<g id="edge9" class="edge">
<title>8&#45;&gt;9</title>
<path fill="none" stroke="black" d="M374.75,-483.29C368.32,-474.47 360.45,-463.69 353.19,-453.74"/>
<polygon fill="black" stroke="black" points="356.1,-451.78 347.37,-445.76 350.44,-455.9 356.1,-451.78"/>
</g>
<!-- 12 -->
<g id="node13" class="node">
<title>12</title>
<ellipse fill="white" stroke="black" cx="446.26" cy="-422.68" rx="27" ry="22.06"/>
<text text-anchor="middle" x="446.26" y="-418.48" font-family="Arial" font-size="14.00">mul</text>
</g>
<!-- 8&#45;&gt;12 -->
<g id="edge12" class="edge">
<title>8&#45;&gt;12</title>
<path fill="none" stroke="black" d="M402.01,-483.29C409.16,-473.66 418.04,-461.69 425.96,-451.02"/>
<polygon fill="black" stroke="black" points="428.56,-453.39 431.71,-443.28 422.94,-449.22 428.56,-453.39"/>
</g>
<!-- 10 -->
<g id="node11" class="node">
<title>10</title>
<ellipse fill="white" stroke="black" cx="221.26" cy="-342.56" rx="60.26" ry="22.06"/>
<text text-anchor="middle" x="221.26" y="-338.36" font-family="Arial" font-size="14.00">elevation_v</text>
</g>
<!-- 9&#45;&gt;10 -->
<g id="edge10" class="edge">
<title>9&#45;&gt;10</title>
<path fill="none" stroke="black" d="M303.5,-401.97C289.48,-392.01 272.3,-379.81 257.28,-369.14"/>
<polygon fill="black" stroke="black" points="259.66,-366.54 249.48,-363.6 255.61,-372.24 259.66,-366.54"/>
</g>
<!-- 11 -->
<g id="node12" class="node">
<title>11</title>
<ellipse fill="white" stroke="black" cx="334.26" cy="-342.56" rx="34.96" ry="22.06"/>
<text text-anchor="middle" x="334.26" y="-338.36" font-family="Arial" font-size="14.00">5.551</text>
</g>
<!-- 9&#45;&gt;11 -->
<g id="edge11" class="edge">
<title>9&#45;&gt;11</title>
<path fill="none" stroke="black" d="M332.08,-400.33C332.37,-392.93 332.69,-384.44 333,-376.33"/>
<polygon fill="black" stroke="black" points="336.5,-376.52 333.38,-366.39 329.5,-376.25 336.5,-376.52"/>
</g>
<!-- 13 -->
<g id="node14" class="node">
<title>13</title>
<ellipse fill="white" stroke="black" cx="442.26" cy="-342.56" rx="55.31" ry="22.06"/>
<text text-anchor="middle" x="442.26" y="-338.36" font-family="Arial" font-size="14.00">steepness</text>
</g>
<!-- 12&#45;&gt;13 -->
<g id="edge13" class="edge">
<title>12&#45;&gt;13</title>
<path fill="none" stroke="black" d="M445.17,-400.33C444.79,-392.93 444.35,-384.44 443.94,-376.33"/>
<polygon fill="black" stroke="black" points="447.44,-376.2 443.43,-366.39 440.45,-376.55 447.44,-376.2"/>
</g>
<!-- 14 -->
<g id="node15" class="node">
<title>14</title>
<ellipse fill="white" stroke="black" cx="562.26" cy="-342.56" rx="47.05" ry="22.06"/>
<text text-anchor="middle" x="562.26" y="-338.36" font-family="Arial" font-size="14.00">distance</text>
</g>
<!-- 12&#45;&gt;14 -->
<g id="edge14" class="edge">
<title>12&#45;&gt;14</title>
<path fill="none" stroke="black" d="M466.73,-407.89C483.2,-396.8 506.75,-380.94 526.34,-367.75"/>
<polygon fill="black" stroke="black" points="528.29,-370.66 534.62,-362.17 524.38,-364.85 528.29,-370.66"/>
</g>
<!-- 16 -->
<g id="node17" class="node">
<title>16</title>
<ellipse fill="white" stroke="black" cx="711.26" cy="-422.68" rx="27" ry="22.06"/>
<text text-anchor="middle" x="711.26" y="-418.48" font-family="Arial" font-size="14.00">mul</text>
</g>
<!-- 15&#45;&gt;16 -->
<g id="edge16" class="edge">
<title>15&#45;&gt;16</title>
<path fill="none" stroke="black" d="M711.26,-480.45C711.26,-473.05 711.26,-464.56 711.26,-456.45"/>
<polygon fill="black" stroke="black" points="714.76,-456.51 711.26,-446.51 707.76,-456.51 714.76,-456.51"/>
</g>
<!-- 19 -->
<g id="node20" class="node">
<title>19</title>
<ellipse fill="white" stroke="black" cx="891.26" cy="-422.68" rx="69.62" ry="22.06"/>
<text text-anchor="middle" x="891.26" y="-418.48" font-family="Arial" font-size="14.00">protected_div</text>
</g>
<!-- 15&#45;&gt;19 -->
<g id="edge19" class="edge">
<title>15&#45;&gt;19</title>
<path fill="none" stroke="black" d="M734.79,-491.59C761.57,-479.97 806.07,-460.66 840.78,-445.59"/>
<polygon fill="black" stroke="black" points="842.04,-448.86 849.82,-441.67 839.25,-442.44 842.04,-448.86"/>
</g>
<!-- 17 -->
<g id="node18" class="node">
<title>17</title>
<ellipse fill="white" stroke="black" cx="657.26" cy="-342.56" rx="29.45" ry="22.06"/>
<text text-anchor="middle" x="657.26" y="-338.36" font-family="Arial" font-size="14.00">3.19</text>
</g>
<!-- 16&#45;&gt;17 -->
<g id="edge17" class="edge">
<title>16&#45;&gt;17</title>
<path fill="none" stroke="black" d="M698.46,-403.16C692.02,-393.84 684.06,-382.32 676.86,-371.91"/>
<polygon fill="black" stroke="black" points="679.96,-370.23 671.39,-364 674.2,-374.21 679.96,-370.23"/>
</g>
<!-- 18 -->
<g id="node19" class="node">
<title>18</title>
<ellipse fill="white" stroke="black" cx="765.26" cy="-342.56" rx="60.82" ry="22.06"/>
<text text-anchor="middle" x="765.26" y="-338.36" font-family="Arial" font-size="14.00">elevation_u</text>
</g>
<!-- 16&#45;&gt;18 -->
<g id="edge18" class="edge">
<title>16&#45;&gt;18</title>
<path fill="none" stroke="black" d="M724.06,-403.16C730.16,-394.34 737.61,-383.57 744.48,-373.61"/>
<polygon fill="black" stroke="black" points="747.18,-375.88 749.98,-365.66 741.42,-371.9 747.18,-375.88"/>
</g>
<!-- 20 -->
<g id="node21" class="node">
<title>20</title>
<ellipse fill="white" stroke="black" cx="891.26" cy="-342.56" rx="47.05" ry="22.06"/>
<text text-anchor="middle" x="891.26" y="-338.36" font-family="Arial" font-size="14.00">distance</text>
</g>
<!-- 19&#45;&gt;20 -->
<g id="edge20" class="edge">
<title>19&#45;&gt;20</title>
<path fill="none" stroke="black" d="M891.26,-400.33C891.26,-392.93 891.26,-384.44 891.26,-376.33"/>
<polygon fill="black" stroke="black" points="894.76,-376.39 891.26,-366.39 887.76,-376.39 894.76,-376.39"/>
</g>
<!-- 21 -->
<g id="node22" class="node">
<title>21</title>
<ellipse fill="white" stroke="black" cx="991.26" cy="-342.56" rx="34.96" ry="22.06"/>
<text text-anchor="middle" x="991.26" y="-338.36" font-family="Arial" font-size="14.00">5.038</text>
</g>
<!-- 19&#45;&gt;21 -->
<g id="edge21" class="edge">
<title>19&#45;&gt;21</title>
<path fill="none" stroke="black" d="M916.75,-401.76C930.24,-391.23 946.87,-378.23 961.01,-367.19"/>
<polygon fill="black" stroke="black" points="962.95,-370.11 968.68,-361.2 958.64,-364.6 962.95,-370.11"/>
</g>
</g>
</svg>
