<?xml version="1.0" encoding="UTF-8" standalone="no"?>
<!DOCTYPE svg PUBLIC "-//W3C//DTD SVG 1.1//EN"
 "http://www.w3.org/Graphics/SVG/1.1/DTD/svg11.dtd">
<!-- Generated by graphviz version 12.2.1 (0)
 -->
<!-- Title: G Pages: 1 -->
<svg width="1106pt" height="566pt"
 viewBox="36.00 36.00 1070.22 529.54" xmlns="http://www.w3.org/2000/svg" xmlns:xlink="http://www.w3.org/1999/xlink">
<g id="graph0" class="graph" transform="scale(1 1) rotate(0) translate(40 525.54)">
<title>G</title>
<polygon fill="white" stroke="none" points="-4,4 -4,-489.54 1030.22,-489.54 1030.22,4 -4,4"/>
<text text-anchor="middle" x="513.11" y="-468.94" font-family="Times New Roman,serif" font-size="14.00">(&#39;best_2tree_1000pop_15gen_15runs_res200_15subrun&#39;, &#39;&#39;)</text>
<!-- 0 -->
<g id="node1" class="node">
<title>0</title>
<ellipse fill="white" stroke="black" cx="388.26" cy="-422.68" rx="63.57" ry="22.06"/>
<text text-anchor="middle" x="388.26" y="-418.48" font-family="Arial" font-size="14.00">if_then_else</text>
</g>
<!-- 1 -->
<g id="node2" class="node">
<title>1</title>
<ellipse fill="white" stroke="black" cx="251.26" cy="-342.56" rx="71.26" ry="22.06"/>
<text text-anchor="middle" x="251.26" y="-338.36" font-family="Arial" font-size="14.00">identity_water</text>
</g>
<!-- 0&#45;&gt;1 -->
<g id="edge1" class="edge">
<title>0&#45;&gt;1</title>
<path fill="none" stroke="black" d="M356.14,-403.36C337.6,-392.79 314.06,-379.36 293.97,-367.91"/>
<polygon fill="black" stroke="black" points="295.87,-364.96 285.45,-363.05 292.4,-371.04 295.87,-364.96"/>
</g>
<!-- 6 -->
<g id="node7" class="node">
<title>6</title>
<ellipse fill="white" stroke="black" cx="388.26" cy="-342.56" rx="27" ry="22.06"/>
<text text-anchor="middle" x="388.26" y="-338.36" font-family="Arial" font-size="14.00">add</text>
</g>
<!-- 0&#45;&gt;6 -->
<g id="edge6" class="edge">
<title>0&#45;&gt;6</title>
<path fill="none" stroke="black" d="M388.26,-400.33C388.26,-392.93 388.26,-384.44 388.26,-376.33"/>
<polygon fill="black" stroke="black" points="391.76,-376.39 388.26,-366.39 384.76,-376.39 391.76,-376.39"/>
</g>
<!-- 13 -->
<g id="node14" class="node">
<title>13</title>
<ellipse fill="white" stroke="black" cx="711.26" cy="-342.56" rx="27" ry="22.06"/>
<text text-anchor="middle" x="711.26" y="-338.36" font-family="Arial" font-size="14.00">mul</text>
</g>
<!-- 0&#45;&gt;13 -->
<g id="edge13" class="edge">
<title>0&#45;&gt;13</title>
<path fill="none" stroke="black" d="M439.44,-409.3C504.84,-393.48 616.49,-366.48 674.23,-352.51"/>
<polygon fill="black" stroke="black" points="675,-355.93 683.89,-350.17 673.35,-349.12 675,-355.93"/>
</g>
<!-- 2 -->
<g id="node3" class="node">
<title>2</title>
<ellipse fill="white" stroke="black" cx="120.26" cy="-262.43" rx="71.26" ry="22.06"/>
<text text-anchor="middle" x="120.26" y="-258.23" font-family="Arial" font-size="14.00">identity_water</text>
</g>
<!-- 1&#45;&gt;2 -->
<g id="edge2" class="edge">
<title>1&#45;&gt;2</title>
<path fill="none" stroke="black" d="M219.22,-322.44C201.88,-312.11 180.27,-299.22 161.67,-288.13"/>
<polygon fill="black" stroke="black" points="163.66,-285.24 153.28,-283.12 160.07,-291.25 163.66,-285.24"/>
</g>
<!-- 3 -->
<g id="node4" class="node">
<title>3</title>
<ellipse fill="white" stroke="black" cx="71.26" cy="-182.31" rx="71.26" ry="22.06"/>
<text text-anchor="middle" x="71.26" y="-178.11" font-family="Arial" font-size="14.00">identity_water</text>
</g>
<!-- 2&#45;&gt;3 -->
<g id="edge3" class="edge">
<title>2&#45;&gt;3</title>
<path fill="none" stroke="black" d="M107.13,-240.5C102.02,-232.35 96.07,-222.86 90.49,-213.97"/>
<polygon fill="black" stroke="black" points="93.51,-212.2 85.23,-205.58 87.58,-215.92 93.51,-212.2"/>
</g>
<!-- 4 -->
<g id="node5" class="node">
<title>4</title>
<ellipse fill="white" stroke="black" cx="71.26" cy="-102.19" rx="71.26" ry="22.06"/>
<text text-anchor="middle" x="71.26" y="-97.99" font-family="Arial" font-size="14.00">identity_water</text>
</g>
<!-- 3&#45;&gt;4 -->
<g id="edge4" class="edge">
<title>3&#45;&gt;4</title>
<path fill="none" stroke="black" d="M71.26,-159.96C71.26,-152.55 71.26,-144.07 71.26,-135.96"/>
<polygon fill="black" stroke="black" points="74.76,-136.02 71.26,-126.02 67.76,-136.02 74.76,-136.02"/>
</g>
<!-- 5 -->
<g id="node6" class="node">
<title>5</title>
<ellipse fill="white" stroke="black" cx="71.26" cy="-22.06" rx="47.04" ry="22.06"/>
<text text-anchor="middle" x="71.26" y="-17.86" font-family="Arial" font-size="14.00">is_water</text>
</g>
<!-- 4&#45;&gt;5 -->
<g id="edge5" class="edge">
<title>4&#45;&gt;5</title>
<path fill="none" stroke="black" d="M71.26,-79.84C71.26,-72.43 71.26,-63.95 71.26,-55.83"/>
<polygon fill="black" stroke="black" points="74.76,-55.9 71.26,-45.9 67.76,-55.9 74.76,-55.9"/>
</g>
<!-- 7 -->
<g id="node8" class="node">
<title>7</title>
<ellipse fill="white" stroke="black" cx="331.26" cy="-262.43" rx="69.62" ry="22.06"/>
<text text-anchor="middle" x="331.26" y="-258.23" font-family="Arial" font-size="14.00">protected_div</text>
</g>
<!-- 6&#45;&gt;7 -->
<g id="edge7" class="edge">
<title>6&#45;&gt;7</title>
<path fill="none" stroke="black" d="M374.75,-323.04C368.32,-314.22 360.45,-303.44 353.19,-293.49"/>
<polygon fill="black" stroke="black" points="356.1,-291.53 347.37,-285.52 350.44,-295.66 356.1,-291.53"/>
</g>
<!-- 10 -->
<g id="node11" class="node">
<title>10</title>
<ellipse fill="white" stroke="black" cx="446.26" cy="-262.43" rx="27" ry="22.06"/>
<text text-anchor="middle" x="446.26" y="-258.23" font-family="Arial" font-size="14.00">mul</text>
</g>
<!-- 6&#45;&gt;10 -->
<g id="edge10" class="edge">
<title>6&#45;&gt;10</title>
<path fill="none" stroke="black" d="M402.01,-323.04C409.16,-313.41 418.04,-301.45 425.96,-290.77"/>
<polygon fill="black" stroke="black" points="428.56,-293.14 431.71,-283.03 422.94,-288.97 428.56,-293.14"/>
</g>
<!-- 8 -->
<g id="node9" class="node">
<title>8</title>
<ellipse fill="white" stroke="black" cx="221.26" cy="-182.31" rx="60.26" ry="22.06"/>
<text text-anchor="middle" x="221.26" y="-178.11" font-family="Arial" font-size="14.00">elevation_v</text>
</g>
<!-- 7&#45;&gt;8 -->
<g id="edge8" class="edge">
<title>7&#45;&gt;8</title>
<path fill="none" stroke="black" d="M303.5,-241.72C289.48,-231.76 272.3,-219.56 257.28,-208.89"/>
<polygon fill="black" stroke="black" points="259.66,-206.29 249.48,-203.35 255.61,-212 259.66,-206.29"/>
</g>
<!-- 9 -->
<g id="node10" class="node">
<title>9</title>
<ellipse fill="white" stroke="black" cx="334.26" cy="-182.31" rx="34.96" ry="22.06"/>
<text text-anchor="middle" x="334.26" y="-178.11" font-family="Arial" font-size="14.00">5.551</text>
</g>
<!-- 7&#45;&gt;9 -->
<g id="edge9" class="edge">
<title>7&#45;&gt;9</title>
<path fill="none" stroke="black" d="M332.08,-240.08C332.37,-232.68 332.69,-224.19 333,-216.08"/>
<polygon fill="black" stroke="black" points="336.5,-216.27 333.38,-206.14 329.5,-216 336.5,-216.27"/>
</g>
<!-- 11 -->
<g id="node12" class="node">
<title>11</title>
<ellipse fill="white" stroke="black" cx="442.26" cy="-182.31" rx="55.31" ry="22.06"/>
<text text-anchor="middle" x="442.26" y="-178.11" font-family="Arial" font-size="14.00">steepness</text>
</g>
<!-- 10&#45;&gt;11 -->
<g id="edge11" class="edge">
<title>10&#45;&gt;11</title>
<path fill="none" stroke="black" d="M445.17,-240.08C444.79,-232.68 444.35,-224.19 443.94,-216.08"/>
<polygon fill="black" stroke="black" points="447.44,-215.95 443.43,-206.14 440.45,-216.31 447.44,-215.95"/>
</g>
<!-- 12 -->
<g id="node13" class="node">
<title>12</title>
<ellipse fill="white" stroke="black" cx="562.26" cy="-182.31" rx="47.05" ry="22.06"/>
<text text-anchor="middle" x="562.26" y="-178.11" font-family="Arial" font-size="14.00">distance</text>
</g>
<!-- 10&#45;&gt;12 -->
<g id="edge12" class="edge">
<title>10&#45;&gt;12</title>
<path fill="none" stroke="black" d="M466.73,-247.65C483.2,-236.55 506.75,-220.7 526.34,-207.5"/>
<polygon fill="black" stroke="black" points="528.29,-210.41 534.62,-201.92 524.38,-204.6 528.29,-210.41"/>
</g>
<!-- 14 -->
<g id="node15" class="node">
<title>14</title>
<ellipse fill="white" stroke="black" cx="711.26" cy="-262.43" rx="27" ry="22.06"/>
<text text-anchor="middle" x="711.26" y="-258.23" font-family="Arial" font-size="14.00">mul</text>
</g>
<!-- 13&#45;&gt;14 -->
<g id="edge14" class="edge">
<title>13&#45;&gt;14</title>
<path fill="none" stroke="black" d="M711.26,-320.21C711.26,-312.8 711.26,-304.32 711.26,-296.2"/>
<polygon fill="black" stroke="black" points="714.76,-296.27 711.26,-286.27 707.76,-296.27 714.76,-296.27"/>
</g>
<!-- 17 -->
<g id="node18" class="node">
<title>17</title>
<ellipse fill="white" stroke="black" cx="891.26" cy="-262.43" rx="69.62" ry="22.06"/>
<text text-anchor="middle" x="891.26" y="-258.23" font-family="Arial" font-size="14.00">protected_div</text>
</g>
<!-- 13&#45;&gt;17 -->
<g id="edge17" class="edge">
<title>13&#45;&gt;17</title>
<path fill="none" stroke="black" d="M734.79,-331.34C761.57,-319.72 806.07,-300.41 840.78,-285.34"/>
<polygon fill="black" stroke="black" points="842.04,-288.61 849.82,-281.42 839.25,-282.19 842.04,-288.61"/>
</g>
<!-- 15 -->
<g id="node16" class="node">
<title>15</title>
<ellipse fill="white" stroke="black" cx="657.26" cy="-182.31" rx="29.45" ry="22.06"/>
<text text-anchor="middle" x="657.26" y="-178.11" font-family="Arial" font-size="14.00">3.19</text>
</g>
<!-- 14&#45;&gt;15 -->
<g id="edge15" class="edge">
<title>14&#45;&gt;15</title>
<path fill="none" stroke="black" d="M698.46,-242.92C692.02,-233.59 684.06,-222.08 676.86,-211.67"/>
<polygon fill="black" stroke="black" points="679.96,-209.99 671.39,-203.75 674.2,-213.97 679.96,-209.99"/>
</g>
<!-- 16 -->
<g id="node17" class="node">
<title>16</title>
<ellipse fill="white" stroke="black" cx="765.26" cy="-182.31" rx="60.82" ry="22.06"/>
<text text-anchor="middle" x="765.26" y="-178.11" font-family="Arial" font-size="14.00">elevation_u</text>
</g>
<!-- 14&#45;&gt;16 -->
<g id="edge16" class="edge">
<title>14&#45;&gt;16</title>
<path fill="none" stroke="black" d="M724.06,-242.92C730.16,-234.1 737.61,-223.32 744.48,-213.37"/>
<polygon fill="black" stroke="black" points="747.18,-215.63 749.98,-205.41 741.42,-211.65 747.18,-215.63"/>
</g>
<!-- 18 -->
<g id="node19" class="node">
<title>18</title>
<ellipse fill="white" stroke="black" cx="891.26" cy="-182.31" rx="47.05" ry="22.06"/>
<text text-anchor="middle" x="891.26" y="-178.11" font-family="Arial" font-size="14.00">distance</text>
</g>
<!-- 17&#45;&gt;18 -->
<g id="edge18" class="edge">
<title>17&#45;&gt;18</title>
<path fill="none" stroke="black" d="M891.26,-240.08C891.26,-232.68 891.26,-224.19 891.26,-216.08"/>
<polygon fill="black" stroke="black" points="894.76,-216.14 891.26,-206.14 887.76,-216.14 894.76,-216.14"/>
</g>
<!-- 19 -->
<g id="node20" class="node">
<title>19</title>
<ellipse fill="white" stroke="black" cx="991.26" cy="-182.31" rx="34.96" ry="22.06"/>
<text text-anchor="middle" x="991.26" y="-178.11" font-family="Arial" font-size="14.00">5.038</text>
</g>
<!-- 17&#45;&gt;19 -->
<g id="edge19" class="edge">
<title>17&#45;&gt;19</title>
<path fill="none" stroke="black" d="M916.75,-241.52C930.24,-230.98 946.87,-217.99 961.01,-206.95"/>
<polygon fill="black" stroke="black" points="962.95,-209.86 968.68,-200.95 958.64,-204.35 962.95,-209.86"/>
</g>
</g>
</svg>
