<?xml version="1.0" encoding="UTF-8" standalone="no"?>
<!DOCTYPE svg PUBLIC "-//W3C//DTD SVG 1.1//EN"
 "http://www.w3.org/Graphics/SVG/1.1/DTD/svg11.dtd">
<!-- Generated by graphviz version 12.2.1 (0)
 -->
<!-- Title: G Pages: 1 -->
<svg width="1107pt" height="485pt"
 viewBox="36.00 36.00 1070.71 449.42" xmlns="http://www.w3.org/2000/svg" xmlns:xlink="http://www.w3.org/1999/xlink">
<g id="graph0" class="graph" transform="scale(1 1) rotate(0) translate(40 445.42)">
<title>G</title>
<polygon fill="white" stroke="none" points="-4,4 -4,-409.42 1030.71,-409.42 1030.71,4 -4,4"/>
<text text-anchor="middle" x="513.36" y="-388.82" font-family="Times New Roman,serif" font-size="14.00">(&#39;best_4tree_1000pop_15gen_15runs_res200_15subrun&#39;, &#39;&#39;)</text>
<!-- 0 -->
<g id="node1" class="node">
<title>0</title>
<ellipse fill="white" stroke="black" cx="388.26" cy="-342.56" rx="63.57" ry="22.06"/>
<text text-anchor="middle" x="388.26" y="-338.36" font-family="Arial" font-size="14.00">if_then_else</text>
</g>
<!-- 1 -->
<g id="node2" class="node">
<title>1</title>
<ellipse fill="white" stroke="black" cx="251.26" cy="-262.43" rx="71.26" ry="22.06"/>
<text text-anchor="middle" x="251.26" y="-258.23" font-family="Arial" font-size="14.00">identity_water</text>
</g>
<!-- 0&#45;&gt;1 -->
<g id="edge1" class="edge">
<title>0&#45;&gt;1</title>
<path fill="none" stroke="black" d="M356.14,-323.24C337.6,-312.67 314.06,-299.24 293.97,-287.79"/>
<polygon fill="black" stroke="black" points="295.87,-284.84 285.45,-282.93 292.4,-290.92 295.87,-284.84"/>
</g>
<!-- 5 -->
<g id="node6" class="node">
<title>5</title>
<ellipse fill="white" stroke="black" cx="388.26" cy="-262.43" rx="27" ry="22.06"/>
<text text-anchor="middle" x="388.26" y="-258.23" font-family="Arial" font-size="14.00">add</text>
</g>
<!-- 0&#45;&gt;5 -->
<g id="edge5" class="edge">
<title>0&#45;&gt;5</title>
<path fill="none" stroke="black" d="M388.26,-320.21C388.26,-312.8 388.26,-304.32 388.26,-296.2"/>
<polygon fill="black" stroke="black" points="391.76,-296.27 388.26,-286.27 384.76,-296.27 391.76,-296.27"/>
</g>
<!-- 12 -->
<g id="node13" class="node">
<title>12</title>
<ellipse fill="white" stroke="black" cx="719.26" cy="-262.43" rx="27" ry="22.06"/>
<text text-anchor="middle" x="719.26" y="-258.23" font-family="Arial" font-size="14.00">mul</text>
</g>
<!-- 0&#45;&gt;12 -->
<g id="edge12" class="edge">
<title>0&#45;&gt;12</title>
<path fill="none" stroke="black" d="M439.98,-329.35C507.31,-313.46 623.34,-286.07 682.4,-272.13"/>
<polygon fill="black" stroke="black" points="683.02,-275.58 691.95,-269.88 681.42,-268.77 683.02,-275.58"/>
</g>
<!-- 2 -->
<g id="node3" class="node">
<title>2</title>
<ellipse fill="white" stroke="black" cx="120.26" cy="-182.31" rx="71.26" ry="22.06"/>
<text text-anchor="middle" x="120.26" y="-178.11" font-family="Arial" font-size="14.00">identity_water</text>
</g>
<!-- 1&#45;&gt;2 -->
<g id="edge2" class="edge">
<title>1&#45;&gt;2</title>
<path fill="none" stroke="black" d="M219.22,-242.32C201.88,-231.98 180.27,-219.1 161.67,-208"/>
<polygon fill="black" stroke="black" points="163.66,-205.11 153.28,-203 160.07,-211.13 163.66,-205.11"/>
</g>
<!-- 3 -->
<g id="node4" class="node">
<title>3</title>
<ellipse fill="white" stroke="black" cx="71.26" cy="-102.19" rx="71.26" ry="22.06"/>
<text text-anchor="middle" x="71.26" y="-97.99" font-family="Arial" font-size="14.00">identity_water</text>
</g>
<!-- 2&#45;&gt;3 -->
<g id="edge3" class="edge">
<title>2&#45;&gt;3</title>
<path fill="none" stroke="black" d="M107.13,-160.37C102.02,-152.23 96.07,-142.73 90.49,-133.85"/>
<polygon fill="black" stroke="black" points="93.51,-132.07 85.23,-125.46 87.58,-135.79 93.51,-132.07"/>
</g>
<!-- 4 -->
<g id="node5" class="node">
<title>4</title>
<ellipse fill="white" stroke="black" cx="71.26" cy="-22.06" rx="47.04" ry="22.06"/>
<text text-anchor="middle" x="71.26" y="-17.86" font-family="Arial" font-size="14.00">is_water</text>
</g>
<!-- 3&#45;&gt;4 -->
<g id="edge4" class="edge">
<title>3&#45;&gt;4</title>
<path fill="none" stroke="black" d="M71.26,-79.84C71.26,-72.43 71.26,-63.95 71.26,-55.83"/>
<polygon fill="black" stroke="black" points="74.76,-55.9 71.26,-45.9 67.76,-55.9 74.76,-55.9"/>
</g>
<!-- 6 -->
<g id="node7" class="node">
<title>6</title>
<ellipse fill="white" stroke="black" cx="331.26" cy="-182.31" rx="69.62" ry="22.06"/>
<text text-anchor="middle" x="331.26" y="-178.11" font-family="Arial" font-size="14.00">protected_div</text>
</g>
<!-- 5&#45;&gt;6 -->
<g id="edge6" class="edge">
<title>5&#45;&gt;6</title>
<path fill="none" stroke="black" d="M374.75,-242.92C368.32,-234.1 360.45,-223.32 353.19,-213.37"/>
<polygon fill="black" stroke="black" points="356.1,-211.41 347.37,-205.39 350.44,-215.53 356.1,-211.41"/>
</g>
<!-- 9 -->
<g id="node10" class="node">
<title>9</title>
<ellipse fill="white" stroke="black" cx="446.26" cy="-182.31" rx="27" ry="22.06"/>
<text text-anchor="middle" x="446.26" y="-178.11" font-family="Arial" font-size="14.00">mul</text>
</g>
<!-- 5&#45;&gt;9 -->
<g id="edge9" class="edge">
<title>5&#45;&gt;9</title>
<path fill="none" stroke="black" d="M402.01,-242.92C409.16,-233.29 418.04,-221.32 425.96,-210.65"/>
<polygon fill="black" stroke="black" points="428.56,-213.02 431.71,-202.91 422.94,-208.85 428.56,-213.02"/>
</g>
<!-- 7 -->
<g id="node8" class="node">
<title>7</title>
<ellipse fill="white" stroke="black" cx="221.26" cy="-102.19" rx="60.26" ry="22.06"/>
<text text-anchor="middle" x="221.26" y="-97.99" font-family="Arial" font-size="14.00">elevation_v</text>
</g>
<!-- 6&#45;&gt;7 -->
<g id="edge7" class="edge">
<title>6&#45;&gt;7</title>
<path fill="none" stroke="black" d="M303.5,-161.59C289.48,-151.64 272.3,-139.44 257.28,-128.77"/>
<polygon fill="black" stroke="black" points="259.66,-126.17 249.48,-123.23 255.61,-131.87 259.66,-126.17"/>
</g>
<!-- 8 -->
<g id="node9" class="node">
<title>8</title>
<ellipse fill="white" stroke="black" cx="334.26" cy="-102.19" rx="34.96" ry="22.06"/>
<text text-anchor="middle" x="334.26" y="-97.99" font-family="Arial" font-size="14.00">5.455</text>
</g>
<!-- 6&#45;&gt;8 -->
<g id="edge8" class="edge">
<title>6&#45;&gt;8</title>
<path fill="none" stroke="black" d="M332.08,-159.96C332.37,-152.55 332.69,-144.07 333,-135.96"/>
<polygon fill="black" stroke="black" points="336.5,-136.15 333.38,-126.02 329.5,-135.88 336.5,-136.15"/>
</g>
<!-- 10 -->
<g id="node11" class="node">
<title>10</title>
<ellipse fill="white" stroke="black" cx="442.26" cy="-102.19" rx="55.31" ry="22.06"/>
<text text-anchor="middle" x="442.26" y="-97.99" font-family="Arial" font-size="14.00">steepness</text>
</g>
<!-- 9&#45;&gt;10 -->
<g id="edge10" class="edge">
<title>9&#45;&gt;10</title>
<path fill="none" stroke="black" d="M445.17,-159.96C444.79,-152.55 444.35,-144.07 443.94,-135.96"/>
<polygon fill="black" stroke="black" points="447.44,-135.83 443.43,-126.02 440.45,-136.18 447.44,-135.83"/>
</g>
<!-- 11 -->
<g id="node12" class="node">
<title>11</title>
<ellipse fill="white" stroke="black" cx="562.26" cy="-102.19" rx="47.05" ry="22.06"/>
<text text-anchor="middle" x="562.26" y="-97.99" font-family="Arial" font-size="14.00">distance</text>
</g>
<!-- 9&#45;&gt;11 -->
<g id="edge11" class="edge">
<title>9&#45;&gt;11</title>
<path fill="none" stroke="black" d="M466.73,-167.52C483.2,-156.43 506.75,-140.57 526.34,-127.38"/>
<polygon fill="black" stroke="black" points="528.29,-130.29 534.62,-121.8 524.38,-124.48 528.29,-130.29"/>
</g>
<!-- 13 -->
<g id="node14" class="node">
<title>13</title>
<ellipse fill="white" stroke="black" cx="719.26" cy="-182.31" rx="27" ry="22.06"/>
<text text-anchor="middle" x="719.26" y="-178.11" font-family="Arial" font-size="14.00">mul</text>
</g>
<!-- 12&#45;&gt;13 -->
<g id="edge13" class="edge">
<title>12&#45;&gt;13</title>
<path fill="none" stroke="black" d="M719.26,-240.08C719.26,-232.68 719.26,-224.19 719.26,-216.08"/>
<polygon fill="black" stroke="black" points="722.76,-216.14 719.26,-206.14 715.76,-216.14 722.76,-216.14"/>
</g>
<!-- 16 -->
<g id="node17" class="node">
<title>16</title>
<ellipse fill="white" stroke="black" cx="902.26" cy="-182.31" rx="69.62" ry="22.06"/>
<text text-anchor="middle" x="902.26" y="-178.11" font-family="Arial" font-size="14.00">protected_div</text>
</g>
<!-- 12&#45;&gt;16 -->
<g id="edge16" class="edge">
<title>12&#45;&gt;16</title>
<path fill="none" stroke="black" d="M742.81,-251.38C770.14,-239.71 815.98,-220.14 851.52,-204.97"/>
<polygon fill="black" stroke="black" points="852.5,-208.36 860.32,-201.21 849.75,-201.92 852.5,-208.36"/>
</g>
<!-- 14 -->
<g id="node15" class="node">
<title>14</title>
<ellipse fill="white" stroke="black" cx="662.26" cy="-102.19" rx="34.96" ry="22.06"/>
<text text-anchor="middle" x="662.26" y="-97.99" font-family="Arial" font-size="14.00">3.504</text>
</g>
<!-- 13&#45;&gt;14 -->
<g id="edge14" class="edge">
<title>13&#45;&gt;14</title>
<path fill="none" stroke="black" d="M705.75,-162.79C699,-153.54 690.67,-142.12 683.12,-131.77"/>
<polygon fill="black" stroke="black" points="686.08,-129.89 677.36,-123.88 680.43,-134.02 686.08,-129.89"/>
</g>
<!-- 15 -->
<g id="node16" class="node">
<title>15</title>
<ellipse fill="white" stroke="black" cx="776.26" cy="-102.19" rx="60.82" ry="22.06"/>
<text text-anchor="middle" x="776.26" y="-97.99" font-family="Arial" font-size="14.00">elevation_u</text>
</g>
<!-- 13&#45;&gt;15 -->
<g id="edge15" class="edge">
<title>13&#45;&gt;15</title>
<path fill="none" stroke="black" d="M732.77,-162.79C739.26,-153.9 747.19,-143.03 754.5,-133.01"/>
<polygon fill="black" stroke="black" points="757.29,-135.13 760.35,-124.99 751.63,-131 757.29,-135.13"/>
</g>
<!-- 17 -->
<g id="node18" class="node">
<title>17</title>
<ellipse fill="white" stroke="black" cx="902.26" cy="-102.19" rx="47.05" ry="22.06"/>
<text text-anchor="middle" x="902.26" y="-97.99" font-family="Arial" font-size="14.00">distance</text>
</g>
<!-- 16&#45;&gt;17 -->
<g id="edge17" class="edge">
<title>16&#45;&gt;17</title>
<path fill="none" stroke="black" d="M902.26,-159.96C902.26,-152.55 902.26,-144.07 902.26,-135.96"/>
<polygon fill="black" stroke="black" points="905.76,-136.02 902.26,-126.02 898.76,-136.02 905.76,-136.02"/>
</g>
<!-- 18 -->
<g id="node19" class="node">
<title>18</title>
<ellipse fill="white" stroke="black" cx="997.26" cy="-102.19" rx="29.45" ry="22.06"/>
<text text-anchor="middle" x="997.26" y="-97.99" font-family="Arial" font-size="14.00">5.87</text>
</g>
<!-- 16&#45;&gt;18 -->
<g id="edge18" class="edge">
<title>16&#45;&gt;18</title>
<path fill="none" stroke="black" d="M926.73,-161.19C939.68,-150.54 955.65,-137.4 969.12,-126.33"/>
<polygon fill="black" stroke="black" points="971.3,-129.07 976.8,-120.01 966.85,-123.66 971.3,-129.07"/>
</g>
</g>
</svg>
