<?xml version="1.0" encoding="UTF-8" standalone="no"?>
<!DOCTYPE svg PUBLIC "-//W3C//DTD SVG 1.1//EN"
 "http://www.w3.org/Graphics/SVG/1.1/DTD/svg11.dtd">
<!-- Generated by graphviz version 12.2.1 (0)
 -->
<!-- Title: G Pages: 1 -->
<svg width="709pt" height="485pt"
 viewBox="36.00 36.00 673.13 449.42" xmlns="http://www.w3.org/2000/svg" xmlns:xlink="http://www.w3.org/1999/xlink">
<g id="graph0" class="graph" transform="scale(1 1) rotate(0) translate(40 445.42)">
<title>G</title>
<polygon fill="white" stroke="none" points="-4,4 -4,-409.42 633.13,-409.42 633.13,4 -4,4"/>
<text text-anchor="middle" x="314.57" y="-388.82" font-family="Times New Roman,serif" font-size="14.00">(&#39;best_tree_1000pop_15gen_20runs_res200_2subrun&#39;, &#39;&#39;)</text>
<!-- 0 -->
<g id="node1" class="node">
<title>0</title>
<ellipse fill="white" stroke="black" cx="276.82" cy="-342.56" rx="27" ry="22.06"/>
<text text-anchor="middle" x="276.82" y="-338.36" font-family="Arial" font-size="14.00">sub</text>
</g>
<!-- 1 -->
<g id="node2" class="node">
<title>1</title>
<ellipse fill="white" stroke="black" cx="222.82" cy="-262.43" rx="27" ry="22.06"/>
<text text-anchor="middle" x="222.82" y="-258.23" font-family="Arial" font-size="14.00">mul</text>
</g>
<!-- 0&#45;&gt;1 -->
<g id="edge1" class="edge">
<title>0&#45;&gt;1</title>
<path fill="none" stroke="black" d="M264.02,-323.04C257.48,-313.58 249.38,-301.86 242.1,-291.33"/>
<polygon fill="black" stroke="black" points="245.14,-289.57 236.57,-283.33 239.38,-293.55 245.14,-289.57"/>
</g>
<!-- 10 -->
<g id="node11" class="node">
<title>10</title>
<ellipse fill="white" stroke="black" cx="385.82" cy="-262.43" rx="63.57" ry="22.06"/>
<text text-anchor="middle" x="385.82" y="-258.23" font-family="Arial" font-size="14.00">if_then_else</text>
</g>
<!-- 0&#45;&gt;10 -->
<g id="edge10" class="edge">
<title>0&#45;&gt;10</title>
<path fill="none" stroke="black" d="M296.81,-327.23C311.68,-316.57 332.36,-301.75 350.04,-289.07"/>
<polygon fill="black" stroke="black" points="351.65,-292.23 357.74,-283.56 347.58,-286.54 351.65,-292.23"/>
</g>
<!-- 2 -->
<g id="node3" class="node">
<title>2</title>
<ellipse fill="white" stroke="black" cx="130.82" cy="-182.31" rx="27" ry="22.06"/>
<text text-anchor="middle" x="130.82" y="-178.11" font-family="Arial" font-size="14.00">mul</text>
</g>
<!-- 1&#45;&gt;2 -->
<g id="edge2" class="edge">
<title>1&#45;&gt;2</title>
<path fill="none" stroke="black" d="M204.64,-246C191.25,-234.62 172.81,-218.97 157.71,-206.15"/>
<polygon fill="black" stroke="black" points="160.32,-203.76 150.43,-199.96 155.78,-209.1 160.32,-203.76"/>
</g>
<!-- 7 -->
<g id="node8" class="node">
<title>7</title>
<ellipse fill="white" stroke="black" cx="222.82" cy="-182.31" rx="27" ry="22.06"/>
<text text-anchor="middle" x="222.82" y="-178.11" font-family="Arial" font-size="14.00">mul</text>
</g>
<!-- 1&#45;&gt;7 -->
<g id="edge7" class="edge">
<title>1&#45;&gt;7</title>
<path fill="none" stroke="black" d="M222.82,-240.08C222.82,-232.68 222.82,-224.19 222.82,-216.08"/>
<polygon fill="black" stroke="black" points="226.32,-216.14 222.82,-206.14 219.32,-216.14 226.32,-216.14"/>
</g>
<!-- 3 -->
<g id="node4" class="node">
<title>3</title>
<ellipse fill="white" stroke="black" cx="50.82" cy="-102.19" rx="34.96" ry="22.06"/>
<text text-anchor="middle" x="50.82" y="-97.99" font-family="Arial" font-size="14.00">9.891</text>
</g>
<!-- 2&#45;&gt;3 -->
<g id="edge3" class="edge">
<title>2&#45;&gt;3</title>
<path fill="none" stroke="black" d="M113.85,-164.74C103.27,-154.41 89.42,-140.88 77.4,-129.15"/>
<polygon fill="black" stroke="black" points="80.12,-126.91 70.52,-122.42 75.23,-131.91 80.12,-126.91"/>
</g>
<!-- 4 -->
<g id="node5" class="node">
<title>4</title>
<ellipse fill="white" stroke="black" cx="130.82" cy="-102.19" rx="27" ry="22.06"/>
<text text-anchor="middle" x="130.82" y="-97.99" font-family="Arial" font-size="14.00">add</text>
</g>
<!-- 2&#45;&gt;4 -->
<g id="edge4" class="edge">
<title>2&#45;&gt;4</title>
<path fill="none" stroke="black" d="M130.82,-159.96C130.82,-152.55 130.82,-144.07 130.82,-135.96"/>
<polygon fill="black" stroke="black" points="134.32,-136.02 130.82,-126.02 127.32,-136.02 134.32,-136.02"/>
</g>
<!-- 5 -->
<g id="node6" class="node">
<title>5</title>
<ellipse fill="white" stroke="black" cx="60.82" cy="-22.06" rx="60.82" ry="22.06"/>
<text text-anchor="middle" x="60.82" y="-17.86" font-family="Arial" font-size="14.00">elevation_u</text>
</g>
<!-- 4&#45;&gt;5 -->
<g id="edge5" class="edge">
<title>4&#45;&gt;5</title>
<path fill="none" stroke="black" d="M115.29,-83.85C106.83,-74.41 96.16,-62.5 86.5,-51.72"/>
<polygon fill="black" stroke="black" points="89.33,-49.63 80.05,-44.52 84.11,-54.3 89.33,-49.63"/>
</g>
<!-- 6 -->
<g id="node7" class="node">
<title>6</title>
<ellipse fill="white" stroke="black" cx="199.82" cy="-22.06" rx="60.26" ry="22.06"/>
<text text-anchor="middle" x="199.82" y="-17.86" font-family="Arial" font-size="14.00">elevation_v</text>
</g>
<!-- 4&#45;&gt;6 -->
<g id="edge6" class="edge">
<title>4&#45;&gt;6</title>
<path fill="none" stroke="black" d="M146.13,-83.85C154.47,-74.41 164.99,-62.5 174.51,-51.72"/>
<polygon fill="black" stroke="black" points="176.86,-54.34 180.86,-44.53 171.62,-49.71 176.86,-54.34"/>
</g>
<!-- 8 -->
<g id="node9" class="node">
<title>8</title>
<ellipse fill="white" stroke="black" cx="222.82" cy="-102.19" rx="47.05" ry="22.06"/>
<text text-anchor="middle" x="222.82" y="-97.99" font-family="Arial" font-size="14.00">distance</text>
</g>
<!-- 7&#45;&gt;8 -->
<g id="edge8" class="edge">
<title>7&#45;&gt;8</title>
<path fill="none" stroke="black" d="M222.82,-159.96C222.82,-152.55 222.82,-144.07 222.82,-135.96"/>
<polygon fill="black" stroke="black" points="226.32,-136.02 222.82,-126.02 219.32,-136.02 226.32,-136.02"/>
</g>
<!-- 9 -->
<g id="node10" class="node">
<title>9</title>
<ellipse fill="white" stroke="black" cx="334.82" cy="-102.19" rx="47.05" ry="22.06"/>
<text text-anchor="middle" x="334.82" y="-97.99" font-family="Arial" font-size="14.00">distance</text>
</g>
<!-- 7&#45;&gt;9 -->
<g id="edge9" class="edge">
<title>7&#45;&gt;9</title>
<path fill="none" stroke="black" d="M243.1,-167.16C258.89,-156.15 281.16,-140.61 299.81,-127.61"/>
<polygon fill="black" stroke="black" points="301.74,-130.53 307.94,-121.94 297.73,-124.79 301.74,-130.53"/>
</g>
<!-- 11 -->
<g id="node12" class="node">
<title>11</title>
<ellipse fill="white" stroke="black" cx="314.82" cy="-182.31" rx="47.04" ry="22.06"/>
<text text-anchor="middle" x="314.82" y="-178.11" font-family="Arial" font-size="14.00">is_water</text>
</g>
<!-- 10&#45;&gt;11 -->
<g id="edge11" class="edge">
<title>10&#45;&gt;11</title>
<path fill="none" stroke="black" d="M367.17,-240.91C358.97,-231.88 349.21,-221.15 340.35,-211.4"/>
<polygon fill="black" stroke="black" points="343.19,-209.32 333.88,-204.28 338.01,-214.03 343.19,-209.32"/>
</g>
<!-- 12 -->
<g id="node13" class="node">
<title>12</title>
<ellipse fill="white" stroke="black" cx="439.82" cy="-182.31" rx="60.26" ry="22.06"/>
<text text-anchor="middle" x="439.82" y="-178.11" font-family="Arial" font-size="14.00">elevation_v</text>
</g>
<!-- 10&#45;&gt;12 -->
<g id="edge12" class="edge">
<title>10&#45;&gt;12</title>
<path fill="none" stroke="black" d="M400.29,-240.5C406.03,-232.2 412.73,-222.5 418.97,-213.47"/>
<polygon fill="black" stroke="black" points="421.83,-215.49 424.64,-205.28 416.07,-211.51 421.83,-215.49"/>
</g>
<!-- 13 -->
<g id="node14" class="node">
<title>13</title>
<ellipse fill="white" stroke="black" cx="573.82" cy="-182.31" rx="55.31" ry="22.06"/>
<text text-anchor="middle" x="573.82" y="-178.11" font-family="Arial" font-size="14.00">steepness</text>
</g>
<!-- 10&#45;&gt;13 -->
<g id="edge13" class="edge">
<title>10&#45;&gt;13</title>
<path fill="none" stroke="black" d="M425.69,-244.86C454.9,-232.72 494.7,-216.19 525.69,-203.31"/>
<polygon fill="black" stroke="black" points="526.96,-206.57 534.85,-199.5 524.27,-200.11 526.96,-206.57"/>
</g>
</g>
</svg>
