<?xml version="1.0" encoding="UTF-8" standalone="no"?>
<!DOCTYPE svg PUBLIC "-//W3C//DTD SVG 1.1//EN"
 "http://www.w3.org/Graphics/SVG/1.1/DTD/svg11.dtd">
<!-- Generated by graphviz version 12.2.1 (0)
 -->
<!-- Title: G Pages: 1 -->
<svg width="727pt" height="485pt"
 viewBox="36.00 36.00 690.78 449.42" xmlns="http://www.w3.org/2000/svg" xmlns:xlink="http://www.w3.org/1999/xlink">
<g id="graph0" class="graph" transform="scale(1 1) rotate(0) translate(40 445.42)">
<title>G</title>
<polygon fill="white" stroke="none" points="-4,4 -4,-409.42 650.78,-409.42 650.78,4 -4,4"/>
<text text-anchor="middle" x="323.39" y="-388.82" font-family="Times New Roman,serif" font-size="14.00">(&#39;best_tree_1000pop_15gen_20runs_res200_14subrun&#39;, &#39;&#39;)</text>
<!-- 0 -->
<g id="node1" class="node">
<title>0</title>
<ellipse fill="white" stroke="black" cx="363.82" cy="-342.56" rx="27" ry="22.06"/>
<text text-anchor="middle" x="363.82" y="-338.36" font-family="Arial" font-size="14.00">sub</text>
</g>
<!-- 1 -->
<g id="node2" class="node">
<title>1</title>
<ellipse fill="white" stroke="black" cx="311.82" cy="-262.43" rx="27" ry="22.06"/>
<text text-anchor="middle" x="311.82" y="-258.23" font-family="Arial" font-size="14.00">mul</text>
</g>
<!-- 0&#45;&gt;1 -->
<g id="edge1" class="edge">
<title>0&#45;&gt;1</title>
<path fill="none" stroke="black" d="M351.23,-322.64C345.08,-313.4 337.55,-302.09 330.73,-291.84"/>
<polygon fill="black" stroke="black" points="333.77,-290.09 325.31,-283.7 327.94,-293.96 333.77,-290.09"/>
</g>
<!-- 13 -->
<g id="node14" class="node">
<title>13</title>
<ellipse fill="white" stroke="black" cx="416.82" cy="-262.43" rx="60.26" ry="22.06"/>
<text text-anchor="middle" x="416.82" y="-258.23" font-family="Arial" font-size="14.00">elevation_v</text>
</g>
<!-- 0&#45;&gt;13 -->
<g id="edge13" class="edge">
<title>0&#45;&gt;13</title>
<path fill="none" stroke="black" d="M376.65,-322.64C382.53,-313.97 389.65,-303.48 396.25,-293.75"/>
<polygon fill="black" stroke="black" points="399.05,-295.86 401.77,-285.62 393.26,-291.93 399.05,-295.86"/>
</g>
<!-- 2 -->
<g id="node3" class="node">
<title>2</title>
<ellipse fill="white" stroke="black" cx="248.82" cy="-182.31" rx="27" ry="22.06"/>
<text text-anchor="middle" x="248.82" y="-178.11" font-family="Arial" font-size="14.00">mul</text>
</g>
<!-- 1&#45;&gt;2 -->
<g id="edge2" class="edge">
<title>1&#45;&gt;2</title>
<path fill="none" stroke="black" d="M297.52,-243.7C289.53,-233.79 279.39,-221.22 270.44,-210.12"/>
<polygon fill="black" stroke="black" points="273.23,-208 264.23,-202.41 267.78,-212.4 273.23,-208"/>
</g>
<!-- 7 -->
<g id="node8" class="node">
<title>7</title>
<ellipse fill="white" stroke="black" cx="374.82" cy="-182.31" rx="27" ry="22.06"/>
<text text-anchor="middle" x="374.82" y="-178.11" font-family="Arial" font-size="14.00">mul</text>
</g>
<!-- 1&#45;&gt;7 -->
<g id="edge7" class="edge">
<title>1&#45;&gt;7</title>
<path fill="none" stroke="black" d="M326.12,-243.7C334.11,-233.79 344.25,-221.22 353.2,-210.12"/>
<polygon fill="black" stroke="black" points="355.86,-212.4 359.41,-202.41 350.41,-208 355.86,-212.4"/>
</g>
<!-- 3 -->
<g id="node4" class="node">
<title>3</title>
<ellipse fill="white" stroke="black" cx="142.82" cy="-102.19" rx="27" ry="22.06"/>
<text text-anchor="middle" x="142.82" y="-97.99" font-family="Arial" font-size="14.00">mul</text>
</g>
<!-- 2&#45;&gt;3 -->
<g id="edge3" class="edge">
<title>2&#45;&gt;3</title>
<path fill="none" stroke="black" d="M229.38,-166.98C213.19,-155.05 189.92,-137.89 171.58,-124.38"/>
<polygon fill="black" stroke="black" points="173.84,-121.7 163.72,-118.59 169.69,-127.34 173.84,-121.7"/>
</g>
<!-- 6 -->
<g id="node7" class="node">
<title>6</title>
<ellipse fill="white" stroke="black" cx="248.82" cy="-102.19" rx="60.82" ry="22.06"/>
<text text-anchor="middle" x="248.82" y="-97.99" font-family="Arial" font-size="14.00">elevation_u</text>
</g>
<!-- 2&#45;&gt;6 -->
<g id="edge6" class="edge">
<title>2&#45;&gt;6</title>
<path fill="none" stroke="black" d="M248.82,-159.96C248.82,-152.55 248.82,-144.07 248.82,-135.96"/>
<polygon fill="black" stroke="black" points="252.32,-136.02 248.82,-126.02 245.32,-136.02 252.32,-136.02"/>
</g>
<!-- 4 -->
<g id="node5" class="node">
<title>4</title>
<ellipse fill="white" stroke="black" cx="60.82" cy="-22.06" rx="60.82" ry="22.06"/>
<text text-anchor="middle" x="60.82" y="-17.86" font-family="Arial" font-size="14.00">elevation_u</text>
</g>
<!-- 3&#45;&gt;4 -->
<g id="edge4" class="edge">
<title>3&#45;&gt;4</title>
<path fill="none" stroke="black" d="M125.83,-85C115.46,-75.12 101.93,-62.23 89.9,-50.77"/>
<polygon fill="black" stroke="black" points="92.62,-48.52 82.97,-44.16 87.79,-53.59 92.62,-48.52"/>
</g>
<!-- 5 -->
<g id="node6" class="node">
<title>5</title>
<ellipse fill="white" stroke="black" cx="200.82" cy="-22.06" rx="60.82" ry="22.06"/>
<text text-anchor="middle" x="200.82" y="-17.86" font-family="Arial" font-size="14.00">elevation_u</text>
</g>
<!-- 3&#45;&gt;5 -->
<g id="edge5" class="edge">
<title>3&#45;&gt;5</title>
<path fill="none" stroke="black" d="M156.57,-82.67C163.23,-73.69 171.41,-62.68 178.91,-52.58"/>
<polygon fill="black" stroke="black" points="181.49,-54.97 184.64,-44.86 175.87,-50.8 181.49,-54.97"/>
</g>
<!-- 8 -->
<g id="node9" class="node">
<title>8</title>
<ellipse fill="white" stroke="black" cx="374.82" cy="-102.19" rx="47.05" ry="22.06"/>
<text text-anchor="middle" x="374.82" y="-97.99" font-family="Arial" font-size="14.00">distance</text>
</g>
<!-- 7&#45;&gt;8 -->
<g id="edge8" class="edge">
<title>7&#45;&gt;8</title>
<path fill="none" stroke="black" d="M374.82,-159.96C374.82,-152.55 374.82,-144.07 374.82,-135.96"/>
<polygon fill="black" stroke="black" points="378.32,-136.02 374.82,-126.02 371.32,-136.02 378.32,-136.02"/>
</g>
<!-- 9 -->
<g id="node10" class="node">
<title>9</title>
<ellipse fill="white" stroke="black" cx="503.82" cy="-102.19" rx="63.57" ry="22.06"/>
<text text-anchor="middle" x="503.82" y="-97.99" font-family="Arial" font-size="14.00">if_then_else</text>
</g>
<!-- 7&#45;&gt;9 -->
<g id="edge9" class="edge">
<title>7&#45;&gt;9</title>
<path fill="none" stroke="black" d="M396.12,-168.41C414.45,-157.31 441.39,-140.99 463.74,-127.46"/>
<polygon fill="black" stroke="black" points="465.28,-130.62 472.02,-122.44 461.65,-124.63 465.28,-130.62"/>
</g>
<!-- 10 -->
<g id="node11" class="node">
<title>10</title>
<ellipse fill="white" stroke="black" cx="383.82" cy="-22.06" rx="47.04" ry="22.06"/>
<text text-anchor="middle" x="383.82" y="-17.86" font-family="Arial" font-size="14.00">is_water</text>
</g>
<!-- 9&#45;&gt;10 -->
<g id="edge10" class="edge">
<title>9&#45;&gt;10</title>
<path fill="none" stroke="black" d="M474.77,-82.27C458.27,-71.53 437.46,-57.98 419.91,-46.56"/>
<polygon fill="black" stroke="black" points="422.11,-43.81 411.82,-41.29 418.29,-49.68 422.11,-43.81"/>
</g>
<!-- 11 -->
<g id="node12" class="node">
<title>11</title>
<ellipse fill="white" stroke="black" cx="503.82" cy="-22.06" rx="55.31" ry="22.06"/>
<text text-anchor="middle" x="503.82" y="-17.86" font-family="Arial" font-size="14.00">steepness</text>
</g>
<!-- 9&#45;&gt;11 -->
<g id="edge11" class="edge">
<title>9&#45;&gt;11</title>
<path fill="none" stroke="black" d="M503.82,-79.84C503.82,-72.43 503.82,-63.95 503.82,-55.83"/>
<polygon fill="black" stroke="black" points="507.32,-55.9 503.82,-45.9 500.32,-55.9 507.32,-55.9"/>
</g>
<!-- 12 -->
<g id="node13" class="node">
<title>12</title>
<ellipse fill="white" stroke="black" cx="611.82" cy="-22.06" rx="34.96" ry="22.06"/>
<text text-anchor="middle" x="611.82" y="-17.86" font-family="Arial" font-size="14.00">5.404</text>
</g>
<!-- 9&#45;&gt;12 -->
<g id="edge12" class="edge">
<title>9&#45;&gt;12</title>
<path fill="none" stroke="black" d="M530.52,-81.87C545.66,-70.92 564.69,-57.15 580.53,-45.7"/>
<polygon fill="black" stroke="black" points="582.16,-48.84 588.21,-40.14 578.06,-43.17 582.16,-48.84"/>
</g>
</g>
</svg>
