<?xml version="1.0" encoding="UTF-8" standalone="no"?>
<!DOCTYPE svg PUBLIC "-//W3C//DTD SVG 1.1//EN"
 "http://www.w3.org/Graphics/SVG/1.1/DTD/svg11.dtd">
<!-- Generated by graphviz version 12.2.1 (0)
 -->
<!-- Title: G Pages: 1 -->
<svg width="749pt" height="485pt"
 viewBox="36.00 36.00 712.86 449.42" xmlns="http://www.w3.org/2000/svg" xmlns:xlink="http://www.w3.org/1999/xlink">
<g id="graph0" class="graph" transform="scale(1 1) rotate(0) translate(40 445.42)">
<title>G</title>
<polygon fill="white" stroke="none" points="-4,4 -4,-409.42 672.86,-409.42 672.86,4 -4,4"/>
<text text-anchor="middle" x="334.43" y="-388.82" font-family="Times New Roman,serif" font-size="14.00">(&#39;best_3tree_1000pop_15gen_25runs_res200_25subrun&#39;, &#39;&#39;)</text>
<!-- 0 -->
<g id="node1" class="node">
<title>0</title>
<ellipse fill="white" stroke="black" cx="234.04" cy="-342.56" rx="63.57" ry="22.06"/>
<text text-anchor="middle" x="234.04" y="-338.36" font-family="Arial" font-size="14.00">if_then_else</text>
</g>
<!-- 1 -->
<g id="node2" class="node">
<title>1</title>
<ellipse fill="white" stroke="black" cx="116.04" cy="-262.43" rx="71.26" ry="22.06"/>
<text text-anchor="middle" x="116.04" y="-258.23" font-family="Arial" font-size="14.00">identity_water</text>
</g>
<!-- 0&#45;&gt;1 -->
<g id="edge1" class="edge">
<title>0&#45;&gt;1</title>
<path fill="none" stroke="black" d="M205.18,-322.44C190.01,-312.4 171.2,-299.95 154.78,-289.08"/>
<polygon fill="black" stroke="black" points="156.96,-286.33 146.69,-283.72 153.1,-292.16 156.96,-286.33"/>
</g>
<!-- 3 -->
<g id="node4" class="node">
<title>3</title>
<ellipse fill="white" stroke="black" cx="234.04" cy="-262.43" rx="27" ry="22.06"/>
<text text-anchor="middle" x="234.04" y="-258.23" font-family="Arial" font-size="14.00">sub</text>
</g>
<!-- 0&#45;&gt;3 -->
<g id="edge3" class="edge">
<title>0&#45;&gt;3</title>
<path fill="none" stroke="black" d="M234.04,-320.21C234.04,-312.8 234.04,-304.32 234.04,-296.2"/>
<polygon fill="black" stroke="black" points="237.54,-296.27 234.04,-286.27 230.54,-296.27 237.54,-296.27"/>
</g>
<!-- 6 -->
<g id="node7" class="node">
<title>6</title>
<ellipse fill="white" stroke="black" cx="407.04" cy="-262.43" rx="27" ry="22.06"/>
<text text-anchor="middle" x="407.04" y="-258.23" font-family="Arial" font-size="14.00">mul</text>
</g>
<!-- 0&#45;&gt;6 -->
<g id="edge6" class="edge">
<title>0&#45;&gt;6</title>
<path fill="none" stroke="black" d="M272.01,-324.41C302.17,-310.79 343.98,-291.91 373.05,-278.78"/>
<polygon fill="black" stroke="black" points="374.47,-281.98 382.14,-274.68 371.59,-275.6 374.47,-281.98"/>
</g>
<!-- 2 -->
<g id="node3" class="node">
<title>2</title>
<ellipse fill="white" stroke="black" cx="47.04" cy="-182.31" rx="47.04" ry="22.06"/>
<text text-anchor="middle" x="47.04" y="-178.11" font-family="Arial" font-size="14.00">is_water</text>
</g>
<!-- 1&#45;&gt;2 -->
<g id="edge2" class="edge">
<title>1&#45;&gt;2</title>
<path fill="none" stroke="black" d="M97.92,-240.91C90.03,-231.98 80.66,-221.36 72.12,-211.7"/>
<polygon fill="black" stroke="black" points="74.82,-209.47 65.58,-204.29 69.57,-214.1 74.82,-209.47"/>
</g>
<!-- 4 -->
<g id="node5" class="node">
<title>4</title>
<ellipse fill="white" stroke="black" cx="167.04" cy="-182.31" rx="55.31" ry="22.06"/>
<text text-anchor="middle" x="167.04" y="-178.11" font-family="Arial" font-size="14.00">steepness</text>
</g>
<!-- 3&#45;&gt;4 -->
<g id="edge4" class="edge">
<title>3&#45;&gt;4</title>
<path fill="none" stroke="black" d="M218.84,-243.7C210.88,-234.42 200.93,-222.81 191.88,-212.27"/>
<polygon fill="black" stroke="black" points="194.71,-210.19 185.54,-204.88 189.39,-214.74 194.71,-210.19"/>
</g>
<!-- 5 -->
<g id="node6" class="node">
<title>5</title>
<ellipse fill="white" stroke="black" cx="301.04" cy="-182.31" rx="60.82" ry="22.06"/>
<text text-anchor="middle" x="301.04" y="-178.11" font-family="Arial" font-size="14.00">elevation_u</text>
</g>
<!-- 3&#45;&gt;5 -->
<g id="edge5" class="edge">
<title>3&#45;&gt;5</title>
<path fill="none" stroke="black" d="M249.25,-243.7C257.21,-234.42 267.16,-222.81 276.21,-212.27"/>
<polygon fill="black" stroke="black" points="278.7,-214.74 282.55,-204.88 273.38,-210.19 278.7,-214.74"/>
</g>
<!-- 7 -->
<g id="node8" class="node">
<title>7</title>
<ellipse fill="white" stroke="black" cx="407.04" cy="-182.31" rx="27" ry="22.06"/>
<text text-anchor="middle" x="407.04" y="-178.11" font-family="Arial" font-size="14.00">sub</text>
</g>
<!-- 6&#45;&gt;7 -->
<g id="edge7" class="edge">
<title>6&#45;&gt;7</title>
<path fill="none" stroke="black" d="M407.04,-240.08C407.04,-232.68 407.04,-224.19 407.04,-216.08"/>
<polygon fill="black" stroke="black" points="410.54,-216.14 407.04,-206.14 403.54,-216.14 410.54,-216.14"/>
</g>
<!-- 14 -->
<g id="node15" class="node">
<title>14</title>
<ellipse fill="white" stroke="black" cx="507.04" cy="-182.31" rx="55.31" ry="22.06"/>
<text text-anchor="middle" x="507.04" y="-178.11" font-family="Arial" font-size="14.00">steepness</text>
</g>
<!-- 6&#45;&gt;14 -->
<g id="edge14" class="edge">
<title>6&#45;&gt;14</title>
<path fill="none" stroke="black" d="M426.33,-246.37C439.7,-235.92 457.88,-221.72 473.59,-209.45"/>
<polygon fill="black" stroke="black" points="475.58,-212.33 481.31,-203.41 471.27,-206.81 475.58,-212.33"/>
</g>
<!-- 8 -->
<g id="node9" class="node">
<title>8</title>
<ellipse fill="white" stroke="black" cx="340.04" cy="-102.19" rx="27" ry="22.06"/>
<text text-anchor="middle" x="340.04" y="-97.99" font-family="Arial" font-size="14.00">sub</text>
</g>
<!-- 7&#45;&gt;8 -->
<g id="edge8" class="edge">
<title>7&#45;&gt;8</title>
<path fill="none" stroke="black" d="M391.84,-163.58C383.19,-153.49 372.19,-140.67 362.55,-129.43"/>
<polygon fill="black" stroke="black" points="365.34,-127.3 356.17,-121.99 360.03,-131.86 365.34,-127.3"/>
</g>
<!-- 11 -->
<g id="node12" class="node">
<title>11</title>
<ellipse fill="white" stroke="black" cx="474.04" cy="-102.19" rx="27" ry="22.06"/>
<text text-anchor="middle" x="474.04" y="-97.99" font-family="Arial" font-size="14.00">sub</text>
</g>
<!-- 7&#45;&gt;11 -->
<g id="edge11" class="edge">
<title>7&#45;&gt;11</title>
<path fill="none" stroke="black" d="M422.25,-163.58C430.9,-153.49 441.9,-140.67 451.54,-129.43"/>
<polygon fill="black" stroke="black" points="454.06,-131.86 457.92,-121.99 448.75,-127.3 454.06,-131.86"/>
</g>
<!-- 9 -->
<g id="node10" class="node">
<title>9</title>
<ellipse fill="white" stroke="black" cx="215.04" cy="-22.06" rx="47.05" ry="22.06"/>
<text text-anchor="middle" x="215.04" y="-17.86" font-family="Arial" font-size="14.00">distance</text>
</g>
<!-- 8&#45;&gt;9 -->
<g id="edge9" class="edge">
<title>8&#45;&gt;9</title>
<path fill="none" stroke="black" d="M318.84,-87.93C300.6,-76.53 273.86,-59.82 252.09,-46.22"/>
<polygon fill="black" stroke="black" points="254.11,-43.35 243.77,-41.02 250.4,-49.28 254.11,-43.35"/>
</g>
<!-- 10 -->
<g id="node11" class="node">
<title>10</title>
<ellipse fill="white" stroke="black" cx="340.04" cy="-22.06" rx="60.26" ry="22.06"/>
<text text-anchor="middle" x="340.04" y="-17.86" font-family="Arial" font-size="14.00">elevation_v</text>
</g>
<!-- 8&#45;&gt;10 -->
<g id="edge10" class="edge">
<title>8&#45;&gt;10</title>
<path fill="none" stroke="black" d="M340.04,-79.84C340.04,-72.43 340.04,-63.95 340.04,-55.83"/>
<polygon fill="black" stroke="black" points="343.54,-55.9 340.04,-45.9 336.54,-55.9 343.54,-55.9"/>
</g>
<!-- 12 -->
<g id="node13" class="node">
<title>12</title>
<ellipse fill="white" stroke="black" cx="474.04" cy="-22.06" rx="55.31" ry="22.06"/>
<text text-anchor="middle" x="474.04" y="-17.86" font-family="Arial" font-size="14.00">steepness</text>
</g>
<!-- 11&#45;&gt;12 -->
<g id="edge12" class="edge">
<title>11&#45;&gt;12</title>
<path fill="none" stroke="black" d="M474.04,-79.84C474.04,-72.43 474.04,-63.95 474.04,-55.83"/>
<polygon fill="black" stroke="black" points="477.54,-55.9 474.04,-45.9 470.54,-55.9 477.54,-55.9"/>
</g>
<!-- 13 -->
<g id="node14" class="node">
<title>13</title>
<ellipse fill="white" stroke="black" cx="608.04" cy="-22.06" rx="60.82" ry="22.06"/>
<text text-anchor="middle" x="608.04" y="-17.86" font-family="Arial" font-size="14.00">elevation_u</text>
</g>
<!-- 11&#45;&gt;13 -->
<g id="edge13" class="edge">
<title>11&#45;&gt;13</title>
<path fill="none" stroke="black" d="M495.57,-88.63C514.74,-77.46 543.29,-60.81 566.83,-47.09"/>
<polygon fill="black" stroke="black" points="568.39,-50.23 575.27,-42.17 564.87,-44.18 568.39,-50.23"/>
</g>
</g>
</svg>
