<?xml version="1.0" encoding="UTF-8" standalone="no"?>
<!DOCTYPE svg PUBLIC "-//W3C//DTD SVG 1.1//EN"
 "http://www.w3.org/Graphics/SVG/1.1/DTD/svg11.dtd">
<!-- Generated by graphviz version 12.2.1 (0)
 -->
<!-- Title: G Pages: 1 -->
<svg width="531pt" height="566pt"
 viewBox="36.00 36.00 494.62 529.54" xmlns="http://www.w3.org/2000/svg" xmlns:xlink="http://www.w3.org/1999/xlink">
<g id="graph0" class="graph" transform="scale(1 1) rotate(0) translate(40 525.54)">
<title>G</title>
<polygon fill="white" stroke="none" points="-4,4 -4,-489.54 454.62,-489.54 454.62,4 -4,4"/>
<text text-anchor="middle" x="225.31" y="-468.94" font-family="Times New Roman,serif" font-size="14.00">(&#39;best_4tree_1000pop_15gen_25runs_res200_25subrun&#39;, &#39;&#39;)</text>
<!-- 0 -->
<g id="node1" class="node">
<title>0</title>
<ellipse fill="white" stroke="black" cx="189.31" cy="-422.68" rx="63.57" ry="22.06"/>
<text text-anchor="middle" x="189.31" y="-418.48" font-family="Arial" font-size="14.00">if_then_else</text>
</g>
<!-- 1 -->
<g id="node2" class="node">
<title>1</title>
<ellipse fill="white" stroke="black" cx="97.31" cy="-342.56" rx="47.04" ry="22.06"/>
<text text-anchor="middle" x="97.31" y="-338.36" font-family="Arial" font-size="14.00">is_water</text>
</g>
<!-- 0&#45;&gt;1 -->
<g id="edge1" class="edge">
<title>0&#45;&gt;1</title>
<path fill="none" stroke="black" d="M166.09,-401.97C154.62,-392.22 140.6,-380.32 128.23,-369.81"/>
<polygon fill="black" stroke="black" points="130.61,-367.24 120.72,-363.43 126.08,-372.58 130.61,-367.24"/>
</g>
<!-- 2 -->
<g id="node3" class="node">
<title>2</title>
<ellipse fill="white" stroke="black" cx="189.31" cy="-342.56" rx="27" ry="22.06"/>
<text text-anchor="middle" x="189.31" y="-338.36" font-family="Arial" font-size="14.00">sub</text>
</g>
<!-- 0&#45;&gt;2 -->
<g id="edge2" class="edge">
<title>0&#45;&gt;2</title>
<path fill="none" stroke="black" d="M189.31,-400.33C189.31,-392.93 189.31,-384.44 189.31,-376.33"/>
<polygon fill="black" stroke="black" points="192.81,-376.39 189.31,-366.39 185.81,-376.39 192.81,-376.39"/>
</g>
<!-- 5 -->
<g id="node6" class="node">
<title>5</title>
<ellipse fill="white" stroke="black" cx="295.31" cy="-342.56" rx="27" ry="22.06"/>
<text text-anchor="middle" x="295.31" y="-338.36" font-family="Arial" font-size="14.00">mul</text>
</g>
<!-- 0&#45;&gt;5 -->
<g id="edge5" class="edge">
<title>0&#45;&gt;5</title>
<path fill="none" stroke="black" d="M215.78,-402.17C231.27,-390.76 250.81,-376.35 266.66,-364.67"/>
<polygon fill="black" stroke="black" points="268.3,-367.81 274.28,-359.06 264.15,-362.17 268.3,-367.81"/>
</g>
<!-- 3 -->
<g id="node4" class="node">
<title>3</title>
<ellipse fill="white" stroke="black" cx="55.31" cy="-262.43" rx="55.31" ry="22.06"/>
<text text-anchor="middle" x="55.31" y="-258.23" font-family="Arial" font-size="14.00">steepness</text>
</g>
<!-- 2&#45;&gt;3 -->
<g id="edge3" class="edge">
<title>2&#45;&gt;3</title>
<path fill="none" stroke="black" d="M167.61,-328.85C162.9,-326.09 157.94,-323.19 153.31,-320.49 134.23,-309.36 113.05,-297.02 95.27,-286.67"/>
<polygon fill="black" stroke="black" points="97.49,-283.92 87.09,-281.91 93.97,-289.97 97.49,-283.92"/>
</g>
<!-- 4 -->
<g id="node5" class="node">
<title>4</title>
<ellipse fill="white" stroke="black" cx="189.31" cy="-262.43" rx="60.82" ry="22.06"/>
<text text-anchor="middle" x="189.31" y="-258.23" font-family="Arial" font-size="14.00">elevation_u</text>
</g>
<!-- 2&#45;&gt;4 -->
<g id="edge4" class="edge">
<title>2&#45;&gt;4</title>
<path fill="none" stroke="black" d="M189.31,-320.21C189.31,-312.8 189.31,-304.32 189.31,-296.2"/>
<polygon fill="black" stroke="black" points="192.81,-296.27 189.31,-286.27 185.81,-296.27 192.81,-296.27"/>
</g>
<!-- 6 -->
<g id="node7" class="node">
<title>6</title>
<ellipse fill="white" stroke="black" cx="295.31" cy="-262.43" rx="27" ry="22.06"/>
<text text-anchor="middle" x="295.31" y="-258.23" font-family="Arial" font-size="14.00">sub</text>
</g>
<!-- 5&#45;&gt;6 -->
<g id="edge6" class="edge">
<title>5&#45;&gt;6</title>
<path fill="none" stroke="black" d="M295.31,-320.21C295.31,-312.8 295.31,-304.32 295.31,-296.2"/>
<polygon fill="black" stroke="black" points="298.81,-296.27 295.31,-286.27 291.81,-296.27 298.81,-296.27"/>
</g>
<!-- 13 -->
<g id="node14" class="node">
<title>13</title>
<ellipse fill="white" stroke="black" cx="395.31" cy="-262.43" rx="55.31" ry="22.06"/>
<text text-anchor="middle" x="395.31" y="-258.23" font-family="Arial" font-size="14.00">steepness</text>
</g>
<!-- 5&#45;&gt;13 -->
<g id="edge13" class="edge">
<title>5&#45;&gt;13</title>
<path fill="none" stroke="black" d="M314.59,-326.49C327.97,-316.04 346.14,-301.84 361.85,-289.57"/>
<polygon fill="black" stroke="black" points="363.85,-292.45 369.57,-283.54 359.54,-286.94 363.85,-292.45"/>
</g>
<!-- 7 -->
<g id="node8" class="node">
<title>7</title>
<ellipse fill="white" stroke="black" cx="242.31" cy="-182.31" rx="27" ry="22.06"/>
<text text-anchor="middle" x="242.31" y="-178.11" font-family="Arial" font-size="14.00">sub</text>
</g>
<!-- 6&#45;&gt;7 -->
<g id="edge7" class="edge">
<title>6&#45;&gt;7</title>
<path fill="none" stroke="black" d="M282.48,-242.52C276.17,-233.21 268.42,-221.8 261.43,-211.49"/>
<polygon fill="black" stroke="black" points="264.38,-209.61 255.87,-203.3 258.59,-213.54 264.38,-209.61"/>
</g>
<!-- 12 -->
<g id="node13" class="node">
<title>12</title>
<ellipse fill="white" stroke="black" cx="347.31" cy="-182.31" rx="60.26" ry="22.06"/>
<text text-anchor="middle" x="347.31" y="-178.11" font-family="Arial" font-size="14.00">elevation_v</text>
</g>
<!-- 6&#45;&gt;12 -->
<g id="edge12" class="edge">
<title>6&#45;&gt;12</title>
<path fill="none" stroke="black" d="M307.9,-242.52C313.67,-233.85 320.65,-223.36 327.13,-213.63"/>
<polygon fill="black" stroke="black" points="329.91,-215.77 332.54,-205.5 324.08,-211.89 329.91,-215.77"/>
</g>
<!-- 8 -->
<g id="node9" class="node">
<title>8</title>
<ellipse fill="white" stroke="black" cx="196.31" cy="-102.19" rx="47.05" ry="22.06"/>
<text text-anchor="middle" x="196.31" y="-97.99" font-family="Arial" font-size="14.00">distance</text>
</g>
<!-- 7&#45;&gt;8 -->
<g id="edge8" class="edge">
<title>7&#45;&gt;8</title>
<path fill="none" stroke="black" d="M230.94,-162C225.94,-153.5 219.94,-143.32 214.35,-133.83"/>
<polygon fill="black" stroke="black" points="217.37,-132.06 209.28,-125.22 211.34,-135.61 217.37,-132.06"/>
</g>
<!-- 9 -->
<g id="node10" class="node">
<title>9</title>
<ellipse fill="white" stroke="black" cx="288.31" cy="-102.19" rx="27" ry="22.06"/>
<text text-anchor="middle" x="288.31" y="-97.99" font-family="Arial" font-size="14.00">sub</text>
</g>
<!-- 7&#45;&gt;9 -->
<g id="edge9" class="edge">
<title>7&#45;&gt;9</title>
<path fill="none" stroke="black" d="M253.68,-162C258.93,-153.08 265.28,-142.29 271.1,-132.41"/>
<polygon fill="black" stroke="black" points="274.08,-134.24 276.14,-123.85 268.05,-130.69 274.08,-134.24"/>
</g>
<!-- 10 -->
<g id="node11" class="node">
<title>10</title>
<ellipse fill="white" stroke="black" cx="221.31" cy="-22.06" rx="55.31" ry="22.06"/>
<text text-anchor="middle" x="221.31" y="-17.86" font-family="Arial" font-size="14.00">steepness</text>
</g>
<!-- 9&#45;&gt;10 -->
<g id="edge10" class="edge">
<title>9&#45;&gt;10</title>
<path fill="none" stroke="black" d="M273.11,-83.46C265.14,-74.17 255.19,-62.57 246.14,-52.02"/>
<polygon fill="black" stroke="black" points="248.97,-49.94 239.81,-44.63 243.66,-54.5 248.97,-49.94"/>
</g>
<!-- 11 -->
<g id="node12" class="node">
<title>11</title>
<ellipse fill="white" stroke="black" cx="355.31" cy="-22.06" rx="60.82" ry="22.06"/>
<text text-anchor="middle" x="355.31" y="-17.86" font-family="Arial" font-size="14.00">elevation_u</text>
</g>
<!-- 9&#45;&gt;11 -->
<g id="edge11" class="edge">
<title>9&#45;&gt;11</title>
<path fill="none" stroke="black" d="M303.51,-83.46C311.48,-74.17 321.43,-62.57 330.48,-52.02"/>
<polygon fill="black" stroke="black" points="332.96,-54.5 336.81,-44.63 327.65,-49.94 332.96,-54.5"/>
</g>
</g>
</svg>
