<?xml version="1.0" encoding="UTF-8" standalone="no"?>
<!DOCTYPE svg PUBLIC "-//W3C//DTD SVG 1.1//EN"
 "http://www.w3.org/Graphics/SVG/1.1/DTD/svg11.dtd">
<!-- Generated by graphviz version 12.2.1 (0)
 -->
<!-- Title: G Pages: 1 -->
<svg width="703pt" height="405pt"
 viewBox="36.00 36.00 667.08 369.29" xmlns="http://www.w3.org/2000/svg" xmlns:xlink="http://www.w3.org/1999/xlink">
<g id="graph0" class="graph" transform="scale(1 1) rotate(0) translate(40 365.29)">
<title>G</title>
<polygon fill="white" stroke="none" points="-4,4 -4,-329.29 627.08,-329.29 627.08,4 -4,4"/>
<text text-anchor="middle" x="311.54" y="-308.69" font-family="Times New Roman,serif" font-size="14.00">(&#39;best_tree_1000pop_15gen_25runs_res200_5subrun&#39;, &#39;&#39;)</text>
<!-- 0 -->
<g id="node1" class="node">
<title>0</title>
<ellipse fill="white" stroke="black" cx="283.26" cy="-262.43" rx="63.57" ry="22.06"/>
<text text-anchor="middle" x="283.26" y="-258.23" font-family="Arial" font-size="14.00">if_then_else</text>
</g>
<!-- 1 -->
<g id="node2" class="node">
<title>1</title>
<ellipse fill="white" stroke="black" cx="153.26" cy="-182.31" rx="71.26" ry="22.06"/>
<text text-anchor="middle" x="153.26" y="-178.11" font-family="Arial" font-size="14.00">identity_water</text>
</g>
<!-- 0&#45;&gt;1 -->
<g id="edge1" class="edge">
<title>0&#45;&gt;1</title>
<path fill="none" stroke="black" d="M252.12,-242.72C234.93,-232.39 213.36,-219.42 194.75,-208.24"/>
<polygon fill="black" stroke="black" points="196.72,-205.34 186.35,-203.19 193.11,-211.34 196.72,-205.34"/>
</g>
<!-- 4 -->
<g id="node5" class="node">
<title>4</title>
<ellipse fill="white" stroke="black" cx="283.26" cy="-182.31" rx="27" ry="22.06"/>
<text text-anchor="middle" x="283.26" y="-178.11" font-family="Arial" font-size="14.00">sub</text>
</g>
<!-- 0&#45;&gt;4 -->
<g id="edge4" class="edge">
<title>0&#45;&gt;4</title>
<path fill="none" stroke="black" d="M283.26,-240.08C283.26,-232.68 283.26,-224.19 283.26,-216.08"/>
<polygon fill="black" stroke="black" points="286.76,-216.14 283.26,-206.14 279.76,-216.14 286.76,-216.14"/>
</g>
<!-- 7 -->
<g id="node8" class="node">
<title>7</title>
<ellipse fill="white" stroke="black" cx="456.26" cy="-182.31" rx="27" ry="22.06"/>
<text text-anchor="middle" x="456.26" y="-178.11" font-family="Arial" font-size="14.00">mul</text>
</g>
<!-- 0&#45;&gt;7 -->
<g id="edge7" class="edge">
<title>0&#45;&gt;7</title>
<path fill="none" stroke="black" d="M321.23,-244.29C351.39,-230.67 393.19,-211.79 422.27,-198.66"/>
<polygon fill="black" stroke="black" points="423.68,-201.86 431.36,-194.55 420.8,-195.48 423.68,-201.86"/>
</g>
<!-- 2 -->
<g id="node3" class="node">
<title>2</title>
<ellipse fill="white" stroke="black" cx="71.26" cy="-102.19" rx="71.26" ry="22.06"/>
<text text-anchor="middle" x="71.26" y="-97.99" font-family="Arial" font-size="14.00">identity_water</text>
</g>
<!-- 1&#45;&gt;2 -->
<g id="edge2" class="edge">
<title>1&#45;&gt;2</title>
<path fill="none" stroke="black" d="M132.14,-161.19C122.56,-152.06 111.06,-141.1 100.65,-131.18"/>
<polygon fill="black" stroke="black" points="103.34,-128.92 93.69,-124.55 98.51,-133.98 103.34,-128.92"/>
</g>
<!-- 3 -->
<g id="node4" class="node">
<title>3</title>
<ellipse fill="white" stroke="black" cx="71.26" cy="-22.06" rx="47.04" ry="22.06"/>
<text text-anchor="middle" x="71.26" y="-17.86" font-family="Arial" font-size="14.00">is_water</text>
</g>
<!-- 2&#45;&gt;3 -->
<g id="edge3" class="edge">
<title>2&#45;&gt;3</title>
<path fill="none" stroke="black" d="M71.26,-79.84C71.26,-72.43 71.26,-63.95 71.26,-55.83"/>
<polygon fill="black" stroke="black" points="74.76,-55.9 71.26,-45.9 67.76,-55.9 74.76,-55.9"/>
</g>
<!-- 5 -->
<g id="node6" class="node">
<title>5</title>
<ellipse fill="white" stroke="black" cx="216.26" cy="-102.19" rx="55.31" ry="22.06"/>
<text text-anchor="middle" x="216.26" y="-97.99" font-family="Arial" font-size="14.00">steepness</text>
</g>
<!-- 4&#45;&gt;5 -->
<g id="edge5" class="edge">
<title>4&#45;&gt;5</title>
<path fill="none" stroke="black" d="M268.06,-163.58C260.1,-154.3 250.14,-142.69 241.1,-132.14"/>
<polygon fill="black" stroke="black" points="243.92,-130.06 234.76,-124.75 238.61,-134.62 243.92,-130.06"/>
</g>
<!-- 6 -->
<g id="node7" class="node">
<title>6</title>
<ellipse fill="white" stroke="black" cx="350.26" cy="-102.19" rx="60.82" ry="22.06"/>
<text text-anchor="middle" x="350.26" y="-97.99" font-family="Arial" font-size="14.00">elevation_u</text>
</g>
<!-- 4&#45;&gt;6 -->
<g id="edge6" class="edge">
<title>4&#45;&gt;6</title>
<path fill="none" stroke="black" d="M298.46,-163.58C306.43,-154.3 316.38,-142.69 325.43,-132.14"/>
<polygon fill="black" stroke="black" points="327.91,-134.62 331.77,-124.75 322.6,-130.06 327.91,-134.62"/>
</g>
<!-- 8 -->
<g id="node9" class="node">
<title>8</title>
<ellipse fill="white" stroke="black" cx="456.26" cy="-102.19" rx="27" ry="22.06"/>
<text text-anchor="middle" x="456.26" y="-97.99" font-family="Arial" font-size="14.00">sub</text>
</g>
<!-- 7&#45;&gt;8 -->
<g id="edge8" class="edge">
<title>7&#45;&gt;8</title>
<path fill="none" stroke="black" d="M456.26,-159.96C456.26,-152.55 456.26,-144.07 456.26,-135.96"/>
<polygon fill="black" stroke="black" points="459.76,-136.02 456.26,-126.02 452.76,-136.02 459.76,-136.02"/>
</g>
<!-- 11 -->
<g id="node12" class="node">
<title>11</title>
<ellipse fill="white" stroke="black" cx="562.26" cy="-102.19" rx="60.82" ry="22.06"/>
<text text-anchor="middle" x="562.26" y="-97.99" font-family="Arial" font-size="14.00">elevation_u</text>
</g>
<!-- 7&#45;&gt;11 -->
<g id="edge11" class="edge">
<title>7&#45;&gt;11</title>
<path fill="none" stroke="black" d="M475.7,-166.98C490.03,-156.42 509.9,-141.78 527,-129.18"/>
<polygon fill="black" stroke="black" points="528.96,-132.08 534.93,-123.33 524.81,-126.44 528.96,-132.08"/>
</g>
<!-- 9 -->
<g id="node10" class="node">
<title>9</title>
<ellipse fill="white" stroke="black" cx="393.26" cy="-22.06" rx="47.05" ry="22.06"/>
<text text-anchor="middle" x="393.26" y="-17.86" font-family="Arial" font-size="14.00">distance</text>
</g>
<!-- 8&#45;&gt;9 -->
<g id="edge9" class="edge">
<title>8&#45;&gt;9</title>
<path fill="none" stroke="black" d="M441.97,-83.46C434.5,-74.2 425.17,-62.63 416.68,-52.1"/>
<polygon fill="black" stroke="black" points="419.45,-49.96 410.45,-44.38 414,-54.36 419.45,-49.96"/>
</g>
<!-- 10 -->
<g id="node11" class="node">
<title>10</title>
<ellipse fill="white" stroke="black" cx="518.26" cy="-22.06" rx="60.26" ry="22.06"/>
<text text-anchor="middle" x="518.26" y="-17.86" font-family="Arial" font-size="14.00">elevation_v</text>
</g>
<!-- 8&#45;&gt;10 -->
<g id="edge10" class="edge">
<title>8&#45;&gt;10</title>
<path fill="none" stroke="black" d="M470.64,-83.07C477.89,-73.93 486.86,-62.63 495.05,-52.3"/>
<polygon fill="black" stroke="black" points="497.58,-54.76 501.05,-44.75 492.09,-50.41 497.58,-54.76"/>
</g>
</g>
</svg>
