<?xml version="1.0" encoding="UTF-8" standalone="no"?>
<!DOCTYPE svg PUBLIC "-//W3C//DTD SVG 1.1//EN"
 "http://www.w3.org/Graphics/SVG/1.1/DTD/svg11.dtd">
<!-- Generated by graphviz version 12.2.1 (0)
 -->
<!-- Title: G Pages: 1 -->
<svg width="724pt" height="405pt"
 viewBox="36.00 36.00 688.13 369.29" xmlns="http://www.w3.org/2000/svg" xmlns:xlink="http://www.w3.org/1999/xlink">
<g id="graph0" class="graph" transform="scale(1 1) rotate(0) translate(40 365.29)">
<title>G</title>
<polygon fill="white" stroke="none" points="-4,4 -4,-329.29 648.13,-329.29 648.13,4 -4,4"/>
<text text-anchor="middle" x="322.07" y="-308.69" font-family="Times New Roman,serif" font-size="14.00">(&#39;best_tree_1000pop_15gen_25runs_res200_2subrun&#39;, &#39;&#39;)</text>
<!-- 0 -->
<g id="node1" class="node">
<title>0</title>
<ellipse fill="white" stroke="black" cx="319.31" cy="-262.43" rx="27" ry="22.06"/>
<text text-anchor="middle" x="319.31" y="-258.23" font-family="Arial" font-size="14.00">sub</text>
</g>
<!-- 1 -->
<g id="node2" class="node">
<title>1</title>
<ellipse fill="white" stroke="black" cx="265.31" cy="-182.31" rx="27" ry="22.06"/>
<text text-anchor="middle" x="265.31" y="-178.11" font-family="Arial" font-size="14.00">mul</text>
</g>
<!-- 0&#45;&gt;1 -->
<g id="edge1" class="edge">
<title>0&#45;&gt;1</title>
<path fill="none" stroke="black" d="M306.51,-242.92C299.97,-233.45 291.87,-221.74 284.59,-211.2"/>
<polygon fill="black" stroke="black" points="287.63,-209.44 279.06,-203.21 281.87,-213.42 287.63,-209.44"/>
</g>
<!-- 6 -->
<g id="node7" class="node">
<title>6</title>
<ellipse fill="white" stroke="black" cx="415.31" cy="-182.31" rx="63.57" ry="22.06"/>
<text text-anchor="middle" x="415.31" y="-178.11" font-family="Arial" font-size="14.00">if_then_else</text>
</g>
<!-- 0&#45;&gt;6 -->
<g id="edge6" class="edge">
<title>0&#45;&gt;6</title>
<path fill="none" stroke="black" d="M337.82,-246.37C350.36,-236.16 367.29,-222.38 382.13,-210.31"/>
<polygon fill="black" stroke="black" points="384.32,-213.04 389.86,-204.02 379.9,-207.61 384.32,-213.04"/>
</g>
<!-- 2 -->
<g id="node3" class="node">
<title>2</title>
<ellipse fill="white" stroke="black" cx="185.31" cy="-102.19" rx="27" ry="22.06"/>
<text text-anchor="middle" x="185.31" y="-97.99" font-family="Arial" font-size="14.00">sub</text>
</g>
<!-- 1&#45;&gt;2 -->
<g id="edge2" class="edge">
<title>1&#45;&gt;2</title>
<path fill="none" stroke="black" d="M248.34,-164.74C237.31,-153.97 222.74,-139.73 210.38,-127.67"/>
<polygon fill="black" stroke="black" points="212.93,-125.27 203.33,-120.79 208.04,-130.28 212.93,-125.27"/>
</g>
<!-- 5 -->
<g id="node6" class="node">
<title>5</title>
<ellipse fill="white" stroke="black" cx="265.31" cy="-102.19" rx="34.96" ry="22.06"/>
<text text-anchor="middle" x="265.31" y="-97.99" font-family="Arial" font-size="14.00">0.795</text>
</g>
<!-- 1&#45;&gt;5 -->
<g id="edge5" class="edge">
<title>1&#45;&gt;5</title>
<path fill="none" stroke="black" d="M265.31,-159.96C265.31,-152.55 265.31,-144.07 265.31,-135.96"/>
<polygon fill="black" stroke="black" points="268.81,-136.02 265.31,-126.02 261.81,-136.02 268.81,-136.02"/>
</g>
<!-- 3 -->
<g id="node4" class="node">
<title>3</title>
<ellipse fill="white" stroke="black" cx="55.31" cy="-22.06" rx="55.31" ry="22.06"/>
<text text-anchor="middle" x="55.31" y="-17.86" font-family="Arial" font-size="14.00">steepness</text>
</g>
<!-- 2&#45;&gt;3 -->
<g id="edge3" class="edge">
<title>2&#45;&gt;3</title>
<path fill="none" stroke="black" d="M163.84,-88.28C145.12,-77.03 117.49,-60.43 94.79,-46.79"/>
<polygon fill="black" stroke="black" points="96.75,-43.88 86.38,-41.73 93.14,-49.88 96.75,-43.88"/>
</g>
<!-- 4 -->
<g id="node5" class="node">
<title>4</title>
<ellipse fill="white" stroke="black" cx="189.31" cy="-22.06" rx="60.26" ry="22.06"/>
<text text-anchor="middle" x="189.31" y="-17.86" font-family="Arial" font-size="14.00">elevation_v</text>
</g>
<!-- 2&#45;&gt;4 -->
<g id="edge4" class="edge">
<title>2&#45;&gt;4</title>
<path fill="none" stroke="black" d="M186.4,-79.84C186.78,-72.43 187.22,-63.95 187.63,-55.83"/>
<polygon fill="black" stroke="black" points="191.13,-56.06 188.14,-45.9 184.13,-55.7 191.13,-56.06"/>
</g>
<!-- 7 -->
<g id="node8" class="node">
<title>7</title>
<ellipse fill="white" stroke="black" cx="365.31" cy="-102.19" rx="47.04" ry="22.06"/>
<text text-anchor="middle" x="365.31" y="-97.99" font-family="Arial" font-size="14.00">is_water</text>
</g>
<!-- 6&#45;&gt;7 -->
<g id="edge7" class="edge">
<title>6&#45;&gt;7</title>
<path fill="none" stroke="black" d="M401.91,-160.37C396.56,-152.01 390.29,-142.22 384.47,-133.13"/>
<polygon fill="black" stroke="black" points="387.55,-131.45 379.22,-124.91 381.66,-135.22 387.55,-131.45"/>
</g>
<!-- 8 -->
<g id="node9" class="node">
<title>8</title>
<ellipse fill="white" stroke="black" cx="457.31" cy="-102.19" rx="27" ry="22.06"/>
<text text-anchor="middle" x="457.31" y="-97.99" font-family="Arial" font-size="14.00">mul</text>
</g>
<!-- 6&#45;&gt;8 -->
<g id="edge8" class="edge">
<title>6&#45;&gt;8</title>
<path fill="none" stroke="black" d="M426.57,-160.37C431.12,-151.9 436.46,-141.97 441.4,-132.78"/>
<polygon fill="black" stroke="black" points="444.38,-134.63 446.03,-124.17 438.21,-131.32 444.38,-134.63"/>
</g>
<!-- 11 -->
<g id="node12" class="node">
<title>11</title>
<ellipse fill="white" stroke="black" cx="556.31" cy="-102.19" rx="27" ry="22.06"/>
<text text-anchor="middle" x="556.31" y="-97.99" font-family="Arial" font-size="14.00">neg</text>
</g>
<!-- 6&#45;&gt;11 -->
<g id="edge11" class="edge">
<title>6&#45;&gt;11</title>
<path fill="none" stroke="black" d="M448.37,-162.99C471.38,-150.24 501.89,-133.34 524.6,-120.76"/>
<polygon fill="black" stroke="black" points="526.06,-123.95 533.11,-116.04 522.66,-117.83 526.06,-123.95"/>
</g>
<!-- 9 -->
<g id="node10" class="node">
<title>9</title>
<ellipse fill="white" stroke="black" cx="332.31" cy="-22.06" rx="60.26" ry="22.06"/>
<text text-anchor="middle" x="332.31" y="-17.86" font-family="Arial" font-size="14.00">elevation_v</text>
</g>
<!-- 8&#45;&gt;9 -->
<g id="edge9" class="edge">
<title>8&#45;&gt;9</title>
<path fill="none" stroke="black" d="M436.11,-87.93C418.55,-76.96 393.12,-61.07 371.83,-47.76"/>
<polygon fill="black" stroke="black" points="373.69,-44.79 363.35,-42.46 369.98,-50.73 373.69,-44.79"/>
</g>
<!-- 10 -->
<g id="node11" class="node">
<title>10</title>
<ellipse fill="white" stroke="black" cx="457.31" cy="-22.06" rx="47.05" ry="22.06"/>
<text text-anchor="middle" x="457.31" y="-17.86" font-family="Arial" font-size="14.00">distance</text>
</g>
<!-- 8&#45;&gt;10 -->
<g id="edge10" class="edge">
<title>8&#45;&gt;10</title>
<path fill="none" stroke="black" d="M457.31,-79.84C457.31,-72.43 457.31,-63.95 457.31,-55.83"/>
<polygon fill="black" stroke="black" points="460.81,-55.9 457.31,-45.9 453.81,-55.9 460.81,-55.9"/>
</g>
<!-- 12 -->
<g id="node13" class="node">
<title>12</title>
<ellipse fill="white" stroke="black" cx="583.31" cy="-22.06" rx="60.82" ry="22.06"/>
<text text-anchor="middle" x="583.31" y="-17.86" font-family="Arial" font-size="14.00">elevation_u</text>
</g>
<!-- 11&#45;&gt;12 -->
<g id="edge12" class="edge">
<title>11&#45;&gt;12</title>
<path fill="none" stroke="black" d="M563.4,-80.66C566.13,-72.78 569.31,-63.58 572.31,-54.88"/>
<polygon fill="black" stroke="black" points="575.53,-56.29 575.49,-45.7 568.91,-54.01 575.53,-56.29"/>
</g>
</g>
</svg>
