<?xml version="1.0" encoding="UTF-8" standalone="no"?>
<!DOCTYPE svg PUBLIC "-//W3C//DTD SVG 1.1//EN"
 "http://www.w3.org/Graphics/SVG/1.1/DTD/svg11.dtd">
<!-- Generated by graphviz version 12.2.1 (0)
 -->
<!-- Title: G Pages: 1 -->
<svg width="642pt" height="566pt"
 viewBox="36.00 36.00 606.35 529.54" xmlns="http://www.w3.org/2000/svg" xmlns:xlink="http://www.w3.org/1999/xlink">
<g id="graph0" class="graph" transform="scale(1 1) rotate(0) translate(40 525.54)">
<title>G</title>
<polygon fill="white" stroke="none" points="-4,4 -4,-489.54 566.35,-489.54 566.35,4 -4,4"/>
<text text-anchor="middle" x="281.18" y="-468.94" font-family="Times New Roman,serif" font-size="14.00">(&#39;best_2tree_1000pop_15gen_25runs_res200_25subrun&#39;, &#39;&#39;)</text>
<!-- 0 -->
<g id="node1" class="node">
<title>0</title>
<ellipse fill="white" stroke="black" cx="234.04" cy="-422.68" rx="63.57" ry="22.06"/>
<text text-anchor="middle" x="234.04" y="-418.48" font-family="Arial" font-size="14.00">if_then_else</text>
</g>
<!-- 1 -->
<g id="node2" class="node">
<title>1</title>
<ellipse fill="white" stroke="black" cx="116.04" cy="-342.56" rx="71.26" ry="22.06"/>
<text text-anchor="middle" x="116.04" y="-338.36" font-family="Arial" font-size="14.00">identity_water</text>
</g>
<!-- 0&#45;&gt;1 -->
<g id="edge1" class="edge">
<title>0&#45;&gt;1</title>
<path fill="none" stroke="black" d="M205.18,-402.57C190.01,-392.52 171.2,-380.07 154.78,-369.2"/>
<polygon fill="black" stroke="black" points="156.96,-366.45 146.69,-363.85 153.1,-372.29 156.96,-366.45"/>
</g>
<!-- 3 -->
<g id="node4" class="node">
<title>3</title>
<ellipse fill="white" stroke="black" cx="234.04" cy="-342.56" rx="27" ry="22.06"/>
<text text-anchor="middle" x="234.04" y="-338.36" font-family="Arial" font-size="14.00">sub</text>
</g>
<!-- 0&#45;&gt;3 -->
<g id="edge3" class="edge">
<title>0&#45;&gt;3</title>
<path fill="none" stroke="black" d="M234.04,-400.33C234.04,-392.93 234.04,-384.44 234.04,-376.33"/>
<polygon fill="black" stroke="black" points="237.54,-376.39 234.04,-366.39 230.54,-376.39 237.54,-376.39"/>
</g>
<!-- 6 -->
<g id="node7" class="node">
<title>6</title>
<ellipse fill="white" stroke="black" cx="407.04" cy="-342.56" rx="27" ry="22.06"/>
<text text-anchor="middle" x="407.04" y="-338.36" font-family="Arial" font-size="14.00">mul</text>
</g>
<!-- 0&#45;&gt;6 -->
<g id="edge6" class="edge">
<title>0&#45;&gt;6</title>
<path fill="none" stroke="black" d="M272.01,-404.53C302.17,-390.91 343.98,-372.04 373.05,-358.91"/>
<polygon fill="black" stroke="black" points="374.47,-362.11 382.14,-354.8 371.59,-355.73 374.47,-362.11"/>
</g>
<!-- 2 -->
<g id="node3" class="node">
<title>2</title>
<ellipse fill="white" stroke="black" cx="47.04" cy="-262.43" rx="47.04" ry="22.06"/>
<text text-anchor="middle" x="47.04" y="-258.23" font-family="Arial" font-size="14.00">is_water</text>
</g>
<!-- 1&#45;&gt;2 -->
<g id="edge2" class="edge">
<title>1&#45;&gt;2</title>
<path fill="none" stroke="black" d="M97.92,-321.03C90.03,-312.1 80.66,-301.49 72.12,-291.82"/>
<polygon fill="black" stroke="black" points="74.82,-289.59 65.58,-284.42 69.57,-294.23 74.82,-289.59"/>
</g>
<!-- 4 -->
<g id="node5" class="node">
<title>4</title>
<ellipse fill="white" stroke="black" cx="167.04" cy="-262.43" rx="55.31" ry="22.06"/>
<text text-anchor="middle" x="167.04" y="-258.23" font-family="Arial" font-size="14.00">steepness</text>
</g>
<!-- 3&#45;&gt;4 -->
<g id="edge4" class="edge">
<title>3&#45;&gt;4</title>
<path fill="none" stroke="black" d="M218.84,-323.83C210.88,-314.54 200.93,-302.94 191.88,-292.39"/>
<polygon fill="black" stroke="black" points="194.71,-290.31 185.54,-285 189.39,-294.87 194.71,-290.31"/>
</g>
<!-- 5 -->
<g id="node6" class="node">
<title>5</title>
<ellipse fill="white" stroke="black" cx="301.04" cy="-262.43" rx="60.82" ry="22.06"/>
<text text-anchor="middle" x="301.04" y="-258.23" font-family="Arial" font-size="14.00">elevation_u</text>
</g>
<!-- 3&#45;&gt;5 -->
<g id="edge5" class="edge">
<title>3&#45;&gt;5</title>
<path fill="none" stroke="black" d="M249.25,-323.83C257.21,-314.54 267.16,-302.94 276.21,-292.39"/>
<polygon fill="black" stroke="black" points="278.7,-294.87 282.55,-285 273.38,-290.31 278.7,-294.87"/>
</g>
<!-- 7 -->
<g id="node8" class="node">
<title>7</title>
<ellipse fill="white" stroke="black" cx="407.04" cy="-262.43" rx="27" ry="22.06"/>
<text text-anchor="middle" x="407.04" y="-258.23" font-family="Arial" font-size="14.00">sub</text>
</g>
<!-- 6&#45;&gt;7 -->
<g id="edge7" class="edge">
<title>6&#45;&gt;7</title>
<path fill="none" stroke="black" d="M407.04,-320.21C407.04,-312.8 407.04,-304.32 407.04,-296.2"/>
<polygon fill="black" stroke="black" points="410.54,-296.27 407.04,-286.27 403.54,-296.27 410.54,-296.27"/>
</g>
<!-- 14 -->
<g id="node15" class="node">
<title>14</title>
<ellipse fill="white" stroke="black" cx="507.04" cy="-262.43" rx="55.31" ry="22.06"/>
<text text-anchor="middle" x="507.04" y="-258.23" font-family="Arial" font-size="14.00">steepness</text>
</g>
<!-- 6&#45;&gt;14 -->
<g id="edge14" class="edge">
<title>6&#45;&gt;14</title>
<path fill="none" stroke="black" d="M426.33,-326.49C439.7,-316.04 457.88,-301.84 473.59,-289.57"/>
<polygon fill="black" stroke="black" points="475.58,-292.45 481.31,-283.54 471.27,-286.94 475.58,-292.45"/>
</g>
<!-- 8 -->
<g id="node9" class="node">
<title>8</title>
<ellipse fill="white" stroke="black" cx="354.04" cy="-182.31" rx="27" ry="22.06"/>
<text text-anchor="middle" x="354.04" y="-178.11" font-family="Arial" font-size="14.00">sub</text>
</g>
<!-- 7&#45;&gt;8 -->
<g id="edge8" class="edge">
<title>7&#45;&gt;8</title>
<path fill="none" stroke="black" d="M394.21,-242.52C387.9,-233.21 380.16,-221.8 373.16,-211.49"/>
<polygon fill="black" stroke="black" points="376.12,-209.61 367.61,-203.3 370.32,-213.54 376.12,-209.61"/>
</g>
<!-- 13 -->
<g id="node14" class="node">
<title>13</title>
<ellipse fill="white" stroke="black" cx="459.04" cy="-182.31" rx="60.26" ry="22.06"/>
<text text-anchor="middle" x="459.04" y="-178.11" font-family="Arial" font-size="14.00">elevation_v</text>
</g>
<!-- 7&#45;&gt;13 -->
<g id="edge13" class="edge">
<title>7&#45;&gt;13</title>
<path fill="none" stroke="black" d="M419.63,-242.52C425.4,-233.85 432.39,-223.36 438.87,-213.63"/>
<polygon fill="black" stroke="black" points="441.64,-215.77 444.27,-205.5 435.82,-211.89 441.64,-215.77"/>
</g>
<!-- 9 -->
<g id="node10" class="node">
<title>9</title>
<ellipse fill="white" stroke="black" cx="308.04" cy="-102.19" rx="47.05" ry="22.06"/>
<text text-anchor="middle" x="308.04" y="-97.99" font-family="Arial" font-size="14.00">distance</text>
</g>
<!-- 8&#45;&gt;9 -->
<g id="edge9" class="edge">
<title>8&#45;&gt;9</title>
<path fill="none" stroke="black" d="M342.67,-162C337.67,-153.5 331.67,-143.32 326.09,-133.83"/>
<polygon fill="black" stroke="black" points="329.11,-132.06 321.02,-125.22 323.08,-135.61 329.11,-132.06"/>
</g>
<!-- 10 -->
<g id="node11" class="node">
<title>10</title>
<ellipse fill="white" stroke="black" cx="400.04" cy="-102.19" rx="27" ry="22.06"/>
<text text-anchor="middle" x="400.04" y="-97.99" font-family="Arial" font-size="14.00">sub</text>
</g>
<!-- 8&#45;&gt;10 -->
<g id="edge10" class="edge">
<title>8&#45;&gt;10</title>
<path fill="none" stroke="black" d="M365.42,-162C370.67,-153.08 377.02,-142.29 382.84,-132.41"/>
<polygon fill="black" stroke="black" points="385.82,-134.24 387.88,-123.85 379.79,-130.69 385.82,-134.24"/>
</g>
<!-- 11 -->
<g id="node12" class="node">
<title>11</title>
<ellipse fill="white" stroke="black" cx="333.04" cy="-22.06" rx="55.31" ry="22.06"/>
<text text-anchor="middle" x="333.04" y="-17.86" font-family="Arial" font-size="14.00">steepness</text>
</g>
<!-- 10&#45;&gt;11 -->
<g id="edge11" class="edge">
<title>10&#45;&gt;11</title>
<path fill="none" stroke="black" d="M384.84,-83.46C376.88,-74.17 366.93,-62.57 357.88,-52.02"/>
<polygon fill="black" stroke="black" points="360.71,-49.94 351.54,-44.63 355.39,-54.5 360.71,-49.94"/>
</g>
<!-- 12 -->
<g id="node13" class="node">
<title>12</title>
<ellipse fill="white" stroke="black" cx="467.04" cy="-22.06" rx="60.82" ry="22.06"/>
<text text-anchor="middle" x="467.04" y="-17.86" font-family="Arial" font-size="14.00">elevation_u</text>
</g>
<!-- 10&#45;&gt;12 -->
<g id="edge12" class="edge">
<title>10&#45;&gt;12</title>
<path fill="none" stroke="black" d="M415.25,-83.46C423.21,-74.17 433.16,-62.57 442.21,-52.02"/>
<polygon fill="black" stroke="black" points="444.7,-54.5 448.55,-44.63 439.38,-49.94 444.7,-54.5"/>
</g>
</g>
</svg>
