<?xml version="1.0" encoding="UTF-8" standalone="no"?>
<!DOCTYPE svg PUBLIC "-//W3C//DTD SVG 1.1//EN"
 "http://www.w3.org/Graphics/SVG/1.1/DTD/svg11.dtd">
<!-- Generated by graphviz version 12.2.1 (0)
 -->
<!-- Title: G Pages: 1 -->
<svg width="637pt" height="485pt"
 viewBox="36.00 36.00 601.13 449.42" xmlns="http://www.w3.org/2000/svg" xmlns:xlink="http://www.w3.org/1999/xlink">
<g id="graph0" class="graph" transform="scale(1 1) rotate(0) translate(40 445.42)">
<title>G</title>
<polygon fill="white" stroke="none" points="-4,4 -4,-409.42 561.13,-409.42 561.13,4 -4,4"/>
<text text-anchor="middle" x="278.57" y="-388.82" font-family="Times New Roman,serif" font-size="14.00">(&#39;best_5tree_1000pop_15gen_25runs_res200_25subrun&#39;, &#39;&#39;)</text>
<!-- 0 -->
<g id="node1" class="node">
<title>0</title>
<ellipse fill="white" stroke="black" cx="189.31" cy="-342.56" rx="63.57" ry="22.06"/>
<text text-anchor="middle" x="189.31" y="-338.36" font-family="Arial" font-size="14.00">if_then_else</text>
</g>
<!-- 1 -->
<g id="node2" class="node">
<title>1</title>
<ellipse fill="white" stroke="black" cx="97.31" cy="-262.43" rx="47.04" ry="22.06"/>
<text text-anchor="middle" x="97.31" y="-258.23" font-family="Arial" font-size="14.00">is_water</text>
</g>
<!-- 0&#45;&gt;1 -->
<g id="edge1" class="edge">
<title>0&#45;&gt;1</title>
<path fill="none" stroke="black" d="M166.09,-321.84C154.62,-312.09 140.6,-300.19 128.23,-289.69"/>
<polygon fill="black" stroke="black" points="130.61,-287.12 120.72,-283.31 126.08,-292.45 130.61,-287.12"/>
</g>
<!-- 2 -->
<g id="node3" class="node">
<title>2</title>
<ellipse fill="white" stroke="black" cx="189.31" cy="-262.43" rx="27" ry="22.06"/>
<text text-anchor="middle" x="189.31" y="-258.23" font-family="Arial" font-size="14.00">sub</text>
</g>
<!-- 0&#45;&gt;2 -->
<g id="edge2" class="edge">
<title>0&#45;&gt;2</title>
<path fill="none" stroke="black" d="M189.31,-320.21C189.31,-312.8 189.31,-304.32 189.31,-296.2"/>
<polygon fill="black" stroke="black" points="192.81,-296.27 189.31,-286.27 185.81,-296.27 192.81,-296.27"/>
</g>
<!-- 5 -->
<g id="node6" class="node">
<title>5</title>
<ellipse fill="white" stroke="black" cx="295.31" cy="-262.43" rx="27" ry="22.06"/>
<text text-anchor="middle" x="295.31" y="-258.23" font-family="Arial" font-size="14.00">mul</text>
</g>
<!-- 0&#45;&gt;5 -->
<g id="edge5" class="edge">
<title>0&#45;&gt;5</title>
<path fill="none" stroke="black" d="M215.78,-322.04C231.27,-310.63 250.81,-296.23 266.66,-284.55"/>
<polygon fill="black" stroke="black" points="268.3,-287.68 274.28,-278.93 264.15,-282.05 268.3,-287.68"/>
</g>
<!-- 3 -->
<g id="node4" class="node">
<title>3</title>
<ellipse fill="white" stroke="black" cx="55.31" cy="-182.31" rx="55.31" ry="22.06"/>
<text text-anchor="middle" x="55.31" y="-178.11" font-family="Arial" font-size="14.00">steepness</text>
</g>
<!-- 2&#45;&gt;3 -->
<g id="edge3" class="edge">
<title>2&#45;&gt;3</title>
<path fill="none" stroke="black" d="M167.61,-248.73C162.9,-245.97 157.94,-243.07 153.31,-240.37 134.23,-229.23 113.05,-216.9 95.27,-206.55"/>
<polygon fill="black" stroke="black" points="97.49,-203.79 87.09,-201.79 93.97,-209.84 97.49,-203.79"/>
</g>
<!-- 4 -->
<g id="node5" class="node">
<title>4</title>
<ellipse fill="white" stroke="black" cx="189.31" cy="-182.31" rx="60.82" ry="22.06"/>
<text text-anchor="middle" x="189.31" y="-178.11" font-family="Arial" font-size="14.00">elevation_u</text>
</g>
<!-- 2&#45;&gt;4 -->
<g id="edge4" class="edge">
<title>2&#45;&gt;4</title>
<path fill="none" stroke="black" d="M189.31,-240.08C189.31,-232.68 189.31,-224.19 189.31,-216.08"/>
<polygon fill="black" stroke="black" points="192.81,-216.14 189.31,-206.14 185.81,-216.14 192.81,-216.14"/>
</g>
<!-- 6 -->
<g id="node7" class="node">
<title>6</title>
<ellipse fill="white" stroke="black" cx="295.31" cy="-182.31" rx="27" ry="22.06"/>
<text text-anchor="middle" x="295.31" y="-178.11" font-family="Arial" font-size="14.00">sub</text>
</g>
<!-- 5&#45;&gt;6 -->
<g id="edge6" class="edge">
<title>5&#45;&gt;6</title>
<path fill="none" stroke="black" d="M295.31,-240.08C295.31,-232.68 295.31,-224.19 295.31,-216.08"/>
<polygon fill="black" stroke="black" points="298.81,-216.14 295.31,-206.14 291.81,-216.14 298.81,-216.14"/>
</g>
<!-- 13 -->
<g id="node14" class="node">
<title>13</title>
<ellipse fill="white" stroke="black" cx="395.31" cy="-182.31" rx="55.31" ry="22.06"/>
<text text-anchor="middle" x="395.31" y="-178.11" font-family="Arial" font-size="14.00">steepness</text>
</g>
<!-- 5&#45;&gt;13 -->
<g id="edge13" class="edge">
<title>5&#45;&gt;13</title>
<path fill="none" stroke="black" d="M314.59,-246.37C327.97,-235.92 346.14,-221.72 361.85,-209.45"/>
<polygon fill="black" stroke="black" points="363.85,-212.33 369.57,-203.41 359.54,-206.81 363.85,-212.33"/>
</g>
<!-- 7 -->
<g id="node8" class="node">
<title>7</title>
<ellipse fill="white" stroke="black" cx="228.31" cy="-102.19" rx="27" ry="22.06"/>
<text text-anchor="middle" x="228.31" y="-97.99" font-family="Arial" font-size="14.00">sub</text>
</g>
<!-- 6&#45;&gt;7 -->
<g id="edge7" class="edge">
<title>6&#45;&gt;7</title>
<path fill="none" stroke="black" d="M280.11,-163.58C271.45,-153.49 260.45,-140.67 250.82,-129.43"/>
<polygon fill="black" stroke="black" points="253.61,-127.3 244.44,-121.99 248.29,-131.86 253.61,-127.3"/>
</g>
<!-- 10 -->
<g id="node11" class="node">
<title>10</title>
<ellipse fill="white" stroke="black" cx="362.31" cy="-102.19" rx="27" ry="22.06"/>
<text text-anchor="middle" x="362.31" y="-97.99" font-family="Arial" font-size="14.00">sub</text>
</g>
<!-- 6&#45;&gt;10 -->
<g id="edge10" class="edge">
<title>6&#45;&gt;10</title>
<path fill="none" stroke="black" d="M310.51,-163.58C319.17,-153.49 330.17,-140.67 339.8,-129.43"/>
<polygon fill="black" stroke="black" points="342.33,-131.86 346.18,-121.99 337.01,-127.3 342.33,-131.86"/>
</g>
<!-- 8 -->
<g id="node9" class="node">
<title>8</title>
<ellipse fill="white" stroke="black" cx="103.31" cy="-22.06" rx="47.05" ry="22.06"/>
<text text-anchor="middle" x="103.31" y="-17.86" font-family="Arial" font-size="14.00">distance</text>
</g>
<!-- 7&#45;&gt;8 -->
<g id="edge8" class="edge">
<title>7&#45;&gt;8</title>
<path fill="none" stroke="black" d="M207.11,-87.93C188.86,-76.53 162.13,-59.82 140.36,-46.22"/>
<polygon fill="black" stroke="black" points="142.37,-43.35 132.04,-41.02 138.66,-49.28 142.37,-43.35"/>
</g>
<!-- 9 -->
<g id="node10" class="node">
<title>9</title>
<ellipse fill="white" stroke="black" cx="228.31" cy="-22.06" rx="60.26" ry="22.06"/>
<text text-anchor="middle" x="228.31" y="-17.86" font-family="Arial" font-size="14.00">elevation_v</text>
</g>
<!-- 7&#45;&gt;9 -->
<g id="edge9" class="edge">
<title>7&#45;&gt;9</title>
<path fill="none" stroke="black" d="M228.31,-79.84C228.31,-72.43 228.31,-63.95 228.31,-55.83"/>
<polygon fill="black" stroke="black" points="231.81,-55.9 228.31,-45.9 224.81,-55.9 231.81,-55.9"/>
</g>
<!-- 11 -->
<g id="node12" class="node">
<title>11</title>
<ellipse fill="white" stroke="black" cx="362.31" cy="-22.06" rx="55.31" ry="22.06"/>
<text text-anchor="middle" x="362.31" y="-17.86" font-family="Arial" font-size="14.00">steepness</text>
</g>
<!-- 10&#45;&gt;11 -->
<g id="edge11" class="edge">
<title>10&#45;&gt;11</title>
<path fill="none" stroke="black" d="M362.31,-79.84C362.31,-72.43 362.31,-63.95 362.31,-55.83"/>
<polygon fill="black" stroke="black" points="365.81,-55.9 362.31,-45.9 358.81,-55.9 365.81,-55.9"/>
</g>
<!-- 12 -->
<g id="node13" class="node">
<title>12</title>
<ellipse fill="white" stroke="black" cx="496.31" cy="-22.06" rx="60.82" ry="22.06"/>
<text text-anchor="middle" x="496.31" y="-17.86" font-family="Arial" font-size="14.00">elevation_u</text>
</g>
<!-- 10&#45;&gt;12 -->
<g id="edge12" class="edge">
<title>10&#45;&gt;12</title>
<path fill="none" stroke="black" d="M383.84,-88.63C403,-77.46 431.56,-60.81 455.1,-47.09"/>
<polygon fill="black" stroke="black" points="456.66,-50.23 463.53,-42.17 453.13,-44.18 456.66,-50.23"/>
</g>
</g>
</svg>
