<?xml version="1.0" encoding="UTF-8" standalone="no"?>
<!DOCTYPE svg PUBLIC "-//W3C//DTD SVG 1.1//EN"
 "http://www.w3.org/Graphics/SVG/1.1/DTD/svg11.dtd">
<!-- Generated by graphviz version 12.2.1 (0)
 -->
<!-- Title: G Pages: 1 -->
<svg width="445pt" height="566pt"
 viewBox="36.00 36.00 408.86 529.54" xmlns="http://www.w3.org/2000/svg" xmlns:xlink="http://www.w3.org/1999/xlink">
<g id="graph0" class="graph" transform="scale(1 1) rotate(0) translate(40 525.54)">
<title>G</title>
<polygon fill="white" stroke="none" points="-4,4 -4,-489.54 368.86,-489.54 368.86,4 -4,4"/>
<text text-anchor="middle" x="182.43" y="-468.94" font-family="Times New Roman,serif" font-size="14.00">(&#39;best_4tree_2000pop_15gen_15runs_res200_15subrun&#39;, &#39;&#39;)</text>
<!-- 0 -->
<g id="node1" class="node">
<title>0</title>
<ellipse fill="white" stroke="black" cx="159.04" cy="-422.68" rx="63.57" ry="22.06"/>
<text text-anchor="middle" x="159.04" y="-418.48" font-family="Arial" font-size="14.00">if_then_else</text>
</g>
<!-- 1 -->
<g id="node2" class="node">
<title>1</title>
<ellipse fill="white" stroke="black" cx="47.04" cy="-342.56" rx="47.04" ry="22.06"/>
<text text-anchor="middle" x="47.04" y="-338.36" font-family="Arial" font-size="14.00">is_water</text>
</g>
<!-- 0&#45;&gt;1 -->
<g id="edge1" class="edge">
<title>0&#45;&gt;1</title>
<path fill="none" stroke="black" d="M131.36,-402.37C116.31,-391.87 97.55,-378.78 81.55,-367.62"/>
<polygon fill="black" stroke="black" points="83.94,-365.03 73.74,-362.17 79.94,-370.77 83.94,-365.03"/>
</g>
<!-- 2 -->
<g id="node3" class="node">
<title>2</title>
<ellipse fill="white" stroke="black" cx="159.04" cy="-342.56" rx="47.05" ry="22.06"/>
<text text-anchor="middle" x="159.04" y="-338.36" font-family="Arial" font-size="14.00">distance</text>
</g>
<!-- 0&#45;&gt;2 -->
<g id="edge2" class="edge">
<title>0&#45;&gt;2</title>
<path fill="none" stroke="black" d="M159.04,-400.33C159.04,-392.93 159.04,-384.44 159.04,-376.33"/>
<polygon fill="black" stroke="black" points="162.54,-376.39 159.04,-366.39 155.54,-376.39 162.54,-376.39"/>
</g>
<!-- 3 -->
<g id="node4" class="node">
<title>3</title>
<ellipse fill="white" stroke="black" cx="251.04" cy="-342.56" rx="27" ry="22.06"/>
<text text-anchor="middle" x="251.04" y="-338.36" font-family="Arial" font-size="14.00">mul</text>
</g>
<!-- 0&#45;&gt;3 -->
<g id="edge3" class="edge">
<title>0&#45;&gt;3</title>
<path fill="none" stroke="black" d="M182.26,-401.97C194.98,-391.17 210.8,-377.73 224.06,-366.47"/>
<polygon fill="black" stroke="black" points="226.25,-369.2 231.61,-360.06 221.72,-363.86 226.25,-369.2"/>
</g>
<!-- 4 -->
<g id="node5" class="node">
<title>4</title>
<ellipse fill="white" stroke="black" cx="198.04" cy="-262.43" rx="27" ry="22.06"/>
<text text-anchor="middle" x="198.04" y="-258.23" font-family="Arial" font-size="14.00">add</text>
</g>
<!-- 3&#45;&gt;4 -->
<g id="edge4" class="edge">
<title>3&#45;&gt;4</title>
<path fill="none" stroke="black" d="M238.21,-322.64C231.9,-313.34 224.16,-301.93 217.16,-291.61"/>
<polygon fill="black" stroke="black" points="220.12,-289.73 211.61,-283.42 214.32,-293.66 220.12,-289.73"/>
</g>
<!-- 12 -->
<g id="node13" class="node">
<title>12</title>
<ellipse fill="white" stroke="black" cx="304.04" cy="-262.43" rx="60.82" ry="22.06"/>
<text text-anchor="middle" x="304.04" y="-258.23" font-family="Arial" font-size="14.00">elevation_u</text>
</g>
<!-- 3&#45;&gt;12 -->
<g id="edge12" class="edge">
<title>3&#45;&gt;12</title>
<path fill="none" stroke="black" d="M263.87,-322.64C269.76,-313.97 276.88,-303.48 283.48,-293.75"/>
<polygon fill="black" stroke="black" points="286.27,-295.86 288.99,-285.62 280.48,-291.93 286.27,-295.86"/>
</g>
<!-- 5 -->
<g id="node6" class="node">
<title>5</title>
<ellipse fill="white" stroke="black" cx="162.04" cy="-182.31" rx="27" ry="22.06"/>
<text text-anchor="middle" x="162.04" y="-178.11" font-family="Arial" font-size="14.00">add</text>
</g>
<!-- 4&#45;&gt;5 -->
<g id="edge5" class="edge">
<title>4&#45;&gt;5</title>
<path fill="none" stroke="black" d="M188.77,-241.31C184.91,-232.93 180.34,-223.01 176.08,-213.77"/>
<polygon fill="black" stroke="black" points="179.28,-212.35 171.92,-204.73 172.92,-215.28 179.28,-212.35"/>
</g>
<!-- 10 -->
<g id="node11" class="node">
<title>10</title>
<ellipse fill="white" stroke="black" cx="251.04" cy="-182.31" rx="27" ry="22.06"/>
<text text-anchor="middle" x="251.04" y="-178.11" font-family="Arial" font-size="14.00">neg</text>
</g>
<!-- 4&#45;&gt;10 -->
<g id="edge10" class="edge">
<title>4&#45;&gt;10</title>
<path fill="none" stroke="black" d="M210.87,-242.52C217.19,-233.21 224.93,-221.8 231.93,-211.49"/>
<polygon fill="black" stroke="black" points="234.77,-213.54 237.48,-203.3 228.97,-209.61 234.77,-213.54"/>
</g>
<!-- 6 -->
<g id="node7" class="node">
<title>6</title>
<ellipse fill="white" stroke="black" cx="62.04" cy="-102.19" rx="55.31" ry="22.06"/>
<text text-anchor="middle" x="62.04" y="-97.99" font-family="Arial" font-size="14.00">steepness</text>
</g>
<!-- 5&#45;&gt;6 -->
<g id="edge6" class="edge">
<title>5&#45;&gt;6</title>
<path fill="none" stroke="black" d="M142.76,-166.25C129.38,-155.79 111.21,-141.6 95.5,-129.32"/>
<polygon fill="black" stroke="black" points="97.81,-126.69 87.78,-123.29 93.51,-132.21 97.81,-126.69"/>
</g>
<!-- 7 -->
<g id="node8" class="node">
<title>7</title>
<ellipse fill="white" stroke="black" cx="162.04" cy="-102.19" rx="27" ry="22.06"/>
<text text-anchor="middle" x="162.04" y="-97.99" font-family="Arial" font-size="14.00">mul</text>
</g>
<!-- 5&#45;&gt;7 -->
<g id="edge7" class="edge">
<title>5&#45;&gt;7</title>
<path fill="none" stroke="black" d="M162.04,-159.96C162.04,-152.55 162.04,-144.07 162.04,-135.96"/>
<polygon fill="black" stroke="black" points="165.54,-136.02 162.04,-126.02 158.54,-136.02 165.54,-136.02"/>
</g>
<!-- 8 -->
<g id="node9" class="node">
<title>8</title>
<ellipse fill="white" stroke="black" cx="99.04" cy="-22.06" rx="47.05" ry="22.06"/>
<text text-anchor="middle" x="99.04" y="-17.86" font-family="Arial" font-size="14.00">distance</text>
</g>
<!-- 7&#45;&gt;8 -->
<g id="edge8" class="edge">
<title>7&#45;&gt;8</title>
<path fill="none" stroke="black" d="M147.75,-83.46C140.28,-74.2 130.95,-62.63 122.46,-52.1"/>
<polygon fill="black" stroke="black" points="125.23,-49.96 116.23,-44.38 119.79,-54.36 125.23,-49.96"/>
</g>
<!-- 9 -->
<g id="node10" class="node">
<title>9</title>
<ellipse fill="white" stroke="black" cx="224.04" cy="-22.06" rx="60.26" ry="22.06"/>
<text text-anchor="middle" x="224.04" y="-17.86" font-family="Arial" font-size="14.00">elevation_v</text>
</g>
<!-- 7&#45;&gt;9 -->
<g id="edge9" class="edge">
<title>7&#45;&gt;9</title>
<path fill="none" stroke="black" d="M176.42,-83.07C183.67,-73.93 192.64,-62.63 200.84,-52.3"/>
<polygon fill="black" stroke="black" points="203.36,-54.76 206.83,-44.75 197.88,-50.41 203.36,-54.76"/>
</g>
<!-- 11 -->
<g id="node12" class="node">
<title>11</title>
<ellipse fill="white" stroke="black" cx="268.04" cy="-102.19" rx="60.82" ry="22.06"/>
<text text-anchor="middle" x="268.04" y="-97.99" font-family="Arial" font-size="14.00">elevation_u</text>
</g>
<!-- 10&#45;&gt;11 -->
<g id="edge11" class="edge">
<title>10&#45;&gt;11</title>
<path fill="none" stroke="black" d="M255.6,-160.37C257.26,-152.73 259.19,-143.9 261.01,-135.49"/>
<polygon fill="black" stroke="black" points="264.39,-136.45 263.1,-125.93 257.55,-134.96 264.39,-136.45"/>
</g>
</g>
</svg>
