<?xml version="1.0" encoding="UTF-8" standalone="no"?>
<!DOCTYPE svg PUBLIC "-//W3C//DTD SVG 1.1//EN"
 "http://www.w3.org/Graphics/SVG/1.1/DTD/svg11.dtd">
<!-- Generated by graphviz version 12.2.1 (0)
 -->
<!-- Title: G Pages: 1 -->
<svg width="554pt" height="566pt"
 viewBox="36.00 36.00 517.64 529.54" xmlns="http://www.w3.org/2000/svg" xmlns:xlink="http://www.w3.org/1999/xlink">
<g id="graph0" class="graph" transform="scale(1 1) rotate(0) translate(40 525.54)">
<title>G</title>
<polygon fill="white" stroke="none" points="-4,4 -4,-489.54 477.64,-489.54 477.64,4 -4,4"/>
<text text-anchor="middle" x="236.82" y="-468.94" font-family="Times New Roman,serif" font-size="14.00">(&#39;best_tree_2000pop_15gen_15runs_res200_9subrun&#39;, &#39;&#39;)</text>
<!-- 0 -->
<g id="node1" class="node">
<title>0</title>
<ellipse fill="white" stroke="black" cx="200.82" cy="-422.68" rx="63.57" ry="22.06"/>
<text text-anchor="middle" x="200.82" y="-418.48" font-family="Arial" font-size="14.00">if_then_else</text>
</g>
<!-- 1 -->
<g id="node2" class="node">
<title>1</title>
<ellipse fill="white" stroke="black" cx="108.82" cy="-342.56" rx="47.04" ry="22.06"/>
<text text-anchor="middle" x="108.82" y="-338.36" font-family="Arial" font-size="14.00">is_water</text>
</g>
<!-- 0&#45;&gt;1 -->
<g id="edge1" class="edge">
<title>0&#45;&gt;1</title>
<path fill="none" stroke="black" d="M177.61,-401.97C166.13,-392.22 152.11,-380.32 139.74,-369.81"/>
<polygon fill="black" stroke="black" points="142.12,-367.24 132.23,-363.43 137.59,-372.58 142.12,-367.24"/>
</g>
<!-- 2 -->
<g id="node3" class="node">
<title>2</title>
<ellipse fill="white" stroke="black" cx="200.82" cy="-342.56" rx="27" ry="22.06"/>
<text text-anchor="middle" x="200.82" y="-338.36" font-family="Arial" font-size="14.00">mul</text>
</g>
<!-- 0&#45;&gt;2 -->
<g id="edge2" class="edge">
<title>0&#45;&gt;2</title>
<path fill="none" stroke="black" d="M200.82,-400.33C200.82,-392.93 200.82,-384.44 200.82,-376.33"/>
<polygon fill="black" stroke="black" points="204.32,-376.39 200.82,-366.39 197.32,-376.39 204.32,-376.39"/>
</g>
<!-- 5 -->
<g id="node6" class="node">
<title>5</title>
<ellipse fill="white" stroke="black" cx="306.82" cy="-342.56" rx="27" ry="22.06"/>
<text text-anchor="middle" x="306.82" y="-338.36" font-family="Arial" font-size="14.00">mul</text>
</g>
<!-- 0&#45;&gt;5 -->
<g id="edge5" class="edge">
<title>0&#45;&gt;5</title>
<path fill="none" stroke="black" d="M227.3,-402.17C242.78,-390.76 262.32,-376.35 278.17,-364.67"/>
<polygon fill="black" stroke="black" points="279.81,-367.81 285.79,-359.06 275.66,-362.17 279.81,-367.81"/>
</g>
<!-- 3 -->
<g id="node4" class="node">
<title>3</title>
<ellipse fill="white" stroke="black" cx="60.82" cy="-262.43" rx="60.82" ry="22.06"/>
<text text-anchor="middle" x="60.82" y="-258.23" font-family="Arial" font-size="14.00">elevation_u</text>
</g>
<!-- 2&#45;&gt;3 -->
<g id="edge3" class="edge">
<title>2&#45;&gt;3</title>
<path fill="none" stroke="black" d="M179.17,-328.76C174.46,-326.01 169.48,-323.14 164.82,-320.49 144.86,-309.18 122.59,-296.92 103.79,-286.66"/>
<polygon fill="black" stroke="black" points="105.52,-283.62 95.07,-281.92 102.18,-289.77 105.52,-283.62"/>
</g>
<!-- 4 -->
<g id="node5" class="node">
<title>4</title>
<ellipse fill="white" stroke="black" cx="200.82" cy="-262.43" rx="60.82" ry="22.06"/>
<text text-anchor="middle" x="200.82" y="-258.23" font-family="Arial" font-size="14.00">elevation_u</text>
</g>
<!-- 2&#45;&gt;4 -->
<g id="edge4" class="edge">
<title>2&#45;&gt;4</title>
<path fill="none" stroke="black" d="M200.82,-320.21C200.82,-312.8 200.82,-304.32 200.82,-296.2"/>
<polygon fill="black" stroke="black" points="204.32,-296.27 200.82,-286.27 197.32,-296.27 204.32,-296.27"/>
</g>
<!-- 6 -->
<g id="node7" class="node">
<title>6</title>
<ellipse fill="white" stroke="black" cx="306.82" cy="-262.43" rx="27" ry="22.06"/>
<text text-anchor="middle" x="306.82" y="-258.23" font-family="Arial" font-size="14.00">add</text>
</g>
<!-- 5&#45;&gt;6 -->
<g id="edge6" class="edge">
<title>5&#45;&gt;6</title>
<path fill="none" stroke="black" d="M306.82,-320.21C306.82,-312.8 306.82,-304.32 306.82,-296.2"/>
<polygon fill="black" stroke="black" points="310.32,-296.27 306.82,-286.27 303.32,-296.27 310.32,-296.27"/>
</g>
<!-- 14 -->
<g id="node15" class="node">
<title>14</title>
<ellipse fill="white" stroke="black" cx="412.82" cy="-262.43" rx="60.82" ry="22.06"/>
<text text-anchor="middle" x="412.82" y="-258.23" font-family="Arial" font-size="14.00">elevation_u</text>
</g>
<!-- 5&#45;&gt;14 -->
<g id="edge14" class="edge">
<title>5&#45;&gt;14</title>
<path fill="none" stroke="black" d="M326.26,-327.23C340.58,-316.67 360.46,-302.02 377.55,-289.42"/>
<polygon fill="black" stroke="black" points="379.52,-292.32 385.49,-283.57 375.37,-286.69 379.52,-292.32"/>
</g>
<!-- 7 -->
<g id="node8" class="node">
<title>7</title>
<ellipse fill="white" stroke="black" cx="261.82" cy="-182.31" rx="27" ry="22.06"/>
<text text-anchor="middle" x="261.82" y="-178.11" font-family="Arial" font-size="14.00">add</text>
</g>
<!-- 6&#45;&gt;7 -->
<g id="edge7" class="edge">
<title>6&#45;&gt;7</title>
<path fill="none" stroke="black" d="M295.7,-242.12C290.56,-233.2 284.35,-222.41 278.65,-212.53"/>
<polygon fill="black" stroke="black" points="281.75,-210.9 273.73,-203.98 275.69,-214.39 281.75,-210.9"/>
</g>
<!-- 12 -->
<g id="node13" class="node">
<title>12</title>
<ellipse fill="white" stroke="black" cx="350.82" cy="-182.31" rx="27" ry="22.06"/>
<text text-anchor="middle" x="350.82" y="-178.11" font-family="Arial" font-size="14.00">neg</text>
</g>
<!-- 6&#45;&gt;12 -->
<g id="edge12" class="edge">
<title>6&#45;&gt;12</title>
<path fill="none" stroke="black" d="M317.7,-242.12C322.68,-233.27 328.7,-222.58 334.24,-212.75"/>
<polygon fill="black" stroke="black" points="337.16,-214.69 339.02,-204.26 331.06,-211.25 337.16,-214.69"/>
</g>
<!-- 8 -->
<g id="node9" class="node">
<title>8</title>
<ellipse fill="white" stroke="black" cx="161.82" cy="-102.19" rx="55.31" ry="22.06"/>
<text text-anchor="middle" x="161.82" y="-97.99" font-family="Arial" font-size="14.00">steepness</text>
</g>
<!-- 7&#45;&gt;8 -->
<g id="edge8" class="edge">
<title>7&#45;&gt;8</title>
<path fill="none" stroke="black" d="M242.54,-166.25C229.16,-155.79 210.99,-141.6 195.28,-129.32"/>
<polygon fill="black" stroke="black" points="197.59,-126.69 187.56,-123.29 193.28,-132.21 197.59,-126.69"/>
</g>
<!-- 9 -->
<g id="node10" class="node">
<title>9</title>
<ellipse fill="white" stroke="black" cx="261.82" cy="-102.19" rx="27" ry="22.06"/>
<text text-anchor="middle" x="261.82" y="-97.99" font-family="Arial" font-size="14.00">mul</text>
</g>
<!-- 7&#45;&gt;9 -->
<g id="edge9" class="edge">
<title>7&#45;&gt;9</title>
<path fill="none" stroke="black" d="M261.82,-159.96C261.82,-152.55 261.82,-144.07 261.82,-135.96"/>
<polygon fill="black" stroke="black" points="265.32,-136.02 261.82,-126.02 258.32,-136.02 265.32,-136.02"/>
</g>
<!-- 10 -->
<g id="node11" class="node">
<title>10</title>
<ellipse fill="white" stroke="black" cx="198.82" cy="-22.06" rx="47.05" ry="22.06"/>
<text text-anchor="middle" x="198.82" y="-17.86" font-family="Arial" font-size="14.00">distance</text>
</g>
<!-- 9&#45;&gt;10 -->
<g id="edge10" class="edge">
<title>9&#45;&gt;10</title>
<path fill="none" stroke="black" d="M247.52,-83.46C240.06,-74.2 230.73,-62.63 222.24,-52.1"/>
<polygon fill="black" stroke="black" points="225.01,-49.96 216.01,-44.38 219.56,-54.36 225.01,-49.96"/>
</g>
<!-- 11 -->
<g id="node12" class="node">
<title>11</title>
<ellipse fill="white" stroke="black" cx="323.82" cy="-22.06" rx="60.26" ry="22.06"/>
<text text-anchor="middle" x="323.82" y="-17.86" font-family="Arial" font-size="14.00">elevation_v</text>
</g>
<!-- 9&#45;&gt;11 -->
<g id="edge11" class="edge">
<title>9&#45;&gt;11</title>
<path fill="none" stroke="black" d="M276.2,-83.07C283.45,-73.93 292.42,-62.63 300.61,-52.3"/>
<polygon fill="black" stroke="black" points="303.14,-54.76 306.61,-44.75 297.65,-50.41 303.14,-54.76"/>
</g>
<!-- 13 -->
<g id="node14" class="node">
<title>13</title>
<ellipse fill="white" stroke="black" cx="367.82" cy="-102.19" rx="60.82" ry="22.06"/>
<text text-anchor="middle" x="367.82" y="-97.99" font-family="Arial" font-size="14.00">elevation_u</text>
</g>
<!-- 12&#45;&gt;13 -->
<g id="edge13" class="edge">
<title>12&#45;&gt;13</title>
<path fill="none" stroke="black" d="M355.38,-160.37C357.04,-152.73 358.96,-143.9 360.79,-135.49"/>
<polygon fill="black" stroke="black" points="364.16,-136.45 362.87,-125.93 357.32,-134.96 364.16,-136.45"/>
</g>
</g>
</svg>
