<?xml version="1.0" encoding="UTF-8" standalone="no"?>
<!DOCTYPE svg PUBLIC "-//W3C//DTD SVG 1.1//EN"
 "http://www.w3.org/Graphics/SVG/1.1/DTD/svg11.dtd">
<!-- Generated by graphviz version 12.2.1 (0)
 -->
<!-- Title: G Pages: 1 -->
<svg width="552pt" height="566pt"
 viewBox="36.00 36.00 515.64 529.54" xmlns="http://www.w3.org/2000/svg" xmlns:xlink="http://www.w3.org/1999/xlink">
<g id="graph0" class="graph" transform="scale(1 1) rotate(0) translate(40 525.54)">
<title>G</title>
<polygon fill="white" stroke="none" points="-4,4 -4,-489.54 475.64,-489.54 475.64,4 -4,4"/>
<text text-anchor="middle" x="235.82" y="-468.94" font-family="Times New Roman,serif" font-size="14.00">(&#39;best_5tree_2000pop_15gen_15runs_res200_15subrun&#39;, &#39;&#39;)</text>
<!-- 0 -->
<g id="node1" class="node">
<title>0</title>
<ellipse fill="white" stroke="black" cx="199.82" cy="-422.68" rx="63.57" ry="22.06"/>
<text text-anchor="middle" x="199.82" y="-418.48" font-family="Arial" font-size="14.00">if_then_else</text>
</g>
<!-- 1 -->
<g id="node2" class="node">
<title>1</title>
<ellipse fill="white" stroke="black" cx="107.82" cy="-342.56" rx="47.04" ry="22.06"/>
<text text-anchor="middle" x="107.82" y="-338.36" font-family="Arial" font-size="14.00">is_water</text>
</g>
<!-- 0&#45;&gt;1 -->
<g id="edge1" class="edge">
<title>0&#45;&gt;1</title>
<path fill="none" stroke="black" d="M176.61,-401.97C165.13,-392.22 151.11,-380.32 138.74,-369.81"/>
<polygon fill="black" stroke="black" points="141.12,-367.24 131.23,-363.43 136.59,-372.58 141.12,-367.24"/>
</g>
<!-- 2 -->
<g id="node3" class="node">
<title>2</title>
<ellipse fill="white" stroke="black" cx="199.82" cy="-342.56" rx="27" ry="22.06"/>
<text text-anchor="middle" x="199.82" y="-338.36" font-family="Arial" font-size="14.00">mul</text>
</g>
<!-- 0&#45;&gt;2 -->
<g id="edge2" class="edge">
<title>0&#45;&gt;2</title>
<path fill="none" stroke="black" d="M199.82,-400.33C199.82,-392.93 199.82,-384.44 199.82,-376.33"/>
<polygon fill="black" stroke="black" points="203.32,-376.39 199.82,-366.39 196.32,-376.39 203.32,-376.39"/>
</g>
<!-- 5 -->
<g id="node6" class="node">
<title>5</title>
<ellipse fill="white" stroke="black" cx="304.82" cy="-342.56" rx="27" ry="22.06"/>
<text text-anchor="middle" x="304.82" y="-338.36" font-family="Arial" font-size="14.00">mul</text>
</g>
<!-- 0&#45;&gt;5 -->
<g id="edge5" class="edge">
<title>0&#45;&gt;5</title>
<path fill="none" stroke="black" d="M226.05,-402.17C241.24,-390.86 260.38,-376.62 276,-365"/>
<polygon fill="black" stroke="black" points="278.05,-367.84 283.98,-359.06 273.87,-362.22 278.05,-367.84"/>
</g>
<!-- 3 -->
<g id="node4" class="node">
<title>3</title>
<ellipse fill="white" stroke="black" cx="60.82" cy="-262.43" rx="60.82" ry="22.06"/>
<text text-anchor="middle" x="60.82" y="-258.23" font-family="Arial" font-size="14.00">elevation_u</text>
</g>
<!-- 2&#45;&gt;3 -->
<g id="edge3" class="edge">
<title>2&#45;&gt;3</title>
<path fill="none" stroke="black" d="M178.17,-328.78C173.45,-326.02 168.48,-323.15 163.82,-320.49 144.04,-309.23 121.97,-296.96 103.35,-286.7"/>
<polygon fill="black" stroke="black" points="105.18,-283.71 94.73,-281.96 101.8,-289.84 105.18,-283.71"/>
</g>
<!-- 4 -->
<g id="node5" class="node">
<title>4</title>
<ellipse fill="white" stroke="black" cx="199.82" cy="-262.43" rx="60.26" ry="22.06"/>
<text text-anchor="middle" x="199.82" y="-258.23" font-family="Arial" font-size="14.00">elevation_v</text>
</g>
<!-- 2&#45;&gt;4 -->
<g id="edge4" class="edge">
<title>2&#45;&gt;4</title>
<path fill="none" stroke="black" d="M199.82,-320.21C199.82,-312.8 199.82,-304.32 199.82,-296.2"/>
<polygon fill="black" stroke="black" points="203.32,-296.27 199.82,-286.27 196.32,-296.27 203.32,-296.27"/>
</g>
<!-- 6 -->
<g id="node7" class="node">
<title>6</title>
<ellipse fill="white" stroke="black" cx="304.82" cy="-262.43" rx="27" ry="22.06"/>
<text text-anchor="middle" x="304.82" y="-258.23" font-family="Arial" font-size="14.00">add</text>
</g>
<!-- 5&#45;&gt;6 -->
<g id="edge6" class="edge">
<title>5&#45;&gt;6</title>
<path fill="none" stroke="black" d="M304.82,-320.21C304.82,-312.8 304.82,-304.32 304.82,-296.2"/>
<polygon fill="black" stroke="black" points="308.32,-296.27 304.82,-286.27 301.32,-296.27 308.32,-296.27"/>
</g>
<!-- 14 -->
<g id="node15" class="node">
<title>14</title>
<ellipse fill="white" stroke="black" cx="410.82" cy="-262.43" rx="60.82" ry="22.06"/>
<text text-anchor="middle" x="410.82" y="-258.23" font-family="Arial" font-size="14.00">elevation_u</text>
</g>
<!-- 5&#45;&gt;14 -->
<g id="edge14" class="edge">
<title>5&#45;&gt;14</title>
<path fill="none" stroke="black" d="M324.26,-327.23C338.58,-316.67 358.46,-302.02 375.55,-289.42"/>
<polygon fill="black" stroke="black" points="377.52,-292.32 383.49,-283.57 373.37,-286.69 377.52,-292.32"/>
</g>
<!-- 7 -->
<g id="node8" class="node">
<title>7</title>
<ellipse fill="white" stroke="black" cx="259.82" cy="-182.31" rx="27" ry="22.06"/>
<text text-anchor="middle" x="259.82" y="-178.11" font-family="Arial" font-size="14.00">add</text>
</g>
<!-- 6&#45;&gt;7 -->
<g id="edge7" class="edge">
<title>6&#45;&gt;7</title>
<path fill="none" stroke="black" d="M293.7,-242.12C288.56,-233.2 282.35,-222.41 276.65,-212.53"/>
<polygon fill="black" stroke="black" points="279.75,-210.9 271.73,-203.98 273.69,-214.39 279.75,-210.9"/>
</g>
<!-- 12 -->
<g id="node13" class="node">
<title>12</title>
<ellipse fill="white" stroke="black" cx="348.82" cy="-182.31" rx="27" ry="22.06"/>
<text text-anchor="middle" x="348.82" y="-178.11" font-family="Arial" font-size="14.00">neg</text>
</g>
<!-- 6&#45;&gt;12 -->
<g id="edge12" class="edge">
<title>6&#45;&gt;12</title>
<path fill="none" stroke="black" d="M315.7,-242.12C320.68,-233.27 326.7,-222.58 332.24,-212.75"/>
<polygon fill="black" stroke="black" points="335.16,-214.69 337.02,-204.26 329.06,-211.25 335.16,-214.69"/>
</g>
<!-- 8 -->
<g id="node9" class="node">
<title>8</title>
<ellipse fill="white" stroke="black" cx="159.82" cy="-102.19" rx="55.31" ry="22.06"/>
<text text-anchor="middle" x="159.82" y="-97.99" font-family="Arial" font-size="14.00">steepness</text>
</g>
<!-- 7&#45;&gt;8 -->
<g id="edge8" class="edge">
<title>7&#45;&gt;8</title>
<path fill="none" stroke="black" d="M240.54,-166.25C227.16,-155.79 208.99,-141.6 193.28,-129.32"/>
<polygon fill="black" stroke="black" points="195.59,-126.69 185.56,-123.29 191.28,-132.21 195.59,-126.69"/>
</g>
<!-- 9 -->
<g id="node10" class="node">
<title>9</title>
<ellipse fill="white" stroke="black" cx="259.82" cy="-102.19" rx="27" ry="22.06"/>
<text text-anchor="middle" x="259.82" y="-97.99" font-family="Arial" font-size="14.00">mul</text>
</g>
<!-- 7&#45;&gt;9 -->
<g id="edge9" class="edge">
<title>7&#45;&gt;9</title>
<path fill="none" stroke="black" d="M259.82,-159.96C259.82,-152.55 259.82,-144.07 259.82,-135.96"/>
<polygon fill="black" stroke="black" points="263.32,-136.02 259.82,-126.02 256.32,-136.02 263.32,-136.02"/>
</g>
<!-- 10 -->
<g id="node11" class="node">
<title>10</title>
<ellipse fill="white" stroke="black" cx="196.82" cy="-22.06" rx="47.05" ry="22.06"/>
<text text-anchor="middle" x="196.82" y="-17.86" font-family="Arial" font-size="14.00">distance</text>
</g>
<!-- 9&#45;&gt;10 -->
<g id="edge10" class="edge">
<title>9&#45;&gt;10</title>
<path fill="none" stroke="black" d="M245.52,-83.46C238.06,-74.2 228.73,-62.63 220.24,-52.1"/>
<polygon fill="black" stroke="black" points="223.01,-49.96 214.01,-44.38 217.56,-54.36 223.01,-49.96"/>
</g>
<!-- 11 -->
<g id="node12" class="node">
<title>11</title>
<ellipse fill="white" stroke="black" cx="321.82" cy="-22.06" rx="60.26" ry="22.06"/>
<text text-anchor="middle" x="321.82" y="-17.86" font-family="Arial" font-size="14.00">elevation_v</text>
</g>
<!-- 9&#45;&gt;11 -->
<g id="edge11" class="edge">
<title>9&#45;&gt;11</title>
<path fill="none" stroke="black" d="M274.2,-83.07C281.45,-73.93 290.42,-62.63 298.61,-52.3"/>
<polygon fill="black" stroke="black" points="301.14,-54.76 304.61,-44.75 295.65,-50.41 301.14,-54.76"/>
</g>
<!-- 13 -->
<g id="node14" class="node">
<title>13</title>
<ellipse fill="white" stroke="black" cx="365.82" cy="-102.19" rx="60.82" ry="22.06"/>
<text text-anchor="middle" x="365.82" y="-97.99" font-family="Arial" font-size="14.00">elevation_u</text>
</g>
<!-- 12&#45;&gt;13 -->
<g id="edge13" class="edge">
<title>12&#45;&gt;13</title>
<path fill="none" stroke="black" d="M353.38,-160.37C355.04,-152.73 356.96,-143.9 358.79,-135.49"/>
<polygon fill="black" stroke="black" points="362.16,-136.45 360.87,-125.93 355.32,-134.96 362.16,-136.45"/>
</g>
</g>
</svg>
