<?xml version="1.0" encoding="UTF-8" standalone="no"?>
<!DOCTYPE svg PUBLIC "-//W3C//DTD SVG 1.1//EN"
 "http://www.w3.org/Graphics/SVG/1.1/DTD/svg11.dtd">
<!-- Generated by graphviz version 12.2.1 (0)
 -->
<!-- Title: G Pages: 1 -->
<svg width="602pt" height="485pt"
 viewBox="36.00 36.00 565.87 449.42" xmlns="http://www.w3.org/2000/svg" xmlns:xlink="http://www.w3.org/1999/xlink">
<g id="graph0" class="graph" transform="scale(1 1) rotate(0) translate(40 445.42)">
<title>G</title>
<polygon fill="white" stroke="none" points="-4,4 -4,-409.42 525.87,-409.42 525.87,4 -4,4"/>
<text text-anchor="middle" x="260.94" y="-388.82" font-family="Times New Roman,serif" font-size="14.00">(&#39;best_tree_2000pop_15gen_15runs_res200_1subrun&#39;, &#39;&#39;)</text>
<!-- 0 -->
<g id="node1" class="node">
<title>0</title>
<ellipse fill="white" stroke="black" cx="250.05" cy="-342.56" rx="63.57" ry="22.06"/>
<text text-anchor="middle" x="250.05" y="-338.36" font-family="Arial" font-size="14.00">if_then_else</text>
</g>
<!-- 1 -->
<g id="node2" class="node">
<title>1</title>
<ellipse fill="white" stroke="black" cx="158.05" cy="-262.43" rx="47.04" ry="22.06"/>
<text text-anchor="middle" x="158.05" y="-258.23" font-family="Arial" font-size="14.00">is_water</text>
</g>
<!-- 0&#45;&gt;1 -->
<g id="edge1" class="edge">
<title>0&#45;&gt;1</title>
<path fill="none" stroke="black" d="M226.84,-321.84C215.36,-312.09 201.35,-300.19 188.97,-289.69"/>
<polygon fill="black" stroke="black" points="191.35,-287.12 181.46,-283.31 186.82,-292.45 191.35,-287.12"/>
</g>
<!-- 2 -->
<g id="node3" class="node">
<title>2</title>
<ellipse fill="white" stroke="black" cx="250.05" cy="-262.43" rx="27" ry="22.06"/>
<text text-anchor="middle" x="250.05" y="-258.23" font-family="Arial" font-size="14.00">mul</text>
</g>
<!-- 0&#45;&gt;2 -->
<g id="edge2" class="edge">
<title>0&#45;&gt;2</title>
<path fill="none" stroke="black" d="M250.05,-320.21C250.05,-312.8 250.05,-304.32 250.05,-296.2"/>
<polygon fill="black" stroke="black" points="253.55,-296.27 250.05,-286.27 246.55,-296.27 253.55,-296.27"/>
</g>
<!-- 7 -->
<g id="node8" class="node">
<title>7</title>
<ellipse fill="white" stroke="black" cx="355.05" cy="-262.43" rx="27" ry="22.06"/>
<text text-anchor="middle" x="355.05" y="-258.23" font-family="Arial" font-size="14.00">mul</text>
</g>
<!-- 0&#45;&gt;7 -->
<g id="edge7" class="edge">
<title>0&#45;&gt;7</title>
<path fill="none" stroke="black" d="M276.28,-322.04C291.47,-310.74 310.62,-296.5 326.23,-284.88"/>
<polygon fill="black" stroke="black" points="328.28,-287.72 334.21,-278.94 324.1,-282.1 328.28,-287.72"/>
</g>
<!-- 3 -->
<g id="node4" class="node">
<title>3</title>
<ellipse fill="white" stroke="black" cx="145.05" cy="-182.31" rx="27" ry="22.06"/>
<text text-anchor="middle" x="145.05" y="-178.11" font-family="Arial" font-size="14.00">mul</text>
</g>
<!-- 2&#45;&gt;3 -->
<g id="edge3" class="edge">
<title>2&#45;&gt;3</title>
<path fill="none" stroke="black" d="M230.3,-246.74C214.32,-234.84 191.59,-217.93 173.62,-204.56"/>
<polygon fill="black" stroke="black" points="176.04,-202 165.93,-198.84 171.86,-207.62 176.04,-202"/>
</g>
<!-- 6 -->
<g id="node7" class="node">
<title>6</title>
<ellipse fill="white" stroke="black" cx="250.05" cy="-182.31" rx="60.26" ry="22.06"/>
<text text-anchor="middle" x="250.05" y="-178.11" font-family="Arial" font-size="14.00">elevation_v</text>
</g>
<!-- 2&#45;&gt;6 -->
<g id="edge6" class="edge">
<title>2&#45;&gt;6</title>
<path fill="none" stroke="black" d="M250.05,-240.08C250.05,-232.68 250.05,-224.19 250.05,-216.08"/>
<polygon fill="black" stroke="black" points="253.55,-216.14 250.05,-206.14 246.55,-216.14 253.55,-216.14"/>
</g>
<!-- 4 -->
<g id="node5" class="node">
<title>4</title>
<ellipse fill="white" stroke="black" cx="47.05" cy="-102.19" rx="47.05" ry="22.06"/>
<text text-anchor="middle" x="47.05" y="-97.99" font-family="Arial" font-size="14.00">distance</text>
</g>
<!-- 3&#45;&gt;4 -->
<g id="edge4" class="edge">
<title>3&#45;&gt;4</title>
<path fill="none" stroke="black" d="M126.16,-166.25C112.86,-155.65 94.73,-141.19 79.19,-128.8"/>
<polygon fill="black" stroke="black" points="81.57,-126.23 71.57,-122.73 77.21,-131.7 81.57,-126.23"/>
</g>
<!-- 5 -->
<g id="node6" class="node">
<title>5</title>
<ellipse fill="white" stroke="black" cx="172.05" cy="-102.19" rx="60.26" ry="22.06"/>
<text text-anchor="middle" x="172.05" y="-97.99" font-family="Arial" font-size="14.00">elevation_v</text>
</g>
<!-- 3&#45;&gt;5 -->
<g id="edge5" class="edge">
<title>3&#45;&gt;5</title>
<path fill="none" stroke="black" d="M152.15,-160.78C154.87,-152.9 158.05,-143.71 161.06,-135.01"/>
<polygon fill="black" stroke="black" points="164.27,-136.42 164.23,-125.82 157.66,-134.13 164.27,-136.42"/>
</g>
<!-- 8 -->
<g id="node9" class="node">
<title>8</title>
<ellipse fill="white" stroke="black" cx="355.05" cy="-182.31" rx="27" ry="22.06"/>
<text text-anchor="middle" x="355.05" y="-178.11" font-family="Arial" font-size="14.00">add</text>
</g>
<!-- 7&#45;&gt;8 -->
<g id="edge8" class="edge">
<title>7&#45;&gt;8</title>
<path fill="none" stroke="black" d="M355.05,-240.08C355.05,-232.68 355.05,-224.19 355.05,-216.08"/>
<polygon fill="black" stroke="black" points="358.55,-216.14 355.05,-206.14 351.55,-216.14 358.55,-216.14"/>
</g>
<!-- 14 -->
<g id="node15" class="node">
<title>14</title>
<ellipse fill="white" stroke="black" cx="461.05" cy="-182.31" rx="60.82" ry="22.06"/>
<text text-anchor="middle" x="461.05" y="-178.11" font-family="Arial" font-size="14.00">elevation_u</text>
</g>
<!-- 7&#45;&gt;14 -->
<g id="edge14" class="edge">
<title>7&#45;&gt;14</title>
<path fill="none" stroke="black" d="M374.5,-247.1C388.82,-236.55 408.69,-221.9 425.79,-209.3"/>
<polygon fill="black" stroke="black" points="427.75,-212.2 433.73,-203.45 423.6,-206.56 427.75,-212.2"/>
</g>
<!-- 9 -->
<g id="node10" class="node">
<title>9</title>
<ellipse fill="white" stroke="black" cx="329.05" cy="-102.19" rx="27" ry="22.06"/>
<text text-anchor="middle" x="329.05" y="-97.99" font-family="Arial" font-size="14.00">add</text>
</g>
<!-- 8&#45;&gt;9 -->
<g id="edge9" class="edge">
<title>8&#45;&gt;9</title>
<path fill="none" stroke="black" d="M348.22,-160.78C345.56,-152.77 342.44,-143.41 339.5,-134.59"/>
<polygon fill="black" stroke="black" points="342.89,-133.66 336.41,-125.28 336.24,-135.88 342.89,-133.66"/>
</g>
<!-- 12 -->
<g id="node13" class="node">
<title>12</title>
<ellipse fill="white" stroke="black" cx="428.05" cy="-102.19" rx="27" ry="22.06"/>
<text text-anchor="middle" x="428.05" y="-97.99" font-family="Arial" font-size="14.00">neg</text>
</g>
<!-- 8&#45;&gt;12 -->
<g id="edge12" class="edge">
<title>8&#45;&gt;12</title>
<path fill="none" stroke="black" d="M370.89,-164.36C380.68,-153.88 393.42,-140.25 404.39,-128.51"/>
<polygon fill="black" stroke="black" points="406.69,-131.18 410.96,-121.48 401.57,-126.4 406.69,-131.18"/>
</g>
<!-- 10 -->
<g id="node11" class="node">
<title>10</title>
<ellipse fill="white" stroke="black" cx="209.05" cy="-22.06" rx="55.31" ry="22.06"/>
<text text-anchor="middle" x="209.05" y="-17.86" font-family="Arial" font-size="14.00">steepness</text>
</g>
<!-- 9&#45;&gt;10 -->
<g id="edge10" class="edge">
<title>9&#45;&gt;10</title>
<path fill="none" stroke="black" d="M308.15,-87.58C291.3,-76.61 267.16,-60.89 246.93,-47.72"/>
<polygon fill="black" stroke="black" points="248.92,-44.84 238.63,-42.32 245.1,-50.7 248.92,-44.84"/>
</g>
<!-- 11 -->
<g id="node12" class="node">
<title>11</title>
<ellipse fill="white" stroke="black" cx="329.05" cy="-22.06" rx="47.05" ry="22.06"/>
<text text-anchor="middle" x="329.05" y="-17.86" font-family="Arial" font-size="14.00">distance</text>
</g>
<!-- 9&#45;&gt;11 -->
<g id="edge11" class="edge">
<title>9&#45;&gt;11</title>
<path fill="none" stroke="black" d="M329.05,-79.84C329.05,-72.43 329.05,-63.95 329.05,-55.83"/>
<polygon fill="black" stroke="black" points="332.55,-55.9 329.05,-45.9 325.55,-55.9 332.55,-55.9"/>
</g>
<!-- 13 -->
<g id="node14" class="node">
<title>13</title>
<ellipse fill="white" stroke="black" cx="455.05" cy="-22.06" rx="60.82" ry="22.06"/>
<text text-anchor="middle" x="455.05" y="-17.86" font-family="Arial" font-size="14.00">elevation_u</text>
</g>
<!-- 12&#45;&gt;13 -->
<g id="edge13" class="edge">
<title>12&#45;&gt;13</title>
<path fill="none" stroke="black" d="M435.15,-80.66C437.87,-72.78 441.05,-63.58 444.06,-54.88"/>
<polygon fill="black" stroke="black" points="447.27,-56.29 447.23,-45.7 440.66,-54.01 447.27,-56.29"/>
</g>
</g>
</svg>
