<?xml version="1.0" encoding="UTF-8" standalone="no"?>
<!DOCTYPE svg PUBLIC "-//W3C//DTD SVG 1.1//EN"
 "http://www.w3.org/Graphics/SVG/1.1/DTD/svg11.dtd">
<!-- Generated by graphviz version 12.2.1 (0)
 -->
<!-- Title: G Pages: 1 -->
<svg width="551pt" height="566pt"
 viewBox="36.00 36.00 515.09 529.54" xmlns="http://www.w3.org/2000/svg" xmlns:xlink="http://www.w3.org/1999/xlink">
<g id="graph0" class="graph" transform="scale(1 1) rotate(0) translate(40 525.54)">
<title>G</title>
<polygon fill="white" stroke="none" points="-4,4 -4,-489.54 475.09,-489.54 475.09,4 -4,4"/>
<text text-anchor="middle" x="235.54" y="-468.94" font-family="Times New Roman,serif" font-size="14.00">(&#39;best_2tree_2000pop_15gen_15runs_res200_15subrun&#39;, &#39;&#39;)</text>
<!-- 0 -->
<g id="node1" class="node">
<title>0</title>
<ellipse fill="white" stroke="black" cx="199.26" cy="-422.68" rx="63.57" ry="22.06"/>
<text text-anchor="middle" x="199.26" y="-418.48" font-family="Arial" font-size="14.00">if_then_else</text>
</g>
<!-- 1 -->
<g id="node2" class="node">
<title>1</title>
<ellipse fill="white" stroke="black" cx="107.26" cy="-342.56" rx="47.04" ry="22.06"/>
<text text-anchor="middle" x="107.26" y="-338.36" font-family="Arial" font-size="14.00">is_water</text>
</g>
<!-- 0&#45;&gt;1 -->
<g id="edge1" class="edge">
<title>0&#45;&gt;1</title>
<path fill="none" stroke="black" d="M176.05,-401.97C164.57,-392.22 150.56,-380.32 138.18,-369.81"/>
<polygon fill="black" stroke="black" points="140.56,-367.24 130.67,-363.43 136.03,-372.58 140.56,-367.24"/>
</g>
<!-- 2 -->
<g id="node3" class="node">
<title>2</title>
<ellipse fill="white" stroke="black" cx="199.26" cy="-342.56" rx="27" ry="22.06"/>
<text text-anchor="middle" x="199.26" y="-338.36" font-family="Arial" font-size="14.00">mul</text>
</g>
<!-- 0&#45;&gt;2 -->
<g id="edge2" class="edge">
<title>0&#45;&gt;2</title>
<path fill="none" stroke="black" d="M199.26,-400.33C199.26,-392.93 199.26,-384.44 199.26,-376.33"/>
<polygon fill="black" stroke="black" points="202.76,-376.39 199.26,-366.39 195.76,-376.39 202.76,-376.39"/>
</g>
<!-- 5 -->
<g id="node6" class="node">
<title>5</title>
<ellipse fill="white" stroke="black" cx="304.26" cy="-342.56" rx="27" ry="22.06"/>
<text text-anchor="middle" x="304.26" y="-338.36" font-family="Arial" font-size="14.00">mul</text>
</g>
<!-- 0&#45;&gt;5 -->
<g id="edge5" class="edge">
<title>0&#45;&gt;5</title>
<path fill="none" stroke="black" d="M225.49,-402.17C240.68,-390.86 259.83,-376.62 275.44,-365"/>
<polygon fill="black" stroke="black" points="277.49,-367.84 283.42,-359.06 273.31,-362.22 277.49,-367.84"/>
</g>
<!-- 3 -->
<g id="node4" class="node">
<title>3</title>
<ellipse fill="white" stroke="black" cx="60.26" cy="-262.43" rx="60.26" ry="22.06"/>
<text text-anchor="middle" x="60.26" y="-258.23" font-family="Arial" font-size="14.00">elevation_v</text>
</g>
<!-- 2&#45;&gt;3 -->
<g id="edge3" class="edge">
<title>2&#45;&gt;3</title>
<path fill="none" stroke="black" d="M177.61,-328.78C172.89,-326.02 167.92,-323.15 163.26,-320.49 143.48,-309.23 121.41,-296.96 102.8,-286.7"/>
<polygon fill="black" stroke="black" points="104.62,-283.71 94.17,-281.96 101.25,-289.84 104.62,-283.71"/>
</g>
<!-- 4 -->
<g id="node5" class="node">
<title>4</title>
<ellipse fill="white" stroke="black" cx="199.26" cy="-262.43" rx="60.26" ry="22.06"/>
<text text-anchor="middle" x="199.26" y="-258.23" font-family="Arial" font-size="14.00">elevation_v</text>
</g>
<!-- 2&#45;&gt;4 -->
<g id="edge4" class="edge">
<title>2&#45;&gt;4</title>
<path fill="none" stroke="black" d="M199.26,-320.21C199.26,-312.8 199.26,-304.32 199.26,-296.2"/>
<polygon fill="black" stroke="black" points="202.76,-296.27 199.26,-286.27 195.76,-296.27 202.76,-296.27"/>
</g>
<!-- 6 -->
<g id="node7" class="node">
<title>6</title>
<ellipse fill="white" stroke="black" cx="304.26" cy="-262.43" rx="27" ry="22.06"/>
<text text-anchor="middle" x="304.26" y="-258.23" font-family="Arial" font-size="14.00">add</text>
</g>
<!-- 5&#45;&gt;6 -->
<g id="edge6" class="edge">
<title>5&#45;&gt;6</title>
<path fill="none" stroke="black" d="M304.26,-320.21C304.26,-312.8 304.26,-304.32 304.26,-296.2"/>
<polygon fill="black" stroke="black" points="307.76,-296.27 304.26,-286.27 300.76,-296.27 307.76,-296.27"/>
</g>
<!-- 14 -->
<g id="node15" class="node">
<title>14</title>
<ellipse fill="white" stroke="black" cx="410.26" cy="-262.43" rx="60.82" ry="22.06"/>
<text text-anchor="middle" x="410.26" y="-258.23" font-family="Arial" font-size="14.00">elevation_u</text>
</g>
<!-- 5&#45;&gt;14 -->
<g id="edge14" class="edge">
<title>5&#45;&gt;14</title>
<path fill="none" stroke="black" d="M323.71,-327.23C338.03,-316.67 357.9,-302.02 375,-289.42"/>
<polygon fill="black" stroke="black" points="376.96,-292.32 382.94,-283.57 372.81,-286.69 376.96,-292.32"/>
</g>
<!-- 7 -->
<g id="node8" class="node">
<title>7</title>
<ellipse fill="white" stroke="black" cx="259.26" cy="-182.31" rx="27" ry="22.06"/>
<text text-anchor="middle" x="259.26" y="-178.11" font-family="Arial" font-size="14.00">add</text>
</g>
<!-- 6&#45;&gt;7 -->
<g id="edge7" class="edge">
<title>6&#45;&gt;7</title>
<path fill="none" stroke="black" d="M293.14,-242.12C288,-233.2 281.79,-222.41 276.1,-212.53"/>
<polygon fill="black" stroke="black" points="279.2,-210.9 271.17,-203.98 273.13,-214.39 279.2,-210.9"/>
</g>
<!-- 12 -->
<g id="node13" class="node">
<title>12</title>
<ellipse fill="white" stroke="black" cx="348.26" cy="-182.31" rx="27" ry="22.06"/>
<text text-anchor="middle" x="348.26" y="-178.11" font-family="Arial" font-size="14.00">neg</text>
</g>
<!-- 6&#45;&gt;12 -->
<g id="edge12" class="edge">
<title>6&#45;&gt;12</title>
<path fill="none" stroke="black" d="M315.14,-242.12C320.13,-233.27 326.15,-222.58 331.68,-212.75"/>
<polygon fill="black" stroke="black" points="334.61,-214.69 336.47,-204.26 328.51,-211.25 334.61,-214.69"/>
</g>
<!-- 8 -->
<g id="node9" class="node">
<title>8</title>
<ellipse fill="white" stroke="black" cx="159.26" cy="-102.19" rx="55.31" ry="22.06"/>
<text text-anchor="middle" x="159.26" y="-97.99" font-family="Arial" font-size="14.00">steepness</text>
</g>
<!-- 7&#45;&gt;8 -->
<g id="edge8" class="edge">
<title>7&#45;&gt;8</title>
<path fill="none" stroke="black" d="M239.98,-166.25C226.6,-155.79 208.43,-141.6 192.72,-129.32"/>
<polygon fill="black" stroke="black" points="195.04,-126.69 185,-123.29 190.73,-132.21 195.04,-126.69"/>
</g>
<!-- 9 -->
<g id="node10" class="node">
<title>9</title>
<ellipse fill="white" stroke="black" cx="259.26" cy="-102.19" rx="27" ry="22.06"/>
<text text-anchor="middle" x="259.26" y="-97.99" font-family="Arial" font-size="14.00">mul</text>
</g>
<!-- 7&#45;&gt;9 -->
<g id="edge9" class="edge">
<title>7&#45;&gt;9</title>
<path fill="none" stroke="black" d="M259.26,-159.96C259.26,-152.55 259.26,-144.07 259.26,-135.96"/>
<polygon fill="black" stroke="black" points="262.76,-136.02 259.26,-126.02 255.76,-136.02 262.76,-136.02"/>
</g>
<!-- 10 -->
<g id="node11" class="node">
<title>10</title>
<ellipse fill="white" stroke="black" cx="196.26" cy="-22.06" rx="47.05" ry="22.06"/>
<text text-anchor="middle" x="196.26" y="-17.86" font-family="Arial" font-size="14.00">distance</text>
</g>
<!-- 9&#45;&gt;10 -->
<g id="edge10" class="edge">
<title>9&#45;&gt;10</title>
<path fill="none" stroke="black" d="M244.97,-83.46C237.5,-74.2 228.17,-62.63 219.68,-52.1"/>
<polygon fill="black" stroke="black" points="222.45,-49.96 213.45,-44.38 217.01,-54.36 222.45,-49.96"/>
</g>
<!-- 11 -->
<g id="node12" class="node">
<title>11</title>
<ellipse fill="white" stroke="black" cx="321.26" cy="-22.06" rx="60.26" ry="22.06"/>
<text text-anchor="middle" x="321.26" y="-17.86" font-family="Arial" font-size="14.00">elevation_v</text>
</g>
<!-- 9&#45;&gt;11 -->
<g id="edge11" class="edge">
<title>9&#45;&gt;11</title>
<path fill="none" stroke="black" d="M273.64,-83.07C280.89,-73.93 289.86,-62.63 298.06,-52.3"/>
<polygon fill="black" stroke="black" points="300.58,-54.76 304.05,-44.75 295.1,-50.41 300.58,-54.76"/>
</g>
<!-- 13 -->
<g id="node14" class="node">
<title>13</title>
<ellipse fill="white" stroke="black" cx="365.26" cy="-102.19" rx="60.82" ry="22.06"/>
<text text-anchor="middle" x="365.26" y="-97.99" font-family="Arial" font-size="14.00">elevation_u</text>
</g>
<!-- 12&#45;&gt;13 -->
<g id="edge13" class="edge">
<title>12&#45;&gt;13</title>
<path fill="none" stroke="black" d="M352.82,-160.37C354.48,-152.73 356.41,-143.9 358.23,-135.49"/>
<polygon fill="black" stroke="black" points="361.61,-136.45 360.32,-125.93 354.77,-134.96 361.61,-136.45"/>
</g>
</g>
</svg>
