<?xml version="1.0" encoding="UTF-8" standalone="no"?>
<!DOCTYPE svg PUBLIC "-//W3C//DTD SVG 1.1//EN"
 "http://www.w3.org/Graphics/SVG/1.1/DTD/svg11.dtd">
<!-- Generated by graphviz version 12.2.1 (0)
 -->
<!-- Title: G Pages: 1 -->
<svg width="498pt" height="566pt"
 viewBox="36.00 36.00 461.87 529.54" xmlns="http://www.w3.org/2000/svg" xmlns:xlink="http://www.w3.org/1999/xlink">
<g id="graph0" class="graph" transform="scale(1 1) rotate(0) translate(40 525.54)">
<title>G</title>
<polygon fill="white" stroke="none" points="-4,4 -4,-489.54 421.87,-489.54 421.87,4 -4,4"/>
<text text-anchor="middle" x="208.94" y="-468.94" font-family="Times New Roman,serif" font-size="14.00">(&#39;best_3tree_2000pop_15gen_15runs_res200_15subrun&#39;, &#39;&#39;)</text>
<!-- 0 -->
<g id="node1" class="node">
<title>0</title>
<ellipse fill="white" stroke="black" cx="159.05" cy="-422.68" rx="63.57" ry="22.06"/>
<text text-anchor="middle" x="159.05" y="-418.48" font-family="Arial" font-size="14.00">if_then_else</text>
</g>
<!-- 1 -->
<g id="node2" class="node">
<title>1</title>
<ellipse fill="white" stroke="black" cx="67.05" cy="-342.56" rx="47.04" ry="22.06"/>
<text text-anchor="middle" x="67.05" y="-338.36" font-family="Arial" font-size="14.00">is_water</text>
</g>
<!-- 0&#45;&gt;1 -->
<g id="edge1" class="edge">
<title>0&#45;&gt;1</title>
<path fill="none" stroke="black" d="M135.84,-401.97C124.36,-392.22 110.35,-380.32 97.97,-369.81"/>
<polygon fill="black" stroke="black" points="100.35,-367.24 90.46,-363.43 95.82,-372.58 100.35,-367.24"/>
</g>
<!-- 2 -->
<g id="node3" class="node">
<title>2</title>
<ellipse fill="white" stroke="black" cx="159.05" cy="-342.56" rx="27" ry="22.06"/>
<text text-anchor="middle" x="159.05" y="-338.36" font-family="Arial" font-size="14.00">mul</text>
</g>
<!-- 0&#45;&gt;2 -->
<g id="edge2" class="edge">
<title>0&#45;&gt;2</title>
<path fill="none" stroke="black" d="M159.05,-400.33C159.05,-392.93 159.05,-384.44 159.05,-376.33"/>
<polygon fill="black" stroke="black" points="162.55,-376.39 159.05,-366.39 155.55,-376.39 162.55,-376.39"/>
</g>
<!-- 5 -->
<g id="node6" class="node">
<title>5</title>
<ellipse fill="white" stroke="black" cx="251.05" cy="-342.56" rx="27" ry="22.06"/>
<text text-anchor="middle" x="251.05" y="-338.36" font-family="Arial" font-size="14.00">mul</text>
</g>
<!-- 0&#45;&gt;5 -->
<g id="edge5" class="edge">
<title>0&#45;&gt;5</title>
<path fill="none" stroke="black" d="M182.27,-401.97C194.99,-391.17 210.81,-377.73 224.07,-366.47"/>
<polygon fill="black" stroke="black" points="226.26,-369.2 231.62,-360.06 221.73,-363.86 226.26,-369.2"/>
</g>
<!-- 3 -->
<g id="node4" class="node">
<title>3</title>
<ellipse fill="white" stroke="black" cx="47.05" cy="-262.43" rx="47.05" ry="22.06"/>
<text text-anchor="middle" x="47.05" y="-258.23" font-family="Arial" font-size="14.00">distance</text>
</g>
<!-- 2&#45;&gt;3 -->
<g id="edge3" class="edge">
<title>2&#45;&gt;3</title>
<path fill="none" stroke="black" d="M138.77,-327.41C122.99,-316.4 100.71,-300.86 82.06,-287.85"/>
<polygon fill="black" stroke="black" points="84.14,-285.04 73.94,-282.19 80.14,-290.78 84.14,-285.04"/>
</g>
<!-- 4 -->
<g id="node5" class="node">
<title>4</title>
<ellipse fill="white" stroke="black" cx="159.05" cy="-262.43" rx="47.05" ry="22.06"/>
<text text-anchor="middle" x="159.05" y="-258.23" font-family="Arial" font-size="14.00">distance</text>
</g>
<!-- 2&#45;&gt;4 -->
<g id="edge4" class="edge">
<title>2&#45;&gt;4</title>
<path fill="none" stroke="black" d="M159.05,-320.21C159.05,-312.8 159.05,-304.32 159.05,-296.2"/>
<polygon fill="black" stroke="black" points="162.55,-296.27 159.05,-286.27 155.55,-296.27 162.55,-296.27"/>
</g>
<!-- 6 -->
<g id="node7" class="node">
<title>6</title>
<ellipse fill="white" stroke="black" cx="251.05" cy="-262.43" rx="27" ry="22.06"/>
<text text-anchor="middle" x="251.05" y="-258.23" font-family="Arial" font-size="14.00">add</text>
</g>
<!-- 5&#45;&gt;6 -->
<g id="edge6" class="edge">
<title>5&#45;&gt;6</title>
<path fill="none" stroke="black" d="M251.05,-320.21C251.05,-312.8 251.05,-304.32 251.05,-296.2"/>
<polygon fill="black" stroke="black" points="254.55,-296.27 251.05,-286.27 247.55,-296.27 254.55,-296.27"/>
</g>
<!-- 14 -->
<g id="node15" class="node">
<title>14</title>
<ellipse fill="white" stroke="black" cx="357.05" cy="-262.43" rx="60.82" ry="22.06"/>
<text text-anchor="middle" x="357.05" y="-258.23" font-family="Arial" font-size="14.00">elevation_u</text>
</g>
<!-- 5&#45;&gt;14 -->
<g id="edge14" class="edge">
<title>5&#45;&gt;14</title>
<path fill="none" stroke="black" d="M270.5,-327.23C284.82,-316.67 304.69,-302.02 321.79,-289.42"/>
<polygon fill="black" stroke="black" points="323.75,-292.32 329.73,-283.57 319.6,-286.69 323.75,-292.32"/>
</g>
<!-- 7 -->
<g id="node8" class="node">
<title>7</title>
<ellipse fill="white" stroke="black" cx="206.05" cy="-182.31" rx="27" ry="22.06"/>
<text text-anchor="middle" x="206.05" y="-178.11" font-family="Arial" font-size="14.00">add</text>
</g>
<!-- 6&#45;&gt;7 -->
<g id="edge7" class="edge">
<title>6&#45;&gt;7</title>
<path fill="none" stroke="black" d="M239.93,-242.12C234.79,-233.2 228.58,-222.41 222.89,-212.53"/>
<polygon fill="black" stroke="black" points="225.99,-210.9 217.96,-203.98 219.92,-214.39 225.99,-210.9"/>
</g>
<!-- 12 -->
<g id="node13" class="node">
<title>12</title>
<ellipse fill="white" stroke="black" cx="295.05" cy="-182.31" rx="27" ry="22.06"/>
<text text-anchor="middle" x="295.05" y="-178.11" font-family="Arial" font-size="14.00">neg</text>
</g>
<!-- 6&#45;&gt;12 -->
<g id="edge12" class="edge">
<title>6&#45;&gt;12</title>
<path fill="none" stroke="black" d="M261.93,-242.12C266.92,-233.27 272.94,-222.58 278.47,-212.75"/>
<polygon fill="black" stroke="black" points="281.4,-214.69 283.25,-204.26 275.3,-211.25 281.4,-214.69"/>
</g>
<!-- 8 -->
<g id="node9" class="node">
<title>8</title>
<ellipse fill="white" stroke="black" cx="106.05" cy="-102.19" rx="55.31" ry="22.06"/>
<text text-anchor="middle" x="106.05" y="-97.99" font-family="Arial" font-size="14.00">steepness</text>
</g>
<!-- 7&#45;&gt;8 -->
<g id="edge8" class="edge">
<title>7&#45;&gt;8</title>
<path fill="none" stroke="black" d="M186.77,-166.25C173.39,-155.79 155.22,-141.6 139.51,-129.32"/>
<polygon fill="black" stroke="black" points="141.82,-126.69 131.79,-123.29 137.52,-132.21 141.82,-126.69"/>
</g>
<!-- 9 -->
<g id="node10" class="node">
<title>9</title>
<ellipse fill="white" stroke="black" cx="206.05" cy="-102.19" rx="27" ry="22.06"/>
<text text-anchor="middle" x="206.05" y="-97.99" font-family="Arial" font-size="14.00">mul</text>
</g>
<!-- 7&#45;&gt;9 -->
<g id="edge9" class="edge">
<title>7&#45;&gt;9</title>
<path fill="none" stroke="black" d="M206.05,-159.96C206.05,-152.55 206.05,-144.07 206.05,-135.96"/>
<polygon fill="black" stroke="black" points="209.55,-136.02 206.05,-126.02 202.55,-136.02 209.55,-136.02"/>
</g>
<!-- 10 -->
<g id="node11" class="node">
<title>10</title>
<ellipse fill="white" stroke="black" cx="143.05" cy="-22.06" rx="47.05" ry="22.06"/>
<text text-anchor="middle" x="143.05" y="-17.86" font-family="Arial" font-size="14.00">distance</text>
</g>
<!-- 9&#45;&gt;10 -->
<g id="edge10" class="edge">
<title>9&#45;&gt;10</title>
<path fill="none" stroke="black" d="M191.76,-83.46C184.29,-74.2 174.96,-62.63 166.47,-52.1"/>
<polygon fill="black" stroke="black" points="169.24,-49.96 160.24,-44.38 163.8,-54.36 169.24,-49.96"/>
</g>
<!-- 11 -->
<g id="node12" class="node">
<title>11</title>
<ellipse fill="white" stroke="black" cx="268.05" cy="-22.06" rx="60.26" ry="22.06"/>
<text text-anchor="middle" x="268.05" y="-17.86" font-family="Arial" font-size="14.00">elevation_v</text>
</g>
<!-- 9&#45;&gt;11 -->
<g id="edge11" class="edge">
<title>9&#45;&gt;11</title>
<path fill="none" stroke="black" d="M220.43,-83.07C227.68,-73.93 236.65,-62.63 244.85,-52.3"/>
<polygon fill="black" stroke="black" points="247.37,-54.76 250.84,-44.75 241.89,-50.41 247.37,-54.76"/>
</g>
<!-- 13 -->
<g id="node14" class="node">
<title>13</title>
<ellipse fill="white" stroke="black" cx="312.05" cy="-102.19" rx="60.82" ry="22.06"/>
<text text-anchor="middle" x="312.05" y="-97.99" font-family="Arial" font-size="14.00">elevation_u</text>
</g>
<!-- 12&#45;&gt;13 -->
<g id="edge13" class="edge">
<title>12&#45;&gt;13</title>
<path fill="none" stroke="black" d="M299.61,-160.37C301.27,-152.73 303.2,-143.9 305.02,-135.49"/>
<polygon fill="black" stroke="black" points="308.4,-136.45 307.1,-125.93 301.56,-134.96 308.4,-136.45"/>
</g>
</g>
</svg>
