<?xml version="1.0" encoding="UTF-8" standalone="no"?>
<!DOCTYPE svg PUBLIC "-//W3C//DTD SVG 1.1//EN"
 "http://www.w3.org/Graphics/SVG/1.1/DTD/svg11.dtd">
<!-- Generated by graphviz version 12.2.1 (0)
 -->
<!-- Title: G Pages: 1 -->
<svg width="657pt" height="566pt"
 viewBox="36.00 36.00 621.22 529.54" xmlns="http://www.w3.org/2000/svg" xmlns:xlink="http://www.w3.org/1999/xlink">
<g id="graph0" class="graph" transform="scale(1 1) rotate(0) translate(40 525.54)">
<title>G</title>
<polygon fill="white" stroke="none" points="-4,4 -4,-489.54 581.22,-489.54 581.22,4 -4,4"/>
<text text-anchor="middle" x="288.61" y="-468.94" font-family="Times New Roman,serif" font-size="14.00">(&#39;best_tree_2000pop_15gen_25runs_res200_2subrun&#39;, &#39;&#39;)</text>
<!-- 0 -->
<g id="node1" class="node">
<title>0</title>
<ellipse fill="white" stroke="black" cx="211.96" cy="-422.68" rx="27" ry="22.06"/>
<text text-anchor="middle" x="211.96" y="-418.48" font-family="Arial" font-size="14.00">add</text>
</g>
<!-- 1 -->
<g id="node2" class="node">
<title>1</title>
<ellipse fill="white" stroke="black" cx="148.96" cy="-342.56" rx="27" ry="22.06"/>
<text text-anchor="middle" x="148.96" y="-338.36" font-family="Arial" font-size="14.00">add</text>
</g>
<!-- 0&#45;&gt;1 -->
<g id="edge1" class="edge">
<title>0&#45;&gt;1</title>
<path fill="none" stroke="black" d="M197.66,-403.95C189.66,-394.03 179.53,-381.47 170.58,-370.37"/>
<polygon fill="black" stroke="black" points="173.36,-368.25 164.36,-362.66 167.92,-372.64 173.36,-368.25"/>
</g>
<!-- 4 -->
<g id="node5" class="node">
<title>4</title>
<ellipse fill="white" stroke="black" cx="320.96" cy="-342.56" rx="63.57" ry="22.06"/>
<text text-anchor="middle" x="320.96" y="-338.36" font-family="Arial" font-size="14.00">if_then_else</text>
</g>
<!-- 0&#45;&gt;4 -->
<g id="edge4" class="edge">
<title>0&#45;&gt;4</title>
<path fill="none" stroke="black" d="M231.95,-407.35C246.81,-396.7 267.49,-381.87 285.18,-369.2"/>
<polygon fill="black" stroke="black" points="286.79,-372.35 292.88,-363.68 282.71,-366.66 286.79,-372.35"/>
</g>
<!-- 2 -->
<g id="node3" class="node">
<title>2</title>
<ellipse fill="white" stroke="black" cx="34.96" cy="-262.43" rx="34.96" ry="22.06"/>
<text text-anchor="middle" x="34.96" y="-258.23" font-family="Arial" font-size="14.00">1.587</text>
</g>
<!-- 1&#45;&gt;2 -->
<g id="edge2" class="edge">
<title>1&#45;&gt;2</title>
<path fill="none" stroke="black" d="M128.57,-327.59C111.51,-315.9 86.86,-299 67.14,-285.48"/>
<polygon fill="black" stroke="black" points="69.38,-282.78 59.15,-280.01 65.42,-288.55 69.38,-282.78"/>
</g>
<!-- 3 -->
<g id="node4" class="node">
<title>3</title>
<ellipse fill="white" stroke="black" cx="148.96" cy="-262.43" rx="60.82" ry="22.06"/>
<text text-anchor="middle" x="148.96" y="-258.23" font-family="Arial" font-size="14.00">elevation_u</text>
</g>
<!-- 1&#45;&gt;3 -->
<g id="edge3" class="edge">
<title>1&#45;&gt;3</title>
<path fill="none" stroke="black" d="M148.96,-320.21C148.96,-312.8 148.96,-304.32 148.96,-296.2"/>
<polygon fill="black" stroke="black" points="152.46,-296.27 148.96,-286.27 145.46,-296.27 152.46,-296.27"/>
</g>
<!-- 5 -->
<g id="node6" class="node">
<title>5</title>
<ellipse fill="white" stroke="black" cx="274.96" cy="-262.43" rx="47.04" ry="22.06"/>
<text text-anchor="middle" x="274.96" y="-258.23" font-family="Arial" font-size="14.00">is_water</text>
</g>
<!-- 4&#45;&gt;5 -->
<g id="edge5" class="edge">
<title>4&#45;&gt;5</title>
<path fill="none" stroke="black" d="M308.63,-320.62C303.79,-312.41 298.15,-302.83 292.88,-293.88"/>
<polygon fill="black" stroke="black" points="296.01,-292.3 287.92,-285.46 289.98,-295.85 296.01,-292.3"/>
</g>
<!-- 6 -->
<g id="node7" class="node">
<title>6</title>
<ellipse fill="white" stroke="black" cx="366.96" cy="-262.43" rx="27" ry="22.06"/>
<text text-anchor="middle" x="366.96" y="-258.23" font-family="Arial" font-size="14.00">mul</text>
</g>
<!-- 4&#45;&gt;6 -->
<g id="edge6" class="edge">
<title>4&#45;&gt;6</title>
<path fill="none" stroke="black" d="M333.28,-320.62C338.36,-311.99 344.34,-301.84 349.83,-292.51"/>
<polygon fill="black" stroke="black" points="352.72,-294.51 354.77,-284.12 346.68,-290.96 352.72,-294.51"/>
</g>
<!-- 13 -->
<g id="node14" class="node">
<title>13</title>
<ellipse fill="white" stroke="black" cx="446.96" cy="-262.43" rx="34.96" ry="22.06"/>
<text text-anchor="middle" x="446.96" y="-258.23" font-family="Arial" font-size="14.00">1.446</text>
</g>
<!-- 4&#45;&gt;13 -->
<g id="edge13" class="edge">
<title>4&#45;&gt;13</title>
<path fill="none" stroke="black" d="M351.14,-322.84C369.73,-311.31 393.63,-296.5 412.9,-284.55"/>
<polygon fill="black" stroke="black" points="414.57,-287.63 421.22,-279.39 410.88,-281.68 414.57,-287.63"/>
</g>
<!-- 7 -->
<g id="node8" class="node">
<title>7</title>
<ellipse fill="white" stroke="black" cx="320.96" cy="-182.31" rx="47.05" ry="22.06"/>
<text text-anchor="middle" x="320.96" y="-178.11" font-family="Arial" font-size="14.00">distance</text>
</g>
<!-- 6&#45;&gt;7 -->
<g id="edge7" class="edge">
<title>6&#45;&gt;7</title>
<path fill="none" stroke="black" d="M355.58,-242.12C350.58,-233.63 344.59,-223.44 339,-213.95"/>
<polygon fill="black" stroke="black" points="342.02,-212.18 333.93,-205.34 335.99,-215.74 342.02,-212.18"/>
</g>
<!-- 8 -->
<g id="node9" class="node">
<title>8</title>
<ellipse fill="white" stroke="black" cx="412.96" cy="-182.31" rx="27" ry="22.06"/>
<text text-anchor="middle" x="412.96" y="-178.11" font-family="Arial" font-size="14.00">add</text>
</g>
<!-- 6&#45;&gt;8 -->
<g id="edge8" class="edge">
<title>6&#45;&gt;8</title>
<path fill="none" stroke="black" d="M378.33,-242.12C383.58,-233.2 389.93,-222.41 395.75,-212.53"/>
<polygon fill="black" stroke="black" points="398.73,-214.37 400.79,-203.97 392.7,-210.81 398.73,-214.37"/>
</g>
<!-- 9 -->
<g id="node10" class="node">
<title>9</title>
<ellipse fill="white" stroke="black" cx="362.96" cy="-102.19" rx="55.31" ry="22.06"/>
<text text-anchor="middle" x="362.96" y="-97.99" font-family="Arial" font-size="14.00">steepness</text>
</g>
<!-- 8&#45;&gt;9 -->
<g id="edge9" class="edge">
<title>8&#45;&gt;9</title>
<path fill="none" stroke="black" d="M400.85,-162.4C395.26,-153.66 388.48,-143.07 382.21,-133.27"/>
<polygon fill="black" stroke="black" points="385.33,-131.65 376.99,-125.12 379.43,-135.43 385.33,-131.65"/>
</g>
<!-- 10 -->
<g id="node11" class="node">
<title>10</title>
<ellipse fill="white" stroke="black" cx="462.96" cy="-102.19" rx="27" ry="22.06"/>
<text text-anchor="middle" x="462.96" y="-97.99" font-family="Arial" font-size="14.00">add</text>
</g>
<!-- 8&#45;&gt;10 -->
<g id="edge10" class="edge">
<title>8&#45;&gt;10</title>
<path fill="none" stroke="black" d="M425.06,-162.4C430.97,-153.16 438.21,-141.85 444.77,-131.59"/>
<polygon fill="black" stroke="black" points="447.53,-133.78 449.97,-123.47 441.64,-130 447.53,-133.78"/>
</g>
<!-- 11 -->
<g id="node12" class="node">
<title>11</title>
<ellipse fill="white" stroke="black" cx="408.96" cy="-22.06" rx="29.45" ry="22.06"/>
<text text-anchor="middle" x="408.96" y="-17.86" font-family="Arial" font-size="14.00">1.12</text>
</g>
<!-- 10&#45;&gt;11 -->
<g id="edge11" class="edge">
<title>10&#45;&gt;11</title>
<path fill="none" stroke="black" d="M450.16,-82.67C443.71,-73.34 435.75,-61.83 428.56,-51.42"/>
<polygon fill="black" stroke="black" points="431.65,-49.74 423.09,-43.5 425.89,-53.72 431.65,-49.74"/>
</g>
<!-- 12 -->
<g id="node13" class="node">
<title>12</title>
<ellipse fill="white" stroke="black" cx="516.96" cy="-22.06" rx="60.26" ry="22.06"/>
<text text-anchor="middle" x="516.96" y="-17.86" font-family="Arial" font-size="14.00">elevation_v</text>
</g>
<!-- 10&#45;&gt;12 -->
<g id="edge12" class="edge">
<title>10&#45;&gt;12</title>
<path fill="none" stroke="black" d="M475.75,-82.67C481.85,-73.85 489.3,-63.07 496.18,-53.12"/>
<polygon fill="black" stroke="black" points="498.87,-55.38 501.68,-45.17 493.11,-51.4 498.87,-55.38"/>
</g>
</g>
</svg>
