<?xml version="1.0" encoding="UTF-8" standalone="no"?>
<!DOCTYPE svg PUBLIC "-//W3C//DTD SVG 1.1//EN"
 "http://www.w3.org/Graphics/SVG/1.1/DTD/svg11.dtd">
<!-- Generated by graphviz version 12.2.1 (0)
 -->
<!-- Title: G Pages: 1 -->
<svg width="606pt" height="566pt"
 viewBox="36.00 36.00 569.53 529.54" xmlns="http://www.w3.org/2000/svg" xmlns:xlink="http://www.w3.org/1999/xlink">
<g id="graph0" class="graph" transform="scale(1 1) rotate(0) translate(40 525.54)">
<title>G</title>
<polygon fill="white" stroke="none" points="-4,4 -4,-489.54 529.53,-489.54 529.53,4 -4,4"/>
<text text-anchor="middle" x="262.76" y="-468.94" font-family="Times New Roman,serif" font-size="14.00">(&#39;best_tree_2000pop_15gen_25runs_res200_5subrun&#39;, &#39;&#39;)</text>
<!-- 0 -->
<g id="node1" class="node">
<title>0</title>
<ellipse fill="white" stroke="black" cx="128.26" cy="-422.68" rx="27" ry="22.06"/>
<text text-anchor="middle" x="128.26" y="-418.48" font-family="Arial" font-size="14.00">add</text>
</g>
<!-- 1 -->
<g id="node2" class="node">
<title>1</title>
<ellipse fill="white" stroke="black" cx="70.26" cy="-342.56" rx="34.96" ry="22.06"/>
<text text-anchor="middle" x="70.26" y="-338.36" font-family="Arial" font-size="14.00">8.203</text>
</g>
<!-- 0&#45;&gt;1 -->
<g id="edge1" class="edge">
<title>0&#45;&gt;1</title>
<path fill="none" stroke="black" d="M114.52,-403.16C107.64,-393.91 99.17,-382.5 91.49,-372.14"/>
<polygon fill="black" stroke="black" points="94.39,-370.19 85.62,-364.24 88.77,-374.36 94.39,-370.19"/>
</g>
<!-- 2 -->
<g id="node3" class="node">
<title>2</title>
<ellipse fill="white" stroke="black" cx="187.26" cy="-342.56" rx="63.57" ry="22.06"/>
<text text-anchor="middle" x="187.26" y="-338.36" font-family="Arial" font-size="14.00">if_then_else</text>
</g>
<!-- 0&#45;&gt;2 -->
<g id="edge2" class="edge">
<title>0&#45;&gt;2</title>
<path fill="none" stroke="black" d="M141.95,-403.56C148.72,-394.59 157.08,-383.52 164.76,-373.35"/>
<polygon fill="black" stroke="black" points="167.42,-375.63 170.65,-365.55 161.83,-371.42 167.42,-375.63"/>
</g>
<!-- 3 -->
<g id="node4" class="node">
<title>3</title>
<ellipse fill="white" stroke="black" cx="71.26" cy="-262.43" rx="71.26" ry="22.06"/>
<text text-anchor="middle" x="71.26" y="-258.23" font-family="Arial" font-size="14.00">identity_water</text>
</g>
<!-- 2&#45;&gt;3 -->
<g id="edge3" class="edge">
<title>2&#45;&gt;3</title>
<path fill="none" stroke="black" d="M158.88,-322.44C143.97,-312.4 125.48,-299.95 109.34,-289.08"/>
<polygon fill="black" stroke="black" points="111.66,-286.42 101.41,-283.73 107.75,-292.22 111.66,-286.42"/>
</g>
<!-- 5 -->
<g id="node6" class="node">
<title>5</title>
<ellipse fill="white" stroke="black" cx="187.26" cy="-262.43" rx="27" ry="22.06"/>
<text text-anchor="middle" x="187.26" y="-258.23" font-family="Arial" font-size="14.00">mul</text>
</g>
<!-- 2&#45;&gt;5 -->
<g id="edge5" class="edge">
<title>2&#45;&gt;5</title>
<path fill="none" stroke="black" d="M187.26,-320.21C187.26,-312.8 187.26,-304.32 187.26,-296.2"/>
<polygon fill="black" stroke="black" points="190.76,-296.27 187.26,-286.27 183.76,-296.27 190.76,-296.27"/>
</g>
<!-- 14 -->
<g id="node15" class="node">
<title>14</title>
<ellipse fill="white" stroke="black" cx="267.26" cy="-262.43" rx="34.96" ry="22.06"/>
<text text-anchor="middle" x="267.26" y="-258.23" font-family="Arial" font-size="14.00">9.892</text>
</g>
<!-- 2&#45;&gt;14 -->
<g id="edge14" class="edge">
<title>2&#45;&gt;14</title>
<path fill="none" stroke="black" d="M207.86,-321.44C217.8,-311.73 229.84,-299.97 240.48,-289.58"/>
<polygon fill="black" stroke="black" points="242.85,-292.16 247.56,-282.67 237.96,-287.15 242.85,-292.16"/>
</g>
<!-- 4 -->
<g id="node5" class="node">
<title>4</title>
<ellipse fill="white" stroke="black" cx="71.26" cy="-182.31" rx="47.04" ry="22.06"/>
<text text-anchor="middle" x="71.26" y="-178.11" font-family="Arial" font-size="14.00">is_water</text>
</g>
<!-- 3&#45;&gt;4 -->
<g id="edge4" class="edge">
<title>3&#45;&gt;4</title>
<path fill="none" stroke="black" d="M71.26,-240.08C71.26,-232.68 71.26,-224.19 71.26,-216.08"/>
<polygon fill="black" stroke="black" points="74.76,-216.14 71.26,-206.14 67.76,-216.14 74.76,-216.14"/>
</g>
<!-- 6 -->
<g id="node7" class="node">
<title>6</title>
<ellipse fill="white" stroke="black" cx="175.26" cy="-182.31" rx="27" ry="22.06"/>
<text text-anchor="middle" x="175.26" y="-178.11" font-family="Arial" font-size="14.00">add</text>
</g>
<!-- 5&#45;&gt;6 -->
<g id="edge6" class="edge">
<title>5&#45;&gt;6</title>
<path fill="none" stroke="black" d="M183.98,-240.08C182.83,-232.59 181.51,-224 180.25,-215.8"/>
<polygon fill="black" stroke="black" points="183.74,-215.48 178.77,-206.13 176.83,-216.54 183.74,-215.48"/>
</g>
<!-- 9 -->
<g id="node10" class="node">
<title>9</title>
<ellipse fill="white" stroke="black" cx="309.26" cy="-182.31" rx="27" ry="22.06"/>
<text text-anchor="middle" x="309.26" y="-178.11" font-family="Arial" font-size="14.00">add</text>
</g>
<!-- 5&#45;&gt;9 -->
<g id="edge9" class="edge">
<title>5&#45;&gt;9</title>
<path fill="none" stroke="black" d="M208.23,-248C227.73,-235.52 256.99,-216.78 279.02,-202.68"/>
<polygon fill="black" stroke="black" points="280.75,-205.72 287.29,-197.38 276.98,-199.82 280.75,-205.72"/>
</g>
<!-- 7 -->
<g id="node8" class="node">
<title>7</title>
<ellipse fill="white" stroke="black" cx="49.26" cy="-102.19" rx="47.05" ry="22.06"/>
<text text-anchor="middle" x="49.26" y="-97.99" font-family="Arial" font-size="14.00">distance</text>
</g>
<!-- 6&#45;&gt;7 -->
<g id="edge7" class="edge">
<title>6&#45;&gt;7</title>
<path fill="none" stroke="black" d="M154.17,-168.23C135.82,-156.86 108.8,-140.1 86.77,-126.44"/>
<polygon fill="black" stroke="black" points="88.68,-123.51 78.34,-121.21 84.99,-129.46 88.68,-123.51"/>
</g>
<!-- 8 -->
<g id="node9" class="node">
<title>8</title>
<ellipse fill="white" stroke="black" cx="175.26" cy="-102.19" rx="60.82" ry="22.06"/>
<text text-anchor="middle" x="175.26" y="-97.99" font-family="Arial" font-size="14.00">elevation_u</text>
</g>
<!-- 6&#45;&gt;8 -->
<g id="edge8" class="edge">
<title>6&#45;&gt;8</title>
<path fill="none" stroke="black" d="M175.26,-159.96C175.26,-152.55 175.26,-144.07 175.26,-135.96"/>
<polygon fill="black" stroke="black" points="178.76,-136.02 175.26,-126.02 171.76,-136.02 178.76,-136.02"/>
</g>
<!-- 10 -->
<g id="node11" class="node">
<title>10</title>
<ellipse fill="white" stroke="black" cx="309.26" cy="-102.19" rx="55.31" ry="22.06"/>
<text text-anchor="middle" x="309.26" y="-97.99" font-family="Arial" font-size="14.00">steepness</text>
</g>
<!-- 9&#45;&gt;10 -->
<g id="edge10" class="edge">
<title>9&#45;&gt;10</title>
<path fill="none" stroke="black" d="M309.26,-159.96C309.26,-152.55 309.26,-144.07 309.26,-135.96"/>
<polygon fill="black" stroke="black" points="312.76,-136.02 309.26,-126.02 305.76,-136.02 312.76,-136.02"/>
</g>
<!-- 11 -->
<g id="node12" class="node">
<title>11</title>
<ellipse fill="white" stroke="black" cx="409.26" cy="-102.19" rx="27" ry="22.06"/>
<text text-anchor="middle" x="409.26" y="-97.99" font-family="Arial" font-size="14.00">add</text>
</g>
<!-- 9&#45;&gt;11 -->
<g id="edge11" class="edge">
<title>9&#45;&gt;11</title>
<path fill="none" stroke="black" d="M328.54,-166.25C343.48,-154.57 364.4,-138.23 381.2,-125.11"/>
<polygon fill="black" stroke="black" points="383.12,-128.05 388.85,-119.13 378.81,-122.53 383.12,-128.05"/>
</g>
<!-- 12 -->
<g id="node13" class="node">
<title>12</title>
<ellipse fill="white" stroke="black" cx="352.26" cy="-22.06" rx="34.96" ry="22.06"/>
<text text-anchor="middle" x="352.26" y="-17.86" font-family="Arial" font-size="14.00">3.966</text>
</g>
<!-- 11&#45;&gt;12 -->
<g id="edge12" class="edge">
<title>11&#45;&gt;12</title>
<path fill="none" stroke="black" d="M395.75,-82.67C389,-73.41 380.67,-62 373.12,-51.65"/>
<polygon fill="black" stroke="black" points="376.08,-49.77 367.36,-43.76 370.43,-53.9 376.08,-49.77"/>
</g>
<!-- 13 -->
<g id="node14" class="node">
<title>13</title>
<ellipse fill="white" stroke="black" cx="465.26" cy="-22.06" rx="60.26" ry="22.06"/>
<text text-anchor="middle" x="465.26" y="-17.86" font-family="Arial" font-size="14.00">elevation_v</text>
</g>
<!-- 11&#45;&gt;13 -->
<g id="edge13" class="edge">
<title>11&#45;&gt;13</title>
<path fill="none" stroke="black" d="M422.53,-82.67C428.86,-73.85 436.58,-63.07 443.72,-53.12"/>
<polygon fill="black" stroke="black" points="446.45,-55.32 449.43,-45.15 440.76,-51.24 446.45,-55.32"/>
</g>
</g>
</svg>
