<?xml version="1.0" encoding="UTF-8" standalone="no"?>
<!DOCTYPE svg PUBLIC "-//W3C//DTD SVG 1.1//EN"
 "http://www.w3.org/Graphics/SVG/1.1/DTD/svg11.dtd">
<!-- Generated by graphviz version 12.2.1 (0)
 -->
<!-- Title: G Pages: 1 -->
<svg width="662pt" height="566pt"
 viewBox="36.00 36.00 626.09 529.54" xmlns="http://www.w3.org/2000/svg" xmlns:xlink="http://www.w3.org/1999/xlink">
<g id="graph0" class="graph" transform="scale(1 1) rotate(0) translate(40 525.54)">
<title>G</title>
<polygon fill="white" stroke="none" points="-4,4 -4,-489.54 586.09,-489.54 586.09,4 -4,4"/>
<text text-anchor="middle" x="291.04" y="-468.94" font-family="Times New Roman,serif" font-size="14.00">(&#39;best_3tree_2000pop_15gen_25runs_res200_25subrun&#39;, &#39;&#39;)</text>
<!-- 0 -->
<g id="node1" class="node">
<title>0</title>
<ellipse fill="white" stroke="black" cx="126.26" cy="-422.68" rx="27" ry="22.06"/>
<text text-anchor="middle" x="126.26" y="-418.48" font-family="Arial" font-size="14.00">add</text>
</g>
<!-- 1 -->
<g id="node2" class="node">
<title>1</title>
<ellipse fill="white" stroke="black" cx="68.26" cy="-342.56" rx="34.96" ry="22.06"/>
<text text-anchor="middle" x="68.26" y="-338.36" font-family="Arial" font-size="14.00">9.325</text>
</g>
<!-- 0&#45;&gt;1 -->
<g id="edge1" class="edge">
<title>0&#45;&gt;1</title>
<path fill="none" stroke="black" d="M112.52,-403.16C105.65,-393.91 97.17,-382.5 89.49,-372.14"/>
<polygon fill="black" stroke="black" points="92.39,-370.19 83.62,-364.24 86.77,-374.36 92.39,-370.19"/>
</g>
<!-- 2 -->
<g id="node3" class="node">
<title>2</title>
<ellipse fill="white" stroke="black" cx="185.26" cy="-342.56" rx="63.57" ry="22.06"/>
<text text-anchor="middle" x="185.26" y="-338.36" font-family="Arial" font-size="14.00">if_then_else</text>
</g>
<!-- 0&#45;&gt;2 -->
<g id="edge2" class="edge">
<title>0&#45;&gt;2</title>
<path fill="none" stroke="black" d="M139.95,-403.56C146.73,-394.59 155.08,-383.52 162.77,-373.35"/>
<polygon fill="black" stroke="black" points="165.42,-375.63 168.66,-365.55 159.84,-371.42 165.42,-375.63"/>
</g>
<!-- 3 -->
<g id="node4" class="node">
<title>3</title>
<ellipse fill="white" stroke="black" cx="93.26" cy="-262.43" rx="47.04" ry="22.06"/>
<text text-anchor="middle" x="93.26" y="-258.23" font-family="Arial" font-size="14.00">is_water</text>
</g>
<!-- 2&#45;&gt;3 -->
<g id="edge3" class="edge">
<title>2&#45;&gt;3</title>
<path fill="none" stroke="black" d="M162.05,-321.84C150.57,-312.09 136.56,-300.19 124.18,-289.69"/>
<polygon fill="black" stroke="black" points="126.56,-287.12 116.67,-283.31 122.03,-292.45 126.56,-287.12"/>
</g>
<!-- 4 -->
<g id="node5" class="node">
<title>4</title>
<ellipse fill="white" stroke="black" cx="185.26" cy="-262.43" rx="27" ry="22.06"/>
<text text-anchor="middle" x="185.26" y="-258.23" font-family="Arial" font-size="14.00">add</text>
</g>
<!-- 2&#45;&gt;4 -->
<g id="edge4" class="edge">
<title>2&#45;&gt;4</title>
<path fill="none" stroke="black" d="M185.26,-320.21C185.26,-312.8 185.26,-304.32 185.26,-296.2"/>
<polygon fill="black" stroke="black" points="188.76,-296.27 185.26,-286.27 181.76,-296.27 188.76,-296.27"/>
</g>
<!-- 7 -->
<g id="node8" class="node">
<title>7</title>
<ellipse fill="white" stroke="black" cx="305.26" cy="-262.43" rx="27" ry="22.06"/>
<text text-anchor="middle" x="305.26" y="-258.23" font-family="Arial" font-size="14.00">mul</text>
</g>
<!-- 2&#45;&gt;7 -->
<g id="edge7" class="edge">
<title>2&#45;&gt;7</title>
<path fill="none" stroke="black" d="M214.31,-322.64C232.66,-310.7 256.32,-295.3 274.91,-283.2"/>
<polygon fill="black" stroke="black" points="276.64,-286.24 283.11,-277.85 272.82,-280.38 276.64,-286.24"/>
</g>
<!-- 5 -->
<g id="node6" class="node">
<title>5</title>
<ellipse fill="white" stroke="black" cx="60.26" cy="-182.31" rx="60.26" ry="22.06"/>
<text text-anchor="middle" x="60.26" y="-178.11" font-family="Arial" font-size="14.00">elevation_v</text>
</g>
<!-- 4&#45;&gt;5 -->
<g id="edge5" class="edge">
<title>4&#45;&gt;5</title>
<path fill="none" stroke="black" d="M164.06,-248.18C146.5,-237.21 121.07,-221.31 99.78,-208"/>
<polygon fill="black" stroke="black" points="101.64,-205.04 91.31,-202.71 97.93,-210.98 101.64,-205.04"/>
</g>
<!-- 6 -->
<g id="node7" class="node">
<title>6</title>
<ellipse fill="white" stroke="black" cx="185.26" cy="-182.31" rx="47.05" ry="22.06"/>
<text text-anchor="middle" x="185.26" y="-178.11" font-family="Arial" font-size="14.00">distance</text>
</g>
<!-- 4&#45;&gt;6 -->
<g id="edge6" class="edge">
<title>4&#45;&gt;6</title>
<path fill="none" stroke="black" d="M185.26,-240.08C185.26,-232.68 185.26,-224.19 185.26,-216.08"/>
<polygon fill="black" stroke="black" points="188.76,-216.14 185.26,-206.14 181.76,-216.14 188.76,-216.14"/>
</g>
<!-- 8 -->
<g id="node9" class="node">
<title>8</title>
<ellipse fill="white" stroke="black" cx="305.26" cy="-182.31" rx="55.31" ry="22.06"/>
<text text-anchor="middle" x="305.26" y="-178.11" font-family="Arial" font-size="14.00">steepness</text>
</g>
<!-- 7&#45;&gt;8 -->
<g id="edge8" class="edge">
<title>7&#45;&gt;8</title>
<path fill="none" stroke="black" d="M305.26,-240.08C305.26,-232.68 305.26,-224.19 305.26,-216.08"/>
<polygon fill="black" stroke="black" points="308.76,-216.14 305.26,-206.14 301.76,-216.14 308.76,-216.14"/>
</g>
<!-- 9 -->
<g id="node10" class="node">
<title>9</title>
<ellipse fill="white" stroke="black" cx="405.26" cy="-182.31" rx="27" ry="22.06"/>
<text text-anchor="middle" x="405.26" y="-178.11" font-family="Arial" font-size="14.00">mul</text>
</g>
<!-- 7&#45;&gt;9 -->
<g id="edge9" class="edge">
<title>7&#45;&gt;9</title>
<path fill="none" stroke="black" d="M324.55,-246.37C339.49,-234.7 360.4,-218.36 377.2,-205.23"/>
<polygon fill="black" stroke="black" points="379.12,-208.17 384.85,-199.26 374.82,-202.66 379.12,-208.17"/>
</g>
<!-- 10 -->
<g id="node11" class="node">
<title>10</title>
<ellipse fill="white" stroke="black" cx="359.26" cy="-102.19" rx="47.05" ry="22.06"/>
<text text-anchor="middle" x="359.26" y="-97.99" font-family="Arial" font-size="14.00">distance</text>
</g>
<!-- 9&#45;&gt;10 -->
<g id="edge10" class="edge">
<title>9&#45;&gt;10</title>
<path fill="none" stroke="black" d="M393.89,-162C388.89,-153.5 382.89,-143.32 377.31,-133.83"/>
<polygon fill="black" stroke="black" points="380.33,-132.06 372.24,-125.22 374.3,-135.61 380.33,-132.06"/>
</g>
<!-- 11 -->
<g id="node12" class="node">
<title>11</title>
<ellipse fill="white" stroke="black" cx="451.26" cy="-102.19" rx="27" ry="22.06"/>
<text text-anchor="middle" x="451.26" y="-97.99" font-family="Arial" font-size="14.00">mul</text>
</g>
<!-- 9&#45;&gt;11 -->
<g id="edge11" class="edge">
<title>9&#45;&gt;11</title>
<path fill="none" stroke="black" d="M416.64,-162C421.89,-153.08 428.24,-142.29 434.06,-132.41"/>
<polygon fill="black" stroke="black" points="437.04,-134.24 439.1,-123.85 431.01,-130.69 437.04,-134.24"/>
</g>
<!-- 12 -->
<g id="node13" class="node">
<title>12</title>
<ellipse fill="white" stroke="black" cx="381.26" cy="-22.06" rx="60.82" ry="22.06"/>
<text text-anchor="middle" x="381.26" y="-17.86" font-family="Arial" font-size="14.00">elevation_u</text>
</g>
<!-- 11&#45;&gt;12 -->
<g id="edge12" class="edge">
<title>11&#45;&gt;12</title>
<path fill="none" stroke="black" d="M435.73,-83.85C427.28,-74.41 416.6,-62.5 406.94,-51.72"/>
<polygon fill="black" stroke="black" points="409.77,-49.63 400.49,-44.52 404.56,-54.3 409.77,-49.63"/>
</g>
<!-- 13 -->
<g id="node14" class="node">
<title>13</title>
<ellipse fill="white" stroke="black" cx="521.26" cy="-22.06" rx="60.82" ry="22.06"/>
<text text-anchor="middle" x="521.26" y="-17.86" font-family="Arial" font-size="14.00">elevation_u</text>
</g>
<!-- 11&#45;&gt;13 -->
<g id="edge13" class="edge">
<title>11&#45;&gt;13</title>
<path fill="none" stroke="black" d="M466.8,-83.85C475.25,-74.41 485.93,-62.5 495.58,-51.72"/>
<polygon fill="black" stroke="black" points="497.97,-54.3 502.04,-44.52 492.76,-49.63 497.97,-54.3"/>
</g>
</g>
</svg>
