<?xml version="1.0" encoding="UTF-8" standalone="no"?>
<!DOCTYPE svg PUBLIC "-//W3C//DTD SVG 1.1//EN"
 "http://www.w3.org/Graphics/SVG/1.1/DTD/svg11.dtd">
<!-- Generated by graphviz version 12.2.1 (0)
 -->
<!-- Title: G Pages: 1 -->
<svg width="775pt" height="566pt"
 viewBox="36.00 36.00 739.32 529.54" xmlns="http://www.w3.org/2000/svg" xmlns:xlink="http://www.w3.org/1999/xlink">
<g id="graph0" class="graph" transform="scale(1 1) rotate(0) translate(40 525.54)">
<title>G</title>
<polygon fill="white" stroke="none" points="-4,4 -4,-489.54 699.32,-489.54 699.32,4 -4,4"/>
<text text-anchor="middle" x="347.66" y="-468.94" font-family="Times New Roman,serif" font-size="14.00">(&#39;best_tree_2000pop_15gen_25runs_res200_1subrun&#39;, &#39;&#39;)</text>
<!-- 0 -->
<g id="node1" class="node">
<title>0</title>
<ellipse fill="white" stroke="black" cx="248.05" cy="-422.68" rx="27" ry="22.06"/>
<text text-anchor="middle" x="248.05" y="-418.48" font-family="Arial" font-size="14.00">add</text>
</g>
<!-- 1 -->
<g id="node2" class="node">
<title>1</title>
<ellipse fill="white" stroke="black" cx="173.05" cy="-342.56" rx="27" ry="22.06"/>
<text text-anchor="middle" x="173.05" y="-338.36" font-family="Arial" font-size="14.00">add</text>
</g>
<!-- 0&#45;&gt;1 -->
<g id="edge1" class="edge">
<title>0&#45;&gt;1</title>
<path fill="none" stroke="black" d="M231.78,-404.73C221.66,-394.18 208.46,-380.43 197.14,-368.64"/>
<polygon fill="black" stroke="black" points="199.79,-366.36 190.34,-361.57 194.74,-371.2 199.79,-366.36"/>
</g>
<!-- 4 -->
<g id="node5" class="node">
<title>4</title>
<ellipse fill="white" stroke="black" cx="381.05" cy="-342.56" rx="63.57" ry="22.06"/>
<text text-anchor="middle" x="381.05" y="-338.36" font-family="Arial" font-size="14.00">if_then_else</text>
</g>
<!-- 0&#45;&gt;4 -->
<g id="edge4" class="edge">
<title>0&#45;&gt;4</title>
<path fill="none" stroke="black" d="M269.72,-408.95C288.57,-397.88 316.42,-381.52 339.55,-367.94"/>
<polygon fill="black" stroke="black" points="341.3,-370.96 348.15,-362.88 337.76,-364.93 341.3,-370.96"/>
</g>
<!-- 2 -->
<g id="node3" class="node">
<title>2</title>
<ellipse fill="white" stroke="black" cx="47.05" cy="-262.43" rx="47.05" ry="22.06"/>
<text text-anchor="middle" x="47.05" y="-258.23" font-family="Arial" font-size="14.00">distance</text>
</g>
<!-- 1&#45;&gt;2 -->
<g id="edge2" class="edge">
<title>1&#45;&gt;2</title>
<path fill="none" stroke="black" d="M151.96,-328.48C133.62,-317.1 106.59,-300.35 84.56,-286.69"/>
<polygon fill="black" stroke="black" points="86.48,-283.76 76.13,-281.46 82.79,-289.71 86.48,-283.76"/>
</g>
<!-- 3 -->
<g id="node4" class="node">
<title>3</title>
<ellipse fill="white" stroke="black" cx="173.05" cy="-262.43" rx="60.82" ry="22.06"/>
<text text-anchor="middle" x="173.05" y="-258.23" font-family="Arial" font-size="14.00">elevation_u</text>
</g>
<!-- 1&#45;&gt;3 -->
<g id="edge3" class="edge">
<title>1&#45;&gt;3</title>
<path fill="none" stroke="black" d="M173.05,-320.21C173.05,-312.8 173.05,-304.32 173.05,-296.2"/>
<polygon fill="black" stroke="black" points="176.55,-296.27 173.05,-286.27 169.55,-296.27 176.55,-296.27"/>
</g>
<!-- 5 -->
<g id="node6" class="node">
<title>5</title>
<ellipse fill="white" stroke="black" cx="323.05" cy="-262.43" rx="71.26" ry="22.06"/>
<text text-anchor="middle" x="323.05" y="-258.23" font-family="Arial" font-size="14.00">identity_water</text>
</g>
<!-- 4&#45;&gt;5 -->
<g id="edge5" class="edge">
<title>4&#45;&gt;5</title>
<path fill="none" stroke="black" d="M365.82,-321.03C359.59,-312.64 352.26,-302.77 345.44,-293.59"/>
<polygon fill="black" stroke="black" points="348.27,-291.52 339.5,-285.58 342.65,-295.7 348.27,-291.52"/>
</g>
<!-- 7 -->
<g id="node8" class="node">
<title>7</title>
<ellipse fill="white" stroke="black" cx="439.05" cy="-262.43" rx="27" ry="22.06"/>
<text text-anchor="middle" x="439.05" y="-258.23" font-family="Arial" font-size="14.00">mul</text>
</g>
<!-- 4&#45;&gt;7 -->
<g id="edge7" class="edge">
<title>4&#45;&gt;7</title>
<path fill="none" stroke="black" d="M396.29,-321.03C403.11,-311.85 411.25,-300.89 418.58,-291"/>
<polygon fill="black" stroke="black" points="421.25,-293.28 424.4,-283.17 415.63,-289.11 421.25,-293.28"/>
</g>
<!-- 14 -->
<g id="node15" class="node">
<title>14</title>
<ellipse fill="white" stroke="black" cx="519.05" cy="-262.43" rx="34.96" ry="22.06"/>
<text text-anchor="middle" x="519.05" y="-258.23" font-family="Arial" font-size="14.00">4.645</text>
</g>
<!-- 4&#45;&gt;14 -->
<g id="edge14" class="edge">
<title>4&#45;&gt;14</title>
<path fill="none" stroke="black" d="M413.41,-323.24C434.59,-311.25 462.26,-295.58 483.97,-283.29"/>
<polygon fill="black" stroke="black" points="485.5,-286.45 492.47,-278.48 482.05,-280.36 485.5,-286.45"/>
</g>
<!-- 6 -->
<g id="node7" class="node">
<title>6</title>
<ellipse fill="white" stroke="black" cx="323.05" cy="-182.31" rx="47.04" ry="22.06"/>
<text text-anchor="middle" x="323.05" y="-178.11" font-family="Arial" font-size="14.00">is_water</text>
</g>
<!-- 5&#45;&gt;6 -->
<g id="edge6" class="edge">
<title>5&#45;&gt;6</title>
<path fill="none" stroke="black" d="M323.05,-240.08C323.05,-232.68 323.05,-224.19 323.05,-216.08"/>
<polygon fill="black" stroke="black" points="326.55,-216.14 323.05,-206.14 319.55,-216.14 326.55,-216.14"/>
</g>
<!-- 8 -->
<g id="node9" class="node">
<title>8</title>
<ellipse fill="white" stroke="black" cx="437.05" cy="-182.31" rx="47.05" ry="22.06"/>
<text text-anchor="middle" x="437.05" y="-178.11" font-family="Arial" font-size="14.00">distance</text>
</g>
<!-- 7&#45;&gt;8 -->
<g id="edge8" class="edge">
<title>7&#45;&gt;8</title>
<path fill="none" stroke="black" d="M438.51,-240.08C438.32,-232.68 438.1,-224.19 437.89,-216.08"/>
<polygon fill="black" stroke="black" points="441.39,-216.05 437.64,-206.14 434.4,-216.23 441.39,-216.05"/>
</g>
<!-- 9 -->
<g id="node10" class="node">
<title>9</title>
<ellipse fill="white" stroke="black" cx="529.05" cy="-182.31" rx="27" ry="22.06"/>
<text text-anchor="middle" x="529.05" y="-178.11" font-family="Arial" font-size="14.00">add</text>
</g>
<!-- 7&#45;&gt;9 -->
<g id="edge9" class="edge">
<title>7&#45;&gt;9</title>
<path fill="none" stroke="black" d="M457.27,-245.62C470.2,-234.4 487.77,-219.15 502.29,-206.54"/>
<polygon fill="black" stroke="black" points="504.47,-209.29 509.73,-200.09 499.88,-204 504.47,-209.29"/>
</g>
<!-- 10 -->
<g id="node11" class="node">
<title>10</title>
<ellipse fill="white" stroke="black" cx="479.05" cy="-102.19" rx="55.31" ry="22.06"/>
<text text-anchor="middle" x="479.05" y="-97.99" font-family="Arial" font-size="14.00">steepness</text>
</g>
<!-- 9&#45;&gt;10 -->
<g id="edge10" class="edge">
<title>9&#45;&gt;10</title>
<path fill="none" stroke="black" d="M516.95,-162.4C511.36,-153.66 504.58,-143.07 498.31,-133.27"/>
<polygon fill="black" stroke="black" points="501.43,-131.65 493.09,-125.12 495.53,-135.43 501.43,-131.65"/>
</g>
<!-- 11 -->
<g id="node12" class="node">
<title>11</title>
<ellipse fill="white" stroke="black" cx="579.05" cy="-102.19" rx="27" ry="22.06"/>
<text text-anchor="middle" x="579.05" y="-97.99" font-family="Arial" font-size="14.00">add</text>
</g>
<!-- 9&#45;&gt;11 -->
<g id="edge11" class="edge">
<title>9&#45;&gt;11</title>
<path fill="none" stroke="black" d="M541.16,-162.4C547.07,-153.16 554.31,-141.85 560.87,-131.59"/>
<polygon fill="black" stroke="black" points="563.63,-133.78 566.07,-123.47 557.73,-130 563.63,-133.78"/>
</g>
<!-- 12 -->
<g id="node13" class="node">
<title>12</title>
<ellipse fill="white" stroke="black" cx="522.05" cy="-22.06" rx="34.96" ry="22.06"/>
<text text-anchor="middle" x="522.05" y="-17.86" font-family="Arial" font-size="14.00">4.265</text>
</g>
<!-- 11&#45;&gt;12 -->
<g id="edge12" class="edge">
<title>11&#45;&gt;12</title>
<path fill="none" stroke="black" d="M565.55,-82.67C558.79,-73.41 550.47,-62 542.91,-51.65"/>
<polygon fill="black" stroke="black" points="545.87,-49.77 537.15,-43.76 540.22,-53.9 545.87,-49.77"/>
</g>
<!-- 13 -->
<g id="node14" class="node">
<title>13</title>
<ellipse fill="white" stroke="black" cx="635.05" cy="-22.06" rx="60.26" ry="22.06"/>
<text text-anchor="middle" x="635.05" y="-17.86" font-family="Arial" font-size="14.00">elevation_v</text>
</g>
<!-- 11&#45;&gt;13 -->
<g id="edge13" class="edge">
<title>11&#45;&gt;13</title>
<path fill="none" stroke="black" d="M592.33,-82.67C598.65,-73.85 606.37,-63.07 613.51,-53.12"/>
<polygon fill="black" stroke="black" points="616.24,-55.32 619.22,-45.15 610.55,-51.24 616.24,-55.32"/>
</g>
</g>
</svg>
