<?xml version="1.0" encoding="UTF-8" standalone="no"?>
<!DOCTYPE svg PUBLIC "-//W3C//DTD SVG 1.1//EN"
 "http://www.w3.org/Graphics/SVG/1.1/DTD/svg11.dtd">
<!-- Generated by graphviz version 12.2.1 (0)
 -->
<!-- Title: G Pages: 1 -->
<svg width="711pt" height="485pt"
 viewBox="36.00 36.00 675.01 449.42" xmlns="http://www.w3.org/2000/svg" xmlns:xlink="http://www.w3.org/1999/xlink">
<g id="graph0" class="graph" transform="scale(1 1) rotate(0) translate(40 445.42)">
<title>G</title>
<polygon fill="white" stroke="none" points="-4,4 -4,-409.42 635.01,-409.42 635.01,4 -4,4"/>
<text text-anchor="middle" x="315.5" y="-388.82" font-family="Times New Roman,serif" font-size="14.00">(&#39;best_tree_2000pop_15gen_25runs_res200_15subrun&#39;, &#39;&#39;)</text>
<!-- 0 -->
<g id="node1" class="node">
<title>0</title>
<ellipse fill="white" stroke="black" cx="111.05" cy="-342.56" rx="27" ry="22.06"/>
<text text-anchor="middle" x="111.05" y="-338.36" font-family="Arial" font-size="14.00">add</text>
</g>
<!-- 1 -->
<g id="node2" class="node">
<title>1</title>
<ellipse fill="white" stroke="black" cx="47.05" cy="-262.43" rx="47.05" ry="22.06"/>
<text text-anchor="middle" x="47.05" y="-258.23" font-family="Arial" font-size="14.00">distance</text>
</g>
<!-- 0&#45;&gt;1 -->
<g id="edge1" class="edge">
<title>0&#45;&gt;1</title>
<path fill="none" stroke="black" d="M96.53,-323.83C88.94,-314.57 79.47,-303 70.84,-292.47"/>
<polygon fill="black" stroke="black" points="73.55,-290.26 64.51,-284.74 68.14,-294.69 73.55,-290.26"/>
</g>
<!-- 2 -->
<g id="node3" class="node">
<title>2</title>
<ellipse fill="white" stroke="black" cx="176.05" cy="-262.43" rx="63.57" ry="22.06"/>
<text text-anchor="middle" x="176.05" y="-258.23" font-family="Arial" font-size="14.00">if_then_else</text>
</g>
<!-- 0&#45;&gt;2 -->
<g id="edge2" class="edge">
<title>0&#45;&gt;2</title>
<path fill="none" stroke="black" d="M125.8,-323.83C133.39,-314.71 142.85,-303.34 151.5,-292.94"/>
<polygon fill="black" stroke="black" points="154.16,-295.22 157.86,-285.3 148.78,-290.74 154.16,-295.22"/>
</g>
<!-- 3 -->
<g id="node4" class="node">
<title>3</title>
<ellipse fill="white" stroke="black" cx="84.05" cy="-182.31" rx="47.04" ry="22.06"/>
<text text-anchor="middle" x="84.05" y="-178.11" font-family="Arial" font-size="14.00">is_water</text>
</g>
<!-- 2&#45;&gt;3 -->
<g id="edge3" class="edge">
<title>2&#45;&gt;3</title>
<path fill="none" stroke="black" d="M152.84,-241.72C141.36,-231.97 127.35,-220.07 114.97,-209.56"/>
<polygon fill="black" stroke="black" points="117.35,-206.99 107.46,-203.19 112.82,-212.33 117.35,-206.99"/>
</g>
<!-- 4 -->
<g id="node5" class="node">
<title>4</title>
<ellipse fill="white" stroke="black" cx="176.05" cy="-182.31" rx="27" ry="22.06"/>
<text text-anchor="middle" x="176.05" y="-178.11" font-family="Arial" font-size="14.00">add</text>
</g>
<!-- 2&#45;&gt;4 -->
<g id="edge4" class="edge">
<title>2&#45;&gt;4</title>
<path fill="none" stroke="black" d="M176.05,-240.08C176.05,-232.68 176.05,-224.19 176.05,-216.08"/>
<polygon fill="black" stroke="black" points="179.55,-216.14 176.05,-206.14 172.55,-216.14 179.55,-216.14"/>
</g>
<!-- 7 -->
<g id="node8" class="node">
<title>7</title>
<ellipse fill="white" stroke="black" cx="256.05" cy="-182.31" rx="27" ry="22.06"/>
<text text-anchor="middle" x="256.05" y="-178.11" font-family="Arial" font-size="14.00">add</text>
</g>
<!-- 2&#45;&gt;7 -->
<g id="edge7" class="edge">
<title>2&#45;&gt;7</title>
<path fill="none" stroke="black" d="M196.66,-241.31C207.13,-231.08 219.95,-218.56 231,-207.78"/>
<polygon fill="black" stroke="black" points="233.24,-210.48 237.95,-200.99 228.35,-205.47 233.24,-210.48"/>
</g>
<!-- 5 -->
<g id="node6" class="node">
<title>5</title>
<ellipse fill="white" stroke="black" cx="63.05" cy="-102.19" rx="60.26" ry="22.06"/>
<text text-anchor="middle" x="63.05" y="-97.99" font-family="Arial" font-size="14.00">elevation_v</text>
</g>
<!-- 4&#45;&gt;5 -->
<g id="edge5" class="edge">
<title>4&#45;&gt;5</title>
<path fill="none" stroke="black" d="M155.85,-167.34C140.28,-156.58 118.34,-141.41 99.7,-128.52"/>
<polygon fill="black" stroke="black" points="101.76,-125.69 91.55,-122.88 97.78,-131.45 101.76,-125.69"/>
</g>
<!-- 6 -->
<g id="node7" class="node">
<title>6</title>
<ellipse fill="white" stroke="black" cx="176.05" cy="-102.19" rx="34.96" ry="22.06"/>
<text text-anchor="middle" x="176.05" y="-97.99" font-family="Arial" font-size="14.00">8.609</text>
</g>
<!-- 4&#45;&gt;6 -->
<g id="edge6" class="edge">
<title>4&#45;&gt;6</title>
<path fill="none" stroke="black" d="M176.05,-159.96C176.05,-152.55 176.05,-144.07 176.05,-135.96"/>
<polygon fill="black" stroke="black" points="179.55,-136.02 176.05,-126.02 172.55,-136.02 179.55,-136.02"/>
</g>
<!-- 8 -->
<g id="node9" class="node">
<title>8</title>
<ellipse fill="white" stroke="black" cx="256.05" cy="-102.19" rx="27" ry="22.06"/>
<text text-anchor="middle" x="256.05" y="-97.99" font-family="Arial" font-size="14.00">mul</text>
</g>
<!-- 7&#45;&gt;8 -->
<g id="edge8" class="edge">
<title>7&#45;&gt;8</title>
<path fill="none" stroke="black" d="M256.05,-159.96C256.05,-152.55 256.05,-144.07 256.05,-135.96"/>
<polygon fill="black" stroke="black" points="259.55,-136.02 256.05,-126.02 252.55,-136.02 259.55,-136.02"/>
</g>
<!-- 11 -->
<g id="node12" class="node">
<title>11</title>
<ellipse fill="white" stroke="black" cx="424.05" cy="-102.19" rx="63.57" ry="22.06"/>
<text text-anchor="middle" x="424.05" y="-97.99" font-family="Arial" font-size="14.00">if_then_else</text>
</g>
<!-- 7&#45;&gt;11 -->
<g id="edge11" class="edge">
<title>7&#45;&gt;11</title>
<path fill="none" stroke="black" d="M279.41,-170.45C304.44,-158.81 344.85,-140.01 376.61,-125.25"/>
<polygon fill="black" stroke="black" points="378.05,-128.44 385.64,-121.05 375.09,-122.09 378.05,-128.44"/>
</g>
<!-- 9 -->
<g id="node10" class="node">
<title>9</title>
<ellipse fill="white" stroke="black" cx="148.05" cy="-22.06" rx="55.31" ry="22.06"/>
<text text-anchor="middle" x="148.05" y="-17.86" font-family="Arial" font-size="14.00">steepness</text>
</g>
<!-- 8&#45;&gt;9 -->
<g id="edge9" class="edge">
<title>8&#45;&gt;9</title>
<path fill="none" stroke="black" d="M236.25,-86.86C221.31,-76.05 200.45,-60.96 182.76,-48.17"/>
<polygon fill="black" stroke="black" points="185.23,-45.64 175.08,-42.61 181.13,-51.31 185.23,-45.64"/>
</g>
<!-- 10 -->
<g id="node11" class="node">
<title>10</title>
<ellipse fill="white" stroke="black" cx="256.05" cy="-22.06" rx="34.96" ry="22.06"/>
<text text-anchor="middle" x="256.05" y="-17.86" font-family="Arial" font-size="14.00">7.762</text>
</g>
<!-- 8&#45;&gt;10 -->
<g id="edge10" class="edge">
<title>8&#45;&gt;10</title>
<path fill="none" stroke="black" d="M256.05,-79.84C256.05,-72.43 256.05,-63.95 256.05,-55.83"/>
<polygon fill="black" stroke="black" points="259.55,-55.9 256.05,-45.9 252.55,-55.9 259.55,-55.9"/>
</g>
<!-- 12 -->
<g id="node13" class="node">
<title>12</title>
<ellipse fill="white" stroke="black" cx="356.05" cy="-22.06" rx="47.04" ry="22.06"/>
<text text-anchor="middle" x="356.05" y="-17.86" font-family="Arial" font-size="14.00">is_water</text>
</g>
<!-- 11&#45;&gt;12 -->
<g id="edge12" class="edge">
<title>11&#45;&gt;12</title>
<path fill="none" stroke="black" d="M406.19,-80.66C398.42,-71.73 389.18,-61.12 380.76,-51.45"/>
<polygon fill="black" stroke="black" points="383.53,-49.3 374.33,-44.05 378.25,-53.89 383.53,-49.3"/>
</g>
<!-- 13 -->
<g id="node14" class="node">
<title>13</title>
<ellipse fill="white" stroke="black" cx="482.05" cy="-22.06" rx="60.82" ry="22.06"/>
<text text-anchor="middle" x="482.05" y="-17.86" font-family="Arial" font-size="14.00">elevation_u</text>
</g>
<!-- 11&#45;&gt;13 -->
<g id="edge13" class="edge">
<title>11&#45;&gt;13</title>
<path fill="none" stroke="black" d="M439.29,-80.66C445.64,-72.11 453.12,-62.03 460.05,-52.71"/>
<polygon fill="black" stroke="black" points="462.66,-55.05 465.81,-44.94 457.04,-50.88 462.66,-55.05"/>
</g>
<!-- 14 -->
<g id="node15" class="node">
<title>14</title>
<ellipse fill="white" stroke="black" cx="596.05" cy="-22.06" rx="34.96" ry="22.06"/>
<text text-anchor="middle" x="596.05" y="-17.86" font-family="Arial" font-size="14.00">4.543</text>
</g>
<!-- 11&#45;&gt;14 -->
<g id="edge14" class="edge">
<title>11&#45;&gt;14</title>
<path fill="none" stroke="black" d="M462.83,-84.23C488.27,-73.02 522.24,-57.9 552.05,-44.12 554.16,-43.15 556.31,-42.15 558.48,-41.13"/>
<polygon fill="black" stroke="black" points="559.74,-44.41 567.28,-36.97 556.74,-38.08 559.74,-44.41"/>
</g>
</g>
</svg>
