<?xml version="1.0" encoding="UTF-8" standalone="no"?>
<!DOCTYPE svg PUBLIC "-//W3C//DTD SVG 1.1//EN"
 "http://www.w3.org/Graphics/SVG/1.1/DTD/svg11.dtd">
<!-- Generated by graphviz version 12.2.1 (0)
 -->
<!-- Title: G Pages: 1 -->
<svg width="663pt" height="566pt"
 viewBox="36.00 36.00 626.87 529.54" xmlns="http://www.w3.org/2000/svg" xmlns:xlink="http://www.w3.org/1999/xlink">
<g id="graph0" class="graph" transform="scale(1 1) rotate(0) translate(40 525.54)">
<title>G</title>
<polygon fill="white" stroke="none" points="-4,4 -4,-489.54 586.87,-489.54 586.87,4 -4,4"/>
<text text-anchor="middle" x="291.44" y="-468.94" font-family="Times New Roman,serif" font-size="14.00">(&#39;best_4tree_2000pop_15gen_25runs_res200_25subrun&#39;, &#39;&#39;)</text>
<!-- 0 -->
<g id="node1" class="node">
<title>0</title>
<ellipse fill="white" stroke="black" cx="113.05" cy="-422.68" rx="27" ry="22.06"/>
<text text-anchor="middle" x="113.05" y="-418.48" font-family="Arial" font-size="14.00">add</text>
</g>
<!-- 1 -->
<g id="node2" class="node">
<title>1</title>
<ellipse fill="white" stroke="black" cx="55.05" cy="-342.56" rx="34.96" ry="22.06"/>
<text text-anchor="middle" x="55.05" y="-338.36" font-family="Arial" font-size="14.00">9.325</text>
</g>
<!-- 0&#45;&gt;1 -->
<g id="edge1" class="edge">
<title>0&#45;&gt;1</title>
<path fill="none" stroke="black" d="M99.31,-403.16C92.44,-393.91 83.96,-382.5 76.28,-372.14"/>
<polygon fill="black" stroke="black" points="79.18,-370.19 70.41,-364.24 73.56,-374.36 79.18,-370.19"/>
</g>
<!-- 2 -->
<g id="node3" class="node">
<title>2</title>
<ellipse fill="white" stroke="black" cx="172.05" cy="-342.56" rx="63.57" ry="22.06"/>
<text text-anchor="middle" x="172.05" y="-338.36" font-family="Arial" font-size="14.00">if_then_else</text>
</g>
<!-- 0&#45;&gt;2 -->
<g id="edge2" class="edge">
<title>0&#45;&gt;2</title>
<path fill="none" stroke="black" d="M126.74,-403.56C133.51,-394.59 141.87,-383.52 149.56,-373.35"/>
<polygon fill="black" stroke="black" points="152.21,-375.63 155.45,-365.55 146.63,-371.42 152.21,-375.63"/>
</g>
<!-- 3 -->
<g id="node4" class="node">
<title>3</title>
<ellipse fill="white" stroke="black" cx="80.05" cy="-262.43" rx="47.04" ry="22.06"/>
<text text-anchor="middle" x="80.05" y="-258.23" font-family="Arial" font-size="14.00">is_water</text>
</g>
<!-- 2&#45;&gt;3 -->
<g id="edge3" class="edge">
<title>2&#45;&gt;3</title>
<path fill="none" stroke="black" d="M148.84,-321.84C137.36,-312.09 123.35,-300.19 110.97,-289.69"/>
<polygon fill="black" stroke="black" points="113.35,-287.12 103.46,-283.31 108.82,-292.45 113.35,-287.12"/>
</g>
<!-- 4 -->
<g id="node5" class="node">
<title>4</title>
<ellipse fill="white" stroke="black" cx="172.05" cy="-262.43" rx="27" ry="22.06"/>
<text text-anchor="middle" x="172.05" y="-258.23" font-family="Arial" font-size="14.00">add</text>
</g>
<!-- 2&#45;&gt;4 -->
<g id="edge4" class="edge">
<title>2&#45;&gt;4</title>
<path fill="none" stroke="black" d="M172.05,-320.21C172.05,-312.8 172.05,-304.32 172.05,-296.2"/>
<polygon fill="black" stroke="black" points="175.55,-296.27 172.05,-286.27 168.55,-296.27 175.55,-296.27"/>
</g>
<!-- 7 -->
<g id="node8" class="node">
<title>7</title>
<ellipse fill="white" stroke="black" cx="306.05" cy="-262.43" rx="27" ry="22.06"/>
<text text-anchor="middle" x="306.05" y="-258.23" font-family="Arial" font-size="14.00">mul</text>
</g>
<!-- 2&#45;&gt;7 -->
<g id="edge7" class="edge">
<title>2&#45;&gt;7</title>
<path fill="none" stroke="black" d="M203.81,-323.04C225.23,-310.56 253.36,-294.15 274.69,-281.72"/>
<polygon fill="black" stroke="black" points="276.38,-284.79 283.25,-276.73 272.85,-278.74 276.38,-284.79"/>
</g>
<!-- 5 -->
<g id="node6" class="node">
<title>5</title>
<ellipse fill="white" stroke="black" cx="47.05" cy="-182.31" rx="47.05" ry="22.06"/>
<text text-anchor="middle" x="47.05" y="-178.11" font-family="Arial" font-size="14.00">distance</text>
</g>
<!-- 4&#45;&gt;5 -->
<g id="edge5" class="edge">
<title>4&#45;&gt;5</title>
<path fill="none" stroke="black" d="M150.85,-248.18C132.61,-236.78 105.87,-220.07 84.1,-206.46"/>
<polygon fill="black" stroke="black" points="86.12,-203.59 75.78,-201.26 82.41,-209.53 86.12,-203.59"/>
</g>
<!-- 6 -->
<g id="node7" class="node">
<title>6</title>
<ellipse fill="white" stroke="black" cx="172.05" cy="-182.31" rx="60.26" ry="22.06"/>
<text text-anchor="middle" x="172.05" y="-178.11" font-family="Arial" font-size="14.00">elevation_v</text>
</g>
<!-- 4&#45;&gt;6 -->
<g id="edge6" class="edge">
<title>4&#45;&gt;6</title>
<path fill="none" stroke="black" d="M172.05,-240.08C172.05,-232.68 172.05,-224.19 172.05,-216.08"/>
<polygon fill="black" stroke="black" points="175.55,-216.14 172.05,-206.14 168.55,-216.14 175.55,-216.14"/>
</g>
<!-- 8 -->
<g id="node9" class="node">
<title>8</title>
<ellipse fill="white" stroke="black" cx="306.05" cy="-182.31" rx="55.31" ry="22.06"/>
<text text-anchor="middle" x="306.05" y="-178.11" font-family="Arial" font-size="14.00">steepness</text>
</g>
<!-- 7&#45;&gt;8 -->
<g id="edge8" class="edge">
<title>7&#45;&gt;8</title>
<path fill="none" stroke="black" d="M306.05,-240.08C306.05,-232.68 306.05,-224.19 306.05,-216.08"/>
<polygon fill="black" stroke="black" points="309.55,-216.14 306.05,-206.14 302.55,-216.14 309.55,-216.14"/>
</g>
<!-- 9 -->
<g id="node10" class="node">
<title>9</title>
<ellipse fill="white" stroke="black" cx="406.05" cy="-182.31" rx="27" ry="22.06"/>
<text text-anchor="middle" x="406.05" y="-178.11" font-family="Arial" font-size="14.00">mul</text>
</g>
<!-- 7&#45;&gt;9 -->
<g id="edge9" class="edge">
<title>7&#45;&gt;9</title>
<path fill="none" stroke="black" d="M325.34,-246.37C340.28,-234.7 361.19,-218.36 377.99,-205.23"/>
<polygon fill="black" stroke="black" points="379.91,-208.17 385.64,-199.26 375.6,-202.66 379.91,-208.17"/>
</g>
<!-- 10 -->
<g id="node11" class="node">
<title>10</title>
<ellipse fill="white" stroke="black" cx="360.05" cy="-102.19" rx="47.05" ry="22.06"/>
<text text-anchor="middle" x="360.05" y="-97.99" font-family="Arial" font-size="14.00">distance</text>
</g>
<!-- 9&#45;&gt;10 -->
<g id="edge10" class="edge">
<title>9&#45;&gt;10</title>
<path fill="none" stroke="black" d="M394.68,-162C389.68,-153.5 383.68,-143.32 378.1,-133.83"/>
<polygon fill="black" stroke="black" points="381.12,-132.06 373.03,-125.22 375.09,-135.61 381.12,-132.06"/>
</g>
<!-- 11 -->
<g id="node12" class="node">
<title>11</title>
<ellipse fill="white" stroke="black" cx="452.05" cy="-102.19" rx="27" ry="22.06"/>
<text text-anchor="middle" x="452.05" y="-97.99" font-family="Arial" font-size="14.00">mul</text>
</g>
<!-- 9&#45;&gt;11 -->
<g id="edge11" class="edge">
<title>9&#45;&gt;11</title>
<path fill="none" stroke="black" d="M417.42,-162C422.68,-153.08 429.03,-142.29 434.85,-132.41"/>
<polygon fill="black" stroke="black" points="437.83,-134.24 439.89,-123.85 431.8,-130.69 437.83,-134.24"/>
</g>
<!-- 12 -->
<g id="node13" class="node">
<title>12</title>
<ellipse fill="white" stroke="black" cx="382.05" cy="-22.06" rx="60.82" ry="22.06"/>
<text text-anchor="middle" x="382.05" y="-17.86" font-family="Arial" font-size="14.00">elevation_u</text>
</g>
<!-- 11&#45;&gt;12 -->
<g id="edge12" class="edge">
<title>11&#45;&gt;12</title>
<path fill="none" stroke="black" d="M436.52,-83.85C428.06,-74.41 417.39,-62.5 407.73,-51.72"/>
<polygon fill="black" stroke="black" points="410.56,-49.63 401.28,-44.52 405.35,-54.3 410.56,-49.63"/>
</g>
<!-- 13 -->
<g id="node14" class="node">
<title>13</title>
<ellipse fill="white" stroke="black" cx="522.05" cy="-22.06" rx="60.82" ry="22.06"/>
<text text-anchor="middle" x="522.05" y="-17.86" font-family="Arial" font-size="14.00">elevation_u</text>
</g>
<!-- 11&#45;&gt;13 -->
<g id="edge13" class="edge">
<title>11&#45;&gt;13</title>
<path fill="none" stroke="black" d="M467.59,-83.85C476.04,-74.41 486.72,-62.5 496.37,-51.72"/>
<polygon fill="black" stroke="black" points="498.76,-54.3 502.83,-44.52 493.55,-49.63 498.76,-54.3"/>
</g>
</g>
</svg>
