<?xml version="1.0" encoding="UTF-8" standalone="no"?>
<!DOCTYPE svg PUBLIC "-//W3C//DTD SVG 1.1//EN"
 "http://www.w3.org/Graphics/SVG/1.1/DTD/svg11.dtd">
<!-- Generated by graphviz version 12.2.1 (0)
 -->
<!-- Title: G Pages: 1 -->
<svg width="814pt" height="485pt"
 viewBox="36.00 36.00 778.31 449.42" xmlns="http://www.w3.org/2000/svg" xmlns:xlink="http://www.w3.org/1999/xlink">
<g id="graph0" class="graph" transform="scale(1 1) rotate(0) translate(40 445.42)">
<title>G</title>
<polygon fill="white" stroke="none" points="-4,4 -4,-409.42 738.31,-409.42 738.31,4 -4,4"/>
<text text-anchor="middle" x="367.15" y="-388.82" font-family="Times New Roman,serif" font-size="14.00">(&#39;best_5tree_3000pop_15gen_20runs_res200_20subrun&#39;, &#39;&#39;)</text>
<!-- 0 -->
<g id="node1" class="node">
<title>0</title>
<ellipse fill="white" stroke="black" cx="392.04" cy="-342.56" rx="27" ry="22.06"/>
<text text-anchor="middle" x="392.04" y="-338.36" font-family="Arial" font-size="14.00">add</text>
</g>
<!-- 1 -->
<g id="node2" class="node">
<title>1</title>
<ellipse fill="white" stroke="black" cx="342.04" cy="-262.43" rx="27" ry="22.06"/>
<text text-anchor="middle" x="342.04" y="-258.23" font-family="Arial" font-size="14.00">sub</text>
</g>
<!-- 0&#45;&gt;1 -->
<g id="edge1" class="edge">
<title>0&#45;&gt;1</title>
<path fill="none" stroke="black" d="M379.94,-322.64C374.03,-313.4 366.79,-302.09 360.23,-291.84"/>
<polygon fill="black" stroke="black" points="363.36,-290.25 355.03,-283.72 357.47,-294.02 363.36,-290.25"/>
</g>
<!-- 7 -->
<g id="node8" class="node">
<title>7</title>
<ellipse fill="white" stroke="black" cx="445.04" cy="-262.43" rx="27" ry="22.06"/>
<text text-anchor="middle" x="445.04" y="-258.23" font-family="Arial" font-size="14.00">sub</text>
</g>
<!-- 0&#45;&gt;7 -->
<g id="edge7" class="edge">
<title>0&#45;&gt;7</title>
<path fill="none" stroke="black" d="M404.87,-322.64C411.19,-313.34 418.93,-301.93 425.93,-291.61"/>
<polygon fill="black" stroke="black" points="428.77,-293.66 431.48,-283.42 422.97,-289.73 428.77,-293.66"/>
</g>
<!-- 2 -->
<g id="node3" class="node">
<title>2</title>
<ellipse fill="white" stroke="black" cx="200.04" cy="-182.31" rx="63.57" ry="22.06"/>
<text text-anchor="middle" x="200.04" y="-178.11" font-family="Arial" font-size="14.00">if_then_else</text>
</g>
<!-- 1&#45;&gt;2 -->
<g id="edge2" class="edge">
<title>1&#45;&gt;2</title>
<path fill="none" stroke="black" d="M319.86,-249.23C299.34,-237.94 268.27,-220.84 242.92,-206.89"/>
<polygon fill="black" stroke="black" points="244.93,-204.01 234.48,-202.26 241.56,-210.14 244.93,-204.01"/>
</g>
<!-- 6 -->
<g id="node7" class="node">
<title>6</title>
<ellipse fill="white" stroke="black" cx="342.04" cy="-182.31" rx="55.31" ry="22.06"/>
<text text-anchor="middle" x="342.04" y="-178.11" font-family="Arial" font-size="14.00">steepness</text>
</g>
<!-- 1&#45;&gt;6 -->
<g id="edge6" class="edge">
<title>1&#45;&gt;6</title>
<path fill="none" stroke="black" d="M342.04,-240.08C342.04,-232.68 342.04,-224.19 342.04,-216.08"/>
<polygon fill="black" stroke="black" points="345.54,-216.14 342.04,-206.14 338.54,-216.14 345.54,-216.14"/>
</g>
<!-- 3 -->
<g id="node4" class="node">
<title>3</title>
<ellipse fill="white" stroke="black" cx="47.04" cy="-102.19" rx="47.04" ry="22.06"/>
<text text-anchor="middle" x="47.04" y="-97.99" font-family="Arial" font-size="14.00">is_water</text>
</g>
<!-- 2&#45;&gt;3 -->
<g id="edge3" class="edge">
<title>2&#45;&gt;3</title>
<path fill="none" stroke="black" d="M165.33,-163.58C142.52,-151.93 112.56,-136.64 88.5,-124.35"/>
<polygon fill="black" stroke="black" points="90.09,-121.24 79.59,-119.81 86.91,-127.47 90.09,-121.24"/>
</g>
<!-- 4 -->
<g id="node5" class="node">
<title>4</title>
<ellipse fill="white" stroke="black" cx="167.04" cy="-102.19" rx="55.31" ry="22.06"/>
<text text-anchor="middle" x="167.04" y="-97.99" font-family="Arial" font-size="14.00">steepness</text>
</g>
<!-- 2&#45;&gt;4 -->
<g id="edge4" class="edge">
<title>2&#45;&gt;4</title>
<path fill="none" stroke="black" d="M191.2,-160.37C187.9,-152.56 184.07,-143.49 180.45,-134.92"/>
<polygon fill="black" stroke="black" points="183.73,-133.69 176.62,-125.84 177.28,-136.42 183.73,-133.69"/>
</g>
<!-- 5 -->
<g id="node6" class="node">
<title>5</title>
<ellipse fill="white" stroke="black" cx="301.04" cy="-102.19" rx="60.82" ry="22.06"/>
<text text-anchor="middle" x="301.04" y="-97.99" font-family="Arial" font-size="14.00">elevation_u</text>
</g>
<!-- 2&#45;&gt;5 -->
<g id="edge5" class="edge">
<title>2&#45;&gt;5</title>
<path fill="none" stroke="black" d="M225.27,-161.8C237.8,-152.1 253.13,-140.24 266.72,-129.74"/>
<polygon fill="black" stroke="black" points="268.82,-132.53 274.59,-123.65 264.54,-127 268.82,-132.53"/>
</g>
<!-- 8 -->
<g id="node9" class="node">
<title>8</title>
<ellipse fill="white" stroke="black" cx="445.04" cy="-182.31" rx="27" ry="22.06"/>
<text text-anchor="middle" x="445.04" y="-178.11" font-family="Arial" font-size="14.00">mul</text>
</g>
<!-- 7&#45;&gt;8 -->
<g id="edge8" class="edge">
<title>7&#45;&gt;8</title>
<path fill="none" stroke="black" d="M445.04,-240.08C445.04,-232.68 445.04,-224.19 445.04,-216.08"/>
<polygon fill="black" stroke="black" points="448.54,-216.14 445.04,-206.14 441.54,-216.14 448.54,-216.14"/>
</g>
<!-- 11 -->
<g id="node12" class="node">
<title>11</title>
<ellipse fill="white" stroke="black" cx="577.04" cy="-182.31" rx="27" ry="22.06"/>
<text text-anchor="middle" x="577.04" y="-178.11" font-family="Arial" font-size="14.00">neg</text>
</g>
<!-- 7&#45;&gt;11 -->
<g id="edge11" class="edge">
<title>7&#45;&gt;11</title>
<path fill="none" stroke="black" d="M466.55,-248.71C488.02,-235.99 521.27,-216.32 545.69,-201.87"/>
<polygon fill="black" stroke="black" points="547.43,-204.91 554.25,-196.8 543.86,-198.88 547.43,-204.91"/>
</g>
<!-- 9 -->
<g id="node10" class="node">
<title>9</title>
<ellipse fill="white" stroke="black" cx="415.04" cy="-102.19" rx="34.96" ry="22.06"/>
<text text-anchor="middle" x="415.04" y="-97.99" font-family="Arial" font-size="14.00">9.781</text>
</g>
<!-- 8&#45;&gt;9 -->
<g id="edge9" class="edge">
<title>8&#45;&gt;9</title>
<path fill="none" stroke="black" d="M437.16,-160.78C434.11,-152.84 430.55,-143.56 427.18,-134.8"/>
<polygon fill="black" stroke="black" points="430.48,-133.61 423.63,-125.53 423.94,-136.12 430.48,-133.61"/>
</g>
<!-- 10 -->
<g id="node11" class="node">
<title>10</title>
<ellipse fill="white" stroke="black" cx="515.04" cy="-102.19" rx="47.05" ry="22.06"/>
<text text-anchor="middle" x="515.04" y="-97.99" font-family="Arial" font-size="14.00">distance</text>
</g>
<!-- 8&#45;&gt;10 -->
<g id="edge10" class="edge">
<title>8&#45;&gt;10</title>
<path fill="none" stroke="black" d="M460.58,-163.97C469.16,-154.39 480.03,-142.26 489.8,-131.36"/>
<polygon fill="black" stroke="black" points="492.26,-133.86 496.32,-124.08 487.04,-129.19 492.26,-133.86"/>
</g>
<!-- 12 -->
<g id="node13" class="node">
<title>12</title>
<ellipse fill="white" stroke="black" cx="607.04" cy="-102.19" rx="27" ry="22.06"/>
<text text-anchor="middle" x="607.04" y="-97.99" font-family="Arial" font-size="14.00">sub</text>
</g>
<!-- 11&#45;&gt;12 -->
<g id="edge12" class="edge">
<title>11&#45;&gt;12</title>
<path fill="none" stroke="black" d="M584.93,-160.78C588.06,-152.62 591.74,-143.05 595.18,-134.08"/>
<polygon fill="black" stroke="black" points="598.35,-135.58 598.67,-124.99 591.82,-133.07 598.35,-135.58"/>
</g>
<!-- 13 -->
<g id="node14" class="node">
<title>13</title>
<ellipse fill="white" stroke="black" cx="540.04" cy="-22.06" rx="55.31" ry="22.06"/>
<text text-anchor="middle" x="540.04" y="-17.86" font-family="Arial" font-size="14.00">steepness</text>
</g>
<!-- 12&#45;&gt;13 -->
<g id="edge13" class="edge">
<title>12&#45;&gt;13</title>
<path fill="none" stroke="black" d="M591.84,-83.46C583.88,-74.17 573.93,-62.57 564.88,-52.02"/>
<polygon fill="black" stroke="black" points="567.71,-49.94 558.54,-44.63 562.39,-54.5 567.71,-49.94"/>
</g>
<!-- 14 -->
<g id="node15" class="node">
<title>14</title>
<ellipse fill="white" stroke="black" cx="674.04" cy="-22.06" rx="60.26" ry="22.06"/>
<text text-anchor="middle" x="674.04" y="-17.86" font-family="Arial" font-size="14.00">elevation_v</text>
</g>
<!-- 12&#45;&gt;14 -->
<g id="edge14" class="edge">
<title>12&#45;&gt;14</title>
<path fill="none" stroke="black" d="M622.25,-83.46C630.21,-74.17 640.16,-62.57 649.21,-52.02"/>
<polygon fill="black" stroke="black" points="651.7,-54.5 655.55,-44.63 646.38,-49.94 651.7,-54.5"/>
</g>
</g>
</svg>
