<?xml version="1.0" encoding="UTF-8" standalone="no"?>
<!DOCTYPE svg PUBLIC "-//W3C//DTD SVG 1.1//EN"
 "http://www.w3.org/Graphics/SVG/1.1/DTD/svg11.dtd">
<!-- Generated by graphviz version 12.2.1 (0)
 -->
<!-- Title: G Pages: 1 -->
<svg width="829pt" height="566pt"
 viewBox="36.00 36.00 792.53 529.54" xmlns="http://www.w3.org/2000/svg" xmlns:xlink="http://www.w3.org/1999/xlink">
<g id="graph0" class="graph" transform="scale(1 1) rotate(0) translate(40 525.54)">
<title>G</title>
<polygon fill="white" stroke="none" points="-4,4 -4,-489.54 752.53,-489.54 752.53,4 -4,4"/>
<text text-anchor="middle" x="374.26" y="-468.94" font-family="Times New Roman,serif" font-size="14.00">(&#39;best_tree_3000pop_15gen_20runs_res200_3subrun&#39;, &#39;&#39;)</text>
<!-- 0 -->
<g id="node1" class="node">
<title>0</title>
<ellipse fill="white" stroke="black" cx="450.26" cy="-422.68" rx="27" ry="22.06"/>
<text text-anchor="middle" x="450.26" y="-418.48" font-family="Arial" font-size="14.00">add</text>
</g>
<!-- 1 -->
<g id="node2" class="node">
<title>1</title>
<ellipse fill="white" stroke="black" cx="400.26" cy="-342.56" rx="27" ry="22.06"/>
<text text-anchor="middle" x="400.26" y="-338.36" font-family="Arial" font-size="14.00">sub</text>
</g>
<!-- 0&#45;&gt;1 -->
<g id="edge1" class="edge">
<title>0&#45;&gt;1</title>
<path fill="none" stroke="black" d="M438.16,-402.77C432.24,-393.53 425.01,-382.22 418.44,-371.97"/>
<polygon fill="black" stroke="black" points="421.58,-370.37 413.24,-363.84 415.69,-374.15 421.58,-370.37"/>
</g>
<!-- 9 -->
<g id="node10" class="node">
<title>9</title>
<ellipse fill="white" stroke="black" cx="501.26" cy="-342.56" rx="27" ry="22.06"/>
<text text-anchor="middle" x="501.26" y="-338.36" font-family="Arial" font-size="14.00">sub</text>
</g>
<!-- 0&#45;&gt;9 -->
<g id="edge9" class="edge">
<title>0&#45;&gt;9</title>
<path fill="none" stroke="black" d="M462.61,-402.77C468.64,-393.53 476.02,-382.22 482.72,-371.97"/>
<polygon fill="black" stroke="black" points="485.49,-374.12 488.03,-363.83 479.63,-370.29 485.49,-374.12"/>
</g>
<!-- 2 -->
<g id="node3" class="node">
<title>2</title>
<ellipse fill="white" stroke="black" cx="261.26" cy="-262.43" rx="63.57" ry="22.06"/>
<text text-anchor="middle" x="261.26" y="-258.23" font-family="Arial" font-size="14.00">if_then_else</text>
</g>
<!-- 1&#45;&gt;2 -->
<g id="edge2" class="edge">
<title>1&#45;&gt;2</title>
<path fill="none" stroke="black" d="M378.24,-329.18C358.25,-317.95 328.24,-301.08 303.62,-287.24"/>
<polygon fill="black" stroke="black" points="305.54,-284.31 295.11,-282.46 302.11,-290.41 305.54,-284.31"/>
</g>
<!-- 8 -->
<g id="node9" class="node">
<title>8</title>
<ellipse fill="white" stroke="black" cx="400.26" cy="-262.43" rx="55.31" ry="22.06"/>
<text text-anchor="middle" x="400.26" y="-258.23" font-family="Arial" font-size="14.00">steepness</text>
</g>
<!-- 1&#45;&gt;8 -->
<g id="edge8" class="edge">
<title>1&#45;&gt;8</title>
<path fill="none" stroke="black" d="M400.26,-320.21C400.26,-312.8 400.26,-304.32 400.26,-296.2"/>
<polygon fill="black" stroke="black" points="403.76,-296.27 400.26,-286.27 396.76,-296.27 403.76,-296.27"/>
</g>
<!-- 3 -->
<g id="node4" class="node">
<title>3</title>
<ellipse fill="white" stroke="black" cx="71.26" cy="-182.31" rx="71.26" ry="22.06"/>
<text text-anchor="middle" x="71.26" y="-178.11" font-family="Arial" font-size="14.00">identity_water</text>
</g>
<!-- 2&#45;&gt;3 -->
<g id="edge3" class="edge">
<title>2&#45;&gt;3</title>
<path fill="none" stroke="black" d="M221.43,-245.05C193.01,-233.37 154.5,-217.54 123.6,-204.83"/>
<polygon fill="black" stroke="black" points="124.99,-201.62 114.41,-201.05 122.33,-208.09 124.99,-201.62"/>
</g>
<!-- 6 -->
<g id="node7" class="node">
<title>6</title>
<ellipse fill="white" stroke="black" cx="221.26" cy="-182.31" rx="60.82" ry="22.06"/>
<text text-anchor="middle" x="221.26" y="-178.11" font-family="Arial" font-size="14.00">elevation_u</text>
</g>
<!-- 2&#45;&gt;6 -->
<g id="edge6" class="edge">
<title>2&#45;&gt;6</title>
<path fill="none" stroke="black" d="M250.54,-240.5C246.46,-232.53 241.72,-223.27 237.26,-214.55"/>
<polygon fill="black" stroke="black" points="240.37,-212.96 232.7,-205.65 234.14,-216.15 240.37,-212.96"/>
</g>
<!-- 7 -->
<g id="node8" class="node">
<title>7</title>
<ellipse fill="white" stroke="black" cx="355.26" cy="-182.31" rx="55.31" ry="22.06"/>
<text text-anchor="middle" x="355.26" y="-178.11" font-family="Arial" font-size="14.00">steepness</text>
</g>
<!-- 2&#45;&gt;7 -->
<g id="edge7" class="edge">
<title>2&#45;&gt;7</title>
<path fill="none" stroke="black" d="M284.98,-241.72C296.54,-232.12 310.6,-220.43 323.1,-210.03"/>
<polygon fill="black" stroke="black" points="325.26,-212.8 330.71,-203.71 320.78,-207.41 325.26,-212.8"/>
</g>
<!-- 4 -->
<g id="node5" class="node">
<title>4</title>
<ellipse fill="white" stroke="black" cx="71.26" cy="-102.19" rx="71.26" ry="22.06"/>
<text text-anchor="middle" x="71.26" y="-97.99" font-family="Arial" font-size="14.00">identity_water</text>
</g>
<!-- 3&#45;&gt;4 -->
<g id="edge4" class="edge">
<title>3&#45;&gt;4</title>
<path fill="none" stroke="black" d="M71.26,-159.96C71.26,-152.55 71.26,-144.07 71.26,-135.96"/>
<polygon fill="black" stroke="black" points="74.76,-136.02 71.26,-126.02 67.76,-136.02 74.76,-136.02"/>
</g>
<!-- 5 -->
<g id="node6" class="node">
<title>5</title>
<ellipse fill="white" stroke="black" cx="71.26" cy="-22.06" rx="47.04" ry="22.06"/>
<text text-anchor="middle" x="71.26" y="-17.86" font-family="Arial" font-size="14.00">is_water</text>
</g>
<!-- 4&#45;&gt;5 -->
<g id="edge5" class="edge">
<title>4&#45;&gt;5</title>
<path fill="none" stroke="black" d="M71.26,-79.84C71.26,-72.43 71.26,-63.95 71.26,-55.83"/>
<polygon fill="black" stroke="black" points="74.76,-55.9 71.26,-45.9 67.76,-55.9 74.76,-55.9"/>
</g>
<!-- 10 -->
<g id="node11" class="node">
<title>10</title>
<ellipse fill="white" stroke="black" cx="501.26" cy="-262.43" rx="27" ry="22.06"/>
<text text-anchor="middle" x="501.26" y="-258.23" font-family="Arial" font-size="14.00">mul</text>
</g>
<!-- 9&#45;&gt;10 -->
<g id="edge10" class="edge">
<title>9&#45;&gt;10</title>
<path fill="none" stroke="black" d="M501.26,-320.21C501.26,-312.8 501.26,-304.32 501.26,-296.2"/>
<polygon fill="black" stroke="black" points="504.76,-296.27 501.26,-286.27 497.76,-296.27 504.76,-296.27"/>
</g>
<!-- 13 -->
<g id="node14" class="node">
<title>13</title>
<ellipse fill="white" stroke="black" cx="649.26" cy="-262.43" rx="27" ry="22.06"/>
<text text-anchor="middle" x="649.26" y="-258.23" font-family="Arial" font-size="14.00">neg</text>
</g>
<!-- 9&#45;&gt;13 -->
<g id="edge13" class="edge">
<title>9&#45;&gt;13</title>
<path fill="none" stroke="black" d="M523.74,-329.69C548.55,-316.59 588.7,-295.4 616.89,-280.52"/>
<polygon fill="black" stroke="black" points="618.51,-283.62 625.72,-275.86 615.24,-277.43 618.51,-283.62"/>
</g>
<!-- 11 -->
<g id="node12" class="node">
<title>11</title>
<ellipse fill="white" stroke="black" cx="463.26" cy="-182.31" rx="34.96" ry="22.06"/>
<text text-anchor="middle" x="463.26" y="-178.11" font-family="Arial" font-size="14.00">9.512</text>
</g>
<!-- 10&#45;&gt;11 -->
<g id="edge11" class="edge">
<title>10&#45;&gt;11</title>
<path fill="none" stroke="black" d="M491.67,-241.72C487.58,-233.31 482.72,-223.3 478.17,-213.97"/>
<polygon fill="black" stroke="black" points="481.43,-212.66 473.91,-205.2 475.13,-215.72 481.43,-212.66"/>
</g>
<!-- 12 -->
<g id="node13" class="node">
<title>12</title>
<ellipse fill="white" stroke="black" cx="563.26" cy="-182.31" rx="47.05" ry="22.06"/>
<text text-anchor="middle" x="563.26" y="-178.11" font-family="Arial" font-size="14.00">distance</text>
</g>
<!-- 10&#45;&gt;12 -->
<g id="edge12" class="edge">
<title>10&#45;&gt;12</title>
<path fill="none" stroke="black" d="M515.64,-243.31C522.95,-234.11 532,-222.7 540.24,-212.31"/>
<polygon fill="black" stroke="black" points="542.8,-214.72 546.27,-204.71 537.32,-210.37 542.8,-214.72"/>
</g>
<!-- 14 -->
<g id="node15" class="node">
<title>14</title>
<ellipse fill="white" stroke="black" cx="688.26" cy="-182.31" rx="60.26" ry="22.06"/>
<text text-anchor="middle" x="688.26" y="-178.11" font-family="Arial" font-size="14.00">elevation_v</text>
</g>
<!-- 13&#45;&gt;14 -->
<g id="edge14" class="edge">
<title>13&#45;&gt;14</title>
<path fill="none" stroke="black" d="M659.1,-241.72C663.23,-233.44 668.14,-223.62 672.74,-214.41"/>
<polygon fill="black" stroke="black" points="675.73,-216.25 677.06,-205.74 669.47,-213.12 675.73,-216.25"/>
</g>
</g>
</svg>
