<?xml version="1.0" encoding="UTF-8" standalone="no"?>
<!DOCTYPE svg PUBLIC "-//W3C//DTD SVG 1.1//EN"
 "http://www.w3.org/Graphics/SVG/1.1/DTD/svg11.dtd">
<!-- Generated by graphviz version 12.2.1 (0)
 -->
<!-- Title: G Pages: 1 -->
<svg width="798pt" height="485pt"
 viewBox="36.00 36.00 762.31 449.42" xmlns="http://www.w3.org/2000/svg" xmlns:xlink="http://www.w3.org/1999/xlink">
<g id="graph0" class="graph" transform="scale(1 1) rotate(0) translate(40 445.42)">
<title>G</title>
<polygon fill="white" stroke="none" points="-4,4 -4,-409.42 722.31,-409.42 722.31,4 -4,4"/>
<text text-anchor="middle" x="359.15" y="-388.82" font-family="Times New Roman,serif" font-size="14.00">(&#39;best_tree_3000pop_15gen_20runs_res200_17subrun&#39;, &#39;&#39;)</text>
<!-- 0 -->
<g id="node1" class="node">
<title>0</title>
<ellipse fill="white" stroke="black" cx="378.04" cy="-342.56" rx="27" ry="22.06"/>
<text text-anchor="middle" x="378.04" y="-338.36" font-family="Arial" font-size="14.00">add</text>
</g>
<!-- 1 -->
<g id="node2" class="node">
<title>1</title>
<ellipse fill="white" stroke="black" cx="328.04" cy="-262.43" rx="27" ry="22.06"/>
<text text-anchor="middle" x="328.04" y="-258.23" font-family="Arial" font-size="14.00">sub</text>
</g>
<!-- 0&#45;&gt;1 -->
<g id="edge1" class="edge">
<title>0&#45;&gt;1</title>
<path fill="none" stroke="black" d="M365.94,-322.64C360.03,-313.4 352.79,-302.09 346.23,-291.84"/>
<polygon fill="black" stroke="black" points="349.36,-290.25 341.03,-283.72 343.47,-294.02 349.36,-290.25"/>
</g>
<!-- 7 -->
<g id="node8" class="node">
<title>7</title>
<ellipse fill="white" stroke="black" cx="429.04" cy="-262.43" rx="27" ry="22.06"/>
<text text-anchor="middle" x="429.04" y="-258.23" font-family="Arial" font-size="14.00">sub</text>
</g>
<!-- 0&#45;&gt;7 -->
<g id="edge7" class="edge">
<title>0&#45;&gt;7</title>
<path fill="none" stroke="black" d="M390.39,-322.64C396.42,-313.4 403.81,-302.09 410.5,-291.84"/>
<polygon fill="black" stroke="black" points="413.27,-293.99 415.81,-283.71 407.41,-290.17 413.27,-293.99"/>
</g>
<!-- 2 -->
<g id="node3" class="node">
<title>2</title>
<ellipse fill="white" stroke="black" cx="190.04" cy="-182.31" rx="63.57" ry="22.06"/>
<text text-anchor="middle" x="190.04" y="-178.11" font-family="Arial" font-size="14.00">if_then_else</text>
</g>
<!-- 1&#45;&gt;2 -->
<g id="edge2" class="edge">
<title>1&#45;&gt;2</title>
<path fill="none" stroke="black" d="M306.18,-249.05C286.41,-237.86 256.74,-221.07 232.35,-207.26"/>
<polygon fill="black" stroke="black" points="234.34,-204.37 223.92,-202.48 230.9,-210.46 234.34,-204.37"/>
</g>
<!-- 6 -->
<g id="node7" class="node">
<title>6</title>
<ellipse fill="white" stroke="black" cx="328.04" cy="-182.31" rx="55.31" ry="22.06"/>
<text text-anchor="middle" x="328.04" y="-178.11" font-family="Arial" font-size="14.00">steepness</text>
</g>
<!-- 1&#45;&gt;6 -->
<g id="edge6" class="edge">
<title>1&#45;&gt;6</title>
<path fill="none" stroke="black" d="M328.04,-240.08C328.04,-232.68 328.04,-224.19 328.04,-216.08"/>
<polygon fill="black" stroke="black" points="331.54,-216.14 328.04,-206.14 324.54,-216.14 331.54,-216.14"/>
</g>
<!-- 3 -->
<g id="node4" class="node">
<title>3</title>
<ellipse fill="white" stroke="black" cx="47.04" cy="-102.19" rx="47.04" ry="22.06"/>
<text text-anchor="middle" x="47.04" y="-97.99" font-family="Arial" font-size="14.00">is_water</text>
</g>
<!-- 2&#45;&gt;3 -->
<g id="edge3" class="edge">
<title>2&#45;&gt;3</title>
<path fill="none" stroke="black" d="M156.88,-163.19C136.08,-151.83 109.14,-137.11 87.14,-125.09"/>
<polygon fill="black" stroke="black" points="88.89,-122.06 78.44,-120.34 85.54,-128.2 88.89,-122.06"/>
</g>
<!-- 4 -->
<g id="node5" class="node">
<title>4</title>
<ellipse fill="white" stroke="black" cx="159.04" cy="-102.19" rx="47.05" ry="22.06"/>
<text text-anchor="middle" x="159.04" y="-97.99" font-family="Arial" font-size="14.00">distance</text>
</g>
<!-- 2&#45;&gt;4 -->
<g id="edge4" class="edge">
<title>2&#45;&gt;4</title>
<path fill="none" stroke="black" d="M181.57,-159.96C178.51,-152.23 174.98,-143.33 171.63,-134.9"/>
<polygon fill="black" stroke="black" points="174.9,-133.65 167.96,-125.64 168.39,-136.23 174.9,-133.65"/>
</g>
<!-- 5 -->
<g id="node6" class="node">
<title>5</title>
<ellipse fill="white" stroke="black" cx="285.04" cy="-102.19" rx="60.82" ry="22.06"/>
<text text-anchor="middle" x="285.04" y="-97.99" font-family="Arial" font-size="14.00">elevation_u</text>
</g>
<!-- 2&#45;&gt;5 -->
<g id="edge5" class="edge">
<title>2&#45;&gt;5</title>
<path fill="none" stroke="black" d="M214.02,-161.59C225.61,-152.06 239.69,-140.48 252.26,-130.15"/>
<polygon fill="black" stroke="black" points="254.41,-132.91 259.91,-123.85 249.96,-127.5 254.41,-132.91"/>
</g>
<!-- 8 -->
<g id="node9" class="node">
<title>8</title>
<ellipse fill="white" stroke="black" cx="429.04" cy="-182.31" rx="27" ry="22.06"/>
<text text-anchor="middle" x="429.04" y="-178.11" font-family="Arial" font-size="14.00">mul</text>
</g>
<!-- 7&#45;&gt;8 -->
<g id="edge8" class="edge">
<title>7&#45;&gt;8</title>
<path fill="none" stroke="black" d="M429.04,-240.08C429.04,-232.68 429.04,-224.19 429.04,-216.08"/>
<polygon fill="black" stroke="black" points="432.54,-216.14 429.04,-206.14 425.54,-216.14 432.54,-216.14"/>
</g>
<!-- 11 -->
<g id="node12" class="node">
<title>11</title>
<ellipse fill="white" stroke="black" cx="561.04" cy="-182.31" rx="27" ry="22.06"/>
<text text-anchor="middle" x="561.04" y="-178.11" font-family="Arial" font-size="14.00">neg</text>
</g>
<!-- 7&#45;&gt;11 -->
<g id="edge11" class="edge">
<title>7&#45;&gt;11</title>
<path fill="none" stroke="black" d="M450.55,-248.71C472.02,-235.99 505.27,-216.32 529.69,-201.87"/>
<polygon fill="black" stroke="black" points="531.43,-204.91 538.25,-196.8 527.86,-198.88 531.43,-204.91"/>
</g>
<!-- 9 -->
<g id="node10" class="node">
<title>9</title>
<ellipse fill="white" stroke="black" cx="399.04" cy="-102.19" rx="34.96" ry="22.06"/>
<text text-anchor="middle" x="399.04" y="-97.99" font-family="Arial" font-size="14.00">4.721</text>
</g>
<!-- 8&#45;&gt;9 -->
<g id="edge9" class="edge">
<title>8&#45;&gt;9</title>
<path fill="none" stroke="black" d="M421.16,-160.78C418.11,-152.84 414.55,-143.56 411.18,-134.8"/>
<polygon fill="black" stroke="black" points="414.48,-133.61 407.63,-125.53 407.94,-136.12 414.48,-133.61"/>
</g>
<!-- 10 -->
<g id="node11" class="node">
<title>10</title>
<ellipse fill="white" stroke="black" cx="499.04" cy="-102.19" rx="47.05" ry="22.06"/>
<text text-anchor="middle" x="499.04" y="-97.99" font-family="Arial" font-size="14.00">distance</text>
</g>
<!-- 8&#45;&gt;10 -->
<g id="edge10" class="edge">
<title>8&#45;&gt;10</title>
<path fill="none" stroke="black" d="M444.58,-163.97C453.16,-154.39 464.03,-142.26 473.8,-131.36"/>
<polygon fill="black" stroke="black" points="476.26,-133.86 480.32,-124.08 471.04,-129.19 476.26,-133.86"/>
</g>
<!-- 12 -->
<g id="node13" class="node">
<title>12</title>
<ellipse fill="white" stroke="black" cx="591.04" cy="-102.19" rx="27" ry="22.06"/>
<text text-anchor="middle" x="591.04" y="-97.99" font-family="Arial" font-size="14.00">sub</text>
</g>
<!-- 11&#45;&gt;12 -->
<g id="edge12" class="edge">
<title>11&#45;&gt;12</title>
<path fill="none" stroke="black" d="M568.93,-160.78C572.06,-152.62 575.74,-143.05 579.18,-134.08"/>
<polygon fill="black" stroke="black" points="582.35,-135.58 582.67,-124.99 575.82,-133.07 582.35,-135.58"/>
</g>
<!-- 13 -->
<g id="node14" class="node">
<title>13</title>
<ellipse fill="white" stroke="black" cx="524.04" cy="-22.06" rx="55.31" ry="22.06"/>
<text text-anchor="middle" x="524.04" y="-17.86" font-family="Arial" font-size="14.00">steepness</text>
</g>
<!-- 12&#45;&gt;13 -->
<g id="edge13" class="edge">
<title>12&#45;&gt;13</title>
<path fill="none" stroke="black" d="M575.84,-83.46C567.88,-74.17 557.93,-62.57 548.88,-52.02"/>
<polygon fill="black" stroke="black" points="551.71,-49.94 542.54,-44.63 546.39,-54.5 551.71,-49.94"/>
</g>
<!-- 14 -->
<g id="node15" class="node">
<title>14</title>
<ellipse fill="white" stroke="black" cx="658.04" cy="-22.06" rx="60.26" ry="22.06"/>
<text text-anchor="middle" x="658.04" y="-17.86" font-family="Arial" font-size="14.00">elevation_v</text>
</g>
<!-- 12&#45;&gt;14 -->
<g id="edge14" class="edge">
<title>12&#45;&gt;14</title>
<path fill="none" stroke="black" d="M606.25,-83.46C614.21,-74.17 624.16,-62.57 633.21,-52.02"/>
<polygon fill="black" stroke="black" points="635.7,-54.5 639.55,-44.63 630.38,-49.94 635.7,-54.5"/>
</g>
</g>
</svg>
