<?xml version="1.0" encoding="UTF-8" standalone="no"?>
<!DOCTYPE svg PUBLIC "-//W3C//DTD SVG 1.1//EN"
 "http://www.w3.org/Graphics/SVG/1.1/DTD/svg11.dtd">
<!-- Generated by graphviz version 12.2.1 (0)
 -->
<!-- Title: G Pages: 1 -->
<svg width="775pt" height="485pt"
 viewBox="36.00 36.00 739.31 449.42" xmlns="http://www.w3.org/2000/svg" xmlns:xlink="http://www.w3.org/1999/xlink">
<g id="graph0" class="graph" transform="scale(1 1) rotate(0) translate(40 445.42)">
<title>G</title>
<polygon fill="white" stroke="none" points="-4,4 -4,-409.42 699.31,-409.42 699.31,4 -4,4"/>
<text text-anchor="middle" x="347.65" y="-388.82" font-family="Times New Roman,serif" font-size="14.00">(&#39;best_tree_3000pop_15gen_20runs_res200_5subrun&#39;, &#39;&#39;)</text>
<!-- 0 -->
<g id="node1" class="node">
<title>0</title>
<ellipse fill="white" stroke="black" cx="424.04" cy="-342.56" rx="27" ry="22.06"/>
<text text-anchor="middle" x="424.04" y="-338.36" font-family="Arial" font-size="14.00">add</text>
</g>
<!-- 1 -->
<g id="node2" class="node">
<title>1</title>
<ellipse fill="white" stroke="black" cx="374.04" cy="-262.43" rx="27" ry="22.06"/>
<text text-anchor="middle" x="374.04" y="-258.23" font-family="Arial" font-size="14.00">sub</text>
</g>
<!-- 0&#45;&gt;1 -->
<g id="edge1" class="edge">
<title>0&#45;&gt;1</title>
<path fill="none" stroke="black" d="M411.94,-322.64C406.03,-313.4 398.79,-302.09 392.23,-291.84"/>
<polygon fill="black" stroke="black" points="395.36,-290.25 387.03,-283.72 389.47,-294.02 395.36,-290.25"/>
</g>
<!-- 7 -->
<g id="node8" class="node">
<title>7</title>
<ellipse fill="white" stroke="black" cx="485.04" cy="-262.43" rx="27" ry="22.06"/>
<text text-anchor="middle" x="485.04" y="-258.23" font-family="Arial" font-size="14.00">sub</text>
</g>
<!-- 0&#45;&gt;7 -->
<g id="edge7" class="edge">
<title>0&#45;&gt;7</title>
<path fill="none" stroke="black" d="M438.19,-323.44C445.89,-313.58 455.56,-301.19 464.12,-290.23"/>
<polygon fill="black" stroke="black" points="466.65,-292.68 470.04,-282.65 461.13,-288.37 466.65,-292.68"/>
</g>
<!-- 2 -->
<g id="node3" class="node">
<title>2</title>
<ellipse fill="white" stroke="black" cx="216.04" cy="-182.31" rx="63.57" ry="22.06"/>
<text text-anchor="middle" x="216.04" y="-178.11" font-family="Arial" font-size="14.00">if_then_else</text>
</g>
<!-- 1&#45;&gt;2 -->
<g id="edge2" class="edge">
<title>1&#45;&gt;2</title>
<path fill="none" stroke="black" d="M351.07,-250.07C327.72,-238.53 290.91,-220.33 261.62,-205.84"/>
<polygon fill="black" stroke="black" points="263.48,-202.86 252.97,-201.56 260.38,-209.13 263.48,-202.86"/>
</g>
<!-- 6 -->
<g id="node7" class="node">
<title>6</title>
<ellipse fill="white" stroke="black" cx="374.04" cy="-182.31" rx="55.31" ry="22.06"/>
<text text-anchor="middle" x="374.04" y="-178.11" font-family="Arial" font-size="14.00">steepness</text>
</g>
<!-- 1&#45;&gt;6 -->
<g id="edge6" class="edge">
<title>1&#45;&gt;6</title>
<path fill="none" stroke="black" d="M374.04,-240.08C374.04,-232.68 374.04,-224.19 374.04,-216.08"/>
<polygon fill="black" stroke="black" points="377.54,-216.14 374.04,-206.14 370.54,-216.14 377.54,-216.14"/>
</g>
<!-- 3 -->
<g id="node4" class="node">
<title>3</title>
<ellipse fill="white" stroke="black" cx="47.04" cy="-102.19" rx="47.04" ry="22.06"/>
<text text-anchor="middle" x="47.04" y="-97.99" font-family="Arial" font-size="14.00">is_water</text>
</g>
<!-- 2&#45;&gt;3 -->
<g id="edge3" class="edge">
<title>2&#45;&gt;3</title>
<path fill="none" stroke="black" d="M178.96,-164.16C152.68,-152.02 117.36,-135.69 89.88,-122.98"/>
<polygon fill="black" stroke="black" points="91.68,-119.96 81.14,-118.95 88.75,-126.32 91.68,-119.96"/>
</g>
<!-- 4 -->
<g id="node5" class="node">
<title>4</title>
<ellipse fill="white" stroke="black" cx="173.04" cy="-102.19" rx="60.82" ry="22.06"/>
<text text-anchor="middle" x="173.04" y="-97.99" font-family="Arial" font-size="14.00">elevation_u</text>
</g>
<!-- 2&#45;&gt;4 -->
<g id="edge4" class="edge">
<title>2&#45;&gt;4</title>
<path fill="none" stroke="black" d="M204.52,-160.37C200.09,-152.32 194.92,-142.94 190.08,-134.14"/>
<polygon fill="black" stroke="black" points="193.22,-132.58 185.33,-125.5 187.09,-135.95 193.22,-132.58"/>
</g>
<!-- 5 -->
<g id="node6" class="node">
<title>5</title>
<ellipse fill="white" stroke="black" cx="299.04" cy="-102.19" rx="47.05" ry="22.06"/>
<text text-anchor="middle" x="299.04" y="-97.99" font-family="Arial" font-size="14.00">distance</text>
</g>
<!-- 2&#45;&gt;5 -->
<g id="edge5" class="edge">
<title>2&#45;&gt;5</title>
<path fill="none" stroke="black" d="M237.42,-161.19C247.42,-151.77 259.49,-140.42 270.28,-130.26"/>
<polygon fill="black" stroke="black" points="272.62,-132.87 277.5,-123.47 267.82,-127.77 272.62,-132.87"/>
</g>
<!-- 8 -->
<g id="node9" class="node">
<title>8</title>
<ellipse fill="white" stroke="black" cx="485.04" cy="-182.31" rx="27" ry="22.06"/>
<text text-anchor="middle" x="485.04" y="-178.11" font-family="Arial" font-size="14.00">sub</text>
</g>
<!-- 7&#45;&gt;8 -->
<g id="edge8" class="edge">
<title>7&#45;&gt;8</title>
<path fill="none" stroke="black" d="M485.04,-240.08C485.04,-232.68 485.04,-224.19 485.04,-216.08"/>
<polygon fill="black" stroke="black" points="488.54,-216.14 485.04,-206.14 481.54,-216.14 488.54,-216.14"/>
</g>
<!-- 13 -->
<g id="node14" class="node">
<title>13</title>
<ellipse fill="white" stroke="black" cx="596.04" cy="-182.31" rx="27" ry="22.06"/>
<text text-anchor="middle" x="596.04" y="-178.11" font-family="Arial" font-size="14.00">neg</text>
</g>
<!-- 7&#45;&gt;13 -->
<g id="edge13" class="edge">
<title>7&#45;&gt;13</title>
<path fill="none" stroke="black" d="M505.15,-247.28C522.36,-235.17 547.36,-217.57 566.79,-203.9"/>
<polygon fill="black" stroke="black" points="568.69,-206.84 574.85,-198.22 564.66,-201.12 568.69,-206.84"/>
</g>
<!-- 9 -->
<g id="node10" class="node">
<title>9</title>
<ellipse fill="white" stroke="black" cx="391.04" cy="-102.19" rx="27" ry="22.06"/>
<text text-anchor="middle" x="391.04" y="-97.99" font-family="Arial" font-size="14.00">mul</text>
</g>
<!-- 8&#45;&gt;9 -->
<g id="edge9" class="edge">
<title>8&#45;&gt;9</title>
<path fill="none" stroke="black" d="M466.47,-165.87C452.7,-154.42 433.7,-138.64 418.22,-125.77"/>
<polygon fill="black" stroke="black" points="420.67,-123.26 410.74,-119.56 416.19,-128.64 420.67,-123.26"/>
</g>
<!-- 12 -->
<g id="node13" class="node">
<title>12</title>
<ellipse fill="white" stroke="black" cx="496.04" cy="-102.19" rx="60.26" ry="22.06"/>
<text text-anchor="middle" x="496.04" y="-97.99" font-family="Arial" font-size="14.00">elevation_v</text>
</g>
<!-- 8&#45;&gt;12 -->
<g id="edge12" class="edge">
<title>8&#45;&gt;12</title>
<path fill="none" stroke="black" d="M488.05,-159.96C489.11,-152.47 490.32,-143.87 491.47,-135.68"/>
<polygon fill="black" stroke="black" points="494.9,-136.4 492.83,-126.01 487.97,-135.42 494.9,-136.4"/>
</g>
<!-- 10 -->
<g id="node11" class="node">
<title>10</title>
<ellipse fill="white" stroke="black" cx="341.04" cy="-22.06" rx="34.96" ry="22.06"/>
<text text-anchor="middle" x="341.04" y="-17.86" font-family="Arial" font-size="14.00">5.414</text>
</g>
<!-- 9&#45;&gt;10 -->
<g id="edge10" class="edge">
<title>9&#45;&gt;10</title>
<path fill="none" stroke="black" d="M378.94,-82.27C373.22,-73.33 366.25,-62.45 359.86,-52.47"/>
<polygon fill="black" stroke="black" points="362.89,-50.7 354.55,-44.16 356.99,-54.47 362.89,-50.7"/>
</g>
<!-- 11 -->
<g id="node12" class="node">
<title>11</title>
<ellipse fill="white" stroke="black" cx="441.04" cy="-22.06" rx="47.05" ry="22.06"/>
<text text-anchor="middle" x="441.04" y="-17.86" font-family="Arial" font-size="14.00">distance</text>
</g>
<!-- 9&#45;&gt;11 -->
<g id="edge11" class="edge">
<title>9&#45;&gt;11</title>
<path fill="none" stroke="black" d="M403.15,-82.27C408.74,-73.54 415.52,-62.95 421.79,-53.15"/>
<polygon fill="black" stroke="black" points="424.57,-55.3 427.01,-44.99 418.67,-51.53 424.57,-55.3"/>
</g>
<!-- 14 -->
<g id="node15" class="node">
<title>14</title>
<ellipse fill="white" stroke="black" cx="635.04" cy="-102.19" rx="60.26" ry="22.06"/>
<text text-anchor="middle" x="635.04" y="-97.99" font-family="Arial" font-size="14.00">elevation_v</text>
</g>
<!-- 13&#45;&gt;14 -->
<g id="edge14" class="edge">
<title>13&#45;&gt;14</title>
<path fill="none" stroke="black" d="M605.89,-161.59C610.02,-153.32 614.92,-143.49 619.52,-134.28"/>
<polygon fill="black" stroke="black" points="622.51,-136.13 623.85,-125.62 616.25,-133 622.51,-136.13"/>
</g>
</g>
</svg>
