<?xml version="1.0" encoding="UTF-8" standalone="no"?>
<!DOCTYPE svg PUBLIC "-//W3C//DTD SVG 1.1//EN"
 "http://www.w3.org/Graphics/SVG/1.1/DTD/svg11.dtd">
<!-- Generated by graphviz version 12.2.1 (0)
 -->
<!-- Title: G Pages: 1 -->
<svg width="826pt" height="485pt"
 viewBox="36.00 36.00 790.31 449.42" xmlns="http://www.w3.org/2000/svg" xmlns:xlink="http://www.w3.org/1999/xlink">
<g id="graph0" class="graph" transform="scale(1 1) rotate(0) translate(40 445.42)">
<title>G</title>
<polygon fill="white" stroke="none" points="-4,4 -4,-409.42 750.31,-409.42 750.31,4 -4,4"/>
<text text-anchor="middle" x="373.15" y="-388.82" font-family="Times New Roman,serif" font-size="14.00">(&#39;best_2tree_3000pop_15gen_20runs_res200_20subrun&#39;, &#39;&#39;)</text>
<!-- 0 -->
<g id="node1" class="node">
<title>0</title>
<ellipse fill="white" stroke="black" cx="403.04" cy="-342.56" rx="27" ry="22.06"/>
<text text-anchor="middle" x="403.04" y="-338.36" font-family="Arial" font-size="14.00">add</text>
</g>
<!-- 1 -->
<g id="node2" class="node">
<title>1</title>
<ellipse fill="white" stroke="black" cx="353.04" cy="-262.43" rx="27" ry="22.06"/>
<text text-anchor="middle" x="353.04" y="-258.23" font-family="Arial" font-size="14.00">sub</text>
</g>
<!-- 0&#45;&gt;1 -->
<g id="edge1" class="edge">
<title>0&#45;&gt;1</title>
<path fill="none" stroke="black" d="M390.94,-322.64C385.03,-313.4 377.79,-302.09 371.23,-291.84"/>
<polygon fill="black" stroke="black" points="374.36,-290.25 366.03,-283.72 368.47,-294.02 374.36,-290.25"/>
</g>
<!-- 7 -->
<g id="node8" class="node">
<title>7</title>
<ellipse fill="white" stroke="black" cx="457.04" cy="-262.43" rx="27" ry="22.06"/>
<text text-anchor="middle" x="457.04" y="-258.23" font-family="Arial" font-size="14.00">sub</text>
</g>
<!-- 0&#45;&gt;7 -->
<g id="edge7" class="edge">
<title>0&#45;&gt;7</title>
<path fill="none" stroke="black" d="M415.84,-323.04C422.38,-313.58 430.48,-301.86 437.76,-291.33"/>
<polygon fill="black" stroke="black" points="440.48,-293.55 443.29,-283.33 434.73,-289.57 440.48,-293.55"/>
</g>
<!-- 2 -->
<g id="node3" class="node">
<title>2</title>
<ellipse fill="white" stroke="black" cx="208.04" cy="-182.31" rx="63.57" ry="22.06"/>
<text text-anchor="middle" x="208.04" y="-178.11" font-family="Arial" font-size="14.00">if_then_else</text>
</g>
<!-- 1&#45;&gt;2 -->
<g id="edge2" class="edge">
<title>1&#45;&gt;2</title>
<path fill="none" stroke="black" d="M330.71,-249.4C309.74,-238.1 277.79,-220.88 251.75,-206.86"/>
<polygon fill="black" stroke="black" points="253.53,-203.84 243.07,-202.18 250.21,-210 253.53,-203.84"/>
</g>
<!-- 6 -->
<g id="node7" class="node">
<title>6</title>
<ellipse fill="white" stroke="black" cx="353.04" cy="-182.31" rx="55.31" ry="22.06"/>
<text text-anchor="middle" x="353.04" y="-178.11" font-family="Arial" font-size="14.00">steepness</text>
</g>
<!-- 1&#45;&gt;6 -->
<g id="edge6" class="edge">
<title>1&#45;&gt;6</title>
<path fill="none" stroke="black" d="M353.04,-240.08C353.04,-232.68 353.04,-224.19 353.04,-216.08"/>
<polygon fill="black" stroke="black" points="356.54,-216.14 353.04,-206.14 349.54,-216.14 356.54,-216.14"/>
</g>
<!-- 3 -->
<g id="node4" class="node">
<title>3</title>
<ellipse fill="white" stroke="black" cx="47.04" cy="-102.19" rx="47.04" ry="22.06"/>
<text text-anchor="middle" x="47.04" y="-97.99" font-family="Arial" font-size="14.00">is_water</text>
</g>
<!-- 2&#45;&gt;3 -->
<g id="edge3" class="edge">
<title>2&#45;&gt;3</title>
<path fill="none" stroke="black" d="M171.91,-163.78C147.39,-151.87 114.87,-136.1 89.16,-123.62"/>
<polygon fill="black" stroke="black" points="90.85,-120.55 80.33,-119.34 87.8,-126.85 90.85,-120.55"/>
</g>
<!-- 4 -->
<g id="node5" class="node">
<title>4</title>
<ellipse fill="white" stroke="black" cx="173.04" cy="-102.19" rx="60.82" ry="22.06"/>
<text text-anchor="middle" x="173.04" y="-97.99" font-family="Arial" font-size="14.00">elevation_u</text>
</g>
<!-- 2&#45;&gt;4 -->
<g id="edge4" class="edge">
<title>2&#45;&gt;4</title>
<path fill="none" stroke="black" d="M198.67,-160.37C195.16,-152.56 191.1,-143.49 187.26,-134.92"/>
<polygon fill="black" stroke="black" points="190.47,-133.53 183.19,-125.83 184.08,-136.39 190.47,-133.53"/>
</g>
<!-- 5 -->
<g id="node6" class="node">
<title>5</title>
<ellipse fill="white" stroke="black" cx="313.04" cy="-102.19" rx="60.82" ry="22.06"/>
<text text-anchor="middle" x="313.04" y="-97.99" font-family="Arial" font-size="14.00">elevation_u</text>
</g>
<!-- 2&#45;&gt;5 -->
<g id="edge5" class="edge">
<title>2&#45;&gt;5</title>
<path fill="none" stroke="black" d="M234.27,-161.8C247.52,-151.93 263.79,-139.83 278.09,-129.19"/>
<polygon fill="black" stroke="black" points="280.01,-132.13 285.94,-123.35 275.83,-126.51 280.01,-132.13"/>
</g>
<!-- 8 -->
<g id="node9" class="node">
<title>8</title>
<ellipse fill="white" stroke="black" cx="457.04" cy="-182.31" rx="27" ry="22.06"/>
<text text-anchor="middle" x="457.04" y="-178.11" font-family="Arial" font-size="14.00">mul</text>
</g>
<!-- 7&#45;&gt;8 -->
<g id="edge8" class="edge">
<title>7&#45;&gt;8</title>
<path fill="none" stroke="black" d="M457.04,-240.08C457.04,-232.68 457.04,-224.19 457.04,-216.08"/>
<polygon fill="black" stroke="black" points="460.54,-216.14 457.04,-206.14 453.54,-216.14 460.54,-216.14"/>
</g>
<!-- 11 -->
<g id="node12" class="node">
<title>11</title>
<ellipse fill="white" stroke="black" cx="589.04" cy="-182.31" rx="27" ry="22.06"/>
<text text-anchor="middle" x="589.04" y="-178.11" font-family="Arial" font-size="14.00">neg</text>
</g>
<!-- 7&#45;&gt;11 -->
<g id="edge11" class="edge">
<title>7&#45;&gt;11</title>
<path fill="none" stroke="black" d="M478.55,-248.71C500.02,-235.99 533.27,-216.32 557.69,-201.87"/>
<polygon fill="black" stroke="black" points="559.43,-204.91 566.25,-196.8 555.86,-198.88 559.43,-204.91"/>
</g>
<!-- 9 -->
<g id="node10" class="node">
<title>9</title>
<ellipse fill="white" stroke="black" cx="427.04" cy="-102.19" rx="34.96" ry="22.06"/>
<text text-anchor="middle" x="427.04" y="-97.99" font-family="Arial" font-size="14.00">9.781</text>
</g>
<!-- 8&#45;&gt;9 -->
<g id="edge9" class="edge">
<title>8&#45;&gt;9</title>
<path fill="none" stroke="black" d="M449.16,-160.78C446.11,-152.84 442.55,-143.56 439.18,-134.8"/>
<polygon fill="black" stroke="black" points="442.48,-133.61 435.63,-125.53 435.94,-136.12 442.48,-133.61"/>
</g>
<!-- 10 -->
<g id="node11" class="node">
<title>10</title>
<ellipse fill="white" stroke="black" cx="527.04" cy="-102.19" rx="47.05" ry="22.06"/>
<text text-anchor="middle" x="527.04" y="-97.99" font-family="Arial" font-size="14.00">distance</text>
</g>
<!-- 8&#45;&gt;10 -->
<g id="edge10" class="edge">
<title>8&#45;&gt;10</title>
<path fill="none" stroke="black" d="M472.58,-163.97C481.16,-154.39 492.03,-142.26 501.8,-131.36"/>
<polygon fill="black" stroke="black" points="504.26,-133.86 508.32,-124.08 499.04,-129.19 504.26,-133.86"/>
</g>
<!-- 12 -->
<g id="node13" class="node">
<title>12</title>
<ellipse fill="white" stroke="black" cx="619.04" cy="-102.19" rx="27" ry="22.06"/>
<text text-anchor="middle" x="619.04" y="-97.99" font-family="Arial" font-size="14.00">sub</text>
</g>
<!-- 11&#45;&gt;12 -->
<g id="edge12" class="edge">
<title>11&#45;&gt;12</title>
<path fill="none" stroke="black" d="M596.93,-160.78C600.06,-152.62 603.74,-143.05 607.18,-134.08"/>
<polygon fill="black" stroke="black" points="610.35,-135.58 610.67,-124.99 603.82,-133.07 610.35,-135.58"/>
</g>
<!-- 13 -->
<g id="node14" class="node">
<title>13</title>
<ellipse fill="white" stroke="black" cx="552.04" cy="-22.06" rx="55.31" ry="22.06"/>
<text text-anchor="middle" x="552.04" y="-17.86" font-family="Arial" font-size="14.00">steepness</text>
</g>
<!-- 12&#45;&gt;13 -->
<g id="edge13" class="edge">
<title>12&#45;&gt;13</title>
<path fill="none" stroke="black" d="M603.84,-83.46C595.88,-74.17 585.93,-62.57 576.88,-52.02"/>
<polygon fill="black" stroke="black" points="579.71,-49.94 570.54,-44.63 574.39,-54.5 579.71,-49.94"/>
</g>
<!-- 14 -->
<g id="node15" class="node">
<title>14</title>
<ellipse fill="white" stroke="black" cx="686.04" cy="-22.06" rx="60.26" ry="22.06"/>
<text text-anchor="middle" x="686.04" y="-17.86" font-family="Arial" font-size="14.00">elevation_v</text>
</g>
<!-- 12&#45;&gt;14 -->
<g id="edge14" class="edge">
<title>12&#45;&gt;14</title>
<path fill="none" stroke="black" d="M634.25,-83.46C642.21,-74.17 652.16,-62.57 661.21,-52.02"/>
<polygon fill="black" stroke="black" points="663.7,-54.5 667.55,-44.63 658.38,-49.94 663.7,-54.5"/>
</g>
</g>
</svg>
