<?xml version="1.0" encoding="UTF-8" standalone="no"?>
<!DOCTYPE svg PUBLIC "-//W3C//DTD SVG 1.1//EN"
 "http://www.w3.org/Graphics/SVG/1.1/DTD/svg11.dtd">
<!-- Generated by graphviz version 12.2.1 (0)
 -->
<!-- Title: G Pages: 1 -->
<svg width="917pt" height="485pt"
 viewBox="36.00 36.00 880.53 449.42" xmlns="http://www.w3.org/2000/svg" xmlns:xlink="http://www.w3.org/1999/xlink">
<g id="graph0" class="graph" transform="scale(1 1) rotate(0) translate(40 445.42)">
<title>G</title>
<polygon fill="white" stroke="none" points="-4,4 -4,-409.42 840.53,-409.42 840.53,4 -4,4"/>
<text text-anchor="middle" x="418.26" y="-388.82" font-family="Times New Roman,serif" font-size="14.00">(&#39;best_tree_3000pop_15gen_20runs_res200_1subrun&#39;, &#39;&#39;)</text>
<!-- 0 -->
<g id="node1" class="node">
<title>0</title>
<ellipse fill="white" stroke="black" cx="497.26" cy="-342.56" rx="27" ry="22.06"/>
<text text-anchor="middle" x="497.26" y="-338.36" font-family="Arial" font-size="14.00">add</text>
</g>
<!-- 1 -->
<g id="node2" class="node">
<title>1</title>
<ellipse fill="white" stroke="black" cx="443.26" cy="-262.43" rx="27" ry="22.06"/>
<text text-anchor="middle" x="443.26" y="-258.23" font-family="Arial" font-size="14.00">sub</text>
</g>
<!-- 0&#45;&gt;1 -->
<g id="edge1" class="edge">
<title>0&#45;&gt;1</title>
<path fill="none" stroke="black" d="M484.46,-323.04C477.92,-313.58 469.82,-301.86 462.54,-291.33"/>
<polygon fill="black" stroke="black" points="465.58,-289.57 457.01,-283.33 459.82,-293.55 465.58,-289.57"/>
</g>
<!-- 9 -->
<g id="node10" class="node">
<title>9</title>
<ellipse fill="white" stroke="black" cx="589.26" cy="-262.43" rx="27" ry="22.06"/>
<text text-anchor="middle" x="589.26" y="-258.23" font-family="Arial" font-size="14.00">sub</text>
</g>
<!-- 0&#45;&gt;9 -->
<g id="edge9" class="edge">
<title>0&#45;&gt;9</title>
<path fill="none" stroke="black" d="M515.44,-326.12C528.83,-314.75 547.27,-299.09 562.37,-286.27"/>
<polygon fill="black" stroke="black" points="564.3,-289.22 569.65,-280.08 559.77,-283.89 564.3,-289.22"/>
</g>
<!-- 2 -->
<g id="node3" class="node">
<title>2</title>
<ellipse fill="white" stroke="black" cx="278.26" cy="-182.31" rx="63.57" ry="22.06"/>
<text text-anchor="middle" x="278.26" y="-178.11" font-family="Arial" font-size="14.00">if_then_else</text>
</g>
<!-- 1&#45;&gt;2 -->
<g id="edge2" class="edge">
<title>1&#45;&gt;2</title>
<path fill="none" stroke="black" d="M420.32,-250.57C395.82,-238.97 356.3,-220.26 325.16,-205.52"/>
<polygon fill="black" stroke="black" points="326.86,-202.45 316.33,-201.33 323.87,-208.77 326.86,-202.45"/>
</g>
<!-- 7 -->
<g id="node8" class="node">
<title>7</title>
<ellipse fill="white" stroke="black" cx="443.26" cy="-182.31" rx="27" ry="22.06"/>
<text text-anchor="middle" x="443.26" y="-178.11" font-family="Arial" font-size="14.00">neg</text>
</g>
<!-- 1&#45;&gt;7 -->
<g id="edge7" class="edge">
<title>1&#45;&gt;7</title>
<path fill="none" stroke="black" d="M443.26,-240.08C443.26,-232.68 443.26,-224.19 443.26,-216.08"/>
<polygon fill="black" stroke="black" points="446.76,-216.14 443.26,-206.14 439.76,-216.14 446.76,-216.14"/>
</g>
<!-- 3 -->
<g id="node4" class="node">
<title>3</title>
<ellipse fill="white" stroke="black" cx="71.26" cy="-102.19" rx="71.26" ry="22.06"/>
<text text-anchor="middle" x="71.26" y="-97.99" font-family="Arial" font-size="14.00">identity_water</text>
</g>
<!-- 2&#45;&gt;3 -->
<g id="edge3" class="edge">
<title>2&#45;&gt;3</title>
<path fill="none" stroke="black" d="M236.12,-165.41C204.31,-153.4 160.38,-136.82 125.87,-123.79"/>
<polygon fill="black" stroke="black" points="127.49,-120.67 116.9,-120.41 125.02,-127.22 127.49,-120.67"/>
</g>
<!-- 5 -->
<g id="node6" class="node">
<title>5</title>
<ellipse fill="white" stroke="black" cx="221.26" cy="-102.19" rx="60.82" ry="22.06"/>
<text text-anchor="middle" x="221.26" y="-97.99" font-family="Arial" font-size="14.00">elevation_u</text>
</g>
<!-- 2&#45;&gt;5 -->
<g id="edge5" class="edge">
<title>2&#45;&gt;5</title>
<path fill="none" stroke="black" d="M263.29,-160.78C257.12,-152.33 249.85,-142.36 243.1,-133.12"/>
<polygon fill="black" stroke="black" points="245.95,-131.08 237.23,-125.07 240.29,-135.21 245.95,-131.08"/>
</g>
<!-- 6 -->
<g id="node7" class="node">
<title>6</title>
<ellipse fill="white" stroke="black" cx="335.26" cy="-102.19" rx="34.96" ry="22.06"/>
<text text-anchor="middle" x="335.26" y="-97.99" font-family="Arial" font-size="14.00">3.584</text>
</g>
<!-- 2&#45;&gt;6 -->
<g id="edge6" class="edge">
<title>2&#45;&gt;6</title>
<path fill="none" stroke="black" d="M293.24,-160.78C299.67,-151.97 307.3,-141.51 314.28,-131.94"/>
<polygon fill="black" stroke="black" points="317.02,-134.13 320.08,-123.99 311.36,-130 317.02,-134.13"/>
</g>
<!-- 4 -->
<g id="node5" class="node">
<title>4</title>
<ellipse fill="white" stroke="black" cx="71.26" cy="-22.06" rx="47.04" ry="22.06"/>
<text text-anchor="middle" x="71.26" y="-17.86" font-family="Arial" font-size="14.00">is_water</text>
</g>
<!-- 3&#45;&gt;4 -->
<g id="edge4" class="edge">
<title>3&#45;&gt;4</title>
<path fill="none" stroke="black" d="M71.26,-79.84C71.26,-72.43 71.26,-63.95 71.26,-55.83"/>
<polygon fill="black" stroke="black" points="74.76,-55.9 71.26,-45.9 67.76,-55.9 74.76,-55.9"/>
</g>
<!-- 8 -->
<g id="node9" class="node">
<title>8</title>
<ellipse fill="white" stroke="black" cx="443.26" cy="-102.19" rx="55.31" ry="22.06"/>
<text text-anchor="middle" x="443.26" y="-97.99" font-family="Arial" font-size="14.00">steepness</text>
</g>
<!-- 7&#45;&gt;8 -->
<g id="edge8" class="edge">
<title>7&#45;&gt;8</title>
<path fill="none" stroke="black" d="M443.26,-159.96C443.26,-152.55 443.26,-144.07 443.26,-135.96"/>
<polygon fill="black" stroke="black" points="446.76,-136.02 443.26,-126.02 439.76,-136.02 446.76,-136.02"/>
</g>
<!-- 10 -->
<g id="node11" class="node">
<title>10</title>
<ellipse fill="white" stroke="black" cx="589.26" cy="-182.31" rx="27" ry="22.06"/>
<text text-anchor="middle" x="589.26" y="-178.11" font-family="Arial" font-size="14.00">mul</text>
</g>
<!-- 9&#45;&gt;10 -->
<g id="edge10" class="edge">
<title>9&#45;&gt;10</title>
<path fill="none" stroke="black" d="M589.26,-240.08C589.26,-232.68 589.26,-224.19 589.26,-216.08"/>
<polygon fill="black" stroke="black" points="592.76,-216.14 589.26,-206.14 585.76,-216.14 592.76,-216.14"/>
</g>
<!-- 13 -->
<g id="node14" class="node">
<title>13</title>
<ellipse fill="white" stroke="black" cx="737.26" cy="-182.31" rx="27" ry="22.06"/>
<text text-anchor="middle" x="737.26" y="-178.11" font-family="Arial" font-size="14.00">neg</text>
</g>
<!-- 9&#45;&gt;13 -->
<g id="edge13" class="edge">
<title>9&#45;&gt;13</title>
<path fill="none" stroke="black" d="M611.74,-249.57C636.55,-236.47 676.7,-215.28 704.89,-200.39"/>
<polygon fill="black" stroke="black" points="706.51,-203.5 713.72,-195.74 703.24,-197.31 706.51,-203.5"/>
</g>
<!-- 11 -->
<g id="node12" class="node">
<title>11</title>
<ellipse fill="white" stroke="black" cx="551.26" cy="-102.19" rx="34.96" ry="22.06"/>
<text text-anchor="middle" x="551.26" y="-97.99" font-family="Arial" font-size="14.00">1.436</text>
</g>
<!-- 10&#45;&gt;11 -->
<g id="edge11" class="edge">
<title>10&#45;&gt;11</title>
<path fill="none" stroke="black" d="M579.67,-161.59C575.58,-153.19 570.72,-143.18 566.17,-133.84"/>
<polygon fill="black" stroke="black" points="569.43,-132.53 561.91,-125.07 563.13,-135.6 569.43,-132.53"/>
</g>
<!-- 12 -->
<g id="node13" class="node">
<title>12</title>
<ellipse fill="white" stroke="black" cx="651.26" cy="-102.19" rx="47.05" ry="22.06"/>
<text text-anchor="middle" x="651.26" y="-97.99" font-family="Arial" font-size="14.00">distance</text>
</g>
<!-- 10&#45;&gt;12 -->
<g id="edge12" class="edge">
<title>10&#45;&gt;12</title>
<path fill="none" stroke="black" d="M603.64,-163.19C610.95,-153.99 620,-142.58 628.24,-132.19"/>
<polygon fill="black" stroke="black" points="630.8,-134.6 634.27,-124.59 625.32,-130.25 630.8,-134.6"/>
</g>
<!-- 14 -->
<g id="node15" class="node">
<title>14</title>
<ellipse fill="white" stroke="black" cx="776.26" cy="-102.19" rx="60.26" ry="22.06"/>
<text text-anchor="middle" x="776.26" y="-97.99" font-family="Arial" font-size="14.00">elevation_v</text>
</g>
<!-- 13&#45;&gt;14 -->
<g id="edge14" class="edge">
<title>13&#45;&gt;14</title>
<path fill="none" stroke="black" d="M747.1,-161.59C751.23,-153.32 756.14,-143.49 760.74,-134.28"/>
<polygon fill="black" stroke="black" points="763.73,-136.13 765.06,-125.62 757.47,-133 763.73,-136.13"/>
</g>
</g>
</svg>
