<?xml version="1.0" encoding="UTF-8" standalone="no"?>
<!DOCTYPE svg PUBLIC "-//W3C//DTD SVG 1.1//EN"
 "http://www.w3.org/Graphics/SVG/1.1/DTD/svg11.dtd">
<!-- Generated by graphviz version 12.2.1 (0)
 -->
<!-- Title: G Pages: 1 -->
<svg width="897pt" height="485pt"
 viewBox="36.00 36.00 861.08 449.42" xmlns="http://www.w3.org/2000/svg" xmlns:xlink="http://www.w3.org/1999/xlink">
<g id="graph0" class="graph" transform="scale(1 1) rotate(0) translate(40 445.42)">
<title>G</title>
<polygon fill="white" stroke="none" points="-4,4 -4,-409.42 821.08,-409.42 821.08,4 -4,4"/>
<text text-anchor="middle" x="408.54" y="-388.82" font-family="Times New Roman,serif" font-size="14.00">(&#39;best_tree_3000pop_15gen_15runs_res200_6subrun&#39;, &#39;&#39;)</text>
<!-- 0 -->
<g id="node1" class="node">
<title>0</title>
<ellipse fill="white" stroke="black" cx="326.26" cy="-342.56" rx="27" ry="22.06"/>
<text text-anchor="middle" x="326.26" y="-338.36" font-family="Arial" font-size="14.00">mul</text>
</g>
<!-- 1 -->
<g id="node2" class="node">
<title>1</title>
<ellipse fill="white" stroke="black" cx="263.26" cy="-262.43" rx="63.57" ry="22.06"/>
<text text-anchor="middle" x="263.26" y="-258.23" font-family="Arial" font-size="14.00">if_then_else</text>
</g>
<!-- 0&#45;&gt;1 -->
<g id="edge1" class="edge">
<title>0&#45;&gt;1</title>
<path fill="none" stroke="black" d="M311.97,-323.83C304.61,-314.71 295.45,-303.34 287.06,-292.94"/>
<polygon fill="black" stroke="black" points="289.91,-290.9 280.9,-285.31 284.46,-295.29 289.91,-290.9"/>
</g>
<!-- 7 -->
<g id="node8" class="node">
<title>7</title>
<ellipse fill="white" stroke="black" cx="445.26" cy="-262.43" rx="27" ry="22.06"/>
<text text-anchor="middle" x="445.26" y="-258.23" font-family="Arial" font-size="14.00">sub</text>
</g>
<!-- 0&#45;&gt;7 -->
<g id="edge7" class="edge">
<title>0&#45;&gt;7</title>
<path fill="none" stroke="black" d="M346.99,-327.95C365.85,-315.57 393.9,-297.15 415.22,-283.16"/>
<polygon fill="black" stroke="black" points="417.07,-286.13 423.51,-277.71 413.23,-280.28 417.07,-286.13"/>
</g>
<!-- 2 -->
<g id="node3" class="node">
<title>2</title>
<ellipse fill="white" stroke="black" cx="71.26" cy="-182.31" rx="71.26" ry="22.06"/>
<text text-anchor="middle" x="71.26" y="-178.11" font-family="Arial" font-size="14.00">identity_water</text>
</g>
<!-- 1&#45;&gt;2 -->
<g id="edge2" class="edge">
<title>1&#45;&gt;2</title>
<path fill="none" stroke="black" d="M223.01,-245.05C194.16,-233.32 155.04,-217.4 123.74,-204.66"/>
<polygon fill="black" stroke="black" points="125.44,-201.57 114.85,-201.05 122.8,-208.06 125.44,-201.57"/>
</g>
<!-- 5 -->
<g id="node6" class="node">
<title>5</title>
<ellipse fill="white" stroke="black" cx="207.26" cy="-182.31" rx="47.05" ry="22.06"/>
<text text-anchor="middle" x="207.26" y="-178.11" font-family="Arial" font-size="14.00">distance</text>
</g>
<!-- 1&#45;&gt;5 -->
<g id="edge5" class="edge">
<title>1&#45;&gt;5</title>
<path fill="none" stroke="black" d="M248.55,-240.91C242.44,-232.38 235.23,-222.33 228.56,-213.03"/>
<polygon fill="black" stroke="black" points="231.43,-211.02 222.76,-204.93 225.74,-215.09 231.43,-211.02"/>
</g>
<!-- 6 -->
<g id="node7" class="node">
<title>6</title>
<ellipse fill="white" stroke="black" cx="319.26" cy="-182.31" rx="47.05" ry="22.06"/>
<text text-anchor="middle" x="319.26" y="-178.11" font-family="Arial" font-size="14.00">distance</text>
</g>
<!-- 1&#45;&gt;6 -->
<g id="edge6" class="edge">
<title>1&#45;&gt;6</title>
<path fill="none" stroke="black" d="M277.97,-240.91C284.08,-232.38 291.29,-222.33 297.96,-213.03"/>
<polygon fill="black" stroke="black" points="300.78,-215.09 303.76,-204.93 295.09,-211.02 300.78,-215.09"/>
</g>
<!-- 3 -->
<g id="node4" class="node">
<title>3</title>
<ellipse fill="white" stroke="black" cx="71.26" cy="-102.19" rx="71.26" ry="22.06"/>
<text text-anchor="middle" x="71.26" y="-97.99" font-family="Arial" font-size="14.00">identity_water</text>
</g>
<!-- 2&#45;&gt;3 -->
<g id="edge3" class="edge">
<title>2&#45;&gt;3</title>
<path fill="none" stroke="black" d="M71.26,-159.96C71.26,-152.55 71.26,-144.07 71.26,-135.96"/>
<polygon fill="black" stroke="black" points="74.76,-136.02 71.26,-126.02 67.76,-136.02 74.76,-136.02"/>
</g>
<!-- 4 -->
<g id="node5" class="node">
<title>4</title>
<ellipse fill="white" stroke="black" cx="71.26" cy="-22.06" rx="47.04" ry="22.06"/>
<text text-anchor="middle" x="71.26" y="-17.86" font-family="Arial" font-size="14.00">is_water</text>
</g>
<!-- 3&#45;&gt;4 -->
<g id="edge4" class="edge">
<title>3&#45;&gt;4</title>
<path fill="none" stroke="black" d="M71.26,-79.84C71.26,-72.43 71.26,-63.95 71.26,-55.83"/>
<polygon fill="black" stroke="black" points="74.76,-55.9 71.26,-45.9 67.76,-55.9 74.76,-55.9"/>
</g>
<!-- 8 -->
<g id="node9" class="node">
<title>8</title>
<ellipse fill="white" stroke="black" cx="445.26" cy="-182.31" rx="60.82" ry="22.06"/>
<text text-anchor="middle" x="445.26" y="-178.11" font-family="Arial" font-size="14.00">elevation_u</text>
</g>
<!-- 7&#45;&gt;8 -->
<g id="edge8" class="edge">
<title>7&#45;&gt;8</title>
<path fill="none" stroke="black" d="M445.26,-240.08C445.26,-232.68 445.26,-224.19 445.26,-216.08"/>
<polygon fill="black" stroke="black" points="448.76,-216.14 445.26,-206.14 441.76,-216.14 448.76,-216.14"/>
</g>
<!-- 9 -->
<g id="node10" class="node">
<title>9</title>
<ellipse fill="white" stroke="black" cx="551.26" cy="-182.31" rx="27" ry="22.06"/>
<text text-anchor="middle" x="551.26" y="-178.11" font-family="Arial" font-size="14.00">mul</text>
</g>
<!-- 7&#45;&gt;9 -->
<g id="edge9" class="edge">
<title>7&#45;&gt;9</title>
<path fill="none" stroke="black" d="M464.7,-247.1C480.89,-235.17 504.17,-218.02 522.51,-204.5"/>
<polygon fill="black" stroke="black" points="524.39,-207.46 530.37,-198.71 520.24,-201.82 524.39,-207.46"/>
</g>
<!-- 10 -->
<g id="node11" class="node">
<title>10</title>
<ellipse fill="white" stroke="black" cx="480.26" cy="-102.19" rx="60.26" ry="22.06"/>
<text text-anchor="middle" x="480.26" y="-97.99" font-family="Arial" font-size="14.00">elevation_v</text>
</g>
<!-- 9&#45;&gt;10 -->
<g id="edge10" class="edge">
<title>9&#45;&gt;10</title>
<path fill="none" stroke="black" d="M535.5,-163.97C526.93,-154.54 516.1,-142.62 506.31,-131.85"/>
<polygon fill="black" stroke="black" points="509.07,-129.68 499.76,-124.64 503.89,-134.39 509.07,-129.68"/>
</g>
<!-- 11 -->
<g id="node12" class="node">
<title>11</title>
<ellipse fill="white" stroke="black" cx="622.26" cy="-102.19" rx="63.57" ry="22.06"/>
<text text-anchor="middle" x="622.26" y="-97.99" font-family="Arial" font-size="14.00">if_then_else</text>
</g>
<!-- 9&#45;&gt;11 -->
<g id="edge11" class="edge">
<title>9&#45;&gt;11</title>
<path fill="none" stroke="black" d="M567.02,-163.97C575.59,-154.54 586.42,-142.62 596.21,-131.85"/>
<polygon fill="black" stroke="black" points="598.63,-134.39 602.77,-124.64 593.45,-129.68 598.63,-134.39"/>
</g>
<!-- 12 -->
<g id="node13" class="node">
<title>12</title>
<ellipse fill="white" stroke="black" cx="502.26" cy="-22.06" rx="47.04" ry="22.06"/>
<text text-anchor="middle" x="502.26" y="-17.86" font-family="Arial" font-size="14.00">is_water</text>
</g>
<!-- 11&#45;&gt;12 -->
<g id="edge12" class="edge">
<title>11&#45;&gt;12</title>
<path fill="none" stroke="black" d="M593.21,-82.27C576.71,-71.53 555.9,-57.98 538.36,-46.56"/>
<polygon fill="black" stroke="black" points="540.55,-43.81 530.26,-41.29 536.73,-49.68 540.55,-43.81"/>
</g>
<!-- 13 -->
<g id="node14" class="node">
<title>13</title>
<ellipse fill="white" stroke="black" cx="622.26" cy="-22.06" rx="55.31" ry="22.06"/>
<text text-anchor="middle" x="622.26" y="-17.86" font-family="Arial" font-size="14.00">steepness</text>
</g>
<!-- 11&#45;&gt;13 -->
<g id="edge13" class="edge">
<title>11&#45;&gt;13</title>
<path fill="none" stroke="black" d="M622.26,-79.84C622.26,-72.43 622.26,-63.95 622.26,-55.83"/>
<polygon fill="black" stroke="black" points="625.76,-55.9 622.26,-45.9 618.76,-55.9 625.76,-55.9"/>
</g>
<!-- 14 -->
<g id="node15" class="node">
<title>14</title>
<ellipse fill="white" stroke="black" cx="756.26" cy="-22.06" rx="60.82" ry="22.06"/>
<text text-anchor="middle" x="756.26" y="-17.86" font-family="Arial" font-size="14.00">elevation_u</text>
</g>
<!-- 11&#45;&gt;14 -->
<g id="edge14" class="edge">
<title>11&#45;&gt;14</title>
<path fill="none" stroke="black" d="M654.02,-82.67C672.34,-71.99 695.58,-58.44 715.27,-46.96"/>
<polygon fill="black" stroke="black" points="717.01,-50 723.89,-41.94 713.49,-43.95 717.01,-50"/>
</g>
</g>
</svg>
