<?xml version="1.0" encoding="UTF-8" standalone="no"?>
<!DOCTYPE svg PUBLIC "-//W3C//DTD SVG 1.1//EN"
 "http://www.w3.org/Graphics/SVG/1.1/DTD/svg11.dtd">
<!-- Generated by graphviz version 12.2.1 (0)
 -->
<!-- Title: G Pages: 1 -->
<svg width="924pt" height="485pt"
 viewBox="36.00 36.00 887.53 449.42" xmlns="http://www.w3.org/2000/svg" xmlns:xlink="http://www.w3.org/1999/xlink">
<g id="graph0" class="graph" transform="scale(1 1) rotate(0) translate(40 445.42)">
<title>G</title>
<polygon fill="white" stroke="none" points="-4,4 -4,-409.42 847.53,-409.42 847.53,4 -4,4"/>
<text text-anchor="middle" x="421.76" y="-388.82" font-family="Times New Roman,serif" font-size="14.00">(&#39;best_tree_3000pop_15gen_15runs_res200_5subrun&#39;, &#39;&#39;)</text>
<!-- 0 -->
<g id="node1" class="node">
<title>0</title>
<ellipse fill="white" stroke="black" cx="355.26" cy="-342.56" rx="27" ry="22.06"/>
<text text-anchor="middle" x="355.26" y="-338.36" font-family="Arial" font-size="14.00">mul</text>
</g>
<!-- 1 -->
<g id="node2" class="node">
<title>1</title>
<ellipse fill="white" stroke="black" cx="288.26" cy="-262.43" rx="63.57" ry="22.06"/>
<text text-anchor="middle" x="288.26" y="-258.23" font-family="Arial" font-size="14.00">if_then_else</text>
</g>
<!-- 0&#45;&gt;1 -->
<g id="edge1" class="edge">
<title>0&#45;&gt;1</title>
<path fill="none" stroke="black" d="M340.06,-323.83C332.1,-314.54 322.14,-302.94 313.1,-292.39"/>
<polygon fill="black" stroke="black" points="315.92,-290.31 306.76,-285 310.61,-294.87 315.92,-290.31"/>
</g>
<!-- 6 -->
<g id="node7" class="node">
<title>6</title>
<ellipse fill="white" stroke="black" cx="489.26" cy="-262.43" rx="27" ry="22.06"/>
<text text-anchor="middle" x="489.26" y="-258.23" font-family="Arial" font-size="14.00">sub</text>
</g>
<!-- 0&#45;&gt;6 -->
<g id="edge6" class="edge">
<title>0&#45;&gt;6</title>
<path fill="none" stroke="black" d="M376.79,-329C398.77,-316.19 433.11,-296.17 458.06,-281.62"/>
<polygon fill="black" stroke="black" points="459.6,-284.78 466.48,-276.72 456.08,-278.73 459.6,-284.78"/>
</g>
<!-- 2 -->
<g id="node3" class="node">
<title>2</title>
<ellipse fill="white" stroke="black" cx="71.26" cy="-182.31" rx="71.26" ry="22.06"/>
<text text-anchor="middle" x="71.26" y="-178.11" font-family="Arial" font-size="14.00">identity_water</text>
</g>
<!-- 1&#45;&gt;2 -->
<g id="edge2" class="edge">
<title>1&#45;&gt;2</title>
<path fill="none" stroke="black" d="M245.13,-245.9C211.27,-233.71 163.86,-216.65 127.11,-203.41"/>
<polygon fill="black" stroke="black" points="128.57,-200.22 117.98,-200.13 126.2,-206.81 128.57,-200.22"/>
</g>
<!-- 4 -->
<g id="node5" class="node">
<title>4</title>
<ellipse fill="white" stroke="black" cx="221.26" cy="-182.31" rx="60.26" ry="22.06"/>
<text text-anchor="middle" x="221.26" y="-178.11" font-family="Arial" font-size="14.00">elevation_v</text>
</g>
<!-- 1&#45;&gt;4 -->
<g id="edge4" class="edge">
<title>1&#45;&gt;4</title>
<path fill="none" stroke="black" d="M270.66,-240.91C263.12,-232.11 254.18,-221.69 245.99,-212.15"/>
<polygon fill="black" stroke="black" points="248.9,-210.16 239.73,-204.85 243.59,-214.72 248.9,-210.16"/>
</g>
<!-- 5 -->
<g id="node6" class="node">
<title>5</title>
<ellipse fill="white" stroke="black" cx="355.26" cy="-182.31" rx="55.31" ry="22.06"/>
<text text-anchor="middle" x="355.26" y="-178.11" font-family="Arial" font-size="14.00">steepness</text>
</g>
<!-- 1&#45;&gt;5 -->
<g id="edge5" class="edge">
<title>1&#45;&gt;5</title>
<path fill="none" stroke="black" d="M305.86,-240.91C313.4,-232.11 322.34,-221.69 330.53,-212.15"/>
<polygon fill="black" stroke="black" points="332.94,-214.72 336.79,-204.85 327.62,-210.16 332.94,-214.72"/>
</g>
<!-- 3 -->
<g id="node4" class="node">
<title>3</title>
<ellipse fill="white" stroke="black" cx="71.26" cy="-102.19" rx="47.04" ry="22.06"/>
<text text-anchor="middle" x="71.26" y="-97.99" font-family="Arial" font-size="14.00">is_water</text>
</g>
<!-- 2&#45;&gt;3 -->
<g id="edge3" class="edge">
<title>2&#45;&gt;3</title>
<path fill="none" stroke="black" d="M71.26,-159.96C71.26,-152.55 71.26,-144.07 71.26,-135.96"/>
<polygon fill="black" stroke="black" points="74.76,-136.02 71.26,-126.02 67.76,-136.02 74.76,-136.02"/>
</g>
<!-- 7 -->
<g id="node8" class="node">
<title>7</title>
<ellipse fill="white" stroke="black" cx="489.26" cy="-182.31" rx="60.82" ry="22.06"/>
<text text-anchor="middle" x="489.26" y="-178.11" font-family="Arial" font-size="14.00">elevation_u</text>
</g>
<!-- 6&#45;&gt;7 -->
<g id="edge7" class="edge">
<title>6&#45;&gt;7</title>
<path fill="none" stroke="black" d="M489.26,-240.08C489.26,-232.68 489.26,-224.19 489.26,-216.08"/>
<polygon fill="black" stroke="black" points="492.76,-216.14 489.26,-206.14 485.76,-216.14 492.76,-216.14"/>
</g>
<!-- 8 -->
<g id="node9" class="node">
<title>8</title>
<ellipse fill="white" stroke="black" cx="595.26" cy="-182.31" rx="27" ry="22.06"/>
<text text-anchor="middle" x="595.26" y="-178.11" font-family="Arial" font-size="14.00">mul</text>
</g>
<!-- 6&#45;&gt;8 -->
<g id="edge8" class="edge">
<title>6&#45;&gt;8</title>
<path fill="none" stroke="black" d="M508.7,-247.1C524.89,-235.17 548.17,-218.02 566.51,-204.5"/>
<polygon fill="black" stroke="black" points="568.39,-207.46 574.37,-198.71 564.24,-201.82 568.39,-207.46"/>
</g>
<!-- 9 -->
<g id="node10" class="node">
<title>9</title>
<ellipse fill="white" stroke="black" cx="545.26" cy="-102.19" rx="27" ry="22.06"/>
<text text-anchor="middle" x="545.26" y="-97.99" font-family="Arial" font-size="14.00">neg</text>
</g>
<!-- 8&#45;&gt;9 -->
<g id="edge9" class="edge">
<title>8&#45;&gt;9</title>
<path fill="none" stroke="black" d="M583.16,-162.4C577.24,-153.16 570.01,-141.85 563.44,-131.59"/>
<polygon fill="black" stroke="black" points="566.58,-130 558.24,-123.47 560.69,-133.78 566.58,-130"/>
</g>
<!-- 11 -->
<g id="node12" class="node">
<title>11</title>
<ellipse fill="white" stroke="black" cx="644.26" cy="-102.19" rx="27" ry="22.06"/>
<text text-anchor="middle" x="644.26" y="-97.99" font-family="Arial" font-size="14.00">sub</text>
</g>
<!-- 8&#45;&gt;11 -->
<g id="edge11" class="edge">
<title>8&#45;&gt;11</title>
<path fill="none" stroke="black" d="M607.12,-162.4C612.86,-153.25 619.87,-142.08 626.24,-131.91"/>
<polygon fill="black" stroke="black" points="629.19,-133.81 631.54,-123.48 623.26,-130.09 629.19,-133.81"/>
</g>
<!-- 10 -->
<g id="node11" class="node">
<title>10</title>
<ellipse fill="white" stroke="black" cx="518.26" cy="-22.06" rx="47.05" ry="22.06"/>
<text text-anchor="middle" x="518.26" y="-17.86" font-family="Arial" font-size="14.00">distance</text>
</g>
<!-- 9&#45;&gt;10 -->
<g id="edge10" class="edge">
<title>9&#45;&gt;10</title>
<path fill="none" stroke="black" d="M538.17,-80.66C535.44,-72.78 532.27,-63.58 529.26,-54.88"/>
<polygon fill="black" stroke="black" points="532.66,-54.01 526.08,-45.7 526.04,-56.29 532.66,-54.01"/>
</g>
<!-- 12 -->
<g id="node13" class="node">
<title>12</title>
<ellipse fill="white" stroke="black" cx="644.26" cy="-22.06" rx="60.82" ry="22.06"/>
<text text-anchor="middle" x="644.26" y="-17.86" font-family="Arial" font-size="14.00">elevation_u</text>
</g>
<!-- 11&#45;&gt;12 -->
<g id="edge12" class="edge">
<title>11&#45;&gt;12</title>
<path fill="none" stroke="black" d="M644.26,-79.84C644.26,-72.43 644.26,-63.95 644.26,-55.83"/>
<polygon fill="black" stroke="black" points="647.76,-55.9 644.26,-45.9 640.76,-55.9 647.76,-55.9"/>
</g>
<!-- 13 -->
<g id="node14" class="node">
<title>13</title>
<ellipse fill="white" stroke="black" cx="783.26" cy="-22.06" rx="60.26" ry="22.06"/>
<text text-anchor="middle" x="783.26" y="-17.86" font-family="Arial" font-size="14.00">elevation_v</text>
</g>
<!-- 11&#45;&gt;13 -->
<g id="edge13" class="edge">
<title>11&#45;&gt;13</title>
<path fill="none" stroke="black" d="M666.29,-88.81C686.4,-77.5 716.69,-60.48 741.4,-46.59"/>
<polygon fill="black" stroke="black" points="742.93,-49.74 749.94,-41.79 739.5,-43.64 742.93,-49.74"/>
</g>
</g>
</svg>
