<?xml version="1.0" encoding="UTF-8" standalone="no"?>
<!DOCTYPE svg PUBLIC "-//W3C//DTD SVG 1.1//EN"
 "http://www.w3.org/Graphics/SVG/1.1/DTD/svg11.dtd">
<!-- Generated by graphviz version 12.2.1 (0)
 -->
<!-- Title: G Pages: 1 -->
<svg width="789pt" height="485pt"
 viewBox="36.00 36.00 753.35 449.42" xmlns="http://www.w3.org/2000/svg" xmlns:xlink="http://www.w3.org/1999/xlink">
<g id="graph0" class="graph" transform="scale(1 1) rotate(0) translate(40 445.42)">
<title>G</title>
<polygon fill="white" stroke="none" points="-4,4 -4,-409.42 713.35,-409.42 713.35,4 -4,4"/>
<text text-anchor="middle" x="354.68" y="-388.82" font-family="Times New Roman,serif" font-size="14.00">(&#39;best_5tree_3000pop_15gen_15runs_res200_15subrun&#39;, &#39;&#39;)</text>
<!-- 0 -->
<g id="node1" class="node">
<title>0</title>
<ellipse fill="white" stroke="black" cx="277.04" cy="-342.56" rx="27" ry="22.06"/>
<text text-anchor="middle" x="277.04" y="-338.36" font-family="Arial" font-size="14.00">mul</text>
</g>
<!-- 1 -->
<g id="node2" class="node">
<title>1</title>
<ellipse fill="white" stroke="black" cx="223.04" cy="-262.43" rx="63.57" ry="22.06"/>
<text text-anchor="middle" x="223.04" y="-258.23" font-family="Arial" font-size="14.00">if_then_else</text>
</g>
<!-- 0&#45;&gt;1 -->
<g id="edge1" class="edge">
<title>0&#45;&gt;1</title>
<path fill="none" stroke="black" d="M264.25,-323.04C258.15,-314.22 250.7,-303.44 243.82,-293.49"/>
<polygon fill="black" stroke="black" points="246.89,-291.77 238.32,-285.54 241.13,-295.75 246.89,-291.77"/>
</g>
<!-- 9 -->
<g id="node10" class="node">
<title>9</title>
<ellipse fill="white" stroke="black" cx="383.04" cy="-262.43" rx="27" ry="22.06"/>
<text text-anchor="middle" x="383.04" y="-258.23" font-family="Arial" font-size="14.00">sub</text>
</g>
<!-- 0&#45;&gt;9 -->
<g id="edge9" class="edge">
<title>0&#45;&gt;9</title>
<path fill="none" stroke="black" d="M296.49,-327.23C312.67,-315.3 335.95,-298.14 354.29,-284.62"/>
<polygon fill="black" stroke="black" points="356.17,-287.58 362.15,-278.83 352.02,-281.95 356.17,-287.58"/>
</g>
<!-- 2 -->
<g id="node3" class="node">
<title>2</title>
<ellipse fill="white" stroke="black" cx="47.04" cy="-182.31" rx="47.04" ry="22.06"/>
<text text-anchor="middle" x="47.04" y="-178.11" font-family="Arial" font-size="14.00">is_water</text>
</g>
<!-- 1&#45;&gt;2 -->
<g id="edge2" class="edge">
<title>1&#45;&gt;2</title>
<path fill="none" stroke="black" d="M184.86,-244.48C157.12,-232.17 119.55,-215.49 90.64,-202.66"/>
<polygon fill="black" stroke="black" points="92.36,-199.59 81.8,-198.73 89.52,-205.99 92.36,-199.59"/>
</g>
<!-- 3 -->
<g id="node4" class="node">
<title>3</title>
<ellipse fill="white" stroke="black" cx="172.04" cy="-182.31" rx="60.26" ry="22.06"/>
<text text-anchor="middle" x="172.04" y="-178.11" font-family="Arial" font-size="14.00">elevation_v</text>
</g>
<!-- 1&#45;&gt;3 -->
<g id="edge3" class="edge">
<title>1&#45;&gt;3</title>
<path fill="none" stroke="black" d="M209.38,-240.5C203.96,-232.2 197.63,-222.5 191.73,-213.47"/>
<polygon fill="black" stroke="black" points="194.8,-211.76 186.4,-205.3 188.94,-215.59 194.8,-211.76"/>
</g>
<!-- 4 -->
<g id="node5" class="node">
<title>4</title>
<ellipse fill="white" stroke="black" cx="277.04" cy="-182.31" rx="27" ry="22.06"/>
<text text-anchor="middle" x="277.04" y="-178.11" font-family="Arial" font-size="14.00">add</text>
</g>
<!-- 1&#45;&gt;4 -->
<g id="edge4" class="edge">
<title>1&#45;&gt;4</title>
<path fill="none" stroke="black" d="M237.52,-240.5C243.7,-231.55 251.01,-220.97 257.66,-211.36"/>
<polygon fill="black" stroke="black" points="260.34,-213.63 263.15,-203.41 254.59,-209.65 260.34,-213.63"/>
</g>
<!-- 5 -->
<g id="node6" class="node">
<title>5</title>
<ellipse fill="white" stroke="black" cx="211.04" cy="-102.19" rx="27" ry="22.06"/>
<text text-anchor="middle" x="211.04" y="-97.99" font-family="Arial" font-size="14.00">mul</text>
</g>
<!-- 4&#45;&gt;5 -->
<g id="edge5" class="edge">
<title>4&#45;&gt;5</title>
<path fill="none" stroke="black" d="M262.07,-163.58C253.55,-153.49 242.71,-140.67 233.22,-129.43"/>
<polygon fill="black" stroke="black" points="236.07,-127.38 226.94,-122 230.72,-131.9 236.07,-127.38"/>
</g>
<!-- 8 -->
<g id="node9" class="node">
<title>8</title>
<ellipse fill="white" stroke="black" cx="291.04" cy="-102.19" rx="34.96" ry="22.06"/>
<text text-anchor="middle" x="291.04" y="-97.99" font-family="Arial" font-size="14.00">3.081</text>
</g>
<!-- 4&#45;&gt;8 -->
<g id="edge8" class="edge">
<title>4&#45;&gt;8</title>
<path fill="none" stroke="black" d="M280.8,-160.37C282.15,-152.82 283.71,-144.1 285.2,-135.78"/>
<polygon fill="black" stroke="black" points="288.65,-136.4 286.97,-125.94 281.76,-135.17 288.65,-136.4"/>
</g>
<!-- 6 -->
<g id="node7" class="node">
<title>6</title>
<ellipse fill="white" stroke="black" cx="148.04" cy="-22.06" rx="60.82" ry="22.06"/>
<text text-anchor="middle" x="148.04" y="-17.86" font-family="Arial" font-size="14.00">elevation_u</text>
</g>
<!-- 5&#45;&gt;6 -->
<g id="edge6" class="edge">
<title>5&#45;&gt;6</title>
<path fill="none" stroke="black" d="M196.75,-83.46C189.39,-74.34 180.23,-62.97 171.84,-52.57"/>
<polygon fill="black" stroke="black" points="174.69,-50.53 165.69,-44.94 169.24,-54.92 174.69,-50.53"/>
</g>
<!-- 7 -->
<g id="node8" class="node">
<title>7</title>
<ellipse fill="white" stroke="black" cx="274.04" cy="-22.06" rx="47.05" ry="22.06"/>
<text text-anchor="middle" x="274.04" y="-17.86" font-family="Arial" font-size="14.00">distance</text>
</g>
<!-- 5&#45;&gt;7 -->
<g id="edge7" class="edge">
<title>5&#45;&gt;7</title>
<path fill="none" stroke="black" d="M225.34,-83.46C232.81,-74.2 242.14,-62.63 250.63,-52.1"/>
<polygon fill="black" stroke="black" points="253.3,-54.36 256.86,-44.38 247.85,-49.96 253.3,-54.36"/>
</g>
<!-- 10 -->
<g id="node11" class="node">
<title>10</title>
<ellipse fill="white" stroke="black" cx="383.04" cy="-182.31" rx="60.82" ry="22.06"/>
<text text-anchor="middle" x="383.04" y="-178.11" font-family="Arial" font-size="14.00">elevation_u</text>
</g>
<!-- 9&#45;&gt;10 -->
<g id="edge10" class="edge">
<title>9&#45;&gt;10</title>
<path fill="none" stroke="black" d="M383.04,-240.08C383.04,-232.68 383.04,-224.19 383.04,-216.08"/>
<polygon fill="black" stroke="black" points="386.54,-216.14 383.04,-206.14 379.54,-216.14 386.54,-216.14"/>
</g>
<!-- 11 -->
<g id="node12" class="node">
<title>11</title>
<ellipse fill="white" stroke="black" cx="525.04" cy="-182.31" rx="63.57" ry="22.06"/>
<text text-anchor="middle" x="525.04" y="-178.11" font-family="Arial" font-size="14.00">if_then_else</text>
</g>
<!-- 9&#45;&gt;11 -->
<g id="edge11" class="edge">
<title>9&#45;&gt;11</title>
<path fill="none" stroke="black" d="M405.23,-249.23C425.75,-237.94 456.82,-220.84 482.17,-206.89"/>
<polygon fill="black" stroke="black" points="483.53,-210.14 490.6,-202.26 480.16,-204.01 483.53,-210.14"/>
</g>
<!-- 12 -->
<g id="node13" class="node">
<title>12</title>
<ellipse fill="white" stroke="black" cx="405.04" cy="-102.19" rx="47.04" ry="22.06"/>
<text text-anchor="middle" x="405.04" y="-97.99" font-family="Arial" font-size="14.00">is_water</text>
</g>
<!-- 11&#45;&gt;12 -->
<g id="edge12" class="edge">
<title>11&#45;&gt;12</title>
<path fill="none" stroke="black" d="M496,-162.4C479.49,-151.65 458.68,-138.11 441.14,-126.68"/>
<polygon fill="black" stroke="black" points="443.33,-123.94 433.04,-121.41 439.51,-129.8 443.33,-123.94"/>
</g>
<!-- 13 -->
<g id="node14" class="node">
<title>13</title>
<ellipse fill="white" stroke="black" cx="525.04" cy="-102.19" rx="55.31" ry="22.06"/>
<text text-anchor="middle" x="525.04" y="-97.99" font-family="Arial" font-size="14.00">steepness</text>
</g>
<!-- 11&#45;&gt;13 -->
<g id="edge13" class="edge">
<title>11&#45;&gt;13</title>
<path fill="none" stroke="black" d="M525.04,-159.96C525.04,-152.55 525.04,-144.07 525.04,-135.96"/>
<polygon fill="black" stroke="black" points="528.54,-136.02 525.04,-126.02 521.54,-136.02 528.54,-136.02"/>
</g>
<!-- 14 -->
<g id="node15" class="node">
<title>14</title>
<ellipse fill="white" stroke="black" cx="654.04" cy="-102.19" rx="55.31" ry="22.06"/>
<text text-anchor="middle" x="654.04" y="-97.99" font-family="Arial" font-size="14.00">steepness</text>
</g>
<!-- 11&#45;&gt;14 -->
<g id="edge14" class="edge">
<title>11&#45;&gt;14</title>
<path fill="none" stroke="black" d="M555.94,-162.6C573.51,-151.96 595.69,-138.53 614.51,-127.13"/>
<polygon fill="black" stroke="black" points="616.25,-130.17 622.99,-121.99 612.62,-124.18 616.25,-130.17"/>
</g>
</g>
</svg>
