<?xml version="1.0" encoding="UTF-8" standalone="no"?>
<!DOCTYPE svg PUBLIC "-//W3C//DTD SVG 1.1//EN"
 "http://www.w3.org/Graphics/SVG/1.1/DTD/svg11.dtd">
<!-- Generated by graphviz version 12.2.1 (0)
 -->
<!-- Title: G Pages: 1 -->
<svg width="788pt" height="485pt"
 viewBox="36.00 36.00 752.35 449.42" xmlns="http://www.w3.org/2000/svg" xmlns:xlink="http://www.w3.org/1999/xlink">
<g id="graph0" class="graph" transform="scale(1 1) rotate(0) translate(40 445.42)">
<title>G</title>
<polygon fill="white" stroke="none" points="-4,4 -4,-409.42 712.35,-409.42 712.35,4 -4,4"/>
<text text-anchor="middle" x="354.18" y="-388.82" font-family="Times New Roman,serif" font-size="14.00">(&#39;best_tree_3000pop_15gen_15runs_res200_11subrun&#39;, &#39;&#39;)</text>
<!-- 0 -->
<g id="node1" class="node">
<title>0</title>
<ellipse fill="white" stroke="black" cx="277.04" cy="-342.56" rx="27" ry="22.06"/>
<text text-anchor="middle" x="277.04" y="-338.36" font-family="Arial" font-size="14.00">mul</text>
</g>
<!-- 1 -->
<g id="node2" class="node">
<title>1</title>
<ellipse fill="white" stroke="black" cx="223.04" cy="-262.43" rx="63.57" ry="22.06"/>
<text text-anchor="middle" x="223.04" y="-258.23" font-family="Arial" font-size="14.00">if_then_else</text>
</g>
<!-- 0&#45;&gt;1 -->
<g id="edge1" class="edge">
<title>0&#45;&gt;1</title>
<path fill="none" stroke="black" d="M264.25,-323.04C258.15,-314.22 250.7,-303.44 243.82,-293.49"/>
<polygon fill="black" stroke="black" points="246.89,-291.77 238.32,-285.54 241.13,-295.75 246.89,-291.77"/>
</g>
<!-- 9 -->
<g id="node10" class="node">
<title>9</title>
<ellipse fill="white" stroke="black" cx="382.04" cy="-262.43" rx="27" ry="22.06"/>
<text text-anchor="middle" x="382.04" y="-258.23" font-family="Arial" font-size="14.00">sub</text>
</g>
<!-- 0&#45;&gt;9 -->
<g id="edge9" class="edge">
<title>0&#45;&gt;9</title>
<path fill="none" stroke="black" d="M296.79,-326.86C312.78,-314.97 335.51,-298.05 353.48,-284.68"/>
<polygon fill="black" stroke="black" points="355.24,-287.74 361.17,-278.96 351.06,-282.13 355.24,-287.74"/>
</g>
<!-- 2 -->
<g id="node3" class="node">
<title>2</title>
<ellipse fill="white" stroke="black" cx="47.04" cy="-182.31" rx="47.04" ry="22.06"/>
<text text-anchor="middle" x="47.04" y="-178.11" font-family="Arial" font-size="14.00">is_water</text>
</g>
<!-- 1&#45;&gt;2 -->
<g id="edge2" class="edge">
<title>1&#45;&gt;2</title>
<path fill="none" stroke="black" d="M184.86,-244.48C157.12,-232.17 119.55,-215.49 90.64,-202.66"/>
<polygon fill="black" stroke="black" points="92.36,-199.59 81.8,-198.73 89.52,-205.99 92.36,-199.59"/>
</g>
<!-- 3 -->
<g id="node4" class="node">
<title>3</title>
<ellipse fill="white" stroke="black" cx="172.04" cy="-182.31" rx="60.26" ry="22.06"/>
<text text-anchor="middle" x="172.04" y="-178.11" font-family="Arial" font-size="14.00">elevation_v</text>
</g>
<!-- 1&#45;&gt;3 -->
<g id="edge3" class="edge">
<title>1&#45;&gt;3</title>
<path fill="none" stroke="black" d="M209.38,-240.5C203.96,-232.2 197.63,-222.5 191.73,-213.47"/>
<polygon fill="black" stroke="black" points="194.8,-211.76 186.4,-205.3 188.94,-215.59 194.8,-211.76"/>
</g>
<!-- 4 -->
<g id="node5" class="node">
<title>4</title>
<ellipse fill="white" stroke="black" cx="277.04" cy="-182.31" rx="27" ry="22.06"/>
<text text-anchor="middle" x="277.04" y="-178.11" font-family="Arial" font-size="14.00">add</text>
</g>
<!-- 1&#45;&gt;4 -->
<g id="edge4" class="edge">
<title>1&#45;&gt;4</title>
<path fill="none" stroke="black" d="M237.52,-240.5C243.7,-231.55 251.01,-220.97 257.66,-211.36"/>
<polygon fill="black" stroke="black" points="260.34,-213.63 263.15,-203.41 254.59,-209.65 260.34,-213.63"/>
</g>
<!-- 5 -->
<g id="node6" class="node">
<title>5</title>
<ellipse fill="white" stroke="black" cx="210.04" cy="-102.19" rx="27" ry="22.06"/>
<text text-anchor="middle" x="210.04" y="-97.99" font-family="Arial" font-size="14.00">mul</text>
</g>
<!-- 4&#45;&gt;5 -->
<g id="edge5" class="edge">
<title>4&#45;&gt;5</title>
<path fill="none" stroke="black" d="M261.84,-163.58C253.19,-153.49 242.19,-140.67 232.55,-129.43"/>
<polygon fill="black" stroke="black" points="235.34,-127.3 226.17,-121.99 230.03,-131.86 235.34,-127.3"/>
</g>
<!-- 8 -->
<g id="node9" class="node">
<title>8</title>
<ellipse fill="white" stroke="black" cx="290.04" cy="-102.19" rx="34.96" ry="22.06"/>
<text text-anchor="middle" x="290.04" y="-97.99" font-family="Arial" font-size="14.00">3.863</text>
</g>
<!-- 4&#45;&gt;8 -->
<g id="edge8" class="edge">
<title>4&#45;&gt;8</title>
<path fill="none" stroke="black" d="M280.6,-159.96C281.84,-152.47 283.27,-143.87 284.64,-135.68"/>
<polygon fill="black" stroke="black" points="288.06,-136.44 286.25,-126 281.15,-135.29 288.06,-136.44"/>
</g>
<!-- 6 -->
<g id="node7" class="node">
<title>6</title>
<ellipse fill="white" stroke="black" cx="147.04" cy="-22.06" rx="60.82" ry="22.06"/>
<text text-anchor="middle" x="147.04" y="-17.86" font-family="Arial" font-size="14.00">elevation_u</text>
</g>
<!-- 5&#45;&gt;6 -->
<g id="edge6" class="edge">
<title>5&#45;&gt;6</title>
<path fill="none" stroke="black" d="M195.75,-83.46C188.39,-74.34 179.23,-62.97 170.84,-52.57"/>
<polygon fill="black" stroke="black" points="173.69,-50.53 164.69,-44.94 168.24,-54.92 173.69,-50.53"/>
</g>
<!-- 7 -->
<g id="node8" class="node">
<title>7</title>
<ellipse fill="white" stroke="black" cx="273.04" cy="-22.06" rx="47.05" ry="22.06"/>
<text text-anchor="middle" x="273.04" y="-17.86" font-family="Arial" font-size="14.00">distance</text>
</g>
<!-- 5&#45;&gt;7 -->
<g id="edge7" class="edge">
<title>5&#45;&gt;7</title>
<path fill="none" stroke="black" d="M224.34,-83.46C231.81,-74.2 241.14,-62.63 249.63,-52.1"/>
<polygon fill="black" stroke="black" points="252.3,-54.36 255.86,-44.38 246.85,-49.96 252.3,-54.36"/>
</g>
<!-- 10 -->
<g id="node11" class="node">
<title>10</title>
<ellipse fill="white" stroke="black" cx="382.04" cy="-182.31" rx="60.26" ry="22.06"/>
<text text-anchor="middle" x="382.04" y="-178.11" font-family="Arial" font-size="14.00">elevation_v</text>
</g>
<!-- 9&#45;&gt;10 -->
<g id="edge10" class="edge">
<title>9&#45;&gt;10</title>
<path fill="none" stroke="black" d="M382.04,-240.08C382.04,-232.68 382.04,-224.19 382.04,-216.08"/>
<polygon fill="black" stroke="black" points="385.54,-216.14 382.04,-206.14 378.54,-216.14 385.54,-216.14"/>
</g>
<!-- 11 -->
<g id="node12" class="node">
<title>11</title>
<ellipse fill="white" stroke="black" cx="524.04" cy="-182.31" rx="63.57" ry="22.06"/>
<text text-anchor="middle" x="524.04" y="-178.11" font-family="Arial" font-size="14.00">if_then_else</text>
</g>
<!-- 9&#45;&gt;11 -->
<g id="edge11" class="edge">
<title>9&#45;&gt;11</title>
<path fill="none" stroke="black" d="M404.23,-249.23C424.75,-237.94 455.82,-220.84 481.17,-206.89"/>
<polygon fill="black" stroke="black" points="482.53,-210.14 489.6,-202.26 479.16,-204.01 482.53,-210.14"/>
</g>
<!-- 12 -->
<g id="node13" class="node">
<title>12</title>
<ellipse fill="white" stroke="black" cx="404.04" cy="-102.19" rx="47.04" ry="22.06"/>
<text text-anchor="middle" x="404.04" y="-97.99" font-family="Arial" font-size="14.00">is_water</text>
</g>
<!-- 11&#45;&gt;12 -->
<g id="edge12" class="edge">
<title>11&#45;&gt;12</title>
<path fill="none" stroke="black" d="M495,-162.4C478.49,-151.65 457.68,-138.11 440.14,-126.68"/>
<polygon fill="black" stroke="black" points="442.33,-123.94 432.04,-121.41 438.51,-129.8 442.33,-123.94"/>
</g>
<!-- 13 -->
<g id="node14" class="node">
<title>13</title>
<ellipse fill="white" stroke="black" cx="524.04" cy="-102.19" rx="55.31" ry="22.06"/>
<text text-anchor="middle" x="524.04" y="-97.99" font-family="Arial" font-size="14.00">steepness</text>
</g>
<!-- 11&#45;&gt;13 -->
<g id="edge13" class="edge">
<title>11&#45;&gt;13</title>
<path fill="none" stroke="black" d="M524.04,-159.96C524.04,-152.55 524.04,-144.07 524.04,-135.96"/>
<polygon fill="black" stroke="black" points="527.54,-136.02 524.04,-126.02 520.54,-136.02 527.54,-136.02"/>
</g>
<!-- 14 -->
<g id="node15" class="node">
<title>14</title>
<ellipse fill="white" stroke="black" cx="653.04" cy="-102.19" rx="55.31" ry="22.06"/>
<text text-anchor="middle" x="653.04" y="-97.99" font-family="Arial" font-size="14.00">steepness</text>
</g>
<!-- 11&#45;&gt;14 -->
<g id="edge14" class="edge">
<title>11&#45;&gt;14</title>
<path fill="none" stroke="black" d="M554.94,-162.6C572.51,-151.96 594.69,-138.53 613.51,-127.13"/>
<polygon fill="black" stroke="black" points="615.25,-130.17 621.99,-121.99 611.62,-124.18 615.25,-130.17"/>
</g>
</g>
</svg>
