<?xml version="1.0" encoding="UTF-8" standalone="no"?>
<!DOCTYPE svg PUBLIC "-//W3C//DTD SVG 1.1//EN"
 "http://www.w3.org/Graphics/SVG/1.1/DTD/svg11.dtd">
<!-- Generated by graphviz version 12.2.1 (0)
 -->
<!-- Title: G Pages: 1 -->
<svg width="1201pt" height="886pt"
 viewBox="36.00 36.00 1165.00 850.03" xmlns="http://www.w3.org/2000/svg" xmlns:xlink="http://www.w3.org/1999/xlink">
<g id="graph0" class="graph" transform="scale(1 1) rotate(0) translate(40 846.03)">
<title>G</title>
<polygon fill="white" stroke="none" points="-4,4 -4,-810.03 1125,-810.03 1125,4 -4,4"/>
<text text-anchor="middle" x="560.5" y="-789.43" font-family="Times New Roman,serif" font-size="14.00">Best evolved cost function tree, after pruning</text>
<!-- 0 -->
<g id="node1" class="node">
<title>0</title>
<ellipse fill="white" stroke="black" cx="659.04" cy="-743.17" rx="27" ry="22.06"/>
<text text-anchor="middle" x="659.04" y="-738.97" font-family="Arial" font-size="14.00">neg</text>
</g>
<!-- 1 -->
<g id="node2" class="node">
<title>1</title>
<ellipse fill="white" stroke="black" cx="659.04" cy="-663.05" rx="27" ry="22.06"/>
<text text-anchor="middle" x="659.04" y="-658.85" font-family="Arial" font-size="14.00">add</text>
</g>
<!-- 0&#45;&gt;1 -->
<g id="edge1" class="edge">
<title>0&#45;&gt;1</title>
<path fill="none" stroke="black" d="M659.04,-720.83C659.04,-713.42 659.04,-704.93 659.04,-696.82"/>
<polygon fill="black" stroke="black" points="662.54,-696.88 659.04,-686.88 655.54,-696.88 662.54,-696.88"/>
</g>
<!-- 2 -->
<g id="node3" class="node">
<title>2</title>
<ellipse fill="white" stroke="black" cx="623.04" cy="-582.93" rx="27" ry="22.06"/>
<text text-anchor="middle" x="623.04" y="-578.73" font-family="Arial" font-size="14.00">sub</text>
</g>
<!-- 1&#45;&gt;2 -->
<g id="edge2" class="edge">
<title>1&#45;&gt;2</title>
<path fill="none" stroke="black" d="M649.77,-641.93C645.91,-633.55 641.34,-623.63 637.08,-614.38"/>
<polygon fill="black" stroke="black" points="640.28,-612.97 632.92,-605.35 633.92,-615.9 640.28,-612.97"/>
</g>
<!-- 33 -->
<g id="node34" class="node">
<title>33</title>
<ellipse fill="white" stroke="black" cx="735.04" cy="-582.93" rx="27" ry="22.06"/>
<text text-anchor="middle" x="735.04" y="-578.73" font-family="Arial" font-size="14.00">neg</text>
</g>
<!-- 1&#45;&gt;33 -->
<g id="edge33" class="edge">
<title>1&#45;&gt;33</title>
<path fill="none" stroke="black" d="M675.54,-645.1C685.79,-634.55 699.17,-620.8 710.64,-609.01"/>
<polygon fill="black" stroke="black" points="713.07,-611.54 717.53,-601.93 708.05,-606.66 713.07,-611.54"/>
</g>
<!-- 3 -->
<g id="node4" class="node">
<title>3</title>
<ellipse fill="white" stroke="black" cx="240.04" cy="-502.8" rx="63.57" ry="22.06"/>
<text text-anchor="middle" x="240.04" y="-498.6" font-family="Arial" font-size="14.00">if_then_else</text>
</g>
<!-- 2&#45;&gt;3 -->
<g id="edge3" class="edge">
<title>2&#45;&gt;3</title>
<path fill="none" stroke="black" d="M596.72,-576.56C537.2,-564.42 390.8,-534.55 305.2,-517.09"/>
<polygon fill="black" stroke="black" points="306.04,-513.69 295.54,-515.12 304.64,-520.55 306.04,-513.69"/>
</g>
<!-- 13 -->
<g id="node14" class="node">
<title>13</title>
<ellipse fill="white" stroke="black" cx="623.04" cy="-502.8" rx="27" ry="22.06"/>
<text text-anchor="middle" x="623.04" y="-498.6" font-family="Arial" font-size="14.00">sub</text>
</g>
<!-- 2&#45;&gt;13 -->
<g id="edge13" class="edge">
<title>2&#45;&gt;13</title>
<path fill="none" stroke="black" d="M623.04,-560.58C623.04,-553.17 623.04,-544.69 623.04,-536.58"/>
<polygon fill="black" stroke="black" points="626.54,-536.64 623.04,-526.64 619.54,-536.64 626.54,-536.64"/>
</g>
<!-- 4 -->
<g id="node5" class="node">
<title>4</title>
<ellipse fill="white" stroke="black" cx="47.04" cy="-422.68" rx="47.04" ry="22.06"/>
<text text-anchor="middle" x="47.04" y="-418.48" font-family="Arial" font-size="14.00">is_water</text>
</g>
<!-- 3&#45;&gt;4 -->
<g id="edge4" class="edge">
<title>3&#45;&gt;4</title>
<path fill="none" stroke="black" d="M199.59,-485.43C168.3,-472.76 125,-455.23 92.52,-442.09"/>
<polygon fill="black" stroke="black" points="93.94,-438.88 83.35,-438.38 91.31,-445.37 93.94,-438.88"/>
</g>
<!-- 5 -->
<g id="node6" class="node">
<title>5</title>
<ellipse fill="white" stroke="black" cx="182.04" cy="-422.68" rx="70.17" ry="22.06"/>
<text text-anchor="middle" x="182.04" y="-418.48" font-family="Arial" font-size="14.00">protected_log</text>
</g>
<!-- 3&#45;&gt;5 -->
<g id="edge5" class="edge">
<title>3&#45;&gt;5</title>
<path fill="none" stroke="black" d="M224.81,-481.28C218.58,-472.89 211.25,-463.02 204.43,-453.84"/>
<polygon fill="black" stroke="black" points="207.26,-451.77 198.49,-445.83 201.64,-455.94 207.26,-451.77"/>
</g>
<!-- 8 -->
<g id="node9" class="node">
<title>8</title>
<ellipse fill="white" stroke="black" cx="297.04" cy="-422.68" rx="27" ry="22.06"/>
<text text-anchor="middle" x="297.04" y="-418.48" font-family="Arial" font-size="14.00">add</text>
</g>
<!-- 3&#45;&gt;8 -->
<g id="edge8" class="edge">
<title>3&#45;&gt;8</title>
<path fill="none" stroke="black" d="M255.02,-481.28C261.72,-472.09 269.72,-461.13 276.93,-451.25"/>
<polygon fill="black" stroke="black" points="279.57,-453.56 282.64,-443.42 273.92,-449.44 279.57,-453.56"/>
</g>
<!-- 6 -->
<g id="node7" class="node">
<title>6</title>
<ellipse fill="white" stroke="black" cx="94.04" cy="-342.56" rx="34.96" ry="22.06"/>
<text text-anchor="middle" x="94.04" y="-338.36" font-family="Arial" font-size="14.00">3.148</text>
</g>
<!-- 5&#45;&gt;6 -->
<g id="edge6" class="edge">
<title>5&#45;&gt;6</title>
<path fill="none" stroke="black" d="M159.38,-401.56C148.07,-391.52 134.28,-379.28 122.29,-368.63"/>
<polygon fill="black" stroke="black" points="124.87,-366.24 115.07,-362.22 120.22,-371.47 124.87,-366.24"/>
</g>
<!-- 7 -->
<g id="node8" class="node">
<title>7</title>
<ellipse fill="white" stroke="black" cx="182.04" cy="-342.56" rx="34.96" ry="22.06"/>
<text text-anchor="middle" x="182.04" y="-338.36" font-family="Arial" font-size="14.00">9.535</text>
</g>
<!-- 5&#45;&gt;7 -->
<g id="edge7" class="edge">
<title>5&#45;&gt;7</title>
<path fill="none" stroke="black" d="M182.04,-400.33C182.04,-392.93 182.04,-384.44 182.04,-376.33"/>
<polygon fill="black" stroke="black" points="185.54,-376.39 182.04,-366.39 178.54,-376.39 185.54,-376.39"/>
</g>
<!-- 9 -->
<g id="node10" class="node">
<title>9</title>
<ellipse fill="white" stroke="black" cx="282.04" cy="-342.56" rx="47.05" ry="22.06"/>
<text text-anchor="middle" x="282.04" y="-338.36" font-family="Arial" font-size="14.00">distance</text>
</g>
<!-- 8&#45;&gt;9 -->
<g id="edge9" class="edge">
<title>8&#45;&gt;9</title>
<path fill="none" stroke="black" d="M293.02,-400.74C291.56,-393.1 289.86,-384.27 288.25,-375.86"/>
<polygon fill="black" stroke="black" points="291.74,-375.47 286.41,-366.31 284.86,-376.79 291.74,-375.47"/>
</g>
<!-- 10 -->
<g id="node11" class="node">
<title>10</title>
<ellipse fill="white" stroke="black" cx="374.04" cy="-342.56" rx="27" ry="22.06"/>
<text text-anchor="middle" x="374.04" y="-338.36" font-family="Arial" font-size="14.00">neg</text>
</g>
<!-- 8&#45;&gt;10 -->
<g id="edge10" class="edge">
<title>8&#45;&gt;10</title>
<path fill="none" stroke="black" d="M313.37,-405.11C323.92,-394.41 337.83,-380.3 349.67,-368.28"/>
<polygon fill="black" stroke="black" points="351.88,-371.03 356.41,-361.45 346.9,-366.11 351.88,-371.03"/>
</g>
<!-- 11 -->
<g id="node12" class="node">
<title>11</title>
<ellipse fill="white" stroke="black" cx="369.04" cy="-262.43" rx="27" ry="22.06"/>
<text text-anchor="middle" x="369.04" y="-258.23" font-family="Arial" font-size="14.00">neg</text>
</g>
<!-- 10&#45;&gt;11 -->
<g id="edge11" class="edge">
<title>10&#45;&gt;11</title>
<path fill="none" stroke="black" d="M372.68,-320.21C372.2,-312.8 371.66,-304.32 371.14,-296.2"/>
<polygon fill="black" stroke="black" points="374.64,-296.02 370.51,-286.26 367.65,-296.47 374.64,-296.02"/>
</g>
<!-- 12 -->
<g id="node13" class="node">
<title>12</title>
<ellipse fill="white" stroke="black" cx="364.04" cy="-182.31" rx="47.05" ry="22.06"/>
<text text-anchor="middle" x="364.04" y="-178.11" font-family="Arial" font-size="14.00">distance</text>
</g>
<!-- 11&#45;&gt;12 -->
<g id="edge12" class="edge">
<title>11&#45;&gt;12</title>
<path fill="none" stroke="black" d="M367.68,-240.08C367.2,-232.68 366.66,-224.19 366.14,-216.08"/>
<polygon fill="black" stroke="black" points="369.64,-215.9 365.51,-206.14 362.65,-216.34 369.64,-215.9"/>
</g>
<!-- 14 -->
<g id="node15" class="node">
<title>14</title>
<ellipse fill="white" stroke="black" cx="561.04" cy="-422.68" rx="27" ry="22.06"/>
<text text-anchor="middle" x="561.04" y="-418.48" font-family="Arial" font-size="14.00">sub</text>
</g>
<!-- 13&#45;&gt;14 -->
<g id="edge14" class="edge">
<title>13&#45;&gt;14</title>
<path fill="none" stroke="black" d="M608.66,-483.68C600.84,-473.82 591.01,-461.44 582.31,-450.48"/>
<polygon fill="black" stroke="black" points="585.25,-448.54 576.29,-442.89 579.76,-452.89 585.25,-448.54"/>
</g>
<!-- 29 -->
<g id="node30" class="node">
<title>29</title>
<ellipse fill="white" stroke="black" cx="746.04" cy="-422.68" rx="63.57" ry="22.06"/>
<text text-anchor="middle" x="746.04" y="-418.48" font-family="Arial" font-size="14.00">if_then_else</text>
</g>
<!-- 13&#45;&gt;29 -->
<g id="edge29" class="edge">
<title>13&#45;&gt;29</title>
<path fill="none" stroke="black" d="M643.91,-488.55C661.07,-477.65 685.87,-461.9 706.73,-448.65"/>
<polygon fill="black" stroke="black" points="708.46,-451.7 715.02,-443.38 704.71,-445.79 708.46,-451.7"/>
</g>
<!-- 15 -->
<g id="node16" class="node">
<title>15</title>
<ellipse fill="white" stroke="black" cx="456.04" cy="-342.56" rx="27" ry="22.06"/>
<text text-anchor="middle" x="456.04" y="-338.36" font-family="Arial" font-size="14.00">sub</text>
</g>
<!-- 14&#45;&gt;15 -->
<g id="edge15" class="edge">
<title>14&#45;&gt;15</title>
<path fill="none" stroke="black" d="M541.29,-406.98C525.31,-395.09 502.58,-378.18 484.61,-364.81"/>
<polygon fill="black" stroke="black" points="487.03,-362.25 476.92,-359.09 482.85,-367.86 487.03,-362.25"/>
</g>
<!-- 28 -->
<g id="node29" class="node">
<title>28</title>
<ellipse fill="white" stroke="black" cx="561.04" cy="-342.56" rx="60.26" ry="22.06"/>
<text text-anchor="middle" x="561.04" y="-338.36" font-family="Arial" font-size="14.00">elevation_v</text>
</g>
<!-- 14&#45;&gt;28 -->
<g id="edge28" class="edge">
<title>14&#45;&gt;28</title>
<path fill="none" stroke="black" d="M561.04,-400.33C561.04,-392.93 561.04,-384.44 561.04,-376.33"/>
<polygon fill="black" stroke="black" points="564.54,-376.39 561.04,-366.39 557.54,-376.39 564.54,-376.39"/>
</g>
<!-- 16 -->
<g id="node17" class="node">
<title>16</title>
<ellipse fill="white" stroke="black" cx="456.04" cy="-262.43" rx="27" ry="22.06"/>
<text text-anchor="middle" x="456.04" y="-258.23" font-family="Arial" font-size="14.00">neg</text>
</g>
<!-- 15&#45;&gt;16 -->
<g id="edge16" class="edge">
<title>15&#45;&gt;16</title>
<path fill="none" stroke="black" d="M456.04,-320.21C456.04,-312.8 456.04,-304.32 456.04,-296.2"/>
<polygon fill="black" stroke="black" points="459.54,-296.27 456.04,-286.27 452.54,-296.27 459.54,-296.27"/>
</g>
<!-- 22 -->
<g id="node23" class="node">
<title>22</title>
<ellipse fill="white" stroke="black" cx="550.04" cy="-262.43" rx="27" ry="22.06"/>
<text text-anchor="middle" x="550.04" y="-258.23" font-family="Arial" font-size="14.00">mul</text>
</g>
<!-- 15&#45;&gt;22 -->
<g id="edge22" class="edge">
<title>15&#45;&gt;22</title>
<path fill="none" stroke="black" d="M474.62,-326.12C488.39,-314.67 507.39,-298.88 522.87,-286.02"/>
<polygon fill="black" stroke="black" points="524.89,-288.89 530.35,-279.8 520.42,-283.5 524.89,-288.89"/>
</g>
<!-- 17 -->
<g id="node18" class="node">
<title>17</title>
<ellipse fill="white" stroke="black" cx="456.04" cy="-182.31" rx="27" ry="22.06"/>
<text text-anchor="middle" x="456.04" y="-178.11" font-family="Arial" font-size="14.00">add</text>
</g>
<!-- 16&#45;&gt;17 -->
<g id="edge17" class="edge">
<title>16&#45;&gt;17</title>
<path fill="none" stroke="black" d="M456.04,-240.08C456.04,-232.68 456.04,-224.19 456.04,-216.08"/>
<polygon fill="black" stroke="black" points="459.54,-216.14 456.04,-206.14 452.54,-216.14 459.54,-216.14"/>
</g>
<!-- 18 -->
<g id="node19" class="node">
<title>18</title>
<ellipse fill="white" stroke="black" cx="371.04" cy="-102.19" rx="27" ry="22.06"/>
<text text-anchor="middle" x="371.04" y="-97.99" font-family="Arial" font-size="14.00">neg</text>
</g>
<!-- 17&#45;&gt;18 -->
<g id="edge18" class="edge">
<title>17&#45;&gt;18</title>
<path fill="none" stroke="black" d="M438.43,-165.12C426.47,-154.12 410.43,-139.39 397.01,-127.05"/>
<polygon fill="black" stroke="black" points="399.48,-124.57 389.75,-120.38 394.74,-129.72 399.48,-124.57"/>
</g>
<!-- 20 -->
<g id="node21" class="node">
<title>20</title>
<ellipse fill="white" stroke="black" cx="456.04" cy="-102.19" rx="27" ry="22.06"/>
<text text-anchor="middle" x="456.04" y="-97.99" font-family="Arial" font-size="14.00">neg</text>
</g>
<!-- 17&#45;&gt;20 -->
<g id="edge20" class="edge">
<title>17&#45;&gt;20</title>
<path fill="none" stroke="black" d="M456.04,-159.96C456.04,-152.55 456.04,-144.07 456.04,-135.96"/>
<polygon fill="black" stroke="black" points="459.54,-136.02 456.04,-126.02 452.54,-136.02 459.54,-136.02"/>
</g>
<!-- 19 -->
<g id="node20" class="node">
<title>19</title>
<ellipse fill="white" stroke="black" cx="357.04" cy="-22.06" rx="47.05" ry="22.06"/>
<text text-anchor="middle" x="357.04" y="-17.86" font-family="Arial" font-size="14.00">distance</text>
</g>
<!-- 18&#45;&gt;19 -->
<g id="edge19" class="edge">
<title>18&#45;&gt;19</title>
<path fill="none" stroke="black" d="M367.29,-80.25C365.94,-72.69 364.38,-63.97 362.89,-55.65"/>
<polygon fill="black" stroke="black" points="366.33,-55.04 361.12,-45.82 359.44,-56.28 366.33,-55.04"/>
</g>
<!-- 21 -->
<g id="node22" class="node">
<title>21</title>
<ellipse fill="white" stroke="black" cx="457.04" cy="-22.06" rx="34.96" ry="22.06"/>
<text text-anchor="middle" x="457.04" y="-17.86" font-family="Arial" font-size="14.00">3.685</text>
</g>
<!-- 20&#45;&gt;21 -->
<g id="edge21" class="edge">
<title>20&#45;&gt;21</title>
<path fill="none" stroke="black" d="M456.32,-79.84C456.41,-72.43 456.52,-63.95 456.62,-55.83"/>
<polygon fill="black" stroke="black" points="460.12,-55.94 456.75,-45.9 453.12,-55.85 460.12,-55.94"/>
</g>
<!-- 23 -->
<g id="node24" class="node">
<title>23</title>
<ellipse fill="white" stroke="black" cx="550.04" cy="-182.31" rx="27" ry="22.06"/>
<text text-anchor="middle" x="550.04" y="-178.11" font-family="Arial" font-size="14.00">neg</text>
</g>
<!-- 22&#45;&gt;23 -->
<g id="edge23" class="edge">
<title>22&#45;&gt;23</title>
<path fill="none" stroke="black" d="M550.04,-240.08C550.04,-232.68 550.04,-224.19 550.04,-216.08"/>
<polygon fill="black" stroke="black" points="553.54,-216.14 550.04,-206.14 546.54,-216.14 553.54,-216.14"/>
</g>
<!-- 27 -->
<g id="node28" class="node">
<title>27</title>
<ellipse fill="white" stroke="black" cx="656.04" cy="-182.31" rx="60.82" ry="22.06"/>
<text text-anchor="middle" x="656.04" y="-178.11" font-family="Arial" font-size="14.00">elevation_u</text>
</g>
<!-- 22&#45;&gt;27 -->
<g id="edge27" class="edge">
<title>22&#45;&gt;27</title>
<path fill="none" stroke="black" d="M569.49,-247.1C583.81,-236.55 603.68,-221.9 620.78,-209.3"/>
<polygon fill="black" stroke="black" points="622.74,-212.2 628.72,-203.45 618.59,-206.56 622.74,-212.2"/>
</g>
<!-- 24 -->
<g id="node25" class="node">
<title>24</title>
<ellipse fill="white" stroke="black" cx="571.04" cy="-102.19" rx="69.62" ry="22.06"/>
<text text-anchor="middle" x="571.04" y="-97.99" font-family="Arial" font-size="14.00">protected_div</text>
</g>
<!-- 23&#45;&gt;24 -->
<g id="edge24" class="edge">
<title>23&#45;&gt;24</title>
<path fill="none" stroke="black" d="M555.67,-160.37C557.73,-152.73 560.1,-143.9 562.36,-135.49"/>
<polygon fill="black" stroke="black" points="565.72,-136.48 564.94,-125.91 558.96,-134.66 565.72,-136.48"/>
</g>
<!-- 25 -->
<g id="node26" class="node">
<title>25</title>
<ellipse fill="white" stroke="black" cx="571.04" cy="-22.06" rx="60.82" ry="22.06"/>
<text text-anchor="middle" x="571.04" y="-17.86" font-family="Arial" font-size="14.00">elevation_u</text>
</g>
<!-- 24&#45;&gt;25 -->
<g id="edge25" class="edge">
<title>24&#45;&gt;25</title>
<path fill="none" stroke="black" d="M571.04,-79.84C571.04,-72.43 571.04,-63.95 571.04,-55.83"/>
<polygon fill="black" stroke="black" points="574.54,-55.9 571.04,-45.9 567.54,-55.9 574.54,-55.9"/>
</g>
<!-- 26 -->
<g id="node27" class="node">
<title>26</title>
<ellipse fill="white" stroke="black" cx="685.04" cy="-22.06" rx="34.96" ry="22.06"/>
<text text-anchor="middle" x="685.04" y="-17.86" font-family="Arial" font-size="14.00">4.164</text>
</g>
<!-- 24&#45;&gt;26 -->
<g id="edge26" class="edge">
<title>24&#45;&gt;26</title>
<path fill="none" stroke="black" d="M599.52,-81.67C615.62,-70.64 635.8,-56.81 652.52,-45.35"/>
<polygon fill="black" stroke="black" points="654.39,-48.31 660.66,-39.77 650.43,-42.54 654.39,-48.31"/>
</g>
<!-- 30 -->
<g id="node31" class="node">
<title>30</title>
<ellipse fill="white" stroke="black" cx="686.04" cy="-342.56" rx="47.04" ry="22.06"/>
<text text-anchor="middle" x="686.04" y="-338.36" font-family="Arial" font-size="14.00">is_water</text>
</g>
<!-- 29&#45;&gt;30 -->
<g id="edge30" class="edge">
<title>29&#45;&gt;30</title>
<path fill="none" stroke="black" d="M730.28,-401.15C723.61,-392.47 715.73,-382.2 708.47,-372.76"/>
<polygon fill="black" stroke="black" points="711.28,-370.67 702.42,-364.87 705.73,-374.94 711.28,-370.67"/>
</g>
<!-- 31 -->
<g id="node32" class="node">
<title>31</title>
<ellipse fill="white" stroke="black" cx="806.04" cy="-342.56" rx="55.31" ry="22.06"/>
<text text-anchor="middle" x="806.04" y="-338.36" font-family="Arial" font-size="14.00">steepness</text>
</g>
<!-- 29&#45;&gt;31 -->
<g id="edge31" class="edge">
<title>29&#45;&gt;31</title>
<path fill="none" stroke="black" d="M761.81,-401.15C768.42,-392.54 776.24,-382.36 783.45,-372.98"/>
<polygon fill="black" stroke="black" points="786.15,-375.21 789.46,-365.14 780.6,-370.94 786.15,-375.21"/>
</g>
<!-- 32 -->
<g id="node33" class="node">
<title>32</title>
<ellipse fill="white" stroke="black" cx="940.04" cy="-342.56" rx="60.26" ry="22.06"/>
<text text-anchor="middle" x="940.04" y="-338.36" font-family="Arial" font-size="14.00">elevation_v</text>
</g>
<!-- 29&#45;&gt;32 -->
<g id="edge32" class="edge">
<title>29&#45;&gt;32</title>
<path fill="none" stroke="black" d="M786.71,-405.3C816.76,-393.2 857.84,-376.66 889.92,-363.74"/>
<polygon fill="black" stroke="black" points="891.05,-367.06 899.02,-360.08 888.44,-360.56 891.05,-367.06"/>
</g>
<!-- 34 -->
<g id="node35" class="node">
<title>34</title>
<ellipse fill="white" stroke="black" cx="816.04" cy="-502.8" rx="27" ry="22.06"/>
<text text-anchor="middle" x="816.04" y="-498.6" font-family="Arial" font-size="14.00">neg</text>
</g>
<!-- 33&#45;&gt;34 -->
<g id="edge34" class="edge">
<title>33&#45;&gt;34</title>
<path fill="none" stroke="black" d="M752.22,-565.36C763.39,-554.59 778.15,-540.35 790.66,-528.29"/>
<polygon fill="black" stroke="black" points="793.03,-530.86 797.8,-521.4 788.17,-525.82 793.03,-530.86"/>
</g>
<!-- 35 -->
<g id="node36" class="node">
<title>35</title>
<ellipse fill="white" stroke="black" cx="980.04" cy="-422.68" rx="27" ry="22.06"/>
<text text-anchor="middle" x="980.04" y="-418.48" font-family="Arial" font-size="14.00">neg</text>
</g>
<!-- 34&#45;&gt;35 -->
<g id="edge35" class="edge">
<title>34&#45;&gt;35</title>
<path fill="none" stroke="black" d="M839.19,-490.78C867.28,-477.4 914.82,-454.75 946.81,-439.51"/>
<polygon fill="black" stroke="black" points="948.12,-442.76 955.65,-435.3 945.11,-436.44 948.12,-442.76"/>
</g>
<!-- 36 -->
<g id="node37" class="node">
<title>36</title>
<ellipse fill="white" stroke="black" cx="1045.04" cy="-342.56" rx="27" ry="22.06"/>
<text text-anchor="middle" x="1045.04" y="-338.36" font-family="Arial" font-size="14.00">neg</text>
</g>
<!-- 35&#45;&gt;36 -->
<g id="edge36" class="edge">
<title>35&#45;&gt;36</title>
<path fill="none" stroke="black" d="M994.79,-403.95C1003.13,-393.93 1013.71,-381.22 1023.01,-370.04"/>
<polygon fill="black" stroke="black" points="1025.45,-372.57 1029.16,-362.65 1020.07,-368.1 1025.45,-372.57"/>
</g>
<!-- 37 -->
<g id="node38" class="node">
<title>37</title>
<ellipse fill="white" stroke="black" cx="1045.04" cy="-262.43" rx="27" ry="22.06"/>
<text text-anchor="middle" x="1045.04" y="-258.23" font-family="Arial" font-size="14.00">neg</text>
</g>
<!-- 36&#45;&gt;37 -->
<g id="edge37" class="edge">
<title>36&#45;&gt;37</title>
<path fill="none" stroke="black" d="M1045.04,-320.21C1045.04,-312.8 1045.04,-304.32 1045.04,-296.2"/>
<polygon fill="black" stroke="black" points="1048.54,-296.27 1045.04,-286.27 1041.54,-296.27 1048.54,-296.27"/>
</g>
<!-- 38 -->
<g id="node39" class="node">
<title>38</title>
<ellipse fill="white" stroke="black" cx="1045.04" cy="-182.31" rx="75.12" ry="22.06"/>
<text text-anchor="middle" x="1045.04" y="-178.11" font-family="Arial" font-size="14.00">protected_pow</text>
</g>
<!-- 37&#45;&gt;38 -->
<g id="edge38" class="edge">
<title>37&#45;&gt;38</title>
<path fill="none" stroke="black" d="M1045.04,-240.08C1045.04,-232.68 1045.04,-224.19 1045.04,-216.08"/>
<polygon fill="black" stroke="black" points="1048.54,-216.14 1045.04,-206.14 1041.54,-216.14 1048.54,-216.14"/>
</g>
<!-- 39 -->
<g id="node40" class="node">
<title>39</title>
<ellipse fill="white" stroke="black" cx="1004.04" cy="-102.19" rx="29.45" ry="22.06"/>
<text text-anchor="middle" x="1004.04" y="-97.99" font-family="Arial" font-size="14.00">2.41</text>
</g>
<!-- 38&#45;&gt;39 -->
<g id="edge39" class="edge">
<title>38&#45;&gt;39</title>
<path fill="none" stroke="black" d="M1034.06,-160.37C1029.69,-152.06 1024.59,-142.33 1019.84,-133.28"/>
<polygon fill="black" stroke="black" points="1022.95,-131.67 1015.2,-124.44 1016.75,-134.92 1022.95,-131.67"/>
</g>
<!-- 40 -->
<g id="node41" class="node">
<title>40</title>
<ellipse fill="white" stroke="black" cx="1086.04" cy="-102.19" rx="34.96" ry="22.06"/>
<text text-anchor="middle" x="1086.04" y="-97.99" font-family="Arial" font-size="14.00">3.978</text>
</g>
<!-- 38&#45;&gt;40 -->
<g id="edge40" class="edge">
<title>38&#45;&gt;40</title>
<path fill="none" stroke="black" d="M1056.03,-160.37C1060.33,-152.19 1065.34,-142.64 1070.02,-133.71"/>
<polygon fill="black" stroke="black" points="1073.06,-135.46 1074.61,-124.98 1066.86,-132.21 1073.06,-135.46"/>
</g>
</g>
</svg>
