<?xml version="1.0" encoding="UTF-8" standalone="no"?>
<!DOCTYPE svg PUBLIC "-//W3C//DTD SVG 1.1//EN"
 "http://www.w3.org/Graphics/SVG/1.1/DTD/svg11.dtd">
<!-- Generated by graphviz version 12.2.1 (0)
 -->
<!-- Title: G Pages: 1 -->
<svg width="1110pt" height="886pt"
 viewBox="36.00 36.00 1074.31 850.03" xmlns="http://www.w3.org/2000/svg" xmlns:xlink="http://www.w3.org/1999/xlink">
<g id="graph0" class="graph" transform="scale(1 1) rotate(0) translate(40 846.03)">
<title>G</title>
<polygon fill="white" stroke="none" points="-4,4 -4,-810.03 1034.31,-810.03 1034.31,4 -4,4"/>
<text text-anchor="middle" x="515.15" y="-789.43" font-family="Times New Roman,serif" font-size="14.00">Best evolved cost function tree, after pruning</text>
<!-- 0 -->
<g id="node1" class="node">
<title>0</title>
<ellipse fill="white" stroke="black" cx="668.04" cy="-743.17" rx="27" ry="22.06"/>
<text text-anchor="middle" x="668.04" y="-738.97" font-family="Arial" font-size="14.00">neg</text>
</g>
<!-- 1 -->
<g id="node2" class="node">
<title>1</title>
<ellipse fill="white" stroke="black" cx="668.04" cy="-663.05" rx="27" ry="22.06"/>
<text text-anchor="middle" x="668.04" y="-658.85" font-family="Arial" font-size="14.00">add</text>
</g>
<!-- 0&#45;&gt;1 -->
<g id="edge1" class="edge">
<title>0&#45;&gt;1</title>
<path fill="none" stroke="black" d="M668.04,-720.83C668.04,-713.42 668.04,-704.93 668.04,-696.82"/>
<polygon fill="black" stroke="black" points="671.54,-696.88 668.04,-686.88 664.54,-696.88 671.54,-696.88"/>
</g>
<!-- 2 -->
<g id="node3" class="node">
<title>2</title>
<ellipse fill="white" stroke="black" cx="632.04" cy="-582.93" rx="27" ry="22.06"/>
<text text-anchor="middle" x="632.04" y="-578.73" font-family="Arial" font-size="14.00">sub</text>
</g>
<!-- 1&#45;&gt;2 -->
<g id="edge2" class="edge">
<title>1&#45;&gt;2</title>
<path fill="none" stroke="black" d="M658.77,-641.93C654.91,-633.55 650.34,-623.63 646.08,-614.38"/>
<polygon fill="black" stroke="black" points="649.28,-612.97 641.92,-605.35 642.92,-615.9 649.28,-612.97"/>
</g>
<!-- 28 -->
<g id="node29" class="node">
<title>28</title>
<ellipse fill="white" stroke="black" cx="786.04" cy="-582.93" rx="27" ry="22.06"/>
<text text-anchor="middle" x="786.04" y="-578.73" font-family="Arial" font-size="14.00">neg</text>
</g>
<!-- 1&#45;&gt;28 -->
<g id="edge28" class="edge">
<title>1&#45;&gt;28</title>
<path fill="none" stroke="black" d="M688.6,-648.44C707.18,-636.14 734.78,-617.87 755.86,-603.91"/>
<polygon fill="black" stroke="black" points="757.66,-606.91 764.07,-598.48 753.8,-601.08 757.66,-606.91"/>
</g>
<!-- 3 -->
<g id="node4" class="node">
<title>3</title>
<ellipse fill="white" stroke="black" cx="240.04" cy="-502.8" rx="63.57" ry="22.06"/>
<text text-anchor="middle" x="240.04" y="-498.6" font-family="Arial" font-size="14.00">if_then_else</text>
</g>
<!-- 2&#45;&gt;3 -->
<g id="edge3" class="edge">
<title>2&#45;&gt;3</title>
<path fill="none" stroke="black" d="M605.72,-576.68C544.95,-564.57 393.42,-534.37 305.67,-516.88"/>
<polygon fill="black" stroke="black" points="306.49,-513.48 296,-514.95 305.12,-520.34 306.49,-513.48"/>
</g>
<!-- 11 -->
<g id="node12" class="node">
<title>11</title>
<ellipse fill="white" stroke="black" cx="632.04" cy="-502.8" rx="27" ry="22.06"/>
<text text-anchor="middle" x="632.04" y="-498.6" font-family="Arial" font-size="14.00">sub</text>
</g>
<!-- 2&#45;&gt;11 -->
<g id="edge11" class="edge">
<title>2&#45;&gt;11</title>
<path fill="none" stroke="black" d="M632.04,-560.58C632.04,-553.17 632.04,-544.69 632.04,-536.58"/>
<polygon fill="black" stroke="black" points="635.54,-536.64 632.04,-526.64 628.54,-536.64 635.54,-536.64"/>
</g>
<!-- 4 -->
<g id="node5" class="node">
<title>4</title>
<ellipse fill="white" stroke="black" cx="47.04" cy="-422.68" rx="47.04" ry="22.06"/>
<text text-anchor="middle" x="47.04" y="-418.48" font-family="Arial" font-size="14.00">is_water</text>
</g>
<!-- 3&#45;&gt;4 -->
<g id="edge4" class="edge">
<title>3&#45;&gt;4</title>
<path fill="none" stroke="black" d="M199.59,-485.43C168.3,-472.76 125,-455.23 92.52,-442.09"/>
<polygon fill="black" stroke="black" points="93.94,-438.88 83.35,-438.38 91.31,-445.37 93.94,-438.88"/>
</g>
<!-- 5 -->
<g id="node6" class="node">
<title>5</title>
<ellipse fill="white" stroke="black" cx="182.04" cy="-422.68" rx="70.17" ry="22.06"/>
<text text-anchor="middle" x="182.04" y="-418.48" font-family="Arial" font-size="14.00">protected_log</text>
</g>
<!-- 3&#45;&gt;5 -->
<g id="edge5" class="edge">
<title>3&#45;&gt;5</title>
<path fill="none" stroke="black" d="M224.81,-481.28C218.58,-472.89 211.25,-463.02 204.43,-453.84"/>
<polygon fill="black" stroke="black" points="207.26,-451.77 198.49,-445.83 201.64,-455.94 207.26,-451.77"/>
</g>
<!-- 8 -->
<g id="node9" class="node">
<title>8</title>
<ellipse fill="white" stroke="black" cx="297.04" cy="-422.68" rx="27" ry="22.06"/>
<text text-anchor="middle" x="297.04" y="-418.48" font-family="Arial" font-size="14.00">add</text>
</g>
<!-- 3&#45;&gt;8 -->
<g id="edge8" class="edge">
<title>3&#45;&gt;8</title>
<path fill="none" stroke="black" d="M255.02,-481.28C261.72,-472.09 269.72,-461.13 276.93,-451.25"/>
<polygon fill="black" stroke="black" points="279.57,-453.56 282.64,-443.42 273.92,-449.44 279.57,-453.56"/>
</g>
<!-- 6 -->
<g id="node7" class="node">
<title>6</title>
<ellipse fill="white" stroke="black" cx="94.04" cy="-342.56" rx="34.96" ry="22.06"/>
<text text-anchor="middle" x="94.04" y="-338.36" font-family="Arial" font-size="14.00">3.148</text>
</g>
<!-- 5&#45;&gt;6 -->
<g id="edge6" class="edge">
<title>5&#45;&gt;6</title>
<path fill="none" stroke="black" d="M159.38,-401.56C148.07,-391.52 134.28,-379.28 122.29,-368.63"/>
<polygon fill="black" stroke="black" points="124.87,-366.24 115.07,-362.22 120.22,-371.47 124.87,-366.24"/>
</g>
<!-- 7 -->
<g id="node8" class="node">
<title>7</title>
<ellipse fill="white" stroke="black" cx="182.04" cy="-342.56" rx="34.96" ry="22.06"/>
<text text-anchor="middle" x="182.04" y="-338.36" font-family="Arial" font-size="14.00">9.535</text>
</g>
<!-- 5&#45;&gt;7 -->
<g id="edge7" class="edge">
<title>5&#45;&gt;7</title>
<path fill="none" stroke="black" d="M182.04,-400.33C182.04,-392.93 182.04,-384.44 182.04,-376.33"/>
<polygon fill="black" stroke="black" points="185.54,-376.39 182.04,-366.39 178.54,-376.39 185.54,-376.39"/>
</g>
<!-- 9 -->
<g id="node10" class="node">
<title>9</title>
<ellipse fill="white" stroke="black" cx="282.04" cy="-342.56" rx="47.05" ry="22.06"/>
<text text-anchor="middle" x="282.04" y="-338.36" font-family="Arial" font-size="14.00">distance</text>
</g>
<!-- 8&#45;&gt;9 -->
<g id="edge9" class="edge">
<title>8&#45;&gt;9</title>
<path fill="none" stroke="black" d="M293.02,-400.74C291.56,-393.1 289.86,-384.27 288.25,-375.86"/>
<polygon fill="black" stroke="black" points="291.74,-375.47 286.41,-366.31 284.86,-376.79 291.74,-375.47"/>
</g>
<!-- 10 -->
<g id="node11" class="node">
<title>10</title>
<ellipse fill="white" stroke="black" cx="394.04" cy="-342.56" rx="47.05" ry="22.06"/>
<text text-anchor="middle" x="394.04" y="-338.36" font-family="Arial" font-size="14.00">distance</text>
</g>
<!-- 8&#45;&gt;10 -->
<g id="edge10" class="edge">
<title>8&#45;&gt;10</title>
<path fill="none" stroke="black" d="M315.75,-406.62C328.91,-396.02 346.85,-381.56 362.24,-369.17"/>
<polygon fill="black" stroke="black" points="364.18,-372.1 369.77,-363.11 359.79,-366.65 364.18,-372.1"/>
</g>
<!-- 12 -->
<g id="node13" class="node">
<title>12</title>
<ellipse fill="white" stroke="black" cx="591.04" cy="-422.68" rx="27" ry="22.06"/>
<text text-anchor="middle" x="591.04" y="-418.48" font-family="Arial" font-size="14.00">sub</text>
</g>
<!-- 11&#45;&gt;12 -->
<g id="edge12" class="edge">
<title>11&#45;&gt;12</title>
<path fill="none" stroke="black" d="M621.7,-482.09C617.13,-473.39 611.67,-462.98 606.63,-453.38"/>
<polygon fill="black" stroke="black" points="609.84,-451.95 602.09,-444.73 603.64,-455.21 609.84,-451.95"/>
</g>
<!-- 24 -->
<g id="node25" class="node">
<title>24</title>
<ellipse fill="white" stroke="black" cx="716.04" cy="-422.68" rx="63.57" ry="22.06"/>
<text text-anchor="middle" x="716.04" y="-418.48" font-family="Arial" font-size="14.00">if_then_else</text>
</g>
<!-- 11&#45;&gt;24 -->
<g id="edge24" class="edge">
<title>11&#45;&gt;24</title>
<path fill="none" stroke="black" d="M649.45,-485.62C660.07,-475.74 673.93,-462.85 686.25,-451.39"/>
<polygon fill="black" stroke="black" points="688.43,-454.14 693.37,-444.77 683.67,-449.01 688.43,-454.14"/>
</g>
<!-- 13 -->
<g id="node14" class="node">
<title>13</title>
<ellipse fill="white" stroke="black" cx="486.04" cy="-342.56" rx="27" ry="22.06"/>
<text text-anchor="middle" x="486.04" y="-338.36" font-family="Arial" font-size="14.00">sub</text>
</g>
<!-- 12&#45;&gt;13 -->
<g id="edge13" class="edge">
<title>12&#45;&gt;13</title>
<path fill="none" stroke="black" d="M571.29,-406.98C555.31,-395.09 532.58,-378.18 514.61,-364.81"/>
<polygon fill="black" stroke="black" points="517.03,-362.25 506.92,-359.09 512.85,-367.86 517.03,-362.25"/>
</g>
<!-- 23 -->
<g id="node24" class="node">
<title>23</title>
<ellipse fill="white" stroke="black" cx="591.04" cy="-342.56" rx="60.26" ry="22.06"/>
<text text-anchor="middle" x="591.04" y="-338.36" font-family="Arial" font-size="14.00">elevation_v</text>
</g>
<!-- 12&#45;&gt;23 -->
<g id="edge23" class="edge">
<title>12&#45;&gt;23</title>
<path fill="none" stroke="black" d="M591.04,-400.33C591.04,-392.93 591.04,-384.44 591.04,-376.33"/>
<polygon fill="black" stroke="black" points="594.54,-376.39 591.04,-366.39 587.54,-376.39 594.54,-376.39"/>
</g>
<!-- 14 -->
<g id="node15" class="node">
<title>14</title>
<ellipse fill="white" stroke="black" cx="446.04" cy="-262.43" rx="27" ry="22.06"/>
<text text-anchor="middle" x="446.04" y="-258.23" font-family="Arial" font-size="14.00">add</text>
</g>
<!-- 13&#45;&gt;14 -->
<g id="edge14" class="edge">
<title>13&#45;&gt;14</title>
<path fill="none" stroke="black" d="M475.95,-321.84C471.5,-313.14 466.17,-302.74 461.25,-293.13"/>
<polygon fill="black" stroke="black" points="464.5,-291.79 456.82,-284.49 458.27,-294.98 464.5,-291.79"/>
</g>
<!-- 17 -->
<g id="node18" class="node">
<title>17</title>
<ellipse fill="white" stroke="black" cx="526.04" cy="-262.43" rx="27" ry="22.06"/>
<text text-anchor="middle" x="526.04" y="-258.23" font-family="Arial" font-size="14.00">mul</text>
</g>
<!-- 13&#45;&gt;17 -->
<g id="edge17" class="edge">
<title>13&#45;&gt;17</title>
<path fill="none" stroke="black" d="M496.14,-321.84C500.59,-313.14 505.92,-302.74 510.84,-293.13"/>
<polygon fill="black" stroke="black" points="513.82,-294.98 515.26,-284.49 507.59,-291.79 513.82,-294.98"/>
</g>
<!-- 15 -->
<g id="node16" class="node">
<title>15</title>
<ellipse fill="white" stroke="black" cx="346.04" cy="-182.31" rx="47.05" ry="22.06"/>
<text text-anchor="middle" x="346.04" y="-178.11" font-family="Arial" font-size="14.00">distance</text>
</g>
<!-- 14&#45;&gt;15 -->
<g id="edge15" class="edge">
<title>14&#45;&gt;15</title>
<path fill="none" stroke="black" d="M426.76,-246.37C413.1,-235.69 394.44,-221.12 378.5,-208.66"/>
<polygon fill="black" stroke="black" points="380.72,-205.96 370.68,-202.56 376.41,-211.47 380.72,-205.96"/>
</g>
<!-- 16 -->
<g id="node17" class="node">
<title>16</title>
<ellipse fill="white" stroke="black" cx="446.04" cy="-182.31" rx="34.96" ry="22.06"/>
<text text-anchor="middle" x="446.04" y="-178.11" font-family="Arial" font-size="14.00">3.685</text>
</g>
<!-- 14&#45;&gt;16 -->
<g id="edge16" class="edge">
<title>14&#45;&gt;16</title>
<path fill="none" stroke="black" d="M446.04,-240.08C446.04,-232.68 446.04,-224.19 446.04,-216.08"/>
<polygon fill="black" stroke="black" points="449.54,-216.14 446.04,-206.14 442.54,-216.14 449.54,-216.14"/>
</g>
<!-- 18 -->
<g id="node19" class="node">
<title>18</title>
<ellipse fill="white" stroke="black" cx="526.04" cy="-182.31" rx="27" ry="22.06"/>
<text text-anchor="middle" x="526.04" y="-178.11" font-family="Arial" font-size="14.00">neg</text>
</g>
<!-- 17&#45;&gt;18 -->
<g id="edge18" class="edge">
<title>17&#45;&gt;18</title>
<path fill="none" stroke="black" d="M526.04,-240.08C526.04,-232.68 526.04,-224.19 526.04,-216.08"/>
<polygon fill="black" stroke="black" points="529.54,-216.14 526.04,-206.14 522.54,-216.14 529.54,-216.14"/>
</g>
<!-- 22 -->
<g id="node23" class="node">
<title>22</title>
<ellipse fill="white" stroke="black" cx="632.04" cy="-182.31" rx="60.82" ry="22.06"/>
<text text-anchor="middle" x="632.04" y="-178.11" font-family="Arial" font-size="14.00">elevation_u</text>
</g>
<!-- 17&#45;&gt;22 -->
<g id="edge22" class="edge">
<title>17&#45;&gt;22</title>
<path fill="none" stroke="black" d="M545.49,-247.1C559.81,-236.55 579.68,-221.9 596.78,-209.3"/>
<polygon fill="black" stroke="black" points="598.74,-212.2 604.72,-203.45 594.59,-206.56 598.74,-212.2"/>
</g>
<!-- 19 -->
<g id="node20" class="node">
<title>19</title>
<ellipse fill="white" stroke="black" cx="526.04" cy="-102.19" rx="69.62" ry="22.06"/>
<text text-anchor="middle" x="526.04" y="-97.99" font-family="Arial" font-size="14.00">protected_div</text>
</g>
<!-- 18&#45;&gt;19 -->
<g id="edge19" class="edge">
<title>18&#45;&gt;19</title>
<path fill="none" stroke="black" d="M526.04,-159.96C526.04,-152.55 526.04,-144.07 526.04,-135.96"/>
<polygon fill="black" stroke="black" points="529.54,-136.02 526.04,-126.02 522.54,-136.02 529.54,-136.02"/>
</g>
<!-- 20 -->
<g id="node21" class="node">
<title>20</title>
<ellipse fill="white" stroke="black" cx="469.04" cy="-22.06" rx="60.82" ry="22.06"/>
<text text-anchor="middle" x="469.04" y="-17.86" font-family="Arial" font-size="14.00">elevation_u</text>
</g>
<!-- 19&#45;&gt;20 -->
<g id="edge20" class="edge">
<title>19&#45;&gt;20</title>
<path fill="none" stroke="black" d="M510.77,-80.25C504.65,-71.86 497.49,-62.04 490.84,-52.93"/>
<polygon fill="black" stroke="black" points="493.78,-51.02 485.06,-45.01 488.12,-55.15 493.78,-51.02"/>
</g>
<!-- 21 -->
<g id="node22" class="node">
<title>21</title>
<ellipse fill="white" stroke="black" cx="583.04" cy="-22.06" rx="34.96" ry="22.06"/>
<text text-anchor="middle" x="583.04" y="-17.86" font-family="Arial" font-size="14.00">4.164</text>
</g>
<!-- 19&#45;&gt;21 -->
<g id="edge21" class="edge">
<title>19&#45;&gt;21</title>
<path fill="none" stroke="black" d="M541.32,-80.25C547.75,-71.44 555.33,-61.04 562.26,-51.55"/>
<polygon fill="black" stroke="black" points="564.94,-53.81 568.01,-43.67 559.29,-49.68 564.94,-53.81"/>
</g>
<!-- 25 -->
<g id="node26" class="node">
<title>25</title>
<ellipse fill="white" stroke="black" cx="716.04" cy="-342.56" rx="47.04" ry="22.06"/>
<text text-anchor="middle" x="716.04" y="-338.36" font-family="Arial" font-size="14.00">is_water</text>
</g>
<!-- 24&#45;&gt;25 -->
<g id="edge25" class="edge">
<title>24&#45;&gt;25</title>
<path fill="none" stroke="black" d="M716.04,-400.33C716.04,-392.93 716.04,-384.44 716.04,-376.33"/>
<polygon fill="black" stroke="black" points="719.54,-376.39 716.04,-366.39 712.54,-376.39 719.54,-376.39"/>
</g>
<!-- 26 -->
<g id="node27" class="node">
<title>26</title>
<ellipse fill="white" stroke="black" cx="836.04" cy="-342.56" rx="55.31" ry="22.06"/>
<text text-anchor="middle" x="836.04" y="-338.36" font-family="Arial" font-size="14.00">steepness</text>
</g>
<!-- 24&#45;&gt;26 -->
<g id="edge26" class="edge">
<title>24&#45;&gt;26</title>
<path fill="none" stroke="black" d="M745.09,-402.77C761.25,-392.25 781.52,-379.05 798.83,-367.79"/>
<polygon fill="black" stroke="black" points="800.35,-370.97 806.82,-362.58 796.53,-365.1 800.35,-370.97"/>
</g>
<!-- 27 -->
<g id="node28" class="node">
<title>27</title>
<ellipse fill="white" stroke="black" cx="970.04" cy="-342.56" rx="60.26" ry="22.06"/>
<text text-anchor="middle" x="970.04" y="-338.36" font-family="Arial" font-size="14.00">elevation_v</text>
</g>
<!-- 24&#45;&gt;27 -->
<g id="edge27" class="edge">
<title>24&#45;&gt;27</title>
<path fill="none" stroke="black" d="M762.63,-407.35C805.24,-394.25 868.35,-374.83 913.76,-360.87"/>
<polygon fill="black" stroke="black" points="914.63,-364.26 923.16,-357.98 912.57,-357.57 914.63,-364.26"/>
</g>
<!-- 29 -->
<g id="node30" class="node">
<title>29</title>
<ellipse fill="white" stroke="black" cx="827.04" cy="-502.8" rx="75.12" ry="22.06"/>
<text text-anchor="middle" x="827.04" y="-498.6" font-family="Arial" font-size="14.00">protected_pow</text>
</g>
<!-- 28&#45;&gt;29 -->
<g id="edge29" class="edge">
<title>28&#45;&gt;29</title>
<path fill="none" stroke="black" d="M796.39,-562.21C800.73,-553.94 805.89,-544.11 810.72,-534.9"/>
<polygon fill="black" stroke="black" points="813.73,-536.7 815.28,-526.22 807.53,-533.45 813.73,-536.7"/>
</g>
<!-- 30 -->
<g id="node31" class="node">
<title>30</title>
<ellipse fill="white" stroke="black" cx="827.04" cy="-422.68" rx="29.45" ry="22.06"/>
<text text-anchor="middle" x="827.04" y="-418.48" font-family="Arial" font-size="14.00">2.41</text>
</g>
<!-- 29&#45;&gt;30 -->
<g id="edge30" class="edge">
<title>29&#45;&gt;30</title>
<path fill="none" stroke="black" d="M827.04,-480.45C827.04,-473.05 827.04,-464.56 827.04,-456.45"/>
<polygon fill="black" stroke="black" points="830.54,-456.51 827.04,-446.51 823.54,-456.51 830.54,-456.51"/>
</g>
<!-- 31 -->
<g id="node32" class="node">
<title>31</title>
<ellipse fill="white" stroke="black" cx="909.04" cy="-422.68" rx="34.96" ry="22.06"/>
<text text-anchor="middle" x="909.04" y="-418.48" font-family="Arial" font-size="14.00">3.978</text>
</g>
<!-- 29&#45;&gt;31 -->
<g id="edge31" class="edge">
<title>29&#45;&gt;31</title>
<path fill="none" stroke="black" d="M848.59,-481.28C858.77,-471.57 871.04,-459.88 881.86,-449.58"/>
<polygon fill="black" stroke="black" points="884.23,-452.15 889.06,-442.72 879.4,-447.08 884.23,-452.15"/>
</g>
</g>
</svg>
