<?xml version="1.0" encoding="UTF-8" standalone="no"?>
<!DOCTYPE svg PUBLIC "-//W3C//DTD SVG 1.1//EN"
 "http://www.w3.org/Graphics/SVG/1.1/DTD/svg11.dtd">
<!-- Generated by graphviz version 12.2.1 (0)
 -->
<!-- Title: G Pages: 1 -->
<svg width="458pt" height="485pt"
 viewBox="36.00 36.00 422.13 449.42" xmlns="http://www.w3.org/2000/svg" xmlns:xlink="http://www.w3.org/1999/xlink">
<g id="graph0" class="graph" transform="scale(1 1) rotate(0) translate(40 445.42)">
<title>G</title>
<polygon fill="white" stroke="none" points="-4,4 -4,-409.42 382.13,-409.42 382.13,4 -4,4"/>
<text text-anchor="middle" x="189.07" y="-388.82" font-family="Times New Roman,serif" font-size="14.00">Fifth&#45;best evolved cost function tree, after pruning</text>
<!-- 0 -->
<g id="node1" class="node">
<title>0</title>
<ellipse fill="white" stroke="black" cx="138.82" cy="-342.56" rx="27" ry="22.06"/>
<text text-anchor="middle" x="138.82" y="-338.36" font-family="Arial" font-size="14.00">sub</text>
</g>
<!-- 1 -->
<g id="node2" class="node">
<title>1</title>
<ellipse fill="white" stroke="black" cx="92.82" cy="-262.43" rx="47.05" ry="22.06"/>
<text text-anchor="middle" x="92.82" y="-258.23" font-family="Arial" font-size="14.00">distance</text>
</g>
<!-- 0&#45;&gt;1 -->
<g id="edge1" class="edge">
<title>0&#45;&gt;1</title>
<path fill="none" stroke="black" d="M127.45,-322.24C122.45,-313.75 116.45,-303.56 110.86,-294.07"/>
<polygon fill="black" stroke="black" points="113.88,-292.31 105.79,-285.47 107.85,-295.86 113.88,-292.31"/>
</g>
<!-- 2 -->
<g id="node3" class="node">
<title>2</title>
<ellipse fill="white" stroke="black" cx="184.82" cy="-262.43" rx="27" ry="22.06"/>
<text text-anchor="middle" x="184.82" y="-258.23" font-family="Arial" font-size="14.00">sub</text>
</g>
<!-- 0&#45;&gt;2 -->
<g id="edge2" class="edge">
<title>0&#45;&gt;2</title>
<path fill="none" stroke="black" d="M150.19,-322.24C155.44,-313.32 161.79,-302.54 167.62,-292.65"/>
<polygon fill="black" stroke="black" points="170.6,-294.49 172.65,-284.1 164.56,-290.94 170.6,-294.49"/>
</g>
<!-- 3 -->
<g id="node4" class="node">
<title>3</title>
<ellipse fill="white" stroke="black" cx="131.82" cy="-182.31" rx="27" ry="22.06"/>
<text text-anchor="middle" x="131.82" y="-178.11" font-family="Arial" font-size="14.00">sub</text>
</g>
<!-- 2&#45;&gt;3 -->
<g id="edge3" class="edge">
<title>2&#45;&gt;3</title>
<path fill="none" stroke="black" d="M171.99,-242.52C165.68,-233.21 157.94,-221.8 150.94,-211.49"/>
<polygon fill="black" stroke="black" points="153.89,-209.61 145.38,-203.3 148.1,-213.54 153.89,-209.61"/>
</g>
<!-- 9 -->
<g id="node10" class="node">
<title>9</title>
<ellipse fill="white" stroke="black" cx="236.82" cy="-182.31" rx="60.26" ry="22.06"/>
<text text-anchor="middle" x="236.82" y="-178.11" font-family="Arial" font-size="14.00">elevation_v</text>
</g>
<!-- 2&#45;&gt;9 -->
<g id="edge9" class="edge">
<title>2&#45;&gt;9</title>
<path fill="none" stroke="black" d="M197.41,-242.52C203.18,-233.85 210.16,-223.36 216.64,-213.63"/>
<polygon fill="black" stroke="black" points="219.42,-215.77 222.05,-205.5 213.59,-211.89 219.42,-215.77"/>
</g>
<!-- 4 -->
<g id="node5" class="node">
<title>4</title>
<ellipse fill="white" stroke="black" cx="60.82" cy="-102.19" rx="60.82" ry="22.06"/>
<text text-anchor="middle" x="60.82" y="-97.99" font-family="Arial" font-size="14.00">elevation_u</text>
</g>
<!-- 3&#45;&gt;4 -->
<g id="edge4" class="edge">
<title>3&#45;&gt;4</title>
<path fill="none" stroke="black" d="M116.06,-163.97C107.49,-154.54 96.66,-142.62 86.87,-131.85"/>
<polygon fill="black" stroke="black" points="89.63,-129.68 80.32,-124.64 84.45,-134.39 89.63,-129.68"/>
</g>
<!-- 5 -->
<g id="node6" class="node">
<title>5</title>
<ellipse fill="white" stroke="black" cx="202.82" cy="-102.19" rx="63.57" ry="22.06"/>
<text text-anchor="middle" x="202.82" y="-97.99" font-family="Arial" font-size="14.00">if_then_else</text>
</g>
<!-- 3&#45;&gt;5 -->
<g id="edge5" class="edge">
<title>3&#45;&gt;5</title>
<path fill="none" stroke="black" d="M147.58,-163.97C156.15,-154.54 166.98,-142.62 176.77,-131.85"/>
<polygon fill="black" stroke="black" points="179.19,-134.39 183.32,-124.64 174.01,-129.68 179.19,-134.39"/>
</g>
<!-- 6 -->
<g id="node7" class="node">
<title>6</title>
<ellipse fill="white" stroke="black" cx="90.82" cy="-22.06" rx="47.04" ry="22.06"/>
<text text-anchor="middle" x="90.82" y="-17.86" font-family="Arial" font-size="14.00">is_water</text>
</g>
<!-- 5&#45;&gt;6 -->
<g id="edge6" class="edge">
<title>5&#45;&gt;6</title>
<path fill="none" stroke="black" d="M175.14,-81.87C160.08,-71.37 141.32,-58.29 125.32,-47.13"/>
<polygon fill="black" stroke="black" points="127.72,-44.53 117.51,-41.68 123.71,-50.27 127.72,-44.53"/>
</g>
<!-- 7 -->
<g id="node8" class="node">
<title>7</title>
<ellipse fill="white" stroke="black" cx="202.82" cy="-22.06" rx="47.05" ry="22.06"/>
<text text-anchor="middle" x="202.82" y="-17.86" font-family="Arial" font-size="14.00">distance</text>
</g>
<!-- 5&#45;&gt;7 -->
<g id="edge7" class="edge">
<title>5&#45;&gt;7</title>
<path fill="none" stroke="black" d="M202.82,-79.84C202.82,-72.43 202.82,-63.95 202.82,-55.83"/>
<polygon fill="black" stroke="black" points="206.32,-55.9 202.82,-45.9 199.32,-55.9 206.32,-55.9"/>
</g>
<!-- 8 -->
<g id="node9" class="node">
<title>8</title>
<ellipse fill="white" stroke="black" cx="322.82" cy="-22.06" rx="55.31" ry="22.06"/>
<text text-anchor="middle" x="322.82" y="-17.86" font-family="Arial" font-size="14.00">steepness</text>
</g>
<!-- 5&#45;&gt;8 -->
<g id="edge8" class="edge">
<title>5&#45;&gt;8</title>
<path fill="none" stroke="black" d="M231.87,-82.27C248.02,-71.76 268.3,-58.56 285.6,-47.29"/>
<polygon fill="black" stroke="black" points="287.13,-50.48 293.6,-42.09 283.31,-44.61 287.13,-50.48"/>
</g>
</g>
</svg>
