<?xml version="1.0" encoding="UTF-8" standalone="no"?>
<!DOCTYPE svg PUBLIC "-//W3C//DTD SVG 1.1//EN"
 "http://www.w3.org/Graphics/SVG/1.1/DTD/svg11.dtd">
<!-- Generated by graphviz version 12.2.1 (0)
 -->
<!-- Title: G Pages: 1 -->
<svg width="784pt" height="566pt"
 viewBox="36.00 36.00 747.64 529.54" xmlns="http://www.w3.org/2000/svg" xmlns:xlink="http://www.w3.org/1999/xlink">
<g id="graph0" class="graph" transform="scale(1 1) rotate(0) translate(40 525.54)">
<title>G</title>
<polygon fill="white" stroke="none" points="-4,4 -4,-489.54 707.64,-489.54 707.64,4 -4,4"/>
<text text-anchor="middle" x="351.82" y="-468.94" font-family="Times New Roman,serif" font-size="14.00">Fifth&#45;best evolved cost function tree</text>
<!-- 0 -->
<g id="node1" class="node">
<title>0</title>
<ellipse fill="white" stroke="black" cx="250.82" cy="-422.68" rx="27" ry="22.06"/>
<text text-anchor="middle" x="250.82" y="-418.48" font-family="Arial" font-size="14.00">add</text>
</g>
<!-- 1 -->
<g id="node2" class="node">
<title>1</title>
<ellipse fill="white" stroke="black" cx="186.82" cy="-342.56" rx="27" ry="22.06"/>
<text text-anchor="middle" x="186.82" y="-338.36" font-family="Arial" font-size="14.00">mul</text>
</g>
<!-- 0&#45;&gt;1 -->
<g id="edge1" class="edge">
<title>0&#45;&gt;1</title>
<path fill="none" stroke="black" d="M236.3,-403.95C228.17,-394.03 217.88,-381.47 208.79,-370.37"/>
<polygon fill="black" stroke="black" points="211.51,-368.17 202.47,-362.65 206.1,-372.61 211.51,-368.17"/>
</g>
<!-- 4 -->
<g id="node5" class="node">
<title>4</title>
<ellipse fill="white" stroke="black" cx="315.82" cy="-342.56" rx="27" ry="22.06"/>
<text text-anchor="middle" x="315.82" y="-338.36" font-family="Arial" font-size="14.00">sub</text>
</g>
<!-- 0&#45;&gt;4 -->
<g id="edge4" class="edge">
<title>0&#45;&gt;4</title>
<path fill="none" stroke="black" d="M265.57,-403.95C273.9,-393.93 284.49,-381.22 293.79,-370.04"/>
<polygon fill="black" stroke="black" points="296.23,-372.57 299.94,-362.65 290.85,-368.1 296.23,-372.57"/>
</g>
<!-- 2 -->
<g id="node3" class="node">
<title>2</title>
<ellipse fill="white" stroke="black" cx="60.82" cy="-262.43" rx="60.82" ry="22.06"/>
<text text-anchor="middle" x="60.82" y="-258.23" font-family="Arial" font-size="14.00">elevation_u</text>
</g>
<!-- 1&#45;&gt;2 -->
<g id="edge2" class="edge">
<title>1&#45;&gt;2</title>
<path fill="none" stroke="black" d="M165.73,-328.48C147.87,-317.41 121.78,-301.23 100.09,-287.78"/>
<polygon fill="black" stroke="black" points="102.11,-284.91 91.77,-282.62 98.42,-290.86 102.11,-284.91"/>
</g>
<!-- 3 -->
<g id="node4" class="node">
<title>3</title>
<ellipse fill="white" stroke="black" cx="186.82" cy="-262.43" rx="47.05" ry="22.06"/>
<text text-anchor="middle" x="186.82" y="-258.23" font-family="Arial" font-size="14.00">distance</text>
</g>
<!-- 1&#45;&gt;3 -->
<g id="edge3" class="edge">
<title>1&#45;&gt;3</title>
<path fill="none" stroke="black" d="M186.82,-320.21C186.82,-312.8 186.82,-304.32 186.82,-296.2"/>
<polygon fill="black" stroke="black" points="190.32,-296.27 186.82,-286.27 183.32,-296.27 190.32,-296.27"/>
</g>
<!-- 5 -->
<g id="node6" class="node">
<title>5</title>
<ellipse fill="white" stroke="black" cx="315.82" cy="-262.43" rx="63.57" ry="22.06"/>
<text text-anchor="middle" x="315.82" y="-258.23" font-family="Arial" font-size="14.00">if_then_else</text>
</g>
<!-- 4&#45;&gt;5 -->
<g id="edge5" class="edge">
<title>4&#45;&gt;5</title>
<path fill="none" stroke="black" d="M315.82,-320.21C315.82,-312.8 315.82,-304.32 315.82,-296.2"/>
<polygon fill="black" stroke="black" points="319.32,-296.27 315.82,-286.27 312.32,-296.27 319.32,-296.27"/>
</g>
<!-- 11 -->
<g id="node12" class="node">
<title>11</title>
<ellipse fill="white" stroke="black" cx="503.82" cy="-262.43" rx="27" ry="22.06"/>
<text text-anchor="middle" x="503.82" y="-258.23" font-family="Arial" font-size="14.00">add</text>
</g>
<!-- 4&#45;&gt;11 -->
<g id="edge11" class="edge">
<title>4&#45;&gt;11</title>
<path fill="none" stroke="black" d="M339.63,-331.66C372.45,-318.02 431.81,-293.36 469.44,-277.72"/>
<polygon fill="black" stroke="black" points="470.62,-281.02 478.51,-273.95 467.93,-274.56 470.62,-281.02"/>
</g>
<!-- 6 -->
<g id="node7" class="node">
<title>6</title>
<ellipse fill="white" stroke="black" cx="137.82" cy="-182.31" rx="71.26" ry="22.06"/>
<text text-anchor="middle" x="137.82" y="-178.11" font-family="Arial" font-size="14.00">identity_water</text>
</g>
<!-- 5&#45;&gt;6 -->
<g id="edge6" class="edge">
<title>5&#45;&gt;6</title>
<path fill="none" stroke="black" d="M277.2,-244.48C251.18,-233.06 216.59,-217.88 188.38,-205.5"/>
<polygon fill="black" stroke="black" points="189.86,-202.33 179.3,-201.51 187.05,-208.74 189.86,-202.33"/>
</g>
<!-- 9 -->
<g id="node10" class="node">
<title>9</title>
<ellipse fill="white" stroke="black" cx="261.82" cy="-182.31" rx="34.96" ry="22.06"/>
<text text-anchor="middle" x="261.82" y="-178.11" font-family="Arial" font-size="14.00">9.361</text>
</g>
<!-- 5&#45;&gt;9 -->
<g id="edge9" class="edge">
<title>5&#45;&gt;9</title>
<path fill="none" stroke="black" d="M301.35,-240.5C295.37,-231.84 288.33,-221.66 281.87,-212.31"/>
<polygon fill="black" stroke="black" points="284.83,-210.44 276.26,-204.2 279.07,-214.42 284.83,-210.44"/>
</g>
<!-- 10 -->
<g id="node11" class="node">
<title>10</title>
<ellipse fill="white" stroke="black" cx="369.82" cy="-182.31" rx="55.31" ry="22.06"/>
<text text-anchor="middle" x="369.82" y="-178.11" font-family="Arial" font-size="14.00">steepness</text>
</g>
<!-- 5&#45;&gt;10 -->
<g id="edge10" class="edge">
<title>5&#45;&gt;10</title>
<path fill="none" stroke="black" d="M330.29,-240.5C336.03,-232.2 342.73,-222.5 348.97,-213.47"/>
<polygon fill="black" stroke="black" points="351.83,-215.49 354.64,-205.28 346.07,-211.51 351.83,-215.49"/>
</g>
<!-- 7 -->
<g id="node8" class="node">
<title>7</title>
<ellipse fill="white" stroke="black" cx="137.82" cy="-102.19" rx="71.26" ry="22.06"/>
<text text-anchor="middle" x="137.82" y="-97.99" font-family="Arial" font-size="14.00">identity_water</text>
</g>
<!-- 6&#45;&gt;7 -->
<g id="edge7" class="edge">
<title>6&#45;&gt;7</title>
<path fill="none" stroke="black" d="M137.82,-159.96C137.82,-152.55 137.82,-144.07 137.82,-135.96"/>
<polygon fill="black" stroke="black" points="141.32,-136.02 137.82,-126.02 134.32,-136.02 141.32,-136.02"/>
</g>
<!-- 8 -->
<g id="node9" class="node">
<title>8</title>
<ellipse fill="white" stroke="black" cx="137.82" cy="-22.06" rx="47.04" ry="22.06"/>
<text text-anchor="middle" x="137.82" y="-17.86" font-family="Arial" font-size="14.00">is_water</text>
</g>
<!-- 7&#45;&gt;8 -->
<g id="edge8" class="edge">
<title>7&#45;&gt;8</title>
<path fill="none" stroke="black" d="M137.82,-79.84C137.82,-72.43 137.82,-63.95 137.82,-55.83"/>
<polygon fill="black" stroke="black" points="141.32,-55.9 137.82,-45.9 134.32,-55.9 141.32,-55.9"/>
</g>
<!-- 12 -->
<g id="node13" class="node">
<title>12</title>
<ellipse fill="white" stroke="black" cx="503.82" cy="-182.31" rx="60.26" ry="22.06"/>
<text text-anchor="middle" x="503.82" y="-178.11" font-family="Arial" font-size="14.00">elevation_v</text>
</g>
<!-- 11&#45;&gt;12 -->
<g id="edge12" class="edge">
<title>11&#45;&gt;12</title>
<path fill="none" stroke="black" d="M503.82,-240.08C503.82,-232.68 503.82,-224.19 503.82,-216.08"/>
<polygon fill="black" stroke="black" points="507.32,-216.14 503.82,-206.14 500.32,-216.14 507.32,-216.14"/>
</g>
<!-- 13 -->
<g id="node14" class="node">
<title>13</title>
<ellipse fill="white" stroke="black" cx="642.82" cy="-182.31" rx="60.82" ry="22.06"/>
<text text-anchor="middle" x="642.82" y="-178.11" font-family="Arial" font-size="14.00">elevation_u</text>
</g>
<!-- 11&#45;&gt;13 -->
<g id="edge13" class="edge">
<title>11&#45;&gt;13</title>
<path fill="none" stroke="black" d="M525.85,-249.05C545.9,-237.78 576.04,-220.84 600.71,-206.98"/>
<polygon fill="black" stroke="black" points="602.23,-210.14 609.23,-202.19 598.8,-204.03 602.23,-210.14"/>
</g>
</g>
</svg>
