<?xml version="1.0" encoding="UTF-8" standalone="no"?>
<!DOCTYPE svg PUBLIC "-//W3C//DTD SVG 1.1//EN"
 "http://www.w3.org/Graphics/SVG/1.1/DTD/svg11.dtd">
<!-- Generated by graphviz version 12.2.1 (0)
 -->
<!-- Title: G Pages: 1 -->
<svg width="745pt" height="405pt"
 viewBox="36.00 36.00 709.09 369.29" xmlns="http://www.w3.org/2000/svg" xmlns:xlink="http://www.w3.org/1999/xlink">
<g id="graph0" class="graph" transform="scale(1 1) rotate(0) translate(40 365.29)">
<title>G</title>
<polygon fill="white" stroke="none" points="-4,4 -4,-329.29 669.09,-329.29 669.09,4 -4,4"/>
<text text-anchor="middle" x="332.54" y="-308.69" font-family="Times New Roman,serif" font-size="14.00">Fourth&#45;best evolved cost function tree</text>
<!-- 0 -->
<g id="node1" class="node">
<title>0</title>
<ellipse fill="white" stroke="black" cx="275.82" cy="-262.43" rx="27" ry="22.06"/>
<text text-anchor="middle" x="275.82" y="-258.23" font-family="Arial" font-size="14.00">add</text>
</g>
<!-- 1 -->
<g id="node2" class="node">
<title>1</title>
<ellipse fill="white" stroke="black" cx="219.82" cy="-182.31" rx="27" ry="22.06"/>
<text text-anchor="middle" x="219.82" y="-178.11" font-family="Arial" font-size="14.00">mul</text>
</g>
<!-- 0&#45;&gt;1 -->
<g id="edge1" class="edge">
<title>0&#45;&gt;1</title>
<path fill="none" stroke="black" d="M262.55,-242.92C255.76,-233.45 247.37,-221.74 239.82,-211.2"/>
<polygon fill="black" stroke="black" points="242.74,-209.28 234.07,-203.19 237.05,-213.36 242.74,-209.28"/>
</g>
<!-- 6 -->
<g id="node7" class="node">
<title>6</title>
<ellipse fill="white" stroke="black" cx="387.82" cy="-182.31" rx="63.57" ry="22.06"/>
<text text-anchor="middle" x="387.82" y="-178.11" font-family="Arial" font-size="14.00">if_then_else</text>
</g>
<!-- 0&#45;&gt;6 -->
<g id="edge6" class="edge">
<title>0&#45;&gt;6</title>
<path fill="none" stroke="black" d="M296.1,-247.28C311.35,-236.65 332.65,-221.79 350.9,-209.07"/>
<polygon fill="black" stroke="black" points="352.67,-212.1 358.86,-203.51 348.66,-206.36 352.67,-212.1"/>
</g>
<!-- 2 -->
<g id="node3" class="node">
<title>2</title>
<ellipse fill="white" stroke="black" cx="127.82" cy="-102.19" rx="27" ry="22.06"/>
<text text-anchor="middle" x="127.82" y="-97.99" font-family="Arial" font-size="14.00">mul</text>
</g>
<!-- 1&#45;&gt;2 -->
<g id="edge2" class="edge">
<title>1&#45;&gt;2</title>
<path fill="none" stroke="black" d="M201.64,-165.87C188.25,-154.5 169.81,-138.84 154.71,-126.02"/>
<polygon fill="black" stroke="black" points="157.32,-123.64 147.43,-119.83 152.78,-128.98 157.32,-123.64"/>
</g>
<!-- 5 -->
<g id="node6" class="node">
<title>5</title>
<ellipse fill="white" stroke="black" cx="219.82" cy="-102.19" rx="47.05" ry="22.06"/>
<text text-anchor="middle" x="219.82" y="-97.99" font-family="Arial" font-size="14.00">distance</text>
</g>
<!-- 1&#45;&gt;5 -->
<g id="edge5" class="edge">
<title>1&#45;&gt;5</title>
<path fill="none" stroke="black" d="M219.82,-159.96C219.82,-152.55 219.82,-144.07 219.82,-135.96"/>
<polygon fill="black" stroke="black" points="223.32,-136.02 219.82,-126.02 216.32,-136.02 223.32,-136.02"/>
</g>
<!-- 3 -->
<g id="node4" class="node">
<title>3</title>
<ellipse fill="white" stroke="black" cx="60.82" cy="-22.06" rx="60.82" ry="22.06"/>
<text text-anchor="middle" x="60.82" y="-17.86" font-family="Arial" font-size="14.00">elevation_u</text>
</g>
<!-- 2&#45;&gt;3 -->
<g id="edge3" class="edge">
<title>2&#45;&gt;3</title>
<path fill="none" stroke="black" d="M112.62,-83.46C104.65,-74.17 94.7,-62.57 85.65,-52.02"/>
<polygon fill="black" stroke="black" points="88.48,-49.94 79.32,-44.63 83.17,-54.5 88.48,-49.94"/>
</g>
<!-- 4 -->
<g id="node5" class="node">
<title>4</title>
<ellipse fill="white" stroke="black" cx="194.82" cy="-22.06" rx="55.31" ry="22.06"/>
<text text-anchor="middle" x="194.82" y="-17.86" font-family="Arial" font-size="14.00">steepness</text>
</g>
<!-- 2&#45;&gt;4 -->
<g id="edge4" class="edge">
<title>2&#45;&gt;4</title>
<path fill="none" stroke="black" d="M143.02,-83.46C150.99,-74.17 160.94,-62.57 169.99,-52.02"/>
<polygon fill="black" stroke="black" points="172.47,-54.5 176.32,-44.63 167.16,-49.94 172.47,-54.5"/>
</g>
<!-- 7 -->
<g id="node8" class="node">
<title>7</title>
<ellipse fill="white" stroke="black" cx="331.82" cy="-102.19" rx="47.04" ry="22.06"/>
<text text-anchor="middle" x="331.82" y="-97.99" font-family="Arial" font-size="14.00">is_water</text>
</g>
<!-- 6&#45;&gt;7 -->
<g id="edge7" class="edge">
<title>6&#45;&gt;7</title>
<path fill="none" stroke="black" d="M373.11,-160.78C367,-152.26 359.79,-142.21 353.12,-132.9"/>
<polygon fill="black" stroke="black" points="355.99,-130.89 347.32,-124.8 350.3,-134.97 355.99,-130.89"/>
</g>
<!-- 8 -->
<g id="node9" class="node">
<title>8</title>
<ellipse fill="white" stroke="black" cx="443.82" cy="-102.19" rx="47.05" ry="22.06"/>
<text text-anchor="middle" x="443.82" y="-97.99" font-family="Arial" font-size="14.00">distance</text>
</g>
<!-- 6&#45;&gt;8 -->
<g id="edge8" class="edge">
<title>6&#45;&gt;8</title>
<path fill="none" stroke="black" d="M402.53,-160.78C408.64,-152.26 415.85,-142.21 422.52,-132.9"/>
<polygon fill="black" stroke="black" points="425.34,-134.97 428.32,-124.8 419.65,-130.89 425.34,-134.97"/>
</g>
<!-- 9 -->
<g id="node10" class="node">
<title>9</title>
<ellipse fill="white" stroke="black" cx="535.82" cy="-102.19" rx="27" ry="22.06"/>
<text text-anchor="middle" x="535.82" y="-97.99" font-family="Arial" font-size="14.00">sub</text>
</g>
<!-- 6&#45;&gt;9 -->
<g id="edge9" class="edge">
<title>6&#45;&gt;9</title>
<path fill="none" stroke="black" d="M423.66,-163.71C445.78,-152.69 474.64,-138.01 499.82,-124.25 501.29,-123.44 502.79,-122.61 504.3,-121.77"/>
<polygon fill="black" stroke="black" points="505.98,-124.84 512.92,-116.84 502.5,-118.76 505.98,-124.84"/>
</g>
<!-- 10 -->
<g id="node11" class="node">
<title>10</title>
<ellipse fill="white" stroke="black" cx="465.82" cy="-22.06" rx="60.82" ry="22.06"/>
<text text-anchor="middle" x="465.82" y="-17.86" font-family="Arial" font-size="14.00">elevation_u</text>
</g>
<!-- 9&#45;&gt;10 -->
<g id="edge10" class="edge">
<title>9&#45;&gt;10</title>
<path fill="none" stroke="black" d="M520.29,-83.85C511.83,-74.41 501.16,-62.5 491.5,-51.72"/>
<polygon fill="black" stroke="black" points="494.33,-49.63 485.05,-44.52 489.11,-54.3 494.33,-49.63"/>
</g>
<!-- 11 -->
<g id="node12" class="node">
<title>11</title>
<ellipse fill="white" stroke="black" cx="604.82" cy="-22.06" rx="60.26" ry="22.06"/>
<text text-anchor="middle" x="604.82" y="-17.86" font-family="Arial" font-size="14.00">elevation_v</text>
</g>
<!-- 9&#45;&gt;11 -->
<g id="edge11" class="edge">
<title>9&#45;&gt;11</title>
<path fill="none" stroke="black" d="M551.13,-83.85C559.47,-74.41 569.99,-62.5 579.51,-51.72"/>
<polygon fill="black" stroke="black" points="581.86,-54.34 585.86,-44.53 576.62,-49.71 581.86,-54.34"/>
</g>
</g>
</svg>
