<?xml version="1.0" encoding="UTF-8" standalone="no"?>
<!DOCTYPE svg PUBLIC "-//W3C//DTD SVG 1.1//EN"
 "http://www.w3.org/Graphics/SVG/1.1/DTD/svg11.dtd">
<!-- Generated by graphviz version 12.2.1 (0)
 -->
<!-- Title: G Pages: 1 -->
<svg width="743pt" height="566pt"
 viewBox="36.00 36.00 706.87 529.54" xmlns="http://www.w3.org/2000/svg" xmlns:xlink="http://www.w3.org/1999/xlink">
<g id="graph0" class="graph" transform="scale(1 1) rotate(0) translate(40 525.54)">
<title>G</title>
<polygon fill="white" stroke="none" points="-4,4 -4,-489.54 666.87,-489.54 666.87,4 -4,4"/>
<text text-anchor="middle" x="331.44" y="-468.94" font-family="Times New Roman,serif" font-size="14.00">Fourth&#45;best evolved cost function tree</text>
<!-- 0 -->
<g id="node1" class="node">
<title>0</title>
<ellipse fill="white" stroke="black" cx="242.82" cy="-422.68" rx="27" ry="22.06"/>
<text text-anchor="middle" x="242.82" y="-418.48" font-family="Arial" font-size="14.00">add</text>
</g>
<!-- 1 -->
<g id="node2" class="node">
<title>1</title>
<ellipse fill="white" stroke="black" cx="186.82" cy="-342.56" rx="27" ry="22.06"/>
<text text-anchor="middle" x="186.82" y="-338.36" font-family="Arial" font-size="14.00">mul</text>
</g>
<!-- 0&#45;&gt;1 -->
<g id="edge1" class="edge">
<title>0&#45;&gt;1</title>
<path fill="none" stroke="black" d="M229.55,-403.16C222.76,-393.7 214.37,-381.98 206.82,-371.45"/>
<polygon fill="black" stroke="black" points="209.74,-369.53 201.07,-363.44 204.05,-373.6 209.74,-369.53"/>
</g>
<!-- 4 -->
<g id="node5" class="node">
<title>4</title>
<ellipse fill="white" stroke="black" cx="348.82" cy="-342.56" rx="63.57" ry="22.06"/>
<text text-anchor="middle" x="348.82" y="-338.36" font-family="Arial" font-size="14.00">if_then_else</text>
</g>
<!-- 0&#45;&gt;4 -->
<g id="edge4" class="edge">
<title>0&#45;&gt;4</title>
<path fill="none" stroke="black" d="M262.26,-407.35C276.48,-396.87 296.18,-382.35 313.19,-369.81"/>
<polygon fill="black" stroke="black" points="315.12,-372.74 321.1,-363.99 310.97,-367.1 315.12,-372.74"/>
</g>
<!-- 2 -->
<g id="node3" class="node">
<title>2</title>
<ellipse fill="white" stroke="black" cx="60.82" cy="-262.43" rx="60.82" ry="22.06"/>
<text text-anchor="middle" x="60.82" y="-258.23" font-family="Arial" font-size="14.00">elevation_u</text>
</g>
<!-- 1&#45;&gt;2 -->
<g id="edge2" class="edge">
<title>1&#45;&gt;2</title>
<path fill="none" stroke="black" d="M165.73,-328.48C147.87,-317.41 121.78,-301.23 100.09,-287.78"/>
<polygon fill="black" stroke="black" points="102.11,-284.91 91.77,-282.62 98.42,-290.86 102.11,-284.91"/>
</g>
<!-- 3 -->
<g id="node4" class="node">
<title>3</title>
<ellipse fill="white" stroke="black" cx="186.82" cy="-262.43" rx="47.05" ry="22.06"/>
<text text-anchor="middle" x="186.82" y="-258.23" font-family="Arial" font-size="14.00">distance</text>
</g>
<!-- 1&#45;&gt;3 -->
<g id="edge3" class="edge">
<title>1&#45;&gt;3</title>
<path fill="none" stroke="black" d="M186.82,-320.21C186.82,-312.8 186.82,-304.32 186.82,-296.2"/>
<polygon fill="black" stroke="black" points="190.32,-296.27 186.82,-286.27 183.32,-296.27 190.32,-296.27"/>
</g>
<!-- 5 -->
<g id="node6" class="node">
<title>5</title>
<ellipse fill="white" stroke="black" cx="298.82" cy="-262.43" rx="47.04" ry="22.06"/>
<text text-anchor="middle" x="298.82" y="-258.23" font-family="Arial" font-size="14.00">is_water</text>
</g>
<!-- 4&#45;&gt;5 -->
<g id="edge5" class="edge">
<title>4&#45;&gt;5</title>
<path fill="none" stroke="black" d="M335.42,-320.62C330.07,-312.26 323.8,-302.47 317.98,-293.38"/>
<polygon fill="black" stroke="black" points="321.07,-291.7 312.73,-285.16 315.17,-295.47 321.07,-291.7"/>
</g>
<!-- 6 -->
<g id="node7" class="node">
<title>6</title>
<ellipse fill="white" stroke="black" cx="398.82" cy="-262.43" rx="34.96" ry="22.06"/>
<text text-anchor="middle" x="398.82" y="-258.23" font-family="Arial" font-size="14.00">7.863</text>
</g>
<!-- 4&#45;&gt;6 -->
<g id="edge6" class="edge">
<title>4&#45;&gt;6</title>
<path fill="none" stroke="black" d="M362.22,-320.62C367.66,-312.12 374.04,-302.16 379.93,-292.94"/>
<polygon fill="black" stroke="black" points="382.82,-294.93 385.26,-284.62 376.92,-291.16 382.82,-294.93"/>
</g>
<!-- 7 -->
<g id="node8" class="node">
<title>7</title>
<ellipse fill="white" stroke="black" cx="478.82" cy="-262.43" rx="27" ry="22.06"/>
<text text-anchor="middle" x="478.82" y="-258.23" font-family="Arial" font-size="14.00">add</text>
</g>
<!-- 4&#45;&gt;7 -->
<g id="edge7" class="edge">
<title>4&#45;&gt;7</title>
<path fill="none" stroke="black" d="M379.96,-322.84C400.39,-310.56 427.02,-294.56 447.49,-282.26"/>
<polygon fill="black" stroke="black" points="449.22,-285.3 455.99,-277.15 445.61,-279.31 449.22,-285.3"/>
</g>
<!-- 8 -->
<g id="node9" class="node">
<title>8</title>
<ellipse fill="white" stroke="black" cx="428.82" cy="-182.31" rx="27" ry="22.06"/>
<text text-anchor="middle" x="428.82" y="-178.11" font-family="Arial" font-size="14.00">sub</text>
</g>
<!-- 7&#45;&gt;8 -->
<g id="edge8" class="edge">
<title>7&#45;&gt;8</title>
<path fill="none" stroke="black" d="M466.72,-242.52C460.8,-233.28 453.56,-221.97 447,-211.72"/>
<polygon fill="black" stroke="black" points="450.14,-210.13 441.8,-203.59 444.24,-213.9 450.14,-210.13"/>
</g>
<!-- 14 -->
<g id="node15" class="node">
<title>14</title>
<ellipse fill="white" stroke="black" cx="528.82" cy="-182.31" rx="55.31" ry="22.06"/>
<text text-anchor="middle" x="528.82" y="-178.11" font-family="Arial" font-size="14.00">steepness</text>
</g>
<!-- 7&#45;&gt;14 -->
<g id="edge14" class="edge">
<title>7&#45;&gt;14</title>
<path fill="none" stroke="black" d="M490.92,-242.52C496.52,-233.78 503.29,-223.19 509.56,-213.4"/>
<polygon fill="black" stroke="black" points="512.34,-215.55 514.78,-205.24 506.45,-211.78 512.34,-215.55"/>
</g>
<!-- 9 -->
<g id="node10" class="node">
<title>9</title>
<ellipse fill="white" stroke="black" cx="392.82" cy="-102.19" rx="27" ry="22.06"/>
<text text-anchor="middle" x="392.82" y="-97.99" font-family="Arial" font-size="14.00">neg</text>
</g>
<!-- 8&#45;&gt;9 -->
<g id="edge9" class="edge">
<title>8&#45;&gt;9</title>
<path fill="none" stroke="black" d="M419.55,-161.19C415.69,-152.81 411.12,-142.89 406.86,-133.64"/>
<polygon fill="black" stroke="black" points="410.06,-132.23 402.69,-124.61 403.7,-135.16 410.06,-132.23"/>
</g>
<!-- 11 -->
<g id="node12" class="node">
<title>11</title>
<ellipse fill="white" stroke="black" cx="495.82" cy="-102.19" rx="27" ry="22.06"/>
<text text-anchor="middle" x="495.82" y="-97.99" font-family="Arial" font-size="14.00">mul</text>
</g>
<!-- 8&#45;&gt;11 -->
<g id="edge11" class="edge">
<title>8&#45;&gt;11</title>
<path fill="none" stroke="black" d="M444.02,-163.58C452.68,-153.49 463.68,-140.67 473.31,-129.43"/>
<polygon fill="black" stroke="black" points="475.84,-131.86 479.69,-121.99 470.53,-127.3 475.84,-131.86"/>
</g>
<!-- 10 -->
<g id="node11" class="node">
<title>10</title>
<ellipse fill="white" stroke="black" cx="361.82" cy="-22.06" rx="60.26" ry="22.06"/>
<text text-anchor="middle" x="361.82" y="-17.86" font-family="Arial" font-size="14.00">elevation_v</text>
</g>
<!-- 9&#45;&gt;10 -->
<g id="edge10" class="edge">
<title>9&#45;&gt;10</title>
<path fill="none" stroke="black" d="M384.68,-80.66C381.55,-72.78 377.9,-63.58 374.45,-54.88"/>
<polygon fill="black" stroke="black" points="377.74,-53.68 370.79,-45.67 371.23,-56.26 377.74,-53.68"/>
</g>
<!-- 12 -->
<g id="node13" class="node">
<title>12</title>
<ellipse fill="white" stroke="black" cx="495.82" cy="-22.06" rx="55.31" ry="22.06"/>
<text text-anchor="middle" x="495.82" y="-17.86" font-family="Arial" font-size="14.00">steepness</text>
</g>
<!-- 11&#45;&gt;12 -->
<g id="edge12" class="edge">
<title>11&#45;&gt;12</title>
<path fill="none" stroke="black" d="M495.82,-79.84C495.82,-72.43 495.82,-63.95 495.82,-55.83"/>
<polygon fill="black" stroke="black" points="499.32,-55.9 495.82,-45.9 492.32,-55.9 499.32,-55.9"/>
</g>
<!-- 13 -->
<g id="node14" class="node">
<title>13</title>
<ellipse fill="white" stroke="black" cx="615.82" cy="-22.06" rx="47.05" ry="22.06"/>
<text text-anchor="middle" x="615.82" y="-17.86" font-family="Arial" font-size="14.00">distance</text>
</g>
<!-- 11&#45;&gt;13 -->
<g id="edge13" class="edge">
<title>11&#45;&gt;13</title>
<path fill="none" stroke="black" d="M516.72,-87.58C534,-76.33 558.93,-60.1 579.47,-46.73"/>
<polygon fill="black" stroke="black" points="581.1,-49.84 587.58,-41.45 577.28,-43.97 581.1,-49.84"/>
</g>
</g>
</svg>
