<?xml version="1.0" encoding="UTF-8" standalone="no"?>
<!DOCTYPE svg PUBLIC "-//W3C//DTD SVG 1.1//EN"
 "http://www.w3.org/Graphics/SVG/1.1/DTD/svg11.dtd">
<!-- Generated by graphviz version 12.2.1 (0)
 -->
<!-- Title: G Pages: 1 -->
<svg width="797pt" height="485pt"
 viewBox="36.00 36.00 761.10 449.42" xmlns="http://www.w3.org/2000/svg" xmlns:xlink="http://www.w3.org/1999/xlink">
<g id="graph0" class="graph" transform="scale(1 1) rotate(0) translate(40 445.42)">
<title>G</title>
<polygon fill="white" stroke="none" points="-4,4 -4,-409.42 721.1,-409.42 721.1,4 -4,4"/>
<text text-anchor="middle" x="358.55" y="-388.82" font-family="Times New Roman,serif" font-size="14.00">Fourth&#45;best evolved cost function tree</text>
<!-- 0 -->
<g id="node1" class="node">
<title>0</title>
<ellipse fill="white" stroke="black" cx="293.04" cy="-342.56" rx="27" ry="22.06"/>
<text text-anchor="middle" x="293.04" y="-338.36" font-family="Arial" font-size="14.00">add</text>
</g>
<!-- 1 -->
<g id="node2" class="node">
<title>1</title>
<ellipse fill="white" stroke="black" cx="222.04" cy="-262.43" rx="63.57" ry="22.06"/>
<text text-anchor="middle" x="222.04" y="-258.23" font-family="Arial" font-size="14.00">if_then_else</text>
</g>
<!-- 0&#45;&gt;1 -->
<g id="edge1" class="edge">
<title>0&#45;&gt;1</title>
<path fill="none" stroke="black" d="M277.29,-324.22C268.71,-314.78 257.88,-302.87 248.09,-292.09"/>
<polygon fill="black" stroke="black" points="250.86,-289.93 241.54,-284.88 245.68,-294.64 250.86,-289.93"/>
</g>
<!-- 5 -->
<g id="node6" class="node">
<title>5</title>
<ellipse fill="white" stroke="black" cx="427.04" cy="-262.43" rx="27" ry="22.06"/>
<text text-anchor="middle" x="427.04" y="-258.23" font-family="Arial" font-size="14.00">sub</text>
</g>
<!-- 0&#45;&gt;5 -->
<g id="edge5" class="edge">
<title>0&#45;&gt;5</title>
<path fill="none" stroke="black" d="M314.57,-329C336.55,-316.19 370.89,-296.17 395.84,-281.62"/>
<polygon fill="black" stroke="black" points="397.38,-284.78 404.26,-276.72 393.86,-278.73 397.38,-284.78"/>
</g>
<!-- 2 -->
<g id="node3" class="node">
<title>2</title>
<ellipse fill="white" stroke="black" cx="47.04" cy="-182.31" rx="47.04" ry="22.06"/>
<text text-anchor="middle" x="47.04" y="-178.11" font-family="Arial" font-size="14.00">is_water</text>
</g>
<!-- 1&#45;&gt;2 -->
<g id="edge2" class="edge">
<title>1&#45;&gt;2</title>
<path fill="none" stroke="black" d="M184.07,-244.48C156.59,-232.21 119.38,-215.6 90.67,-202.78"/>
<polygon fill="black" stroke="black" points="92.45,-199.75 81.89,-198.87 89.6,-206.14 92.45,-199.75"/>
</g>
<!-- 3 -->
<g id="node4" class="node">
<title>3</title>
<ellipse fill="white" stroke="black" cx="159.04" cy="-182.31" rx="47.05" ry="22.06"/>
<text text-anchor="middle" x="159.04" y="-178.11" font-family="Arial" font-size="14.00">distance</text>
</g>
<!-- 1&#45;&gt;3 -->
<g id="edge3" class="edge">
<title>1&#45;&gt;3</title>
<path fill="none" stroke="black" d="M205.49,-240.91C198.42,-232.14 190.04,-221.74 182.36,-212.22"/>
<polygon fill="black" stroke="black" points="185.22,-210.19 176.22,-204.61 179.77,-214.59 185.22,-210.19"/>
</g>
<!-- 4 -->
<g id="node5" class="node">
<title>4</title>
<ellipse fill="white" stroke="black" cx="285.04" cy="-182.31" rx="60.82" ry="22.06"/>
<text text-anchor="middle" x="285.04" y="-178.11" font-family="Arial" font-size="14.00">elevation_u</text>
</g>
<!-- 1&#45;&gt;4 -->
<g id="edge4" class="edge">
<title>1&#45;&gt;4</title>
<path fill="none" stroke="black" d="M238.6,-240.91C245.56,-232.27 253.79,-222.07 261.37,-212.66"/>
<polygon fill="black" stroke="black" points="263.88,-215.13 267.43,-205.15 258.43,-210.73 263.88,-215.13"/>
</g>
<!-- 6 -->
<g id="node7" class="node">
<title>6</title>
<ellipse fill="white" stroke="black" cx="427.04" cy="-182.31" rx="63.57" ry="22.06"/>
<text text-anchor="middle" x="427.04" y="-178.11" font-family="Arial" font-size="14.00">if_then_else</text>
</g>
<!-- 5&#45;&gt;6 -->
<g id="edge6" class="edge">
<title>5&#45;&gt;6</title>
<path fill="none" stroke="black" d="M427.04,-240.08C427.04,-232.68 427.04,-224.19 427.04,-216.08"/>
<polygon fill="black" stroke="black" points="430.54,-216.14 427.04,-206.14 423.54,-216.14 430.54,-216.14"/>
</g>
<!-- 10 -->
<g id="node11" class="node">
<title>10</title>
<ellipse fill="white" stroke="black" cx="578.04" cy="-182.31" rx="27" ry="22.06"/>
<text text-anchor="middle" x="578.04" y="-178.11" font-family="Arial" font-size="14.00">sub</text>
</g>
<!-- 5&#45;&gt;10 -->
<g id="edge10" class="edge">
<title>5&#45;&gt;10</title>
<path fill="none" stroke="black" d="M449.65,-249.74C475.15,-236.54 516.83,-214.98 545.75,-200.02"/>
<polygon fill="black" stroke="black" points="547.16,-203.23 554.43,-195.52 543.94,-197.01 547.16,-203.23"/>
</g>
<!-- 7 -->
<g id="node8" class="node">
<title>7</title>
<ellipse fill="white" stroke="black" cx="260.04" cy="-102.19" rx="47.04" ry="22.06"/>
<text text-anchor="middle" x="260.04" y="-97.99" font-family="Arial" font-size="14.00">is_water</text>
</g>
<!-- 6&#45;&gt;7 -->
<g id="edge7" class="edge">
<title>6&#45;&gt;7</title>
<path fill="none" stroke="black" d="M389.98,-163.97C364.28,-151.95 329.97,-135.89 303.06,-123.31"/>
<polygon fill="black" stroke="black" points="304.68,-120.2 294.14,-119.13 301.71,-126.54 304.68,-120.2"/>
</g>
<!-- 8 -->
<g id="node9" class="node">
<title>8</title>
<ellipse fill="white" stroke="black" cx="385.04" cy="-102.19" rx="60.26" ry="22.06"/>
<text text-anchor="middle" x="385.04" y="-97.99" font-family="Arial" font-size="14.00">elevation_v</text>
</g>
<!-- 6&#45;&gt;8 -->
<g id="edge8" class="edge">
<title>6&#45;&gt;8</title>
<path fill="none" stroke="black" d="M415.79,-160.37C411.46,-152.32 406.42,-142.94 401.68,-134.14"/>
<polygon fill="black" stroke="black" points="404.87,-132.66 397.05,-125.51 398.7,-135.98 404.87,-132.66"/>
</g>
<!-- 9 -->
<g id="node10" class="node">
<title>9</title>
<ellipse fill="white" stroke="black" cx="498.04" cy="-102.19" rx="34.96" ry="22.06"/>
<text text-anchor="middle" x="498.04" y="-97.99" font-family="Arial" font-size="14.00">1.774</text>
</g>
<!-- 6&#45;&gt;9 -->
<g id="edge9" class="edge">
<title>6&#45;&gt;9</title>
<path fill="none" stroke="black" d="M445.7,-160.78C454.22,-151.41 464.42,-140.19 473.54,-130.15"/>
<polygon fill="black" stroke="black" points="476.06,-132.58 480.19,-122.83 470.88,-127.87 476.06,-132.58"/>
</g>
<!-- 11 -->
<g id="node12" class="node">
<title>11</title>
<ellipse fill="white" stroke="black" cx="578.04" cy="-102.19" rx="27" ry="22.06"/>
<text text-anchor="middle" x="578.04" y="-97.99" font-family="Arial" font-size="14.00">sub</text>
</g>
<!-- 10&#45;&gt;11 -->
<g id="edge11" class="edge">
<title>10&#45;&gt;11</title>
<path fill="none" stroke="black" d="M578.04,-159.96C578.04,-152.55 578.04,-144.07 578.04,-135.96"/>
<polygon fill="black" stroke="black" points="581.54,-136.02 578.04,-126.02 574.54,-136.02 581.54,-136.02"/>
</g>
<!-- 14 -->
<g id="node15" class="node">
<title>14</title>
<ellipse fill="white" stroke="black" cx="670.04" cy="-102.19" rx="47.05" ry="22.06"/>
<text text-anchor="middle" x="670.04" y="-97.99" font-family="Arial" font-size="14.00">distance</text>
</g>
<!-- 10&#45;&gt;14 -->
<g id="edge14" class="edge">
<title>10&#45;&gt;14</title>
<path fill="none" stroke="black" d="M596.22,-165.87C608.54,-155.42 625.11,-141.34 639.44,-129.17"/>
<polygon fill="black" stroke="black" points="641.5,-132.02 646.86,-122.87 636.97,-126.68 641.5,-132.02"/>
</g>
<!-- 12 -->
<g id="node13" class="node">
<title>12</title>
<ellipse fill="white" stroke="black" cx="518.04" cy="-22.06" rx="55.31" ry="22.06"/>
<text text-anchor="middle" x="518.04" y="-17.86" font-family="Arial" font-size="14.00">steepness</text>
</g>
<!-- 11&#45;&gt;12 -->
<g id="edge12" class="edge">
<title>11&#45;&gt;12</title>
<path fill="none" stroke="black" d="M564.13,-83.07C557.18,-74.02 548.61,-62.86 540.74,-52.62"/>
<polygon fill="black" stroke="black" points="543.58,-50.56 534.71,-44.76 538.03,-54.83 543.58,-50.56"/>
</g>
<!-- 13 -->
<g id="node14" class="node">
<title>13</title>
<ellipse fill="white" stroke="black" cx="638.04" cy="-22.06" rx="47.05" ry="22.06"/>
<text text-anchor="middle" x="638.04" y="-17.86" font-family="Arial" font-size="14.00">distance</text>
</g>
<!-- 11&#45;&gt;13 -->
<g id="edge13" class="edge">
<title>11&#45;&gt;13</title>
<path fill="none" stroke="black" d="M591.96,-83.07C598.96,-73.95 607.61,-62.69 615.53,-52.38"/>
<polygon fill="black" stroke="black" points="618.28,-54.55 621.59,-44.48 612.73,-50.28 618.28,-54.55"/>
</g>
</g>
</svg>
