<?xml version="1.0" encoding="UTF-8" standalone="no"?>
<!DOCTYPE svg PUBLIC "-//W3C//DTD SVG 1.1//EN"
 "http://www.w3.org/Graphics/SVG/1.1/DTD/svg11.dtd">
<!-- Generated by graphviz version 12.2.1 (0)
 -->
<!-- Title: G Pages: 1 -->
<svg width="721pt" height="485pt"
 viewBox="36.00 36.00 685.13 449.42" xmlns="http://www.w3.org/2000/svg" xmlns:xlink="http://www.w3.org/1999/xlink">
<g id="graph0" class="graph" transform="scale(1 1) rotate(0) translate(40 445.42)">
<title>G</title>
<polygon fill="white" stroke="none" points="-4,4 -4,-409.42 645.13,-409.42 645.13,4 -4,4"/>
<text text-anchor="middle" x="320.57" y="-388.82" font-family="Times New Roman,serif" font-size="14.00">Second&#45;best evolved cost function tree, after pruning</text>
<!-- 0 -->
<g id="node1" class="node">
<title>0</title>
<ellipse fill="white" stroke="black" cx="275.82" cy="-342.56" rx="27" ry="22.06"/>
<text text-anchor="middle" x="275.82" y="-338.36" font-family="Arial" font-size="14.00">add</text>
</g>
<!-- 1 -->
<g id="node2" class="node">
<title>1</title>
<ellipse fill="white" stroke="black" cx="219.82" cy="-262.43" rx="27" ry="22.06"/>
<text text-anchor="middle" x="219.82" y="-258.23" font-family="Arial" font-size="14.00">mul</text>
</g>
<!-- 0&#45;&gt;1 -->
<g id="edge1" class="edge">
<title>0&#45;&gt;1</title>
<path fill="none" stroke="black" d="M262.55,-323.04C255.76,-313.58 247.37,-301.86 239.82,-291.33"/>
<polygon fill="black" stroke="black" points="242.74,-289.4 234.07,-283.31 237.05,-293.48 242.74,-289.4"/>
</g>
<!-- 6 -->
<g id="node7" class="node">
<title>6</title>
<ellipse fill="white" stroke="black" cx="387.82" cy="-262.43" rx="63.57" ry="22.06"/>
<text text-anchor="middle" x="387.82" y="-258.23" font-family="Arial" font-size="14.00">if_then_else</text>
</g>
<!-- 0&#45;&gt;6 -->
<g id="edge6" class="edge">
<title>0&#45;&gt;6</title>
<path fill="none" stroke="black" d="M296.1,-327.41C311.35,-316.77 332.65,-301.91 350.9,-289.19"/>
<polygon fill="black" stroke="black" points="352.67,-292.22 358.86,-283.63 348.66,-286.48 352.67,-292.22"/>
</g>
<!-- 2 -->
<g id="node3" class="node">
<title>2</title>
<ellipse fill="white" stroke="black" cx="127.82" cy="-182.31" rx="27" ry="22.06"/>
<text text-anchor="middle" x="127.82" y="-178.11" font-family="Arial" font-size="14.00">mul</text>
</g>
<!-- 1&#45;&gt;2 -->
<g id="edge2" class="edge">
<title>1&#45;&gt;2</title>
<path fill="none" stroke="black" d="M201.64,-246C188.25,-234.62 169.81,-218.97 154.71,-206.15"/>
<polygon fill="black" stroke="black" points="157.32,-203.76 147.43,-199.96 152.78,-209.1 157.32,-203.76"/>
</g>
<!-- 5 -->
<g id="node6" class="node">
<title>5</title>
<ellipse fill="white" stroke="black" cx="219.82" cy="-182.31" rx="47.05" ry="22.06"/>
<text text-anchor="middle" x="219.82" y="-178.11" font-family="Arial" font-size="14.00">distance</text>
</g>
<!-- 1&#45;&gt;5 -->
<g id="edge5" class="edge">
<title>1&#45;&gt;5</title>
<path fill="none" stroke="black" d="M219.82,-240.08C219.82,-232.68 219.82,-224.19 219.82,-216.08"/>
<polygon fill="black" stroke="black" points="223.32,-216.14 219.82,-206.14 216.32,-216.14 223.32,-216.14"/>
</g>
<!-- 3 -->
<g id="node4" class="node">
<title>3</title>
<ellipse fill="white" stroke="black" cx="60.82" cy="-102.19" rx="60.82" ry="22.06"/>
<text text-anchor="middle" x="60.82" y="-97.99" font-family="Arial" font-size="14.00">elevation_u</text>
</g>
<!-- 2&#45;&gt;3 -->
<g id="edge3" class="edge">
<title>2&#45;&gt;3</title>
<path fill="none" stroke="black" d="M112.62,-163.58C104.65,-154.3 94.7,-142.69 85.65,-132.14"/>
<polygon fill="black" stroke="black" points="88.48,-130.06 79.32,-124.75 83.17,-134.62 88.48,-130.06"/>
</g>
<!-- 4 -->
<g id="node5" class="node">
<title>4</title>
<ellipse fill="white" stroke="black" cx="194.82" cy="-102.19" rx="55.31" ry="22.06"/>
<text text-anchor="middle" x="194.82" y="-97.99" font-family="Arial" font-size="14.00">steepness</text>
</g>
<!-- 2&#45;&gt;4 -->
<g id="edge4" class="edge">
<title>2&#45;&gt;4</title>
<path fill="none" stroke="black" d="M143.02,-163.58C150.99,-154.3 160.94,-142.69 169.99,-132.14"/>
<polygon fill="black" stroke="black" points="172.47,-134.62 176.32,-124.75 167.16,-130.06 172.47,-134.62"/>
</g>
<!-- 7 -->
<g id="node8" class="node">
<title>7</title>
<ellipse fill="white" stroke="black" cx="331.82" cy="-182.31" rx="47.04" ry="22.06"/>
<text text-anchor="middle" x="331.82" y="-178.11" font-family="Arial" font-size="14.00">is_water</text>
</g>
<!-- 6&#45;&gt;7 -->
<g id="edge7" class="edge">
<title>6&#45;&gt;7</title>
<path fill="none" stroke="black" d="M373.11,-240.91C367,-232.38 359.79,-222.33 353.12,-213.03"/>
<polygon fill="black" stroke="black" points="355.99,-211.02 347.32,-204.93 350.3,-215.09 355.99,-211.02"/>
</g>
<!-- 8 -->
<g id="node9" class="node">
<title>8</title>
<ellipse fill="white" stroke="black" cx="443.82" cy="-182.31" rx="47.05" ry="22.06"/>
<text text-anchor="middle" x="443.82" y="-178.11" font-family="Arial" font-size="14.00">distance</text>
</g>
<!-- 6&#45;&gt;8 -->
<g id="edge8" class="edge">
<title>6&#45;&gt;8</title>
<path fill="none" stroke="black" d="M402.53,-240.91C408.64,-232.38 415.85,-222.33 422.52,-213.03"/>
<polygon fill="black" stroke="black" points="425.34,-215.09 428.32,-204.93 419.65,-211.02 425.34,-215.09"/>
</g>
<!-- 9 -->
<g id="node10" class="node">
<title>9</title>
<ellipse fill="white" stroke="black" cx="535.82" cy="-182.31" rx="27" ry="22.06"/>
<text text-anchor="middle" x="535.82" y="-178.11" font-family="Arial" font-size="14.00">mul</text>
</g>
<!-- 6&#45;&gt;9 -->
<g id="edge9" class="edge">
<title>6&#45;&gt;9</title>
<path fill="none" stroke="black" d="M423.66,-243.84C445.78,-232.82 474.64,-218.14 499.82,-204.37 501.29,-203.57 502.79,-202.74 504.3,-201.89"/>
<polygon fill="black" stroke="black" points="505.98,-204.96 512.92,-196.96 502.5,-198.89 505.98,-204.96"/>
</g>
<!-- 10 -->
<g id="node11" class="node">
<title>10</title>
<ellipse fill="white" stroke="black" cx="485.82" cy="-102.19" rx="27" ry="22.06"/>
<text text-anchor="middle" x="485.82" y="-97.99" font-family="Arial" font-size="14.00">mul</text>
</g>
<!-- 9&#45;&gt;10 -->
<g id="edge10" class="edge">
<title>9&#45;&gt;10</title>
<path fill="none" stroke="black" d="M523.72,-162.4C517.8,-153.16 510.56,-141.85 504,-131.59"/>
<polygon fill="black" stroke="black" points="507.14,-130 498.8,-123.47 501.24,-133.78 507.14,-130"/>
</g>
<!-- 13 -->
<g id="node14" class="node">
<title>13</title>
<ellipse fill="white" stroke="black" cx="585.82" cy="-102.19" rx="55.31" ry="22.06"/>
<text text-anchor="middle" x="585.82" y="-97.99" font-family="Arial" font-size="14.00">steepness</text>
</g>
<!-- 9&#45;&gt;13 -->
<g id="edge13" class="edge">
<title>9&#45;&gt;13</title>
<path fill="none" stroke="black" d="M547.92,-162.4C553.52,-153.66 560.29,-143.07 566.56,-133.27"/>
<polygon fill="black" stroke="black" points="569.34,-135.43 571.78,-125.12 563.45,-131.65 569.34,-135.43"/>
</g>
<!-- 11 -->
<g id="node12" class="node">
<title>11</title>
<ellipse fill="white" stroke="black" cx="415.82" cy="-22.06" rx="60.82" ry="22.06"/>
<text text-anchor="middle" x="415.82" y="-17.86" font-family="Arial" font-size="14.00">elevation_u</text>
</g>
<!-- 10&#45;&gt;11 -->
<g id="edge11" class="edge">
<title>10&#45;&gt;11</title>
<path fill="none" stroke="black" d="M470.29,-83.85C461.83,-74.41 451.16,-62.5 441.5,-51.72"/>
<polygon fill="black" stroke="black" points="444.33,-49.63 435.05,-44.52 439.11,-54.3 444.33,-49.63"/>
</g>
<!-- 12 -->
<g id="node13" class="node">
<title>12</title>
<ellipse fill="white" stroke="black" cx="554.82" cy="-22.06" rx="60.26" ry="22.06"/>
<text text-anchor="middle" x="554.82" y="-17.86" font-family="Arial" font-size="14.00">elevation_v</text>
</g>
<!-- 10&#45;&gt;12 -->
<g id="edge12" class="edge">
<title>10&#45;&gt;12</title>
<path fill="none" stroke="black" d="M501.13,-83.85C509.47,-74.41 519.99,-62.5 529.51,-51.72"/>
<polygon fill="black" stroke="black" points="531.86,-54.34 535.86,-44.53 526.62,-49.71 531.86,-54.34"/>
</g>
</g>
</svg>
