<?xml version="1.0" encoding="UTF-8" standalone="no"?>
<!DOCTYPE svg PUBLIC "-//W3C//DTD SVG 1.1//EN"
 "http://www.w3.org/Graphics/SVG/1.1/DTD/svg11.dtd">
<!-- Generated by graphviz version 12.2.1 (0)
 -->
<!-- Title: G Pages: 1 -->
<svg width="782pt" height="485pt"
 viewBox="36.00 36.00 746.13 449.42" xmlns="http://www.w3.org/2000/svg" xmlns:xlink="http://www.w3.org/1999/xlink">
<g id="graph0" class="graph" transform="scale(1 1) rotate(0) translate(40 445.42)">
<title>G</title>
<polygon fill="white" stroke="none" points="-4,4 -4,-409.42 706.13,-409.42 706.13,4 -4,4"/>
<text text-anchor="middle" x="351.07" y="-388.82" font-family="Times New Roman,serif" font-size="14.00">Second&#45;best evolved cost function tree</text>
<!-- 0 -->
<g id="node1" class="node">
<title>0</title>
<ellipse fill="white" stroke="black" cx="300.82" cy="-342.56" rx="27" ry="22.06"/>
<text text-anchor="middle" x="300.82" y="-338.36" font-family="Arial" font-size="14.00">add</text>
</g>
<!-- 1 -->
<g id="node2" class="node">
<title>1</title>
<ellipse fill="white" stroke="black" cx="232.82" cy="-262.43" rx="27" ry="22.06"/>
<text text-anchor="middle" x="232.82" y="-258.23" font-family="Arial" font-size="14.00">mul</text>
</g>
<!-- 0&#45;&gt;1 -->
<g id="edge1" class="edge">
<title>0&#45;&gt;1</title>
<path fill="none" stroke="black" d="M285.73,-324.22C276.81,-313.97 265.35,-300.8 255.38,-289.34"/>
<polygon fill="black" stroke="black" points="258.3,-287.38 249.1,-282.13 253.02,-291.97 258.3,-287.38"/>
</g>
<!-- 6 -->
<g id="node7" class="node">
<title>6</title>
<ellipse fill="white" stroke="black" cx="436.82" cy="-262.43" rx="63.57" ry="22.06"/>
<text text-anchor="middle" x="436.82" y="-258.23" font-family="Arial" font-size="14.00">if_then_else</text>
</g>
<!-- 0&#45;&gt;6 -->
<g id="edge6" class="edge">
<title>0&#45;&gt;6</title>
<path fill="none" stroke="black" d="M322.67,-329C342.05,-317.87 370.91,-301.3 394.75,-287.6"/>
<polygon fill="black" stroke="black" points="396.38,-290.7 403.31,-282.68 392.9,-284.63 396.38,-290.7"/>
</g>
<!-- 2 -->
<g id="node3" class="node">
<title>2</title>
<ellipse fill="white" stroke="black" cx="140.82" cy="-182.31" rx="27" ry="22.06"/>
<text text-anchor="middle" x="140.82" y="-178.11" font-family="Arial" font-size="14.00">mul</text>
</g>
<!-- 1&#45;&gt;2 -->
<g id="edge2" class="edge">
<title>1&#45;&gt;2</title>
<path fill="none" stroke="black" d="M214.64,-246C201.25,-234.62 182.81,-218.97 167.71,-206.15"/>
<polygon fill="black" stroke="black" points="170.32,-203.76 160.43,-199.96 165.78,-209.1 170.32,-203.76"/>
</g>
<!-- 5 -->
<g id="node6" class="node">
<title>5</title>
<ellipse fill="white" stroke="black" cx="232.82" cy="-182.31" rx="47.05" ry="22.06"/>
<text text-anchor="middle" x="232.82" y="-178.11" font-family="Arial" font-size="14.00">distance</text>
</g>
<!-- 1&#45;&gt;5 -->
<g id="edge5" class="edge">
<title>1&#45;&gt;5</title>
<path fill="none" stroke="black" d="M232.82,-240.08C232.82,-232.68 232.82,-224.19 232.82,-216.08"/>
<polygon fill="black" stroke="black" points="236.32,-216.14 232.82,-206.14 229.32,-216.14 236.32,-216.14"/>
</g>
<!-- 3 -->
<g id="node4" class="node">
<title>3</title>
<ellipse fill="white" stroke="black" cx="60.82" cy="-102.19" rx="60.82" ry="22.06"/>
<text text-anchor="middle" x="60.82" y="-97.99" font-family="Arial" font-size="14.00">elevation_u</text>
</g>
<!-- 2&#45;&gt;3 -->
<g id="edge3" class="edge">
<title>2&#45;&gt;3</title>
<path fill="none" stroke="black" d="M123.85,-164.74C113.89,-155.01 101.03,-142.45 89.53,-131.22"/>
<polygon fill="black" stroke="black" points="92.14,-128.88 82.54,-124.39 87.25,-133.88 92.14,-128.88"/>
</g>
<!-- 4 -->
<g id="node5" class="node">
<title>4</title>
<ellipse fill="white" stroke="black" cx="194.82" cy="-102.19" rx="55.31" ry="22.06"/>
<text text-anchor="middle" x="194.82" y="-97.99" font-family="Arial" font-size="14.00">steepness</text>
</g>
<!-- 2&#45;&gt;4 -->
<g id="edge4" class="edge">
<title>2&#45;&gt;4</title>
<path fill="none" stroke="black" d="M153.62,-162.79C159.76,-153.9 167.28,-143.03 174.2,-133.01"/>
<polygon fill="black" stroke="black" points="176.93,-135.23 179.73,-125.01 171.17,-131.25 176.93,-135.23"/>
</g>
<!-- 7 -->
<g id="node8" class="node">
<title>7</title>
<ellipse fill="white" stroke="black" cx="368.82" cy="-182.31" rx="71.26" ry="22.06"/>
<text text-anchor="middle" x="368.82" y="-178.11" font-family="Arial" font-size="14.00">identity_water</text>
</g>
<!-- 6&#45;&gt;7 -->
<g id="edge7" class="edge">
<title>6&#45;&gt;7</title>
<path fill="none" stroke="black" d="M418.95,-240.91C411.36,-232.18 402.37,-221.86 394.12,-212.37"/>
<polygon fill="black" stroke="black" points="397,-210.36 387.8,-205.11 391.72,-214.95 397,-210.36"/>
</g>
<!-- 9 -->
<g id="node10" class="node">
<title>9</title>
<ellipse fill="white" stroke="black" cx="504.82" cy="-182.31" rx="47.05" ry="22.06"/>
<text text-anchor="middle" x="504.82" y="-178.11" font-family="Arial" font-size="14.00">distance</text>
</g>
<!-- 6&#45;&gt;9 -->
<g id="edge9" class="edge">
<title>6&#45;&gt;9</title>
<path fill="none" stroke="black" d="M454.69,-240.91C462.46,-231.98 471.7,-221.36 480.11,-211.7"/>
<polygon fill="black" stroke="black" points="482.62,-214.14 486.55,-204.3 477.34,-209.54 482.62,-214.14"/>
</g>
<!-- 10 -->
<g id="node11" class="node">
<title>10</title>
<ellipse fill="white" stroke="black" cx="596.82" cy="-182.31" rx="27" ry="22.06"/>
<text text-anchor="middle" x="596.82" y="-178.11" font-family="Arial" font-size="14.00">mul</text>
</g>
<!-- 6&#45;&gt;10 -->
<g id="edge10" class="edge">
<title>6&#45;&gt;10</title>
<path fill="none" stroke="black" d="M475.83,-244.66C500.49,-233.77 532.87,-218.93 560.82,-204.37 562.31,-203.6 563.82,-202.79 565.34,-201.97"/>
<polygon fill="black" stroke="black" points="566.99,-205.05 573.99,-197.1 563.56,-198.95 566.99,-205.05"/>
</g>
<!-- 8 -->
<g id="node9" class="node">
<title>8</title>
<ellipse fill="white" stroke="black" cx="368.82" cy="-102.19" rx="47.04" ry="22.06"/>
<text text-anchor="middle" x="368.82" y="-97.99" font-family="Arial" font-size="14.00">is_water</text>
</g>
<!-- 7&#45;&gt;8 -->
<g id="edge8" class="edge">
<title>7&#45;&gt;8</title>
<path fill="none" stroke="black" d="M368.82,-159.96C368.82,-152.55 368.82,-144.07 368.82,-135.96"/>
<polygon fill="black" stroke="black" points="372.32,-136.02 368.82,-126.02 365.32,-136.02 372.32,-136.02"/>
</g>
<!-- 11 -->
<g id="node12" class="node">
<title>11</title>
<ellipse fill="white" stroke="black" cx="546.82" cy="-102.19" rx="27" ry="22.06"/>
<text text-anchor="middle" x="546.82" y="-97.99" font-family="Arial" font-size="14.00">mul</text>
</g>
<!-- 10&#45;&gt;11 -->
<g id="edge11" class="edge">
<title>10&#45;&gt;11</title>
<path fill="none" stroke="black" d="M584.72,-162.4C578.8,-153.16 571.56,-141.85 565,-131.59"/>
<polygon fill="black" stroke="black" points="568.14,-130 559.8,-123.47 562.24,-133.78 568.14,-130"/>
</g>
<!-- 14 -->
<g id="node15" class="node">
<title>14</title>
<ellipse fill="white" stroke="black" cx="646.82" cy="-102.19" rx="55.31" ry="22.06"/>
<text text-anchor="middle" x="646.82" y="-97.99" font-family="Arial" font-size="14.00">steepness</text>
</g>
<!-- 10&#45;&gt;14 -->
<g id="edge14" class="edge">
<title>10&#45;&gt;14</title>
<path fill="none" stroke="black" d="M608.92,-162.4C614.52,-153.66 621.29,-143.07 627.56,-133.27"/>
<polygon fill="black" stroke="black" points="630.34,-135.43 632.78,-125.12 624.45,-131.65 630.34,-135.43"/>
</g>
<!-- 12 -->
<g id="node13" class="node">
<title>12</title>
<ellipse fill="white" stroke="black" cx="476.82" cy="-22.06" rx="60.82" ry="22.06"/>
<text text-anchor="middle" x="476.82" y="-17.86" font-family="Arial" font-size="14.00">elevation_u</text>
</g>
<!-- 11&#45;&gt;12 -->
<g id="edge12" class="edge">
<title>11&#45;&gt;12</title>
<path fill="none" stroke="black" d="M531.29,-83.85C522.83,-74.41 512.16,-62.5 502.5,-51.72"/>
<polygon fill="black" stroke="black" points="505.33,-49.63 496.05,-44.52 500.11,-54.3 505.33,-49.63"/>
</g>
<!-- 13 -->
<g id="node14" class="node">
<title>13</title>
<ellipse fill="white" stroke="black" cx="615.82" cy="-22.06" rx="60.26" ry="22.06"/>
<text text-anchor="middle" x="615.82" y="-17.86" font-family="Arial" font-size="14.00">elevation_v</text>
</g>
<!-- 11&#45;&gt;13 -->
<g id="edge13" class="edge">
<title>11&#45;&gt;13</title>
<path fill="none" stroke="black" d="M562.13,-83.85C570.47,-74.41 580.99,-62.5 590.51,-51.72"/>
<polygon fill="black" stroke="black" points="592.86,-54.34 596.86,-44.53 587.62,-49.71 592.86,-54.34"/>
</g>
</g>
</svg>
