<?xml version="1.0" encoding="UTF-8" standalone="no"?>
<!DOCTYPE svg PUBLIC "-//W3C//DTD SVG 1.1//EN"
 "http://www.w3.org/Graphics/SVG/1.1/DTD/svg11.dtd">
<!-- Generated by graphviz version 12.2.1 (0)
 -->
<!-- Title: G Pages: 1 -->
<svg width="576pt" height="485pt"
 viewBox="36.00 36.00 540.11 449.42" xmlns="http://www.w3.org/2000/svg" xmlns:xlink="http://www.w3.org/1999/xlink">
<g id="graph0" class="graph" transform="scale(1 1) rotate(0) translate(40 445.42)">
<title>G</title>
<polygon fill="white" stroke="none" points="-4,4 -4,-409.42 500.11,-409.42 500.11,4 -4,4"/>
<text text-anchor="middle" x="248.05" y="-388.82" font-family="Times New Roman,serif" font-size="14.00">Second&#45;best evolved cost function tree</text>
<!-- 0 -->
<g id="node1" class="node">
<title>0</title>
<ellipse fill="white" stroke="black" cx="251.05" cy="-342.56" rx="63.57" ry="22.06"/>
<text text-anchor="middle" x="251.05" y="-338.36" font-family="Arial" font-size="14.00">if_then_else</text>
</g>
<!-- 1 -->
<g id="node2" class="node">
<title>1</title>
<ellipse fill="white" stroke="black" cx="159.05" cy="-262.43" rx="47.04" ry="22.06"/>
<text text-anchor="middle" x="159.05" y="-258.23" font-family="Arial" font-size="14.00">is_water</text>
</g>
<!-- 0&#45;&gt;1 -->
<g id="edge1" class="edge">
<title>0&#45;&gt;1</title>
<path fill="none" stroke="black" d="M227.84,-321.84C216.36,-312.09 202.35,-300.19 189.97,-289.69"/>
<polygon fill="black" stroke="black" points="192.35,-287.12 182.46,-283.31 187.82,-292.45 192.35,-287.12"/>
</g>
<!-- 2 -->
<g id="node3" class="node">
<title>2</title>
<ellipse fill="white" stroke="black" cx="251.05" cy="-262.43" rx="27" ry="22.06"/>
<text text-anchor="middle" x="251.05" y="-258.23" font-family="Arial" font-size="14.00">mul</text>
</g>
<!-- 0&#45;&gt;2 -->
<g id="edge2" class="edge">
<title>0&#45;&gt;2</title>
<path fill="none" stroke="black" d="M251.05,-320.21C251.05,-312.8 251.05,-304.32 251.05,-296.2"/>
<polygon fill="black" stroke="black" points="254.55,-296.27 251.05,-286.27 247.55,-296.27 254.55,-296.27"/>
</g>
<!-- 7 -->
<g id="node8" class="node">
<title>7</title>
<ellipse fill="white" stroke="black" cx="357.05" cy="-262.43" rx="27" ry="22.06"/>
<text text-anchor="middle" x="357.05" y="-258.23" font-family="Arial" font-size="14.00">mul</text>
</g>
<!-- 0&#45;&gt;7 -->
<g id="edge7" class="edge">
<title>0&#45;&gt;7</title>
<path fill="none" stroke="black" d="M277.53,-322.04C293.01,-310.63 312.56,-296.23 328.4,-284.55"/>
<polygon fill="black" stroke="black" points="330.05,-287.68 336.02,-278.93 325.89,-282.05 330.05,-287.68"/>
</g>
<!-- 3 -->
<g id="node4" class="node">
<title>3</title>
<ellipse fill="white" stroke="black" cx="145.05" cy="-182.31" rx="27" ry="22.06"/>
<text text-anchor="middle" x="145.05" y="-178.11" font-family="Arial" font-size="14.00">add</text>
</g>
<!-- 2&#45;&gt;3 -->
<g id="edge3" class="edge">
<title>2&#45;&gt;3</title>
<path fill="none" stroke="black" d="M231.61,-247.1C215.43,-235.17 192.15,-218.02 173.81,-204.5"/>
<polygon fill="black" stroke="black" points="176.08,-201.82 165.95,-198.71 171.92,-207.46 176.08,-201.82"/>
</g>
<!-- 6 -->
<g id="node7" class="node">
<title>6</title>
<ellipse fill="white" stroke="black" cx="251.05" cy="-182.31" rx="60.82" ry="22.06"/>
<text text-anchor="middle" x="251.05" y="-178.11" font-family="Arial" font-size="14.00">elevation_u</text>
</g>
<!-- 2&#45;&gt;6 -->
<g id="edge6" class="edge">
<title>2&#45;&gt;6</title>
<path fill="none" stroke="black" d="M251.05,-240.08C251.05,-232.68 251.05,-224.19 251.05,-216.08"/>
<polygon fill="black" stroke="black" points="254.55,-216.14 251.05,-206.14 247.55,-216.14 254.55,-216.14"/>
</g>
<!-- 4 -->
<g id="node5" class="node">
<title>4</title>
<ellipse fill="white" stroke="black" cx="47.05" cy="-102.19" rx="47.05" ry="22.06"/>
<text text-anchor="middle" x="47.05" y="-97.99" font-family="Arial" font-size="14.00">distance</text>
</g>
<!-- 3&#45;&gt;4 -->
<g id="edge4" class="edge">
<title>3&#45;&gt;4</title>
<path fill="none" stroke="black" d="M126.16,-166.25C112.86,-155.65 94.73,-141.19 79.19,-128.8"/>
<polygon fill="black" stroke="black" points="81.57,-126.23 71.57,-122.73 77.21,-131.7 81.57,-126.23"/>
</g>
<!-- 5 -->
<g id="node6" class="node">
<title>5</title>
<ellipse fill="white" stroke="black" cx="172.05" cy="-102.19" rx="60.26" ry="22.06"/>
<text text-anchor="middle" x="172.05" y="-97.99" font-family="Arial" font-size="14.00">elevation_v</text>
</g>
<!-- 3&#45;&gt;5 -->
<g id="edge5" class="edge">
<title>3&#45;&gt;5</title>
<path fill="none" stroke="black" d="M152.15,-160.78C154.87,-152.9 158.05,-143.71 161.06,-135.01"/>
<polygon fill="black" stroke="black" points="164.27,-136.42 164.23,-125.82 157.66,-134.13 164.27,-136.42"/>
</g>
<!-- 8 -->
<g id="node9" class="node">
<title>8</title>
<ellipse fill="white" stroke="black" cx="357.05" cy="-182.31" rx="27" ry="22.06"/>
<text text-anchor="middle" x="357.05" y="-178.11" font-family="Arial" font-size="14.00">mul</text>
</g>
<!-- 7&#45;&gt;8 -->
<g id="edge8" class="edge">
<title>7&#45;&gt;8</title>
<path fill="none" stroke="black" d="M357.05,-240.08C357.05,-232.68 357.05,-224.19 357.05,-216.08"/>
<polygon fill="black" stroke="black" points="360.55,-216.14 357.05,-206.14 353.55,-216.14 360.55,-216.14"/>
</g>
<!-- 13 -->
<g id="node14" class="node">
<title>13</title>
<ellipse fill="white" stroke="black" cx="449.05" cy="-182.31" rx="47.05" ry="22.06"/>
<text text-anchor="middle" x="449.05" y="-178.11" font-family="Arial" font-size="14.00">distance</text>
</g>
<!-- 7&#45;&gt;13 -->
<g id="edge13" class="edge">
<title>7&#45;&gt;13</title>
<path fill="none" stroke="black" d="M375.23,-246C387.55,-235.54 404.12,-221.46 418.45,-209.3"/>
<polygon fill="black" stroke="black" points="420.51,-212.14 425.87,-203 415.98,-206.8 420.51,-212.14"/>
</g>
<!-- 9 -->
<g id="node10" class="node">
<title>9</title>
<ellipse fill="white" stroke="black" cx="330.05" cy="-102.19" rx="27" ry="22.06"/>
<text text-anchor="middle" x="330.05" y="-97.99" font-family="Arial" font-size="14.00">add</text>
</g>
<!-- 8&#45;&gt;9 -->
<g id="edge9" class="edge">
<title>8&#45;&gt;9</title>
<path fill="none" stroke="black" d="M349.96,-160.78C347.19,-152.77 343.96,-143.41 340.91,-134.59"/>
<polygon fill="black" stroke="black" points="344.26,-133.58 337.69,-125.28 337.65,-135.87 344.26,-133.58"/>
</g>
<!-- 12 -->
<g id="node13" class="node">
<title>12</title>
<ellipse fill="white" stroke="black" cx="410.05" cy="-102.19" rx="34.96" ry="22.06"/>
<text text-anchor="middle" x="410.05" y="-97.99" font-family="Arial" font-size="14.00">0.117</text>
</g>
<!-- 8&#45;&gt;12 -->
<g id="edge12" class="edge">
<title>8&#45;&gt;12</title>
<path fill="none" stroke="black" d="M369.88,-162.4C376.01,-153.36 383.49,-142.35 390.32,-132.28"/>
<polygon fill="black" stroke="black" points="393.04,-134.51 395.75,-124.27 387.24,-130.58 393.04,-134.51"/>
</g>
<!-- 10 -->
<g id="node11" class="node">
<title>10</title>
<ellipse fill="white" stroke="black" cx="276.05" cy="-22.06" rx="34.96" ry="22.06"/>
<text text-anchor="middle" x="276.05" y="-17.86" font-family="Arial" font-size="14.00">1.701</text>
</g>
<!-- 9&#45;&gt;10 -->
<g id="edge10" class="edge">
<title>9&#45;&gt;10</title>
<path fill="none" stroke="black" d="M317.26,-82.67C310.97,-73.58 303.25,-62.4 296.19,-52.2"/>
<polygon fill="black" stroke="black" points="299.13,-50.29 290.56,-44.05 293.37,-54.27 299.13,-50.29"/>
</g>
<!-- 11 -->
<g id="node12" class="node">
<title>11</title>
<ellipse fill="white" stroke="black" cx="384.05" cy="-22.06" rx="55.31" ry="22.06"/>
<text text-anchor="middle" x="384.05" y="-17.86" font-family="Arial" font-size="14.00">steepness</text>
</g>
<!-- 9&#45;&gt;11 -->
<g id="edge11" class="edge">
<title>9&#45;&gt;11</title>
<path fill="none" stroke="black" d="M342.85,-82.67C349,-73.78 356.51,-62.91 363.44,-52.89"/>
<polygon fill="black" stroke="black" points="366.16,-55.1 368.97,-44.89 360.4,-51.12 366.16,-55.1"/>
</g>
</g>
</svg>
