<?xml version="1.0" encoding="UTF-8" standalone="no"?>
<!DOCTYPE svg PUBLIC "-//W3C//DTD SVG 1.1//EN"
 "http://www.w3.org/Graphics/SVG/1.1/DTD/svg11.dtd">
<!-- Generated by graphviz version 12.2.1 (0)
 -->
<!-- Title: G Pages: 1 -->
<svg width="892pt" height="405pt"
 viewBox="36.00 36.00 856.09 369.29" xmlns="http://www.w3.org/2000/svg" xmlns:xlink="http://www.w3.org/1999/xlink">
<g id="graph0" class="graph" transform="scale(1 1) rotate(0) translate(40 365.29)">
<title>G</title>
<polygon fill="white" stroke="none" points="-4,4 -4,-329.29 816.09,-329.29 816.09,4 -4,4"/>
<text text-anchor="middle" x="406.04" y="-308.69" font-family="Times New Roman,serif" font-size="14.00">Third&#45;best evolved cost function tree, after pruning</text>
<!-- 0 -->
<g id="node1" class="node">
<title>0</title>
<ellipse fill="white" stroke="black" cx="325.82" cy="-262.43" rx="27" ry="22.06"/>
<text text-anchor="middle" x="325.82" y="-258.23" font-family="Arial" font-size="14.00">add</text>
</g>
<!-- 1 -->
<g id="node2" class="node">
<title>1</title>
<ellipse fill="white" stroke="black" cx="269.82" cy="-182.31" rx="27" ry="22.06"/>
<text text-anchor="middle" x="269.82" y="-178.11" font-family="Arial" font-size="14.00">mul</text>
</g>
<!-- 0&#45;&gt;1 -->
<g id="edge1" class="edge">
<title>0&#45;&gt;1</title>
<path fill="none" stroke="black" d="M312.55,-242.92C305.76,-233.45 297.37,-221.74 289.82,-211.2"/>
<polygon fill="black" stroke="black" points="292.74,-209.28 284.07,-203.19 287.05,-213.36 292.74,-209.28"/>
</g>
<!-- 6 -->
<g id="node7" class="node">
<title>6</title>
<ellipse fill="white" stroke="black" cx="427.82" cy="-182.31" rx="63.57" ry="22.06"/>
<text text-anchor="middle" x="427.82" y="-178.11" font-family="Arial" font-size="14.00">if_then_else</text>
</g>
<!-- 0&#45;&gt;6 -->
<g id="edge6" class="edge">
<title>0&#45;&gt;6</title>
<path fill="none" stroke="black" d="M345.01,-246.74C358.51,-236.39 376.98,-222.25 393.05,-209.94"/>
<polygon fill="black" stroke="black" points="395.16,-212.73 400.97,-203.87 390.9,-207.18 395.16,-212.73"/>
</g>
<!-- 2 -->
<g id="node3" class="node">
<title>2</title>
<ellipse fill="white" stroke="black" cx="177.82" cy="-102.19" rx="27" ry="22.06"/>
<text text-anchor="middle" x="177.82" y="-97.99" font-family="Arial" font-size="14.00">mul</text>
</g>
<!-- 1&#45;&gt;2 -->
<g id="edge2" class="edge">
<title>1&#45;&gt;2</title>
<path fill="none" stroke="black" d="M251.64,-165.87C238.25,-154.5 219.81,-138.84 204.71,-126.02"/>
<polygon fill="black" stroke="black" points="207.32,-123.64 197.43,-119.83 202.78,-128.98 207.32,-123.64"/>
</g>
<!-- 5 -->
<g id="node6" class="node">
<title>5</title>
<ellipse fill="white" stroke="black" cx="269.82" cy="-102.19" rx="47.05" ry="22.06"/>
<text text-anchor="middle" x="269.82" y="-97.99" font-family="Arial" font-size="14.00">distance</text>
</g>
<!-- 1&#45;&gt;5 -->
<g id="edge5" class="edge">
<title>1&#45;&gt;5</title>
<path fill="none" stroke="black" d="M269.82,-159.96C269.82,-152.55 269.82,-144.07 269.82,-135.96"/>
<polygon fill="black" stroke="black" points="273.32,-136.02 269.82,-126.02 266.32,-136.02 273.32,-136.02"/>
</g>
<!-- 3 -->
<g id="node4" class="node">
<title>3</title>
<ellipse fill="white" stroke="black" cx="60.82" cy="-22.06" rx="60.82" ry="22.06"/>
<text text-anchor="middle" x="60.82" y="-17.86" font-family="Arial" font-size="14.00">elevation_u</text>
</g>
<!-- 2&#45;&gt;3 -->
<g id="edge3" class="edge">
<title>2&#45;&gt;3</title>
<path fill="none" stroke="black" d="M157.17,-87.4C141.01,-76.61 118.09,-61.3 98.66,-48.33"/>
<polygon fill="black" stroke="black" points="100.68,-45.47 90.42,-42.83 96.79,-51.29 100.68,-45.47"/>
</g>
<!-- 4 -->
<g id="node5" class="node">
<title>4</title>
<ellipse fill="white" stroke="black" cx="194.82" cy="-22.06" rx="55.31" ry="22.06"/>
<text text-anchor="middle" x="194.82" y="-17.86" font-family="Arial" font-size="14.00">steepness</text>
</g>
<!-- 2&#45;&gt;4 -->
<g id="edge4" class="edge">
<title>2&#45;&gt;4</title>
<path fill="none" stroke="black" d="M182.38,-80.25C184.04,-72.61 185.96,-63.77 187.79,-55.37"/>
<polygon fill="black" stroke="black" points="191.16,-56.32 189.87,-45.81 184.32,-54.83 191.16,-56.32"/>
</g>
<!-- 7 -->
<g id="node8" class="node">
<title>7</title>
<ellipse fill="white" stroke="black" cx="381.82" cy="-102.19" rx="47.04" ry="22.06"/>
<text text-anchor="middle" x="381.82" y="-97.99" font-family="Arial" font-size="14.00">is_water</text>
</g>
<!-- 6&#45;&gt;7 -->
<g id="edge7" class="edge">
<title>6&#45;&gt;7</title>
<path fill="none" stroke="black" d="M415.49,-160.37C410.66,-152.16 405.02,-142.58 399.75,-133.63"/>
<polygon fill="black" stroke="black" points="402.88,-132.05 394.79,-125.21 396.85,-135.61 402.88,-132.05"/>
</g>
<!-- 8 -->
<g id="node9" class="node">
<title>8</title>
<ellipse fill="white" stroke="black" cx="473.82" cy="-102.19" rx="27" ry="22.06"/>
<text text-anchor="middle" x="473.82" y="-97.99" font-family="Arial" font-size="14.00">sub</text>
</g>
<!-- 6&#45;&gt;8 -->
<g id="edge8" class="edge">
<title>6&#45;&gt;8</title>
<path fill="none" stroke="black" d="M440.15,-160.37C445.23,-151.74 451.2,-141.6 456.7,-132.26"/>
<polygon fill="black" stroke="black" points="459.58,-134.27 461.64,-123.87 453.55,-130.71 459.58,-134.27"/>
</g>
<!-- 11 -->
<g id="node12" class="node">
<title>11</title>
<ellipse fill="white" stroke="black" cx="612.82" cy="-102.19" rx="27" ry="22.06"/>
<text text-anchor="middle" x="612.82" y="-97.99" font-family="Arial" font-size="14.00">sub</text>
</g>
<!-- 6&#45;&gt;11 -->
<g id="edge11" class="edge">
<title>6&#45;&gt;11</title>
<path fill="none" stroke="black" d="M467.05,-164.74C500.07,-150.8 546.82,-131.05 578.41,-117.72"/>
<polygon fill="black" stroke="black" points="579.65,-120.99 587.5,-113.88 576.93,-114.54 579.65,-120.99"/>
</g>
<!-- 9 -->
<g id="node10" class="node">
<title>9</title>
<ellipse fill="white" stroke="black" cx="339.82" cy="-22.06" rx="55.31" ry="22.06"/>
<text text-anchor="middle" x="339.82" y="-17.86" font-family="Arial" font-size="14.00">steepness</text>
</g>
<!-- 8&#45;&gt;9 -->
<g id="edge9" class="edge">
<title>8&#45;&gt;9</title>
<path fill="none" stroke="black" d="M452.12,-88.48C447.41,-85.72 442.45,-82.82 437.82,-80.12 418.74,-68.99 397.56,-56.65 379.78,-46.3"/>
<polygon fill="black" stroke="black" points="382,-43.55 371.6,-41.54 378.48,-49.6 382,-43.55"/>
</g>
<!-- 10 -->
<g id="node11" class="node">
<title>10</title>
<ellipse fill="white" stroke="black" cx="473.82" cy="-22.06" rx="60.26" ry="22.06"/>
<text text-anchor="middle" x="473.82" y="-17.86" font-family="Arial" font-size="14.00">elevation_v</text>
</g>
<!-- 8&#45;&gt;10 -->
<g id="edge10" class="edge">
<title>8&#45;&gt;10</title>
<path fill="none" stroke="black" d="M473.82,-79.84C473.82,-72.43 473.82,-63.95 473.82,-55.83"/>
<polygon fill="black" stroke="black" points="477.32,-55.9 473.82,-45.9 470.32,-55.9 477.32,-55.9"/>
</g>
<!-- 12 -->
<g id="node13" class="node">
<title>12</title>
<ellipse fill="white" stroke="black" cx="612.82" cy="-22.06" rx="60.82" ry="22.06"/>
<text text-anchor="middle" x="612.82" y="-17.86" font-family="Arial" font-size="14.00">elevation_u</text>
</g>
<!-- 11&#45;&gt;12 -->
<g id="edge12" class="edge">
<title>11&#45;&gt;12</title>
<path fill="none" stroke="black" d="M612.82,-79.84C612.82,-72.43 612.82,-63.95 612.82,-55.83"/>
<polygon fill="black" stroke="black" points="616.32,-55.9 612.82,-45.9 609.32,-55.9 616.32,-55.9"/>
</g>
<!-- 13 -->
<g id="node14" class="node">
<title>13</title>
<ellipse fill="white" stroke="black" cx="751.82" cy="-22.06" rx="60.26" ry="22.06"/>
<text text-anchor="middle" x="751.82" y="-17.86" font-family="Arial" font-size="14.00">elevation_v</text>
</g>
<!-- 11&#45;&gt;13 -->
<g id="edge13" class="edge">
<title>11&#45;&gt;13</title>
<path fill="none" stroke="black" d="M634.85,-88.81C654.96,-77.5 685.25,-60.48 709.96,-46.59"/>
<polygon fill="black" stroke="black" points="711.49,-49.74 718.5,-41.79 708.06,-43.64 711.49,-49.74"/>
</g>
</g>
</svg>
