<?xml version="1.0" encoding="UTF-8" standalone="no"?>
<!DOCTYPE svg PUBLIC "-//W3C//DTD SVG 1.1//EN"
 "http://www.w3.org/Graphics/SVG/1.1/DTD/svg11.dtd">
<!-- Generated by graphviz version 12.2.1 (0)
 -->
<!-- Title: G Pages: 1 -->
<svg width="590pt" height="485pt"
 viewBox="36.00 36.00 554.35 449.42" xmlns="http://www.w3.org/2000/svg" xmlns:xlink="http://www.w3.org/1999/xlink">
<g id="graph0" class="graph" transform="scale(1 1) rotate(0) translate(40 445.42)">
<title>G</title>
<polygon fill="white" stroke="none" points="-4,4 -4,-409.42 514.35,-409.42 514.35,4 -4,4"/>
<text text-anchor="middle" x="255.18" y="-388.82" font-family="Times New Roman,serif" font-size="14.00">Third&#45;best evolved cost function tree</text>
<!-- 0 -->
<g id="node1" class="node">
<title>0</title>
<ellipse fill="white" stroke="black" cx="257.04" cy="-342.56" rx="27" ry="22.06"/>
<text text-anchor="middle" x="257.04" y="-338.36" font-family="Arial" font-size="14.00">add</text>
</g>
<!-- 1 -->
<g id="node2" class="node">
<title>1</title>
<ellipse fill="white" stroke="black" cx="203.04" cy="-262.43" rx="63.57" ry="22.06"/>
<text text-anchor="middle" x="203.04" y="-258.23" font-family="Arial" font-size="14.00">if_then_else</text>
</g>
<!-- 0&#45;&gt;1 -->
<g id="edge1" class="edge">
<title>0&#45;&gt;1</title>
<path fill="none" stroke="black" d="M244.25,-323.04C238.15,-314.22 230.7,-303.44 223.82,-293.49"/>
<polygon fill="black" stroke="black" points="226.89,-291.77 218.32,-285.54 221.13,-295.75 226.89,-291.77"/>
</g>
<!-- 9 -->
<g id="node10" class="node">
<title>9</title>
<ellipse fill="white" stroke="black" cx="347.04" cy="-262.43" rx="27" ry="22.06"/>
<text text-anchor="middle" x="347.04" y="-258.23" font-family="Arial" font-size="14.00">sub</text>
</g>
<!-- 0&#45;&gt;9 -->
<g id="edge9" class="edge">
<title>0&#45;&gt;9</title>
<path fill="none" stroke="black" d="M275.26,-325.75C288.19,-314.52 305.76,-299.27 320.28,-286.66"/>
<polygon fill="black" stroke="black" points="322.46,-289.41 327.72,-280.21 317.87,-284.12 322.46,-289.41"/>
</g>
<!-- 2 -->
<g id="node3" class="node">
<title>2</title>
<ellipse fill="white" stroke="black" cx="47.04" cy="-182.31" rx="47.04" ry="22.06"/>
<text text-anchor="middle" x="47.04" y="-178.11" font-family="Arial" font-size="14.00">is_water</text>
</g>
<!-- 1&#45;&gt;2 -->
<g id="edge2" class="edge">
<title>1&#45;&gt;2</title>
<path fill="none" stroke="black" d="M167.65,-243.7C144.21,-231.97 113.36,-216.52 88.73,-204.19"/>
<polygon fill="black" stroke="black" points="90.46,-201.14 79.95,-199.79 87.33,-207.4 90.46,-201.14"/>
</g>
<!-- 3 -->
<g id="node4" class="node">
<title>3</title>
<ellipse fill="white" stroke="black" cx="167.04" cy="-182.31" rx="55.31" ry="22.06"/>
<text text-anchor="middle" x="167.04" y="-178.11" font-family="Arial" font-size="14.00">steepness</text>
</g>
<!-- 1&#45;&gt;3 -->
<g id="edge3" class="edge">
<title>1&#45;&gt;3</title>
<path fill="none" stroke="black" d="M193.4,-240.5C189.72,-232.53 185.46,-223.27 181.44,-214.55"/>
<polygon fill="black" stroke="black" points="184.72,-213.29 177.35,-205.68 178.36,-216.22 184.72,-213.29"/>
</g>
<!-- 4 -->
<g id="node5" class="node">
<title>4</title>
<ellipse fill="white" stroke="black" cx="267.04" cy="-182.31" rx="27" ry="22.06"/>
<text text-anchor="middle" x="267.04" y="-178.11" font-family="Arial" font-size="14.00">sub</text>
</g>
<!-- 1&#45;&gt;4 -->
<g id="edge4" class="edge">
<title>1&#45;&gt;4</title>
<path fill="none" stroke="black" d="M219.86,-240.91C227.57,-231.49 236.82,-220.21 245.07,-210.13"/>
<polygon fill="black" stroke="black" points="247.71,-212.43 251.34,-202.48 242.3,-207.99 247.71,-212.43"/>
</g>
<!-- 5 -->
<g id="node6" class="node">
<title>5</title>
<ellipse fill="white" stroke="black" cx="214.04" cy="-102.19" rx="60.82" ry="22.06"/>
<text text-anchor="middle" x="214.04" y="-97.99" font-family="Arial" font-size="14.00">elevation_u</text>
</g>
<!-- 4&#45;&gt;5 -->
<g id="edge5" class="edge">
<title>4&#45;&gt;5</title>
<path fill="none" stroke="black" d="M254.21,-162.4C248.33,-153.73 241.21,-143.23 234.61,-133.5"/>
<polygon fill="black" stroke="black" points="237.61,-131.68 229.1,-125.37 231.81,-135.61 237.61,-131.68"/>
</g>
<!-- 6 -->
<g id="node7" class="node">
<title>6</title>
<ellipse fill="white" stroke="black" cx="320.04" cy="-102.19" rx="27" ry="22.06"/>
<text text-anchor="middle" x="320.04" y="-97.99" font-family="Arial" font-size="14.00">mul</text>
</g>
<!-- 4&#45;&gt;6 -->
<g id="edge6" class="edge">
<title>4&#45;&gt;6</title>
<path fill="none" stroke="black" d="M279.87,-162.4C286.19,-153.09 293.93,-141.68 300.93,-131.37"/>
<polygon fill="black" stroke="black" points="303.77,-133.42 306.48,-123.18 297.97,-129.49 303.77,-133.42"/>
</g>
<!-- 7 -->
<g id="node8" class="node">
<title>7</title>
<ellipse fill="white" stroke="black" cx="257.04" cy="-22.06" rx="47.05" ry="22.06"/>
<text text-anchor="middle" x="257.04" y="-17.86" font-family="Arial" font-size="14.00">distance</text>
</g>
<!-- 6&#45;&gt;7 -->
<g id="edge7" class="edge">
<title>6&#45;&gt;7</title>
<path fill="none" stroke="black" d="M305.75,-83.46C298.28,-74.2 288.95,-62.63 280.46,-52.1"/>
<polygon fill="black" stroke="black" points="283.23,-49.96 274.23,-44.38 277.79,-54.36 283.23,-49.96"/>
</g>
<!-- 8 -->
<g id="node9" class="node">
<title>8</title>
<ellipse fill="white" stroke="black" cx="382.04" cy="-22.06" rx="60.26" ry="22.06"/>
<text text-anchor="middle" x="382.04" y="-17.86" font-family="Arial" font-size="14.00">elevation_v</text>
</g>
<!-- 6&#45;&gt;8 -->
<g id="edge8" class="edge">
<title>6&#45;&gt;8</title>
<path fill="none" stroke="black" d="M334.42,-83.07C341.67,-73.93 350.64,-62.63 358.84,-52.3"/>
<polygon fill="black" stroke="black" points="361.36,-54.76 364.83,-44.75 355.88,-50.41 361.36,-54.76"/>
</g>
<!-- 10 -->
<g id="node11" class="node">
<title>10</title>
<ellipse fill="white" stroke="black" cx="347.04" cy="-182.31" rx="34.96" ry="22.06"/>
<text text-anchor="middle" x="347.04" y="-178.11" font-family="Arial" font-size="14.00">8.341</text>
</g>
<!-- 9&#45;&gt;10 -->
<g id="edge10" class="edge">
<title>9&#45;&gt;10</title>
<path fill="none" stroke="black" d="M347.04,-240.08C347.04,-232.68 347.04,-224.19 347.04,-216.08"/>
<polygon fill="black" stroke="black" points="350.54,-216.14 347.04,-206.14 343.54,-216.14 350.54,-216.14"/>
</g>
<!-- 11 -->
<g id="node12" class="node">
<title>11</title>
<ellipse fill="white" stroke="black" cx="455.04" cy="-182.31" rx="55.31" ry="22.06"/>
<text text-anchor="middle" x="455.04" y="-178.11" font-family="Arial" font-size="14.00">steepness</text>
</g>
<!-- 9&#45;&gt;11 -->
<g id="edge11" class="edge">
<title>9&#45;&gt;11</title>
<path fill="none" stroke="black" d="M366.85,-247.1C381.79,-236.3 402.65,-221.21 420.33,-208.42"/>
<polygon fill="black" stroke="black" points="421.97,-211.56 428.02,-202.86 417.86,-205.88 421.97,-211.56"/>
</g>
</g>
</svg>
