<?xml version="1.0" encoding="UTF-8" standalone="no"?>
<!DOCTYPE svg PUBLIC "-//W3C//DTD SVG 1.1//EN"
 "http://www.w3.org/Graphics/SVG/1.1/DTD/svg11.dtd">
<!-- Generated by graphviz version 12.2.1 (0)
 -->
<!-- Title: G Pages: 1 -->
<svg width="1039pt" height="405pt"
 viewBox="36.00 36.00 1003.09 369.29" xmlns="http://www.w3.org/2000/svg" xmlns:xlink="http://www.w3.org/1999/xlink">
<g id="graph0" class="graph" transform="scale(1 1) rotate(0) translate(40 365.29)">
<title>G</title>
<polygon fill="white" stroke="none" points="-4,4 -4,-329.29 963.09,-329.29 963.09,4 -4,4"/>
<text text-anchor="middle" x="479.54" y="-308.69" font-family="Times New Roman,serif" font-size="14.00">Third&#45;best evolved cost function tree, before pruning</text>
<!-- 0 -->
<g id="node1" class="node">
<title>0</title>
<ellipse fill="white" stroke="black" cx="328.82" cy="-262.43" rx="27" ry="22.06"/>
<text text-anchor="middle" x="328.82" y="-258.23" font-family="Arial" font-size="14.00">add</text>
</g>
<!-- 1 -->
<g id="node2" class="node">
<title>1</title>
<ellipse fill="white" stroke="black" cx="260.82" cy="-182.31" rx="27" ry="22.06"/>
<text text-anchor="middle" x="260.82" y="-178.11" font-family="Arial" font-size="14.00">mul</text>
</g>
<!-- 0&#45;&gt;1 -->
<g id="edge1" class="edge">
<title>0&#45;&gt;1</title>
<path fill="none" stroke="black" d="M313.73,-244.09C304.81,-233.85 293.35,-220.68 283.38,-209.22"/>
<polygon fill="black" stroke="black" points="286.3,-207.26 277.1,-202.01 281.02,-211.85 286.3,-207.26"/>
</g>
<!-- 6 -->
<g id="node7" class="node">
<title>6</title>
<ellipse fill="white" stroke="black" cx="454.82" cy="-182.31" rx="63.57" ry="22.06"/>
<text text-anchor="middle" x="454.82" y="-178.11" font-family="Arial" font-size="14.00">if_then_else</text>
</g>
<!-- 0&#45;&gt;6 -->
<g id="edge6" class="edge">
<title>0&#45;&gt;6</title>
<path fill="none" stroke="black" d="M349.91,-248.36C367.65,-237.36 393.5,-221.33 415.11,-207.93"/>
<polygon fill="black" stroke="black" points="416.75,-211.03 423.4,-202.79 413.06,-205.08 416.75,-211.03"/>
</g>
<!-- 2 -->
<g id="node3" class="node">
<title>2</title>
<ellipse fill="white" stroke="black" cx="168.82" cy="-102.19" rx="27" ry="22.06"/>
<text text-anchor="middle" x="168.82" y="-97.99" font-family="Arial" font-size="14.00">mul</text>
</g>
<!-- 1&#45;&gt;2 -->
<g id="edge2" class="edge">
<title>1&#45;&gt;2</title>
<path fill="none" stroke="black" d="M242.64,-165.87C229.25,-154.5 210.81,-138.84 195.71,-126.02"/>
<polygon fill="black" stroke="black" points="198.32,-123.64 188.43,-119.83 193.78,-128.98 198.32,-123.64"/>
</g>
<!-- 5 -->
<g id="node6" class="node">
<title>5</title>
<ellipse fill="white" stroke="black" cx="260.82" cy="-102.19" rx="47.05" ry="22.06"/>
<text text-anchor="middle" x="260.82" y="-97.99" font-family="Arial" font-size="14.00">distance</text>
</g>
<!-- 1&#45;&gt;5 -->
<g id="edge5" class="edge">
<title>1&#45;&gt;5</title>
<path fill="none" stroke="black" d="M260.82,-159.96C260.82,-152.55 260.82,-144.07 260.82,-135.96"/>
<polygon fill="black" stroke="black" points="264.32,-136.02 260.82,-126.02 257.32,-136.02 264.32,-136.02"/>
</g>
<!-- 3 -->
<g id="node4" class="node">
<title>3</title>
<ellipse fill="white" stroke="black" cx="60.82" cy="-22.06" rx="60.82" ry="22.06"/>
<text text-anchor="middle" x="60.82" y="-17.86" font-family="Arial" font-size="14.00">elevation_u</text>
</g>
<!-- 2&#45;&gt;3 -->
<g id="edge3" class="edge">
<title>2&#45;&gt;3</title>
<path fill="none" stroke="black" d="M149.01,-86.86C134.28,-76.2 113.79,-61.38 96.27,-48.7"/>
<polygon fill="black" stroke="black" points="98.8,-46.22 88.65,-43.19 94.7,-51.89 98.8,-46.22"/>
</g>
<!-- 4 -->
<g id="node5" class="node">
<title>4</title>
<ellipse fill="white" stroke="black" cx="194.82" cy="-22.06" rx="55.31" ry="22.06"/>
<text text-anchor="middle" x="194.82" y="-17.86" font-family="Arial" font-size="14.00">steepness</text>
</g>
<!-- 2&#45;&gt;4 -->
<g id="edge4" class="edge">
<title>2&#45;&gt;4</title>
<path fill="none" stroke="black" d="M175.65,-80.66C178.25,-72.86 181.27,-63.79 184.13,-55.17"/>
<polygon fill="black" stroke="black" points="187.45,-56.3 187.29,-45.7 180.81,-54.09 187.45,-56.3"/>
</g>
<!-- 7 -->
<g id="node8" class="node">
<title>7</title>
<ellipse fill="white" stroke="black" cx="396.82" cy="-102.19" rx="71.26" ry="22.06"/>
<text text-anchor="middle" x="396.82" y="-97.99" font-family="Arial" font-size="14.00">identity_water</text>
</g>
<!-- 6&#45;&gt;7 -->
<g id="edge7" class="edge">
<title>6&#45;&gt;7</title>
<path fill="none" stroke="black" d="M439.58,-160.78C433.35,-152.39 426.02,-142.52 419.21,-133.34"/>
<polygon fill="black" stroke="black" points="422.03,-131.28 413.26,-125.33 416.41,-135.45 422.03,-131.28"/>
</g>
<!-- 9 -->
<g id="node10" class="node">
<title>9</title>
<ellipse fill="white" stroke="black" cx="512.82" cy="-102.19" rx="27" ry="22.06"/>
<text text-anchor="middle" x="512.82" y="-97.99" font-family="Arial" font-size="14.00">sub</text>
</g>
<!-- 6&#45;&gt;9 -->
<g id="edge9" class="edge">
<title>6&#45;&gt;9</title>
<path fill="none" stroke="black" d="M470.06,-160.78C476.88,-151.6 485.01,-140.64 492.35,-130.76"/>
<polygon fill="black" stroke="black" points="495.02,-133.04 498.17,-122.92 489.4,-128.86 495.02,-133.04"/>
</g>
<!-- 12 -->
<g id="node13" class="node">
<title>12</title>
<ellipse fill="white" stroke="black" cx="759.82" cy="-102.19" rx="27" ry="22.06"/>
<text text-anchor="middle" x="759.82" y="-97.99" font-family="Arial" font-size="14.00">sub</text>
</g>
<!-- 6&#45;&gt;12 -->
<g id="edge12" class="edge">
<title>6&#45;&gt;12</title>
<path fill="none" stroke="black" d="M505.19,-168.41C566.63,-152.67 669.02,-126.44 723.36,-112.53"/>
<polygon fill="black" stroke="black" points="723.9,-116 732.72,-110.13 722.17,-109.22 723.9,-116"/>
</g>
<!-- 8 -->
<g id="node9" class="node">
<title>8</title>
<ellipse fill="white" stroke="black" cx="366.82" cy="-22.06" rx="47.04" ry="22.06"/>
<text text-anchor="middle" x="366.82" y="-17.86" font-family="Arial" font-size="14.00">is_water</text>
</g>
<!-- 7&#45;&gt;8 -->
<g id="edge8" class="edge">
<title>7&#45;&gt;8</title>
<path fill="none" stroke="black" d="M388.62,-79.84C385.66,-72.11 382.24,-63.21 379,-54.78"/>
<polygon fill="black" stroke="black" points="382.3,-53.61 375.45,-45.53 375.76,-56.12 382.3,-53.61"/>
</g>
<!-- 10 -->
<g id="node11" class="node">
<title>10</title>
<ellipse fill="white" stroke="black" cx="486.82" cy="-22.06" rx="55.31" ry="22.06"/>
<text text-anchor="middle" x="486.82" y="-17.86" font-family="Arial" font-size="14.00">steepness</text>
</g>
<!-- 9&#45;&gt;10 -->
<g id="edge10" class="edge">
<title>9&#45;&gt;10</title>
<path fill="none" stroke="black" d="M505.99,-80.66C503.39,-72.86 500.37,-63.79 497.51,-55.17"/>
<polygon fill="black" stroke="black" points="500.83,-54.09 494.36,-45.7 494.19,-56.3 500.83,-54.09"/>
</g>
<!-- 11 -->
<g id="node12" class="node">
<title>11</title>
<ellipse fill="white" stroke="black" cx="620.82" cy="-22.06" rx="60.26" ry="22.06"/>
<text text-anchor="middle" x="620.82" y="-17.86" font-family="Arial" font-size="14.00">elevation_v</text>
</g>
<!-- 9&#45;&gt;11 -->
<g id="edge11" class="edge">
<title>9&#45;&gt;11</title>
<path fill="none" stroke="black" d="M532.63,-86.86C547.36,-76.2 567.85,-61.38 585.37,-48.7"/>
<polygon fill="black" stroke="black" points="586.94,-51.89 592.99,-43.19 582.84,-46.22 586.94,-51.89"/>
</g>
<!-- 13 -->
<g id="node14" class="node">
<title>13</title>
<ellipse fill="white" stroke="black" cx="759.82" cy="-22.06" rx="60.82" ry="22.06"/>
<text text-anchor="middle" x="759.82" y="-17.86" font-family="Arial" font-size="14.00">elevation_u</text>
</g>
<!-- 12&#45;&gt;13 -->
<g id="edge13" class="edge">
<title>12&#45;&gt;13</title>
<path fill="none" stroke="black" d="M759.82,-79.84C759.82,-72.43 759.82,-63.95 759.82,-55.83"/>
<polygon fill="black" stroke="black" points="763.32,-55.9 759.82,-45.9 756.32,-55.9 763.32,-55.9"/>
</g>
<!-- 14 -->
<g id="node15" class="node">
<title>14</title>
<ellipse fill="white" stroke="black" cx="898.82" cy="-22.06" rx="60.26" ry="22.06"/>
<text text-anchor="middle" x="898.82" y="-17.86" font-family="Arial" font-size="14.00">elevation_v</text>
</g>
<!-- 12&#45;&gt;14 -->
<g id="edge14" class="edge">
<title>12&#45;&gt;14</title>
<path fill="none" stroke="black" d="M781.85,-88.81C801.96,-77.5 832.25,-60.48 856.96,-46.59"/>
<polygon fill="black" stroke="black" points="858.49,-49.74 865.5,-41.79 855.06,-43.64 858.49,-49.74"/>
</g>
</g>
</svg>
