<?xml version="1.0" encoding="UTF-8" standalone="no"?>
<!DOCTYPE svg PUBLIC "-//W3C//DTD SVG 1.1//EN"
 "http://www.w3.org/Graphics/SVG/1.1/DTD/svg11.dtd">
<!-- Generated by graphviz version 12.2.1 (0)
 -->
<!-- Title: G Pages: 1 -->
<svg width="632pt" height="566pt"
 viewBox="36.00 36.00 596.13 529.54" xmlns="http://www.w3.org/2000/svg" xmlns:xlink="http://www.w3.org/1999/xlink">
<g id="graph0" class="graph" transform="scale(1 1) rotate(0) translate(40 525.54)">
<title>G</title>
<polygon fill="white" stroke="none" points="-4,4 -4,-489.54 556.13,-489.54 556.13,4 -4,4"/>
<text text-anchor="middle" x="276.07" y="-468.94" font-family="Times New Roman,serif" font-size="14.00">(&#39;best_5tree_3000pop_15gen_25runs_res200_25subrun&#39;, &#39;&#39;)</text>
<!-- 0 -->
<g id="node1" class="node">
<title>0</title>
<ellipse fill="white" stroke="black" cx="199.82" cy="-422.68" rx="63.57" ry="22.06"/>
<text text-anchor="middle" x="199.82" y="-418.48" font-family="Arial" font-size="14.00">if_then_else</text>
</g>
<!-- 1 -->
<g id="node2" class="node">
<title>1</title>
<ellipse fill="white" stroke="black" cx="107.82" cy="-342.56" rx="47.04" ry="22.06"/>
<text text-anchor="middle" x="107.82" y="-338.36" font-family="Arial" font-size="14.00">is_water</text>
</g>
<!-- 0&#45;&gt;1 -->
<g id="edge1" class="edge">
<title>0&#45;&gt;1</title>
<path fill="none" stroke="black" d="M176.61,-401.97C165.13,-392.22 151.11,-380.32 138.74,-369.81"/>
<polygon fill="black" stroke="black" points="141.12,-367.24 131.23,-363.43 136.59,-372.58 141.12,-367.24"/>
</g>
<!-- 2 -->
<g id="node3" class="node">
<title>2</title>
<ellipse fill="white" stroke="black" cx="199.82" cy="-342.56" rx="27" ry="22.06"/>
<text text-anchor="middle" x="199.82" y="-338.36" font-family="Arial" font-size="14.00">mul</text>
</g>
<!-- 0&#45;&gt;2 -->
<g id="edge2" class="edge">
<title>0&#45;&gt;2</title>
<path fill="none" stroke="black" d="M199.82,-400.33C199.82,-392.93 199.82,-384.44 199.82,-376.33"/>
<polygon fill="black" stroke="black" points="203.32,-376.39 199.82,-366.39 196.32,-376.39 203.32,-376.39"/>
</g>
<!-- 5 -->
<g id="node6" class="node">
<title>5</title>
<ellipse fill="white" stroke="black" cx="304.82" cy="-342.56" rx="27" ry="22.06"/>
<text text-anchor="middle" x="304.82" y="-338.36" font-family="Arial" font-size="14.00">sub</text>
</g>
<!-- 0&#45;&gt;5 -->
<g id="edge5" class="edge">
<title>0&#45;&gt;5</title>
<path fill="none" stroke="black" d="M226.05,-402.17C241.24,-390.86 260.38,-376.62 276,-365"/>
<polygon fill="black" stroke="black" points="278.05,-367.84 283.98,-359.06 273.87,-362.22 278.05,-367.84"/>
</g>
<!-- 3 -->
<g id="node4" class="node">
<title>3</title>
<ellipse fill="white" stroke="black" cx="60.82" cy="-262.43" rx="60.82" ry="22.06"/>
<text text-anchor="middle" x="60.82" y="-258.23" font-family="Arial" font-size="14.00">elevation_u</text>
</g>
<!-- 2&#45;&gt;3 -->
<g id="edge3" class="edge">
<title>2&#45;&gt;3</title>
<path fill="none" stroke="black" d="M178.17,-328.78C173.45,-326.02 168.48,-323.15 163.82,-320.49 144.04,-309.23 121.97,-296.96 103.35,-286.7"/>
<polygon fill="black" stroke="black" points="105.18,-283.71 94.73,-281.96 101.8,-289.84 105.18,-283.71"/>
</g>
<!-- 4 -->
<g id="node5" class="node">
<title>4</title>
<ellipse fill="white" stroke="black" cx="199.82" cy="-262.43" rx="60.26" ry="22.06"/>
<text text-anchor="middle" x="199.82" y="-258.23" font-family="Arial" font-size="14.00">elevation_v</text>
</g>
<!-- 2&#45;&gt;4 -->
<g id="edge4" class="edge">
<title>2&#45;&gt;4</title>
<path fill="none" stroke="black" d="M199.82,-320.21C199.82,-312.8 199.82,-304.32 199.82,-296.2"/>
<polygon fill="black" stroke="black" points="203.32,-296.27 199.82,-286.27 196.32,-296.27 203.32,-296.27"/>
</g>
<!-- 6 -->
<g id="node7" class="node">
<title>6</title>
<ellipse fill="white" stroke="black" cx="304.82" cy="-262.43" rx="27" ry="22.06"/>
<text text-anchor="middle" x="304.82" y="-258.23" font-family="Arial" font-size="14.00">mul</text>
</g>
<!-- 5&#45;&gt;6 -->
<g id="edge6" class="edge">
<title>5&#45;&gt;6</title>
<path fill="none" stroke="black" d="M304.82,-320.21C304.82,-312.8 304.82,-304.32 304.82,-296.2"/>
<polygon fill="black" stroke="black" points="308.32,-296.27 304.82,-286.27 301.32,-296.27 308.32,-296.27"/>
</g>
<!-- 9 -->
<g id="node10" class="node">
<title>9</title>
<ellipse fill="white" stroke="black" cx="396.82" cy="-262.43" rx="27" ry="22.06"/>
<text text-anchor="middle" x="396.82" y="-258.23" font-family="Arial" font-size="14.00">mul</text>
</g>
<!-- 5&#45;&gt;9 -->
<g id="edge9" class="edge">
<title>5&#45;&gt;9</title>
<path fill="none" stroke="black" d="M323,-326.12C336.39,-314.75 354.83,-299.09 369.93,-286.27"/>
<polygon fill="black" stroke="black" points="371.86,-289.22 377.21,-280.08 367.33,-283.89 371.86,-289.22"/>
</g>
<!-- 7 -->
<g id="node8" class="node">
<title>7</title>
<ellipse fill="white" stroke="black" cx="179.82" cy="-182.31" rx="60.26" ry="22.06"/>
<text text-anchor="middle" x="179.82" y="-178.11" font-family="Arial" font-size="14.00">elevation_v</text>
</g>
<!-- 6&#45;&gt;7 -->
<g id="edge7" class="edge">
<title>6&#45;&gt;7</title>
<path fill="none" stroke="black" d="M283.62,-248.18C266.06,-237.21 240.63,-221.31 219.34,-208"/>
<polygon fill="black" stroke="black" points="221.2,-205.04 210.86,-202.71 217.49,-210.98 221.2,-205.04"/>
</g>
<!-- 8 -->
<g id="node9" class="node">
<title>8</title>
<ellipse fill="white" stroke="black" cx="304.82" cy="-182.31" rx="47.05" ry="22.06"/>
<text text-anchor="middle" x="304.82" y="-178.11" font-family="Arial" font-size="14.00">distance</text>
</g>
<!-- 6&#45;&gt;8 -->
<g id="edge8" class="edge">
<title>6&#45;&gt;8</title>
<path fill="none" stroke="black" d="M304.82,-240.08C304.82,-232.68 304.82,-224.19 304.82,-216.08"/>
<polygon fill="black" stroke="black" points="308.32,-216.14 304.82,-206.14 301.32,-216.14 308.32,-216.14"/>
</g>
<!-- 10 -->
<g id="node11" class="node">
<title>10</title>
<ellipse fill="white" stroke="black" cx="396.82" cy="-182.31" rx="27" ry="22.06"/>
<text text-anchor="middle" x="396.82" y="-178.11" font-family="Arial" font-size="14.00">neg</text>
</g>
<!-- 9&#45;&gt;10 -->
<g id="edge10" class="edge">
<title>9&#45;&gt;10</title>
<path fill="none" stroke="black" d="M396.82,-240.08C396.82,-232.68 396.82,-224.19 396.82,-216.08"/>
<polygon fill="black" stroke="black" points="400.32,-216.14 396.82,-206.14 393.32,-216.14 400.32,-216.14"/>
</g>
<!-- 14 -->
<g id="node15" class="node">
<title>14</title>
<ellipse fill="white" stroke="black" cx="496.82" cy="-182.31" rx="55.31" ry="22.06"/>
<text text-anchor="middle" x="496.82" y="-178.11" font-family="Arial" font-size="14.00">steepness</text>
</g>
<!-- 9&#45;&gt;14 -->
<g id="edge14" class="edge">
<title>9&#45;&gt;14</title>
<path fill="none" stroke="black" d="M416.1,-246.37C429.48,-235.92 447.65,-221.72 463.36,-209.45"/>
<polygon fill="black" stroke="black" points="465.36,-212.33 471.09,-203.41 461.05,-206.81 465.36,-212.33"/>
</g>
<!-- 11 -->
<g id="node12" class="node">
<title>11</title>
<ellipse fill="white" stroke="black" cx="396.82" cy="-102.19" rx="27" ry="22.06"/>
<text text-anchor="middle" x="396.82" y="-97.99" font-family="Arial" font-size="14.00">mul</text>
</g>
<!-- 10&#45;&gt;11 -->
<g id="edge11" class="edge">
<title>10&#45;&gt;11</title>
<path fill="none" stroke="black" d="M396.82,-159.96C396.82,-152.55 396.82,-144.07 396.82,-135.96"/>
<polygon fill="black" stroke="black" points="400.32,-136.02 396.82,-126.02 393.32,-136.02 400.32,-136.02"/>
</g>
<!-- 12 -->
<g id="node13" class="node">
<title>12</title>
<ellipse fill="white" stroke="black" cx="327.82" cy="-22.06" rx="60.82" ry="22.06"/>
<text text-anchor="middle" x="327.82" y="-17.86" font-family="Arial" font-size="14.00">elevation_u</text>
</g>
<!-- 11&#45;&gt;12 -->
<g id="edge12" class="edge">
<title>11&#45;&gt;12</title>
<path fill="none" stroke="black" d="M381.51,-83.85C373.17,-74.41 362.65,-62.5 353.13,-51.72"/>
<polygon fill="black" stroke="black" points="356.02,-49.71 346.78,-44.53 350.78,-54.34 356.02,-49.71"/>
</g>
<!-- 13 -->
<g id="node14" class="node">
<title>13</title>
<ellipse fill="white" stroke="black" cx="466.82" cy="-22.06" rx="60.26" ry="22.06"/>
<text text-anchor="middle" x="466.82" y="-17.86" font-family="Arial" font-size="14.00">elevation_v</text>
</g>
<!-- 11&#45;&gt;13 -->
<g id="edge13" class="edge">
<title>11&#45;&gt;13</title>
<path fill="none" stroke="black" d="M412.36,-83.85C420.81,-74.41 431.49,-62.5 441.14,-51.72"/>
<polygon fill="black" stroke="black" points="443.53,-54.3 447.59,-44.52 438.31,-49.63 443.53,-54.3"/>
</g>
</g>
</svg>
