<?xml version="1.0" encoding="UTF-8" standalone="no"?>
<!DOCTYPE svg PUBLIC "-//W3C//DTD SVG 1.1//EN"
 "http://www.w3.org/Graphics/SVG/1.1/DTD/svg11.dtd">
<!-- Generated by graphviz version 12.2.1 (0)
 -->
<!-- Title: G Pages: 1 -->
<svg width="464pt" height="485pt"
 viewBox="36.00 36.00 428.32 449.42" xmlns="http://www.w3.org/2000/svg" xmlns:xlink="http://www.w3.org/1999/xlink">
<g id="graph0" class="graph" transform="scale(1 1) rotate(0) translate(40 445.42)">
<title>G</title>
<polygon fill="white" stroke="none" points="-4,4 -4,-409.42 388.32,-409.42 388.32,4 -4,4"/>
<text text-anchor="middle" x="192.16" y="-388.82" font-family="Times New Roman,serif" font-size="14.00">(&#39;best_tree_3000pop_15gen_25runs_res200_7subrun&#39;, &#39;&#39;)</text>
<!-- 0 -->
<g id="node1" class="node">
<title>0</title>
<ellipse fill="white" stroke="black" cx="165.26" cy="-342.56" rx="63.57" ry="22.06"/>
<text text-anchor="middle" x="165.26" y="-338.36" font-family="Arial" font-size="14.00">if_then_else</text>
</g>
<!-- 1 -->
<g id="node2" class="node">
<title>1</title>
<ellipse fill="white" stroke="black" cx="73.26" cy="-262.43" rx="47.04" ry="22.06"/>
<text text-anchor="middle" x="73.26" y="-258.23" font-family="Arial" font-size="14.00">is_water</text>
</g>
<!-- 0&#45;&gt;1 -->
<g id="edge1" class="edge">
<title>0&#45;&gt;1</title>
<path fill="none" stroke="black" d="M142.05,-321.84C130.57,-312.09 116.56,-300.19 104.18,-289.69"/>
<polygon fill="black" stroke="black" points="106.56,-287.12 96.67,-283.31 102.03,-292.45 106.56,-287.12"/>
</g>
<!-- 2 -->
<g id="node3" class="node">
<title>2</title>
<ellipse fill="white" stroke="black" cx="165.26" cy="-262.43" rx="27" ry="22.06"/>
<text text-anchor="middle" x="165.26" y="-258.23" font-family="Arial" font-size="14.00">sub</text>
</g>
<!-- 0&#45;&gt;2 -->
<g id="edge2" class="edge">
<title>0&#45;&gt;2</title>
<path fill="none" stroke="black" d="M165.26,-320.21C165.26,-312.8 165.26,-304.32 165.26,-296.2"/>
<polygon fill="black" stroke="black" points="168.76,-296.27 165.26,-286.27 161.76,-296.27 168.76,-296.27"/>
</g>
<!-- 7 -->
<g id="node8" class="node">
<title>7</title>
<ellipse fill="white" stroke="black" cx="241.26" cy="-262.43" rx="27" ry="22.06"/>
<text text-anchor="middle" x="241.26" y="-258.23" font-family="Arial" font-size="14.00">neg</text>
</g>
<!-- 0&#45;&gt;7 -->
<g id="edge7" class="edge">
<title>0&#45;&gt;7</title>
<path fill="none" stroke="black" d="M184.84,-321.44C194.62,-311.38 206.56,-299.11 216.93,-288.44"/>
<polygon fill="black" stroke="black" points="219.32,-291.01 223.79,-281.4 214.31,-286.13 219.32,-291.01"/>
</g>
<!-- 3 -->
<g id="node4" class="node">
<title>3</title>
<ellipse fill="white" stroke="black" cx="60.26" cy="-182.31" rx="60.26" ry="22.06"/>
<text text-anchor="middle" x="60.26" y="-178.11" font-family="Arial" font-size="14.00">elevation_v</text>
</g>
<!-- 2&#45;&gt;3 -->
<g id="edge3" class="edge">
<title>2&#45;&gt;3</title>
<path fill="none" stroke="black" d="M145.51,-246.74C131.38,-236.22 111.97,-221.78 95.24,-209.33"/>
<polygon fill="black" stroke="black" points="97.6,-206.73 87.49,-203.57 93.42,-212.34 97.6,-206.73"/>
</g>
<!-- 4 -->
<g id="node5" class="node">
<title>4</title>
<ellipse fill="white" stroke="black" cx="165.26" cy="-182.31" rx="27" ry="22.06"/>
<text text-anchor="middle" x="165.26" y="-178.11" font-family="Arial" font-size="14.00">sub</text>
</g>
<!-- 2&#45;&gt;4 -->
<g id="edge4" class="edge">
<title>2&#45;&gt;4</title>
<path fill="none" stroke="black" d="M165.26,-240.08C165.26,-232.68 165.26,-224.19 165.26,-216.08"/>
<polygon fill="black" stroke="black" points="168.76,-216.14 165.26,-206.14 161.76,-216.14 168.76,-216.14"/>
</g>
<!-- 5 -->
<g id="node6" class="node">
<title>5</title>
<ellipse fill="white" stroke="black" cx="57.26" cy="-102.19" rx="55.31" ry="22.06"/>
<text text-anchor="middle" x="57.26" y="-97.99" font-family="Arial" font-size="14.00">steepness</text>
</g>
<!-- 4&#45;&gt;5 -->
<g id="edge5" class="edge">
<title>4&#45;&gt;5</title>
<path fill="none" stroke="black" d="M145.46,-166.98C130.52,-156.18 109.66,-141.09 91.97,-128.29"/>
<polygon fill="black" stroke="black" points="94.44,-125.76 84.29,-122.74 90.34,-131.43 94.44,-125.76"/>
</g>
<!-- 6 -->
<g id="node7" class="node">
<title>6</title>
<ellipse fill="white" stroke="black" cx="165.26" cy="-102.19" rx="34.96" ry="22.06"/>
<text text-anchor="middle" x="165.26" y="-97.99" font-family="Arial" font-size="14.00">0.565</text>
</g>
<!-- 4&#45;&gt;6 -->
<g id="edge6" class="edge">
<title>4&#45;&gt;6</title>
<path fill="none" stroke="black" d="M165.26,-159.96C165.26,-152.55 165.26,-144.07 165.26,-135.96"/>
<polygon fill="black" stroke="black" points="168.76,-136.02 165.26,-126.02 161.76,-136.02 168.76,-136.02"/>
</g>
<!-- 8 -->
<g id="node9" class="node">
<title>8</title>
<ellipse fill="white" stroke="black" cx="245.26" cy="-182.31" rx="27" ry="22.06"/>
<text text-anchor="middle" x="245.26" y="-178.11" font-family="Arial" font-size="14.00">sub</text>
</g>
<!-- 7&#45;&gt;8 -->
<g id="edge8" class="edge">
<title>7&#45;&gt;8</title>
<path fill="none" stroke="black" d="M242.36,-240.08C242.74,-232.68 243.17,-224.19 243.59,-216.08"/>
<polygon fill="black" stroke="black" points="247.08,-216.31 244.1,-206.14 240.09,-215.95 247.08,-216.31"/>
</g>
<!-- 9 -->
<g id="node10" class="node">
<title>9</title>
<ellipse fill="white" stroke="black" cx="245.26" cy="-102.19" rx="27" ry="22.06"/>
<text text-anchor="middle" x="245.26" y="-97.99" font-family="Arial" font-size="14.00">mul</text>
</g>
<!-- 8&#45;&gt;9 -->
<g id="edge9" class="edge">
<title>8&#45;&gt;9</title>
<path fill="none" stroke="black" d="M245.26,-159.96C245.26,-152.55 245.26,-144.07 245.26,-135.96"/>
<polygon fill="black" stroke="black" points="248.76,-136.02 245.26,-126.02 241.76,-136.02 248.76,-136.02"/>
</g>
<!-- 12 -->
<g id="node13" class="node">
<title>12</title>
<ellipse fill="white" stroke="black" cx="337.26" cy="-102.19" rx="47.05" ry="22.06"/>
<text text-anchor="middle" x="337.26" y="-97.99" font-family="Arial" font-size="14.00">distance</text>
</g>
<!-- 8&#45;&gt;12 -->
<g id="edge12" class="edge">
<title>8&#45;&gt;12</title>
<path fill="none" stroke="black" d="M263.44,-165.87C275.76,-155.42 292.34,-141.34 306.66,-129.17"/>
<polygon fill="black" stroke="black" points="308.72,-132.02 314.08,-122.87 304.19,-126.68 308.72,-132.02"/>
</g>
<!-- 10 -->
<g id="node11" class="node">
<title>10</title>
<ellipse fill="white" stroke="black" cx="175.26" cy="-22.06" rx="60.82" ry="22.06"/>
<text text-anchor="middle" x="175.26" y="-17.86" font-family="Arial" font-size="14.00">elevation_u</text>
</g>
<!-- 9&#45;&gt;10 -->
<g id="edge10" class="edge">
<title>9&#45;&gt;10</title>
<path fill="none" stroke="black" d="M229.73,-83.85C221.28,-74.41 210.6,-62.5 200.94,-51.72"/>
<polygon fill="black" stroke="black" points="203.77,-49.63 194.49,-44.52 198.56,-54.3 203.77,-49.63"/>
</g>
<!-- 11 -->
<g id="node12" class="node">
<title>11</title>
<ellipse fill="white" stroke="black" cx="314.26" cy="-22.06" rx="60.26" ry="22.06"/>
<text text-anchor="middle" x="314.26" y="-17.86" font-family="Arial" font-size="14.00">elevation_v</text>
</g>
<!-- 9&#45;&gt;11 -->
<g id="edge11" class="edge">
<title>9&#45;&gt;11</title>
<path fill="none" stroke="black" d="M260.58,-83.85C268.91,-74.41 279.43,-62.5 288.95,-51.72"/>
<polygon fill="black" stroke="black" points="291.31,-54.34 295.31,-44.53 286.06,-49.71 291.31,-54.34"/>
</g>
</g>
</svg>
