<?xml version="1.0" encoding="UTF-8" standalone="no"?>
<!DOCTYPE svg PUBLIC "-//W3C//DTD SVG 1.1//EN"
 "http://www.w3.org/Graphics/SVG/1.1/DTD/svg11.dtd">
<!-- Generated by graphviz version 12.2.1 (0)
 -->
<!-- Title: G Pages: 1 -->
<svg width="751pt" height="485pt"
 viewBox="36.00 36.00 714.57 449.42" xmlns="http://www.w3.org/2000/svg" xmlns:xlink="http://www.w3.org/1999/xlink">
<g id="graph0" class="graph" transform="scale(1 1) rotate(0) translate(40 445.42)">
<title>G</title>
<polygon fill="white" stroke="none" points="-4,4 -4,-409.42 674.57,-409.42 674.57,4 -4,4"/>
<text text-anchor="middle" x="335.29" y="-388.82" font-family="Times New Roman,serif" font-size="14.00">(&#39;best_tree_3000pop_15gen_25runs_res200_1subrun&#39;, &#39;&#39;)</text>
<!-- 0 -->
<g id="node1" class="node">
<title>0</title>
<ellipse fill="white" stroke="black" cx="187.26" cy="-342.56" rx="63.57" ry="22.06"/>
<text text-anchor="middle" x="187.26" y="-338.36" font-family="Arial" font-size="14.00">if_then_else</text>
</g>
<!-- 1 -->
<g id="node2" class="node">
<title>1</title>
<ellipse fill="white" stroke="black" cx="71.26" cy="-262.43" rx="71.26" ry="22.06"/>
<text text-anchor="middle" x="71.26" y="-258.23" font-family="Arial" font-size="14.00">identity_water</text>
</g>
<!-- 0&#45;&gt;1 -->
<g id="edge1" class="edge">
<title>0&#45;&gt;1</title>
<path fill="none" stroke="black" d="M158.88,-322.44C143.97,-312.4 125.48,-299.95 109.34,-289.08"/>
<polygon fill="black" stroke="black" points="111.66,-286.42 101.41,-283.73 107.75,-292.22 111.66,-286.42"/>
</g>
<!-- 3 -->
<g id="node4" class="node">
<title>3</title>
<ellipse fill="white" stroke="black" cx="187.26" cy="-262.43" rx="27" ry="22.06"/>
<text text-anchor="middle" x="187.26" y="-258.23" font-family="Arial" font-size="14.00">neg</text>
</g>
<!-- 0&#45;&gt;3 -->
<g id="edge3" class="edge">
<title>0&#45;&gt;3</title>
<path fill="none" stroke="black" d="M187.26,-320.21C187.26,-312.8 187.26,-304.32 187.26,-296.2"/>
<polygon fill="black" stroke="black" points="190.76,-296.27 187.26,-286.27 183.76,-296.27 190.76,-296.27"/>
</g>
<!-- 8 -->
<g id="node9" class="node">
<title>8</title>
<ellipse fill="white" stroke="black" cx="320.26" cy="-262.43" rx="27" ry="22.06"/>
<text text-anchor="middle" x="320.26" y="-258.23" font-family="Arial" font-size="14.00">add</text>
</g>
<!-- 0&#45;&gt;8 -->
<g id="edge8" class="edge">
<title>0&#45;&gt;8</title>
<path fill="none" stroke="black" d="M218.78,-323.04C239.91,-310.63 267.61,-294.36 288.74,-281.95"/>
<polygon fill="black" stroke="black" points="290.37,-285.05 297.22,-276.97 286.82,-279.02 290.37,-285.05"/>
</g>
<!-- 2 -->
<g id="node3" class="node">
<title>2</title>
<ellipse fill="white" stroke="black" cx="71.26" cy="-182.31" rx="47.04" ry="22.06"/>
<text text-anchor="middle" x="71.26" y="-178.11" font-family="Arial" font-size="14.00">is_water</text>
</g>
<!-- 1&#45;&gt;2 -->
<g id="edge2" class="edge">
<title>1&#45;&gt;2</title>
<path fill="none" stroke="black" d="M71.26,-240.08C71.26,-232.68 71.26,-224.19 71.26,-216.08"/>
<polygon fill="black" stroke="black" points="74.76,-216.14 71.26,-206.14 67.76,-216.14 74.76,-216.14"/>
</g>
<!-- 4 -->
<g id="node5" class="node">
<title>4</title>
<ellipse fill="white" stroke="black" cx="175.26" cy="-182.31" rx="27" ry="22.06"/>
<text text-anchor="middle" x="175.26" y="-178.11" font-family="Arial" font-size="14.00">mul</text>
</g>
<!-- 3&#45;&gt;4 -->
<g id="edge4" class="edge">
<title>3&#45;&gt;4</title>
<path fill="none" stroke="black" d="M183.98,-240.08C182.83,-232.59 181.51,-224 180.25,-215.8"/>
<polygon fill="black" stroke="black" points="183.74,-215.48 178.77,-206.13 176.83,-216.54 183.74,-215.48"/>
</g>
<!-- 5 -->
<g id="node6" class="node">
<title>5</title>
<ellipse fill="white" stroke="black" cx="70.26" cy="-102.19" rx="60.26" ry="22.06"/>
<text text-anchor="middle" x="70.26" y="-97.99" font-family="Arial" font-size="14.00">elevation_v</text>
</g>
<!-- 4&#45;&gt;5 -->
<g id="edge5" class="edge">
<title>4&#45;&gt;5</title>
<path fill="none" stroke="black" d="M155.51,-166.61C141.38,-156.1 121.97,-141.66 105.24,-129.21"/>
<polygon fill="black" stroke="black" points="107.6,-126.6 97.49,-123.44 103.42,-132.22 107.6,-126.6"/>
</g>
<!-- 6 -->
<g id="node7" class="node">
<title>6</title>
<ellipse fill="white" stroke="black" cx="175.26" cy="-102.19" rx="27" ry="22.06"/>
<text text-anchor="middle" x="175.26" y="-97.99" font-family="Arial" font-size="14.00">neg</text>
</g>
<!-- 4&#45;&gt;6 -->
<g id="edge6" class="edge">
<title>4&#45;&gt;6</title>
<path fill="none" stroke="black" d="M175.26,-159.96C175.26,-152.55 175.26,-144.07 175.26,-135.96"/>
<polygon fill="black" stroke="black" points="178.76,-136.02 175.26,-126.02 171.76,-136.02 178.76,-136.02"/>
</g>
<!-- 7 -->
<g id="node8" class="node">
<title>7</title>
<ellipse fill="white" stroke="black" cx="175.26" cy="-22.06" rx="60.26" ry="22.06"/>
<text text-anchor="middle" x="175.26" y="-17.86" font-family="Arial" font-size="14.00">elevation_v</text>
</g>
<!-- 6&#45;&gt;7 -->
<g id="edge7" class="edge">
<title>6&#45;&gt;7</title>
<path fill="none" stroke="black" d="M175.26,-79.84C175.26,-72.43 175.26,-63.95 175.26,-55.83"/>
<polygon fill="black" stroke="black" points="178.76,-55.9 175.26,-45.9 171.76,-55.9 178.76,-55.9"/>
</g>
<!-- 9 -->
<g id="node10" class="node">
<title>9</title>
<ellipse fill="white" stroke="black" cx="320.26" cy="-182.31" rx="27" ry="22.06"/>
<text text-anchor="middle" x="320.26" y="-178.11" font-family="Arial" font-size="14.00">add</text>
</g>
<!-- 8&#45;&gt;9 -->
<g id="edge9" class="edge">
<title>8&#45;&gt;9</title>
<path fill="none" stroke="black" d="M320.26,-240.08C320.26,-232.68 320.26,-224.19 320.26,-216.08"/>
<polygon fill="black" stroke="black" points="323.76,-216.14 320.26,-206.14 316.76,-216.14 323.76,-216.14"/>
</g>
<!-- 12 -->
<g id="node13" class="node">
<title>12</title>
<ellipse fill="white" stroke="black" cx="495.26" cy="-182.31" rx="27" ry="22.06"/>
<text text-anchor="middle" x="495.26" y="-178.11" font-family="Arial" font-size="14.00">mul</text>
</g>
<!-- 8&#45;&gt;12 -->
<g id="edge12" class="edge">
<title>8&#45;&gt;12</title>
<path fill="none" stroke="black" d="M343.86,-250.9C374.22,-237.35 427.13,-213.73 461.67,-198.3"/>
<polygon fill="black" stroke="black" points="462.67,-201.69 470.37,-194.42 459.82,-195.3 462.67,-201.69"/>
</g>
<!-- 10 -->
<g id="node11" class="node">
<title>10</title>
<ellipse fill="white" stroke="black" cx="255.26" cy="-102.19" rx="34.96" ry="22.06"/>
<text text-anchor="middle" x="255.26" y="-97.99" font-family="Arial" font-size="14.00">4.651</text>
</g>
<!-- 9&#45;&gt;10 -->
<g id="edge10" class="edge">
<title>9&#45;&gt;10</title>
<path fill="none" stroke="black" d="M305.51,-163.58C297.49,-153.94 287.4,-141.81 278.36,-130.95"/>
<polygon fill="black" stroke="black" points="281.14,-128.82 272.06,-123.37 275.76,-133.3 281.14,-128.82"/>
</g>
<!-- 11 -->
<g id="node12" class="node">
<title>11</title>
<ellipse fill="white" stroke="black" cx="369.26" cy="-102.19" rx="60.82" ry="22.06"/>
<text text-anchor="middle" x="369.26" y="-97.99" font-family="Arial" font-size="14.00">elevation_u</text>
</g>
<!-- 9&#45;&gt;11 -->
<g id="edge11" class="edge">
<title>9&#45;&gt;11</title>
<path fill="none" stroke="black" d="M332.12,-162.4C337.5,-153.82 344.01,-143.45 350.06,-133.81"/>
<polygon fill="black" stroke="black" points="352.98,-135.73 355.33,-125.4 347.05,-132.01 352.98,-135.73"/>
</g>
<!-- 13 -->
<g id="node14" class="node">
<title>13</title>
<ellipse fill="white" stroke="black" cx="495.26" cy="-102.19" rx="47.05" ry="22.06"/>
<text text-anchor="middle" x="495.26" y="-97.99" font-family="Arial" font-size="14.00">distance</text>
</g>
<!-- 12&#45;&gt;13 -->
<g id="edge13" class="edge">
<title>12&#45;&gt;13</title>
<path fill="none" stroke="black" d="M495.26,-159.96C495.26,-152.55 495.26,-144.07 495.26,-135.96"/>
<polygon fill="black" stroke="black" points="498.76,-136.02 495.26,-126.02 491.76,-136.02 498.76,-136.02"/>
</g>
<!-- 14 -->
<g id="node15" class="node">
<title>14</title>
<ellipse fill="white" stroke="black" cx="615.26" cy="-102.19" rx="55.31" ry="22.06"/>
<text text-anchor="middle" x="615.26" y="-97.99" font-family="Arial" font-size="14.00">steepness</text>
</g>
<!-- 12&#45;&gt;14 -->
<g id="edge14" class="edge">
<title>12&#45;&gt;14</title>
<path fill="none" stroke="black" d="M516.16,-167.7C533.01,-156.73 557.15,-141.02 577.39,-127.84"/>
<polygon fill="black" stroke="black" points="579.22,-130.83 585.69,-122.44 575.4,-124.96 579.22,-130.83"/>
</g>
</g>
</svg>
