<?xml version="1.0" encoding="UTF-8" standalone="no"?>
<!DOCTYPE svg PUBLIC "-//W3C//DTD SVG 1.1//EN"
 "http://www.w3.org/Graphics/SVG/1.1/DTD/svg11.dtd">
<!-- Generated by graphviz version 12.2.1 (0)
 -->
<!-- Title: G Pages: 1 -->
<svg width="788pt" height="566pt"
 viewBox="36.00 36.00 752.35 529.54" xmlns="http://www.w3.org/2000/svg" xmlns:xlink="http://www.w3.org/1999/xlink">
<g id="graph0" class="graph" transform="scale(1 1) rotate(0) translate(40 525.54)">
<title>G</title>
<polygon fill="white" stroke="none" points="-4,4 -4,-489.54 712.35,-489.54 712.35,4 -4,4"/>
<text text-anchor="middle" x="354.18" y="-468.94" font-family="Times New Roman,serif" font-size="14.00">(&#39;best_tree_3000pop_15gen_25runs_res200_23subrun&#39;, &#39;&#39;)</text>
<!-- 0 -->
<g id="node1" class="node">
<title>0</title>
<ellipse fill="white" stroke="black" cx="242.04" cy="-422.68" rx="63.57" ry="22.06"/>
<text text-anchor="middle" x="242.04" y="-418.48" font-family="Arial" font-size="14.00">if_then_else</text>
</g>
<!-- 1 -->
<g id="node2" class="node">
<title>1</title>
<ellipse fill="white" stroke="black" cx="121.04" cy="-342.56" rx="71.26" ry="22.06"/>
<text text-anchor="middle" x="121.04" y="-338.36" font-family="Arial" font-size="14.00">identity_water</text>
</g>
<!-- 0&#45;&gt;1 -->
<g id="edge1" class="edge">
<title>0&#45;&gt;1</title>
<path fill="none" stroke="black" d="M212.75,-402.77C197.08,-392.65 177.57,-380.05 160.57,-369.08"/>
<polygon fill="black" stroke="black" points="162.48,-366.14 152.18,-363.66 158.68,-372.02 162.48,-366.14"/>
</g>
<!-- 3 -->
<g id="node4" class="node">
<title>3</title>
<ellipse fill="white" stroke="black" cx="242.04" cy="-342.56" rx="27" ry="22.06"/>
<text text-anchor="middle" x="242.04" y="-338.36" font-family="Arial" font-size="14.00">mul</text>
</g>
<!-- 0&#45;&gt;3 -->
<g id="edge3" class="edge">
<title>0&#45;&gt;3</title>
<path fill="none" stroke="black" d="M242.04,-400.33C242.04,-392.93 242.04,-384.44 242.04,-376.33"/>
<polygon fill="black" stroke="black" points="245.54,-376.39 242.04,-366.39 238.54,-376.39 245.54,-376.39"/>
</g>
<!-- 6 -->
<g id="node7" class="node">
<title>6</title>
<ellipse fill="white" stroke="black" cx="451.04" cy="-342.56" rx="27" ry="22.06"/>
<text text-anchor="middle" x="451.04" y="-338.36" font-family="Arial" font-size="14.00">sub</text>
</g>
<!-- 0&#45;&gt;6 -->
<g id="edge6" class="edge">
<title>0&#45;&gt;6</title>
<path fill="none" stroke="black" d="M284.34,-405.87C323.15,-391.36 379.95,-370.13 416.2,-356.58"/>
<polygon fill="black" stroke="black" points="417.19,-359.95 425.34,-353.17 414.74,-353.39 417.19,-359.95"/>
</g>
<!-- 2 -->
<g id="node3" class="node">
<title>2</title>
<ellipse fill="white" stroke="black" cx="47.04" cy="-262.43" rx="47.04" ry="22.06"/>
<text text-anchor="middle" x="47.04" y="-258.23" font-family="Arial" font-size="14.00">is_water</text>
</g>
<!-- 1&#45;&gt;2 -->
<g id="edge2" class="edge">
<title>1&#45;&gt;2</title>
<path fill="none" stroke="black" d="M101.6,-321.03C92.99,-311.94 82.73,-301.1 73.44,-291.3"/>
<polygon fill="black" stroke="black" points="76.05,-288.97 66.63,-284.11 70.97,-293.78 76.05,-288.97"/>
</g>
<!-- 4 -->
<g id="node5" class="node">
<title>4</title>
<ellipse fill="white" stroke="black" cx="173.04" cy="-262.43" rx="60.82" ry="22.06"/>
<text text-anchor="middle" x="173.04" y="-258.23" font-family="Arial" font-size="14.00">elevation_u</text>
</g>
<!-- 3&#45;&gt;4 -->
<g id="edge4" class="edge">
<title>3&#45;&gt;4</title>
<path fill="none" stroke="black" d="M226.73,-324.22C218.4,-314.78 207.87,-302.87 198.36,-292.09"/>
<polygon fill="black" stroke="black" points="201.25,-290.08 192,-284.9 196,-294.71 201.25,-290.08"/>
</g>
<!-- 5 -->
<g id="node6" class="node">
<title>5</title>
<ellipse fill="white" stroke="black" cx="312.04" cy="-262.43" rx="60.26" ry="22.06"/>
<text text-anchor="middle" x="312.04" y="-258.23" font-family="Arial" font-size="14.00">elevation_v</text>
</g>
<!-- 3&#45;&gt;5 -->
<g id="edge5" class="edge">
<title>3&#45;&gt;5</title>
<path fill="none" stroke="black" d="M257.58,-324.22C266.03,-314.78 276.71,-302.87 286.36,-292.09"/>
<polygon fill="black" stroke="black" points="288.75,-294.67 292.82,-284.89 283.54,-290 288.75,-294.67"/>
</g>
<!-- 7 -->
<g id="node8" class="node">
<title>7</title>
<ellipse fill="white" stroke="black" cx="451.04" cy="-262.43" rx="60.82" ry="22.06"/>
<text text-anchor="middle" x="451.04" y="-258.23" font-family="Arial" font-size="14.00">elevation_u</text>
</g>
<!-- 6&#45;&gt;7 -->
<g id="edge7" class="edge">
<title>6&#45;&gt;7</title>
<path fill="none" stroke="black" d="M451.04,-320.21C451.04,-312.8 451.04,-304.32 451.04,-296.2"/>
<polygon fill="black" stroke="black" points="454.54,-296.27 451.04,-286.27 447.54,-296.27 454.54,-296.27"/>
</g>
<!-- 8 -->
<g id="node9" class="node">
<title>8</title>
<ellipse fill="white" stroke="black" cx="557.04" cy="-262.43" rx="27" ry="22.06"/>
<text text-anchor="middle" x="557.04" y="-258.23" font-family="Arial" font-size="14.00">mul</text>
</g>
<!-- 6&#45;&gt;8 -->
<g id="edge8" class="edge">
<title>6&#45;&gt;8</title>
<path fill="none" stroke="black" d="M470.49,-327.23C486.67,-315.3 509.95,-298.14 528.29,-284.62"/>
<polygon fill="black" stroke="black" points="530.17,-287.58 536.15,-278.83 526.02,-281.95 530.17,-287.58"/>
</g>
<!-- 9 -->
<g id="node10" class="node">
<title>9</title>
<ellipse fill="white" stroke="black" cx="511.04" cy="-182.31" rx="47.05" ry="22.06"/>
<text text-anchor="middle" x="511.04" y="-178.11" font-family="Arial" font-size="14.00">distance</text>
</g>
<!-- 8&#45;&gt;9 -->
<g id="edge9" class="edge">
<title>8&#45;&gt;9</title>
<path fill="none" stroke="black" d="M545.67,-242.12C540.67,-233.63 534.67,-223.44 529.09,-213.95"/>
<polygon fill="black" stroke="black" points="532.11,-212.18 524.02,-205.34 526.08,-215.74 532.11,-212.18"/>
</g>
<!-- 10 -->
<g id="node11" class="node">
<title>10</title>
<ellipse fill="white" stroke="black" cx="603.04" cy="-182.31" rx="27" ry="22.06"/>
<text text-anchor="middle" x="603.04" y="-178.11" font-family="Arial" font-size="14.00">mul</text>
</g>
<!-- 8&#45;&gt;10 -->
<g id="edge10" class="edge">
<title>8&#45;&gt;10</title>
<path fill="none" stroke="black" d="M568.42,-242.12C573.67,-233.2 580.02,-222.41 585.84,-212.53"/>
<polygon fill="black" stroke="black" points="588.82,-214.37 590.88,-203.97 582.79,-210.81 588.82,-214.37"/>
</g>
<!-- 11 -->
<g id="node12" class="node">
<title>11</title>
<ellipse fill="white" stroke="black" cx="553.04" cy="-102.19" rx="27" ry="22.06"/>
<text text-anchor="middle" x="553.04" y="-97.99" font-family="Arial" font-size="14.00">mul</text>
</g>
<!-- 10&#45;&gt;11 -->
<g id="edge11" class="edge">
<title>10&#45;&gt;11</title>
<path fill="none" stroke="black" d="M590.94,-162.4C585.03,-153.16 577.79,-141.85 571.23,-131.59"/>
<polygon fill="black" stroke="black" points="574.36,-130 566.03,-123.47 568.47,-133.78 574.36,-130"/>
</g>
<!-- 14 -->
<g id="node15" class="node">
<title>14</title>
<ellipse fill="white" stroke="black" cx="653.04" cy="-102.19" rx="55.31" ry="22.06"/>
<text text-anchor="middle" x="653.04" y="-97.99" font-family="Arial" font-size="14.00">steepness</text>
</g>
<!-- 10&#45;&gt;14 -->
<g id="edge14" class="edge">
<title>10&#45;&gt;14</title>
<path fill="none" stroke="black" d="M615.15,-162.4C620.74,-153.66 627.52,-143.07 633.79,-133.27"/>
<polygon fill="black" stroke="black" points="636.57,-135.43 639.01,-125.12 630.67,-131.65 636.57,-135.43"/>
</g>
<!-- 12 -->
<g id="node13" class="node">
<title>12</title>
<ellipse fill="white" stroke="black" cx="484.04" cy="-22.06" rx="60.26" ry="22.06"/>
<text text-anchor="middle" x="484.04" y="-17.86" font-family="Arial" font-size="14.00">elevation_v</text>
</g>
<!-- 11&#45;&gt;12 -->
<g id="edge12" class="edge">
<title>11&#45;&gt;12</title>
<path fill="none" stroke="black" d="M537.73,-83.85C529.4,-74.41 518.87,-62.5 509.36,-51.72"/>
<polygon fill="black" stroke="black" points="512.25,-49.71 503,-44.53 507,-54.34 512.25,-49.71"/>
</g>
<!-- 13 -->
<g id="node14" class="node">
<title>13</title>
<ellipse fill="white" stroke="black" cx="623.04" cy="-22.06" rx="60.26" ry="22.06"/>
<text text-anchor="middle" x="623.04" y="-17.86" font-family="Arial" font-size="14.00">elevation_v</text>
</g>
<!-- 11&#45;&gt;13 -->
<g id="edge13" class="edge">
<title>11&#45;&gt;13</title>
<path fill="none" stroke="black" d="M568.58,-83.85C577.03,-74.41 587.71,-62.5 597.36,-51.72"/>
<polygon fill="black" stroke="black" points="599.75,-54.3 603.82,-44.52 594.54,-49.63 599.75,-54.3"/>
</g>
</g>
</svg>
