<?xml version="1.0" encoding="UTF-8" standalone="no"?>
<!DOCTYPE svg PUBLIC "-//W3C//DTD SVG 1.1//EN"
 "http://www.w3.org/Graphics/SVG/1.1/DTD/svg11.dtd">
<!-- Generated by graphviz version 12.2.1 (0)
 -->
<!-- Title: G Pages: 1 -->
<svg width="787pt" height="566pt"
 viewBox="36.00 36.00 751.35 529.54" xmlns="http://www.w3.org/2000/svg" xmlns:xlink="http://www.w3.org/1999/xlink">
<g id="graph0" class="graph" transform="scale(1 1) rotate(0) translate(40 525.54)">
<title>G</title>
<polygon fill="white" stroke="none" points="-4,4 -4,-489.54 711.35,-489.54 711.35,4 -4,4"/>
<text text-anchor="middle" x="353.68" y="-468.94" font-family="Times New Roman,serif" font-size="14.00">(&#39;best_3tree_3000pop_15gen_25runs_res200_25subrun&#39;, &#39;&#39;)</text>
<!-- 0 -->
<g id="node1" class="node">
<title>0</title>
<ellipse fill="white" stroke="black" cx="242.04" cy="-422.68" rx="63.57" ry="22.06"/>
<text text-anchor="middle" x="242.04" y="-418.48" font-family="Arial" font-size="14.00">if_then_else</text>
</g>
<!-- 1 -->
<g id="node2" class="node">
<title>1</title>
<ellipse fill="white" stroke="black" cx="121.04" cy="-342.56" rx="71.26" ry="22.06"/>
<text text-anchor="middle" x="121.04" y="-338.36" font-family="Arial" font-size="14.00">identity_water</text>
</g>
<!-- 0&#45;&gt;1 -->
<g id="edge1" class="edge">
<title>0&#45;&gt;1</title>
<path fill="none" stroke="black" d="M212.75,-402.77C197.08,-392.65 177.57,-380.05 160.57,-369.08"/>
<polygon fill="black" stroke="black" points="162.48,-366.14 152.18,-363.66 158.68,-372.02 162.48,-366.14"/>
</g>
<!-- 3 -->
<g id="node4" class="node">
<title>3</title>
<ellipse fill="white" stroke="black" cx="242.04" cy="-342.56" rx="27" ry="22.06"/>
<text text-anchor="middle" x="242.04" y="-338.36" font-family="Arial" font-size="14.00">mul</text>
</g>
<!-- 0&#45;&gt;3 -->
<g id="edge3" class="edge">
<title>0&#45;&gt;3</title>
<path fill="none" stroke="black" d="M242.04,-400.33C242.04,-392.93 242.04,-384.44 242.04,-376.33"/>
<polygon fill="black" stroke="black" points="245.54,-376.39 242.04,-366.39 238.54,-376.39 245.54,-376.39"/>
</g>
<!-- 6 -->
<g id="node7" class="node">
<title>6</title>
<ellipse fill="white" stroke="black" cx="451.04" cy="-342.56" rx="27" ry="22.06"/>
<text text-anchor="middle" x="451.04" y="-338.36" font-family="Arial" font-size="14.00">sub</text>
</g>
<!-- 0&#45;&gt;6 -->
<g id="edge6" class="edge">
<title>0&#45;&gt;6</title>
<path fill="none" stroke="black" d="M284.34,-405.87C323.15,-391.36 379.95,-370.13 416.2,-356.58"/>
<polygon fill="black" stroke="black" points="417.19,-359.95 425.34,-353.17 414.74,-353.39 417.19,-359.95"/>
</g>
<!-- 2 -->
<g id="node3" class="node">
<title>2</title>
<ellipse fill="white" stroke="black" cx="47.04" cy="-262.43" rx="47.04" ry="22.06"/>
<text text-anchor="middle" x="47.04" y="-258.23" font-family="Arial" font-size="14.00">is_water</text>
</g>
<!-- 1&#45;&gt;2 -->
<g id="edge2" class="edge">
<title>1&#45;&gt;2</title>
<path fill="none" stroke="black" d="M101.6,-321.03C92.99,-311.94 82.73,-301.1 73.44,-291.3"/>
<polygon fill="black" stroke="black" points="76.05,-288.97 66.63,-284.11 70.97,-293.78 76.05,-288.97"/>
</g>
<!-- 4 -->
<g id="node5" class="node">
<title>4</title>
<ellipse fill="white" stroke="black" cx="173.04" cy="-262.43" rx="60.82" ry="22.06"/>
<text text-anchor="middle" x="173.04" y="-258.23" font-family="Arial" font-size="14.00">elevation_u</text>
</g>
<!-- 3&#45;&gt;4 -->
<g id="edge4" class="edge">
<title>3&#45;&gt;4</title>
<path fill="none" stroke="black" d="M226.73,-324.22C218.4,-314.78 207.87,-302.87 198.36,-292.09"/>
<polygon fill="black" stroke="black" points="201.25,-290.08 192,-284.9 196,-294.71 201.25,-290.08"/>
</g>
<!-- 5 -->
<g id="node6" class="node">
<title>5</title>
<ellipse fill="white" stroke="black" cx="312.04" cy="-262.43" rx="60.26" ry="22.06"/>
<text text-anchor="middle" x="312.04" y="-258.23" font-family="Arial" font-size="14.00">elevation_v</text>
</g>
<!-- 3&#45;&gt;5 -->
<g id="edge5" class="edge">
<title>3&#45;&gt;5</title>
<path fill="none" stroke="black" d="M257.58,-324.22C266.03,-314.78 276.71,-302.87 286.36,-292.09"/>
<polygon fill="black" stroke="black" points="288.75,-294.67 292.82,-284.89 283.54,-290 288.75,-294.67"/>
</g>
<!-- 7 -->
<g id="node8" class="node">
<title>7</title>
<ellipse fill="white" stroke="black" cx="451.04" cy="-262.43" rx="60.26" ry="22.06"/>
<text text-anchor="middle" x="451.04" y="-258.23" font-family="Arial" font-size="14.00">elevation_v</text>
</g>
<!-- 6&#45;&gt;7 -->
<g id="edge7" class="edge">
<title>6&#45;&gt;7</title>
<path fill="none" stroke="black" d="M451.04,-320.21C451.04,-312.8 451.04,-304.32 451.04,-296.2"/>
<polygon fill="black" stroke="black" points="454.54,-296.27 451.04,-286.27 447.54,-296.27 454.54,-296.27"/>
</g>
<!-- 8 -->
<g id="node9" class="node">
<title>8</title>
<ellipse fill="white" stroke="black" cx="556.04" cy="-262.43" rx="27" ry="22.06"/>
<text text-anchor="middle" x="556.04" y="-258.23" font-family="Arial" font-size="14.00">mul</text>
</g>
<!-- 6&#45;&gt;8 -->
<g id="edge8" class="edge">
<title>6&#45;&gt;8</title>
<path fill="none" stroke="black" d="M470.79,-326.86C486.78,-314.97 509.51,-298.05 527.48,-284.68"/>
<polygon fill="black" stroke="black" points="529.24,-287.74 535.17,-278.96 525.06,-282.13 529.24,-287.74"/>
</g>
<!-- 9 -->
<g id="node10" class="node">
<title>9</title>
<ellipse fill="white" stroke="black" cx="510.04" cy="-182.31" rx="47.05" ry="22.06"/>
<text text-anchor="middle" x="510.04" y="-178.11" font-family="Arial" font-size="14.00">distance</text>
</g>
<!-- 8&#45;&gt;9 -->
<g id="edge9" class="edge">
<title>8&#45;&gt;9</title>
<path fill="none" stroke="black" d="M544.67,-242.12C539.67,-233.63 533.67,-223.44 528.09,-213.95"/>
<polygon fill="black" stroke="black" points="531.11,-212.18 523.02,-205.34 525.08,-215.74 531.11,-212.18"/>
</g>
<!-- 10 -->
<g id="node11" class="node">
<title>10</title>
<ellipse fill="white" stroke="black" cx="602.04" cy="-182.31" rx="27" ry="22.06"/>
<text text-anchor="middle" x="602.04" y="-178.11" font-family="Arial" font-size="14.00">mul</text>
</g>
<!-- 8&#45;&gt;10 -->
<g id="edge10" class="edge">
<title>8&#45;&gt;10</title>
<path fill="none" stroke="black" d="M567.42,-242.12C572.67,-233.2 579.02,-222.41 584.84,-212.53"/>
<polygon fill="black" stroke="black" points="587.82,-214.37 589.88,-203.97 581.79,-210.81 587.82,-214.37"/>
</g>
<!-- 11 -->
<g id="node12" class="node">
<title>11</title>
<ellipse fill="white" stroke="black" cx="552.04" cy="-102.19" rx="27" ry="22.06"/>
<text text-anchor="middle" x="552.04" y="-97.99" font-family="Arial" font-size="14.00">mul</text>
</g>
<!-- 10&#45;&gt;11 -->
<g id="edge11" class="edge">
<title>10&#45;&gt;11</title>
<path fill="none" stroke="black" d="M589.94,-162.4C584.03,-153.16 576.79,-141.85 570.23,-131.59"/>
<polygon fill="black" stroke="black" points="573.36,-130 565.03,-123.47 567.47,-133.78 573.36,-130"/>
</g>
<!-- 14 -->
<g id="node15" class="node">
<title>14</title>
<ellipse fill="white" stroke="black" cx="652.04" cy="-102.19" rx="55.31" ry="22.06"/>
<text text-anchor="middle" x="652.04" y="-97.99" font-family="Arial" font-size="14.00">steepness</text>
</g>
<!-- 10&#45;&gt;14 -->
<g id="edge14" class="edge">
<title>10&#45;&gt;14</title>
<path fill="none" stroke="black" d="M614.15,-162.4C619.74,-153.66 626.52,-143.07 632.79,-133.27"/>
<polygon fill="black" stroke="black" points="635.57,-135.43 638.01,-125.12 629.67,-131.65 635.57,-135.43"/>
</g>
<!-- 12 -->
<g id="node13" class="node">
<title>12</title>
<ellipse fill="white" stroke="black" cx="483.04" cy="-22.06" rx="60.26" ry="22.06"/>
<text text-anchor="middle" x="483.04" y="-17.86" font-family="Arial" font-size="14.00">elevation_v</text>
</g>
<!-- 11&#45;&gt;12 -->
<g id="edge12" class="edge">
<title>11&#45;&gt;12</title>
<path fill="none" stroke="black" d="M536.73,-83.85C528.4,-74.41 517.87,-62.5 508.36,-51.72"/>
<polygon fill="black" stroke="black" points="511.25,-49.71 502,-44.53 506,-54.34 511.25,-49.71"/>
</g>
<!-- 13 -->
<g id="node14" class="node">
<title>13</title>
<ellipse fill="white" stroke="black" cx="622.04" cy="-22.06" rx="60.26" ry="22.06"/>
<text text-anchor="middle" x="622.04" y="-17.86" font-family="Arial" font-size="14.00">elevation_v</text>
</g>
<!-- 11&#45;&gt;13 -->
<g id="edge13" class="edge">
<title>11&#45;&gt;13</title>
<path fill="none" stroke="black" d="M567.58,-83.85C576.03,-74.41 586.71,-62.5 596.36,-51.72"/>
<polygon fill="black" stroke="black" points="598.75,-54.3 602.82,-44.52 593.54,-49.63 598.75,-54.3"/>
</g>
</g>
</svg>
