<?xml version="1.0" encoding="UTF-8" standalone="no"?>
<!DOCTYPE svg PUBLIC "-//W3C//DTD SVG 1.1//EN"
 "http://www.w3.org/Graphics/SVG/1.1/DTD/svg11.dtd">
<!-- Generated by graphviz version 12.2.1 (0)
 -->
<!-- Title: G Pages: 1 -->
<svg width="675pt" height="566pt"
 viewBox="36.00 36.00 639.13 529.54" xmlns="http://www.w3.org/2000/svg" xmlns:xlink="http://www.w3.org/1999/xlink">
<g id="graph0" class="graph" transform="scale(1 1) rotate(0) translate(40 525.54)">
<title>G</title>
<polygon fill="white" stroke="none" points="-4,4 -4,-489.54 599.13,-489.54 599.13,4 -4,4"/>
<text text-anchor="middle" x="297.57" y="-468.94" font-family="Times New Roman,serif" font-size="14.00">(&#39;best_4tree_3000pop_15gen_25runs_res200_25subrun&#39;, &#39;&#39;)</text>
<!-- 0 -->
<g id="node1" class="node">
<title>0</title>
<ellipse fill="white" stroke="black" cx="199.82" cy="-422.68" rx="63.57" ry="22.06"/>
<text text-anchor="middle" x="199.82" y="-418.48" font-family="Arial" font-size="14.00">if_then_else</text>
</g>
<!-- 1 -->
<g id="node2" class="node">
<title>1</title>
<ellipse fill="white" stroke="black" cx="107.82" cy="-342.56" rx="47.04" ry="22.06"/>
<text text-anchor="middle" x="107.82" y="-338.36" font-family="Arial" font-size="14.00">is_water</text>
</g>
<!-- 0&#45;&gt;1 -->
<g id="edge1" class="edge">
<title>0&#45;&gt;1</title>
<path fill="none" stroke="black" d="M176.61,-401.97C165.13,-392.22 151.11,-380.32 138.74,-369.81"/>
<polygon fill="black" stroke="black" points="141.12,-367.24 131.23,-363.43 136.59,-372.58 141.12,-367.24"/>
</g>
<!-- 2 -->
<g id="node3" class="node">
<title>2</title>
<ellipse fill="white" stroke="black" cx="199.82" cy="-342.56" rx="27" ry="22.06"/>
<text text-anchor="middle" x="199.82" y="-338.36" font-family="Arial" font-size="14.00">mul</text>
</g>
<!-- 0&#45;&gt;2 -->
<g id="edge2" class="edge">
<title>0&#45;&gt;2</title>
<path fill="none" stroke="black" d="M199.82,-400.33C199.82,-392.93 199.82,-384.44 199.82,-376.33"/>
<polygon fill="black" stroke="black" points="203.32,-376.39 199.82,-366.39 196.32,-376.39 203.32,-376.39"/>
</g>
<!-- 5 -->
<g id="node6" class="node">
<title>5</title>
<ellipse fill="white" stroke="black" cx="338.82" cy="-342.56" rx="27" ry="22.06"/>
<text text-anchor="middle" x="338.82" y="-338.36" font-family="Arial" font-size="14.00">sub</text>
</g>
<!-- 0&#45;&gt;5 -->
<g id="edge5" class="edge">
<title>0&#45;&gt;5</title>
<path fill="none" stroke="black" d="M232.41,-403.36C254.85,-390.75 284.53,-374.07 306.84,-361.53"/>
<polygon fill="black" stroke="black" points="308.51,-364.61 315.51,-356.66 305.08,-358.5 308.51,-364.61"/>
</g>
<!-- 3 -->
<g id="node4" class="node">
<title>3</title>
<ellipse fill="white" stroke="black" cx="60.82" cy="-262.43" rx="60.82" ry="22.06"/>
<text text-anchor="middle" x="60.82" y="-258.23" font-family="Arial" font-size="14.00">elevation_u</text>
</g>
<!-- 2&#45;&gt;3 -->
<g id="edge3" class="edge">
<title>2&#45;&gt;3</title>
<path fill="none" stroke="black" d="M178.17,-328.78C173.45,-326.02 168.48,-323.15 163.82,-320.49 144.04,-309.23 121.97,-296.96 103.35,-286.7"/>
<polygon fill="black" stroke="black" points="105.18,-283.71 94.73,-281.96 101.8,-289.84 105.18,-283.71"/>
</g>
<!-- 4 -->
<g id="node5" class="node">
<title>4</title>
<ellipse fill="white" stroke="black" cx="199.82" cy="-262.43" rx="60.26" ry="22.06"/>
<text text-anchor="middle" x="199.82" y="-258.23" font-family="Arial" font-size="14.00">elevation_v</text>
</g>
<!-- 2&#45;&gt;4 -->
<g id="edge4" class="edge">
<title>2&#45;&gt;4</title>
<path fill="none" stroke="black" d="M199.82,-320.21C199.82,-312.8 199.82,-304.32 199.82,-296.2"/>
<polygon fill="black" stroke="black" points="203.32,-296.27 199.82,-286.27 196.32,-296.27 203.32,-296.27"/>
</g>
<!-- 6 -->
<g id="node7" class="node">
<title>6</title>
<ellipse fill="white" stroke="black" cx="338.82" cy="-262.43" rx="60.26" ry="22.06"/>
<text text-anchor="middle" x="338.82" y="-258.23" font-family="Arial" font-size="14.00">elevation_v</text>
</g>
<!-- 5&#45;&gt;6 -->
<g id="edge6" class="edge">
<title>5&#45;&gt;6</title>
<path fill="none" stroke="black" d="M338.82,-320.21C338.82,-312.8 338.82,-304.32 338.82,-296.2"/>
<polygon fill="black" stroke="black" points="342.32,-296.27 338.82,-286.27 335.32,-296.27 342.32,-296.27"/>
</g>
<!-- 7 -->
<g id="node8" class="node">
<title>7</title>
<ellipse fill="white" stroke="black" cx="443.82" cy="-262.43" rx="27" ry="22.06"/>
<text text-anchor="middle" x="443.82" y="-258.23" font-family="Arial" font-size="14.00">mul</text>
</g>
<!-- 5&#45;&gt;7 -->
<g id="edge7" class="edge">
<title>5&#45;&gt;7</title>
<path fill="none" stroke="black" d="M358.57,-326.86C374.56,-314.97 397.29,-298.05 415.26,-284.68"/>
<polygon fill="black" stroke="black" points="417.01,-287.74 422.95,-278.96 412.83,-282.13 417.01,-287.74"/>
</g>
<!-- 8 -->
<g id="node9" class="node">
<title>8</title>
<ellipse fill="white" stroke="black" cx="397.82" cy="-182.31" rx="47.05" ry="22.06"/>
<text text-anchor="middle" x="397.82" y="-178.11" font-family="Arial" font-size="14.00">distance</text>
</g>
<!-- 7&#45;&gt;8 -->
<g id="edge8" class="edge">
<title>7&#45;&gt;8</title>
<path fill="none" stroke="black" d="M432.45,-242.12C427.45,-233.63 421.45,-223.44 415.86,-213.95"/>
<polygon fill="black" stroke="black" points="418.88,-212.18 410.79,-205.34 412.85,-215.74 418.88,-212.18"/>
</g>
<!-- 9 -->
<g id="node10" class="node">
<title>9</title>
<ellipse fill="white" stroke="black" cx="489.82" cy="-182.31" rx="27" ry="22.06"/>
<text text-anchor="middle" x="489.82" y="-178.11" font-family="Arial" font-size="14.00">mul</text>
</g>
<!-- 7&#45;&gt;9 -->
<g id="edge9" class="edge">
<title>7&#45;&gt;9</title>
<path fill="none" stroke="black" d="M455.19,-242.12C460.44,-233.2 466.79,-222.41 472.62,-212.53"/>
<polygon fill="black" stroke="black" points="475.6,-214.37 477.65,-203.97 469.56,-210.81 475.6,-214.37"/>
</g>
<!-- 10 -->
<g id="node11" class="node">
<title>10</title>
<ellipse fill="white" stroke="black" cx="439.82" cy="-102.19" rx="27" ry="22.06"/>
<text text-anchor="middle" x="439.82" y="-97.99" font-family="Arial" font-size="14.00">mul</text>
</g>
<!-- 9&#45;&gt;10 -->
<g id="edge10" class="edge">
<title>9&#45;&gt;10</title>
<path fill="none" stroke="black" d="M477.72,-162.4C471.8,-153.16 464.56,-141.85 458,-131.59"/>
<polygon fill="black" stroke="black" points="461.14,-130 452.8,-123.47 455.24,-133.78 461.14,-130"/>
</g>
<!-- 13 -->
<g id="node14" class="node">
<title>13</title>
<ellipse fill="white" stroke="black" cx="539.82" cy="-102.19" rx="55.31" ry="22.06"/>
<text text-anchor="middle" x="539.82" y="-97.99" font-family="Arial" font-size="14.00">steepness</text>
</g>
<!-- 9&#45;&gt;13 -->
<g id="edge13" class="edge">
<title>9&#45;&gt;13</title>
<path fill="none" stroke="black" d="M501.92,-162.4C507.52,-153.66 514.29,-143.07 520.56,-133.27"/>
<polygon fill="black" stroke="black" points="523.34,-135.43 525.78,-125.12 517.45,-131.65 523.34,-135.43"/>
</g>
<!-- 11 -->
<g id="node12" class="node">
<title>11</title>
<ellipse fill="white" stroke="black" cx="370.82" cy="-22.06" rx="60.26" ry="22.06"/>
<text text-anchor="middle" x="370.82" y="-17.86" font-family="Arial" font-size="14.00">elevation_v</text>
</g>
<!-- 10&#45;&gt;11 -->
<g id="edge11" class="edge">
<title>10&#45;&gt;11</title>
<path fill="none" stroke="black" d="M424.51,-83.85C416.17,-74.41 405.65,-62.5 396.13,-51.72"/>
<polygon fill="black" stroke="black" points="399.02,-49.71 389.78,-44.53 393.78,-54.34 399.02,-49.71"/>
</g>
<!-- 12 -->
<g id="node13" class="node">
<title>12</title>
<ellipse fill="white" stroke="black" cx="509.82" cy="-22.06" rx="60.26" ry="22.06"/>
<text text-anchor="middle" x="509.82" y="-17.86" font-family="Arial" font-size="14.00">elevation_v</text>
</g>
<!-- 10&#45;&gt;12 -->
<g id="edge12" class="edge">
<title>10&#45;&gt;12</title>
<path fill="none" stroke="black" d="M455.36,-83.85C463.81,-74.41 474.49,-62.5 484.14,-51.72"/>
<polygon fill="black" stroke="black" points="486.53,-54.3 490.59,-44.52 481.31,-49.63 486.53,-54.3"/>
</g>
</g>
</svg>
