<?xml version="1.0" encoding="UTF-8" standalone="no"?>
<!DOCTYPE svg PUBLIC "-//W3C//DTD SVG 1.1//EN"
 "http://www.w3.org/Graphics/SVG/1.1/DTD/svg11.dtd">
<!-- Generated by graphviz version 12.2.1 (0)
 -->
<!-- Title: G Pages: 1 -->
<svg width="783pt" height="405pt"
 viewBox="36.00 36.00 747.00 369.29" xmlns="http://www.w3.org/2000/svg" xmlns:xlink="http://www.w3.org/1999/xlink">
<g id="graph0" class="graph" transform="scale(1 1) rotate(0) translate(40 365.29)">
<title>G</title>
<polygon fill="white" stroke="none" points="-4,4 -4,-329.29 707,-329.29 707,4 -4,4"/>
<text text-anchor="middle" x="351.5" y="-308.69" font-family="Times New Roman,serif" font-size="14.00">(&#39;best_3tree_2500pop_15gen_25runs_res200_25subrun&#39;, &#39;&#39;)</text>
<!-- 0 -->
<g id="node1" class="node">
<title>0</title>
<ellipse fill="white" stroke="black" cx="311.04" cy="-262.43" rx="27" ry="22.06"/>
<text text-anchor="middle" x="311.04" y="-258.23" font-family="Arial" font-size="14.00">sub</text>
</g>
<!-- 1 -->
<g id="node2" class="node">
<title>1</title>
<ellipse fill="white" stroke="black" cx="243.04" cy="-182.31" rx="63.57" ry="22.06"/>
<text text-anchor="middle" x="243.04" y="-178.11" font-family="Arial" font-size="14.00">if_then_else</text>
</g>
<!-- 0&#45;&gt;1 -->
<g id="edge1" class="edge">
<title>0&#45;&gt;1</title>
<path fill="none" stroke="black" d="M295.95,-244.09C287.88,-234.82 277.73,-223.16 268.48,-212.53"/>
<polygon fill="black" stroke="black" points="271.19,-210.31 261.98,-205.07 265.91,-214.91 271.19,-210.31"/>
</g>
<!-- 8 -->
<g id="node9" class="node">
<title>8</title>
<ellipse fill="white" stroke="black" cx="462.04" cy="-182.31" rx="27" ry="22.06"/>
<text text-anchor="middle" x="462.04" y="-178.11" font-family="Arial" font-size="14.00">sub</text>
</g>
<!-- 0&#45;&gt;8 -->
<g id="edge8" class="edge">
<title>0&#45;&gt;8</title>
<path fill="none" stroke="black" d="M333.65,-249.74C359.15,-236.54 400.83,-214.98 429.75,-200.02"/>
<polygon fill="black" stroke="black" points="431.16,-203.23 438.43,-195.52 427.94,-197.01 431.16,-203.23"/>
</g>
<!-- 2 -->
<g id="node3" class="node">
<title>2</title>
<ellipse fill="white" stroke="black" cx="47.04" cy="-102.19" rx="47.04" ry="22.06"/>
<text text-anchor="middle" x="47.04" y="-97.99" font-family="Arial" font-size="14.00">is_water</text>
</g>
<!-- 1&#45;&gt;2 -->
<g id="edge2" class="edge">
<title>1&#45;&gt;2</title>
<path fill="none" stroke="black" d="M202.43,-165.12C170.46,-152.38 125.91,-134.62 92.7,-121.38"/>
<polygon fill="black" stroke="black" points="94.34,-118.27 83.75,-117.82 91.75,-124.77 94.34,-118.27"/>
</g>
<!-- 3 -->
<g id="node4" class="node">
<title>3</title>
<ellipse fill="white" stroke="black" cx="172.04" cy="-102.19" rx="60.26" ry="22.06"/>
<text text-anchor="middle" x="172.04" y="-97.99" font-family="Arial" font-size="14.00">elevation_v</text>
</g>
<!-- 1&#45;&gt;3 -->
<g id="edge3" class="edge">
<title>1&#45;&gt;3</title>
<path fill="none" stroke="black" d="M224.39,-160.78C216.4,-151.99 206.93,-141.57 198.25,-132.02"/>
<polygon fill="black" stroke="black" points="200.91,-129.74 191.59,-124.69 195.73,-134.45 200.91,-129.74"/>
</g>
<!-- 4 -->
<g id="node5" class="node">
<title>4</title>
<ellipse fill="white" stroke="black" cx="314.04" cy="-102.19" rx="63.57" ry="22.06"/>
<text text-anchor="middle" x="314.04" y="-97.99" font-family="Arial" font-size="14.00">if_then_else</text>
</g>
<!-- 1&#45;&gt;4 -->
<g id="edge4" class="edge">
<title>1&#45;&gt;4</title>
<path fill="none" stroke="black" d="M261.7,-160.78C269.69,-151.99 279.16,-141.57 287.84,-132.02"/>
<polygon fill="black" stroke="black" points="290.36,-134.45 294.5,-124.69 285.18,-129.74 290.36,-134.45"/>
</g>
<!-- 5 -->
<g id="node6" class="node">
<title>5</title>
<ellipse fill="white" stroke="black" cx="188.04" cy="-22.06" rx="47.04" ry="22.06"/>
<text text-anchor="middle" x="188.04" y="-17.86" font-family="Arial" font-size="14.00">is_water</text>
</g>
<!-- 4&#45;&gt;5 -->
<g id="edge5" class="edge">
<title>4&#45;&gt;5</title>
<path fill="none" stroke="black" d="M283.86,-82.47C266.34,-71.61 244.11,-57.82 225.48,-46.27"/>
<polygon fill="black" stroke="black" points="227.45,-43.38 217.11,-41.08 223.77,-49.33 227.45,-43.38"/>
</g>
<!-- 6 -->
<g id="node7" class="node">
<title>6</title>
<ellipse fill="white" stroke="black" cx="308.04" cy="-22.06" rx="55.31" ry="22.06"/>
<text text-anchor="middle" x="308.04" y="-17.86" font-family="Arial" font-size="14.00">steepness</text>
</g>
<!-- 4&#45;&gt;6 -->
<g id="edge6" class="edge">
<title>4&#45;&gt;6</title>
<path fill="none" stroke="black" d="M312.4,-79.84C311.84,-72.43 311.18,-63.95 310.56,-55.83"/>
<polygon fill="black" stroke="black" points="314.05,-55.6 309.8,-45.89 307.07,-56.13 314.05,-55.6"/>
</g>
<!-- 7 -->
<g id="node8" class="node">
<title>7</title>
<ellipse fill="white" stroke="black" cx="442.04" cy="-22.06" rx="60.82" ry="22.06"/>
<text text-anchor="middle" x="442.04" y="-17.86" font-family="Arial" font-size="14.00">elevation_u</text>
</g>
<!-- 4&#45;&gt;7 -->
<g id="edge7" class="edge">
<title>4&#45;&gt;7</title>
<path fill="none" stroke="black" d="M344.7,-82.47C361.88,-71.99 383.51,-58.79 402.01,-47.5"/>
<polygon fill="black" stroke="black" points="403.63,-50.61 410.34,-42.41 399.98,-44.63 403.63,-50.61"/>
</g>
<!-- 9 -->
<g id="node10" class="node">
<title>9</title>
<ellipse fill="white" stroke="black" cx="462.04" cy="-102.19" rx="55.31" ry="22.06"/>
<text text-anchor="middle" x="462.04" y="-97.99" font-family="Arial" font-size="14.00">steepness</text>
</g>
<!-- 8&#45;&gt;9 -->
<g id="edge9" class="edge">
<title>8&#45;&gt;9</title>
<path fill="none" stroke="black" d="M462.04,-159.96C462.04,-152.55 462.04,-144.07 462.04,-135.96"/>
<polygon fill="black" stroke="black" points="465.54,-136.02 462.04,-126.02 458.54,-136.02 465.54,-136.02"/>
</g>
<!-- 10 -->
<g id="node11" class="node">
<title>10</title>
<ellipse fill="white" stroke="black" cx="568.04" cy="-102.19" rx="27" ry="22.06"/>
<text text-anchor="middle" x="568.04" y="-97.99" font-family="Arial" font-size="14.00">add</text>
</g>
<!-- 8&#45;&gt;10 -->
<g id="edge10" class="edge">
<title>8&#45;&gt;10</title>
<path fill="none" stroke="black" d="M481.49,-166.98C497.67,-155.05 520.95,-137.89 539.29,-124.38"/>
<polygon fill="black" stroke="black" points="541.17,-127.34 547.15,-118.59 537.02,-121.7 541.17,-127.34"/>
</g>
<!-- 11 -->
<g id="node12" class="node">
<title>11</title>
<ellipse fill="white" stroke="black" cx="568.04" cy="-22.06" rx="47.05" ry="22.06"/>
<text text-anchor="middle" x="568.04" y="-17.86" font-family="Arial" font-size="14.00">distance</text>
</g>
<!-- 10&#45;&gt;11 -->
<g id="edge11" class="edge">
<title>10&#45;&gt;11</title>
<path fill="none" stroke="black" d="M568.04,-79.84C568.04,-72.43 568.04,-63.95 568.04,-55.83"/>
<polygon fill="black" stroke="black" points="571.54,-55.9 568.04,-45.9 564.54,-55.9 571.54,-55.9"/>
</g>
<!-- 12 -->
<g id="node13" class="node">
<title>12</title>
<ellipse fill="white" stroke="black" cx="668.04" cy="-22.06" rx="34.96" ry="22.06"/>
<text text-anchor="middle" x="668.04" y="-17.86" font-family="Arial" font-size="14.00">6.728</text>
</g>
<!-- 10&#45;&gt;12 -->
<g id="edge12" class="edge">
<title>10&#45;&gt;12</title>
<path fill="none" stroke="black" d="M587.33,-86.12C601.69,-74.9 621.58,-59.36 638.02,-46.52"/>
<polygon fill="black" stroke="black" points="639.83,-49.55 645.55,-40.63 635.52,-44.03 639.83,-49.55"/>
</g>
</g>
</svg>
