<?xml version="1.0" encoding="UTF-8" standalone="no"?>
<!DOCTYPE svg PUBLIC "-//W3C//DTD SVG 1.1//EN"
 "http://www.w3.org/Graphics/SVG/1.1/DTD/svg11.dtd">
<!-- Generated by graphviz version 12.2.1 (0)
 -->
<!-- Title: G Pages: 1 -->
<svg width="783pt" height="485pt"
 viewBox="36.00 36.00 747.00 449.42" xmlns="http://www.w3.org/2000/svg" xmlns:xlink="http://www.w3.org/1999/xlink">
<g id="graph0" class="graph" transform="scale(1 1) rotate(0) translate(40 445.42)">
<title>G</title>
<polygon fill="white" stroke="none" points="-4,4 -4,-409.42 707,-409.42 707,4 -4,4"/>
<text text-anchor="middle" x="351.5" y="-388.82" font-family="Times New Roman,serif" font-size="14.00">(&#39;best_4tree_2500pop_15gen_25runs_res200_25subrun&#39;, &#39;&#39;)</text>
<!-- 0 -->
<g id="node1" class="node">
<title>0</title>
<ellipse fill="white" stroke="black" cx="311.04" cy="-342.56" rx="27" ry="22.06"/>
<text text-anchor="middle" x="311.04" y="-338.36" font-family="Arial" font-size="14.00">sub</text>
</g>
<!-- 1 -->
<g id="node2" class="node">
<title>1</title>
<ellipse fill="white" stroke="black" cx="243.04" cy="-262.43" rx="63.57" ry="22.06"/>
<text text-anchor="middle" x="243.04" y="-258.23" font-family="Arial" font-size="14.00">if_then_else</text>
</g>
<!-- 0&#45;&gt;1 -->
<g id="edge1" class="edge">
<title>0&#45;&gt;1</title>
<path fill="none" stroke="black" d="M295.95,-324.22C287.88,-314.95 277.73,-303.28 268.48,-292.65"/>
<polygon fill="black" stroke="black" points="271.19,-290.43 261.98,-285.19 265.91,-295.03 271.19,-290.43"/>
</g>
<!-- 9 -->
<g id="node10" class="node">
<title>9</title>
<ellipse fill="white" stroke="black" cx="462.04" cy="-262.43" rx="27" ry="22.06"/>
<text text-anchor="middle" x="462.04" y="-258.23" font-family="Arial" font-size="14.00">sub</text>
</g>
<!-- 0&#45;&gt;9 -->
<g id="edge9" class="edge">
<title>0&#45;&gt;9</title>
<path fill="none" stroke="black" d="M333.65,-329.86C359.15,-316.67 400.83,-295.1 429.75,-280.14"/>
<polygon fill="black" stroke="black" points="431.16,-283.35 438.43,-275.65 427.94,-277.14 431.16,-283.35"/>
</g>
<!-- 2 -->
<g id="node3" class="node">
<title>2</title>
<ellipse fill="white" stroke="black" cx="47.04" cy="-182.31" rx="47.04" ry="22.06"/>
<text text-anchor="middle" x="47.04" y="-178.11" font-family="Arial" font-size="14.00">is_water</text>
</g>
<!-- 1&#45;&gt;2 -->
<g id="edge2" class="edge">
<title>1&#45;&gt;2</title>
<path fill="none" stroke="black" d="M202.43,-245.24C170.46,-232.5 125.91,-214.74 92.7,-201.51"/>
<polygon fill="black" stroke="black" points="94.34,-198.39 83.75,-197.94 91.75,-204.89 94.34,-198.39"/>
</g>
<!-- 3 -->
<g id="node4" class="node">
<title>3</title>
<ellipse fill="white" stroke="black" cx="172.04" cy="-182.31" rx="60.26" ry="22.06"/>
<text text-anchor="middle" x="172.04" y="-178.11" font-family="Arial" font-size="14.00">elevation_v</text>
</g>
<!-- 1&#45;&gt;3 -->
<g id="edge3" class="edge">
<title>1&#45;&gt;3</title>
<path fill="none" stroke="black" d="M224.39,-240.91C216.4,-232.11 206.93,-221.69 198.25,-212.15"/>
<polygon fill="black" stroke="black" points="200.91,-209.86 191.59,-204.82 195.73,-214.57 200.91,-209.86"/>
</g>
<!-- 4 -->
<g id="node5" class="node">
<title>4</title>
<ellipse fill="white" stroke="black" cx="314.04" cy="-182.31" rx="63.57" ry="22.06"/>
<text text-anchor="middle" x="314.04" y="-178.11" font-family="Arial" font-size="14.00">if_then_else</text>
</g>
<!-- 1&#45;&gt;4 -->
<g id="edge4" class="edge">
<title>1&#45;&gt;4</title>
<path fill="none" stroke="black" d="M261.7,-240.91C269.69,-232.11 279.16,-221.69 287.84,-212.15"/>
<polygon fill="black" stroke="black" points="290.36,-214.57 294.5,-204.82 285.18,-209.86 290.36,-214.57"/>
</g>
<!-- 5 -->
<g id="node6" class="node">
<title>5</title>
<ellipse fill="white" stroke="black" cx="163.04" cy="-102.19" rx="71.26" ry="22.06"/>
<text text-anchor="middle" x="163.04" y="-97.99" font-family="Arial" font-size="14.00">identity_water</text>
</g>
<!-- 4&#45;&gt;5 -->
<g id="edge5" class="edge">
<title>4&#45;&gt;5</title>
<path fill="none" stroke="black" d="M279.4,-163.39C258.49,-152.56 231.58,-138.65 208.92,-126.92"/>
<polygon fill="black" stroke="black" points="210.67,-123.89 200.18,-122.4 207.46,-130.1 210.67,-123.89"/>
</g>
<!-- 7 -->
<g id="node8" class="node">
<title>7</title>
<ellipse fill="white" stroke="black" cx="308.04" cy="-102.19" rx="55.31" ry="22.06"/>
<text text-anchor="middle" x="308.04" y="-97.99" font-family="Arial" font-size="14.00">steepness</text>
</g>
<!-- 4&#45;&gt;7 -->
<g id="edge7" class="edge">
<title>4&#45;&gt;7</title>
<path fill="none" stroke="black" d="M312.4,-159.96C311.84,-152.55 311.18,-144.07 310.56,-135.96"/>
<polygon fill="black" stroke="black" points="314.05,-135.72 309.8,-126.02 307.07,-136.25 314.05,-135.72"/>
</g>
<!-- 8 -->
<g id="node9" class="node">
<title>8</title>
<ellipse fill="white" stroke="black" cx="442.04" cy="-102.19" rx="60.82" ry="22.06"/>
<text text-anchor="middle" x="442.04" y="-97.99" font-family="Arial" font-size="14.00">elevation_u</text>
</g>
<!-- 4&#45;&gt;8 -->
<g id="edge8" class="edge">
<title>4&#45;&gt;8</title>
<path fill="none" stroke="black" d="M344.7,-162.6C361.88,-152.11 383.51,-138.91 402.01,-127.62"/>
<polygon fill="black" stroke="black" points="403.63,-130.73 410.34,-122.53 399.98,-124.76 403.63,-130.73"/>
</g>
<!-- 6 -->
<g id="node7" class="node">
<title>6</title>
<ellipse fill="white" stroke="black" cx="163.04" cy="-22.06" rx="47.04" ry="22.06"/>
<text text-anchor="middle" x="163.04" y="-17.86" font-family="Arial" font-size="14.00">is_water</text>
</g>
<!-- 5&#45;&gt;6 -->
<g id="edge6" class="edge">
<title>5&#45;&gt;6</title>
<path fill="none" stroke="black" d="M163.04,-79.84C163.04,-72.43 163.04,-63.95 163.04,-55.83"/>
<polygon fill="black" stroke="black" points="166.54,-55.9 163.04,-45.9 159.54,-55.9 166.54,-55.9"/>
</g>
<!-- 10 -->
<g id="node11" class="node">
<title>10</title>
<ellipse fill="white" stroke="black" cx="462.04" cy="-182.31" rx="55.31" ry="22.06"/>
<text text-anchor="middle" x="462.04" y="-178.11" font-family="Arial" font-size="14.00">steepness</text>
</g>
<!-- 9&#45;&gt;10 -->
<g id="edge10" class="edge">
<title>9&#45;&gt;10</title>
<path fill="none" stroke="black" d="M462.04,-240.08C462.04,-232.68 462.04,-224.19 462.04,-216.08"/>
<polygon fill="black" stroke="black" points="465.54,-216.14 462.04,-206.14 458.54,-216.14 465.54,-216.14"/>
</g>
<!-- 11 -->
<g id="node12" class="node">
<title>11</title>
<ellipse fill="white" stroke="black" cx="568.04" cy="-182.31" rx="27" ry="22.06"/>
<text text-anchor="middle" x="568.04" y="-178.11" font-family="Arial" font-size="14.00">add</text>
</g>
<!-- 9&#45;&gt;11 -->
<g id="edge11" class="edge">
<title>9&#45;&gt;11</title>
<path fill="none" stroke="black" d="M481.49,-247.1C497.67,-235.17 520.95,-218.02 539.29,-204.5"/>
<polygon fill="black" stroke="black" points="541.17,-207.46 547.15,-198.71 537.02,-201.82 541.17,-207.46"/>
</g>
<!-- 12 -->
<g id="node13" class="node">
<title>12</title>
<ellipse fill="white" stroke="black" cx="568.04" cy="-102.19" rx="47.05" ry="22.06"/>
<text text-anchor="middle" x="568.04" y="-97.99" font-family="Arial" font-size="14.00">distance</text>
</g>
<!-- 11&#45;&gt;12 -->
<g id="edge12" class="edge">
<title>11&#45;&gt;12</title>
<path fill="none" stroke="black" d="M568.04,-159.96C568.04,-152.55 568.04,-144.07 568.04,-135.96"/>
<polygon fill="black" stroke="black" points="571.54,-136.02 568.04,-126.02 564.54,-136.02 571.54,-136.02"/>
</g>
<!-- 13 -->
<g id="node14" class="node">
<title>13</title>
<ellipse fill="white" stroke="black" cx="668.04" cy="-102.19" rx="34.96" ry="22.06"/>
<text text-anchor="middle" x="668.04" y="-97.99" font-family="Arial" font-size="14.00">6.728</text>
</g>
<!-- 11&#45;&gt;13 -->
<g id="edge13" class="edge">
<title>11&#45;&gt;13</title>
<path fill="none" stroke="black" d="M587.33,-166.25C601.69,-155.02 621.58,-139.48 638.02,-126.64"/>
<polygon fill="black" stroke="black" points="639.83,-129.67 645.55,-120.76 635.52,-124.15 639.83,-129.67"/>
</g>
</g>
</svg>
