<?xml version="1.0" encoding="UTF-8" standalone="no"?>
<!DOCTYPE svg PUBLIC "-//W3C//DTD SVG 1.1//EN"
 "http://www.w3.org/Graphics/SVG/1.1/DTD/svg11.dtd">
<!-- Generated by graphviz version 12.2.1 (0)
 -->
<!-- Title: G Pages: 1 -->
<svg width="783pt" height="566pt"
 viewBox="36.00 36.00 747.00 529.54" xmlns="http://www.w3.org/2000/svg" xmlns:xlink="http://www.w3.org/1999/xlink">
<g id="graph0" class="graph" transform="scale(1 1) rotate(0) translate(40 525.54)">
<title>G</title>
<polygon fill="white" stroke="none" points="-4,4 -4,-489.54 707,-489.54 707,4 -4,4"/>
<text text-anchor="middle" x="351.5" y="-468.94" font-family="Times New Roman,serif" font-size="14.00">(&#39;best_2tree_2500pop_15gen_25runs_res200_25subrun&#39;, &#39;&#39;)</text>
<!-- 0 -->
<g id="node1" class="node">
<title>0</title>
<ellipse fill="white" stroke="black" cx="311.04" cy="-422.68" rx="27" ry="22.06"/>
<text text-anchor="middle" x="311.04" y="-418.48" font-family="Arial" font-size="14.00">sub</text>
</g>
<!-- 1 -->
<g id="node2" class="node">
<title>1</title>
<ellipse fill="white" stroke="black" cx="243.04" cy="-342.56" rx="63.57" ry="22.06"/>
<text text-anchor="middle" x="243.04" y="-338.36" font-family="Arial" font-size="14.00">if_then_else</text>
</g>
<!-- 0&#45;&gt;1 -->
<g id="edge1" class="edge">
<title>0&#45;&gt;1</title>
<path fill="none" stroke="black" d="M295.95,-404.34C287.88,-395.07 277.73,-383.4 268.48,-372.78"/>
<polygon fill="black" stroke="black" points="271.19,-370.56 261.98,-365.31 265.91,-375.15 271.19,-370.56"/>
</g>
<!-- 10 -->
<g id="node11" class="node">
<title>10</title>
<ellipse fill="white" stroke="black" cx="462.04" cy="-342.56" rx="27" ry="22.06"/>
<text text-anchor="middle" x="462.04" y="-338.36" font-family="Arial" font-size="14.00">sub</text>
</g>
<!-- 0&#45;&gt;10 -->
<g id="edge10" class="edge">
<title>0&#45;&gt;10</title>
<path fill="none" stroke="black" d="M333.65,-409.98C359.15,-396.79 400.83,-375.23 429.75,-360.26"/>
<polygon fill="black" stroke="black" points="431.16,-363.48 438.43,-355.77 427.94,-357.26 431.16,-363.48"/>
</g>
<!-- 2 -->
<g id="node3" class="node">
<title>2</title>
<ellipse fill="white" stroke="black" cx="47.04" cy="-262.43" rx="47.04" ry="22.06"/>
<text text-anchor="middle" x="47.04" y="-258.23" font-family="Arial" font-size="14.00">is_water</text>
</g>
<!-- 1&#45;&gt;2 -->
<g id="edge2" class="edge">
<title>1&#45;&gt;2</title>
<path fill="none" stroke="black" d="M202.43,-325.37C170.46,-312.62 125.91,-294.87 92.7,-281.63"/>
<polygon fill="black" stroke="black" points="94.34,-278.52 83.75,-278.06 91.75,-285.02 94.34,-278.52"/>
</g>
<!-- 3 -->
<g id="node4" class="node">
<title>3</title>
<ellipse fill="white" stroke="black" cx="172.04" cy="-262.43" rx="60.26" ry="22.06"/>
<text text-anchor="middle" x="172.04" y="-258.23" font-family="Arial" font-size="14.00">elevation_v</text>
</g>
<!-- 1&#45;&gt;3 -->
<g id="edge3" class="edge">
<title>1&#45;&gt;3</title>
<path fill="none" stroke="black" d="M224.39,-321.03C216.4,-312.24 206.93,-301.82 198.25,-292.27"/>
<polygon fill="black" stroke="black" points="200.91,-289.99 191.59,-284.94 195.73,-294.7 200.91,-289.99"/>
</g>
<!-- 4 -->
<g id="node5" class="node">
<title>4</title>
<ellipse fill="white" stroke="black" cx="314.04" cy="-262.43" rx="63.57" ry="22.06"/>
<text text-anchor="middle" x="314.04" y="-258.23" font-family="Arial" font-size="14.00">if_then_else</text>
</g>
<!-- 1&#45;&gt;4 -->
<g id="edge4" class="edge">
<title>1&#45;&gt;4</title>
<path fill="none" stroke="black" d="M261.7,-321.03C269.69,-312.24 279.16,-301.82 287.84,-292.27"/>
<polygon fill="black" stroke="black" points="290.36,-294.7 294.5,-284.94 285.18,-289.99 290.36,-294.7"/>
</g>
<!-- 5 -->
<g id="node6" class="node">
<title>5</title>
<ellipse fill="white" stroke="black" cx="163.04" cy="-182.31" rx="71.26" ry="22.06"/>
<text text-anchor="middle" x="163.04" y="-178.11" font-family="Arial" font-size="14.00">identity_water</text>
</g>
<!-- 4&#45;&gt;5 -->
<g id="edge5" class="edge">
<title>4&#45;&gt;5</title>
<path fill="none" stroke="black" d="M279.4,-243.51C258.49,-232.69 231.58,-218.77 208.92,-207.04"/>
<polygon fill="black" stroke="black" points="210.67,-204.01 200.18,-202.52 207.46,-210.23 210.67,-204.01"/>
</g>
<!-- 8 -->
<g id="node9" class="node">
<title>8</title>
<ellipse fill="white" stroke="black" cx="308.04" cy="-182.31" rx="55.31" ry="22.06"/>
<text text-anchor="middle" x="308.04" y="-178.11" font-family="Arial" font-size="14.00">steepness</text>
</g>
<!-- 4&#45;&gt;8 -->
<g id="edge8" class="edge">
<title>4&#45;&gt;8</title>
<path fill="none" stroke="black" d="M312.4,-240.08C311.84,-232.68 311.18,-224.19 310.56,-216.08"/>
<polygon fill="black" stroke="black" points="314.05,-215.84 309.8,-206.14 307.07,-216.38 314.05,-215.84"/>
</g>
<!-- 9 -->
<g id="node10" class="node">
<title>9</title>
<ellipse fill="white" stroke="black" cx="442.04" cy="-182.31" rx="60.82" ry="22.06"/>
<text text-anchor="middle" x="442.04" y="-178.11" font-family="Arial" font-size="14.00">elevation_u</text>
</g>
<!-- 4&#45;&gt;9 -->
<g id="edge9" class="edge">
<title>4&#45;&gt;9</title>
<path fill="none" stroke="black" d="M344.7,-242.72C361.88,-232.24 383.51,-219.04 402.01,-207.75"/>
<polygon fill="black" stroke="black" points="403.63,-210.85 410.34,-202.66 399.98,-204.88 403.63,-210.85"/>
</g>
<!-- 6 -->
<g id="node7" class="node">
<title>6</title>
<ellipse fill="white" stroke="black" cx="163.04" cy="-102.19" rx="71.26" ry="22.06"/>
<text text-anchor="middle" x="163.04" y="-97.99" font-family="Arial" font-size="14.00">identity_water</text>
</g>
<!-- 5&#45;&gt;6 -->
<g id="edge6" class="edge">
<title>5&#45;&gt;6</title>
<path fill="none" stroke="black" d="M163.04,-159.96C163.04,-152.55 163.04,-144.07 163.04,-135.96"/>
<polygon fill="black" stroke="black" points="166.54,-136.02 163.04,-126.02 159.54,-136.02 166.54,-136.02"/>
</g>
<!-- 7 -->
<g id="node8" class="node">
<title>7</title>
<ellipse fill="white" stroke="black" cx="163.04" cy="-22.06" rx="47.04" ry="22.06"/>
<text text-anchor="middle" x="163.04" y="-17.86" font-family="Arial" font-size="14.00">is_water</text>
</g>
<!-- 6&#45;&gt;7 -->
<g id="edge7" class="edge">
<title>6&#45;&gt;7</title>
<path fill="none" stroke="black" d="M163.04,-79.84C163.04,-72.43 163.04,-63.95 163.04,-55.83"/>
<polygon fill="black" stroke="black" points="166.54,-55.9 163.04,-45.9 159.54,-55.9 166.54,-55.9"/>
</g>
<!-- 11 -->
<g id="node12" class="node">
<title>11</title>
<ellipse fill="white" stroke="black" cx="462.04" cy="-262.43" rx="55.31" ry="22.06"/>
<text text-anchor="middle" x="462.04" y="-258.23" font-family="Arial" font-size="14.00">steepness</text>
</g>
<!-- 10&#45;&gt;11 -->
<g id="edge11" class="edge">
<title>10&#45;&gt;11</title>
<path fill="none" stroke="black" d="M462.04,-320.21C462.04,-312.8 462.04,-304.32 462.04,-296.2"/>
<polygon fill="black" stroke="black" points="465.54,-296.27 462.04,-286.27 458.54,-296.27 465.54,-296.27"/>
</g>
<!-- 12 -->
<g id="node13" class="node">
<title>12</title>
<ellipse fill="white" stroke="black" cx="568.04" cy="-262.43" rx="27" ry="22.06"/>
<text text-anchor="middle" x="568.04" y="-258.23" font-family="Arial" font-size="14.00">add</text>
</g>
<!-- 10&#45;&gt;12 -->
<g id="edge12" class="edge">
<title>10&#45;&gt;12</title>
<path fill="none" stroke="black" d="M481.49,-327.23C497.67,-315.3 520.95,-298.14 539.29,-284.62"/>
<polygon fill="black" stroke="black" points="541.17,-287.58 547.15,-278.83 537.02,-281.95 541.17,-287.58"/>
</g>
<!-- 13 -->
<g id="node14" class="node">
<title>13</title>
<ellipse fill="white" stroke="black" cx="568.04" cy="-182.31" rx="47.05" ry="22.06"/>
<text text-anchor="middle" x="568.04" y="-178.11" font-family="Arial" font-size="14.00">distance</text>
</g>
<!-- 12&#45;&gt;13 -->
<g id="edge13" class="edge">
<title>12&#45;&gt;13</title>
<path fill="none" stroke="black" d="M568.04,-240.08C568.04,-232.68 568.04,-224.19 568.04,-216.08"/>
<polygon fill="black" stroke="black" points="571.54,-216.14 568.04,-206.14 564.54,-216.14 571.54,-216.14"/>
</g>
<!-- 14 -->
<g id="node15" class="node">
<title>14</title>
<ellipse fill="white" stroke="black" cx="668.04" cy="-182.31" rx="34.96" ry="22.06"/>
<text text-anchor="middle" x="668.04" y="-178.11" font-family="Arial" font-size="14.00">9.376</text>
</g>
<!-- 12&#45;&gt;14 -->
<g id="edge14" class="edge">
<title>12&#45;&gt;14</title>
<path fill="none" stroke="black" d="M587.33,-246.37C601.69,-235.15 621.58,-219.61 638.02,-206.76"/>
<polygon fill="black" stroke="black" points="639.83,-209.79 645.55,-200.88 635.52,-204.28 639.83,-209.79"/>
</g>
</g>
</svg>
