<?xml version="1.0" encoding="UTF-8" standalone="no"?>
<!DOCTYPE svg PUBLIC "-//W3C//DTD SVG 1.1//EN"
 "http://www.w3.org/Graphics/SVG/1.1/DTD/svg11.dtd">
<!-- Generated by graphviz version 12.2.1 (0)
 -->
<!-- Title: G Pages: 1 -->
<svg width="770pt" height="485pt"
 viewBox="36.00 36.00 734.08 449.42" xmlns="http://www.w3.org/2000/svg" xmlns:xlink="http://www.w3.org/1999/xlink">
<g id="graph0" class="graph" transform="scale(1 1) rotate(0) translate(40 445.42)">
<title>G</title>
<polygon fill="white" stroke="none" points="-4,4 -4,-409.42 694.08,-409.42 694.08,4 -4,4"/>
<text text-anchor="middle" x="345.04" y="-388.82" font-family="Times New Roman,serif" font-size="14.00">(&#39;best_tree_2500pop_15gen_25runs_res200_1subrun&#39;, &#39;&#39;)</text>
<!-- 0 -->
<g id="node1" class="node">
<title>0</title>
<ellipse fill="white" stroke="black" cx="344.26" cy="-342.56" rx="27" ry="22.06"/>
<text text-anchor="middle" x="344.26" y="-338.36" font-family="Arial" font-size="14.00">sub</text>
</g>
<!-- 1 -->
<g id="node2" class="node">
<title>1</title>
<ellipse fill="white" stroke="black" cx="284.26" cy="-262.43" rx="63.57" ry="22.06"/>
<text text-anchor="middle" x="284.26" y="-258.23" font-family="Arial" font-size="14.00">if_then_else</text>
</g>
<!-- 0&#45;&gt;1 -->
<g id="edge1" class="edge">
<title>0&#45;&gt;1</title>
<path fill="none" stroke="black" d="M330.35,-323.44C323.45,-314.46 314.96,-303.4 307.14,-293.22"/>
<polygon fill="black" stroke="black" points="310.01,-291.21 301.14,-285.41 304.46,-295.48 310.01,-291.21"/>
</g>
<!-- 7 -->
<g id="node8" class="node">
<title>7</title>
<ellipse fill="white" stroke="black" cx="466.26" cy="-262.43" rx="27" ry="22.06"/>
<text text-anchor="middle" x="466.26" y="-258.23" font-family="Arial" font-size="14.00">sub</text>
</g>
<!-- 0&#45;&gt;7 -->
<g id="edge7" class="edge">
<title>0&#45;&gt;7</title>
<path fill="none" stroke="black" d="M365.23,-328.13C384.73,-315.64 413.99,-296.9 436.02,-282.8"/>
<polygon fill="black" stroke="black" points="437.75,-285.84 444.29,-277.5 433.98,-279.95 437.75,-285.84"/>
</g>
<!-- 2 -->
<g id="node3" class="node">
<title>2</title>
<ellipse fill="white" stroke="black" cx="71.26" cy="-182.31" rx="71.26" ry="22.06"/>
<text text-anchor="middle" x="71.26" y="-178.11" font-family="Arial" font-size="14.00">identity_water</text>
</g>
<!-- 1&#45;&gt;2 -->
<g id="edge2" class="edge">
<title>1&#45;&gt;2</title>
<path fill="none" stroke="black" d="M241.41,-245.72C208.5,-233.64 162.76,-216.87 127,-203.75"/>
<polygon fill="black" stroke="black" points="128.26,-200.49 117.67,-200.33 125.85,-207.06 128.26,-200.49"/>
</g>
<!-- 5 -->
<g id="node6" class="node">
<title>5</title>
<ellipse fill="white" stroke="black" cx="221.26" cy="-182.31" rx="60.26" ry="22.06"/>
<text text-anchor="middle" x="221.26" y="-178.11" font-family="Arial" font-size="14.00">elevation_v</text>
</g>
<!-- 1&#45;&gt;5 -->
<g id="edge5" class="edge">
<title>1&#45;&gt;5</title>
<path fill="none" stroke="black" d="M267.71,-240.91C260.75,-232.27 252.52,-222.07 244.93,-212.66"/>
<polygon fill="black" stroke="black" points="247.87,-210.73 238.87,-205.15 242.43,-215.13 247.87,-210.73"/>
</g>
<!-- 6 -->
<g id="node7" class="node">
<title>6</title>
<ellipse fill="white" stroke="black" cx="346.26" cy="-182.31" rx="47.05" ry="22.06"/>
<text text-anchor="middle" x="346.26" y="-178.11" font-family="Arial" font-size="14.00">distance</text>
</g>
<!-- 1&#45;&gt;6 -->
<g id="edge6" class="edge">
<title>1&#45;&gt;6</title>
<path fill="none" stroke="black" d="M300.55,-240.91C307.51,-232.14 315.76,-221.74 323.32,-212.22"/>
<polygon fill="black" stroke="black" points="325.88,-214.62 329.35,-204.61 320.4,-210.27 325.88,-214.62"/>
</g>
<!-- 3 -->
<g id="node4" class="node">
<title>3</title>
<ellipse fill="white" stroke="black" cx="71.26" cy="-102.19" rx="71.26" ry="22.06"/>
<text text-anchor="middle" x="71.26" y="-97.99" font-family="Arial" font-size="14.00">identity_water</text>
</g>
<!-- 2&#45;&gt;3 -->
<g id="edge3" class="edge">
<title>2&#45;&gt;3</title>
<path fill="none" stroke="black" d="M71.26,-159.96C71.26,-152.55 71.26,-144.07 71.26,-135.96"/>
<polygon fill="black" stroke="black" points="74.76,-136.02 71.26,-126.02 67.76,-136.02 74.76,-136.02"/>
</g>
<!-- 4 -->
<g id="node5" class="node">
<title>4</title>
<ellipse fill="white" stroke="black" cx="71.26" cy="-22.06" rx="47.04" ry="22.06"/>
<text text-anchor="middle" x="71.26" y="-17.86" font-family="Arial" font-size="14.00">is_water</text>
</g>
<!-- 3&#45;&gt;4 -->
<g id="edge4" class="edge">
<title>3&#45;&gt;4</title>
<path fill="none" stroke="black" d="M71.26,-79.84C71.26,-72.43 71.26,-63.95 71.26,-55.83"/>
<polygon fill="black" stroke="black" points="74.76,-55.9 71.26,-45.9 67.76,-55.9 74.76,-55.9"/>
</g>
<!-- 8 -->
<g id="node9" class="node">
<title>8</title>
<ellipse fill="white" stroke="black" cx="466.26" cy="-182.31" rx="55.31" ry="22.06"/>
<text text-anchor="middle" x="466.26" y="-178.11" font-family="Arial" font-size="14.00">steepness</text>
</g>
<!-- 7&#45;&gt;8 -->
<g id="edge8" class="edge">
<title>7&#45;&gt;8</title>
<path fill="none" stroke="black" d="M466.26,-240.08C466.26,-232.68 466.26,-224.19 466.26,-216.08"/>
<polygon fill="black" stroke="black" points="469.76,-216.14 466.26,-206.14 462.76,-216.14 469.76,-216.14"/>
</g>
<!-- 9 -->
<g id="node10" class="node">
<title>9</title>
<ellipse fill="white" stroke="black" cx="566.26" cy="-182.31" rx="27" ry="22.06"/>
<text text-anchor="middle" x="566.26" y="-178.11" font-family="Arial" font-size="14.00">add</text>
</g>
<!-- 7&#45;&gt;9 -->
<g id="edge9" class="edge">
<title>7&#45;&gt;9</title>
<path fill="none" stroke="black" d="M485.54,-246.37C500.48,-234.7 521.4,-218.36 538.2,-205.23"/>
<polygon fill="black" stroke="black" points="540.12,-208.17 545.85,-199.26 535.81,-202.66 540.12,-208.17"/>
</g>
<!-- 10 -->
<g id="node11" class="node">
<title>10</title>
<ellipse fill="white" stroke="black" cx="503.26" cy="-102.19" rx="47.05" ry="22.06"/>
<text text-anchor="middle" x="503.26" y="-97.99" font-family="Arial" font-size="14.00">distance</text>
</g>
<!-- 9&#45;&gt;10 -->
<g id="edge10" class="edge">
<title>9&#45;&gt;10</title>
<path fill="none" stroke="black" d="M551.97,-163.58C544.5,-154.32 535.17,-142.75 526.68,-132.22"/>
<polygon fill="black" stroke="black" points="529.45,-130.09 520.45,-124.5 524,-134.48 529.45,-130.09"/>
</g>
<!-- 11 -->
<g id="node12" class="node">
<title>11</title>
<ellipse fill="white" stroke="black" cx="629.26" cy="-102.19" rx="60.82" ry="22.06"/>
<text text-anchor="middle" x="629.26" y="-97.99" font-family="Arial" font-size="14.00">elevation_u</text>
</g>
<!-- 9&#45;&gt;11 -->
<g id="edge11" class="edge">
<title>9&#45;&gt;11</title>
<path fill="none" stroke="black" d="M580.56,-163.58C587.91,-154.46 597.08,-143.1 605.46,-132.7"/>
<polygon fill="black" stroke="black" points="608.07,-135.04 611.62,-125.06 602.62,-130.65 608.07,-135.04"/>
</g>
</g>
</svg>
