<?xml version="1.0" encoding="UTF-8" standalone="no"?>
<!DOCTYPE svg PUBLIC "-//W3C//DTD SVG 1.1//EN"
 "http://www.w3.org/Graphics/SVG/1.1/DTD/svg11.dtd">
<!-- Generated by graphviz version 12.2.1 (0)
 -->
<!-- Title: G Pages: 1 -->
<svg width="893pt" height="405pt"
 viewBox="36.00 36.00 857.10 369.29" xmlns="http://www.w3.org/2000/svg" xmlns:xlink="http://www.w3.org/1999/xlink">
<g id="graph0" class="graph" transform="scale(1 1) rotate(0) translate(40 365.29)">
<title>G</title>
<polygon fill="white" stroke="none" points="-4,4 -4,-329.29 817.1,-329.29 817.1,4 -4,4"/>
<text text-anchor="middle" x="406.55" y="-308.69" font-family="Times New Roman,serif" font-size="14.00">(&#39;best_3tree_500pop_15gen_20runs_res200_20subrun&#39;, &#39;&#39;)</text>
<!-- 0 -->
<g id="node1" class="node">
<title>0</title>
<ellipse fill="white" stroke="black" cx="333.04" cy="-262.43" rx="63.57" ry="22.06"/>
<text text-anchor="middle" x="333.04" y="-258.23" font-family="Arial" font-size="14.00">if_then_else</text>
</g>
<!-- 1 -->
<g id="node2" class="node">
<title>1</title>
<ellipse fill="white" stroke="black" cx="114.04" cy="-182.31" rx="71.26" ry="22.06"/>
<text text-anchor="middle" x="114.04" y="-178.11" font-family="Arial" font-size="14.00">identity_water</text>
</g>
<!-- 0&#45;&gt;1 -->
<g id="edge1" class="edge">
<title>0&#45;&gt;1</title>
<path fill="none" stroke="black" d="M289.52,-245.9C255.34,-233.71 207.5,-216.65 170.4,-203.41"/>
<polygon fill="black" stroke="black" points="171.77,-200.19 161.18,-200.12 169.42,-206.78 171.77,-200.19"/>
</g>
<!-- 3 -->
<g id="node4" class="node">
<title>3</title>
<ellipse fill="white" stroke="black" cx="333.04" cy="-182.31" rx="63.57" ry="22.06"/>
<text text-anchor="middle" x="333.04" y="-178.11" font-family="Arial" font-size="14.00">if_then_else</text>
</g>
<!-- 0&#45;&gt;3 -->
<g id="edge3" class="edge">
<title>0&#45;&gt;3</title>
<path fill="none" stroke="black" d="M333.04,-240.08C333.04,-232.68 333.04,-224.19 333.04,-216.08"/>
<polygon fill="black" stroke="black" points="336.54,-216.14 333.04,-206.14 329.54,-216.14 336.54,-216.14"/>
</g>
<!-- 8 -->
<g id="node9" class="node">
<title>8</title>
<ellipse fill="white" stroke="black" cx="606.04" cy="-182.31" rx="27" ry="22.06"/>
<text text-anchor="middle" x="606.04" y="-178.11" font-family="Arial" font-size="14.00">mul</text>
</g>
<!-- 0&#45;&gt;8 -->
<g id="edge8" class="edge">
<title>0&#45;&gt;8</title>
<path fill="none" stroke="black" d="M381.22,-247.65C435.07,-232.23 521.06,-207.63 569.6,-193.74"/>
<polygon fill="black" stroke="black" points="570.41,-197.15 579.06,-191.03 568.49,-190.42 570.41,-197.15"/>
</g>
<!-- 2 -->
<g id="node3" class="node">
<title>2</title>
<ellipse fill="white" stroke="black" cx="47.04" cy="-102.19" rx="47.04" ry="22.06"/>
<text text-anchor="middle" x="47.04" y="-97.99" font-family="Arial" font-size="14.00">is_water</text>
</g>
<!-- 1&#45;&gt;2 -->
<g id="edge2" class="edge">
<title>1&#45;&gt;2</title>
<path fill="none" stroke="black" d="M96.44,-160.78C88.78,-151.85 79.68,-141.24 71.39,-131.57"/>
<polygon fill="black" stroke="black" points="74.22,-129.5 65.05,-124.18 68.91,-134.05 74.22,-129.5"/>
</g>
<!-- 4 -->
<g id="node5" class="node">
<title>4</title>
<ellipse fill="white" stroke="black" cx="183.04" cy="-102.19" rx="71.26" ry="22.06"/>
<text text-anchor="middle" x="183.04" y="-97.99" font-family="Arial" font-size="14.00">identity_water</text>
</g>
<!-- 3&#45;&gt;4 -->
<g id="edge4" class="edge">
<title>3&#45;&gt;4</title>
<path fill="none" stroke="black" d="M298.63,-163.39C277.85,-152.56 251.13,-138.65 228.61,-126.92"/>
<polygon fill="black" stroke="black" points="230.43,-123.92 219.94,-122.4 227.2,-130.13 230.43,-123.92"/>
</g>
<!-- 6 -->
<g id="node7" class="node">
<title>6</title>
<ellipse fill="white" stroke="black" cx="333.04" cy="-102.19" rx="60.26" ry="22.06"/>
<text text-anchor="middle" x="333.04" y="-97.99" font-family="Arial" font-size="14.00">elevation_v</text>
</g>
<!-- 3&#45;&gt;6 -->
<g id="edge6" class="edge">
<title>3&#45;&gt;6</title>
<path fill="none" stroke="black" d="M333.04,-159.96C333.04,-152.55 333.04,-144.07 333.04,-135.96"/>
<polygon fill="black" stroke="black" points="336.54,-136.02 333.04,-126.02 329.54,-136.02 336.54,-136.02"/>
</g>
<!-- 7 -->
<g id="node8" class="node">
<title>7</title>
<ellipse fill="white" stroke="black" cx="472.04" cy="-102.19" rx="60.82" ry="22.06"/>
<text text-anchor="middle" x="472.04" y="-97.99" font-family="Arial" font-size="14.00">elevation_u</text>
</g>
<!-- 3&#45;&gt;7 -->
<g id="edge7" class="edge">
<title>3&#45;&gt;7</title>
<path fill="none" stroke="black" d="M365.63,-162.99C384.94,-152.14 409.6,-138.28 430.32,-126.63"/>
<polygon fill="black" stroke="black" points="431.82,-129.81 438.82,-121.86 428.39,-123.71 431.82,-129.81"/>
</g>
<!-- 5 -->
<g id="node6" class="node">
<title>5</title>
<ellipse fill="white" stroke="black" cx="183.04" cy="-22.06" rx="47.04" ry="22.06"/>
<text text-anchor="middle" x="183.04" y="-17.86" font-family="Arial" font-size="14.00">is_water</text>
</g>
<!-- 4&#45;&gt;5 -->
<g id="edge5" class="edge">
<title>4&#45;&gt;5</title>
<path fill="none" stroke="black" d="M183.04,-79.84C183.04,-72.43 183.04,-63.95 183.04,-55.83"/>
<polygon fill="black" stroke="black" points="186.54,-55.9 183.04,-45.9 179.54,-55.9 186.54,-55.9"/>
</g>
<!-- 9 -->
<g id="node10" class="node">
<title>9</title>
<ellipse fill="white" stroke="black" cx="606.04" cy="-102.19" rx="55.31" ry="22.06"/>
<text text-anchor="middle" x="606.04" y="-97.99" font-family="Arial" font-size="14.00">steepness</text>
</g>
<!-- 8&#45;&gt;9 -->
<g id="edge9" class="edge">
<title>8&#45;&gt;9</title>
<path fill="none" stroke="black" d="M606.04,-159.96C606.04,-152.55 606.04,-144.07 606.04,-135.96"/>
<polygon fill="black" stroke="black" points="609.54,-136.02 606.04,-126.02 602.54,-136.02 609.54,-136.02"/>
</g>
<!-- 10 -->
<g id="node11" class="node">
<title>10</title>
<ellipse fill="white" stroke="black" cx="706.04" cy="-102.19" rx="27" ry="22.06"/>
<text text-anchor="middle" x="706.04" y="-97.99" font-family="Arial" font-size="14.00">sub</text>
</g>
<!-- 8&#45;&gt;10 -->
<g id="edge10" class="edge">
<title>8&#45;&gt;10</title>
<path fill="none" stroke="black" d="M625.33,-166.25C640.27,-154.57 661.18,-138.23 677.98,-125.11"/>
<polygon fill="black" stroke="black" points="679.9,-128.05 685.63,-119.13 675.59,-122.53 679.9,-128.05"/>
</g>
<!-- 11 -->
<g id="node12" class="node">
<title>11</title>
<ellipse fill="white" stroke="black" cx="646.04" cy="-22.06" rx="55.31" ry="22.06"/>
<text text-anchor="middle" x="646.04" y="-17.86" font-family="Arial" font-size="14.00">steepness</text>
</g>
<!-- 10&#45;&gt;11 -->
<g id="edge11" class="edge">
<title>10&#45;&gt;11</title>
<path fill="none" stroke="black" d="M692.13,-83.07C685.18,-74.02 676.61,-62.86 668.74,-52.62"/>
<polygon fill="black" stroke="black" points="671.58,-50.56 662.71,-44.76 666.03,-54.83 671.58,-50.56"/>
</g>
<!-- 12 -->
<g id="node13" class="node">
<title>12</title>
<ellipse fill="white" stroke="black" cx="766.04" cy="-22.06" rx="47.05" ry="22.06"/>
<text text-anchor="middle" x="766.04" y="-17.86" font-family="Arial" font-size="14.00">distance</text>
</g>
<!-- 10&#45;&gt;12 -->
<g id="edge12" class="edge">
<title>10&#45;&gt;12</title>
<path fill="none" stroke="black" d="M719.96,-83.07C726.96,-73.95 735.61,-62.69 743.53,-52.38"/>
<polygon fill="black" stroke="black" points="746.28,-54.55 749.59,-44.48 740.73,-50.28 746.28,-54.55"/>
</g>
</g>
</svg>
