<?xml version="1.0" encoding="UTF-8" standalone="no"?>
<!DOCTYPE svg PUBLIC "-//W3C//DTD SVG 1.1//EN"
 "http://www.w3.org/Graphics/SVG/1.1/DTD/svg11.dtd">
<!-- Generated by graphviz version 12.2.1 (0)
 -->
<!-- Title: G Pages: 1 -->
<svg width="781pt" height="405pt"
 viewBox="36.00 36.00 745.32 369.29" xmlns="http://www.w3.org/2000/svg" xmlns:xlink="http://www.w3.org/1999/xlink">
<g id="graph0" class="graph" transform="scale(1 1) rotate(0) translate(40 365.29)">
<title>G</title>
<polygon fill="white" stroke="none" points="-4,4 -4,-329.29 705.32,-329.29 705.32,4 -4,4"/>
<text text-anchor="middle" x="350.66" y="-308.69" font-family="Times New Roman,serif" font-size="14.00">(&#39;best_4tree_500pop_15gen_20runs_res200_20subrun&#39;, &#39;&#39;)</text>
<!-- 0 -->
<g id="node1" class="node">
<title>0</title>
<ellipse fill="white" stroke="black" cx="290.26" cy="-262.43" rx="63.57" ry="22.06"/>
<text text-anchor="middle" x="290.26" y="-258.23" font-family="Arial" font-size="14.00">if_then_else</text>
</g>
<!-- 1 -->
<g id="node2" class="node">
<title>1</title>
<ellipse fill="white" stroke="black" cx="161.26" cy="-182.31" rx="47.04" ry="22.06"/>
<text text-anchor="middle" x="161.26" y="-178.11" font-family="Arial" font-size="14.00">is_water</text>
</g>
<!-- 0&#45;&gt;1 -->
<g id="edge1" class="edge">
<title>0&#45;&gt;1</title>
<path fill="none" stroke="black" d="M259.36,-242.72C241.21,-231.73 218.13,-217.75 198.92,-206.11"/>
<polygon fill="black" stroke="black" points="200.93,-203.24 190.56,-201.05 197.3,-209.23 200.93,-203.24"/>
</g>
<!-- 2 -->
<g id="node3" class="node">
<title>2</title>
<ellipse fill="white" stroke="black" cx="290.26" cy="-182.31" rx="63.57" ry="22.06"/>
<text text-anchor="middle" x="290.26" y="-178.11" font-family="Arial" font-size="14.00">if_then_else</text>
</g>
<!-- 0&#45;&gt;2 -->
<g id="edge2" class="edge">
<title>0&#45;&gt;2</title>
<path fill="none" stroke="black" d="M290.26,-240.08C290.26,-232.68 290.26,-224.19 290.26,-216.08"/>
<polygon fill="black" stroke="black" points="293.76,-216.14 290.26,-206.14 286.76,-216.14 293.76,-216.14"/>
</g>
<!-- 7 -->
<g id="node8" class="node">
<title>7</title>
<ellipse fill="white" stroke="black" cx="494.26" cy="-182.31" rx="27" ry="22.06"/>
<text text-anchor="middle" x="494.26" y="-178.11" font-family="Arial" font-size="14.00">mul</text>
</g>
<!-- 0&#45;&gt;7 -->
<g id="edge7" class="edge">
<title>0&#45;&gt;7</title>
<path fill="none" stroke="black" d="M332.04,-245.43C369.59,-231.05 424.1,-210.18 459.37,-196.67"/>
<polygon fill="black" stroke="black" points="460.6,-199.95 468.69,-193.1 458.1,-193.41 460.6,-199.95"/>
</g>
<!-- 3 -->
<g id="node4" class="node">
<title>3</title>
<ellipse fill="white" stroke="black" cx="71.26" cy="-102.19" rx="71.26" ry="22.06"/>
<text text-anchor="middle" x="71.26" y="-97.99" font-family="Arial" font-size="14.00">identity_water</text>
</g>
<!-- 2&#45;&gt;3 -->
<g id="edge3" class="edge">
<title>2&#45;&gt;3</title>
<path fill="none" stroke="black" d="M246.73,-165.78C212.56,-153.59 164.72,-136.52 127.62,-123.29"/>
<polygon fill="black" stroke="black" points="128.99,-120.06 118.4,-120 126.64,-126.66 128.99,-120.06"/>
</g>
<!-- 5 -->
<g id="node6" class="node">
<title>5</title>
<ellipse fill="white" stroke="black" cx="221.26" cy="-102.19" rx="60.26" ry="22.06"/>
<text text-anchor="middle" x="221.26" y="-97.99" font-family="Arial" font-size="14.00">elevation_v</text>
</g>
<!-- 2&#45;&gt;5 -->
<g id="edge5" class="edge">
<title>2&#45;&gt;5</title>
<path fill="none" stroke="black" d="M272.13,-160.78C264.37,-151.99 255.16,-141.57 246.73,-132.02"/>
<polygon fill="black" stroke="black" points="249.51,-129.89 240.27,-124.71 244.27,-134.52 249.51,-129.89"/>
</g>
<!-- 6 -->
<g id="node7" class="node">
<title>6</title>
<ellipse fill="white" stroke="black" cx="360.26" cy="-102.19" rx="60.82" ry="22.06"/>
<text text-anchor="middle" x="360.26" y="-97.99" font-family="Arial" font-size="14.00">elevation_u</text>
</g>
<!-- 2&#45;&gt;6 -->
<g id="edge6" class="edge">
<title>2&#45;&gt;6</title>
<path fill="none" stroke="black" d="M308.65,-160.78C316.53,-151.99 325.87,-141.57 334.42,-132.02"/>
<polygon fill="black" stroke="black" points="336.92,-134.48 340.98,-124.7 331.7,-129.81 336.92,-134.48"/>
</g>
<!-- 4 -->
<g id="node5" class="node">
<title>4</title>
<ellipse fill="white" stroke="black" cx="71.26" cy="-22.06" rx="47.04" ry="22.06"/>
<text text-anchor="middle" x="71.26" y="-17.86" font-family="Arial" font-size="14.00">is_water</text>
</g>
<!-- 3&#45;&gt;4 -->
<g id="edge4" class="edge">
<title>3&#45;&gt;4</title>
<path fill="none" stroke="black" d="M71.26,-79.84C71.26,-72.43 71.26,-63.95 71.26,-55.83"/>
<polygon fill="black" stroke="black" points="74.76,-55.9 71.26,-45.9 67.76,-55.9 74.76,-55.9"/>
</g>
<!-- 8 -->
<g id="node9" class="node">
<title>8</title>
<ellipse fill="white" stroke="black" cx="494.26" cy="-102.19" rx="55.31" ry="22.06"/>
<text text-anchor="middle" x="494.26" y="-97.99" font-family="Arial" font-size="14.00">steepness</text>
</g>
<!-- 7&#45;&gt;8 -->
<g id="edge8" class="edge">
<title>7&#45;&gt;8</title>
<path fill="none" stroke="black" d="M494.26,-159.96C494.26,-152.55 494.26,-144.07 494.26,-135.96"/>
<polygon fill="black" stroke="black" points="497.76,-136.02 494.26,-126.02 490.76,-136.02 497.76,-136.02"/>
</g>
<!-- 9 -->
<g id="node10" class="node">
<title>9</title>
<ellipse fill="white" stroke="black" cx="594.26" cy="-102.19" rx="27" ry="22.06"/>
<text text-anchor="middle" x="594.26" y="-97.99" font-family="Arial" font-size="14.00">sub</text>
</g>
<!-- 7&#45;&gt;9 -->
<g id="edge9" class="edge">
<title>7&#45;&gt;9</title>
<path fill="none" stroke="black" d="M513.54,-166.25C528.48,-154.57 549.4,-138.23 566.2,-125.11"/>
<polygon fill="black" stroke="black" points="568.12,-128.05 573.85,-119.13 563.81,-122.53 568.12,-128.05"/>
</g>
<!-- 10 -->
<g id="node11" class="node">
<title>10</title>
<ellipse fill="white" stroke="black" cx="534.26" cy="-22.06" rx="55.31" ry="22.06"/>
<text text-anchor="middle" x="534.26" y="-17.86" font-family="Arial" font-size="14.00">steepness</text>
</g>
<!-- 9&#45;&gt;10 -->
<g id="edge10" class="edge">
<title>9&#45;&gt;10</title>
<path fill="none" stroke="black" d="M580.35,-83.07C573.4,-74.02 564.82,-62.86 556.96,-52.62"/>
<polygon fill="black" stroke="black" points="559.79,-50.56 550.93,-44.76 554.24,-54.83 559.79,-50.56"/>
</g>
<!-- 11 -->
<g id="node12" class="node">
<title>11</title>
<ellipse fill="white" stroke="black" cx="654.26" cy="-22.06" rx="47.05" ry="22.06"/>
<text text-anchor="middle" x="654.26" y="-17.86" font-family="Arial" font-size="14.00">distance</text>
</g>
<!-- 9&#45;&gt;11 -->
<g id="edge11" class="edge">
<title>9&#45;&gt;11</title>
<path fill="none" stroke="black" d="M608.18,-83.07C615.17,-73.95 623.83,-62.69 631.74,-52.38"/>
<polygon fill="black" stroke="black" points="634.49,-54.55 637.81,-44.48 628.94,-50.28 634.49,-54.55"/>
</g>
</g>
</svg>
