<?xml version="1.0" encoding="UTF-8" standalone="no"?>
<!DOCTYPE svg PUBLIC "-//W3C//DTD SVG 1.1//EN"
 "http://www.w3.org/Graphics/SVG/1.1/DTD/svg11.dtd">
<!-- Generated by graphviz version 12.2.1 (0)
 -->
<!-- Title: G Pages: 1 -->
<svg width="902pt" height="405pt"
 viewBox="36.00 36.00 866.32 369.29" xmlns="http://www.w3.org/2000/svg" xmlns:xlink="http://www.w3.org/1999/xlink">
<g id="graph0" class="graph" transform="scale(1 1) rotate(0) translate(40 365.29)">
<title>G</title>
<polygon fill="white" stroke="none" points="-4,4 -4,-329.29 826.32,-329.29 826.32,4 -4,4"/>
<text text-anchor="middle" x="411.16" y="-308.69" font-family="Times New Roman,serif" font-size="14.00">(&#39;best_1tree_500pop_15gen_20runs_res200_20subrun&#39;, &#39;&#39;)</text>
<!-- 0 -->
<g id="node1" class="node">
<title>0</title>
<ellipse fill="white" stroke="black" cx="382.26" cy="-262.43" rx="63.57" ry="22.06"/>
<text text-anchor="middle" x="382.26" y="-258.23" font-family="Arial" font-size="14.00">if_then_else</text>
</g>
<!-- 1 -->
<g id="node2" class="node">
<title>1</title>
<ellipse fill="white" stroke="black" cx="150.26" cy="-182.31" rx="71.26" ry="22.06"/>
<text text-anchor="middle" x="150.26" y="-178.11" font-family="Arial" font-size="14.00">identity_water</text>
</g>
<!-- 0&#45;&gt;1 -->
<g id="edge1" class="edge">
<title>0&#45;&gt;1</title>
<path fill="none" stroke="black" d="M337.53,-246.37C300.62,-233.94 248,-216.22 207.93,-202.73"/>
<polygon fill="black" stroke="black" points="209.27,-199.49 198.68,-199.61 207.04,-206.12 209.27,-199.49"/>
</g>
<!-- 4 -->
<g id="node5" class="node">
<title>4</title>
<ellipse fill="white" stroke="black" cx="382.26" cy="-182.31" rx="63.57" ry="22.06"/>
<text text-anchor="middle" x="382.26" y="-178.11" font-family="Arial" font-size="14.00">if_then_else</text>
</g>
<!-- 0&#45;&gt;4 -->
<g id="edge4" class="edge">
<title>0&#45;&gt;4</title>
<path fill="none" stroke="black" d="M382.26,-240.08C382.26,-232.68 382.26,-224.19 382.26,-216.08"/>
<polygon fill="black" stroke="black" points="385.76,-216.14 382.26,-206.14 378.76,-216.14 385.76,-216.14"/>
</g>
<!-- 9 -->
<g id="node10" class="node">
<title>9</title>
<ellipse fill="white" stroke="black" cx="655.26" cy="-182.31" rx="27" ry="22.06"/>
<text text-anchor="middle" x="655.26" y="-178.11" font-family="Arial" font-size="14.00">sub</text>
</g>
<!-- 0&#45;&gt;9 -->
<g id="edge9" class="edge">
<title>0&#45;&gt;9</title>
<path fill="none" stroke="black" d="M430.44,-247.65C484.29,-232.23 570.28,-207.63 618.82,-193.74"/>
<polygon fill="black" stroke="black" points="619.63,-197.15 628.28,-191.03 617.7,-190.42 619.63,-197.15"/>
</g>
<!-- 2 -->
<g id="node3" class="node">
<title>2</title>
<ellipse fill="white" stroke="black" cx="71.26" cy="-102.19" rx="71.26" ry="22.06"/>
<text text-anchor="middle" x="71.26" y="-97.99" font-family="Arial" font-size="14.00">identity_water</text>
</g>
<!-- 1&#45;&gt;2 -->
<g id="edge2" class="edge">
<title>1&#45;&gt;2</title>
<path fill="none" stroke="black" d="M129.51,-160.78C120.43,-151.81 109.64,-141.14 99.83,-131.44"/>
<polygon fill="black" stroke="black" points="102.53,-129.18 92.96,-124.64 97.6,-134.16 102.53,-129.18"/>
</g>
<!-- 3 -->
<g id="node4" class="node">
<title>3</title>
<ellipse fill="white" stroke="black" cx="71.26" cy="-22.06" rx="47.04" ry="22.06"/>
<text text-anchor="middle" x="71.26" y="-17.86" font-family="Arial" font-size="14.00">is_water</text>
</g>
<!-- 2&#45;&gt;3 -->
<g id="edge3" class="edge">
<title>2&#45;&gt;3</title>
<path fill="none" stroke="black" d="M71.26,-79.84C71.26,-72.43 71.26,-63.95 71.26,-55.83"/>
<polygon fill="black" stroke="black" points="74.76,-55.9 71.26,-45.9 67.76,-55.9 74.76,-55.9"/>
</g>
<!-- 5 -->
<g id="node6" class="node">
<title>5</title>
<ellipse fill="white" stroke="black" cx="232.26" cy="-102.19" rx="71.26" ry="22.06"/>
<text text-anchor="middle" x="232.26" y="-97.99" font-family="Arial" font-size="14.00">identity_water</text>
</g>
<!-- 4&#45;&gt;5 -->
<g id="edge5" class="edge">
<title>4&#45;&gt;5</title>
<path fill="none" stroke="black" d="M347.85,-163.39C327.07,-152.56 300.35,-138.65 277.83,-126.92"/>
<polygon fill="black" stroke="black" points="279.65,-123.92 269.16,-122.4 276.41,-130.13 279.65,-123.92"/>
</g>
<!-- 7 -->
<g id="node8" class="node">
<title>7</title>
<ellipse fill="white" stroke="black" cx="382.26" cy="-102.19" rx="60.26" ry="22.06"/>
<text text-anchor="middle" x="382.26" y="-97.99" font-family="Arial" font-size="14.00">elevation_v</text>
</g>
<!-- 4&#45;&gt;7 -->
<g id="edge7" class="edge">
<title>4&#45;&gt;7</title>
<path fill="none" stroke="black" d="M382.26,-159.96C382.26,-152.55 382.26,-144.07 382.26,-135.96"/>
<polygon fill="black" stroke="black" points="385.76,-136.02 382.26,-126.02 378.76,-136.02 385.76,-136.02"/>
</g>
<!-- 8 -->
<g id="node9" class="node">
<title>8</title>
<ellipse fill="white" stroke="black" cx="521.26" cy="-102.19" rx="60.82" ry="22.06"/>
<text text-anchor="middle" x="521.26" y="-97.99" font-family="Arial" font-size="14.00">elevation_u</text>
</g>
<!-- 4&#45;&gt;8 -->
<g id="edge8" class="edge">
<title>4&#45;&gt;8</title>
<path fill="none" stroke="black" d="M414.85,-162.99C434.16,-152.14 458.82,-138.28 479.54,-126.63"/>
<polygon fill="black" stroke="black" points="481.03,-129.81 488.04,-121.86 477.6,-123.71 481.03,-129.81"/>
</g>
<!-- 6 -->
<g id="node7" class="node">
<title>6</title>
<ellipse fill="white" stroke="black" cx="232.26" cy="-22.06" rx="47.04" ry="22.06"/>
<text text-anchor="middle" x="232.26" y="-17.86" font-family="Arial" font-size="14.00">is_water</text>
</g>
<!-- 5&#45;&gt;6 -->
<g id="edge6" class="edge">
<title>5&#45;&gt;6</title>
<path fill="none" stroke="black" d="M232.26,-79.84C232.26,-72.43 232.26,-63.95 232.26,-55.83"/>
<polygon fill="black" stroke="black" points="235.76,-55.9 232.26,-45.9 228.76,-55.9 235.76,-55.9"/>
</g>
<!-- 10 -->
<g id="node11" class="node">
<title>10</title>
<ellipse fill="white" stroke="black" cx="655.26" cy="-102.19" rx="55.31" ry="22.06"/>
<text text-anchor="middle" x="655.26" y="-97.99" font-family="Arial" font-size="14.00">steepness</text>
</g>
<!-- 9&#45;&gt;10 -->
<g id="edge10" class="edge">
<title>9&#45;&gt;10</title>
<path fill="none" stroke="black" d="M655.26,-159.96C655.26,-152.55 655.26,-144.07 655.26,-135.96"/>
<polygon fill="black" stroke="black" points="658.76,-136.02 655.26,-126.02 651.76,-136.02 658.76,-136.02"/>
</g>
<!-- 11 -->
<g id="node12" class="node">
<title>11</title>
<ellipse fill="white" stroke="black" cx="775.26" cy="-102.19" rx="47.05" ry="22.06"/>
<text text-anchor="middle" x="775.26" y="-97.99" font-family="Arial" font-size="14.00">distance</text>
</g>
<!-- 9&#45;&gt;11 -->
<g id="edge11" class="edge">
<title>9&#45;&gt;11</title>
<path fill="none" stroke="black" d="M676.16,-167.7C693.44,-156.45 718.37,-140.22 738.91,-126.85"/>
<polygon fill="black" stroke="black" points="740.55,-129.96 747.02,-121.57 736.73,-124.1 740.55,-129.96"/>
</g>
</g>
</svg>
