<?xml version="1.0" encoding="UTF-8" standalone="no"?>
<!DOCTYPE svg PUBLIC "-//W3C//DTD SVG 1.1//EN"
 "http://www.w3.org/Graphics/SVG/1.1/DTD/svg11.dtd">
<!-- Generated by graphviz version 12.2.1 (0)
 -->
<!-- Title: G Pages: 1 -->
<svg width="892pt" height="405pt"
 viewBox="36.00 36.00 856.32 369.29" xmlns="http://www.w3.org/2000/svg" xmlns:xlink="http://www.w3.org/1999/xlink">
<g id="graph0" class="graph" transform="scale(1 1) rotate(0) translate(40 365.29)">
<title>G</title>
<polygon fill="white" stroke="none" points="-4,4 -4,-329.29 816.32,-329.29 816.32,4 -4,4"/>
<text text-anchor="middle" x="406.16" y="-308.69" font-family="Times New Roman,serif" font-size="14.00">(&#39;best_2tree_500pop_15gen_20runs_res200_20subrun&#39;, &#39;&#39;)</text>
<!-- 0 -->
<g id="node1" class="node">
<title>0</title>
<ellipse fill="white" stroke="black" cx="332.26" cy="-262.43" rx="63.57" ry="22.06"/>
<text text-anchor="middle" x="332.26" y="-258.23" font-family="Arial" font-size="14.00">if_then_else</text>
</g>
<!-- 1 -->
<g id="node2" class="node">
<title>1</title>
<ellipse fill="white" stroke="black" cx="125.26" cy="-182.31" rx="71.26" ry="22.06"/>
<text text-anchor="middle" x="125.26" y="-178.11" font-family="Arial" font-size="14.00">identity_water</text>
</g>
<!-- 0&#45;&gt;1 -->
<g id="edge1" class="edge">
<title>0&#45;&gt;1</title>
<path fill="none" stroke="black" d="M290.12,-245.53C258.31,-233.52 214.38,-216.94 179.87,-203.92"/>
<polygon fill="black" stroke="black" points="181.49,-200.79 170.9,-200.53 179.02,-207.34 181.49,-200.79"/>
</g>
<!-- 4 -->
<g id="node5" class="node">
<title>4</title>
<ellipse fill="white" stroke="black" cx="332.26" cy="-182.31" rx="63.57" ry="22.06"/>
<text text-anchor="middle" x="332.26" y="-178.11" font-family="Arial" font-size="14.00">if_then_else</text>
</g>
<!-- 0&#45;&gt;4 -->
<g id="edge4" class="edge">
<title>0&#45;&gt;4</title>
<path fill="none" stroke="black" d="M332.26,-240.08C332.26,-232.68 332.26,-224.19 332.26,-216.08"/>
<polygon fill="black" stroke="black" points="335.76,-216.14 332.26,-206.14 328.76,-216.14 335.76,-216.14"/>
</g>
<!-- 8 -->
<g id="node9" class="node">
<title>8</title>
<ellipse fill="white" stroke="black" cx="605.26" cy="-182.31" rx="27" ry="22.06"/>
<text text-anchor="middle" x="605.26" y="-178.11" font-family="Arial" font-size="14.00">mul</text>
</g>
<!-- 0&#45;&gt;8 -->
<g id="edge8" class="edge">
<title>0&#45;&gt;8</title>
<path fill="none" stroke="black" d="M380.44,-247.65C434.29,-232.23 520.28,-207.63 568.82,-193.74"/>
<polygon fill="black" stroke="black" points="569.63,-197.15 578.28,-191.03 567.7,-190.42 569.63,-197.15"/>
</g>
<!-- 2 -->
<g id="node3" class="node">
<title>2</title>
<ellipse fill="white" stroke="black" cx="71.26" cy="-102.19" rx="71.26" ry="22.06"/>
<text text-anchor="middle" x="71.26" y="-97.99" font-family="Arial" font-size="14.00">identity_water</text>
</g>
<!-- 1&#45;&gt;2 -->
<g id="edge2" class="edge">
<title>1&#45;&gt;2</title>
<path fill="none" stroke="black" d="M110.79,-160.37C105.1,-152.14 98.46,-142.53 92.26,-133.56"/>
<polygon fill="black" stroke="black" points="95.2,-131.66 86.63,-125.42 89.44,-135.64 95.2,-131.66"/>
</g>
<!-- 3 -->
<g id="node4" class="node">
<title>3</title>
<ellipse fill="white" stroke="black" cx="71.26" cy="-22.06" rx="47.04" ry="22.06"/>
<text text-anchor="middle" x="71.26" y="-17.86" font-family="Arial" font-size="14.00">is_water</text>
</g>
<!-- 2&#45;&gt;3 -->
<g id="edge3" class="edge">
<title>2&#45;&gt;3</title>
<path fill="none" stroke="black" d="M71.26,-79.84C71.26,-72.43 71.26,-63.95 71.26,-55.83"/>
<polygon fill="black" stroke="black" points="74.76,-55.9 71.26,-45.9 67.76,-55.9 74.76,-55.9"/>
</g>
<!-- 5 -->
<g id="node6" class="node">
<title>5</title>
<ellipse fill="white" stroke="black" cx="207.26" cy="-102.19" rx="47.04" ry="22.06"/>
<text text-anchor="middle" x="207.26" y="-97.99" font-family="Arial" font-size="14.00">is_water</text>
</g>
<!-- 4&#45;&gt;5 -->
<g id="edge5" class="edge">
<title>4&#45;&gt;5</title>
<path fill="none" stroke="black" d="M302.32,-162.6C284.93,-151.73 262.88,-137.95 244.4,-126.39"/>
<polygon fill="black" stroke="black" points="246.44,-123.54 236.1,-121.21 242.73,-129.48 246.44,-123.54"/>
</g>
<!-- 6 -->
<g id="node7" class="node">
<title>6</title>
<ellipse fill="white" stroke="black" cx="332.26" cy="-102.19" rx="60.26" ry="22.06"/>
<text text-anchor="middle" x="332.26" y="-97.99" font-family="Arial" font-size="14.00">elevation_v</text>
</g>
<!-- 4&#45;&gt;6 -->
<g id="edge6" class="edge">
<title>4&#45;&gt;6</title>
<path fill="none" stroke="black" d="M332.26,-159.96C332.26,-152.55 332.26,-144.07 332.26,-135.96"/>
<polygon fill="black" stroke="black" points="335.76,-136.02 332.26,-126.02 328.76,-136.02 335.76,-136.02"/>
</g>
<!-- 7 -->
<g id="node8" class="node">
<title>7</title>
<ellipse fill="white" stroke="black" cx="471.26" cy="-102.19" rx="60.82" ry="22.06"/>
<text text-anchor="middle" x="471.26" y="-97.99" font-family="Arial" font-size="14.00">elevation_u</text>
</g>
<!-- 4&#45;&gt;7 -->
<g id="edge7" class="edge">
<title>4&#45;&gt;7</title>
<path fill="none" stroke="black" d="M364.85,-162.99C384.16,-152.14 408.82,-138.28 429.54,-126.63"/>
<polygon fill="black" stroke="black" points="431.03,-129.81 438.04,-121.86 427.6,-123.71 431.03,-129.81"/>
</g>
<!-- 9 -->
<g id="node10" class="node">
<title>9</title>
<ellipse fill="white" stroke="black" cx="605.26" cy="-102.19" rx="55.31" ry="22.06"/>
<text text-anchor="middle" x="605.26" y="-97.99" font-family="Arial" font-size="14.00">steepness</text>
</g>
<!-- 8&#45;&gt;9 -->
<g id="edge9" class="edge">
<title>8&#45;&gt;9</title>
<path fill="none" stroke="black" d="M605.26,-159.96C605.26,-152.55 605.26,-144.07 605.26,-135.96"/>
<polygon fill="black" stroke="black" points="608.76,-136.02 605.26,-126.02 601.76,-136.02 608.76,-136.02"/>
</g>
<!-- 10 -->
<g id="node11" class="node">
<title>10</title>
<ellipse fill="white" stroke="black" cx="705.26" cy="-102.19" rx="27" ry="22.06"/>
<text text-anchor="middle" x="705.26" y="-97.99" font-family="Arial" font-size="14.00">sub</text>
</g>
<!-- 8&#45;&gt;10 -->
<g id="edge10" class="edge">
<title>8&#45;&gt;10</title>
<path fill="none" stroke="black" d="M624.54,-166.25C639.48,-154.57 660.4,-138.23 677.2,-125.11"/>
<polygon fill="black" stroke="black" points="679.12,-128.05 684.85,-119.13 674.81,-122.53 679.12,-128.05"/>
</g>
<!-- 11 -->
<g id="node12" class="node">
<title>11</title>
<ellipse fill="white" stroke="black" cx="645.26" cy="-22.06" rx="55.31" ry="22.06"/>
<text text-anchor="middle" x="645.26" y="-17.86" font-family="Arial" font-size="14.00">steepness</text>
</g>
<!-- 10&#45;&gt;11 -->
<g id="edge11" class="edge">
<title>10&#45;&gt;11</title>
<path fill="none" stroke="black" d="M691.35,-83.07C684.4,-74.02 675.82,-62.86 667.96,-52.62"/>
<polygon fill="black" stroke="black" points="670.79,-50.56 661.93,-44.76 665.24,-54.83 670.79,-50.56"/>
</g>
<!-- 12 -->
<g id="node13" class="node">
<title>12</title>
<ellipse fill="white" stroke="black" cx="765.26" cy="-22.06" rx="47.05" ry="22.06"/>
<text text-anchor="middle" x="765.26" y="-17.86" font-family="Arial" font-size="14.00">distance</text>
</g>
<!-- 10&#45;&gt;12 -->
<g id="edge12" class="edge">
<title>10&#45;&gt;12</title>
<path fill="none" stroke="black" d="M719.18,-83.07C726.17,-73.95 734.83,-62.69 742.74,-52.38"/>
<polygon fill="black" stroke="black" points="745.49,-54.55 748.81,-44.48 739.94,-50.28 745.49,-54.55"/>
</g>
</g>
</svg>
