<?xml version="1.0" encoding="UTF-8" standalone="no"?>
<!DOCTYPE svg PUBLIC "-//W3C//DTD SVG 1.1//EN"
 "http://www.w3.org/Graphics/SVG/1.1/DTD/svg11.dtd">
<!-- Generated by graphviz version 12.2.1 (0)
 -->
<!-- Title: G Pages: 1 -->
<svg width="555pt" height="405pt"
 viewBox="36.00 36.00 518.57 369.29" xmlns="http://www.w3.org/2000/svg" xmlns:xlink="http://www.w3.org/1999/xlink">
<g id="graph0" class="graph" transform="scale(1 1) rotate(0) translate(40 365.29)">
<title>G</title>
<polygon fill="white" stroke="none" points="-4,4 -4,-329.29 478.57,-329.29 478.57,4 -4,4"/>
<text text-anchor="middle" x="237.29" y="-308.69" font-family="Times New Roman,serif" font-size="14.00">(&#39;best_tree_500pop_15gen_25runs_res200_2subrun&#39;, &#39;&#39;)</text>
<!-- 0 -->
<g id="node1" class="node">
<title>0</title>
<ellipse fill="white" stroke="black" cx="207.26" cy="-262.43" rx="63.57" ry="22.06"/>
<text text-anchor="middle" x="207.26" y="-258.23" font-family="Arial" font-size="14.00">if_then_else</text>
</g>
<!-- 1 -->
<g id="node2" class="node">
<title>1</title>
<ellipse fill="white" stroke="black" cx="71.26" cy="-182.31" rx="71.26" ry="22.06"/>
<text text-anchor="middle" x="71.26" y="-178.11" font-family="Arial" font-size="14.00">identity_water</text>
</g>
<!-- 0&#45;&gt;1 -->
<g id="edge1" class="edge">
<title>0&#45;&gt;1</title>
<path fill="none" stroke="black" d="M175.38,-243.12C156.97,-232.54 133.6,-219.12 113.66,-207.67"/>
<polygon fill="black" stroke="black" points="115.62,-204.75 105.2,-202.81 112.13,-210.82 115.62,-204.75"/>
</g>
<!-- 3 -->
<g id="node4" class="node">
<title>3</title>
<ellipse fill="white" stroke="black" cx="207.26" cy="-182.31" rx="47.05" ry="22.06"/>
<text text-anchor="middle" x="207.26" y="-178.11" font-family="Arial" font-size="14.00">distance</text>
</g>
<!-- 0&#45;&gt;3 -->
<g id="edge3" class="edge">
<title>0&#45;&gt;3</title>
<path fill="none" stroke="black" d="M207.26,-240.08C207.26,-232.68 207.26,-224.19 207.26,-216.08"/>
<polygon fill="black" stroke="black" points="210.76,-216.14 207.26,-206.14 203.76,-216.14 210.76,-216.14"/>
</g>
<!-- 4 -->
<g id="node5" class="node">
<title>4</title>
<ellipse fill="white" stroke="black" cx="299.26" cy="-182.31" rx="27" ry="22.06"/>
<text text-anchor="middle" x="299.26" y="-178.11" font-family="Arial" font-size="14.00">sub</text>
</g>
<!-- 0&#45;&gt;4 -->
<g id="edge4" class="edge">
<title>0&#45;&gt;4</title>
<path fill="none" stroke="black" d="M230.48,-241.72C243.19,-230.92 259.02,-217.48 272.28,-206.22"/>
<polygon fill="black" stroke="black" points="274.47,-208.95 279.83,-199.81 269.94,-203.62 274.47,-208.95"/>
</g>
<!-- 2 -->
<g id="node3" class="node">
<title>2</title>
<ellipse fill="white" stroke="black" cx="71.26" cy="-102.19" rx="47.04" ry="22.06"/>
<text text-anchor="middle" x="71.26" y="-97.99" font-family="Arial" font-size="14.00">is_water</text>
</g>
<!-- 1&#45;&gt;2 -->
<g id="edge2" class="edge">
<title>1&#45;&gt;2</title>
<path fill="none" stroke="black" d="M71.26,-159.96C71.26,-152.55 71.26,-144.07 71.26,-135.96"/>
<polygon fill="black" stroke="black" points="74.76,-136.02 71.26,-126.02 67.76,-136.02 74.76,-136.02"/>
</g>
<!-- 5 -->
<g id="node6" class="node">
<title>5</title>
<ellipse fill="white" stroke="black" cx="247.26" cy="-102.19" rx="60.26" ry="22.06"/>
<text text-anchor="middle" x="247.26" y="-97.99" font-family="Arial" font-size="14.00">elevation_v</text>
</g>
<!-- 4&#45;&gt;5 -->
<g id="edge5" class="edge">
<title>4&#45;&gt;5</title>
<path fill="none" stroke="black" d="M286.67,-162.4C280.9,-153.73 273.92,-143.23 267.44,-133.5"/>
<polygon fill="black" stroke="black" points="270.49,-131.77 262.04,-125.38 264.66,-135.64 270.49,-131.77"/>
</g>
<!-- 6 -->
<g id="node7" class="node">
<title>6</title>
<ellipse fill="white" stroke="black" cx="352.26" cy="-102.19" rx="27" ry="22.06"/>
<text text-anchor="middle" x="352.26" y="-97.99" font-family="Arial" font-size="14.00">add</text>
</g>
<!-- 4&#45;&gt;6 -->
<g id="edge6" class="edge">
<title>4&#45;&gt;6</title>
<path fill="none" stroke="black" d="M312.09,-162.4C318.41,-153.09 326.15,-141.68 333.14,-131.37"/>
<polygon fill="black" stroke="black" points="335.98,-133.42 338.7,-123.18 330.19,-129.49 335.98,-133.42"/>
</g>
<!-- 7 -->
<g id="node8" class="node">
<title>7</title>
<ellipse fill="white" stroke="black" cx="285.26" cy="-22.06" rx="60.82" ry="22.06"/>
<text text-anchor="middle" x="285.26" y="-17.86" font-family="Arial" font-size="14.00">elevation_u</text>
</g>
<!-- 6&#45;&gt;7 -->
<g id="edge7" class="edge">
<title>6&#45;&gt;7</title>
<path fill="none" stroke="black" d="M337.06,-83.46C329.1,-74.17 319.14,-62.57 310.1,-52.02"/>
<polygon fill="black" stroke="black" points="312.92,-49.94 303.76,-44.63 307.61,-54.5 312.92,-49.94"/>
</g>
<!-- 8 -->
<g id="node9" class="node">
<title>8</title>
<ellipse fill="white" stroke="black" cx="419.26" cy="-22.06" rx="55.31" ry="22.06"/>
<text text-anchor="middle" x="419.26" y="-17.86" font-family="Arial" font-size="14.00">steepness</text>
</g>
<!-- 6&#45;&gt;8 -->
<g id="edge8" class="edge">
<title>6&#45;&gt;8</title>
<path fill="none" stroke="black" d="M367.46,-83.46C375.43,-74.17 385.38,-62.57 394.43,-52.02"/>
<polygon fill="black" stroke="black" points="396.91,-54.5 400.77,-44.63 391.6,-49.94 396.91,-54.5"/>
</g>
</g>
</svg>
