<?xml version="1.0" encoding="UTF-8" standalone="no"?>
<!DOCTYPE svg PUBLIC "-//W3C//DTD SVG 1.1//EN"
 "http://www.w3.org/Graphics/SVG/1.1/DTD/svg11.dtd">
<!-- Generated by graphviz version 12.2.1 (0)
 -->
<!-- Title: G Pages: 1 -->
<svg width="1085pt" height="485pt"
 viewBox="36.00 36.00 1048.91 449.42" xmlns="http://www.w3.org/2000/svg" xmlns:xlink="http://www.w3.org/1999/xlink">
<g id="graph0" class="graph" transform="scale(1 1) rotate(0) translate(40 445.42)">
<title>G</title>
<polygon fill="white" stroke="none" points="-4,4 -4,-409.42 1008.91,-409.42 1008.91,4 -4,4"/>
<text text-anchor="middle" x="502.46" y="-388.82" font-family="Times New Roman,serif" font-size="14.00">(&#39;best_tree_500pop_15gen_25runs_res200_1subrun&#39;, &#39;&#39;)</text>
<!-- 0 -->
<g id="node1" class="node">
<title>0</title>
<ellipse fill="white" stroke="black" cx="386.96" cy="-342.56" rx="27" ry="22.06"/>
<text text-anchor="middle" x="386.96" y="-338.36" font-family="Arial" font-size="14.00">neg</text>
</g>
<!-- 1 -->
<g id="node2" class="node">
<title>1</title>
<ellipse fill="white" stroke="black" cx="386.96" cy="-262.43" rx="27" ry="22.06"/>
<text text-anchor="middle" x="386.96" y="-258.23" font-family="Arial" font-size="14.00">add</text>
</g>
<!-- 0&#45;&gt;1 -->
<g id="edge1" class="edge">
<title>0&#45;&gt;1</title>
<path fill="none" stroke="black" d="M386.96,-320.21C386.96,-312.8 386.96,-304.32 386.96,-296.2"/>
<polygon fill="black" stroke="black" points="390.46,-296.27 386.96,-286.27 383.46,-296.27 390.46,-296.27"/>
</g>
<!-- 2 -->
<g id="node3" class="node">
<title>2</title>
<ellipse fill="white" stroke="black" cx="326.96" cy="-182.31" rx="27" ry="22.06"/>
<text text-anchor="middle" x="326.96" y="-178.11" font-family="Arial" font-size="14.00">add</text>
</g>
<!-- 1&#45;&gt;2 -->
<g id="edge2" class="edge">
<title>1&#45;&gt;2</title>
<path fill="none" stroke="black" d="M373.04,-243.31C365.6,-233.62 356.28,-221.49 347.97,-210.67"/>
<polygon fill="black" stroke="black" points="350.79,-208.6 341.93,-202.8 345.24,-212.86 350.79,-208.6"/>
</g>
<!-- 9 -->
<g id="node10" class="node">
<title>9</title>
<ellipse fill="white" stroke="black" cx="578.96" cy="-182.31" rx="63.57" ry="22.06"/>
<text text-anchor="middle" x="578.96" y="-178.11" font-family="Arial" font-size="14.00">if_then_else</text>
</g>
<!-- 1&#45;&gt;9 -->
<g id="edge9" class="edge">
<title>1&#45;&gt;9</title>
<path fill="none" stroke="black" d="M410.88,-251.7C440.1,-239.81 490.32,-219.38 528.27,-203.93"/>
<polygon fill="black" stroke="black" points="529.27,-207.3 537.22,-200.29 526.64,-200.82 529.27,-207.3"/>
</g>
<!-- 3 -->
<g id="node4" class="node">
<title>3</title>
<ellipse fill="white" stroke="black" cx="134.96" cy="-102.19" rx="27" ry="22.06"/>
<text text-anchor="middle" x="134.96" y="-97.99" font-family="Arial" font-size="14.00">add</text>
</g>
<!-- 2&#45;&gt;3 -->
<g id="edge3" class="edge">
<title>2&#45;&gt;3</title>
<path fill="none" stroke="black" d="M303.03,-171.57C269.3,-157.85 207.62,-132.75 169.09,-117.08"/>
<polygon fill="black" stroke="black" points="170.87,-114.02 160.29,-113.49 168.23,-120.5 170.87,-114.02"/>
</g>
<!-- 6 -->
<g id="node7" class="node">
<title>6</title>
<ellipse fill="white" stroke="black" cx="326.96" cy="-102.19" rx="27" ry="22.06"/>
<text text-anchor="middle" x="326.96" y="-97.99" font-family="Arial" font-size="14.00">add</text>
</g>
<!-- 2&#45;&gt;6 -->
<g id="edge6" class="edge">
<title>2&#45;&gt;6</title>
<path fill="none" stroke="black" d="M326.96,-159.96C326.96,-152.55 326.96,-144.07 326.96,-135.96"/>
<polygon fill="black" stroke="black" points="330.46,-136.02 326.96,-126.02 323.46,-136.02 330.46,-136.02"/>
</g>
<!-- 4 -->
<g id="node5" class="node">
<title>4</title>
<ellipse fill="white" stroke="black" cx="34.96" cy="-22.06" rx="34.96" ry="22.06"/>
<text text-anchor="middle" x="34.96" y="-17.86" font-family="Arial" font-size="14.00">1.291</text>
</g>
<!-- 3&#45;&gt;4 -->
<g id="edge4" class="edge">
<title>3&#45;&gt;4</title>
<path fill="none" stroke="black" d="M115.67,-86.12C101.31,-74.9 81.42,-59.36 64.98,-46.52"/>
<polygon fill="black" stroke="black" points="67.48,-44.03 57.45,-40.63 63.17,-49.55 67.48,-44.03"/>
</g>
<!-- 5 -->
<g id="node6" class="node">
<title>5</title>
<ellipse fill="white" stroke="black" cx="134.96" cy="-22.06" rx="47.05" ry="22.06"/>
<text text-anchor="middle" x="134.96" y="-17.86" font-family="Arial" font-size="14.00">distance</text>
</g>
<!-- 3&#45;&gt;5 -->
<g id="edge5" class="edge">
<title>3&#45;&gt;5</title>
<path fill="none" stroke="black" d="M134.96,-79.84C134.96,-72.43 134.96,-63.95 134.96,-55.83"/>
<polygon fill="black" stroke="black" points="138.46,-55.9 134.96,-45.9 131.46,-55.9 138.46,-55.9"/>
</g>
<!-- 7 -->
<g id="node8" class="node">
<title>7</title>
<ellipse fill="white" stroke="black" cx="259.96" cy="-22.06" rx="60.26" ry="22.06"/>
<text text-anchor="middle" x="259.96" y="-17.86" font-family="Arial" font-size="14.00">elevation_v</text>
</g>
<!-- 6&#45;&gt;7 -->
<g id="edge7" class="edge">
<title>6&#45;&gt;7</title>
<path fill="none" stroke="black" d="M311.75,-83.46C303.79,-74.17 293.84,-62.57 284.79,-52.02"/>
<polygon fill="black" stroke="black" points="287.62,-49.94 278.45,-44.63 282.3,-54.5 287.62,-49.94"/>
</g>
<!-- 8 -->
<g id="node9" class="node">
<title>8</title>
<ellipse fill="white" stroke="black" cx="393.96" cy="-22.06" rx="55.31" ry="22.06"/>
<text text-anchor="middle" x="393.96" y="-17.86" font-family="Arial" font-size="14.00">steepness</text>
</g>
<!-- 6&#45;&gt;8 -->
<g id="edge8" class="edge">
<title>6&#45;&gt;8</title>
<path fill="none" stroke="black" d="M342.16,-83.46C350.12,-74.17 360.07,-62.57 369.12,-52.02"/>
<polygon fill="black" stroke="black" points="371.61,-54.5 375.46,-44.63 366.29,-49.94 371.61,-54.5"/>
</g>
<!-- 10 -->
<g id="node11" class="node">
<title>10</title>
<ellipse fill="white" stroke="black" cx="518.96" cy="-102.19" rx="71.26" ry="22.06"/>
<text text-anchor="middle" x="518.96" y="-97.99" font-family="Arial" font-size="14.00">identity_water</text>
</g>
<!-- 9&#45;&gt;10 -->
<g id="edge10" class="edge">
<title>9&#45;&gt;10</title>
<path fill="none" stroke="black" d="M563.19,-160.78C556.68,-152.31 549.01,-142.31 541.89,-133.05"/>
<polygon fill="black" stroke="black" points="544.82,-131.12 535.95,-125.32 539.27,-135.38 544.82,-131.12"/>
</g>
<!-- 12 -->
<g id="node13" class="node">
<title>12</title>
<ellipse fill="white" stroke="black" cx="639.96" cy="-102.19" rx="27" ry="22.06"/>
<text text-anchor="middle" x="639.96" y="-97.99" font-family="Arial" font-size="14.00">sub</text>
</g>
<!-- 9&#45;&gt;12 -->
<g id="edge12" class="edge">
<title>9&#45;&gt;12</title>
<path fill="none" stroke="black" d="M594.98,-160.78C602.28,-151.44 611.02,-140.25 618.84,-130.23"/>
<polygon fill="black" stroke="black" points="621.37,-132.67 624.77,-122.64 615.85,-128.36 621.37,-132.67"/>
</g>
<!-- 15 -->
<g id="node16" class="node">
<title>15</title>
<ellipse fill="white" stroke="black" cx="881.96" cy="-102.19" rx="27" ry="22.06"/>
<text text-anchor="middle" x="881.96" y="-97.99" font-family="Arial" font-size="14.00">add</text>
</g>
<!-- 9&#45;&gt;15 -->
<g id="edge15" class="edge">
<title>9&#45;&gt;15</title>
<path fill="none" stroke="black" d="M628.99,-168.41C689.75,-152.74 790.81,-126.69 844.97,-112.72"/>
<polygon fill="black" stroke="black" points="845.83,-116.11 854.64,-110.23 844.08,-109.34 845.83,-116.11"/>
</g>
<!-- 11 -->
<g id="node12" class="node">
<title>11</title>
<ellipse fill="white" stroke="black" cx="513.96" cy="-22.06" rx="47.04" ry="22.06"/>
<text text-anchor="middle" x="513.96" y="-17.86" font-family="Arial" font-size="14.00">is_water</text>
</g>
<!-- 10&#45;&gt;11 -->
<g id="edge11" class="edge">
<title>10&#45;&gt;11</title>
<path fill="none" stroke="black" d="M517.59,-79.84C517.11,-72.43 516.57,-63.95 516.05,-55.83"/>
<polygon fill="black" stroke="black" points="519.55,-55.65 515.42,-45.89 512.56,-56.1 519.55,-55.65"/>
</g>
<!-- 13 -->
<g id="node14" class="node">
<title>13</title>
<ellipse fill="white" stroke="black" cx="639.96" cy="-22.06" rx="60.82" ry="22.06"/>
<text text-anchor="middle" x="639.96" y="-17.86" font-family="Arial" font-size="14.00">elevation_u</text>
</g>
<!-- 12&#45;&gt;13 -->
<g id="edge13" class="edge">
<title>12&#45;&gt;13</title>
<path fill="none" stroke="black" d="M639.96,-79.84C639.96,-72.43 639.96,-63.95 639.96,-55.83"/>
<polygon fill="black" stroke="black" points="643.46,-55.9 639.96,-45.9 636.46,-55.9 643.46,-55.9"/>
</g>
<!-- 14 -->
<g id="node15" class="node">
<title>14</title>
<ellipse fill="white" stroke="black" cx="773.96" cy="-22.06" rx="55.31" ry="22.06"/>
<text text-anchor="middle" x="773.96" y="-17.86" font-family="Arial" font-size="14.00">steepness</text>
</g>
<!-- 12&#45;&gt;14 -->
<g id="edge14" class="edge">
<title>12&#45;&gt;14</title>
<path fill="none" stroke="black" d="M661.48,-88.63C680.9,-77.31 709.98,-60.36 733.7,-46.53"/>
<polygon fill="black" stroke="black" points="735.31,-49.65 742.18,-41.59 731.78,-43.6 735.31,-49.65"/>
</g>
<!-- 16 -->
<g id="node17" class="node">
<title>16</title>
<ellipse fill="white" stroke="black" cx="881.96" cy="-22.06" rx="34.96" ry="22.06"/>
<text text-anchor="middle" x="881.96" y="-17.86" font-family="Arial" font-size="14.00">1.837</text>
</g>
<!-- 15&#45;&gt;16 -->
<g id="edge16" class="edge">
<title>15&#45;&gt;16</title>
<path fill="none" stroke="black" d="M881.96,-79.84C881.96,-72.43 881.96,-63.95 881.96,-55.83"/>
<polygon fill="black" stroke="black" points="885.46,-55.9 881.96,-45.9 878.46,-55.9 885.46,-55.9"/>
</g>
<!-- 17 -->
<g id="node18" class="node">
<title>17</title>
<ellipse fill="white" stroke="black" cx="969.96" cy="-22.06" rx="34.96" ry="22.06"/>
<text text-anchor="middle" x="969.96" y="-17.86" font-family="Arial" font-size="14.00">0.807</text>
</g>
<!-- 15&#45;&gt;17 -->
<g id="edge17" class="edge">
<title>15&#45;&gt;17</title>
<path fill="none" stroke="black" d="M899.76,-85.38C911.91,-74.59 928.24,-60.1 942.09,-47.8"/>
<polygon fill="black" stroke="black" points="944.05,-50.74 949.2,-41.48 939.4,-45.51 944.05,-50.74"/>
</g>
</g>
</svg>
