<?xml version="1.0" encoding="UTF-8" standalone="no"?>
<!DOCTYPE svg PUBLIC "-//W3C//DTD SVG 1.1//EN"
 "http://www.w3.org/Graphics/SVG/1.1/DTD/svg11.dtd">
<!-- Generated by graphviz version 12.2.1 (0)
 -->
<!-- Title: G Pages: 1 -->
<svg width="833pt" height="485pt"
 viewBox="36.00 36.00 796.57 449.42" xmlns="http://www.w3.org/2000/svg" xmlns:xlink="http://www.w3.org/1999/xlink">
<g id="graph0" class="graph" transform="scale(1 1) rotate(0) translate(40 445.42)">
<title>G</title>
<polygon fill="white" stroke="none" points="-4,4 -4,-409.42 756.57,-409.42 756.57,4 -4,4"/>
<text text-anchor="middle" x="376.29" y="-388.82" font-family="Times New Roman,serif" font-size="14.00">(&#39;best_tree_500pop_15gen_25runs_res200_18subrun&#39;, &#39;&#39;)</text>
<!-- 0 -->
<g id="node1" class="node">
<title>0</title>
<ellipse fill="white" stroke="black" cx="261.26" cy="-342.56" rx="63.57" ry="22.06"/>
<text text-anchor="middle" x="261.26" y="-338.36" font-family="Arial" font-size="14.00">if_then_else</text>
</g>
<!-- 1 -->
<g id="node2" class="node">
<title>1</title>
<ellipse fill="white" stroke="black" cx="169.26" cy="-262.43" rx="47.04" ry="22.06"/>
<text text-anchor="middle" x="169.26" y="-258.23" font-family="Arial" font-size="14.00">is_water</text>
</g>
<!-- 0&#45;&gt;1 -->
<g id="edge1" class="edge">
<title>0&#45;&gt;1</title>
<path fill="none" stroke="black" d="M238.05,-321.84C226.57,-312.09 212.56,-300.19 200.18,-289.69"/>
<polygon fill="black" stroke="black" points="202.56,-287.12 192.67,-283.31 198.03,-292.45 202.56,-287.12"/>
</g>
<!-- 2 -->
<g id="node3" class="node">
<title>2</title>
<ellipse fill="white" stroke="black" cx="261.26" cy="-262.43" rx="27" ry="22.06"/>
<text text-anchor="middle" x="261.26" y="-258.23" font-family="Arial" font-size="14.00">neg</text>
</g>
<!-- 0&#45;&gt;2 -->
<g id="edge2" class="edge">
<title>0&#45;&gt;2</title>
<path fill="none" stroke="black" d="M261.26,-320.21C261.26,-312.8 261.26,-304.32 261.26,-296.2"/>
<polygon fill="black" stroke="black" points="264.76,-296.27 261.26,-286.27 257.76,-296.27 264.76,-296.27"/>
</g>
<!-- 6 -->
<g id="node7" class="node">
<title>6</title>
<ellipse fill="white" stroke="black" cx="354.26" cy="-262.43" rx="27" ry="22.06"/>
<text text-anchor="middle" x="354.26" y="-258.23" font-family="Arial" font-size="14.00">sub</text>
</g>
<!-- 0&#45;&gt;6 -->
<g id="edge6" class="edge">
<title>0&#45;&gt;6</title>
<path fill="none" stroke="black" d="M284.73,-321.84C297.59,-311.04 313.58,-297.61 326.99,-286.35"/>
<polygon fill="black" stroke="black" points="329.22,-289.04 334.63,-279.93 324.72,-283.68 329.22,-289.04"/>
</g>
<!-- 3 -->
<g id="node4" class="node">
<title>3</title>
<ellipse fill="white" stroke="black" cx="173.26" cy="-182.31" rx="27" ry="22.06"/>
<text text-anchor="middle" x="173.26" y="-178.11" font-family="Arial" font-size="14.00">mul</text>
</g>
<!-- 2&#45;&gt;3 -->
<g id="edge3" class="edge">
<title>2&#45;&gt;3</title>
<path fill="none" stroke="black" d="M243.46,-245.62C230.81,-234.4 213.63,-219.15 199.43,-206.54"/>
<polygon fill="black" stroke="black" points="201.98,-204.12 192.18,-200.1 197.33,-209.36 201.98,-204.12"/>
</g>
<!-- 4 -->
<g id="node5" class="node">
<title>4</title>
<ellipse fill="white" stroke="black" cx="60.26" cy="-102.19" rx="60.26" ry="22.06"/>
<text text-anchor="middle" x="60.26" y="-97.99" font-family="Arial" font-size="14.00">elevation_v</text>
</g>
<!-- 3&#45;&gt;4 -->
<g id="edge4" class="edge">
<title>3&#45;&gt;4</title>
<path fill="none" stroke="black" d="M153.06,-167.34C137.49,-156.58 115.55,-141.41 96.91,-128.52"/>
<polygon fill="black" stroke="black" points="98.97,-125.69 88.76,-122.88 94.99,-131.45 98.97,-125.69"/>
</g>
<!-- 5 -->
<g id="node6" class="node">
<title>5</title>
<ellipse fill="white" stroke="black" cx="173.26" cy="-102.19" rx="34.96" ry="22.06"/>
<text text-anchor="middle" x="173.26" y="-97.99" font-family="Arial" font-size="14.00">9.517</text>
</g>
<!-- 3&#45;&gt;5 -->
<g id="edge5" class="edge">
<title>3&#45;&gt;5</title>
<path fill="none" stroke="black" d="M173.26,-159.96C173.26,-152.55 173.26,-144.07 173.26,-135.96"/>
<polygon fill="black" stroke="black" points="176.76,-136.02 173.26,-126.02 169.76,-136.02 176.76,-136.02"/>
</g>
<!-- 7 -->
<g id="node8" class="node">
<title>7</title>
<ellipse fill="white" stroke="black" cx="354.26" cy="-182.31" rx="27" ry="22.06"/>
<text text-anchor="middle" x="354.26" y="-178.11" font-family="Arial" font-size="14.00">add</text>
</g>
<!-- 6&#45;&gt;7 -->
<g id="edge7" class="edge">
<title>6&#45;&gt;7</title>
<path fill="none" stroke="black" d="M354.26,-240.08C354.26,-232.68 354.26,-224.19 354.26,-216.08"/>
<polygon fill="black" stroke="black" points="357.76,-216.14 354.26,-206.14 350.76,-216.14 357.76,-216.14"/>
</g>
<!-- 10 -->
<g id="node11" class="node">
<title>10</title>
<ellipse fill="white" stroke="black" cx="541.26" cy="-182.31" rx="27" ry="22.06"/>
<text text-anchor="middle" x="541.26" y="-178.11" font-family="Arial" font-size="14.00">sub</text>
</g>
<!-- 6&#45;&gt;10 -->
<g id="edge10" class="edge">
<title>6&#45;&gt;10</title>
<path fill="none" stroke="black" d="M377.95,-251.54C410.6,-237.9 469.63,-213.23 507.07,-197.59"/>
<polygon fill="black" stroke="black" points="508.2,-200.91 516.08,-193.83 505.51,-194.45 508.2,-200.91"/>
</g>
<!-- 8 -->
<g id="node9" class="node">
<title>8</title>
<ellipse fill="white" stroke="black" cx="287.26" cy="-102.19" rx="60.82" ry="22.06"/>
<text text-anchor="middle" x="287.26" y="-97.99" font-family="Arial" font-size="14.00">elevation_u</text>
</g>
<!-- 7&#45;&gt;8 -->
<g id="edge8" class="edge">
<title>7&#45;&gt;8</title>
<path fill="none" stroke="black" d="M339.06,-163.58C331.1,-154.3 321.15,-142.69 312.1,-132.14"/>
<polygon fill="black" stroke="black" points="314.93,-130.06 305.76,-124.75 309.61,-134.62 314.93,-130.06"/>
</g>
<!-- 9 -->
<g id="node10" class="node">
<title>9</title>
<ellipse fill="white" stroke="black" cx="421.26" cy="-102.19" rx="55.31" ry="22.06"/>
<text text-anchor="middle" x="421.26" y="-97.99" font-family="Arial" font-size="14.00">steepness</text>
</g>
<!-- 7&#45;&gt;9 -->
<g id="edge9" class="edge">
<title>7&#45;&gt;9</title>
<path fill="none" stroke="black" d="M369.47,-163.58C377.43,-154.3 387.38,-142.69 396.43,-132.14"/>
<polygon fill="black" stroke="black" points="398.92,-134.62 402.77,-124.75 393.6,-130.06 398.92,-134.62"/>
</g>
<!-- 11 -->
<g id="node12" class="node">
<title>11</title>
<ellipse fill="white" stroke="black" cx="541.26" cy="-102.19" rx="47.05" ry="22.06"/>
<text text-anchor="middle" x="541.26" y="-97.99" font-family="Arial" font-size="14.00">distance</text>
</g>
<!-- 10&#45;&gt;11 -->
<g id="edge11" class="edge">
<title>10&#45;&gt;11</title>
<path fill="none" stroke="black" d="M541.26,-159.96C541.26,-152.55 541.26,-144.07 541.26,-135.96"/>
<polygon fill="black" stroke="black" points="544.76,-136.02 541.26,-126.02 537.76,-136.02 544.76,-136.02"/>
</g>
<!-- 12 -->
<g id="node13" class="node">
<title>12</title>
<ellipse fill="white" stroke="black" cx="633.26" cy="-102.19" rx="27" ry="22.06"/>
<text text-anchor="middle" x="633.26" y="-97.99" font-family="Arial" font-size="14.00">add</text>
</g>
<!-- 10&#45;&gt;12 -->
<g id="edge12" class="edge">
<title>10&#45;&gt;12</title>
<path fill="none" stroke="black" d="M559.44,-165.87C572.84,-154.5 591.27,-138.84 606.37,-126.02"/>
<polygon fill="black" stroke="black" points="608.3,-128.98 613.66,-119.83 603.77,-123.64 608.3,-128.98"/>
</g>
<!-- 13 -->
<g id="node14" class="node">
<title>13</title>
<ellipse fill="white" stroke="black" cx="568.26" cy="-22.06" rx="55.31" ry="22.06"/>
<text text-anchor="middle" x="568.26" y="-17.86" font-family="Arial" font-size="14.00">steepness</text>
</g>
<!-- 12&#45;&gt;13 -->
<g id="edge13" class="edge">
<title>12&#45;&gt;13</title>
<path fill="none" stroke="black" d="M618.52,-83.46C610.79,-74.17 601.13,-62.57 592.36,-52.02"/>
<polygon fill="black" stroke="black" points="595.31,-50.09 586.22,-44.64 589.93,-54.57 595.31,-50.09"/>
</g>
<!-- 14 -->
<g id="node15" class="node">
<title>14</title>
<ellipse fill="white" stroke="black" cx="697.26" cy="-22.06" rx="55.31" ry="22.06"/>
<text text-anchor="middle" x="697.26" y="-17.86" font-family="Arial" font-size="14.00">steepness</text>
</g>
<!-- 12&#45;&gt;14 -->
<g id="edge14" class="edge">
<title>12&#45;&gt;14</title>
<path fill="none" stroke="black" d="M647.79,-83.46C655.32,-74.27 664.71,-62.8 673.28,-52.34"/>
<polygon fill="black" stroke="black" points="675.95,-54.6 679.58,-44.65 670.53,-50.17 675.95,-54.6"/>
</g>
</g>
</svg>
