<?xml version="1.0" encoding="UTF-8" standalone="no"?>
<!DOCTYPE svg PUBLIC "-//W3C//DTD SVG 1.1//EN"
 "http://www.w3.org/Graphics/SVG/1.1/DTD/svg11.dtd">
<!-- Generated by graphviz version 12.2.1 (0)
 -->
<!-- Title: G Pages: 1 -->
<svg width="676pt" height="485pt"
 viewBox="36.00 36.00 639.87 449.42" xmlns="http://www.w3.org/2000/svg" xmlns:xlink="http://www.w3.org/1999/xlink">
<g id="graph0" class="graph" transform="scale(1 1) rotate(0) translate(40 445.42)">
<title>G</title>
<polygon fill="white" stroke="none" points="-4,4 -4,-409.42 599.87,-409.42 599.87,4 -4,4"/>
<text text-anchor="middle" x="297.94" y="-388.82" font-family="Times New Roman,serif" font-size="14.00">(&#39;best_tree_500pop_15gen_25runs_res200_5subrun&#39;, &#39;&#39;)</text>
<!-- 0 -->
<g id="node1" class="node">
<title>0</title>
<ellipse fill="white" stroke="black" cx="194.82" cy="-342.56" rx="63.57" ry="22.06"/>
<text text-anchor="middle" x="194.82" y="-338.36" font-family="Arial" font-size="14.00">if_then_else</text>
</g>
<!-- 1 -->
<g id="node2" class="node">
<title>1</title>
<ellipse fill="white" stroke="black" cx="102.82" cy="-262.43" rx="47.04" ry="22.06"/>
<text text-anchor="middle" x="102.82" y="-258.23" font-family="Arial" font-size="14.00">is_water</text>
</g>
<!-- 0&#45;&gt;1 -->
<g id="edge1" class="edge">
<title>0&#45;&gt;1</title>
<path fill="none" stroke="black" d="M171.61,-321.84C160.13,-312.09 146.11,-300.19 133.74,-289.69"/>
<polygon fill="black" stroke="black" points="136.12,-287.12 126.23,-283.31 131.59,-292.45 136.12,-287.12"/>
</g>
<!-- 2 -->
<g id="node3" class="node">
<title>2</title>
<ellipse fill="white" stroke="black" cx="194.82" cy="-262.43" rx="27" ry="22.06"/>
<text text-anchor="middle" x="194.82" y="-258.23" font-family="Arial" font-size="14.00">add</text>
</g>
<!-- 0&#45;&gt;2 -->
<g id="edge2" class="edge">
<title>0&#45;&gt;2</title>
<path fill="none" stroke="black" d="M194.82,-320.21C194.82,-312.8 194.82,-304.32 194.82,-296.2"/>
<polygon fill="black" stroke="black" points="198.32,-296.27 194.82,-286.27 191.32,-296.27 198.32,-296.27"/>
</g>
<!-- 5 -->
<g id="node6" class="node">
<title>5</title>
<ellipse fill="white" stroke="black" cx="328.82" cy="-262.43" rx="27" ry="22.06"/>
<text text-anchor="middle" x="328.82" y="-258.23" font-family="Arial" font-size="14.00">sub</text>
</g>
<!-- 0&#45;&gt;5 -->
<g id="edge5" class="edge">
<title>0&#45;&gt;5</title>
<path fill="none" stroke="black" d="M226.58,-323.04C247.99,-310.56 276.13,-294.15 297.46,-281.72"/>
<polygon fill="black" stroke="black" points="299.14,-284.79 306.02,-276.73 295.62,-278.74 299.14,-284.79"/>
</g>
<!-- 3 -->
<g id="node4" class="node">
<title>3</title>
<ellipse fill="white" stroke="black" cx="60.82" cy="-182.31" rx="60.82" ry="22.06"/>
<text text-anchor="middle" x="60.82" y="-178.11" font-family="Arial" font-size="14.00">elevation_u</text>
</g>
<!-- 2&#45;&gt;3 -->
<g id="edge3" class="edge">
<title>2&#45;&gt;3</title>
<path fill="none" stroke="black" d="M173.12,-248.73C168.41,-245.97 163.45,-243.07 158.82,-240.37 140.2,-229.5 119.58,-217.49 102.07,-207.3"/>
<polygon fill="black" stroke="black" points="103.88,-204.3 93.47,-202.3 100.36,-210.35 103.88,-204.3"/>
</g>
<!-- 4 -->
<g id="node5" class="node">
<title>4</title>
<ellipse fill="white" stroke="black" cx="194.82" cy="-182.31" rx="55.31" ry="22.06"/>
<text text-anchor="middle" x="194.82" y="-178.11" font-family="Arial" font-size="14.00">steepness</text>
</g>
<!-- 2&#45;&gt;4 -->
<g id="edge4" class="edge">
<title>2&#45;&gt;4</title>
<path fill="none" stroke="black" d="M194.82,-240.08C194.82,-232.68 194.82,-224.19 194.82,-216.08"/>
<polygon fill="black" stroke="black" points="198.32,-216.14 194.82,-206.14 191.32,-216.14 198.32,-216.14"/>
</g>
<!-- 6 -->
<g id="node7" class="node">
<title>6</title>
<ellipse fill="white" stroke="black" cx="328.82" cy="-182.31" rx="60.26" ry="22.06"/>
<text text-anchor="middle" x="328.82" y="-178.11" font-family="Arial" font-size="14.00">elevation_v</text>
</g>
<!-- 5&#45;&gt;6 -->
<g id="edge6" class="edge">
<title>5&#45;&gt;6</title>
<path fill="none" stroke="black" d="M328.82,-240.08C328.82,-232.68 328.82,-224.19 328.82,-216.08"/>
<polygon fill="black" stroke="black" points="332.32,-216.14 328.82,-206.14 325.32,-216.14 332.32,-216.14"/>
</g>
<!-- 7 -->
<g id="node8" class="node">
<title>7</title>
<ellipse fill="white" stroke="black" cx="433.82" cy="-182.31" rx="27" ry="22.06"/>
<text text-anchor="middle" x="433.82" y="-178.11" font-family="Arial" font-size="14.00">sub</text>
</g>
<!-- 5&#45;&gt;7 -->
<g id="edge7" class="edge">
<title>5&#45;&gt;7</title>
<path fill="none" stroke="black" d="M348.57,-246.74C364.56,-234.84 387.29,-217.93 405.26,-204.56"/>
<polygon fill="black" stroke="black" points="407.01,-207.62 412.95,-198.84 402.83,-202 407.01,-207.62"/>
</g>
<!-- 8 -->
<g id="node9" class="node">
<title>8</title>
<ellipse fill="white" stroke="black" cx="380.82" cy="-102.19" rx="60.26" ry="22.06"/>
<text text-anchor="middle" x="380.82" y="-97.99" font-family="Arial" font-size="14.00">elevation_v</text>
</g>
<!-- 7&#45;&gt;8 -->
<g id="edge8" class="edge">
<title>7&#45;&gt;8</title>
<path fill="none" stroke="black" d="M420.99,-162.4C415.11,-153.73 407.99,-143.23 401.39,-133.5"/>
<polygon fill="black" stroke="black" points="404.38,-131.68 395.87,-125.37 398.59,-135.61 404.38,-131.68"/>
</g>
<!-- 9 -->
<g id="node10" class="node">
<title>9</title>
<ellipse fill="white" stroke="black" cx="485.82" cy="-102.19" rx="27" ry="22.06"/>
<text text-anchor="middle" x="485.82" y="-97.99" font-family="Arial" font-size="14.00">add</text>
</g>
<!-- 7&#45;&gt;9 -->
<g id="edge9" class="edge">
<title>7&#45;&gt;9</title>
<path fill="none" stroke="black" d="M446.41,-162.4C452.56,-153.16 460.09,-141.85 466.91,-131.59"/>
<polygon fill="black" stroke="black" points="469.7,-133.72 472.33,-123.45 463.88,-129.84 469.7,-133.72"/>
</g>
<!-- 10 -->
<g id="node11" class="node">
<title>10</title>
<ellipse fill="white" stroke="black" cx="422.82" cy="-22.06" rx="60.82" ry="22.06"/>
<text text-anchor="middle" x="422.82" y="-17.86" font-family="Arial" font-size="14.00">elevation_u</text>
</g>
<!-- 9&#45;&gt;10 -->
<g id="edge10" class="edge">
<title>9&#45;&gt;10</title>
<path fill="none" stroke="black" d="M471.52,-83.46C464.17,-74.34 455.01,-62.97 446.62,-52.57"/>
<polygon fill="black" stroke="black" points="449.47,-50.53 440.46,-44.94 444.02,-54.92 449.47,-50.53"/>
</g>
<!-- 11 -->
<g id="node12" class="node">
<title>11</title>
<ellipse fill="white" stroke="black" cx="548.82" cy="-22.06" rx="47.05" ry="22.06"/>
<text text-anchor="middle" x="548.82" y="-17.86" font-family="Arial" font-size="14.00">distance</text>
</g>
<!-- 9&#45;&gt;11 -->
<g id="edge11" class="edge">
<title>9&#45;&gt;11</title>
<path fill="none" stroke="black" d="M500.12,-83.46C507.59,-74.2 516.92,-62.63 525.41,-52.1"/>
<polygon fill="black" stroke="black" points="528.08,-54.36 531.63,-44.38 522.63,-49.96 528.08,-54.36"/>
</g>
</g>
</svg>
