<?xml version="1.0" encoding="UTF-8" standalone="no"?>
<!DOCTYPE svg PUBLIC "-//W3C//DTD SVG 1.1//EN"
 "http://www.w3.org/Graphics/SVG/1.1/DTD/svg11.dtd">
<!-- Generated by graphviz version 12.2.1 (0)
 -->
<!-- Title: G Pages: 1 -->
<svg width="432pt" height="566pt"
 viewBox="36.00 36.00 396.10 529.54" xmlns="http://www.w3.org/2000/svg" xmlns:xlink="http://www.w3.org/1999/xlink">
<g id="graph0" class="graph" transform="scale(1 1) rotate(0) translate(40 525.54)">
<title>G</title>
<polygon fill="white" stroke="none" points="-4,4 -4,-489.54 356.1,-489.54 356.1,4 -4,4"/>
<text text-anchor="middle" x="176.05" y="-468.94" font-family="Times New Roman,serif" font-size="14.00">1 best evolved tree</text>
<!-- 0 -->
<g id="node1" class="node">
<title>0</title>
<ellipse fill="white" stroke="black" cx="201.04" cy="-422.68" rx="27" ry="22.06"/>
<text text-anchor="middle" x="201.04" y="-418.48" font-family="Arial" font-size="14.00">mul</text>
</g>
<!-- 1 -->
<g id="node2" class="node">
<title>1</title>
<ellipse fill="white" stroke="black" cx="161.04" cy="-342.56" rx="34.96" ry="22.06"/>
<text text-anchor="middle" x="161.04" y="-338.36" font-family="Arial" font-size="14.00">0.032</text>
</g>
<!-- 0&#45;&gt;1 -->
<g id="edge1" class="edge">
<title>0&#45;&gt;1</title>
<path fill="none" stroke="black" d="M190.95,-401.97C186.65,-393.56 181.52,-383.55 176.74,-374.21"/>
<polygon fill="black" stroke="black" points="179.92,-372.73 172.24,-365.43 173.69,-375.93 179.92,-372.73"/>
</g>
<!-- 2 -->
<g id="node3" class="node">
<title>2</title>
<ellipse fill="white" stroke="black" cx="241.04" cy="-342.56" rx="27" ry="22.06"/>
<text text-anchor="middle" x="241.04" y="-338.36" font-family="Arial" font-size="14.00">add</text>
</g>
<!-- 0&#45;&gt;2 -->
<g id="edge2" class="edge">
<title>0&#45;&gt;2</title>
<path fill="none" stroke="black" d="M211.14,-401.97C215.59,-393.27 220.92,-382.86 225.84,-373.25"/>
<polygon fill="black" stroke="black" points="228.82,-375.11 230.26,-364.61 222.59,-371.92 228.82,-375.11"/>
</g>
<!-- 3 -->
<g id="node4" class="node">
<title>3</title>
<ellipse fill="white" stroke="black" cx="176.04" cy="-262.43" rx="63.57" ry="22.06"/>
<text text-anchor="middle" x="176.04" y="-258.23" font-family="Arial" font-size="14.00">if_then_else</text>
</g>
<!-- 2&#45;&gt;3 -->
<g id="edge3" class="edge">
<title>2&#45;&gt;3</title>
<path fill="none" stroke="black" d="M226.29,-323.83C218.7,-314.71 209.25,-303.34 200.6,-292.94"/>
<polygon fill="black" stroke="black" points="203.32,-290.74 194.24,-285.3 197.94,-295.22 203.32,-290.74"/>
</g>
<!-- 12 -->
<g id="node13" class="node">
<title>12</title>
<ellipse fill="white" stroke="black" cx="305.04" cy="-262.43" rx="47.05" ry="22.06"/>
<text text-anchor="middle" x="305.04" y="-258.23" font-family="Arial" font-size="14.00">distance</text>
</g>
<!-- 2&#45;&gt;12 -->
<g id="edge12" class="edge">
<title>2&#45;&gt;12</title>
<path fill="none" stroke="black" d="M255.57,-323.83C263.15,-314.57 272.63,-303 281.26,-292.47"/>
<polygon fill="black" stroke="black" points="283.96,-294.69 287.59,-284.74 278.54,-290.26 283.96,-294.69"/>
</g>
<!-- 4 -->
<g id="node5" class="node">
<title>4</title>
<ellipse fill="white" stroke="black" cx="47.04" cy="-182.31" rx="47.04" ry="22.06"/>
<text text-anchor="middle" x="47.04" y="-178.11" font-family="Arial" font-size="14.00">is_water</text>
</g>
<!-- 3&#45;&gt;4 -->
<g id="edge4" class="edge">
<title>3&#45;&gt;4</title>
<path fill="none" stroke="black" d="M145.15,-242.72C126.99,-231.73 103.91,-217.75 84.7,-206.11"/>
<polygon fill="black" stroke="black" points="86.71,-203.24 76.35,-201.05 83.09,-209.23 86.71,-203.24"/>
</g>
<!-- 5 -->
<g id="node6" class="node">
<title>5</title>
<ellipse fill="white" stroke="black" cx="176.04" cy="-182.31" rx="63.57" ry="22.06"/>
<text text-anchor="middle" x="176.04" y="-178.11" font-family="Arial" font-size="14.00">if_then_else</text>
</g>
<!-- 3&#45;&gt;5 -->
<g id="edge5" class="edge">
<title>3&#45;&gt;5</title>
<path fill="none" stroke="black" d="M176.04,-240.08C176.04,-232.68 176.04,-224.19 176.04,-216.08"/>
<polygon fill="black" stroke="black" points="179.54,-216.14 176.04,-206.14 172.54,-216.14 179.54,-216.14"/>
</g>
<!-- 11 -->
<g id="node12" class="node">
<title>11</title>
<ellipse fill="white" stroke="black" cx="293.04" cy="-182.31" rx="34.96" ry="22.06"/>
<text text-anchor="middle" x="293.04" y="-178.11" font-family="Arial" font-size="14.00">0.309</text>
</g>
<!-- 3&#45;&gt;11 -->
<g id="edge11" class="edge">
<title>3&#45;&gt;11</title>
<path fill="none" stroke="black" d="M204.67,-242.32C221.45,-231.12 242.71,-216.92 260.18,-205.25"/>
<polygon fill="black" stroke="black" points="261.81,-208.37 268.18,-199.91 257.92,-202.55 261.81,-208.37"/>
</g>
<!-- 6 -->
<g id="node7" class="node">
<title>6</title>
<ellipse fill="white" stroke="black" cx="84.04" cy="-102.19" rx="47.04" ry="22.06"/>
<text text-anchor="middle" x="84.04" y="-97.99" font-family="Arial" font-size="14.00">is_water</text>
</g>
<!-- 5&#45;&gt;6 -->
<g id="edge6" class="edge">
<title>5&#45;&gt;6</title>
<path fill="none" stroke="black" d="M152.83,-161.59C141.35,-151.85 127.34,-139.95 114.96,-129.44"/>
<polygon fill="black" stroke="black" points="117.34,-126.87 107.45,-123.06 112.81,-132.2 117.34,-126.87"/>
</g>
<!-- 7 -->
<g id="node8" class="node">
<title>7</title>
<ellipse fill="white" stroke="black" cx="176.04" cy="-102.19" rx="27" ry="22.06"/>
<text text-anchor="middle" x="176.04" y="-97.99" font-family="Arial" font-size="14.00">mul</text>
</g>
<!-- 5&#45;&gt;7 -->
<g id="edge7" class="edge">
<title>5&#45;&gt;7</title>
<path fill="none" stroke="black" d="M176.04,-159.96C176.04,-152.55 176.04,-144.07 176.04,-135.96"/>
<polygon fill="black" stroke="black" points="179.54,-136.02 176.04,-126.02 172.54,-136.02 179.54,-136.02"/>
</g>
<!-- 10 -->
<g id="node11" class="node">
<title>10</title>
<ellipse fill="white" stroke="black" cx="276.04" cy="-102.19" rx="55.31" ry="22.06"/>
<text text-anchor="middle" x="276.04" y="-97.99" font-family="Arial" font-size="14.00">steepness</text>
</g>
<!-- 5&#45;&gt;10 -->
<g id="edge10" class="edge">
<title>5&#45;&gt;10</title>
<path fill="none" stroke="black" d="M201.28,-161.59C213.78,-151.83 229.05,-139.9 242.53,-129.37"/>
<polygon fill="black" stroke="black" points="244.59,-132.2 250.32,-123.28 240.28,-126.68 244.59,-132.2"/>
</g>
<!-- 8 -->
<g id="node9" class="node">
<title>8</title>
<ellipse fill="white" stroke="black" cx="106.04" cy="-22.06" rx="60.26" ry="22.06"/>
<text text-anchor="middle" x="106.04" y="-17.86" font-family="Arial" font-size="14.00">elevation_v</text>
</g>
<!-- 7&#45;&gt;8 -->
<g id="edge8" class="edge">
<title>7&#45;&gt;8</title>
<path fill="none" stroke="black" d="M160.51,-83.85C152.06,-74.41 141.38,-62.5 131.72,-51.72"/>
<polygon fill="black" stroke="black" points="134.55,-49.63 125.27,-44.52 129.34,-54.3 134.55,-49.63"/>
</g>
<!-- 9 -->
<g id="node10" class="node">
<title>9</title>
<ellipse fill="white" stroke="black" cx="245.04" cy="-22.06" rx="60.82" ry="22.06"/>
<text text-anchor="middle" x="245.04" y="-17.86" font-family="Arial" font-size="14.00">elevation_u</text>
</g>
<!-- 7&#45;&gt;9 -->
<g id="edge9" class="edge">
<title>7&#45;&gt;9</title>
<path fill="none" stroke="black" d="M191.36,-83.85C199.69,-74.41 210.21,-62.5 219.73,-51.72"/>
<polygon fill="black" stroke="black" points="222.09,-54.34 226.09,-44.53 216.84,-49.71 222.09,-54.34"/>
</g>
</g>
</svg>
