<?xml version="1.0" encoding="UTF-8" standalone="no"?>
<!DOCTYPE svg PUBLIC "-//W3C//DTD SVG 1.1//EN"
 "http://www.w3.org/Graphics/SVG/1.1/DTD/svg11.dtd">
<!-- Generated by graphviz version 12.2.1 (0)
 -->
<!-- Title: G Pages: 1 -->
<svg width="766pt" height="485pt"
 viewBox="36.00 36.00 729.86 449.42" xmlns="http://www.w3.org/2000/svg" xmlns:xlink="http://www.w3.org/1999/xlink">
<g id="graph0" class="graph" transform="scale(1 1) rotate(0) translate(40 445.42)">
<title>G</title>
<polygon fill="white" stroke="none" points="-4,4 -4,-409.42 689.86,-409.42 689.86,4 -4,4"/>
<text text-anchor="middle" x="342.93" y="-388.82" font-family="Times New Roman,serif" font-size="14.00">10 best evolved tree</text>
<!-- 0 -->
<g id="node1" class="node">
<title>0</title>
<ellipse fill="white" stroke="black" cx="398.04" cy="-342.56" rx="27" ry="22.06"/>
<text text-anchor="middle" x="398.04" y="-338.36" font-family="Arial" font-size="14.00">add</text>
</g>
<!-- 1 -->
<g id="node2" class="node">
<title>1</title>
<ellipse fill="white" stroke="black" cx="327.04" cy="-262.43" rx="27" ry="22.06"/>
<text text-anchor="middle" x="327.04" y="-258.23" font-family="Arial" font-size="14.00">sub</text>
</g>
<!-- 0&#45;&gt;1 -->
<g id="edge1" class="edge">
<title>0&#45;&gt;1</title>
<path fill="none" stroke="black" d="M382.29,-324.22C372.91,-313.9 360.84,-300.62 350.38,-289.1"/>
<polygon fill="black" stroke="black" points="353.09,-286.89 343.78,-281.84 347.91,-291.6 353.09,-286.89"/>
</g>
<!-- 7 -->
<g id="node8" class="node">
<title>7</title>
<ellipse fill="white" stroke="black" cx="472.04" cy="-262.43" rx="27" ry="22.06"/>
<text text-anchor="middle" x="472.04" y="-258.23" font-family="Arial" font-size="14.00">add</text>
</g>
<!-- 0&#45;&gt;7 -->
<g id="edge7" class="edge">
<title>0&#45;&gt;7</title>
<path fill="none" stroke="black" d="M414.1,-324.6C424.09,-314.06 437.11,-300.31 448.28,-288.52"/>
<polygon fill="black" stroke="black" points="450.64,-291.12 454.98,-281.45 445.56,-286.3 450.64,-291.12"/>
</g>
<!-- 2 -->
<g id="node3" class="node">
<title>2</title>
<ellipse fill="white" stroke="black" cx="179.04" cy="-182.31" rx="63.57" ry="22.06"/>
<text text-anchor="middle" x="179.04" y="-178.11" font-family="Arial" font-size="14.00">if_then_else</text>
</g>
<!-- 1&#45;&gt;2 -->
<g id="edge2" class="edge">
<title>1&#45;&gt;2</title>
<path fill="none" stroke="black" d="M304.57,-249.57C282.98,-238.17 249.79,-220.65 222.96,-206.49"/>
<polygon fill="black" stroke="black" points="224.84,-203.53 214.36,-201.95 221.57,-209.72 224.84,-203.53"/>
</g>
<!-- 6 -->
<g id="node7" class="node">
<title>6</title>
<ellipse fill="white" stroke="black" cx="327.04" cy="-182.31" rx="60.26" ry="22.06"/>
<text text-anchor="middle" x="327.04" y="-178.11" font-family="Arial" font-size="14.00">elevation_v</text>
</g>
<!-- 1&#45;&gt;6 -->
<g id="edge6" class="edge">
<title>1&#45;&gt;6</title>
<path fill="none" stroke="black" d="M327.04,-240.08C327.04,-232.68 327.04,-224.19 327.04,-216.08"/>
<polygon fill="black" stroke="black" points="330.54,-216.14 327.04,-206.14 323.54,-216.14 330.54,-216.14"/>
</g>
<!-- 3 -->
<g id="node4" class="node">
<title>3</title>
<ellipse fill="white" stroke="black" cx="47.04" cy="-102.19" rx="47.04" ry="22.06"/>
<text text-anchor="middle" x="47.04" y="-97.99" font-family="Arial" font-size="14.00">is_water</text>
</g>
<!-- 2&#45;&gt;3 -->
<g id="edge3" class="edge">
<title>2&#45;&gt;3</title>
<path fill="none" stroke="black" d="M147.76,-162.79C128.98,-151.68 104.95,-137.46 85.08,-125.69"/>
<polygon fill="black" stroke="black" points="87.09,-122.82 76.7,-120.74 83.53,-128.84 87.09,-122.82"/>
</g>
<!-- 4 -->
<g id="node5" class="node">
<title>4</title>
<ellipse fill="white" stroke="black" cx="167.04" cy="-102.19" rx="55.31" ry="22.06"/>
<text text-anchor="middle" x="167.04" y="-97.99" font-family="Arial" font-size="14.00">steepness</text>
</g>
<!-- 2&#45;&gt;4 -->
<g id="edge4" class="edge">
<title>2&#45;&gt;4</title>
<path fill="none" stroke="black" d="M175.77,-159.96C174.61,-152.47 173.29,-143.87 172.03,-135.68"/>
<polygon fill="black" stroke="black" points="175.53,-135.36 170.55,-126 168.61,-136.42 175.53,-135.36"/>
</g>
<!-- 5 -->
<g id="node6" class="node">
<title>5</title>
<ellipse fill="white" stroke="black" cx="275.04" cy="-102.19" rx="34.96" ry="22.06"/>
<text text-anchor="middle" x="275.04" y="-97.99" font-family="Arial" font-size="14.00">4.914</text>
</g>
<!-- 2&#45;&gt;5 -->
<g id="edge5" class="edge">
<title>2&#45;&gt;5</title>
<path fill="none" stroke="black" d="M203.27,-161.59C216,-151.24 231.71,-138.45 245.18,-127.49"/>
<polygon fill="black" stroke="black" points="247.37,-130.22 252.91,-121.19 242.95,-124.79 247.37,-130.22"/>
</g>
<!-- 8 -->
<g id="node9" class="node">
<title>8</title>
<ellipse fill="white" stroke="black" cx="472.04" cy="-182.31" rx="63.57" ry="22.06"/>
<text text-anchor="middle" x="472.04" y="-178.11" font-family="Arial" font-size="14.00">if_then_else</text>
</g>
<!-- 7&#45;&gt;8 -->
<g id="edge8" class="edge">
<title>7&#45;&gt;8</title>
<path fill="none" stroke="black" d="M472.04,-240.08C472.04,-232.68 472.04,-224.19 472.04,-216.08"/>
<polygon fill="black" stroke="black" points="475.54,-216.14 472.04,-206.14 468.54,-216.14 475.54,-216.14"/>
</g>
<!-- 14 -->
<g id="node15" class="node">
<title>14</title>
<ellipse fill="white" stroke="black" cx="601.04" cy="-182.31" rx="47.05" ry="22.06"/>
<text text-anchor="middle" x="601.04" y="-178.11" font-family="Arial" font-size="14.00">distance</text>
</g>
<!-- 7&#45;&gt;14 -->
<g id="edge14" class="edge">
<title>7&#45;&gt;14</title>
<path fill="none" stroke="black" d="M493.35,-248.53C512.3,-237.06 540.45,-220 563.23,-206.21"/>
<polygon fill="black" stroke="black" points="564.9,-209.29 571.64,-201.12 561.27,-203.3 564.9,-209.29"/>
</g>
<!-- 9 -->
<g id="node10" class="node">
<title>9</title>
<ellipse fill="white" stroke="black" cx="375.04" cy="-102.19" rx="47.04" ry="22.06"/>
<text text-anchor="middle" x="375.04" y="-97.99" font-family="Arial" font-size="14.00">is_water</text>
</g>
<!-- 8&#45;&gt;9 -->
<g id="edge9" class="edge">
<title>8&#45;&gt;9</title>
<path fill="none" stroke="black" d="M447.57,-161.59C435.26,-151.68 420.18,-139.54 406.97,-128.9"/>
<polygon fill="black" stroke="black" points="409.34,-126.31 399.36,-122.77 404.95,-131.76 409.34,-126.31"/>
</g>
<!-- 10 -->
<g id="node11" class="node">
<title>10</title>
<ellipse fill="white" stroke="black" cx="475.04" cy="-102.19" rx="34.96" ry="22.06"/>
<text text-anchor="middle" x="475.04" y="-97.99" font-family="Arial" font-size="14.00">5.079</text>
</g>
<!-- 8&#45;&gt;10 -->
<g id="edge10" class="edge">
<title>8&#45;&gt;10</title>
<path fill="none" stroke="black" d="M472.86,-159.96C473.15,-152.55 473.47,-144.07 473.79,-135.96"/>
<polygon fill="black" stroke="black" points="477.28,-136.15 474.17,-126.02 470.29,-135.88 477.28,-136.15"/>
</g>
<!-- 11 -->
<g id="node12" class="node">
<title>11</title>
<ellipse fill="white" stroke="black" cx="555.04" cy="-102.19" rx="27" ry="22.06"/>
<text text-anchor="middle" x="555.04" y="-97.99" font-family="Arial" font-size="14.00">add</text>
</g>
<!-- 8&#45;&gt;11 -->
<g id="edge11" class="edge">
<title>8&#45;&gt;11</title>
<path fill="none" stroke="black" d="M493.42,-161.19C504.37,-150.89 517.78,-138.26 529.29,-127.43"/>
<polygon fill="black" stroke="black" points="531.67,-129.99 536.55,-120.59 526.87,-124.9 531.67,-129.99"/>
</g>
<!-- 12 -->
<g id="node13" class="node">
<title>12</title>
<ellipse fill="white" stroke="black" cx="485.04" cy="-22.06" rx="60.82" ry="22.06"/>
<text text-anchor="middle" x="485.04" y="-17.86" font-family="Arial" font-size="14.00">elevation_u</text>
</g>
<!-- 11&#45;&gt;12 -->
<g id="edge12" class="edge">
<title>11&#45;&gt;12</title>
<path fill="none" stroke="black" d="M539.51,-83.85C531.06,-74.41 520.38,-62.5 510.72,-51.72"/>
<polygon fill="black" stroke="black" points="513.55,-49.63 504.27,-44.52 508.34,-54.3 513.55,-49.63"/>
</g>
<!-- 13 -->
<g id="node14" class="node">
<title>13</title>
<ellipse fill="white" stroke="black" cx="625.04" cy="-22.06" rx="60.82" ry="22.06"/>
<text text-anchor="middle" x="625.04" y="-17.86" font-family="Arial" font-size="14.00">elevation_u</text>
</g>
<!-- 11&#45;&gt;13 -->
<g id="edge13" class="edge">
<title>11&#45;&gt;13</title>
<path fill="none" stroke="black" d="M570.58,-83.85C579.03,-74.41 589.71,-62.5 599.36,-51.72"/>
<polygon fill="black" stroke="black" points="601.75,-54.3 605.82,-44.52 596.54,-49.63 601.75,-54.3"/>
</g>
</g>
</svg>
