<?xml version="1.0" encoding="UTF-8" standalone="no"?>
<!DOCTYPE svg PUBLIC "-//W3C//DTD SVG 1.1//EN"
 "http://www.w3.org/Graphics/SVG/1.1/DTD/svg11.dtd">
<!-- Generated by graphviz version 12.2.1 (0)
 -->
<!-- Title: G Pages: 1 -->
<svg width="559pt" height="566pt"
 viewBox="36.00 36.00 523.35 529.54" xmlns="http://www.w3.org/2000/svg" xmlns:xlink="http://www.w3.org/1999/xlink">
<g id="graph0" class="graph" transform="scale(1 1) rotate(0) translate(40 525.54)">
<title>G</title>
<polygon fill="white" stroke="none" points="-4,4 -4,-489.54 483.35,-489.54 483.35,4 -4,4"/>
<text text-anchor="middle" x="239.68" y="-468.94" font-family="Times New Roman,serif" font-size="14.00">2 best evolved tree</text>
<!-- 0 -->
<g id="node1" class="node">
<title>0</title>
<ellipse fill="white" stroke="black" cx="230.04" cy="-422.68" rx="27" ry="22.06"/>
<text text-anchor="middle" x="230.04" y="-418.48" font-family="Arial" font-size="14.00">add</text>
</g>
<!-- 1 -->
<g id="node2" class="node">
<title>1</title>
<ellipse fill="white" stroke="black" cx="159.04" cy="-342.56" rx="63.57" ry="22.06"/>
<text text-anchor="middle" x="159.04" y="-338.36" font-family="Arial" font-size="14.00">if_then_else</text>
</g>
<!-- 0&#45;&gt;1 -->
<g id="edge1" class="edge">
<title>0&#45;&gt;1</title>
<path fill="none" stroke="black" d="M214.29,-404.34C205.71,-394.91 194.88,-382.99 185.09,-372.22"/>
<polygon fill="black" stroke="black" points="187.86,-370.05 178.54,-365.01 182.68,-374.76 187.86,-370.05"/>
</g>
<!-- 11 -->
<g id="node12" class="node">
<title>11</title>
<ellipse fill="white" stroke="black" cx="301.04" cy="-342.56" rx="60.26" ry="22.06"/>
<text text-anchor="middle" x="301.04" y="-338.36" font-family="Arial" font-size="14.00">elevation_v</text>
</g>
<!-- 0&#45;&gt;11 -->
<g id="edge11" class="edge">
<title>0&#45;&gt;11</title>
<path fill="none" stroke="black" d="M245.8,-404.34C254.38,-394.91 265.2,-382.99 275,-372.22"/>
<polygon fill="black" stroke="black" points="277.41,-374.76 281.55,-365.01 272.23,-370.05 277.41,-374.76"/>
</g>
<!-- 2 -->
<g id="node3" class="node">
<title>2</title>
<ellipse fill="white" stroke="black" cx="47.04" cy="-262.43" rx="47.04" ry="22.06"/>
<text text-anchor="middle" x="47.04" y="-258.23" font-family="Arial" font-size="14.00">is_water</text>
</g>
<!-- 1&#45;&gt;2 -->
<g id="edge2" class="edge">
<title>1&#45;&gt;2</title>
<path fill="none" stroke="black" d="M131.36,-322.24C116.31,-311.74 97.55,-298.66 81.55,-287.5"/>
<polygon fill="black" stroke="black" points="83.94,-284.9 73.74,-282.05 79.94,-290.64 83.94,-284.9"/>
</g>
<!-- 3 -->
<g id="node4" class="node">
<title>3</title>
<ellipse fill="white" stroke="black" cx="159.04" cy="-262.43" rx="47.05" ry="22.06"/>
<text text-anchor="middle" x="159.04" y="-258.23" font-family="Arial" font-size="14.00">distance</text>
</g>
<!-- 1&#45;&gt;3 -->
<g id="edge3" class="edge">
<title>1&#45;&gt;3</title>
<path fill="none" stroke="black" d="M159.04,-320.21C159.04,-312.8 159.04,-304.32 159.04,-296.2"/>
<polygon fill="black" stroke="black" points="162.54,-296.27 159.04,-286.27 155.54,-296.27 162.54,-296.27"/>
</g>
<!-- 4 -->
<g id="node5" class="node">
<title>4</title>
<ellipse fill="white" stroke="black" cx="251.04" cy="-262.43" rx="27" ry="22.06"/>
<text text-anchor="middle" x="251.04" y="-258.23" font-family="Arial" font-size="14.00">neg</text>
</g>
<!-- 1&#45;&gt;4 -->
<g id="edge4" class="edge">
<title>1&#45;&gt;4</title>
<path fill="none" stroke="black" d="M182.26,-321.84C194.98,-311.04 210.8,-297.61 224.06,-286.35"/>
<polygon fill="black" stroke="black" points="226.25,-289.07 231.61,-279.93 221.72,-283.74 226.25,-289.07"/>
</g>
<!-- 5 -->
<g id="node6" class="node">
<title>5</title>
<ellipse fill="white" stroke="black" cx="251.04" cy="-182.31" rx="63.57" ry="22.06"/>
<text text-anchor="middle" x="251.04" y="-178.11" font-family="Arial" font-size="14.00">if_then_else</text>
</g>
<!-- 4&#45;&gt;5 -->
<g id="edge5" class="edge">
<title>4&#45;&gt;5</title>
<path fill="none" stroke="black" d="M251.04,-240.08C251.04,-232.68 251.04,-224.19 251.04,-216.08"/>
<polygon fill="black" stroke="black" points="254.54,-216.14 251.04,-206.14 247.54,-216.14 254.54,-216.14"/>
</g>
<!-- 6 -->
<g id="node7" class="node">
<title>6</title>
<ellipse fill="white" stroke="black" cx="125.04" cy="-102.19" rx="47.04" ry="22.06"/>
<text text-anchor="middle" x="125.04" y="-97.99" font-family="Arial" font-size="14.00">is_water</text>
</g>
<!-- 5&#45;&gt;6 -->
<g id="edge6" class="edge">
<title>5&#45;&gt;6</title>
<path fill="none" stroke="black" d="M220.86,-162.6C203.34,-151.73 181.11,-137.95 162.48,-126.39"/>
<polygon fill="black" stroke="black" points="164.45,-123.5 154.11,-121.21 160.77,-129.45 164.45,-123.5"/>
</g>
<!-- 7 -->
<g id="node8" class="node">
<title>7</title>
<ellipse fill="white" stroke="black" cx="251.04" cy="-102.19" rx="60.82" ry="22.06"/>
<text text-anchor="middle" x="251.04" y="-97.99" font-family="Arial" font-size="14.00">elevation_u</text>
</g>
<!-- 5&#45;&gt;7 -->
<g id="edge7" class="edge">
<title>5&#45;&gt;7</title>
<path fill="none" stroke="black" d="M251.04,-159.96C251.04,-152.55 251.04,-144.07 251.04,-135.96"/>
<polygon fill="black" stroke="black" points="254.54,-136.02 251.04,-126.02 247.54,-136.02 254.54,-136.02"/>
</g>
<!-- 8 -->
<g id="node9" class="node">
<title>8</title>
<ellipse fill="white" stroke="black" cx="357.04" cy="-102.19" rx="27" ry="22.06"/>
<text text-anchor="middle" x="357.04" y="-97.99" font-family="Arial" font-size="14.00">mul</text>
</g>
<!-- 5&#45;&gt;8 -->
<g id="edge8" class="edge">
<title>5&#45;&gt;8</title>
<path fill="none" stroke="black" d="M277.52,-161.8C293,-150.39 312.55,-135.98 328.39,-124.3"/>
<polygon fill="black" stroke="black" points="330.04,-127.44 336.01,-118.69 325.89,-121.8 330.04,-127.44"/>
</g>
<!-- 9 -->
<g id="node10" class="node">
<title>9</title>
<ellipse fill="white" stroke="black" cx="290.04" cy="-22.06" rx="60.26" ry="22.06"/>
<text text-anchor="middle" x="290.04" y="-17.86" font-family="Arial" font-size="14.00">elevation_v</text>
</g>
<!-- 8&#45;&gt;9 -->
<g id="edge9" class="edge">
<title>8&#45;&gt;9</title>
<path fill="none" stroke="black" d="M341.84,-83.46C333.88,-74.17 323.93,-62.57 314.88,-52.02"/>
<polygon fill="black" stroke="black" points="317.71,-49.94 308.54,-44.63 312.39,-54.5 317.71,-49.94"/>
</g>
<!-- 10 -->
<g id="node11" class="node">
<title>10</title>
<ellipse fill="white" stroke="black" cx="424.04" cy="-22.06" rx="55.31" ry="22.06"/>
<text text-anchor="middle" x="424.04" y="-17.86" font-family="Arial" font-size="14.00">steepness</text>
</g>
<!-- 8&#45;&gt;10 -->
<g id="edge10" class="edge">
<title>8&#45;&gt;10</title>
<path fill="none" stroke="black" d="M372.25,-83.46C380.21,-74.17 390.16,-62.57 399.21,-52.02"/>
<polygon fill="black" stroke="black" points="401.7,-54.5 405.55,-44.63 396.38,-49.94 401.7,-54.5"/>
</g>
</g>
</svg>
