<?xml version="1.0" encoding="UTF-8" standalone="no"?>
<!DOCTYPE svg PUBLIC "-//W3C//DTD SVG 1.1//EN"
 "http://www.w3.org/Graphics/SVG/1.1/DTD/svg11.dtd">
<!-- Generated by graphviz version 12.2.1 (0)
 -->
<!-- Title: G Pages: 1 -->
<svg width="1517pt" height="886pt"
 viewBox="36.00 36.00 1481.22 850.03" xmlns="http://www.w3.org/2000/svg" xmlns:xlink="http://www.w3.org/1999/xlink">
<g id="graph0" class="graph" transform="scale(1 1) rotate(0) translate(40 846.03)">
<title>G</title>
<polygon fill="white" stroke="none" points="-4,4 -4,-810.03 1441.22,-810.03 1441.22,4 -4,4"/>
<text text-anchor="middle" x="718.61" y="-789.43" font-family="Times New Roman,serif" font-size="14.00">3 best evolved tree</text>
<!-- 0 -->
<g id="node1" class="node">
<title>0</title>
<ellipse fill="white" stroke="black" cx="975.26" cy="-743.17" rx="27" ry="22.06"/>
<text text-anchor="middle" x="975.26" y="-738.97" font-family="Arial" font-size="14.00">neg</text>
</g>
<!-- 1 -->
<g id="node2" class="node">
<title>1</title>
<ellipse fill="white" stroke="black" cx="975.26" cy="-663.05" rx="27" ry="22.06"/>
<text text-anchor="middle" x="975.26" y="-658.85" font-family="Arial" font-size="14.00">add</text>
</g>
<!-- 0&#45;&gt;1 -->
<g id="edge1" class="edge">
<title>0&#45;&gt;1</title>
<path fill="none" stroke="black" d="M975.26,-720.83C975.26,-713.42 975.26,-704.93 975.26,-696.82"/>
<polygon fill="black" stroke="black" points="978.76,-696.88 975.26,-686.88 971.76,-696.88 978.76,-696.88"/>
</g>
<!-- 2 -->
<g id="node3" class="node">
<title>2</title>
<ellipse fill="white" stroke="black" cx="939.26" cy="-582.93" rx="27" ry="22.06"/>
<text text-anchor="middle" x="939.26" y="-578.73" font-family="Arial" font-size="14.00">sub</text>
</g>
<!-- 1&#45;&gt;2 -->
<g id="edge2" class="edge">
<title>1&#45;&gt;2</title>
<path fill="none" stroke="black" d="M965.99,-641.93C962.13,-633.55 957.56,-623.63 953.3,-614.38"/>
<polygon fill="black" stroke="black" points="956.5,-612.97 949.13,-605.35 950.14,-615.9 956.5,-612.97"/>
</g>
<!-- 43 -->
<g id="node44" class="node">
<title>43</title>
<ellipse fill="white" stroke="black" cx="1051.26" cy="-582.93" rx="27" ry="22.06"/>
<text text-anchor="middle" x="1051.26" y="-578.73" font-family="Arial" font-size="14.00">neg</text>
</g>
<!-- 1&#45;&gt;43 -->
<g id="edge43" class="edge">
<title>1&#45;&gt;43</title>
<path fill="none" stroke="black" d="M991.75,-645.1C1002.01,-634.55 1015.39,-620.8 1026.86,-609.01"/>
<polygon fill="black" stroke="black" points="1029.28,-611.54 1033.75,-601.93 1024.27,-606.66 1029.28,-611.54"/>
</g>
<!-- 3 -->
<g id="node4" class="node">
<title>3</title>
<ellipse fill="white" stroke="black" cx="544.26" cy="-502.8" rx="63.57" ry="22.06"/>
<text text-anchor="middle" x="544.26" y="-498.6" font-family="Arial" font-size="14.00">if_then_else</text>
</g>
<!-- 2&#45;&gt;3 -->
<g id="edge3" class="edge">
<title>2&#45;&gt;3</title>
<path fill="none" stroke="black" d="M913.04,-576.74C851.88,-564.64 698.29,-534.27 609.81,-516.77"/>
<polygon fill="black" stroke="black" points="610.54,-513.34 600.05,-514.84 609.18,-520.21 610.54,-513.34"/>
</g>
<!-- 23 -->
<g id="node24" class="node">
<title>23</title>
<ellipse fill="white" stroke="black" cx="939.26" cy="-502.8" rx="27" ry="22.06"/>
<text text-anchor="middle" x="939.26" y="-498.6" font-family="Arial" font-size="14.00">sub</text>
</g>
<!-- 2&#45;&gt;23 -->
<g id="edge23" class="edge">
<title>2&#45;&gt;23</title>
<path fill="none" stroke="black" d="M939.26,-560.58C939.26,-553.17 939.26,-544.69 939.26,-536.58"/>
<polygon fill="black" stroke="black" points="942.76,-536.64 939.26,-526.64 935.76,-536.64 942.76,-536.64"/>
</g>
<!-- 4 -->
<g id="node5" class="node">
<title>4</title>
<ellipse fill="white" stroke="black" cx="155.26" cy="-422.68" rx="71.26" ry="22.06"/>
<text text-anchor="middle" x="155.26" y="-418.48" font-family="Arial" font-size="14.00">identity_water</text>
</g>
<!-- 3&#45;&gt;4 -->
<g id="edge4" class="edge">
<title>3&#45;&gt;4</title>
<path fill="none" stroke="black" d="M490.17,-490.94C420.93,-477.03 300.85,-452.92 224.85,-437.66"/>
<polygon fill="black" stroke="black" points="225.95,-434.31 215.46,-435.77 224.57,-441.17 225.95,-434.31"/>
</g>
<!-- 9 -->
<g id="node10" class="node">
<title>9</title>
<ellipse fill="white" stroke="black" cx="440.26" cy="-422.68" rx="63.57" ry="22.06"/>
<text text-anchor="middle" x="440.26" y="-418.48" font-family="Arial" font-size="14.00">if_then_else</text>
</g>
<!-- 3&#45;&gt;9 -->
<g id="edge9" class="edge">
<title>3&#45;&gt;9</title>
<path fill="none" stroke="black" d="M518.29,-482.29C505.26,-472.5 489.29,-460.51 475.2,-449.93"/>
<polygon fill="black" stroke="black" points="477.57,-447.33 467.48,-444.12 473.37,-452.93 477.57,-447.33"/>
</g>
<!-- 18 -->
<g id="node19" class="node">
<title>18</title>
<ellipse fill="white" stroke="black" cx="598.26" cy="-422.68" rx="27" ry="22.06"/>
<text text-anchor="middle" x="598.26" y="-418.48" font-family="Arial" font-size="14.00">add</text>
</g>
<!-- 3&#45;&gt;18 -->
<g id="edge18" class="edge">
<title>3&#45;&gt;18</title>
<path fill="none" stroke="black" d="M558.73,-480.87C564.92,-471.92 572.23,-461.34 578.87,-451.73"/>
<polygon fill="black" stroke="black" points="581.56,-454 584.37,-443.78 575.8,-450.02 581.56,-454"/>
</g>
<!-- 5 -->
<g id="node6" class="node">
<title>5</title>
<ellipse fill="white" stroke="black" cx="71.26" cy="-342.56" rx="71.26" ry="22.06"/>
<text text-anchor="middle" x="71.26" y="-338.36" font-family="Arial" font-size="14.00">identity_water</text>
</g>
<!-- 4&#45;&gt;5 -->
<g id="edge5" class="edge">
<title>4&#45;&gt;5</title>
<path fill="none" stroke="black" d="M133.63,-401.56C123.81,-392.43 112.03,-381.47 101.37,-371.55"/>
<polygon fill="black" stroke="black" points="103.93,-369.16 94.22,-364.91 99.16,-374.28 103.93,-369.16"/>
</g>
<!-- 6 -->
<g id="node7" class="node">
<title>6</title>
<ellipse fill="white" stroke="black" cx="71.26" cy="-262.43" rx="71.26" ry="22.06"/>
<text text-anchor="middle" x="71.26" y="-258.23" font-family="Arial" font-size="14.00">identity_water</text>
</g>
<!-- 5&#45;&gt;6 -->
<g id="edge6" class="edge">
<title>5&#45;&gt;6</title>
<path fill="none" stroke="black" d="M71.26,-320.21C71.26,-312.8 71.26,-304.32 71.26,-296.2"/>
<polygon fill="black" stroke="black" points="74.76,-296.27 71.26,-286.27 67.76,-296.27 74.76,-296.27"/>
</g>
<!-- 7 -->
<g id="node8" class="node">
<title>7</title>
<ellipse fill="white" stroke="black" cx="71.26" cy="-182.31" rx="71.26" ry="22.06"/>
<text text-anchor="middle" x="71.26" y="-178.11" font-family="Arial" font-size="14.00">identity_water</text>
</g>
<!-- 6&#45;&gt;7 -->
<g id="edge7" class="edge">
<title>6&#45;&gt;7</title>
<path fill="none" stroke="black" d="M71.26,-240.08C71.26,-232.68 71.26,-224.19 71.26,-216.08"/>
<polygon fill="black" stroke="black" points="74.76,-216.14 71.26,-206.14 67.76,-216.14 74.76,-216.14"/>
</g>
<!-- 8 -->
<g id="node9" class="node">
<title>8</title>
<ellipse fill="white" stroke="black" cx="71.26" cy="-102.19" rx="47.04" ry="22.06"/>
<text text-anchor="middle" x="71.26" y="-97.99" font-family="Arial" font-size="14.00">is_water</text>
</g>
<!-- 7&#45;&gt;8 -->
<g id="edge8" class="edge">
<title>7&#45;&gt;8</title>
<path fill="none" stroke="black" d="M71.26,-159.96C71.26,-152.55 71.26,-144.07 71.26,-135.96"/>
<polygon fill="black" stroke="black" points="74.76,-136.02 71.26,-126.02 67.76,-136.02 74.76,-136.02"/>
</g>
<!-- 10 -->
<g id="node11" class="node">
<title>10</title>
<ellipse fill="white" stroke="black" cx="232.26" cy="-342.56" rx="71.26" ry="22.06"/>
<text text-anchor="middle" x="232.26" y="-338.36" font-family="Arial" font-size="14.00">identity_water</text>
</g>
<!-- 9&#45;&gt;10 -->
<g id="edge10" class="edge">
<title>9&#45;&gt;10</title>
<path fill="none" stroke="black" d="M397.92,-405.78C365.95,-393.77 321.81,-377.19 287.13,-364.17"/>
<polygon fill="black" stroke="black" points="288.71,-361.02 278.12,-360.78 286.25,-367.57 288.71,-361.02"/>
</g>
<!-- 12 -->
<g id="node13" class="node">
<title>12</title>
<ellipse fill="white" stroke="black" cx="391.26" cy="-342.56" rx="70.17" ry="22.06"/>
<text text-anchor="middle" x="391.26" y="-338.36" font-family="Arial" font-size="14.00">protected_log</text>
</g>
<!-- 9&#45;&gt;12 -->
<g id="edge12" class="edge">
<title>9&#45;&gt;12</title>
<path fill="none" stroke="black" d="M427.13,-400.74C422.02,-392.6 416.07,-383.1 410.49,-374.22"/>
<polygon fill="black" stroke="black" points="413.51,-372.44 405.23,-365.83 407.58,-376.16 413.51,-372.44"/>
</g>
<!-- 15 -->
<g id="node16" class="node">
<title>15</title>
<ellipse fill="white" stroke="black" cx="506.26" cy="-342.56" rx="27" ry="22.06"/>
<text text-anchor="middle" x="506.26" y="-338.36" font-family="Arial" font-size="14.00">sub</text>
</g>
<!-- 9&#45;&gt;15 -->
<g id="edge15" class="edge">
<title>9&#45;&gt;15</title>
<path fill="none" stroke="black" d="M457.6,-401.15C465.7,-391.57 475.43,-380.06 484.05,-369.85"/>
<polygon fill="black" stroke="black" points="486.52,-372.35 490.3,-362.45 481.17,-367.83 486.52,-372.35"/>
</g>
<!-- 11 -->
<g id="node12" class="node">
<title>11</title>
<ellipse fill="white" stroke="black" cx="218.26" cy="-262.43" rx="47.04" ry="22.06"/>
<text text-anchor="middle" x="218.26" y="-258.23" font-family="Arial" font-size="14.00">is_water</text>
</g>
<!-- 10&#45;&gt;11 -->
<g id="edge11" class="edge">
<title>10&#45;&gt;11</title>
<path fill="none" stroke="black" d="M228.44,-320.21C227.09,-312.72 225.55,-304.12 224.08,-295.92"/>
<polygon fill="black" stroke="black" points="227.56,-295.47 222.35,-286.24 220.67,-296.7 227.56,-295.47"/>
</g>
<!-- 13 -->
<g id="node14" class="node">
<title>13</title>
<ellipse fill="white" stroke="black" cx="318.26" cy="-262.43" rx="34.96" ry="22.06"/>
<text text-anchor="middle" x="318.26" y="-258.23" font-family="Arial" font-size="14.00">3.148</text>
</g>
<!-- 12&#45;&gt;13 -->
<g id="edge13" class="edge">
<title>12&#45;&gt;13</title>
<path fill="none" stroke="black" d="M372.08,-321.03C363.24,-311.56 352.63,-300.21 343.17,-290.09"/>
<polygon fill="black" stroke="black" points="345.99,-287.98 336.6,-283.06 340.87,-292.75 345.99,-287.98"/>
</g>
<!-- 14 -->
<g id="node15" class="node">
<title>14</title>
<ellipse fill="white" stroke="black" cx="406.26" cy="-262.43" rx="34.96" ry="22.06"/>
<text text-anchor="middle" x="406.26" y="-258.23" font-family="Arial" font-size="14.00">9.535</text>
</g>
<!-- 12&#45;&gt;14 -->
<g id="edge14" class="edge">
<title>12&#45;&gt;14</title>
<path fill="none" stroke="black" d="M395.36,-320.21C396.8,-312.72 398.45,-304.12 400.02,-295.92"/>
<polygon fill="black" stroke="black" points="403.43,-296.72 401.88,-286.24 396.56,-295.4 403.43,-296.72"/>
</g>
<!-- 16 -->
<g id="node17" class="node">
<title>16</title>
<ellipse fill="white" stroke="black" cx="506.26" cy="-262.43" rx="47.05" ry="22.06"/>
<text text-anchor="middle" x="506.26" y="-258.23" font-family="Arial" font-size="14.00">distance</text>
</g>
<!-- 15&#45;&gt;16 -->
<g id="edge16" class="edge">
<title>15&#45;&gt;16</title>
<path fill="none" stroke="black" d="M506.26,-320.21C506.26,-312.8 506.26,-304.32 506.26,-296.2"/>
<polygon fill="black" stroke="black" points="509.76,-296.27 506.26,-286.27 502.76,-296.27 509.76,-296.27"/>
</g>
<!-- 17 -->
<g id="node18" class="node">
<title>17</title>
<ellipse fill="white" stroke="black" cx="606.26" cy="-262.43" rx="34.96" ry="22.06"/>
<text text-anchor="middle" x="606.26" y="-258.23" font-family="Arial" font-size="14.00">4.705</text>
</g>
<!-- 15&#45;&gt;17 -->
<g id="edge17" class="edge">
<title>15&#45;&gt;17</title>
<path fill="none" stroke="black" d="M525.54,-326.49C539.91,-315.27 559.8,-299.73 576.24,-286.89"/>
<polygon fill="black" stroke="black" points="578.04,-289.92 583.77,-281 573.73,-284.4 578.04,-289.92"/>
</g>
<!-- 19 -->
<g id="node20" class="node">
<title>19</title>
<ellipse fill="white" stroke="black" cx="598.26" cy="-342.56" rx="47.05" ry="22.06"/>
<text text-anchor="middle" x="598.26" y="-338.36" font-family="Arial" font-size="14.00">distance</text>
</g>
<!-- 18&#45;&gt;19 -->
<g id="edge19" class="edge">
<title>18&#45;&gt;19</title>
<path fill="none" stroke="black" d="M598.26,-400.33C598.26,-392.93 598.26,-384.44 598.26,-376.33"/>
<polygon fill="black" stroke="black" points="601.76,-376.39 598.26,-366.39 594.76,-376.39 601.76,-376.39"/>
</g>
<!-- 20 -->
<g id="node21" class="node">
<title>20</title>
<ellipse fill="white" stroke="black" cx="690.26" cy="-342.56" rx="27" ry="22.06"/>
<text text-anchor="middle" x="690.26" y="-338.36" font-family="Arial" font-size="14.00">neg</text>
</g>
<!-- 18&#45;&gt;20 -->
<g id="edge20" class="edge">
<title>18&#45;&gt;20</title>
<path fill="none" stroke="black" d="M616.44,-406.24C629.83,-394.87 648.27,-379.21 663.37,-366.39"/>
<polygon fill="black" stroke="black" points="665.3,-369.35 670.65,-360.21 660.77,-364.01 665.3,-369.35"/>
</g>
<!-- 21 -->
<g id="node22" class="node">
<title>21</title>
<ellipse fill="white" stroke="black" cx="688.26" cy="-262.43" rx="27" ry="22.06"/>
<text text-anchor="middle" x="688.26" y="-258.23" font-family="Arial" font-size="14.00">neg</text>
</g>
<!-- 20&#45;&gt;21 -->
<g id="edge21" class="edge">
<title>20&#45;&gt;21</title>
<path fill="none" stroke="black" d="M689.71,-320.21C689.53,-312.8 689.31,-304.32 689.1,-296.2"/>
<polygon fill="black" stroke="black" points="692.6,-296.17 688.85,-286.27 685.6,-296.35 692.6,-296.17"/>
</g>
<!-- 22 -->
<g id="node23" class="node">
<title>22</title>
<ellipse fill="white" stroke="black" cx="680.26" cy="-182.31" rx="47.05" ry="22.06"/>
<text text-anchor="middle" x="680.26" y="-178.11" font-family="Arial" font-size="14.00">distance</text>
</g>
<!-- 21&#45;&gt;22 -->
<g id="edge22" class="edge">
<title>21&#45;&gt;22</title>
<path fill="none" stroke="black" d="M686.08,-240.08C685.32,-232.68 684.45,-224.19 683.62,-216.08"/>
<polygon fill="black" stroke="black" points="687.1,-215.73 682.6,-206.14 680.14,-216.44 687.1,-215.73"/>
</g>
<!-- 24 -->
<g id="node25" class="node">
<title>24</title>
<ellipse fill="white" stroke="black" cx="877.26" cy="-422.68" rx="27" ry="22.06"/>
<text text-anchor="middle" x="877.26" y="-418.48" font-family="Arial" font-size="14.00">sub</text>
</g>
<!-- 23&#45;&gt;24 -->
<g id="edge24" class="edge">
<title>23&#45;&gt;24</title>
<path fill="none" stroke="black" d="M924.88,-483.68C917.06,-473.82 907.23,-461.44 898.53,-450.48"/>
<polygon fill="black" stroke="black" points="901.46,-448.54 892.5,-442.89 895.98,-452.89 901.46,-448.54"/>
</g>
<!-- 39 -->
<g id="node40" class="node">
<title>39</title>
<ellipse fill="white" stroke="black" cx="1062.26" cy="-422.68" rx="63.57" ry="22.06"/>
<text text-anchor="middle" x="1062.26" y="-418.48" font-family="Arial" font-size="14.00">if_then_else</text>
</g>
<!-- 23&#45;&gt;39 -->
<g id="edge39" class="edge">
<title>23&#45;&gt;39</title>
<path fill="none" stroke="black" d="M960.13,-488.55C977.29,-477.65 1002.08,-461.9 1022.95,-448.65"/>
<polygon fill="black" stroke="black" points="1024.68,-451.7 1031.24,-443.38 1020.92,-445.79 1024.68,-451.7"/>
</g>
<!-- 25 -->
<g id="node26" class="node">
<title>25</title>
<ellipse fill="white" stroke="black" cx="772.26" cy="-342.56" rx="27" ry="22.06"/>
<text text-anchor="middle" x="772.26" y="-338.36" font-family="Arial" font-size="14.00">sub</text>
</g>
<!-- 24&#45;&gt;25 -->
<g id="edge25" class="edge">
<title>24&#45;&gt;25</title>
<path fill="none" stroke="black" d="M857.51,-406.98C841.53,-395.09 818.8,-378.18 800.82,-364.81"/>
<polygon fill="black" stroke="black" points="803.25,-362.25 793.14,-359.09 799.07,-367.86 803.25,-362.25"/>
</g>
<!-- 38 -->
<g id="node39" class="node">
<title>38</title>
<ellipse fill="white" stroke="black" cx="877.26" cy="-342.56" rx="60.26" ry="22.06"/>
<text text-anchor="middle" x="877.26" y="-338.36" font-family="Arial" font-size="14.00">elevation_v</text>
</g>
<!-- 24&#45;&gt;38 -->
<g id="edge38" class="edge">
<title>24&#45;&gt;38</title>
<path fill="none" stroke="black" d="M877.26,-400.33C877.26,-392.93 877.26,-384.44 877.26,-376.33"/>
<polygon fill="black" stroke="black" points="880.76,-376.39 877.26,-366.39 873.76,-376.39 880.76,-376.39"/>
</g>
<!-- 26 -->
<g id="node27" class="node">
<title>26</title>
<ellipse fill="white" stroke="black" cx="772.26" cy="-262.43" rx="27" ry="22.06"/>
<text text-anchor="middle" x="772.26" y="-258.23" font-family="Arial" font-size="14.00">neg</text>
</g>
<!-- 25&#45;&gt;26 -->
<g id="edge26" class="edge">
<title>25&#45;&gt;26</title>
<path fill="none" stroke="black" d="M772.26,-320.21C772.26,-312.8 772.26,-304.32 772.26,-296.2"/>
<polygon fill="black" stroke="black" points="775.76,-296.27 772.26,-286.27 768.76,-296.27 775.76,-296.27"/>
</g>
<!-- 32 -->
<g id="node33" class="node">
<title>32</title>
<ellipse fill="white" stroke="black" cx="866.26" cy="-262.43" rx="27" ry="22.06"/>
<text text-anchor="middle" x="866.26" y="-258.23" font-family="Arial" font-size="14.00">mul</text>
</g>
<!-- 25&#45;&gt;32 -->
<g id="edge32" class="edge">
<title>25&#45;&gt;32</title>
<path fill="none" stroke="black" d="M790.83,-326.12C804.61,-314.67 823.6,-298.88 839.09,-286.02"/>
<polygon fill="black" stroke="black" points="841.11,-288.89 846.56,-279.8 836.64,-283.5 841.11,-288.89"/>
</g>
<!-- 27 -->
<g id="node28" class="node">
<title>27</title>
<ellipse fill="white" stroke="black" cx="772.26" cy="-182.31" rx="27" ry="22.06"/>
<text text-anchor="middle" x="772.26" y="-178.11" font-family="Arial" font-size="14.00">add</text>
</g>
<!-- 26&#45;&gt;27 -->
<g id="edge27" class="edge">
<title>26&#45;&gt;27</title>
<path fill="none" stroke="black" d="M772.26,-240.08C772.26,-232.68 772.26,-224.19 772.26,-216.08"/>
<polygon fill="black" stroke="black" points="775.76,-216.14 772.26,-206.14 768.76,-216.14 775.76,-216.14"/>
</g>
<!-- 28 -->
<g id="node29" class="node">
<title>28</title>
<ellipse fill="white" stroke="black" cx="686.26" cy="-102.19" rx="27" ry="22.06"/>
<text text-anchor="middle" x="686.26" y="-97.99" font-family="Arial" font-size="14.00">neg</text>
</g>
<!-- 27&#45;&gt;28 -->
<g id="edge28" class="edge">
<title>27&#45;&gt;28</title>
<path fill="none" stroke="black" d="M754.86,-165.5C742.58,-154.35 725.93,-139.22 712.11,-126.67"/>
<polygon fill="black" stroke="black" points="714.81,-124.39 705.05,-120.26 710.1,-129.57 714.81,-124.39"/>
</g>
<!-- 30 -->
<g id="node31" class="node">
<title>30</title>
<ellipse fill="white" stroke="black" cx="772.26" cy="-102.19" rx="27" ry="22.06"/>
<text text-anchor="middle" x="772.26" y="-97.99" font-family="Arial" font-size="14.00">neg</text>
</g>
<!-- 27&#45;&gt;30 -->
<g id="edge30" class="edge">
<title>27&#45;&gt;30</title>
<path fill="none" stroke="black" d="M772.26,-159.96C772.26,-152.55 772.26,-144.07 772.26,-135.96"/>
<polygon fill="black" stroke="black" points="775.76,-136.02 772.26,-126.02 768.76,-136.02 775.76,-136.02"/>
</g>
<!-- 29 -->
<g id="node30" class="node">
<title>29</title>
<ellipse fill="white" stroke="black" cx="672.26" cy="-22.06" rx="47.05" ry="22.06"/>
<text text-anchor="middle" x="672.26" y="-17.86" font-family="Arial" font-size="14.00">distance</text>
</g>
<!-- 28&#45;&gt;29 -->
<g id="edge29" class="edge">
<title>28&#45;&gt;29</title>
<path fill="none" stroke="black" d="M682.51,-80.25C681.16,-72.69 679.59,-63.97 678.1,-55.65"/>
<polygon fill="black" stroke="black" points="681.55,-55.04 676.34,-45.82 674.66,-56.28 681.55,-55.04"/>
</g>
<!-- 31 -->
<g id="node32" class="node">
<title>31</title>
<ellipse fill="white" stroke="black" cx="772.26" cy="-22.06" rx="34.96" ry="22.06"/>
<text text-anchor="middle" x="772.26" y="-17.86" font-family="Arial" font-size="14.00">3.685</text>
</g>
<!-- 30&#45;&gt;31 -->
<g id="edge31" class="edge">
<title>30&#45;&gt;31</title>
<path fill="none" stroke="black" d="M772.26,-79.84C772.26,-72.43 772.26,-63.95 772.26,-55.83"/>
<polygon fill="black" stroke="black" points="775.76,-55.9 772.26,-45.9 768.76,-55.9 775.76,-55.9"/>
</g>
<!-- 33 -->
<g id="node34" class="node">
<title>33</title>
<ellipse fill="white" stroke="black" cx="866.26" cy="-182.31" rx="27" ry="22.06"/>
<text text-anchor="middle" x="866.26" y="-178.11" font-family="Arial" font-size="14.00">neg</text>
</g>
<!-- 32&#45;&gt;33 -->
<g id="edge33" class="edge">
<title>32&#45;&gt;33</title>
<path fill="none" stroke="black" d="M866.26,-240.08C866.26,-232.68 866.26,-224.19 866.26,-216.08"/>
<polygon fill="black" stroke="black" points="869.76,-216.14 866.26,-206.14 862.76,-216.14 869.76,-216.14"/>
</g>
<!-- 37 -->
<g id="node38" class="node">
<title>37</title>
<ellipse fill="white" stroke="black" cx="972.26" cy="-182.31" rx="60.82" ry="22.06"/>
<text text-anchor="middle" x="972.26" y="-178.11" font-family="Arial" font-size="14.00">elevation_u</text>
</g>
<!-- 32&#45;&gt;37 -->
<g id="edge37" class="edge">
<title>32&#45;&gt;37</title>
<path fill="none" stroke="black" d="M885.7,-247.1C900.03,-236.55 919.9,-221.9 937,-209.3"/>
<polygon fill="black" stroke="black" points="938.96,-212.2 944.93,-203.45 934.81,-206.56 938.96,-212.2"/>
</g>
<!-- 34 -->
<g id="node35" class="node">
<title>34</title>
<ellipse fill="white" stroke="black" cx="887.26" cy="-102.19" rx="69.62" ry="22.06"/>
<text text-anchor="middle" x="887.26" y="-97.99" font-family="Arial" font-size="14.00">protected_div</text>
</g>
<!-- 33&#45;&gt;34 -->
<g id="edge34" class="edge">
<title>33&#45;&gt;34</title>
<path fill="none" stroke="black" d="M871.89,-160.37C873.94,-152.73 876.32,-143.9 878.58,-135.49"/>
<polygon fill="black" stroke="black" points="881.94,-136.48 881.15,-125.91 875.18,-134.66 881.94,-136.48"/>
</g>
<!-- 35 -->
<g id="node36" class="node">
<title>35</title>
<ellipse fill="white" stroke="black" cx="886.26" cy="-22.06" rx="60.82" ry="22.06"/>
<text text-anchor="middle" x="886.26" y="-17.86" font-family="Arial" font-size="14.00">elevation_u</text>
</g>
<!-- 34&#45;&gt;35 -->
<g id="edge35" class="edge">
<title>34&#45;&gt;35</title>
<path fill="none" stroke="black" d="M886.99,-79.84C886.89,-72.43 886.78,-63.95 886.68,-55.83"/>
<polygon fill="black" stroke="black" points="890.18,-55.85 886.55,-45.9 883.18,-55.94 890.18,-55.85"/>
</g>
<!-- 36 -->
<g id="node37" class="node">
<title>36</title>
<ellipse fill="white" stroke="black" cx="1000.26" cy="-22.06" rx="34.96" ry="22.06"/>
<text text-anchor="middle" x="1000.26" y="-17.86" font-family="Arial" font-size="14.00">4.164</text>
</g>
<!-- 34&#45;&gt;36 -->
<g id="edge36" class="edge">
<title>34&#45;&gt;36</title>
<path fill="none" stroke="black" d="M915.48,-81.67C931.44,-70.64 951.45,-56.81 968.02,-45.35"/>
<polygon fill="black" stroke="black" points="969.85,-48.34 976.08,-39.78 965.87,-42.59 969.85,-48.34"/>
</g>
<!-- 40 -->
<g id="node41" class="node">
<title>40</title>
<ellipse fill="white" stroke="black" cx="1002.26" cy="-342.56" rx="47.04" ry="22.06"/>
<text text-anchor="middle" x="1002.26" y="-338.36" font-family="Arial" font-size="14.00">is_water</text>
</g>
<!-- 39&#45;&gt;40 -->
<g id="edge40" class="edge">
<title>39&#45;&gt;40</title>
<path fill="none" stroke="black" d="M1046.5,-401.15C1039.83,-392.47 1031.94,-382.2 1024.69,-372.76"/>
<polygon fill="black" stroke="black" points="1027.5,-370.67 1018.63,-364.87 1021.95,-374.94 1027.5,-370.67"/>
</g>
<!-- 41 -->
<g id="node42" class="node">
<title>41</title>
<ellipse fill="white" stroke="black" cx="1122.26" cy="-342.56" rx="55.31" ry="22.06"/>
<text text-anchor="middle" x="1122.26" y="-338.36" font-family="Arial" font-size="14.00">steepness</text>
</g>
<!-- 39&#45;&gt;41 -->
<g id="edge41" class="edge">
<title>39&#45;&gt;41</title>
<path fill="none" stroke="black" d="M1078.03,-401.15C1084.64,-392.54 1092.46,-382.36 1099.66,-372.98"/>
<polygon fill="black" stroke="black" points="1102.37,-375.21 1105.68,-365.14 1096.81,-370.94 1102.37,-375.21"/>
</g>
<!-- 42 -->
<g id="node43" class="node">
<title>42</title>
<ellipse fill="white" stroke="black" cx="1256.26" cy="-342.56" rx="60.26" ry="22.06"/>
<text text-anchor="middle" x="1256.26" y="-338.36" font-family="Arial" font-size="14.00">elevation_v</text>
</g>
<!-- 39&#45;&gt;42 -->
<g id="edge42" class="edge">
<title>39&#45;&gt;42</title>
<path fill="none" stroke="black" d="M1102.93,-405.3C1132.98,-393.2 1174.06,-376.66 1206.14,-363.74"/>
<polygon fill="black" stroke="black" points="1207.27,-367.06 1215.24,-360.08 1204.65,-360.56 1207.27,-367.06"/>
</g>
<!-- 44 -->
<g id="node45" class="node">
<title>44</title>
<ellipse fill="white" stroke="black" cx="1132.26" cy="-502.8" rx="27" ry="22.06"/>
<text text-anchor="middle" x="1132.26" y="-498.6" font-family="Arial" font-size="14.00">neg</text>
</g>
<!-- 43&#45;&gt;44 -->
<g id="edge44" class="edge">
<title>43&#45;&gt;44</title>
<path fill="none" stroke="black" d="M1068.44,-565.36C1079.61,-554.59 1094.37,-540.35 1106.88,-528.29"/>
<polygon fill="black" stroke="black" points="1109.25,-530.86 1114.02,-521.4 1104.39,-525.82 1109.25,-530.86"/>
</g>
<!-- 45 -->
<g id="node46" class="node">
<title>45</title>
<ellipse fill="white" stroke="black" cx="1296.26" cy="-422.68" rx="27" ry="22.06"/>
<text text-anchor="middle" x="1296.26" y="-418.48" font-family="Arial" font-size="14.00">neg</text>
</g>
<!-- 44&#45;&gt;45 -->
<g id="edge45" class="edge">
<title>44&#45;&gt;45</title>
<path fill="none" stroke="black" d="M1155.41,-490.78C1183.49,-477.4 1231.04,-454.75 1263.03,-439.51"/>
<polygon fill="black" stroke="black" points="1264.34,-442.76 1271.86,-435.3 1261.33,-436.44 1264.34,-442.76"/>
</g>
<!-- 46 -->
<g id="node47" class="node">
<title>46</title>
<ellipse fill="white" stroke="black" cx="1361.26" cy="-342.56" rx="27" ry="22.06"/>
<text text-anchor="middle" x="1361.26" y="-338.36" font-family="Arial" font-size="14.00">neg</text>
</g>
<!-- 45&#45;&gt;46 -->
<g id="edge46" class="edge">
<title>45&#45;&gt;46</title>
<path fill="none" stroke="black" d="M1311.01,-403.95C1319.35,-393.93 1329.93,-381.22 1339.23,-370.04"/>
<polygon fill="black" stroke="black" points="1341.67,-372.57 1345.38,-362.65 1336.29,-368.1 1341.67,-372.57"/>
</g>
<!-- 47 -->
<g id="node48" class="node">
<title>47</title>
<ellipse fill="white" stroke="black" cx="1361.26" cy="-262.43" rx="27" ry="22.06"/>
<text text-anchor="middle" x="1361.26" y="-258.23" font-family="Arial" font-size="14.00">neg</text>
</g>
<!-- 46&#45;&gt;47 -->
<g id="edge47" class="edge">
<title>46&#45;&gt;47</title>
<path fill="none" stroke="black" d="M1361.26,-320.21C1361.26,-312.8 1361.26,-304.32 1361.26,-296.2"/>
<polygon fill="black" stroke="black" points="1364.76,-296.27 1361.26,-286.27 1357.76,-296.27 1364.76,-296.27"/>
</g>
<!-- 48 -->
<g id="node49" class="node">
<title>48</title>
<ellipse fill="white" stroke="black" cx="1361.26" cy="-182.31" rx="75.12" ry="22.06"/>
<text text-anchor="middle" x="1361.26" y="-178.11" font-family="Arial" font-size="14.00">protected_pow</text>
</g>
<!-- 47&#45;&gt;48 -->
<g id="edge48" class="edge">
<title>47&#45;&gt;48</title>
<path fill="none" stroke="black" d="M1361.26,-240.08C1361.26,-232.68 1361.26,-224.19 1361.26,-216.08"/>
<polygon fill="black" stroke="black" points="1364.76,-216.14 1361.26,-206.14 1357.76,-216.14 1364.76,-216.14"/>
</g>
<!-- 49 -->
<g id="node50" class="node">
<title>49</title>
<ellipse fill="white" stroke="black" cx="1320.26" cy="-102.19" rx="29.45" ry="22.06"/>
<text text-anchor="middle" x="1320.26" y="-97.99" font-family="Arial" font-size="14.00">2.41</text>
</g>
<!-- 48&#45;&gt;49 -->
<g id="edge49" class="edge">
<title>48&#45;&gt;49</title>
<path fill="none" stroke="black" d="M1350.27,-160.37C1345.91,-152.06 1340.81,-142.33 1336.06,-133.28"/>
<polygon fill="black" stroke="black" points="1339.16,-131.67 1331.42,-124.44 1332.96,-134.92 1339.16,-131.67"/>
</g>
<!-- 50 -->
<g id="node51" class="node">
<title>50</title>
<ellipse fill="white" stroke="black" cx="1402.26" cy="-102.19" rx="34.96" ry="22.06"/>
<text text-anchor="middle" x="1402.26" y="-97.99" font-family="Arial" font-size="14.00">3.978</text>
</g>
<!-- 48&#45;&gt;50 -->
<g id="edge50" class="edge">
<title>48&#45;&gt;50</title>
<path fill="none" stroke="black" d="M1372.25,-160.37C1376.55,-152.19 1381.56,-142.64 1386.24,-133.71"/>
<polygon fill="black" stroke="black" points="1389.28,-135.46 1390.82,-124.98 1383.08,-132.21 1389.28,-135.46"/>
</g>
</g>
</svg>
