<?xml version="1.0" encoding="UTF-8" standalone="no"?>
<!DOCTYPE svg PUBLIC "-//W3C//DTD SVG 1.1//EN"
 "http://www.w3.org/Graphics/SVG/1.1/DTD/svg11.dtd">
<!-- Generated by graphviz version 12.2.1 (0)
 -->
<!-- Title: G Pages: 1 -->
<svg width="587pt" height="566pt"
 viewBox="36.00 36.00 551.13 529.54" xmlns="http://www.w3.org/2000/svg" xmlns:xlink="http://www.w3.org/1999/xlink">
<g id="graph0" class="graph" transform="scale(1 1) rotate(0) translate(40 525.54)">
<title>G</title>
<polygon fill="white" stroke="none" points="-4,4 -4,-489.54 511.13,-489.54 511.13,4 -4,4"/>
<text text-anchor="middle" x="253.57" y="-468.94" font-family="Times New Roman,serif" font-size="14.00">7 best evolved tree</text>
<!-- 0 -->
<g id="node1" class="node">
<title>0</title>
<ellipse fill="white" stroke="black" cx="138.82" cy="-422.68" rx="27" ry="22.06"/>
<text text-anchor="middle" x="138.82" y="-418.48" font-family="Arial" font-size="14.00">sub</text>
</g>
<!-- 1 -->
<g id="node2" class="node">
<title>1</title>
<ellipse fill="white" stroke="black" cx="92.82" cy="-342.56" rx="47.05" ry="22.06"/>
<text text-anchor="middle" x="92.82" y="-338.36" font-family="Arial" font-size="14.00">distance</text>
</g>
<!-- 0&#45;&gt;1 -->
<g id="edge1" class="edge">
<title>0&#45;&gt;1</title>
<path fill="none" stroke="black" d="M127.45,-402.37C122.45,-393.87 116.45,-383.69 110.86,-374.2"/>
<polygon fill="black" stroke="black" points="113.88,-372.43 105.79,-365.59 107.85,-375.98 113.88,-372.43"/>
</g>
<!-- 2 -->
<g id="node3" class="node">
<title>2</title>
<ellipse fill="white" stroke="black" cx="184.82" cy="-342.56" rx="27" ry="22.06"/>
<text text-anchor="middle" x="184.82" y="-338.36" font-family="Arial" font-size="14.00">sub</text>
</g>
<!-- 0&#45;&gt;2 -->
<g id="edge2" class="edge">
<title>0&#45;&gt;2</title>
<path fill="none" stroke="black" d="M150.19,-402.37C155.44,-393.45 161.79,-382.66 167.62,-372.78"/>
<polygon fill="black" stroke="black" points="170.6,-374.61 172.65,-364.22 164.56,-371.06 170.6,-374.61"/>
</g>
<!-- 3 -->
<g id="node4" class="node">
<title>3</title>
<ellipse fill="white" stroke="black" cx="131.82" cy="-262.43" rx="27" ry="22.06"/>
<text text-anchor="middle" x="131.82" y="-258.23" font-family="Arial" font-size="14.00">sub</text>
</g>
<!-- 2&#45;&gt;3 -->
<g id="edge3" class="edge">
<title>2&#45;&gt;3</title>
<path fill="none" stroke="black" d="M171.99,-322.64C165.68,-313.34 157.94,-301.93 150.94,-291.61"/>
<polygon fill="black" stroke="black" points="153.89,-289.73 145.38,-283.42 148.1,-293.66 153.89,-289.73"/>
</g>
<!-- 12 -->
<g id="node13" class="node">
<title>12</title>
<ellipse fill="white" stroke="black" cx="236.82" cy="-262.43" rx="60.26" ry="22.06"/>
<text text-anchor="middle" x="236.82" y="-258.23" font-family="Arial" font-size="14.00">elevation_v</text>
</g>
<!-- 2&#45;&gt;12 -->
<g id="edge12" class="edge">
<title>2&#45;&gt;12</title>
<path fill="none" stroke="black" d="M197.41,-322.64C203.18,-313.97 210.16,-303.48 216.64,-293.75"/>
<polygon fill="black" stroke="black" points="219.42,-295.89 222.05,-285.63 213.59,-292.01 219.42,-295.89"/>
</g>
<!-- 4 -->
<g id="node5" class="node">
<title>4</title>
<ellipse fill="white" stroke="black" cx="60.82" cy="-182.31" rx="60.82" ry="22.06"/>
<text text-anchor="middle" x="60.82" y="-178.11" font-family="Arial" font-size="14.00">elevation_u</text>
</g>
<!-- 3&#45;&gt;4 -->
<g id="edge4" class="edge">
<title>3&#45;&gt;4</title>
<path fill="none" stroke="black" d="M116.06,-244.09C107.49,-234.66 96.66,-222.74 86.87,-211.97"/>
<polygon fill="black" stroke="black" points="89.63,-209.81 80.32,-204.76 84.45,-214.51 89.63,-209.81"/>
</g>
<!-- 5 -->
<g id="node6" class="node">
<title>5</title>
<ellipse fill="white" stroke="black" cx="202.82" cy="-182.31" rx="63.57" ry="22.06"/>
<text text-anchor="middle" x="202.82" y="-178.11" font-family="Arial" font-size="14.00">if_then_else</text>
</g>
<!-- 3&#45;&gt;5 -->
<g id="edge5" class="edge">
<title>3&#45;&gt;5</title>
<path fill="none" stroke="black" d="M147.58,-244.09C156.15,-234.66 166.98,-222.74 176.77,-211.97"/>
<polygon fill="black" stroke="black" points="179.19,-214.51 183.32,-204.76 174.01,-209.81 179.19,-214.51"/>
</g>
<!-- 6 -->
<g id="node7" class="node">
<title>6</title>
<ellipse fill="white" stroke="black" cx="90.82" cy="-102.19" rx="47.04" ry="22.06"/>
<text text-anchor="middle" x="90.82" y="-97.99" font-family="Arial" font-size="14.00">is_water</text>
</g>
<!-- 5&#45;&gt;6 -->
<g id="edge6" class="edge">
<title>5&#45;&gt;6</title>
<path fill="none" stroke="black" d="M175.14,-162C160.08,-151.5 141.32,-138.41 125.32,-127.25"/>
<polygon fill="black" stroke="black" points="127.72,-124.65 117.51,-121.8 123.71,-130.4 127.72,-124.65"/>
</g>
<!-- 7 -->
<g id="node8" class="node">
<title>7</title>
<ellipse fill="white" stroke="black" cx="202.82" cy="-102.19" rx="47.05" ry="22.06"/>
<text text-anchor="middle" x="202.82" y="-97.99" font-family="Arial" font-size="14.00">distance</text>
</g>
<!-- 5&#45;&gt;7 -->
<g id="edge7" class="edge">
<title>5&#45;&gt;7</title>
<path fill="none" stroke="black" d="M202.82,-159.96C202.82,-152.55 202.82,-144.07 202.82,-135.96"/>
<polygon fill="black" stroke="black" points="206.32,-136.02 202.82,-126.02 199.32,-136.02 206.32,-136.02"/>
</g>
<!-- 8 -->
<g id="node9" class="node">
<title>8</title>
<ellipse fill="white" stroke="black" cx="331.82" cy="-102.19" rx="63.57" ry="22.06"/>
<text text-anchor="middle" x="331.82" y="-97.99" font-family="Arial" font-size="14.00">if_then_else</text>
</g>
<!-- 5&#45;&gt;8 -->
<g id="edge8" class="edge">
<title>5&#45;&gt;8</title>
<path fill="none" stroke="black" d="M233.72,-162.6C251.03,-152.11 272.82,-138.91 291.47,-127.62"/>
<polygon fill="black" stroke="black" points="293.14,-130.7 299.88,-122.53 289.51,-124.72 293.14,-130.7"/>
</g>
<!-- 9 -->
<g id="node10" class="node">
<title>9</title>
<ellipse fill="white" stroke="black" cx="219.82" cy="-22.06" rx="47.04" ry="22.06"/>
<text text-anchor="middle" x="219.82" y="-17.86" font-family="Arial" font-size="14.00">is_water</text>
</g>
<!-- 8&#45;&gt;9 -->
<g id="edge9" class="edge">
<title>8&#45;&gt;9</title>
<path fill="none" stroke="black" d="M304.14,-81.87C289.08,-71.37 270.32,-58.29 254.32,-47.13"/>
<polygon fill="black" stroke="black" points="256.72,-44.53 246.51,-41.68 252.71,-50.27 256.72,-44.53"/>
</g>
<!-- 10 -->
<g id="node11" class="node">
<title>10</title>
<ellipse fill="white" stroke="black" cx="331.82" cy="-22.06" rx="47.05" ry="22.06"/>
<text text-anchor="middle" x="331.82" y="-17.86" font-family="Arial" font-size="14.00">distance</text>
</g>
<!-- 8&#45;&gt;10 -->
<g id="edge10" class="edge">
<title>8&#45;&gt;10</title>
<path fill="none" stroke="black" d="M331.82,-79.84C331.82,-72.43 331.82,-63.95 331.82,-55.83"/>
<polygon fill="black" stroke="black" points="335.32,-55.9 331.82,-45.9 328.32,-55.9 335.32,-55.9"/>
</g>
<!-- 11 -->
<g id="node12" class="node">
<title>11</title>
<ellipse fill="white" stroke="black" cx="451.82" cy="-22.06" rx="55.31" ry="22.06"/>
<text text-anchor="middle" x="451.82" y="-17.86" font-family="Arial" font-size="14.00">steepness</text>
</g>
<!-- 8&#45;&gt;11 -->
<g id="edge11" class="edge">
<title>8&#45;&gt;11</title>
<path fill="none" stroke="black" d="M360.87,-82.27C377.02,-71.76 397.3,-58.56 414.6,-47.29"/>
<polygon fill="black" stroke="black" points="416.13,-50.48 422.6,-42.09 412.31,-44.61 416.13,-50.48"/>
</g>
</g>
</svg>
