<?xml version="1.0" encoding="UTF-8" standalone="no"?>
<!DOCTYPE svg PUBLIC "-//W3C//DTD SVG 1.1//EN"
 "http://www.w3.org/Graphics/SVG/1.1/DTD/svg11.dtd">
<!-- Generated by graphviz version 12.2.1 (0)
 -->
<!-- Title: G Pages: 1 -->
<svg width="707pt" height="566pt"
 viewBox="36.00 36.00 671.01 529.54" xmlns="http://www.w3.org/2000/svg" xmlns:xlink="http://www.w3.org/1999/xlink">
<g id="graph0" class="graph" transform="scale(1 1) rotate(0) translate(40 525.54)">
<title>G</title>
<polygon fill="white" stroke="none" points="-4,4 -4,-489.54 631.01,-489.54 631.01,4 -4,4"/>
<text text-anchor="middle" x="313.5" y="-468.94" font-family="Times New Roman,serif" font-size="14.00">8 best evolved tree</text>
<!-- 0 -->
<g id="node1" class="node">
<title>0</title>
<ellipse fill="white" stroke="black" cx="142.96" cy="-422.68" rx="63.57" ry="22.06"/>
<text text-anchor="middle" x="142.96" y="-418.48" font-family="Arial" font-size="14.00">if_then_else</text>
</g>
<!-- 1 -->
<g id="node2" class="node">
<title>1</title>
<ellipse fill="white" stroke="black" cx="50.96" cy="-342.56" rx="47.04" ry="22.06"/>
<text text-anchor="middle" x="50.96" y="-338.36" font-family="Arial" font-size="14.00">is_water</text>
</g>
<!-- 0&#45;&gt;1 -->
<g id="edge1" class="edge">
<title>0&#45;&gt;1</title>
<path fill="none" stroke="black" d="M119.74,-401.97C108.26,-392.22 94.25,-380.32 81.87,-369.81"/>
<polygon fill="black" stroke="black" points="84.25,-367.24 74.36,-363.43 79.72,-372.58 84.25,-367.24"/>
</g>
<!-- 2 -->
<g id="node3" class="node">
<title>2</title>
<ellipse fill="white" stroke="black" cx="142.96" cy="-342.56" rx="27" ry="22.06"/>
<text text-anchor="middle" x="142.96" y="-338.36" font-family="Arial" font-size="14.00">sub</text>
</g>
<!-- 0&#45;&gt;2 -->
<g id="edge2" class="edge">
<title>0&#45;&gt;2</title>
<path fill="none" stroke="black" d="M142.96,-400.33C142.96,-392.93 142.96,-384.44 142.96,-376.33"/>
<polygon fill="black" stroke="black" points="146.46,-376.39 142.96,-366.39 139.46,-376.39 146.46,-376.39"/>
</g>
<!-- 5 -->
<g id="node6" class="node">
<title>5</title>
<ellipse fill="white" stroke="black" cx="250.96" cy="-342.56" rx="27" ry="22.06"/>
<text text-anchor="middle" x="250.96" y="-338.36" font-family="Arial" font-size="14.00">add</text>
</g>
<!-- 0&#45;&gt;5 -->
<g id="edge5" class="edge">
<title>0&#45;&gt;5</title>
<path fill="none" stroke="black" d="M169.65,-402.37C185.53,-390.89 205.67,-376.31 221.94,-364.55"/>
<polygon fill="black" stroke="black" points="223.73,-367.57 229.78,-358.87 219.62,-361.9 223.73,-367.57"/>
</g>
<!-- 3 -->
<g id="node4" class="node">
<title>3</title>
<ellipse fill="white" stroke="black" cx="34.96" cy="-262.43" rx="34.96" ry="22.06"/>
<text text-anchor="middle" x="34.96" y="-258.23" font-family="Arial" font-size="14.00">5.083</text>
</g>
<!-- 2&#45;&gt;3 -->
<g id="edge3" class="edge">
<title>2&#45;&gt;3</title>
<path fill="none" stroke="black" d="M123.15,-327.23C107.28,-315.75 84.72,-299.43 66.39,-286.17"/>
<polygon fill="black" stroke="black" points="68.63,-283.47 58.47,-280.44 64.52,-289.14 68.63,-283.47"/>
</g>
<!-- 4 -->
<g id="node5" class="node">
<title>4</title>
<ellipse fill="white" stroke="black" cx="142.96" cy="-262.43" rx="55.31" ry="22.06"/>
<text text-anchor="middle" x="142.96" y="-258.23" font-family="Arial" font-size="14.00">steepness</text>
</g>
<!-- 2&#45;&gt;4 -->
<g id="edge4" class="edge">
<title>2&#45;&gt;4</title>
<path fill="none" stroke="black" d="M142.96,-320.21C142.96,-312.8 142.96,-304.32 142.96,-296.2"/>
<polygon fill="black" stroke="black" points="146.46,-296.27 142.96,-286.27 139.46,-296.27 146.46,-296.27"/>
</g>
<!-- 6 -->
<g id="node7" class="node">
<title>6</title>
<ellipse fill="white" stroke="black" cx="250.96" cy="-262.43" rx="34.96" ry="22.06"/>
<text text-anchor="middle" x="250.96" y="-258.23" font-family="Arial" font-size="14.00">5.502</text>
</g>
<!-- 5&#45;&gt;6 -->
<g id="edge6" class="edge">
<title>5&#45;&gt;6</title>
<path fill="none" stroke="black" d="M250.96,-320.21C250.96,-312.8 250.96,-304.32 250.96,-296.2"/>
<polygon fill="black" stroke="black" points="254.46,-296.27 250.96,-286.27 247.46,-296.27 254.46,-296.27"/>
</g>
<!-- 7 -->
<g id="node8" class="node">
<title>7</title>
<ellipse fill="white" stroke="black" cx="330.96" cy="-262.43" rx="27" ry="22.06"/>
<text text-anchor="middle" x="330.96" y="-258.23" font-family="Arial" font-size="14.00">add</text>
</g>
<!-- 5&#45;&gt;7 -->
<g id="edge7" class="edge">
<title>5&#45;&gt;7</title>
<path fill="none" stroke="black" d="M267.92,-324.99C278.95,-314.22 293.53,-299.98 305.88,-287.91"/>
<polygon fill="black" stroke="black" points="308.22,-290.52 312.93,-281.03 303.33,-285.52 308.22,-290.52"/>
</g>
<!-- 8 -->
<g id="node9" class="node">
<title>8</title>
<ellipse fill="white" stroke="black" cx="277.96" cy="-182.31" rx="60.82" ry="22.06"/>
<text text-anchor="middle" x="277.96" y="-178.11" font-family="Arial" font-size="14.00">elevation_u</text>
</g>
<!-- 7&#45;&gt;8 -->
<g id="edge8" class="edge">
<title>7&#45;&gt;8</title>
<path fill="none" stroke="black" d="M318.13,-242.52C312.24,-233.85 305.12,-223.36 298.52,-213.63"/>
<polygon fill="black" stroke="black" points="301.52,-211.81 293.01,-205.5 295.73,-215.74 301.52,-211.81"/>
</g>
<!-- 9 -->
<g id="node10" class="node">
<title>9</title>
<ellipse fill="white" stroke="black" cx="383.96" cy="-182.31" rx="27" ry="22.06"/>
<text text-anchor="middle" x="383.96" y="-178.11" font-family="Arial" font-size="14.00">add</text>
</g>
<!-- 7&#45;&gt;9 -->
<g id="edge9" class="edge">
<title>7&#45;&gt;9</title>
<path fill="none" stroke="black" d="M343.79,-242.52C350.1,-233.21 357.84,-221.8 364.84,-211.49"/>
<polygon fill="black" stroke="black" points="367.68,-213.54 370.39,-203.3 361.88,-209.61 367.68,-213.54"/>
</g>
<!-- 10 -->
<g id="node11" class="node">
<title>10</title>
<ellipse fill="white" stroke="black" cx="312.96" cy="-102.19" rx="60.82" ry="22.06"/>
<text text-anchor="middle" x="312.96" y="-97.99" font-family="Arial" font-size="14.00">elevation_u</text>
</g>
<!-- 9&#45;&gt;10 -->
<g id="edge10" class="edge">
<title>9&#45;&gt;10</title>
<path fill="none" stroke="black" d="M368.2,-163.97C359.62,-154.54 348.8,-142.62 339,-131.85"/>
<polygon fill="black" stroke="black" points="341.77,-129.68 332.45,-124.64 336.59,-134.39 341.77,-129.68"/>
</g>
<!-- 11 -->
<g id="node12" class="node">
<title>11</title>
<ellipse fill="white" stroke="black" cx="454.96" cy="-102.19" rx="63.57" ry="22.06"/>
<text text-anchor="middle" x="454.96" y="-97.99" font-family="Arial" font-size="14.00">if_then_else</text>
</g>
<!-- 9&#45;&gt;11 -->
<g id="edge11" class="edge">
<title>9&#45;&gt;11</title>
<path fill="none" stroke="black" d="M399.71,-163.97C408.29,-154.54 419.12,-142.62 428.91,-131.85"/>
<polygon fill="black" stroke="black" points="431.32,-134.39 435.46,-124.64 426.14,-129.68 431.32,-134.39"/>
</g>
<!-- 12 -->
<g id="node13" class="node">
<title>12</title>
<ellipse fill="white" stroke="black" cx="329.96" cy="-22.06" rx="47.04" ry="22.06"/>
<text text-anchor="middle" x="329.96" y="-17.86" font-family="Arial" font-size="14.00">is_water</text>
</g>
<!-- 11&#45;&gt;12 -->
<g id="edge12" class="edge">
<title>11&#45;&gt;12</title>
<path fill="none" stroke="black" d="M425.01,-82.47C407.63,-71.61 385.58,-57.82 367.09,-46.27"/>
<polygon fill="black" stroke="black" points="369.13,-43.42 358.8,-41.09 365.42,-49.36 369.13,-43.42"/>
</g>
<!-- 13 -->
<g id="node14" class="node">
<title>13</title>
<ellipse fill="white" stroke="black" cx="454.96" cy="-22.06" rx="60.26" ry="22.06"/>
<text text-anchor="middle" x="454.96" y="-17.86" font-family="Arial" font-size="14.00">elevation_v</text>
</g>
<!-- 11&#45;&gt;13 -->
<g id="edge13" class="edge">
<title>11&#45;&gt;13</title>
<path fill="none" stroke="black" d="M454.96,-79.84C454.96,-72.43 454.96,-63.95 454.96,-55.83"/>
<polygon fill="black" stroke="black" points="458.46,-55.9 454.96,-45.9 451.46,-55.9 458.46,-55.9"/>
</g>
<!-- 14 -->
<g id="node15" class="node">
<title>14</title>
<ellipse fill="white" stroke="black" cx="579.96" cy="-22.06" rx="47.05" ry="22.06"/>
<text text-anchor="middle" x="579.96" y="-17.86" font-family="Arial" font-size="14.00">distance</text>
</g>
<!-- 11&#45;&gt;14 -->
<g id="edge14" class="edge">
<title>11&#45;&gt;14</title>
<path fill="none" stroke="black" d="M484.9,-82.47C502.28,-71.61 524.34,-57.82 542.82,-46.27"/>
<polygon fill="black" stroke="black" points="544.49,-49.36 551.11,-41.09 540.78,-43.42 544.49,-49.36"/>
</g>
</g>
</svg>
