<?xml version="1.0" encoding="UTF-8" standalone="no"?>
<!DOCTYPE svg PUBLIC "-//W3C//DTD SVG 1.1//EN"
 "http://www.w3.org/Graphics/SVG/1.1/DTD/svg11.dtd">
<!-- Generated by graphviz version 12.2.1 (0)
 -->
<!-- Title: G Pages: 1 -->
<svg width="699pt" height="405pt"
 viewBox="36.00 36.00 662.53 369.29" xmlns="http://www.w3.org/2000/svg" xmlns:xlink="http://www.w3.org/1999/xlink">
<g id="graph0" class="graph" transform="scale(1 1) rotate(0) translate(40 365.29)">
<title>G</title>
<polygon fill="white" stroke="none" points="-4,4 -4,-329.29 622.53,-329.29 622.53,4 -4,4"/>
<text text-anchor="middle" x="309.26" y="-308.69" font-family="Times New Roman,serif" font-size="14.00">(&#39;best_tree_2500pop_15gen_20runs_res200_8subrun&#39;, &#39;&#39;)</text>
<!-- 0 -->
<g id="node1" class="node">
<title>0</title>
<ellipse fill="white" stroke="black" cx="209.26" cy="-262.43" rx="63.57" ry="22.06"/>
<text text-anchor="middle" x="209.26" y="-258.23" font-family="Arial" font-size="14.00">if_then_else</text>
</g>
<!-- 1 -->
<g id="node2" class="node">
<title>1</title>
<ellipse fill="white" stroke="black" cx="71.26" cy="-182.31" rx="71.26" ry="22.06"/>
<text text-anchor="middle" x="71.26" y="-178.11" font-family="Arial" font-size="14.00">identity_water</text>
</g>
<!-- 0&#45;&gt;1 -->
<g id="edge1" class="edge">
<title>0&#45;&gt;1</title>
<path fill="none" stroke="black" d="M176.91,-243.12C158.23,-232.54 134.52,-219.12 114.29,-207.67"/>
<polygon fill="black" stroke="black" points="116.12,-204.68 105.69,-202.8 112.67,-210.77 116.12,-204.68"/>
</g>
<!-- 3 -->
<g id="node4" class="node">
<title>3</title>
<ellipse fill="white" stroke="black" cx="209.26" cy="-182.31" rx="27" ry="22.06"/>
<text text-anchor="middle" x="209.26" y="-178.11" font-family="Arial" font-size="14.00">sub</text>
</g>
<!-- 0&#45;&gt;3 -->
<g id="edge3" class="edge">
<title>0&#45;&gt;3</title>
<path fill="none" stroke="black" d="M209.26,-240.08C209.26,-232.68 209.26,-224.19 209.26,-216.08"/>
<polygon fill="black" stroke="black" points="212.76,-216.14 209.26,-206.14 205.76,-216.14 212.76,-216.14"/>
</g>
<!-- 8 -->
<g id="node9" class="node">
<title>8</title>
<ellipse fill="white" stroke="black" cx="345.26" cy="-182.31" rx="27" ry="22.06"/>
<text text-anchor="middle" x="345.26" y="-178.11" font-family="Arial" font-size="14.00">sub</text>
</g>
<!-- 0&#45;&gt;8 -->
<g id="edge8" class="edge">
<title>0&#45;&gt;8</title>
<path fill="none" stroke="black" d="M241.15,-243.12C262.97,-230.58 291.79,-214.03 313.57,-201.51"/>
<polygon fill="black" stroke="black" points="315.09,-204.67 322.02,-196.66 311.61,-198.6 315.09,-204.67"/>
</g>
<!-- 2 -->
<g id="node3" class="node">
<title>2</title>
<ellipse fill="white" stroke="black" cx="49.26" cy="-102.19" rx="47.04" ry="22.06"/>
<text text-anchor="middle" x="49.26" y="-97.99" font-family="Arial" font-size="14.00">is_water</text>
</g>
<!-- 1&#45;&gt;2 -->
<g id="edge2" class="edge">
<title>1&#45;&gt;2</title>
<path fill="none" stroke="black" d="M65.25,-159.96C63.12,-152.38 60.66,-143.68 58.33,-135.39"/>
<polygon fill="black" stroke="black" points="61.76,-134.64 55.68,-125.96 55.02,-136.54 61.76,-134.64"/>
</g>
<!-- 4 -->
<g id="node5" class="node">
<title>4</title>
<ellipse fill="white" stroke="black" cx="161.26" cy="-102.19" rx="47.05" ry="22.06"/>
<text text-anchor="middle" x="161.26" y="-97.99" font-family="Arial" font-size="14.00">distance</text>
</g>
<!-- 3&#45;&gt;4 -->
<g id="edge4" class="edge">
<title>3&#45;&gt;4</title>
<path fill="none" stroke="black" d="M197.4,-162C192.12,-153.41 185.79,-143.1 179.9,-133.52"/>
<polygon fill="black" stroke="black" points="183.01,-131.89 174.79,-125.21 177.04,-135.56 183.01,-131.89"/>
</g>
<!-- 5 -->
<g id="node6" class="node">
<title>5</title>
<ellipse fill="white" stroke="black" cx="253.26" cy="-102.19" rx="27" ry="22.06"/>
<text text-anchor="middle" x="253.26" y="-97.99" font-family="Arial" font-size="14.00">mul</text>
</g>
<!-- 3&#45;&gt;5 -->
<g id="edge5" class="edge">
<title>3&#45;&gt;5</title>
<path fill="none" stroke="black" d="M220.14,-162C225.12,-153.14 231.15,-142.45 236.68,-132.63"/>
<polygon fill="black" stroke="black" points="239.6,-134.57 241.46,-124.14 233.5,-131.13 239.6,-134.57"/>
</g>
<!-- 6 -->
<g id="node7" class="node">
<title>6</title>
<ellipse fill="white" stroke="black" cx="131.26" cy="-22.06" rx="55.31" ry="22.06"/>
<text text-anchor="middle" x="131.26" y="-17.86" font-family="Arial" font-size="14.00">steepness</text>
</g>
<!-- 5&#45;&gt;6 -->
<g id="edge6" class="edge">
<title>5&#45;&gt;6</title>
<path fill="none" stroke="black" d="M232.29,-87.76C215,-76.68 190.02,-60.69 169.23,-47.38"/>
<polygon fill="black" stroke="black" points="171.3,-44.54 160.99,-42.1 167.53,-50.44 171.3,-44.54"/>
</g>
<!-- 7 -->
<g id="node8" class="node">
<title>7</title>
<ellipse fill="white" stroke="black" cx="265.26" cy="-22.06" rx="60.82" ry="22.06"/>
<text text-anchor="middle" x="265.26" y="-17.86" font-family="Arial" font-size="14.00">elevation_u</text>
</g>
<!-- 5&#45;&gt;7 -->
<g id="edge7" class="edge">
<title>5&#45;&gt;7</title>
<path fill="none" stroke="black" d="M256.54,-79.84C257.69,-72.35 259.01,-63.75 260.27,-55.55"/>
<polygon fill="black" stroke="black" points="263.7,-56.29 261.76,-45.88 256.78,-55.23 263.7,-56.29"/>
</g>
<!-- 9 -->
<g id="node10" class="node">
<title>9</title>
<ellipse fill="white" stroke="black" cx="345.26" cy="-102.19" rx="47.05" ry="22.06"/>
<text text-anchor="middle" x="345.26" y="-97.99" font-family="Arial" font-size="14.00">distance</text>
</g>
<!-- 8&#45;&gt;9 -->
<g id="edge9" class="edge">
<title>8&#45;&gt;9</title>
<path fill="none" stroke="black" d="M345.26,-159.96C345.26,-152.55 345.26,-144.07 345.26,-135.96"/>
<polygon fill="black" stroke="black" points="348.76,-136.02 345.26,-126.02 341.76,-136.02 348.76,-136.02"/>
</g>
<!-- 10 -->
<g id="node11" class="node">
<title>10</title>
<ellipse fill="white" stroke="black" cx="437.26" cy="-102.19" rx="27" ry="22.06"/>
<text text-anchor="middle" x="437.26" y="-97.99" font-family="Arial" font-size="14.00">mul</text>
</g>
<!-- 8&#45;&gt;10 -->
<g id="edge10" class="edge">
<title>8&#45;&gt;10</title>
<path fill="none" stroke="black" d="M363.44,-165.87C376.83,-154.5 395.27,-138.84 410.37,-126.02"/>
<polygon fill="black" stroke="black" points="412.3,-128.98 417.65,-119.83 407.77,-123.64 412.3,-128.98"/>
</g>
<!-- 11 -->
<g id="node12" class="node">
<title>11</title>
<ellipse fill="white" stroke="black" cx="424.26" cy="-22.06" rx="55.31" ry="22.06"/>
<text text-anchor="middle" x="424.26" y="-17.86" font-family="Arial" font-size="14.00">steepness</text>
</g>
<!-- 10&#45;&gt;11 -->
<g id="edge11" class="edge">
<title>10&#45;&gt;11</title>
<path fill="none" stroke="black" d="M433.71,-79.84C432.46,-72.35 431.03,-63.75 429.67,-55.55"/>
<polygon fill="black" stroke="black" points="433.15,-55.17 428.06,-45.88 426.25,-56.32 433.15,-55.17"/>
</g>
<!-- 12 -->
<g id="node13" class="node">
<title>12</title>
<ellipse fill="white" stroke="black" cx="558.26" cy="-22.06" rx="60.26" ry="22.06"/>
<text text-anchor="middle" x="558.26" y="-17.86" font-family="Arial" font-size="14.00">elevation_v</text>
</g>
<!-- 10&#45;&gt;12 -->
<g id="edge12" class="edge">
<title>10&#45;&gt;12</title>
<path fill="none" stroke="black" d="M458.06,-87.76C475.09,-76.76 499.64,-60.91 520.18,-47.65"/>
<polygon fill="black" stroke="black" points="521.81,-50.76 528.32,-42.4 518.02,-44.88 521.81,-50.76"/>
</g>
</g>
</svg>
