<?xml version="1.0" encoding="UTF-8" standalone="no"?>
<!DOCTYPE svg PUBLIC "-//W3C//DTD SVG 1.1//EN"
 "http://www.w3.org/Graphics/SVG/1.1/DTD/svg11.dtd">
<!-- Generated by graphviz version 12.2.1 (0)
 -->
<!-- Title: G Pages: 1 -->
<svg width="666pt" height="566pt"
 viewBox="36.00 36.00 629.87 529.54" xmlns="http://www.w3.org/2000/svg" xmlns:xlink="http://www.w3.org/1999/xlink">
<g id="graph0" class="graph" transform="scale(1 1) rotate(0) translate(40 525.54)">
<title>G</title>
<polygon fill="white" stroke="none" points="-4,4 -4,-489.54 589.87,-489.54 589.87,4 -4,4"/>
<text text-anchor="middle" x="292.94" y="-468.94" font-family="Times New Roman,serif" font-size="14.00">(&#39;best_tree_2500pop_15gen_20runs_res200_11subrun&#39;, &#39;&#39;)</text>
<!-- 0 -->
<g id="node1" class="node">
<title>0</title>
<ellipse fill="white" stroke="black" cx="157.05" cy="-422.68" rx="63.57" ry="22.06"/>
<text text-anchor="middle" x="157.05" y="-418.48" font-family="Arial" font-size="14.00">if_then_else</text>
</g>
<!-- 1 -->
<g id="node2" class="node">
<title>1</title>
<ellipse fill="white" stroke="black" cx="65.05" cy="-342.56" rx="47.04" ry="22.06"/>
<text text-anchor="middle" x="65.05" y="-338.36" font-family="Arial" font-size="14.00">is_water</text>
</g>
<!-- 0&#45;&gt;1 -->
<g id="edge1" class="edge">
<title>0&#45;&gt;1</title>
<path fill="none" stroke="black" d="M133.84,-401.97C122.36,-392.22 108.35,-380.32 95.97,-369.81"/>
<polygon fill="black" stroke="black" points="98.35,-367.24 88.46,-363.43 93.82,-372.58 98.35,-367.24"/>
</g>
<!-- 2 -->
<g id="node3" class="node">
<title>2</title>
<ellipse fill="white" stroke="black" cx="157.05" cy="-342.56" rx="27" ry="22.06"/>
<text text-anchor="middle" x="157.05" y="-338.36" font-family="Arial" font-size="14.00">sub</text>
</g>
<!-- 0&#45;&gt;2 -->
<g id="edge2" class="edge">
<title>0&#45;&gt;2</title>
<path fill="none" stroke="black" d="M157.05,-400.33C157.05,-392.93 157.05,-384.44 157.05,-376.33"/>
<polygon fill="black" stroke="black" points="160.55,-376.39 157.05,-366.39 153.55,-376.39 160.55,-376.39"/>
</g>
<!-- 14 -->
<g id="node15" class="node">
<title>14</title>
<ellipse fill="white" stroke="black" cx="249.05" cy="-342.56" rx="47.05" ry="22.06"/>
<text text-anchor="middle" x="249.05" y="-338.36" font-family="Arial" font-size="14.00">distance</text>
</g>
<!-- 0&#45;&gt;14 -->
<g id="edge14" class="edge">
<title>0&#45;&gt;14</title>
<path fill="none" stroke="black" d="M180.27,-401.97C191.75,-392.22 205.76,-380.32 218.14,-369.81"/>
<polygon fill="black" stroke="black" points="220.29,-372.58 225.64,-363.43 215.76,-367.24 220.29,-372.58"/>
</g>
<!-- 3 -->
<g id="node4" class="node">
<title>3</title>
<ellipse fill="white" stroke="black" cx="111.05" cy="-262.43" rx="47.05" ry="22.06"/>
<text text-anchor="middle" x="111.05" y="-258.23" font-family="Arial" font-size="14.00">distance</text>
</g>
<!-- 2&#45;&gt;3 -->
<g id="edge3" class="edge">
<title>2&#45;&gt;3</title>
<path fill="none" stroke="black" d="M145.68,-322.24C140.68,-313.75 134.68,-303.56 129.1,-294.07"/>
<polygon fill="black" stroke="black" points="132.12,-292.31 124.03,-285.47 126.09,-295.86 132.12,-292.31"/>
</g>
<!-- 4 -->
<g id="node5" class="node">
<title>4</title>
<ellipse fill="white" stroke="black" cx="203.05" cy="-262.43" rx="27" ry="22.06"/>
<text text-anchor="middle" x="203.05" y="-258.23" font-family="Arial" font-size="14.00">sub</text>
</g>
<!-- 2&#45;&gt;4 -->
<g id="edge4" class="edge">
<title>2&#45;&gt;4</title>
<path fill="none" stroke="black" d="M168.42,-322.24C173.68,-313.32 180.03,-302.54 185.85,-292.65"/>
<polygon fill="black" stroke="black" points="188.83,-294.49 190.89,-284.1 182.8,-290.94 188.83,-294.49"/>
</g>
<!-- 5 -->
<g id="node6" class="node">
<title>5</title>
<ellipse fill="white" stroke="black" cx="150.05" cy="-182.31" rx="60.26" ry="22.06"/>
<text text-anchor="middle" x="150.05" y="-178.11" font-family="Arial" font-size="14.00">elevation_v</text>
</g>
<!-- 4&#45;&gt;5 -->
<g id="edge5" class="edge">
<title>4&#45;&gt;5</title>
<path fill="none" stroke="black" d="M190.22,-242.52C184.34,-233.85 177.22,-223.36 170.62,-213.63"/>
<polygon fill="black" stroke="black" points="173.62,-211.81 165.11,-205.5 167.82,-215.74 173.62,-211.81"/>
</g>
<!-- 6 -->
<g id="node7" class="node">
<title>6</title>
<ellipse fill="white" stroke="black" cx="255.05" cy="-182.31" rx="27" ry="22.06"/>
<text text-anchor="middle" x="255.05" y="-178.11" font-family="Arial" font-size="14.00">mul</text>
</g>
<!-- 4&#45;&gt;6 -->
<g id="edge6" class="edge">
<title>4&#45;&gt;6</title>
<path fill="none" stroke="black" d="M215.64,-242.52C221.79,-233.28 229.32,-221.97 236.14,-211.72"/>
<polygon fill="black" stroke="black" points="238.94,-213.84 241.56,-203.58 233.11,-209.96 238.94,-213.84"/>
</g>
<!-- 7 -->
<g id="node8" class="node">
<title>7</title>
<ellipse fill="white" stroke="black" cx="167.05" cy="-102.19" rx="27" ry="22.06"/>
<text text-anchor="middle" x="167.05" y="-97.99" font-family="Arial" font-size="14.00">sub</text>
</g>
<!-- 6&#45;&gt;7 -->
<g id="edge7" class="edge">
<title>6&#45;&gt;7</title>
<path fill="none" stroke="black" d="M237.25,-165.5C224.6,-154.27 207.42,-139.02 193.22,-126.42"/>
<polygon fill="black" stroke="black" points="195.77,-124 185.97,-119.98 191.12,-129.23 195.77,-124"/>
</g>
<!-- 10 -->
<g id="node11" class="node">
<title>10</title>
<ellipse fill="white" stroke="black" cx="343.05" cy="-102.19" rx="63.57" ry="22.06"/>
<text text-anchor="middle" x="343.05" y="-97.99" font-family="Arial" font-size="14.00">if_then_else</text>
</g>
<!-- 6&#45;&gt;10 -->
<g id="edge10" class="edge">
<title>6&#45;&gt;10</title>
<path fill="none" stroke="black" d="M272.86,-165.5C284.15,-155.48 299.05,-142.25 312.23,-130.55"/>
<polygon fill="black" stroke="black" points="314.29,-133.4 319.44,-124.15 309.64,-128.17 314.29,-133.4"/>
</g>
<!-- 8 -->
<g id="node9" class="node">
<title>8</title>
<ellipse fill="white" stroke="black" cx="47.05" cy="-22.06" rx="47.05" ry="22.06"/>
<text text-anchor="middle" x="47.05" y="-17.86" font-family="Arial" font-size="14.00">distance</text>
</g>
<!-- 7&#45;&gt;8 -->
<g id="edge8" class="edge">
<title>7&#45;&gt;8</title>
<path fill="none" stroke="black" d="M146.15,-87.58C128.88,-76.33 103.94,-60.1 83.41,-46.73"/>
<polygon fill="black" stroke="black" points="85.59,-43.97 75.3,-41.45 81.77,-49.84 85.59,-43.97"/>
</g>
<!-- 9 -->
<g id="node10" class="node">
<title>9</title>
<ellipse fill="white" stroke="black" cx="167.05" cy="-22.06" rx="55.31" ry="22.06"/>
<text text-anchor="middle" x="167.05" y="-17.86" font-family="Arial" font-size="14.00">steepness</text>
</g>
<!-- 7&#45;&gt;9 -->
<g id="edge9" class="edge">
<title>7&#45;&gt;9</title>
<path fill="none" stroke="black" d="M167.05,-79.84C167.05,-72.43 167.05,-63.95 167.05,-55.83"/>
<polygon fill="black" stroke="black" points="170.55,-55.9 167.05,-45.9 163.55,-55.9 170.55,-55.9"/>
</g>
<!-- 11 -->
<g id="node12" class="node">
<title>11</title>
<ellipse fill="white" stroke="black" cx="287.05" cy="-22.06" rx="47.04" ry="22.06"/>
<text text-anchor="middle" x="287.05" y="-17.86" font-family="Arial" font-size="14.00">is_water</text>
</g>
<!-- 10&#45;&gt;11 -->
<g id="edge11" class="edge">
<title>10&#45;&gt;11</title>
<path fill="none" stroke="black" d="M328.34,-80.66C322.23,-72.14 315.02,-62.08 308.36,-52.78"/>
<polygon fill="black" stroke="black" points="311.22,-50.77 302.55,-44.68 305.53,-54.85 311.22,-50.77"/>
</g>
<!-- 12 -->
<g id="node13" class="node">
<title>12</title>
<ellipse fill="white" stroke="black" cx="399.05" cy="-22.06" rx="47.05" ry="22.06"/>
<text text-anchor="middle" x="399.05" y="-17.86" font-family="Arial" font-size="14.00">distance</text>
</g>
<!-- 10&#45;&gt;12 -->
<g id="edge12" class="edge">
<title>10&#45;&gt;12</title>
<path fill="none" stroke="black" d="M357.77,-80.66C363.88,-72.14 371.08,-62.08 377.75,-52.78"/>
<polygon fill="black" stroke="black" points="380.58,-54.85 383.56,-44.68 374.89,-50.77 380.58,-54.85"/>
</g>
<!-- 13 -->
<g id="node14" class="node">
<title>13</title>
<ellipse fill="white" stroke="black" cx="525.05" cy="-22.06" rx="60.82" ry="22.06"/>
<text text-anchor="middle" x="525.05" y="-17.86" font-family="Arial" font-size="14.00">elevation_u</text>
</g>
<!-- 10&#45;&gt;13 -->
<g id="edge13" class="edge">
<title>10&#45;&gt;13</title>
<path fill="none" stroke="black" d="M382.1,-84.43C409.63,-72.61 446.71,-56.69 476.21,-44.03"/>
<polygon fill="black" stroke="black" points="477.5,-47.28 485.31,-40.12 474.74,-40.85 477.5,-47.28"/>
</g>
</g>
</svg>
