<?xml version="1.0" encoding="UTF-8" standalone="no"?>
<!DOCTYPE svg PUBLIC "-//W3C//DTD SVG 1.1//EN"
 "http://www.w3.org/Graphics/SVG/1.1/DTD/svg11.dtd">
<!-- Generated by graphviz version 12.2.1 (0)
 -->
<!-- Title: G Pages: 1 -->
<svg width="426pt" height="566pt"
 viewBox="36.00 36.00 389.70 529.54" xmlns="http://www.w3.org/2000/svg" xmlns:xlink="http://www.w3.org/1999/xlink">
<g id="graph0" class="graph" transform="scale(1 1) rotate(0) translate(40 525.54)">
<title>G</title>
<polygon fill="white" stroke="none" points="-4,4 -4,-489.54 349.7,-489.54 349.7,4 -4,4"/>
<text text-anchor="middle" x="172.85" y="-468.94" font-family="Times New Roman,serif" font-size="14.00">(&#39;best_4tree_2500pop_15gen_20runs_res200_20subrun&#39;, &#39;&#39;)</text>
<!-- 0 -->
<g id="node1" class="node">
<title>0</title>
<ellipse fill="white" stroke="black" cx="140.72" cy="-422.68" rx="63.57" ry="22.06"/>
<text text-anchor="middle" x="140.72" y="-418.48" font-family="Arial" font-size="14.00">if_then_else</text>
</g>
<!-- 1 -->
<g id="node2" class="node">
<title>1</title>
<ellipse fill="white" stroke="black" cx="48.72" cy="-342.56" rx="47.04" ry="22.06"/>
<text text-anchor="middle" x="48.72" y="-338.36" font-family="Arial" font-size="14.00">is_water</text>
</g>
<!-- 0&#45;&gt;1 -->
<g id="edge1" class="edge">
<title>0&#45;&gt;1</title>
<path fill="none" stroke="black" d="M117.5,-401.97C106.02,-392.22 92.01,-380.32 79.64,-369.81"/>
<polygon fill="black" stroke="black" points="82.02,-367.24 72.13,-363.43 77.49,-372.58 82.02,-367.24"/>
</g>
<!-- 2 -->
<g id="node3" class="node">
<title>2</title>
<ellipse fill="white" stroke="black" cx="140.72" cy="-342.56" rx="27" ry="22.06"/>
<text text-anchor="middle" x="140.72" y="-338.36" font-family="Arial" font-size="14.00">sub</text>
</g>
<!-- 0&#45;&gt;2 -->
<g id="edge2" class="edge">
<title>0&#45;&gt;2</title>
<path fill="none" stroke="black" d="M140.72,-400.33C140.72,-392.93 140.72,-384.44 140.72,-376.33"/>
<polygon fill="black" stroke="black" points="144.22,-376.39 140.72,-366.39 137.22,-376.39 144.22,-376.39"/>
</g>
<!-- 11 -->
<g id="node12" class="node">
<title>11</title>
<ellipse fill="white" stroke="black" cx="232.72" cy="-342.56" rx="47.05" ry="22.06"/>
<text text-anchor="middle" x="232.72" y="-338.36" font-family="Arial" font-size="14.00">distance</text>
</g>
<!-- 0&#45;&gt;11 -->
<g id="edge11" class="edge">
<title>0&#45;&gt;11</title>
<path fill="none" stroke="black" d="M163.93,-401.97C175.41,-392.22 189.43,-380.32 201.8,-369.81"/>
<polygon fill="black" stroke="black" points="203.95,-372.58 209.31,-363.43 199.42,-367.24 203.95,-372.58"/>
</g>
<!-- 3 -->
<g id="node4" class="node">
<title>3</title>
<ellipse fill="white" stroke="black" cx="94.72" cy="-262.43" rx="47.05" ry="22.06"/>
<text text-anchor="middle" x="94.72" y="-258.23" font-family="Arial" font-size="14.00">distance</text>
</g>
<!-- 2&#45;&gt;3 -->
<g id="edge3" class="edge">
<title>2&#45;&gt;3</title>
<path fill="none" stroke="black" d="M129.35,-322.24C124.35,-313.75 118.35,-303.56 112.76,-294.07"/>
<polygon fill="black" stroke="black" points="115.78,-292.31 107.69,-285.47 109.75,-295.86 115.78,-292.31"/>
</g>
<!-- 4 -->
<g id="node5" class="node">
<title>4</title>
<ellipse fill="white" stroke="black" cx="186.72" cy="-262.43" rx="27" ry="22.06"/>
<text text-anchor="middle" x="186.72" y="-258.23" font-family="Arial" font-size="14.00">sub</text>
</g>
<!-- 2&#45;&gt;4 -->
<g id="edge4" class="edge">
<title>2&#45;&gt;4</title>
<path fill="none" stroke="black" d="M152.09,-322.24C157.34,-313.32 163.69,-302.54 169.51,-292.65"/>
<polygon fill="black" stroke="black" points="172.49,-294.49 174.55,-284.1 166.46,-290.94 172.49,-294.49"/>
</g>
<!-- 5 -->
<g id="node6" class="node">
<title>5</title>
<ellipse fill="white" stroke="black" cx="133.72" cy="-182.31" rx="60.26" ry="22.06"/>
<text text-anchor="middle" x="133.72" y="-178.11" font-family="Arial" font-size="14.00">elevation_v</text>
</g>
<!-- 4&#45;&gt;5 -->
<g id="edge5" class="edge">
<title>4&#45;&gt;5</title>
<path fill="none" stroke="black" d="M173.89,-242.52C168.01,-233.85 160.89,-223.36 154.29,-213.63"/>
<polygon fill="black" stroke="black" points="157.28,-211.81 148.77,-205.5 151.49,-215.74 157.28,-211.81"/>
</g>
<!-- 6 -->
<g id="node7" class="node">
<title>6</title>
<ellipse fill="white" stroke="black" cx="238.72" cy="-182.31" rx="27" ry="22.06"/>
<text text-anchor="middle" x="238.72" y="-178.11" font-family="Arial" font-size="14.00">mul</text>
</g>
<!-- 4&#45;&gt;6 -->
<g id="edge6" class="edge">
<title>4&#45;&gt;6</title>
<path fill="none" stroke="black" d="M199.31,-242.52C205.46,-233.28 212.99,-221.97 219.81,-211.72"/>
<polygon fill="black" stroke="black" points="222.6,-213.84 225.23,-203.58 216.77,-209.96 222.6,-213.84"/>
</g>
<!-- 7 -->
<g id="node8" class="node">
<title>7</title>
<ellipse fill="white" stroke="black" cx="188.72" cy="-102.19" rx="27" ry="22.06"/>
<text text-anchor="middle" x="188.72" y="-97.99" font-family="Arial" font-size="14.00">sub</text>
</g>
<!-- 6&#45;&gt;7 -->
<g id="edge7" class="edge">
<title>6&#45;&gt;7</title>
<path fill="none" stroke="black" d="M226.62,-162.4C220.7,-153.16 213.46,-141.85 206.9,-131.59"/>
<polygon fill="black" stroke="black" points="210.04,-130 201.7,-123.47 204.14,-133.78 210.04,-130"/>
</g>
<!-- 10 -->
<g id="node11" class="node">
<title>10</title>
<ellipse fill="white" stroke="black" cx="288.72" cy="-102.19" rx="55.31" ry="22.06"/>
<text text-anchor="middle" x="288.72" y="-97.99" font-family="Arial" font-size="14.00">steepness</text>
</g>
<!-- 6&#45;&gt;10 -->
<g id="edge10" class="edge">
<title>6&#45;&gt;10</title>
<path fill="none" stroke="black" d="M250.82,-162.4C256.42,-153.66 263.19,-143.07 269.46,-133.27"/>
<polygon fill="black" stroke="black" points="272.24,-135.43 274.68,-125.12 266.34,-131.65 272.24,-135.43"/>
</g>
<!-- 8 -->
<g id="node9" class="node">
<title>8</title>
<ellipse fill="white" stroke="black" cx="121.72" cy="-22.06" rx="55.31" ry="22.06"/>
<text text-anchor="middle" x="121.72" y="-17.86" font-family="Arial" font-size="14.00">steepness</text>
</g>
<!-- 7&#45;&gt;8 -->
<g id="edge8" class="edge">
<title>7&#45;&gt;8</title>
<path fill="none" stroke="black" d="M173.52,-83.46C165.55,-74.17 155.6,-62.57 146.55,-52.02"/>
<polygon fill="black" stroke="black" points="149.38,-49.94 140.22,-44.63 144.07,-54.5 149.38,-49.94"/>
</g>
<!-- 9 -->
<g id="node10" class="node">
<title>9</title>
<ellipse fill="white" stroke="black" cx="255.72" cy="-22.06" rx="60.82" ry="22.06"/>
<text text-anchor="middle" x="255.72" y="-17.86" font-family="Arial" font-size="14.00">elevation_u</text>
</g>
<!-- 7&#45;&gt;9 -->
<g id="edge9" class="edge">
<title>7&#45;&gt;9</title>
<path fill="none" stroke="black" d="M203.92,-83.46C211.89,-74.17 221.84,-62.57 230.89,-52.02"/>
<polygon fill="black" stroke="black" points="233.37,-54.5 237.22,-44.63 228.06,-49.94 233.37,-54.5"/>
</g>
</g>
</svg>
