<?xml version="1.0" encoding="UTF-8" standalone="no"?>
<!DOCTYPE svg PUBLIC "-//W3C//DTD SVG 1.1//EN"
 "http://www.w3.org/Graphics/SVG/1.1/DTD/svg11.dtd">
<!-- Generated by graphviz version 12.2.1 (0)
 -->
<!-- Title: G Pages: 1 -->
<svg width="608pt" height="566pt"
 viewBox="36.00 36.00 572.11 529.54" xmlns="http://www.w3.org/2000/svg" xmlns:xlink="http://www.w3.org/1999/xlink">
<g id="graph0" class="graph" transform="scale(1 1) rotate(0) translate(40 525.54)">
<title>G</title>
<polygon fill="white" stroke="none" points="-4,4 -4,-489.54 532.11,-489.54 532.11,4 -4,4"/>
<text text-anchor="middle" x="264.05" y="-468.94" font-family="Times New Roman,serif" font-size="14.00">(&#39;best_2tree_2500pop_15gen_20runs_res200_20subrun&#39;, &#39;&#39;)</text>
<!-- 0 -->
<g id="node1" class="node">
<title>0</title>
<ellipse fill="white" stroke="black" cx="139.05" cy="-422.68" rx="63.57" ry="22.06"/>
<text text-anchor="middle" x="139.05" y="-418.48" font-family="Arial" font-size="14.00">if_then_else</text>
</g>
<!-- 1 -->
<g id="node2" class="node">
<title>1</title>
<ellipse fill="white" stroke="black" cx="47.05" cy="-342.56" rx="47.04" ry="22.06"/>
<text text-anchor="middle" x="47.05" y="-338.36" font-family="Arial" font-size="14.00">is_water</text>
</g>
<!-- 0&#45;&gt;1 -->
<g id="edge1" class="edge">
<title>0&#45;&gt;1</title>
<path fill="none" stroke="black" d="M115.84,-401.97C104.36,-392.22 90.35,-380.32 77.97,-369.81"/>
<polygon fill="black" stroke="black" points="80.35,-367.24 70.46,-363.43 75.82,-372.58 80.35,-367.24"/>
</g>
<!-- 2 -->
<g id="node3" class="node">
<title>2</title>
<ellipse fill="white" stroke="black" cx="139.05" cy="-342.56" rx="27" ry="22.06"/>
<text text-anchor="middle" x="139.05" y="-338.36" font-family="Arial" font-size="14.00">sub</text>
</g>
<!-- 0&#45;&gt;2 -->
<g id="edge2" class="edge">
<title>0&#45;&gt;2</title>
<path fill="none" stroke="black" d="M139.05,-400.33C139.05,-392.93 139.05,-384.44 139.05,-376.33"/>
<polygon fill="black" stroke="black" points="142.55,-376.39 139.05,-366.39 135.55,-376.39 142.55,-376.39"/>
</g>
<!-- 11 -->
<g id="node12" class="node">
<title>11</title>
<ellipse fill="white" stroke="black" cx="302.05" cy="-342.56" rx="63.57" ry="22.06"/>
<text text-anchor="middle" x="302.05" y="-338.36" font-family="Arial" font-size="14.00">if_then_else</text>
</g>
<!-- 0&#45;&gt;11 -->
<g id="edge11" class="edge">
<title>0&#45;&gt;11</title>
<path fill="none" stroke="black" d="M175.23,-404.34C198.89,-393 230.02,-378.08 255.51,-365.86"/>
<polygon fill="black" stroke="black" points="256.83,-369.11 264.33,-361.63 253.8,-362.8 256.83,-369.11"/>
</g>
<!-- 3 -->
<g id="node4" class="node">
<title>3</title>
<ellipse fill="white" stroke="black" cx="47.05" cy="-262.43" rx="47.05" ry="22.06"/>
<text text-anchor="middle" x="47.05" y="-258.23" font-family="Arial" font-size="14.00">distance</text>
</g>
<!-- 2&#45;&gt;3 -->
<g id="edge3" class="edge">
<title>2&#45;&gt;3</title>
<path fill="none" stroke="black" d="M120.88,-326.12C108.56,-315.66 91.98,-301.58 77.66,-289.42"/>
<polygon fill="black" stroke="black" points="80.13,-286.93 70.24,-283.12 75.6,-292.26 80.13,-286.93"/>
</g>
<!-- 4 -->
<g id="node5" class="node">
<title>4</title>
<ellipse fill="white" stroke="black" cx="139.05" cy="-262.43" rx="27" ry="22.06"/>
<text text-anchor="middle" x="139.05" y="-258.23" font-family="Arial" font-size="14.00">sub</text>
</g>
<!-- 2&#45;&gt;4 -->
<g id="edge4" class="edge">
<title>2&#45;&gt;4</title>
<path fill="none" stroke="black" d="M139.05,-320.21C139.05,-312.8 139.05,-304.32 139.05,-296.2"/>
<polygon fill="black" stroke="black" points="142.55,-296.27 139.05,-286.27 135.55,-296.27 142.55,-296.27"/>
</g>
<!-- 5 -->
<g id="node6" class="node">
<title>5</title>
<ellipse fill="white" stroke="black" cx="86.05" cy="-182.31" rx="60.82" ry="22.06"/>
<text text-anchor="middle" x="86.05" y="-178.11" font-family="Arial" font-size="14.00">elevation_u</text>
</g>
<!-- 4&#45;&gt;5 -->
<g id="edge5" class="edge">
<title>4&#45;&gt;5</title>
<path fill="none" stroke="black" d="M126.22,-242.52C120.34,-233.85 113.22,-223.36 106.62,-213.63"/>
<polygon fill="black" stroke="black" points="109.62,-211.81 101.11,-205.5 103.82,-215.74 109.62,-211.81"/>
</g>
<!-- 6 -->
<g id="node7" class="node">
<title>6</title>
<ellipse fill="white" stroke="black" cx="192.05" cy="-182.31" rx="27" ry="22.06"/>
<text text-anchor="middle" x="192.05" y="-178.11" font-family="Arial" font-size="14.00">sub</text>
</g>
<!-- 4&#45;&gt;6 -->
<g id="edge6" class="edge">
<title>4&#45;&gt;6</title>
<path fill="none" stroke="black" d="M151.88,-242.52C158.2,-233.21 165.94,-221.8 172.93,-211.49"/>
<polygon fill="black" stroke="black" points="175.77,-213.54 178.49,-203.3 169.98,-209.61 175.77,-213.54"/>
</g>
<!-- 7 -->
<g id="node8" class="node">
<title>7</title>
<ellipse fill="white" stroke="black" cx="146.05" cy="-102.19" rx="47.05" ry="22.06"/>
<text text-anchor="middle" x="146.05" y="-97.99" font-family="Arial" font-size="14.00">distance</text>
</g>
<!-- 6&#45;&gt;7 -->
<g id="edge7" class="edge">
<title>6&#45;&gt;7</title>
<path fill="none" stroke="black" d="M180.68,-162C175.68,-153.5 169.68,-143.32 164.1,-133.83"/>
<polygon fill="black" stroke="black" points="167.12,-132.06 159.03,-125.22 161.09,-135.61 167.12,-132.06"/>
</g>
<!-- 8 -->
<g id="node9" class="node">
<title>8</title>
<ellipse fill="white" stroke="black" cx="238.05" cy="-102.19" rx="27" ry="22.06"/>
<text text-anchor="middle" x="238.05" y="-97.99" font-family="Arial" font-size="14.00">sub</text>
</g>
<!-- 6&#45;&gt;8 -->
<g id="edge8" class="edge">
<title>6&#45;&gt;8</title>
<path fill="none" stroke="black" d="M203.42,-162C208.68,-153.08 215.03,-142.29 220.85,-132.41"/>
<polygon fill="black" stroke="black" points="223.83,-134.24 225.89,-123.85 217.8,-130.69 223.83,-134.24"/>
</g>
<!-- 9 -->
<g id="node10" class="node">
<title>9</title>
<ellipse fill="white" stroke="black" cx="171.05" cy="-22.06" rx="60.26" ry="22.06"/>
<text text-anchor="middle" x="171.05" y="-17.86" font-family="Arial" font-size="14.00">elevation_v</text>
</g>
<!-- 8&#45;&gt;9 -->
<g id="edge9" class="edge">
<title>8&#45;&gt;9</title>
<path fill="none" stroke="black" d="M222.85,-83.46C214.89,-74.17 204.93,-62.57 195.89,-52.02"/>
<polygon fill="black" stroke="black" points="198.72,-49.94 189.55,-44.63 193.4,-54.5 198.72,-49.94"/>
</g>
<!-- 10 -->
<g id="node11" class="node">
<title>10</title>
<ellipse fill="white" stroke="black" cx="305.05" cy="-22.06" rx="55.31" ry="22.06"/>
<text text-anchor="middle" x="305.05" y="-17.86" font-family="Arial" font-size="14.00">steepness</text>
</g>
<!-- 8&#45;&gt;10 -->
<g id="edge10" class="edge">
<title>8&#45;&gt;10</title>
<path fill="none" stroke="black" d="M253.26,-83.46C261.22,-74.17 271.17,-62.57 280.22,-52.02"/>
<polygon fill="black" stroke="black" points="282.71,-54.5 286.56,-44.63 277.39,-49.94 282.71,-54.5"/>
</g>
<!-- 12 -->
<g id="node13" class="node">
<title>12</title>
<ellipse fill="white" stroke="black" cx="231.05" cy="-262.43" rx="47.04" ry="22.06"/>
<text text-anchor="middle" x="231.05" y="-258.23" font-family="Arial" font-size="14.00">is_water</text>
</g>
<!-- 11&#45;&gt;12 -->
<g id="edge12" class="edge">
<title>11&#45;&gt;12</title>
<path fill="none" stroke="black" d="M283.4,-321.03C275.2,-312.01 265.44,-301.27 256.58,-291.52"/>
<polygon fill="black" stroke="black" points="259.43,-289.45 250.11,-284.4 254.25,-294.16 259.43,-289.45"/>
</g>
<!-- 13 -->
<g id="node14" class="node">
<title>13</title>
<ellipse fill="white" stroke="black" cx="356.05" cy="-262.43" rx="60.26" ry="22.06"/>
<text text-anchor="middle" x="356.05" y="-258.23" font-family="Arial" font-size="14.00">elevation_v</text>
</g>
<!-- 11&#45;&gt;13 -->
<g id="edge13" class="edge">
<title>11&#45;&gt;13</title>
<path fill="none" stroke="black" d="M316.53,-320.62C322.26,-312.32 328.97,-302.62 335.21,-293.59"/>
<polygon fill="black" stroke="black" points="338.06,-295.62 340.87,-285.4 332.3,-291.64 338.06,-295.62"/>
</g>
<!-- 14 -->
<g id="node15" class="node">
<title>14</title>
<ellipse fill="white" stroke="black" cx="481.05" cy="-262.43" rx="47.05" ry="22.06"/>
<text text-anchor="middle" x="481.05" y="-258.23" font-family="Arial" font-size="14.00">distance</text>
</g>
<!-- 11&#45;&gt;14 -->
<g id="edge14" class="edge">
<title>11&#45;&gt;14</title>
<path fill="none" stroke="black" d="M340.45,-324.8C368.72,-312.46 407.23,-295.65 436.79,-282.75"/>
<polygon fill="black" stroke="black" points="438.09,-286 445.86,-278.79 435.29,-279.59 438.09,-286"/>
</g>
</g>
</svg>
