<?xml version="1.0" encoding="UTF-8" standalone="no"?>
<!DOCTYPE svg PUBLIC "-//W3C//DTD SVG 1.1//EN"
 "http://www.w3.org/Graphics/SVG/1.1/DTD/svg11.dtd">
<!-- Generated by graphviz version 12.2.1 (0)
 -->
<!-- Title: G Pages: 1 -->
<svg width="582pt" height="566pt"
 viewBox="36.00 36.00 546.11 529.54" xmlns="http://www.w3.org/2000/svg" xmlns:xlink="http://www.w3.org/1999/xlink">
<g id="graph0" class="graph" transform="scale(1 1) rotate(0) translate(40 525.54)">
<title>G</title>
<polygon fill="white" stroke="none" points="-4,4 -4,-489.54 506.11,-489.54 506.11,4 -4,4"/>
<text text-anchor="middle" x="251.05" y="-468.94" font-family="Times New Roman,serif" font-size="14.00">(&#39;best_3tree_2500pop_15gen_20runs_res200_20subrun&#39;, &#39;&#39;)</text>
<!-- 0 -->
<g id="node1" class="node">
<title>0</title>
<ellipse fill="white" stroke="black" cx="139.05" cy="-422.68" rx="63.57" ry="22.06"/>
<text text-anchor="middle" x="139.05" y="-418.48" font-family="Arial" font-size="14.00">if_then_else</text>
</g>
<!-- 1 -->
<g id="node2" class="node">
<title>1</title>
<ellipse fill="white" stroke="black" cx="47.05" cy="-342.56" rx="47.04" ry="22.06"/>
<text text-anchor="middle" x="47.05" y="-338.36" font-family="Arial" font-size="14.00">is_water</text>
</g>
<!-- 0&#45;&gt;1 -->
<g id="edge1" class="edge">
<title>0&#45;&gt;1</title>
<path fill="none" stroke="black" d="M115.84,-401.97C104.36,-392.22 90.35,-380.32 77.97,-369.81"/>
<polygon fill="black" stroke="black" points="80.35,-367.24 70.46,-363.43 75.82,-372.58 80.35,-367.24"/>
</g>
<!-- 2 -->
<g id="node3" class="node">
<title>2</title>
<ellipse fill="white" stroke="black" cx="139.05" cy="-342.56" rx="27" ry="22.06"/>
<text text-anchor="middle" x="139.05" y="-338.36" font-family="Arial" font-size="14.00">sub</text>
</g>
<!-- 0&#45;&gt;2 -->
<g id="edge2" class="edge">
<title>0&#45;&gt;2</title>
<path fill="none" stroke="black" d="M139.05,-400.33C139.05,-392.93 139.05,-384.44 139.05,-376.33"/>
<polygon fill="black" stroke="black" points="142.55,-376.39 139.05,-366.39 135.55,-376.39 142.55,-376.39"/>
</g>
<!-- 11 -->
<g id="node12" class="node">
<title>11</title>
<ellipse fill="white" stroke="black" cx="295.05" cy="-342.56" rx="63.57" ry="22.06"/>
<text text-anchor="middle" x="295.05" y="-338.36" font-family="Arial" font-size="14.00">if_then_else</text>
</g>
<!-- 0&#45;&gt;11 -->
<g id="edge11" class="edge">
<title>0&#45;&gt;11</title>
<path fill="none" stroke="black" d="M174.45,-403.95C196.69,-392.81 225.6,-378.34 249.53,-366.35"/>
<polygon fill="black" stroke="black" points="251.07,-369.5 258.44,-361.89 247.93,-363.24 251.07,-369.5"/>
</g>
<!-- 3 -->
<g id="node4" class="node">
<title>3</title>
<ellipse fill="white" stroke="black" cx="47.05" cy="-262.43" rx="47.05" ry="22.06"/>
<text text-anchor="middle" x="47.05" y="-258.23" font-family="Arial" font-size="14.00">distance</text>
</g>
<!-- 2&#45;&gt;3 -->
<g id="edge3" class="edge">
<title>2&#45;&gt;3</title>
<path fill="none" stroke="black" d="M120.88,-326.12C108.56,-315.66 91.98,-301.58 77.66,-289.42"/>
<polygon fill="black" stroke="black" points="80.13,-286.93 70.24,-283.12 75.6,-292.26 80.13,-286.93"/>
</g>
<!-- 4 -->
<g id="node5" class="node">
<title>4</title>
<ellipse fill="white" stroke="black" cx="139.05" cy="-262.43" rx="27" ry="22.06"/>
<text text-anchor="middle" x="139.05" y="-258.23" font-family="Arial" font-size="14.00">sub</text>
</g>
<!-- 2&#45;&gt;4 -->
<g id="edge4" class="edge">
<title>2&#45;&gt;4</title>
<path fill="none" stroke="black" d="M139.05,-320.21C139.05,-312.8 139.05,-304.32 139.05,-296.2"/>
<polygon fill="black" stroke="black" points="142.55,-296.27 139.05,-286.27 135.55,-296.27 142.55,-296.27"/>
</g>
<!-- 5 -->
<g id="node6" class="node">
<title>5</title>
<ellipse fill="white" stroke="black" cx="86.05" cy="-182.31" rx="60.26" ry="22.06"/>
<text text-anchor="middle" x="86.05" y="-178.11" font-family="Arial" font-size="14.00">elevation_v</text>
</g>
<!-- 4&#45;&gt;5 -->
<g id="edge5" class="edge">
<title>4&#45;&gt;5</title>
<path fill="none" stroke="black" d="M126.22,-242.52C120.34,-233.85 113.22,-223.36 106.62,-213.63"/>
<polygon fill="black" stroke="black" points="109.62,-211.81 101.11,-205.5 103.82,-215.74 109.62,-211.81"/>
</g>
<!-- 6 -->
<g id="node7" class="node">
<title>6</title>
<ellipse fill="white" stroke="black" cx="191.05" cy="-182.31" rx="27" ry="22.06"/>
<text text-anchor="middle" x="191.05" y="-178.11" font-family="Arial" font-size="14.00">mul</text>
</g>
<!-- 4&#45;&gt;6 -->
<g id="edge6" class="edge">
<title>4&#45;&gt;6</title>
<path fill="none" stroke="black" d="M151.64,-242.52C157.79,-233.28 165.32,-221.97 172.14,-211.72"/>
<polygon fill="black" stroke="black" points="174.94,-213.84 177.56,-203.58 169.11,-209.96 174.94,-213.84"/>
</g>
<!-- 7 -->
<g id="node8" class="node">
<title>7</title>
<ellipse fill="white" stroke="black" cx="141.05" cy="-102.19" rx="27" ry="22.06"/>
<text text-anchor="middle" x="141.05" y="-97.99" font-family="Arial" font-size="14.00">sub</text>
</g>
<!-- 6&#45;&gt;7 -->
<g id="edge7" class="edge">
<title>6&#45;&gt;7</title>
<path fill="none" stroke="black" d="M178.95,-162.4C173.04,-153.16 165.8,-141.85 159.24,-131.59"/>
<polygon fill="black" stroke="black" points="162.37,-130 154.04,-123.47 156.48,-133.78 162.37,-130"/>
</g>
<!-- 10 -->
<g id="node11" class="node">
<title>10</title>
<ellipse fill="white" stroke="black" cx="241.05" cy="-102.19" rx="55.31" ry="22.06"/>
<text text-anchor="middle" x="241.05" y="-97.99" font-family="Arial" font-size="14.00">steepness</text>
</g>
<!-- 6&#45;&gt;10 -->
<g id="edge10" class="edge">
<title>6&#45;&gt;10</title>
<path fill="none" stroke="black" d="M203.16,-162.4C208.75,-153.66 215.53,-143.07 221.8,-133.27"/>
<polygon fill="black" stroke="black" points="224.57,-135.43 227.02,-125.12 218.68,-131.65 224.57,-135.43"/>
</g>
<!-- 8 -->
<g id="node9" class="node">
<title>8</title>
<ellipse fill="white" stroke="black" cx="74.05" cy="-22.06" rx="55.31" ry="22.06"/>
<text text-anchor="middle" x="74.05" y="-17.86" font-family="Arial" font-size="14.00">steepness</text>
</g>
<!-- 7&#45;&gt;8 -->
<g id="edge8" class="edge">
<title>7&#45;&gt;8</title>
<path fill="none" stroke="black" d="M125.85,-83.46C117.89,-74.17 107.93,-62.57 98.89,-52.02"/>
<polygon fill="black" stroke="black" points="101.72,-49.94 92.55,-44.63 96.4,-54.5 101.72,-49.94"/>
</g>
<!-- 9 -->
<g id="node10" class="node">
<title>9</title>
<ellipse fill="white" stroke="black" cx="208.05" cy="-22.06" rx="60.82" ry="22.06"/>
<text text-anchor="middle" x="208.05" y="-17.86" font-family="Arial" font-size="14.00">elevation_u</text>
</g>
<!-- 7&#45;&gt;9 -->
<g id="edge9" class="edge">
<title>7&#45;&gt;9</title>
<path fill="none" stroke="black" d="M156.26,-83.46C164.22,-74.17 174.17,-62.57 183.22,-52.02"/>
<polygon fill="black" stroke="black" points="185.71,-54.5 189.56,-44.63 180.39,-49.94 185.71,-54.5"/>
</g>
<!-- 12 -->
<g id="node13" class="node">
<title>12</title>
<ellipse fill="white" stroke="black" cx="231.05" cy="-262.43" rx="47.04" ry="22.06"/>
<text text-anchor="middle" x="231.05" y="-258.23" font-family="Arial" font-size="14.00">is_water</text>
</g>
<!-- 11&#45;&gt;12 -->
<g id="edge12" class="edge">
<title>11&#45;&gt;12</title>
<path fill="none" stroke="black" d="M278.24,-321.03C271.05,-312.26 262.54,-301.87 254.73,-292.34"/>
<polygon fill="black" stroke="black" points="257.54,-290.24 248.49,-284.72 252.12,-294.68 257.54,-290.24"/>
</g>
<!-- 13 -->
<g id="node14" class="node">
<title>13</title>
<ellipse fill="white" stroke="black" cx="343.05" cy="-262.43" rx="47.05" ry="22.06"/>
<text text-anchor="middle" x="343.05" y="-258.23" font-family="Arial" font-size="14.00">distance</text>
</g>
<!-- 11&#45;&gt;13 -->
<g id="edge13" class="edge">
<title>11&#45;&gt;13</title>
<path fill="none" stroke="black" d="M307.92,-320.62C312.96,-312.41 318.85,-302.83 324.35,-293.88"/>
<polygon fill="black" stroke="black" points="327.28,-295.8 329.53,-285.44 321.31,-292.13 327.28,-295.8"/>
</g>
<!-- 14 -->
<g id="node15" class="node">
<title>14</title>
<ellipse fill="white" stroke="black" cx="455.05" cy="-262.43" rx="47.05" ry="22.06"/>
<text text-anchor="middle" x="455.05" y="-258.23" font-family="Arial" font-size="14.00">distance</text>
</g>
<!-- 11&#45;&gt;14 -->
<g id="edge14" class="edge">
<title>11&#45;&gt;14</title>
<path fill="none" stroke="black" d="M330.96,-324.02C355.25,-312.16 387.44,-296.45 412.94,-284"/>
<polygon fill="black" stroke="black" points="414.25,-287.25 421.7,-279.72 411.18,-280.96 414.25,-287.25"/>
</g>
</g>
</svg>
