<?xml version="1.0" encoding="UTF-8" standalone="no"?>
<!DOCTYPE svg PUBLIC "-//W3C//DTD SVG 1.1//EN"
 "http://www.w3.org/Graphics/SVG/1.1/DTD/svg11.dtd">
<!-- Generated by graphviz version 12.2.1 (0)
 -->
<!-- Title: G Pages: 1 -->
<svg width="598pt" height="566pt"
 viewBox="36.00 36.00 562.13 529.54" xmlns="http://www.w3.org/2000/svg" xmlns:xlink="http://www.w3.org/1999/xlink">
<g id="graph0" class="graph" transform="scale(1 1) rotate(0) translate(40 525.54)">
<title>G</title>
<polygon fill="white" stroke="none" points="-4,4 -4,-489.54 522.13,-489.54 522.13,4 -4,4"/>
<text text-anchor="middle" x="259.07" y="-468.94" font-family="Times New Roman,serif" font-size="14.00">(&#39;best_5tree_2500pop_15gen_20runs_res200_20subrun&#39;, &#39;&#39;)</text>
<!-- 0 -->
<g id="node1" class="node">
<title>0</title>
<ellipse fill="white" stroke="black" cx="163.82" cy="-422.68" rx="63.57" ry="22.06"/>
<text text-anchor="middle" x="163.82" y="-418.48" font-family="Arial" font-size="14.00">if_then_else</text>
</g>
<!-- 1 -->
<g id="node2" class="node">
<title>1</title>
<ellipse fill="white" stroke="black" cx="71.82" cy="-342.56" rx="47.04" ry="22.06"/>
<text text-anchor="middle" x="71.82" y="-338.36" font-family="Arial" font-size="14.00">is_water</text>
</g>
<!-- 0&#45;&gt;1 -->
<g id="edge1" class="edge">
<title>0&#45;&gt;1</title>
<path fill="none" stroke="black" d="M140.61,-401.97C129.13,-392.22 115.11,-380.32 102.74,-369.81"/>
<polygon fill="black" stroke="black" points="105.12,-367.24 95.23,-363.43 100.59,-372.58 105.12,-367.24"/>
</g>
<!-- 2 -->
<g id="node3" class="node">
<title>2</title>
<ellipse fill="white" stroke="black" cx="163.82" cy="-342.56" rx="27" ry="22.06"/>
<text text-anchor="middle" x="163.82" y="-338.36" font-family="Arial" font-size="14.00">sub</text>
</g>
<!-- 0&#45;&gt;2 -->
<g id="edge2" class="edge">
<title>0&#45;&gt;2</title>
<path fill="none" stroke="black" d="M163.82,-400.33C163.82,-392.93 163.82,-384.44 163.82,-376.33"/>
<polygon fill="black" stroke="black" points="167.32,-376.39 163.82,-366.39 160.32,-376.39 167.32,-376.39"/>
</g>
<!-- 13 -->
<g id="node14" class="node">
<title>13</title>
<ellipse fill="white" stroke="black" cx="255.82" cy="-342.56" rx="47.05" ry="22.06"/>
<text text-anchor="middle" x="255.82" y="-338.36" font-family="Arial" font-size="14.00">distance</text>
</g>
<!-- 0&#45;&gt;13 -->
<g id="edge13" class="edge">
<title>0&#45;&gt;13</title>
<path fill="none" stroke="black" d="M187.04,-401.97C198.52,-392.22 212.53,-380.32 224.9,-369.81"/>
<polygon fill="black" stroke="black" points="227.05,-372.58 232.41,-363.43 222.52,-367.24 227.05,-372.58"/>
</g>
<!-- 3 -->
<g id="node4" class="node">
<title>3</title>
<ellipse fill="white" stroke="black" cx="117.82" cy="-262.43" rx="47.05" ry="22.06"/>
<text text-anchor="middle" x="117.82" y="-258.23" font-family="Arial" font-size="14.00">distance</text>
</g>
<!-- 2&#45;&gt;3 -->
<g id="edge3" class="edge">
<title>2&#45;&gt;3</title>
<path fill="none" stroke="black" d="M152.45,-322.24C147.45,-313.75 141.45,-303.56 135.86,-294.07"/>
<polygon fill="black" stroke="black" points="138.88,-292.31 130.79,-285.47 132.85,-295.86 138.88,-292.31"/>
</g>
<!-- 4 -->
<g id="node5" class="node">
<title>4</title>
<ellipse fill="white" stroke="black" cx="209.82" cy="-262.43" rx="27" ry="22.06"/>
<text text-anchor="middle" x="209.82" y="-258.23" font-family="Arial" font-size="14.00">sub</text>
</g>
<!-- 2&#45;&gt;4 -->
<g id="edge4" class="edge">
<title>2&#45;&gt;4</title>
<path fill="none" stroke="black" d="M175.19,-322.24C180.44,-313.32 186.79,-302.54 192.62,-292.65"/>
<polygon fill="black" stroke="black" points="195.6,-294.49 197.65,-284.1 189.56,-290.94 195.6,-294.49"/>
</g>
<!-- 5 -->
<g id="node6" class="node">
<title>5</title>
<ellipse fill="white" stroke="black" cx="156.82" cy="-182.31" rx="60.26" ry="22.06"/>
<text text-anchor="middle" x="156.82" y="-178.11" font-family="Arial" font-size="14.00">elevation_v</text>
</g>
<!-- 4&#45;&gt;5 -->
<g id="edge5" class="edge">
<title>4&#45;&gt;5</title>
<path fill="none" stroke="black" d="M196.99,-242.52C191.11,-233.85 183.99,-223.36 177.39,-213.63"/>
<polygon fill="black" stroke="black" points="180.38,-211.81 171.87,-205.5 174.59,-215.74 180.38,-211.81"/>
</g>
<!-- 6 -->
<g id="node7" class="node">
<title>6</title>
<ellipse fill="white" stroke="black" cx="261.82" cy="-182.31" rx="27" ry="22.06"/>
<text text-anchor="middle" x="261.82" y="-178.11" font-family="Arial" font-size="14.00">mul</text>
</g>
<!-- 4&#45;&gt;6 -->
<g id="edge6" class="edge">
<title>4&#45;&gt;6</title>
<path fill="none" stroke="black" d="M222.41,-242.52C228.56,-233.28 236.09,-221.97 242.91,-211.72"/>
<polygon fill="black" stroke="black" points="245.7,-213.84 248.33,-203.58 239.88,-209.96 245.7,-213.84"/>
</g>
<!-- 7 -->
<g id="node8" class="node">
<title>7</title>
<ellipse fill="white" stroke="black" cx="194.82" cy="-102.19" rx="27" ry="22.06"/>
<text text-anchor="middle" x="194.82" y="-97.99" font-family="Arial" font-size="14.00">sub</text>
</g>
<!-- 6&#45;&gt;7 -->
<g id="edge7" class="edge">
<title>6&#45;&gt;7</title>
<path fill="none" stroke="black" d="M246.62,-163.58C237.97,-153.49 226.96,-140.67 217.33,-129.43"/>
<polygon fill="black" stroke="black" points="220.12,-127.3 210.95,-121.99 214.8,-131.86 220.12,-127.3"/>
</g>
<!-- 10 -->
<g id="node11" class="node">
<title>10</title>
<ellipse fill="white" stroke="black" cx="328.82" cy="-102.19" rx="27" ry="22.06"/>
<text text-anchor="middle" x="328.82" y="-97.99" font-family="Arial" font-size="14.00">sub</text>
</g>
<!-- 6&#45;&gt;10 -->
<g id="edge10" class="edge">
<title>6&#45;&gt;10</title>
<path fill="none" stroke="black" d="M277.02,-163.58C285.68,-153.49 296.68,-140.67 306.31,-129.43"/>
<polygon fill="black" stroke="black" points="308.84,-131.86 312.69,-121.99 303.53,-127.3 308.84,-131.86"/>
</g>
<!-- 8 -->
<g id="node9" class="node">
<title>8</title>
<ellipse fill="white" stroke="black" cx="60.82" cy="-22.06" rx="60.82" ry="22.06"/>
<text text-anchor="middle" x="60.82" y="-17.86" font-family="Arial" font-size="14.00">elevation_u</text>
</g>
<!-- 7&#45;&gt;8 -->
<g id="edge8" class="edge">
<title>7&#45;&gt;8</title>
<path fill="none" stroke="black" d="M173.29,-88.63C154.13,-77.46 125.57,-60.81 102.03,-47.09"/>
<polygon fill="black" stroke="black" points="104,-44.18 93.6,-42.17 100.47,-50.23 104,-44.18"/>
</g>
<!-- 9 -->
<g id="node10" class="node">
<title>9</title>
<ellipse fill="white" stroke="black" cx="194.82" cy="-22.06" rx="55.31" ry="22.06"/>
<text text-anchor="middle" x="194.82" y="-17.86" font-family="Arial" font-size="14.00">steepness</text>
</g>
<!-- 7&#45;&gt;9 -->
<g id="edge9" class="edge">
<title>7&#45;&gt;9</title>
<path fill="none" stroke="black" d="M194.82,-79.84C194.82,-72.43 194.82,-63.95 194.82,-55.83"/>
<polygon fill="black" stroke="black" points="198.32,-55.9 194.82,-45.9 191.32,-55.9 198.32,-55.9"/>
</g>
<!-- 11 -->
<g id="node12" class="node">
<title>11</title>
<ellipse fill="white" stroke="black" cx="328.82" cy="-22.06" rx="60.82" ry="22.06"/>
<text text-anchor="middle" x="328.82" y="-17.86" font-family="Arial" font-size="14.00">elevation_u</text>
</g>
<!-- 10&#45;&gt;11 -->
<g id="edge11" class="edge">
<title>10&#45;&gt;11</title>
<path fill="none" stroke="black" d="M328.82,-79.84C328.82,-72.43 328.82,-63.95 328.82,-55.83"/>
<polygon fill="black" stroke="black" points="332.32,-55.9 328.82,-45.9 325.32,-55.9 332.32,-55.9"/>
</g>
<!-- 12 -->
<g id="node13" class="node">
<title>12</title>
<ellipse fill="white" stroke="black" cx="462.82" cy="-22.06" rx="55.31" ry="22.06"/>
<text text-anchor="middle" x="462.82" y="-17.86" font-family="Arial" font-size="14.00">steepness</text>
</g>
<!-- 10&#45;&gt;12 -->
<g id="edge12" class="edge">
<title>10&#45;&gt;12</title>
<path fill="none" stroke="black" d="M350.35,-88.63C369.77,-77.31 398.84,-60.36 422.56,-46.53"/>
<polygon fill="black" stroke="black" points="424.17,-49.65 431.05,-41.59 420.65,-43.6 424.17,-49.65"/>
</g>
</g>
</svg>
