<?xml version="1.0" encoding="UTF-8" standalone="no"?>
<!DOCTYPE svg PUBLIC "-//W3C//DTD SVG 1.1//EN"
 "http://www.w3.org/Graphics/SVG/1.1/DTD/svg11.dtd">
<!-- Generated by graphviz version 12.2.1 (0)
 -->
<!-- Title: G Pages: 1 -->
<svg width="813pt" height="566pt"
 viewBox="36.00 36.00 776.86 529.54" xmlns="http://www.w3.org/2000/svg" xmlns:xlink="http://www.w3.org/1999/xlink">
<g id="graph0" class="graph" transform="scale(1 1) rotate(0) translate(40 525.54)">
<title>G</title>
<polygon fill="white" stroke="none" points="-4,4 -4,-489.54 736.86,-489.54 736.86,4 -4,4"/>
<text text-anchor="middle" x="366.43" y="-468.94" font-family="Times New Roman,serif" font-size="14.00">(&#39;best_tree_2500pop_15gen_20runs_res200_1subrun&#39;, &#39;&#39;)</text>
<!-- 0 -->
<g id="node1" class="node">
<title>0</title>
<ellipse fill="white" stroke="black" cx="226.04" cy="-422.68" rx="63.57" ry="22.06"/>
<text text-anchor="middle" x="226.04" y="-418.48" font-family="Arial" font-size="14.00">if_then_else</text>
</g>
<!-- 1 -->
<g id="node2" class="node">
<title>1</title>
<ellipse fill="white" stroke="black" cx="105.04" cy="-342.56" rx="71.26" ry="22.06"/>
<text text-anchor="middle" x="105.04" y="-338.36" font-family="Arial" font-size="14.00">identity_water</text>
</g>
<!-- 0&#45;&gt;1 -->
<g id="edge1" class="edge">
<title>0&#45;&gt;1</title>
<path fill="none" stroke="black" d="M196.75,-402.77C181.08,-392.65 161.57,-380.05 144.57,-369.08"/>
<polygon fill="black" stroke="black" points="146.48,-366.14 136.18,-363.66 142.68,-372.02 146.48,-366.14"/>
</g>
<!-- 3 -->
<g id="node4" class="node">
<title>3</title>
<ellipse fill="white" stroke="black" cx="226.04" cy="-342.56" rx="27" ry="22.06"/>
<text text-anchor="middle" x="226.04" y="-338.36" font-family="Arial" font-size="14.00">sub</text>
</g>
<!-- 0&#45;&gt;3 -->
<g id="edge3" class="edge">
<title>0&#45;&gt;3</title>
<path fill="none" stroke="black" d="M226.04,-400.33C226.04,-392.93 226.04,-384.44 226.04,-376.33"/>
<polygon fill="black" stroke="black" points="229.54,-376.39 226.04,-366.39 222.54,-376.39 229.54,-376.39"/>
</g>
<!-- 8 -->
<g id="node9" class="node">
<title>8</title>
<ellipse fill="white" stroke="black" cx="478.04" cy="-342.56" rx="63.57" ry="22.06"/>
<text text-anchor="middle" x="478.04" y="-338.36" font-family="Arial" font-size="14.00">if_then_else</text>
</g>
<!-- 0&#45;&gt;8 -->
<g id="edge8" class="edge">
<title>0&#45;&gt;8</title>
<path fill="none" stroke="black" d="M272.56,-407.26C314.47,-394.27 376.21,-375.13 421.07,-361.22"/>
<polygon fill="black" stroke="black" points="421.84,-364.64 430.36,-358.34 419.77,-357.96 421.84,-364.64"/>
</g>
<!-- 2 -->
<g id="node3" class="node">
<title>2</title>
<ellipse fill="white" stroke="black" cx="47.04" cy="-262.43" rx="47.04" ry="22.06"/>
<text text-anchor="middle" x="47.04" y="-258.23" font-family="Arial" font-size="14.00">is_water</text>
</g>
<!-- 1&#45;&gt;2 -->
<g id="edge2" class="edge">
<title>1&#45;&gt;2</title>
<path fill="none" stroke="black" d="M89.5,-320.62C83.11,-312.01 75.6,-301.89 68.68,-292.58"/>
<polygon fill="black" stroke="black" points="71.7,-290.77 62.93,-284.83 66.08,-294.95 71.7,-290.77"/>
</g>
<!-- 4 -->
<g id="node5" class="node">
<title>4</title>
<ellipse fill="white" stroke="black" cx="173.04" cy="-262.43" rx="60.82" ry="22.06"/>
<text text-anchor="middle" x="173.04" y="-258.23" font-family="Arial" font-size="14.00">elevation_u</text>
</g>
<!-- 3&#45;&gt;4 -->
<g id="edge4" class="edge">
<title>3&#45;&gt;4</title>
<path fill="none" stroke="black" d="M213.21,-322.64C207.33,-313.97 200.21,-303.48 193.61,-293.75"/>
<polygon fill="black" stroke="black" points="196.61,-291.93 188.1,-285.62 190.81,-295.86 196.61,-291.93"/>
</g>
<!-- 5 -->
<g id="node6" class="node">
<title>5</title>
<ellipse fill="white" stroke="black" cx="279.04" cy="-262.43" rx="27" ry="22.06"/>
<text text-anchor="middle" x="279.04" y="-258.23" font-family="Arial" font-size="14.00">sub</text>
</g>
<!-- 3&#45;&gt;5 -->
<g id="edge5" class="edge">
<title>3&#45;&gt;5</title>
<path fill="none" stroke="black" d="M238.87,-322.64C245.19,-313.34 252.93,-301.93 259.93,-291.61"/>
<polygon fill="black" stroke="black" points="262.77,-293.66 265.48,-283.42 256.97,-289.73 262.77,-293.66"/>
</g>
<!-- 6 -->
<g id="node7" class="node">
<title>6</title>
<ellipse fill="white" stroke="black" cx="145.04" cy="-182.31" rx="60.26" ry="22.06"/>
<text text-anchor="middle" x="145.04" y="-178.11" font-family="Arial" font-size="14.00">elevation_v</text>
</g>
<!-- 5&#45;&gt;6 -->
<g id="edge6" class="edge">
<title>5&#45;&gt;6</title>
<path fill="none" stroke="black" d="M257.35,-248.73C252.63,-245.97 247.67,-243.07 243.04,-240.37 224.42,-229.5 203.8,-217.49 186.3,-207.3"/>
<polygon fill="black" stroke="black" points="188.1,-204.3 177.7,-202.3 184.58,-210.35 188.1,-204.3"/>
</g>
<!-- 7 -->
<g id="node8" class="node">
<title>7</title>
<ellipse fill="white" stroke="black" cx="279.04" cy="-182.31" rx="55.31" ry="22.06"/>
<text text-anchor="middle" x="279.04" y="-178.11" font-family="Arial" font-size="14.00">steepness</text>
</g>
<!-- 5&#45;&gt;7 -->
<g id="edge7" class="edge">
<title>5&#45;&gt;7</title>
<path fill="none" stroke="black" d="M279.04,-240.08C279.04,-232.68 279.04,-224.19 279.04,-216.08"/>
<polygon fill="black" stroke="black" points="282.54,-216.14 279.04,-206.14 275.54,-216.14 282.54,-216.14"/>
</g>
<!-- 9 -->
<g id="node10" class="node">
<title>9</title>
<ellipse fill="white" stroke="black" cx="410.04" cy="-262.43" rx="71.26" ry="22.06"/>
<text text-anchor="middle" x="410.04" y="-258.23" font-family="Arial" font-size="14.00">identity_water</text>
</g>
<!-- 8&#45;&gt;9 -->
<g id="edge9" class="edge">
<title>8&#45;&gt;9</title>
<path fill="none" stroke="black" d="M460.18,-321.03C452.59,-312.31 443.6,-301.98 435.34,-292.5"/>
<polygon fill="black" stroke="black" points="438.23,-290.48 429.02,-285.23 432.95,-295.07 438.23,-290.48"/>
</g>
<!-- 13 -->
<g id="node14" class="node">
<title>13</title>
<ellipse fill="white" stroke="black" cx="546.04" cy="-262.43" rx="47.05" ry="22.06"/>
<text text-anchor="middle" x="546.04" y="-258.23" font-family="Arial" font-size="14.00">distance</text>
</g>
<!-- 8&#45;&gt;13 -->
<g id="edge13" class="edge">
<title>8&#45;&gt;13</title>
<path fill="none" stroke="black" d="M495.91,-321.03C503.68,-312.1 512.92,-301.49 521.34,-291.82"/>
<polygon fill="black" stroke="black" points="523.85,-294.26 527.77,-284.42 518.57,-289.67 523.85,-294.26"/>
</g>
<!-- 14 -->
<g id="node15" class="node">
<title>14</title>
<ellipse fill="white" stroke="black" cx="672.04" cy="-262.43" rx="60.82" ry="22.06"/>
<text text-anchor="middle" x="672.04" y="-258.23" font-family="Arial" font-size="14.00">elevation_u</text>
</g>
<!-- 8&#45;&gt;14 -->
<g id="edge14" class="edge">
<title>8&#45;&gt;14</title>
<path fill="none" stroke="black" d="M518.71,-325.18C548.66,-313.12 589.57,-296.64 621.6,-283.75"/>
<polygon fill="black" stroke="black" points="622.72,-287.07 630.69,-280.09 620.11,-280.57 622.72,-287.07"/>
</g>
<!-- 10 -->
<g id="node11" class="node">
<title>10</title>
<ellipse fill="white" stroke="black" cx="424.04" cy="-182.31" rx="71.26" ry="22.06"/>
<text text-anchor="middle" x="424.04" y="-178.11" font-family="Arial" font-size="14.00">identity_water</text>
</g>
<!-- 9&#45;&gt;10 -->
<g id="edge10" class="edge">
<title>9&#45;&gt;10</title>
<path fill="none" stroke="black" d="M413.87,-240.08C415.21,-232.59 416.75,-224 418.22,-215.8"/>
<polygon fill="black" stroke="black" points="421.64,-216.58 419.96,-206.12 414.75,-215.35 421.64,-216.58"/>
</g>
<!-- 11 -->
<g id="node12" class="node">
<title>11</title>
<ellipse fill="white" stroke="black" cx="424.04" cy="-102.19" rx="71.26" ry="22.06"/>
<text text-anchor="middle" x="424.04" y="-97.99" font-family="Arial" font-size="14.00">identity_water</text>
</g>
<!-- 10&#45;&gt;11 -->
<g id="edge11" class="edge">
<title>10&#45;&gt;11</title>
<path fill="none" stroke="black" d="M424.04,-159.96C424.04,-152.55 424.04,-144.07 424.04,-135.96"/>
<polygon fill="black" stroke="black" points="427.54,-136.02 424.04,-126.02 420.54,-136.02 427.54,-136.02"/>
</g>
<!-- 12 -->
<g id="node13" class="node">
<title>12</title>
<ellipse fill="white" stroke="black" cx="424.04" cy="-22.06" rx="47.04" ry="22.06"/>
<text text-anchor="middle" x="424.04" y="-17.86" font-family="Arial" font-size="14.00">is_water</text>
</g>
<!-- 11&#45;&gt;12 -->
<g id="edge12" class="edge">
<title>11&#45;&gt;12</title>
<path fill="none" stroke="black" d="M424.04,-79.84C424.04,-72.43 424.04,-63.95 424.04,-55.83"/>
<polygon fill="black" stroke="black" points="427.54,-55.9 424.04,-45.9 420.54,-55.9 427.54,-55.9"/>
</g>
</g>
</svg>
