<?xml version="1.0" encoding="UTF-8" standalone="no"?>
<!DOCTYPE svg PUBLIC "-//W3C//DTD SVG 1.1//EN"
 "http://www.w3.org/Graphics/SVG/1.1/DTD/svg11.dtd">
<!-- Generated by graphviz version 12.2.1 (0)
 -->
<!-- Title: G Pages: 1 -->
<svg width="494pt" height="566pt"
 viewBox="36.00 36.00 458.36 529.54" xmlns="http://www.w3.org/2000/svg" xmlns:xlink="http://www.w3.org/1999/xlink">
<g id="graph0" class="graph" transform="scale(1 1) rotate(0) translate(40 525.54)">
<title>G</title>
<polygon fill="white" stroke="none" points="-4,4 -4,-489.54 418.36,-489.54 418.36,4 -4,4"/>
<text text-anchor="middle" x="207.18" y="-468.94" font-family="Times New Roman,serif" font-size="14.00">(&#39;best_2tree_2500pop_15gen_15runs_res200_15subrun&#39;, &#39;&#39;)</text>
<!-- 0 -->
<g id="node1" class="node">
<title>0</title>
<ellipse fill="white" stroke="black" cx="224.05" cy="-422.68" rx="27" ry="22.06"/>
<text text-anchor="middle" x="224.05" y="-418.48" font-family="Arial" font-size="14.00">mul</text>
</g>
<!-- 1 -->
<g id="node2" class="node">
<title>1</title>
<ellipse fill="white" stroke="black" cx="153.05" cy="-342.56" rx="63.57" ry="22.06"/>
<text text-anchor="middle" x="153.05" y="-338.36" font-family="Arial" font-size="14.00">if_then_else</text>
</g>
<!-- 0&#45;&gt;1 -->
<g id="edge1" class="edge">
<title>0&#45;&gt;1</title>
<path fill="none" stroke="black" d="M208.3,-404.34C199.72,-394.91 188.89,-382.99 179.1,-372.22"/>
<polygon fill="black" stroke="black" points="181.87,-370.05 172.55,-365.01 176.69,-374.76 181.87,-370.05"/>
</g>
<!-- 13 -->
<g id="node14" class="node">
<title>13</title>
<ellipse fill="white" stroke="black" cx="295.05" cy="-342.56" rx="60.26" ry="22.06"/>
<text text-anchor="middle" x="295.05" y="-338.36" font-family="Arial" font-size="14.00">elevation_v</text>
</g>
<!-- 0&#45;&gt;13 -->
<g id="edge13" class="edge">
<title>0&#45;&gt;13</title>
<path fill="none" stroke="black" d="M239.81,-404.34C248.39,-394.91 259.21,-382.99 269.01,-372.22"/>
<polygon fill="black" stroke="black" points="271.42,-374.76 275.56,-365.01 266.24,-370.05 271.42,-374.76"/>
</g>
<!-- 2 -->
<g id="node3" class="node">
<title>2</title>
<ellipse fill="white" stroke="black" cx="61.05" cy="-262.43" rx="47.04" ry="22.06"/>
<text text-anchor="middle" x="61.05" y="-258.23" font-family="Arial" font-size="14.00">is_water</text>
</g>
<!-- 1&#45;&gt;2 -->
<g id="edge2" class="edge">
<title>1&#45;&gt;2</title>
<path fill="none" stroke="black" d="M129.84,-321.84C118.36,-312.09 104.35,-300.19 91.97,-289.69"/>
<polygon fill="black" stroke="black" points="94.35,-287.12 84.46,-283.31 89.82,-292.45 94.35,-287.12"/>
</g>
<!-- 3 -->
<g id="node4" class="node">
<title>3</title>
<ellipse fill="white" stroke="black" cx="153.05" cy="-262.43" rx="27" ry="22.06"/>
<text text-anchor="middle" x="153.05" y="-258.23" font-family="Arial" font-size="14.00">add</text>
</g>
<!-- 1&#45;&gt;3 -->
<g id="edge3" class="edge">
<title>1&#45;&gt;3</title>
<path fill="none" stroke="black" d="M153.05,-320.21C153.05,-312.8 153.05,-304.32 153.05,-296.2"/>
<polygon fill="black" stroke="black" points="156.55,-296.27 153.05,-286.27 149.55,-296.27 156.55,-296.27"/>
</g>
<!-- 8 -->
<g id="node9" class="node">
<title>8</title>
<ellipse fill="white" stroke="black" cx="259.05" cy="-262.43" rx="27" ry="22.06"/>
<text text-anchor="middle" x="259.05" y="-258.23" font-family="Arial" font-size="14.00">sub</text>
</g>
<!-- 1&#45;&gt;8 -->
<g id="edge8" class="edge">
<title>1&#45;&gt;8</title>
<path fill="none" stroke="black" d="M179.53,-322.04C195.01,-310.63 214.56,-296.23 230.4,-284.55"/>
<polygon fill="black" stroke="black" points="232.05,-287.68 238.02,-278.93 227.89,-282.05 232.05,-287.68"/>
</g>
<!-- 4 -->
<g id="node5" class="node">
<title>4</title>
<ellipse fill="white" stroke="black" cx="47.05" cy="-182.31" rx="27" ry="22.06"/>
<text text-anchor="middle" x="47.05" y="-178.11" font-family="Arial" font-size="14.00">neg</text>
</g>
<!-- 3&#45;&gt;4 -->
<g id="edge4" class="edge">
<title>3&#45;&gt;4</title>
<path fill="none" stroke="black" d="M133.61,-247.1C117.43,-235.17 94.15,-218.02 75.81,-204.5"/>
<polygon fill="black" stroke="black" points="78.08,-201.82 67.95,-198.71 73.92,-207.46 78.08,-201.82"/>
</g>
<!-- 7 -->
<g id="node8" class="node">
<title>7</title>
<ellipse fill="white" stroke="black" cx="153.05" cy="-182.31" rx="60.82" ry="22.06"/>
<text text-anchor="middle" x="153.05" y="-178.11" font-family="Arial" font-size="14.00">elevation_u</text>
</g>
<!-- 3&#45;&gt;7 -->
<g id="edge7" class="edge">
<title>3&#45;&gt;7</title>
<path fill="none" stroke="black" d="M153.05,-240.08C153.05,-232.68 153.05,-224.19 153.05,-216.08"/>
<polygon fill="black" stroke="black" points="156.55,-216.14 153.05,-206.14 149.55,-216.14 156.55,-216.14"/>
</g>
<!-- 5 -->
<g id="node6" class="node">
<title>5</title>
<ellipse fill="white" stroke="black" cx="47.05" cy="-102.19" rx="27" ry="22.06"/>
<text text-anchor="middle" x="47.05" y="-97.99" font-family="Arial" font-size="14.00">neg</text>
</g>
<!-- 4&#45;&gt;5 -->
<g id="edge5" class="edge">
<title>4&#45;&gt;5</title>
<path fill="none" stroke="black" d="M47.05,-159.96C47.05,-152.55 47.05,-144.07 47.05,-135.96"/>
<polygon fill="black" stroke="black" points="50.55,-136.02 47.05,-126.02 43.55,-136.02 50.55,-136.02"/>
</g>
<!-- 6 -->
<g id="node7" class="node">
<title>6</title>
<ellipse fill="white" stroke="black" cx="47.05" cy="-22.06" rx="47.05" ry="22.06"/>
<text text-anchor="middle" x="47.05" y="-17.86" font-family="Arial" font-size="14.00">distance</text>
</g>
<!-- 5&#45;&gt;6 -->
<g id="edge6" class="edge">
<title>5&#45;&gt;6</title>
<path fill="none" stroke="black" d="M47.05,-79.84C47.05,-72.43 47.05,-63.95 47.05,-55.83"/>
<polygon fill="black" stroke="black" points="50.55,-55.9 47.05,-45.9 43.55,-55.9 50.55,-55.9"/>
</g>
<!-- 9 -->
<g id="node10" class="node">
<title>9</title>
<ellipse fill="white" stroke="black" cx="259.05" cy="-182.31" rx="27" ry="22.06"/>
<text text-anchor="middle" x="259.05" y="-178.11" font-family="Arial" font-size="14.00">sub</text>
</g>
<!-- 8&#45;&gt;9 -->
<g id="edge9" class="edge">
<title>8&#45;&gt;9</title>
<path fill="none" stroke="black" d="M259.05,-240.08C259.05,-232.68 259.05,-224.19 259.05,-216.08"/>
<polygon fill="black" stroke="black" points="262.55,-216.14 259.05,-206.14 255.55,-216.14 262.55,-216.14"/>
</g>
<!-- 12 -->
<g id="node13" class="node">
<title>12</title>
<ellipse fill="white" stroke="black" cx="359.05" cy="-182.31" rx="55.31" ry="22.06"/>
<text text-anchor="middle" x="359.05" y="-178.11" font-family="Arial" font-size="14.00">steepness</text>
</g>
<!-- 8&#45;&gt;12 -->
<g id="edge12" class="edge">
<title>8&#45;&gt;12</title>
<path fill="none" stroke="black" d="M278.34,-246.37C291.71,-235.92 309.88,-221.72 325.6,-209.45"/>
<polygon fill="black" stroke="black" points="327.59,-212.33 333.32,-203.41 323.28,-206.81 327.59,-212.33"/>
</g>
<!-- 10 -->
<g id="node11" class="node">
<title>10</title>
<ellipse fill="white" stroke="black" cx="202.05" cy="-102.19" rx="34.96" ry="22.06"/>
<text text-anchor="middle" x="202.05" y="-97.99" font-family="Arial" font-size="14.00">0.565</text>
</g>
<!-- 9&#45;&gt;10 -->
<g id="edge10" class="edge">
<title>9&#45;&gt;10</title>
<path fill="none" stroke="black" d="M245.55,-162.79C238.79,-153.54 230.47,-142.12 222.91,-131.77"/>
<polygon fill="black" stroke="black" points="225.87,-129.89 217.15,-123.88 220.22,-134.02 225.87,-129.89"/>
</g>
<!-- 11 -->
<g id="node12" class="node">
<title>11</title>
<ellipse fill="white" stroke="black" cx="316.05" cy="-102.19" rx="60.82" ry="22.06"/>
<text text-anchor="middle" x="316.05" y="-97.99" font-family="Arial" font-size="14.00">elevation_u</text>
</g>
<!-- 9&#45;&gt;11 -->
<g id="edge11" class="edge">
<title>9&#45;&gt;11</title>
<path fill="none" stroke="black" d="M272.56,-162.79C279.05,-153.9 286.98,-143.03 294.29,-133.01"/>
<polygon fill="black" stroke="black" points="297.08,-135.13 300.15,-124.99 291.42,-131 297.08,-135.13"/>
</g>
</g>
</svg>
