<?xml version="1.0" encoding="UTF-8" standalone="no"?>
<!DOCTYPE svg PUBLIC "-//W3C//DTD SVG 1.1//EN"
 "http://www.w3.org/Graphics/SVG/1.1/DTD/svg11.dtd">
<!-- Generated by graphviz version 12.2.1 (0)
 -->
<!-- Title: G Pages: 1 -->
<svg width="526pt" height="485pt"
 viewBox="36.00 36.00 490.27 449.42" xmlns="http://www.w3.org/2000/svg" xmlns:xlink="http://www.w3.org/1999/xlink">
<g id="graph0" class="graph" transform="scale(1 1) rotate(0) translate(40 445.42)">
<title>G</title>
<polygon fill="white" stroke="none" points="-4,4 -4,-409.42 450.27,-409.42 450.27,4 -4,4"/>
<text text-anchor="middle" x="223.13" y="-388.82" font-family="Times New Roman,serif" font-size="14.00">(&#39;best_tree_2500pop_15gen_15runs_res200_3subrun&#39;, &#39;&#39;)</text>
<!-- 0 -->
<g id="node1" class="node">
<title>0</title>
<ellipse fill="white" stroke="black" cx="255.96" cy="-342.56" rx="27" ry="22.06"/>
<text text-anchor="middle" x="255.96" y="-338.36" font-family="Arial" font-size="14.00">mul</text>
</g>
<!-- 1 -->
<g id="node2" class="node">
<title>1</title>
<ellipse fill="white" stroke="black" cx="184.96" cy="-262.43" rx="63.57" ry="22.06"/>
<text text-anchor="middle" x="184.96" y="-258.23" font-family="Arial" font-size="14.00">if_then_else</text>
</g>
<!-- 0&#45;&gt;1 -->
<g id="edge1" class="edge">
<title>0&#45;&gt;1</title>
<path fill="none" stroke="black" d="M240.2,-324.22C231.62,-314.78 220.8,-302.87 211,-292.09"/>
<polygon fill="black" stroke="black" points="213.77,-289.93 204.45,-284.88 208.59,-294.64 213.77,-289.93"/>
</g>
<!-- 13 -->
<g id="node14" class="node">
<title>13</title>
<ellipse fill="white" stroke="black" cx="326.96" cy="-262.43" rx="60.26" ry="22.06"/>
<text text-anchor="middle" x="326.96" y="-258.23" font-family="Arial" font-size="14.00">elevation_v</text>
</g>
<!-- 0&#45;&gt;13 -->
<g id="edge13" class="edge">
<title>0&#45;&gt;13</title>
<path fill="none" stroke="black" d="M271.71,-324.22C280.29,-314.78 291.12,-302.87 300.91,-292.09"/>
<polygon fill="black" stroke="black" points="303.32,-294.64 307.46,-284.88 298.14,-289.93 303.32,-294.64"/>
</g>
<!-- 2 -->
<g id="node3" class="node">
<title>2</title>
<ellipse fill="white" stroke="black" cx="92.96" cy="-182.31" rx="47.04" ry="22.06"/>
<text text-anchor="middle" x="92.96" y="-178.11" font-family="Arial" font-size="14.00">is_water</text>
</g>
<!-- 1&#45;&gt;2 -->
<g id="edge2" class="edge">
<title>1&#45;&gt;2</title>
<path fill="none" stroke="black" d="M161.74,-241.72C150.26,-231.97 136.25,-220.07 123.87,-209.56"/>
<polygon fill="black" stroke="black" points="126.25,-206.99 116.36,-203.19 121.72,-212.33 126.25,-206.99"/>
</g>
<!-- 3 -->
<g id="node4" class="node">
<title>3</title>
<ellipse fill="white" stroke="black" cx="184.96" cy="-182.31" rx="27" ry="22.06"/>
<text text-anchor="middle" x="184.96" y="-178.11" font-family="Arial" font-size="14.00">add</text>
</g>
<!-- 1&#45;&gt;3 -->
<g id="edge3" class="edge">
<title>1&#45;&gt;3</title>
<path fill="none" stroke="black" d="M184.96,-240.08C184.96,-232.68 184.96,-224.19 184.96,-216.08"/>
<polygon fill="black" stroke="black" points="188.46,-216.14 184.96,-206.14 181.46,-216.14 188.46,-216.14"/>
</g>
<!-- 8 -->
<g id="node9" class="node">
<title>8</title>
<ellipse fill="white" stroke="black" cx="290.96" cy="-182.31" rx="27" ry="22.06"/>
<text text-anchor="middle" x="290.96" y="-178.11" font-family="Arial" font-size="14.00">sub</text>
</g>
<!-- 1&#45;&gt;8 -->
<g id="edge8" class="edge">
<title>1&#45;&gt;8</title>
<path fill="none" stroke="black" d="M211.43,-241.92C226.91,-230.51 246.46,-216.1 262.3,-204.43"/>
<polygon fill="black" stroke="black" points="263.95,-207.56 269.92,-198.81 259.8,-201.93 263.95,-207.56"/>
</g>
<!-- 4 -->
<g id="node5" class="node">
<title>4</title>
<ellipse fill="white" stroke="black" cx="78.96" cy="-102.19" rx="27" ry="22.06"/>
<text text-anchor="middle" x="78.96" y="-97.99" font-family="Arial" font-size="14.00">sub</text>
</g>
<!-- 3&#45;&gt;4 -->
<g id="edge4" class="edge">
<title>3&#45;&gt;4</title>
<path fill="none" stroke="black" d="M165.51,-166.98C149.33,-155.05 126.05,-137.89 107.71,-124.38"/>
<polygon fill="black" stroke="black" points="109.98,-121.7 99.85,-118.59 105.82,-127.34 109.98,-121.7"/>
</g>
<!-- 7 -->
<g id="node8" class="node">
<title>7</title>
<ellipse fill="white" stroke="black" cx="184.96" cy="-102.19" rx="60.82" ry="22.06"/>
<text text-anchor="middle" x="184.96" y="-97.99" font-family="Arial" font-size="14.00">elevation_u</text>
</g>
<!-- 3&#45;&gt;7 -->
<g id="edge7" class="edge">
<title>3&#45;&gt;7</title>
<path fill="none" stroke="black" d="M184.96,-159.96C184.96,-152.55 184.96,-144.07 184.96,-135.96"/>
<polygon fill="black" stroke="black" points="188.46,-136.02 184.96,-126.02 181.46,-136.02 188.46,-136.02"/>
</g>
<!-- 5 -->
<g id="node6" class="node">
<title>5</title>
<ellipse fill="white" stroke="black" cx="34.96" cy="-22.06" rx="34.96" ry="22.06"/>
<text text-anchor="middle" x="34.96" y="-17.86" font-family="Arial" font-size="14.00">6.058</text>
</g>
<!-- 4&#45;&gt;5 -->
<g id="edge5" class="edge">
<title>4&#45;&gt;5</title>
<path fill="none" stroke="black" d="M68.08,-81.87C63.22,-73.25 57.38,-62.87 51.96,-53.26"/>
<polygon fill="black" stroke="black" points="55.02,-51.56 47.06,-44.56 48.92,-54.99 55.02,-51.56"/>
</g>
<!-- 6 -->
<g id="node7" class="node">
<title>6</title>
<ellipse fill="white" stroke="black" cx="134.96" cy="-22.06" rx="47.05" ry="22.06"/>
<text text-anchor="middle" x="134.96" y="-17.86" font-family="Arial" font-size="14.00">distance</text>
</g>
<!-- 4&#45;&gt;6 -->
<g id="edge6" class="edge">
<title>4&#45;&gt;6</title>
<path fill="none" stroke="black" d="M92.23,-82.67C98.65,-73.71 106.51,-62.74 113.74,-52.66"/>
<polygon fill="black" stroke="black" points="116.54,-54.76 119.52,-44.59 110.85,-50.68 116.54,-54.76"/>
</g>
<!-- 9 -->
<g id="node10" class="node">
<title>9</title>
<ellipse fill="white" stroke="black" cx="290.96" cy="-102.19" rx="27" ry="22.06"/>
<text text-anchor="middle" x="290.96" y="-97.99" font-family="Arial" font-size="14.00">sub</text>
</g>
<!-- 8&#45;&gt;9 -->
<g id="edge9" class="edge">
<title>8&#45;&gt;9</title>
<path fill="none" stroke="black" d="M290.96,-159.96C290.96,-152.55 290.96,-144.07 290.96,-135.96"/>
<polygon fill="black" stroke="black" points="294.46,-136.02 290.96,-126.02 287.46,-136.02 294.46,-136.02"/>
</g>
<!-- 12 -->
<g id="node13" class="node">
<title>12</title>
<ellipse fill="white" stroke="black" cx="390.96" cy="-102.19" rx="55.31" ry="22.06"/>
<text text-anchor="middle" x="390.96" y="-97.99" font-family="Arial" font-size="14.00">steepness</text>
</g>
<!-- 8&#45;&gt;12 -->
<g id="edge12" class="edge">
<title>8&#45;&gt;12</title>
<path fill="none" stroke="black" d="M310.24,-166.25C323.62,-155.79 341.79,-141.6 357.5,-129.32"/>
<polygon fill="black" stroke="black" points="359.49,-132.21 365.22,-123.29 355.18,-126.69 359.49,-132.21"/>
</g>
<!-- 10 -->
<g id="node11" class="node">
<title>10</title>
<ellipse fill="white" stroke="black" cx="262.96" cy="-22.06" rx="34.96" ry="22.06"/>
<text text-anchor="middle" x="262.96" y="-17.86" font-family="Arial" font-size="14.00">1.045</text>
</g>
<!-- 9&#45;&gt;10 -->
<g id="edge10" class="edge">
<title>9&#45;&gt;10</title>
<path fill="none" stroke="black" d="M283.6,-80.66C280.75,-72.71 277.42,-63.43 274.29,-54.67"/>
<polygon fill="black" stroke="black" points="277.64,-53.65 270.97,-45.42 271.05,-56.01 277.64,-53.65"/>
</g>
<!-- 11 -->
<g id="node12" class="node">
<title>11</title>
<ellipse fill="white" stroke="black" cx="362.96" cy="-22.06" rx="47.05" ry="22.06"/>
<text text-anchor="middle" x="362.96" y="-17.86" font-family="Arial" font-size="14.00">distance</text>
</g>
<!-- 9&#45;&gt;11 -->
<g id="edge11" class="edge">
<title>9&#45;&gt;11</title>
<path fill="none" stroke="black" d="M306.93,-83.85C315.76,-74.27 326.94,-62.14 336.99,-51.24"/>
<polygon fill="black" stroke="black" points="339.51,-53.67 343.71,-43.94 334.36,-48.92 339.51,-53.67"/>
</g>
</g>
</svg>
