<?xml version="1.0" encoding="UTF-8" standalone="no"?>
<!DOCTYPE svg PUBLIC "-//W3C//DTD SVG 1.1//EN"
 "http://www.w3.org/Graphics/SVG/1.1/DTD/svg11.dtd">
<!-- Generated by graphviz version 12.2.1 (0)
 -->
<!-- Title: G Pages: 1 -->
<svg width="590pt" height="485pt"
 viewBox="36.00 36.00 553.57 449.42" xmlns="http://www.w3.org/2000/svg" xmlns:xlink="http://www.w3.org/1999/xlink">
<g id="graph0" class="graph" transform="scale(1 1) rotate(0) translate(40 445.42)">
<title>G</title>
<polygon fill="white" stroke="none" points="-4,4 -4,-409.42 513.57,-409.42 513.57,4 -4,4"/>
<text text-anchor="middle" x="254.79" y="-388.82" font-family="Times New Roman,serif" font-size="14.00">(&#39;best_4tree_2500pop_15gen_15runs_res200_15subrun&#39;, &#39;&#39;)</text>
<!-- 0 -->
<g id="node1" class="node">
<title>0</title>
<ellipse fill="white" stroke="black" cx="278.26" cy="-342.56" rx="27" ry="22.06"/>
<text text-anchor="middle" x="278.26" y="-338.36" font-family="Arial" font-size="14.00">mul</text>
</g>
<!-- 1 -->
<g id="node2" class="node">
<title>1</title>
<ellipse fill="white" stroke="black" cx="207.26" cy="-262.43" rx="63.57" ry="22.06"/>
<text text-anchor="middle" x="207.26" y="-258.23" font-family="Arial" font-size="14.00">if_then_else</text>
</g>
<!-- 0&#45;&gt;1 -->
<g id="edge1" class="edge">
<title>0&#45;&gt;1</title>
<path fill="none" stroke="black" d="M262.5,-324.22C253.93,-314.78 243.1,-302.87 233.31,-292.09"/>
<polygon fill="black" stroke="black" points="236.07,-289.93 226.76,-284.88 230.89,-294.64 236.07,-289.93"/>
</g>
<!-- 14 -->
<g id="node15" class="node">
<title>14</title>
<ellipse fill="white" stroke="black" cx="349.26" cy="-262.43" rx="60.26" ry="22.06"/>
<text text-anchor="middle" x="349.26" y="-258.23" font-family="Arial" font-size="14.00">elevation_v</text>
</g>
<!-- 0&#45;&gt;14 -->
<g id="edge14" class="edge">
<title>0&#45;&gt;14</title>
<path fill="none" stroke="black" d="M294.02,-324.22C302.59,-314.78 313.42,-302.87 323.21,-292.09"/>
<polygon fill="black" stroke="black" points="325.63,-294.64 329.77,-284.88 320.45,-289.93 325.63,-294.64"/>
</g>
<!-- 2 -->
<g id="node3" class="node">
<title>2</title>
<ellipse fill="white" stroke="black" cx="71.26" cy="-182.31" rx="71.26" ry="22.06"/>
<text text-anchor="middle" x="71.26" y="-178.11" font-family="Arial" font-size="14.00">identity_water</text>
</g>
<!-- 1&#45;&gt;2 -->
<g id="edge2" class="edge">
<title>1&#45;&gt;2</title>
<path fill="none" stroke="black" d="M175.38,-243.12C156.97,-232.54 133.6,-219.12 113.66,-207.67"/>
<polygon fill="black" stroke="black" points="115.62,-204.75 105.2,-202.81 112.13,-210.82 115.62,-204.75"/>
</g>
<!-- 4 -->
<g id="node5" class="node">
<title>4</title>
<ellipse fill="white" stroke="black" cx="207.26" cy="-182.31" rx="27" ry="22.06"/>
<text text-anchor="middle" x="207.26" y="-178.11" font-family="Arial" font-size="14.00">add</text>
</g>
<!-- 1&#45;&gt;4 -->
<g id="edge4" class="edge">
<title>1&#45;&gt;4</title>
<path fill="none" stroke="black" d="M207.26,-240.08C207.26,-232.68 207.26,-224.19 207.26,-216.08"/>
<polygon fill="black" stroke="black" points="210.76,-216.14 207.26,-206.14 203.76,-216.14 210.76,-216.14"/>
</g>
<!-- 9 -->
<g id="node10" class="node">
<title>9</title>
<ellipse fill="white" stroke="black" cx="354.26" cy="-182.31" rx="27" ry="22.06"/>
<text text-anchor="middle" x="354.26" y="-178.11" font-family="Arial" font-size="14.00">sub</text>
</g>
<!-- 1&#45;&gt;9 -->
<g id="edge9" class="edge">
<title>1&#45;&gt;9</title>
<path fill="none" stroke="black" d="M240.99,-243.51C265.35,-230.56 298.07,-213.17 322.07,-200.42"/>
<polygon fill="black" stroke="black" points="323.58,-203.58 330.76,-195.8 320.29,-197.4 323.58,-203.58"/>
</g>
<!-- 3 -->
<g id="node4" class="node">
<title>3</title>
<ellipse fill="white" stroke="black" cx="50.26" cy="-102.19" rx="47.04" ry="22.06"/>
<text text-anchor="middle" x="50.26" y="-97.99" font-family="Arial" font-size="14.00">is_water</text>
</g>
<!-- 2&#45;&gt;3 -->
<g id="edge3" class="edge">
<title>2&#45;&gt;3</title>
<path fill="none" stroke="black" d="M65.52,-159.96C63.49,-152.38 61.15,-143.68 58.92,-135.39"/>
<polygon fill="black" stroke="black" points="62.36,-134.72 56.39,-125.97 55.6,-136.53 62.36,-134.72"/>
</g>
<!-- 5 -->
<g id="node6" class="node">
<title>5</title>
<ellipse fill="white" stroke="black" cx="142.26" cy="-102.19" rx="27" ry="22.06"/>
<text text-anchor="middle" x="142.26" y="-97.99" font-family="Arial" font-size="14.00">sub</text>
</g>
<!-- 4&#45;&gt;5 -->
<g id="edge5" class="edge">
<title>4&#45;&gt;5</title>
<path fill="none" stroke="black" d="M192.51,-163.58C184.18,-153.56 173.6,-140.85 164.29,-129.67"/>
<polygon fill="black" stroke="black" points="167.23,-127.73 158.15,-122.28 161.85,-132.2 167.23,-127.73"/>
</g>
<!-- 8 -->
<g id="node9" class="node">
<title>8</title>
<ellipse fill="white" stroke="black" cx="248.26" cy="-102.19" rx="60.82" ry="22.06"/>
<text text-anchor="middle" x="248.26" y="-97.99" font-family="Arial" font-size="14.00">elevation_u</text>
</g>
<!-- 4&#45;&gt;8 -->
<g id="edge8" class="edge">
<title>4&#45;&gt;8</title>
<path fill="none" stroke="black" d="M217.61,-161.59C221.95,-153.32 227.11,-143.49 231.94,-134.28"/>
<polygon fill="black" stroke="black" points="234.95,-136.08 236.5,-125.6 228.75,-132.83 234.95,-136.08"/>
</g>
<!-- 6 -->
<g id="node7" class="node">
<title>6</title>
<ellipse fill="white" stroke="black" cx="58.26" cy="-22.06" rx="47.05" ry="22.06"/>
<text text-anchor="middle" x="58.26" y="-17.86" font-family="Arial" font-size="14.00">distance</text>
</g>
<!-- 5&#45;&gt;6 -->
<g id="edge6" class="edge">
<title>5&#45;&gt;6</title>
<path fill="none" stroke="black" d="M124.86,-85C114,-74.9 99.76,-61.66 87.24,-50.01"/>
<polygon fill="black" stroke="black" points="89.72,-47.54 80.01,-43.29 84.95,-52.67 89.72,-47.54"/>
</g>
<!-- 7 -->
<g id="node8" class="node">
<title>7</title>
<ellipse fill="white" stroke="black" cx="170.26" cy="-22.06" rx="47.05" ry="22.06"/>
<text text-anchor="middle" x="170.26" y="-17.86" font-family="Arial" font-size="14.00">distance</text>
</g>
<!-- 5&#45;&gt;7 -->
<g id="edge7" class="edge">
<title>5&#45;&gt;7</title>
<path fill="none" stroke="black" d="M149.62,-80.66C152.44,-72.78 155.74,-63.58 158.86,-54.88"/>
<polygon fill="black" stroke="black" points="162.07,-56.29 162.15,-45.69 155.48,-53.93 162.07,-56.29"/>
</g>
<!-- 10 -->
<g id="node11" class="node">
<title>10</title>
<ellipse fill="white" stroke="black" cx="354.26" cy="-102.19" rx="27" ry="22.06"/>
<text text-anchor="middle" x="354.26" y="-97.99" font-family="Arial" font-size="14.00">sub</text>
</g>
<!-- 9&#45;&gt;10 -->
<g id="edge10" class="edge">
<title>9&#45;&gt;10</title>
<path fill="none" stroke="black" d="M354.26,-159.96C354.26,-152.55 354.26,-144.07 354.26,-135.96"/>
<polygon fill="black" stroke="black" points="357.76,-136.02 354.26,-126.02 350.76,-136.02 357.76,-136.02"/>
</g>
<!-- 13 -->
<g id="node14" class="node">
<title>13</title>
<ellipse fill="white" stroke="black" cx="454.26" cy="-102.19" rx="55.31" ry="22.06"/>
<text text-anchor="middle" x="454.26" y="-97.99" font-family="Arial" font-size="14.00">steepness</text>
</g>
<!-- 9&#45;&gt;13 -->
<g id="edge13" class="edge">
<title>9&#45;&gt;13</title>
<path fill="none" stroke="black" d="M373.54,-166.25C386.92,-155.79 405.09,-141.6 420.81,-129.32"/>
<polygon fill="black" stroke="black" points="422.8,-132.21 428.53,-123.29 418.49,-126.69 422.8,-132.21"/>
</g>
<!-- 11 -->
<g id="node12" class="node">
<title>11</title>
<ellipse fill="white" stroke="black" cx="326.26" cy="-22.06" rx="34.96" ry="22.06"/>
<text text-anchor="middle" x="326.26" y="-17.86" font-family="Arial" font-size="14.00">0.543</text>
</g>
<!-- 10&#45;&gt;11 -->
<g id="edge11" class="edge">
<title>10&#45;&gt;11</title>
<path fill="none" stroke="black" d="M346.9,-80.66C344.06,-72.71 340.73,-63.43 337.59,-54.67"/>
<polygon fill="black" stroke="black" points="340.94,-53.65 334.27,-45.42 334.35,-56.01 340.94,-53.65"/>
</g>
<!-- 12 -->
<g id="node13" class="node">
<title>12</title>
<ellipse fill="white" stroke="black" cx="439.26" cy="-22.06" rx="60.26" ry="22.06"/>
<text text-anchor="middle" x="439.26" y="-17.86" font-family="Arial" font-size="14.00">elevation_v</text>
</g>
<!-- 10&#45;&gt;12 -->
<g id="edge12" class="edge">
<title>10&#45;&gt;12</title>
<path fill="none" stroke="black" d="M371.87,-85C382.62,-75.12 396.64,-62.23 409.12,-50.77"/>
<polygon fill="black" stroke="black" points="411.33,-53.49 416.33,-44.14 406.6,-48.33 411.33,-53.49"/>
</g>
</g>
</svg>
