<?xml version="1.0" encoding="UTF-8" standalone="no"?>
<!DOCTYPE svg PUBLIC "-//W3C//DTD SVG 1.1//EN"
 "http://www.w3.org/Graphics/SVG/1.1/DTD/svg11.dtd">
<!-- Generated by graphviz version 12.2.1 (0)
 -->
<!-- Title: G Pages: 1 -->
<svg width="538pt" height="485pt"
 viewBox="36.00 36.00 502.36 449.42" xmlns="http://www.w3.org/2000/svg" xmlns:xlink="http://www.w3.org/1999/xlink">
<g id="graph0" class="graph" transform="scale(1 1) rotate(0) translate(40 445.42)">
<title>G</title>
<polygon fill="white" stroke="none" points="-4,4 -4,-409.42 462.36,-409.42 462.36,4 -4,4"/>
<text text-anchor="middle" x="229.18" y="-388.82" font-family="Times New Roman,serif" font-size="14.00">(&#39;best_5tree_2500pop_15gen_15runs_res200_15subrun&#39;, &#39;&#39;)</text>
<!-- 0 -->
<g id="node1" class="node">
<title>0</title>
<ellipse fill="white" stroke="black" cx="268.05" cy="-342.56" rx="27" ry="22.06"/>
<text text-anchor="middle" x="268.05" y="-338.36" font-family="Arial" font-size="14.00">mul</text>
</g>
<!-- 1 -->
<g id="node2" class="node">
<title>1</title>
<ellipse fill="white" stroke="black" cx="197.05" cy="-262.43" rx="63.57" ry="22.06"/>
<text text-anchor="middle" x="197.05" y="-258.23" font-family="Arial" font-size="14.00">if_then_else</text>
</g>
<!-- 0&#45;&gt;1 -->
<g id="edge1" class="edge">
<title>0&#45;&gt;1</title>
<path fill="none" stroke="black" d="M252.3,-324.22C243.72,-314.78 232.89,-302.87 223.1,-292.09"/>
<polygon fill="black" stroke="black" points="225.87,-289.93 216.55,-284.88 220.69,-294.64 225.87,-289.93"/>
</g>
<!-- 13 -->
<g id="node14" class="node">
<title>13</title>
<ellipse fill="white" stroke="black" cx="339.05" cy="-262.43" rx="60.26" ry="22.06"/>
<text text-anchor="middle" x="339.05" y="-258.23" font-family="Arial" font-size="14.00">elevation_v</text>
</g>
<!-- 0&#45;&gt;13 -->
<g id="edge13" class="edge">
<title>0&#45;&gt;13</title>
<path fill="none" stroke="black" d="M283.81,-324.22C292.39,-314.78 303.21,-302.87 313.01,-292.09"/>
<polygon fill="black" stroke="black" points="315.42,-294.64 319.56,-284.88 310.24,-289.93 315.42,-294.64"/>
</g>
<!-- 2 -->
<g id="node3" class="node">
<title>2</title>
<ellipse fill="white" stroke="black" cx="105.05" cy="-182.31" rx="47.04" ry="22.06"/>
<text text-anchor="middle" x="105.05" y="-178.11" font-family="Arial" font-size="14.00">is_water</text>
</g>
<!-- 1&#45;&gt;2 -->
<g id="edge2" class="edge">
<title>1&#45;&gt;2</title>
<path fill="none" stroke="black" d="M173.84,-241.72C162.36,-231.97 148.35,-220.07 135.97,-209.56"/>
<polygon fill="black" stroke="black" points="138.35,-206.99 128.46,-203.19 133.82,-212.33 138.35,-206.99"/>
</g>
<!-- 3 -->
<g id="node4" class="node">
<title>3</title>
<ellipse fill="white" stroke="black" cx="197.05" cy="-182.31" rx="27" ry="22.06"/>
<text text-anchor="middle" x="197.05" y="-178.11" font-family="Arial" font-size="14.00">add</text>
</g>
<!-- 1&#45;&gt;3 -->
<g id="edge3" class="edge">
<title>1&#45;&gt;3</title>
<path fill="none" stroke="black" d="M197.05,-240.08C197.05,-232.68 197.05,-224.19 197.05,-216.08"/>
<polygon fill="black" stroke="black" points="200.55,-216.14 197.05,-206.14 193.55,-216.14 200.55,-216.14"/>
</g>
<!-- 8 -->
<g id="node9" class="node">
<title>8</title>
<ellipse fill="white" stroke="black" cx="303.05" cy="-182.31" rx="27" ry="22.06"/>
<text text-anchor="middle" x="303.05" y="-178.11" font-family="Arial" font-size="14.00">sub</text>
</g>
<!-- 1&#45;&gt;8 -->
<g id="edge8" class="edge">
<title>1&#45;&gt;8</title>
<path fill="none" stroke="black" d="M223.53,-241.92C239.01,-230.51 258.56,-216.1 274.4,-204.43"/>
<polygon fill="black" stroke="black" points="276.05,-207.56 282.02,-198.81 271.89,-201.93 276.05,-207.56"/>
</g>
<!-- 4 -->
<g id="node5" class="node">
<title>4</title>
<ellipse fill="white" stroke="black" cx="91.05" cy="-102.19" rx="27" ry="22.06"/>
<text text-anchor="middle" x="91.05" y="-97.99" font-family="Arial" font-size="14.00">sub</text>
</g>
<!-- 3&#45;&gt;4 -->
<g id="edge4" class="edge">
<title>3&#45;&gt;4</title>
<path fill="none" stroke="black" d="M177.61,-166.98C161.43,-155.05 138.15,-137.89 119.81,-124.38"/>
<polygon fill="black" stroke="black" points="122.08,-121.7 111.95,-118.59 117.92,-127.34 122.08,-121.7"/>
</g>
<!-- 7 -->
<g id="node8" class="node">
<title>7</title>
<ellipse fill="white" stroke="black" cx="197.05" cy="-102.19" rx="60.82" ry="22.06"/>
<text text-anchor="middle" x="197.05" y="-97.99" font-family="Arial" font-size="14.00">elevation_u</text>
</g>
<!-- 3&#45;&gt;7 -->
<g id="edge7" class="edge">
<title>3&#45;&gt;7</title>
<path fill="none" stroke="black" d="M197.05,-159.96C197.05,-152.55 197.05,-144.07 197.05,-135.96"/>
<polygon fill="black" stroke="black" points="200.55,-136.02 197.05,-126.02 193.55,-136.02 200.55,-136.02"/>
</g>
<!-- 5 -->
<g id="node6" class="node">
<title>5</title>
<ellipse fill="white" stroke="black" cx="47.05" cy="-22.06" rx="47.05" ry="22.06"/>
<text text-anchor="middle" x="47.05" y="-17.86" font-family="Arial" font-size="14.00">distance</text>
</g>
<!-- 4&#45;&gt;5 -->
<g id="edge5" class="edge">
<title>4&#45;&gt;5</title>
<path fill="none" stroke="black" d="M80.18,-81.87C75.39,-73.38 69.66,-63.19 64.31,-53.7"/>
<polygon fill="black" stroke="black" points="67.43,-52.11 59.47,-45.11 61.33,-55.54 67.43,-52.11"/>
</g>
<!-- 6 -->
<g id="node7" class="node">
<title>6</title>
<ellipse fill="white" stroke="black" cx="147.05" cy="-22.06" rx="34.96" ry="22.06"/>
<text text-anchor="middle" x="147.05" y="-17.86" font-family="Arial" font-size="14.00">0.515</text>
</g>
<!-- 4&#45;&gt;6 -->
<g id="edge6" class="edge">
<title>4&#45;&gt;6</title>
<path fill="none" stroke="black" d="M104.33,-82.67C110.96,-73.41 119.14,-62 126.56,-51.65"/>
<polygon fill="black" stroke="black" points="129.23,-53.93 132.21,-43.76 123.54,-49.85 129.23,-53.93"/>
</g>
<!-- 9 -->
<g id="node10" class="node">
<title>9</title>
<ellipse fill="white" stroke="black" cx="303.05" cy="-102.19" rx="27" ry="22.06"/>
<text text-anchor="middle" x="303.05" y="-97.99" font-family="Arial" font-size="14.00">sub</text>
</g>
<!-- 8&#45;&gt;9 -->
<g id="edge9" class="edge">
<title>8&#45;&gt;9</title>
<path fill="none" stroke="black" d="M303.05,-159.96C303.05,-152.55 303.05,-144.07 303.05,-135.96"/>
<polygon fill="black" stroke="black" points="306.55,-136.02 303.05,-126.02 299.55,-136.02 306.55,-136.02"/>
</g>
<!-- 12 -->
<g id="node13" class="node">
<title>12</title>
<ellipse fill="white" stroke="black" cx="403.05" cy="-102.19" rx="55.31" ry="22.06"/>
<text text-anchor="middle" x="403.05" y="-97.99" font-family="Arial" font-size="14.00">steepness</text>
</g>
<!-- 8&#45;&gt;12 -->
<g id="edge12" class="edge">
<title>8&#45;&gt;12</title>
<path fill="none" stroke="black" d="M322.34,-166.25C335.71,-155.79 353.88,-141.6 369.6,-129.32"/>
<polygon fill="black" stroke="black" points="371.59,-132.21 377.32,-123.29 367.28,-126.69 371.59,-132.21"/>
</g>
<!-- 10 -->
<g id="node11" class="node">
<title>10</title>
<ellipse fill="white" stroke="black" cx="269.05" cy="-22.06" rx="34.96" ry="22.06"/>
<text text-anchor="middle" x="269.05" y="-17.86" font-family="Arial" font-size="14.00">0.543</text>
</g>
<!-- 9&#45;&gt;10 -->
<g id="edge10" class="edge">
<title>9&#45;&gt;10</title>
<path fill="none" stroke="black" d="M294.3,-81.07C290.71,-72.81 286.47,-63.07 282.5,-53.95"/>
<polygon fill="black" stroke="black" points="285.82,-52.82 278.62,-45.04 279.4,-55.61 285.82,-52.82"/>
</g>
<!-- 11 -->
<g id="node12" class="node">
<title>11</title>
<ellipse fill="white" stroke="black" cx="382.05" cy="-22.06" rx="60.26" ry="22.06"/>
<text text-anchor="middle" x="382.05" y="-17.86" font-family="Arial" font-size="14.00">elevation_v</text>
</g>
<!-- 9&#45;&gt;11 -->
<g id="edge11" class="edge">
<title>9&#45;&gt;11</title>
<path fill="none" stroke="black" d="M319.81,-84.62C329.65,-74.89 342.35,-62.33 353.7,-51.1"/>
<polygon fill="black" stroke="black" points="355.95,-53.8 360.6,-44.28 351.03,-48.82 355.95,-53.8"/>
</g>
</g>
</svg>
