<?xml version="1.0" encoding="UTF-8" standalone="no"?>
<!DOCTYPE svg PUBLIC "-//W3C//DTD SVG 1.1//EN"
 "http://www.w3.org/Graphics/SVG/1.1/DTD/svg11.dtd">
<!-- Generated by graphviz version 12.2.1 (0)
 -->
<!-- Title: G Pages: 1 -->
<svg width="520pt" height="485pt"
 viewBox="36.00 36.00 483.53 449.42" xmlns="http://www.w3.org/2000/svg" xmlns:xlink="http://www.w3.org/1999/xlink">
<g id="graph0" class="graph" transform="scale(1 1) rotate(0) translate(40 445.42)">
<title>G</title>
<polygon fill="white" stroke="none" points="-4,4 -4,-409.42 443.53,-409.42 443.53,4 -4,4"/>
<text text-anchor="middle" x="219.76" y="-388.82" font-family="Times New Roman,serif" font-size="14.00">(&#39;best_tree_2500pop_15gen_15runs_res200_2subrun&#39;, &#39;&#39;)</text>
<!-- 0 -->
<g id="node1" class="node">
<title>0</title>
<ellipse fill="white" stroke="black" cx="292.26" cy="-342.56" rx="27" ry="22.06"/>
<text text-anchor="middle" x="292.26" y="-338.36" font-family="Arial" font-size="14.00">mul</text>
</g>
<!-- 1 -->
<g id="node2" class="node">
<title>1</title>
<ellipse fill="white" stroke="black" cx="221.26" cy="-262.43" rx="63.57" ry="22.06"/>
<text text-anchor="middle" x="221.26" y="-258.23" font-family="Arial" font-size="14.00">if_then_else</text>
</g>
<!-- 0&#45;&gt;1 -->
<g id="edge1" class="edge">
<title>0&#45;&gt;1</title>
<path fill="none" stroke="black" d="M276.5,-324.22C267.93,-314.78 257.1,-302.87 247.31,-292.09"/>
<polygon fill="black" stroke="black" points="250.07,-289.93 240.76,-284.88 244.89,-294.64 250.07,-289.93"/>
</g>
<!-- 10 -->
<g id="node11" class="node">
<title>10</title>
<ellipse fill="white" stroke="black" cx="363.26" cy="-262.43" rx="60.26" ry="22.06"/>
<text text-anchor="middle" x="363.26" y="-258.23" font-family="Arial" font-size="14.00">elevation_v</text>
</g>
<!-- 0&#45;&gt;10 -->
<g id="edge10" class="edge">
<title>0&#45;&gt;10</title>
<path fill="none" stroke="black" d="M308.02,-324.22C316.59,-314.78 327.42,-302.87 337.21,-292.09"/>
<polygon fill="black" stroke="black" points="339.63,-294.64 343.77,-284.88 334.45,-289.93 339.63,-294.64"/>
</g>
<!-- 2 -->
<g id="node3" class="node">
<title>2</title>
<ellipse fill="white" stroke="black" cx="71.26" cy="-182.31" rx="71.26" ry="22.06"/>
<text text-anchor="middle" x="71.26" y="-178.11" font-family="Arial" font-size="14.00">identity_water</text>
</g>
<!-- 1&#45;&gt;2 -->
<g id="edge2" class="edge">
<title>1&#45;&gt;2</title>
<path fill="none" stroke="black" d="M186.85,-243.51C166.07,-232.69 139.35,-218.77 116.83,-207.04"/>
<polygon fill="black" stroke="black" points="118.65,-204.04 108.16,-202.53 115.41,-210.25 118.65,-204.04"/>
</g>
<!-- 4 -->
<g id="node5" class="node">
<title>4</title>
<ellipse fill="white" stroke="black" cx="221.26" cy="-182.31" rx="60.82" ry="22.06"/>
<text text-anchor="middle" x="221.26" y="-178.11" font-family="Arial" font-size="14.00">elevation_u</text>
</g>
<!-- 1&#45;&gt;4 -->
<g id="edge4" class="edge">
<title>1&#45;&gt;4</title>
<path fill="none" stroke="black" d="M221.26,-240.08C221.26,-232.68 221.26,-224.19 221.26,-216.08"/>
<polygon fill="black" stroke="black" points="224.76,-216.14 221.26,-206.14 217.76,-216.14 224.76,-216.14"/>
</g>
<!-- 5 -->
<g id="node6" class="node">
<title>5</title>
<ellipse fill="white" stroke="black" cx="327.26" cy="-182.31" rx="27" ry="22.06"/>
<text text-anchor="middle" x="327.26" y="-178.11" font-family="Arial" font-size="14.00">sub</text>
</g>
<!-- 1&#45;&gt;5 -->
<g id="edge5" class="edge">
<title>1&#45;&gt;5</title>
<path fill="none" stroke="black" d="M247.74,-241.92C263.22,-230.51 282.77,-216.1 298.61,-204.43"/>
<polygon fill="black" stroke="black" points="300.26,-207.56 306.23,-198.81 296.1,-201.93 300.26,-207.56"/>
</g>
<!-- 3 -->
<g id="node4" class="node">
<title>3</title>
<ellipse fill="white" stroke="black" cx="71.26" cy="-102.19" rx="47.04" ry="22.06"/>
<text text-anchor="middle" x="71.26" y="-97.99" font-family="Arial" font-size="14.00">is_water</text>
</g>
<!-- 2&#45;&gt;3 -->
<g id="edge3" class="edge">
<title>2&#45;&gt;3</title>
<path fill="none" stroke="black" d="M71.26,-159.96C71.26,-152.55 71.26,-144.07 71.26,-135.96"/>
<polygon fill="black" stroke="black" points="74.76,-136.02 71.26,-126.02 67.76,-136.02 74.76,-136.02"/>
</g>
<!-- 6 -->
<g id="node7" class="node">
<title>6</title>
<ellipse fill="white" stroke="black" cx="274.26" cy="-102.19" rx="27" ry="22.06"/>
<text text-anchor="middle" x="274.26" y="-97.99" font-family="Arial" font-size="14.00">sub</text>
</g>
<!-- 5&#45;&gt;6 -->
<g id="edge6" class="edge">
<title>5&#45;&gt;6</title>
<path fill="none" stroke="black" d="M314.43,-162.4C308.12,-153.09 300.38,-141.68 293.38,-131.37"/>
<polygon fill="black" stroke="black" points="296.33,-129.49 287.82,-123.18 290.54,-133.42 296.33,-129.49"/>
</g>
<!-- 9 -->
<g id="node10" class="node">
<title>9</title>
<ellipse fill="white" stroke="black" cx="379.26" cy="-102.19" rx="60.26" ry="22.06"/>
<text text-anchor="middle" x="379.26" y="-97.99" font-family="Arial" font-size="14.00">elevation_v</text>
</g>
<!-- 5&#45;&gt;9 -->
<g id="edge9" class="edge">
<title>5&#45;&gt;9</title>
<path fill="none" stroke="black" d="M339.85,-162.4C345.62,-153.73 352.61,-143.23 359.08,-133.5"/>
<polygon fill="black" stroke="black" points="361.86,-135.64 364.49,-125.38 356.03,-131.77 361.86,-135.64"/>
</g>
<!-- 7 -->
<g id="node8" class="node">
<title>7</title>
<ellipse fill="white" stroke="black" cx="214.26" cy="-22.06" rx="47.05" ry="22.06"/>
<text text-anchor="middle" x="214.26" y="-17.86" font-family="Arial" font-size="14.00">distance</text>
</g>
<!-- 6&#45;&gt;7 -->
<g id="edge7" class="edge">
<title>6&#45;&gt;7</title>
<path fill="none" stroke="black" d="M260.35,-83.07C253.35,-73.95 244.69,-62.69 236.78,-52.38"/>
<polygon fill="black" stroke="black" points="239.58,-50.28 230.71,-44.48 234.03,-54.55 239.58,-50.28"/>
</g>
<!-- 8 -->
<g id="node9" class="node">
<title>8</title>
<ellipse fill="white" stroke="black" cx="334.26" cy="-22.06" rx="55.31" ry="22.06"/>
<text text-anchor="middle" x="334.26" y="-17.86" font-family="Arial" font-size="14.00">steepness</text>
</g>
<!-- 6&#45;&gt;8 -->
<g id="edge8" class="edge">
<title>6&#45;&gt;8</title>
<path fill="none" stroke="black" d="M288.18,-83.07C295.12,-74.02 303.7,-62.86 311.56,-52.62"/>
<polygon fill="black" stroke="black" points="314.28,-54.83 317.59,-44.76 308.73,-50.56 314.28,-54.83"/>
</g>
</g>
</svg>
