<?xml version="1.0" encoding="UTF-8" standalone="no"?>
<!DOCTYPE svg PUBLIC "-//W3C//DTD SVG 1.1//EN"
 "http://www.w3.org/Graphics/SVG/1.1/DTD/svg11.dtd">
<!-- Generated by graphviz version 12.2.1 (0)
 -->
<!-- Title: G Pages: 1 -->
<svg width="578pt" height="485pt"
 viewBox="36.00 36.00 542.36 449.42" xmlns="http://www.w3.org/2000/svg" xmlns:xlink="http://www.w3.org/1999/xlink">
<g id="graph0" class="graph" transform="scale(1 1) rotate(0) translate(40 445.42)">
<title>G</title>
<polygon fill="white" stroke="none" points="-4,4 -4,-409.42 502.36,-409.42 502.36,4 -4,4"/>
<text text-anchor="middle" x="249.18" y="-388.82" font-family="Times New Roman,serif" font-size="14.00">(&#39;best_tree_2500pop_15gen_15runs_res200_9subrun&#39;, &#39;&#39;)</text>
<!-- 0 -->
<g id="node1" class="node">
<title>0</title>
<ellipse fill="white" stroke="black" cx="308.05" cy="-342.56" rx="27" ry="22.06"/>
<text text-anchor="middle" x="308.05" y="-338.36" font-family="Arial" font-size="14.00">mul</text>
</g>
<!-- 1 -->
<g id="node2" class="node">
<title>1</title>
<ellipse fill="white" stroke="black" cx="237.05" cy="-262.43" rx="63.57" ry="22.06"/>
<text text-anchor="middle" x="237.05" y="-258.23" font-family="Arial" font-size="14.00">if_then_else</text>
</g>
<!-- 0&#45;&gt;1 -->
<g id="edge1" class="edge">
<title>0&#45;&gt;1</title>
<path fill="none" stroke="black" d="M292.3,-324.22C283.72,-314.78 272.89,-302.87 263.1,-292.09"/>
<polygon fill="black" stroke="black" points="265.87,-289.93 256.55,-284.88 260.69,-294.64 265.87,-289.93"/>
</g>
<!-- 13 -->
<g id="node14" class="node">
<title>13</title>
<ellipse fill="white" stroke="black" cx="379.05" cy="-262.43" rx="60.26" ry="22.06"/>
<text text-anchor="middle" x="379.05" y="-258.23" font-family="Arial" font-size="14.00">elevation_v</text>
</g>
<!-- 0&#45;&gt;13 -->
<g id="edge13" class="edge">
<title>0&#45;&gt;13</title>
<path fill="none" stroke="black" d="M323.81,-324.22C332.39,-314.78 343.21,-302.87 353.01,-292.09"/>
<polygon fill="black" stroke="black" points="355.42,-294.64 359.56,-284.88 350.24,-289.93 355.42,-294.64"/>
</g>
<!-- 2 -->
<g id="node3" class="node">
<title>2</title>
<ellipse fill="white" stroke="black" cx="145.05" cy="-182.31" rx="47.04" ry="22.06"/>
<text text-anchor="middle" x="145.05" y="-178.11" font-family="Arial" font-size="14.00">is_water</text>
</g>
<!-- 1&#45;&gt;2 -->
<g id="edge2" class="edge">
<title>1&#45;&gt;2</title>
<path fill="none" stroke="black" d="M213.84,-241.72C202.36,-231.97 188.35,-220.07 175.97,-209.56"/>
<polygon fill="black" stroke="black" points="178.35,-206.99 168.46,-203.19 173.82,-212.33 178.35,-206.99"/>
</g>
<!-- 3 -->
<g id="node4" class="node">
<title>3</title>
<ellipse fill="white" stroke="black" cx="237.05" cy="-182.31" rx="27" ry="22.06"/>
<text text-anchor="middle" x="237.05" y="-178.11" font-family="Arial" font-size="14.00">add</text>
</g>
<!-- 1&#45;&gt;3 -->
<g id="edge3" class="edge">
<title>1&#45;&gt;3</title>
<path fill="none" stroke="black" d="M237.05,-240.08C237.05,-232.68 237.05,-224.19 237.05,-216.08"/>
<polygon fill="black" stroke="black" points="240.55,-216.14 237.05,-206.14 233.55,-216.14 240.55,-216.14"/>
</g>
<!-- 8 -->
<g id="node9" class="node">
<title>8</title>
<ellipse fill="white" stroke="black" cx="343.05" cy="-182.31" rx="27" ry="22.06"/>
<text text-anchor="middle" x="343.05" y="-178.11" font-family="Arial" font-size="14.00">sub</text>
</g>
<!-- 1&#45;&gt;8 -->
<g id="edge8" class="edge">
<title>1&#45;&gt;8</title>
<path fill="none" stroke="black" d="M263.53,-241.92C279.01,-230.51 298.56,-216.1 314.4,-204.43"/>
<polygon fill="black" stroke="black" points="316.05,-207.56 322.02,-198.81 311.89,-201.93 316.05,-207.56"/>
</g>
<!-- 4 -->
<g id="node5" class="node">
<title>4</title>
<ellipse fill="white" stroke="black" cx="131.05" cy="-102.19" rx="27" ry="22.06"/>
<text text-anchor="middle" x="131.05" y="-97.99" font-family="Arial" font-size="14.00">sub</text>
</g>
<!-- 3&#45;&gt;4 -->
<g id="edge4" class="edge">
<title>3&#45;&gt;4</title>
<path fill="none" stroke="black" d="M217.61,-166.98C201.43,-155.05 178.15,-137.89 159.81,-124.38"/>
<polygon fill="black" stroke="black" points="162.08,-121.7 151.95,-118.59 157.92,-127.34 162.08,-121.7"/>
</g>
<!-- 7 -->
<g id="node8" class="node">
<title>7</title>
<ellipse fill="white" stroke="black" cx="237.05" cy="-102.19" rx="60.82" ry="22.06"/>
<text text-anchor="middle" x="237.05" y="-97.99" font-family="Arial" font-size="14.00">elevation_u</text>
</g>
<!-- 3&#45;&gt;7 -->
<g id="edge7" class="edge">
<title>3&#45;&gt;7</title>
<path fill="none" stroke="black" d="M237.05,-159.96C237.05,-152.55 237.05,-144.07 237.05,-135.96"/>
<polygon fill="black" stroke="black" points="240.55,-136.02 237.05,-126.02 233.55,-136.02 240.55,-136.02"/>
</g>
<!-- 5 -->
<g id="node6" class="node">
<title>5</title>
<ellipse fill="white" stroke="black" cx="47.05" cy="-22.06" rx="47.05" ry="22.06"/>
<text text-anchor="middle" x="47.05" y="-17.86" font-family="Arial" font-size="14.00">distance</text>
</g>
<!-- 4&#45;&gt;5 -->
<g id="edge5" class="edge">
<title>4&#45;&gt;5</title>
<path fill="none" stroke="black" d="M113.65,-85C102.79,-74.9 88.56,-61.66 76.03,-50.01"/>
<polygon fill="black" stroke="black" points="78.51,-47.54 68.81,-43.29 73.75,-52.67 78.51,-47.54"/>
</g>
<!-- 6 -->
<g id="node7" class="node">
<title>6</title>
<ellipse fill="white" stroke="black" cx="159.05" cy="-22.06" rx="47.05" ry="22.06"/>
<text text-anchor="middle" x="159.05" y="-17.86" font-family="Arial" font-size="14.00">distance</text>
</g>
<!-- 4&#45;&gt;6 -->
<g id="edge6" class="edge">
<title>4&#45;&gt;6</title>
<path fill="none" stroke="black" d="M138.41,-80.66C141.24,-72.78 144.53,-63.58 147.65,-54.88"/>
<polygon fill="black" stroke="black" points="150.86,-56.29 150.94,-45.69 144.27,-53.93 150.86,-56.29"/>
</g>
<!-- 9 -->
<g id="node10" class="node">
<title>9</title>
<ellipse fill="white" stroke="black" cx="343.05" cy="-102.19" rx="27" ry="22.06"/>
<text text-anchor="middle" x="343.05" y="-97.99" font-family="Arial" font-size="14.00">sub</text>
</g>
<!-- 8&#45;&gt;9 -->
<g id="edge9" class="edge">
<title>8&#45;&gt;9</title>
<path fill="none" stroke="black" d="M343.05,-159.96C343.05,-152.55 343.05,-144.07 343.05,-135.96"/>
<polygon fill="black" stroke="black" points="346.55,-136.02 343.05,-126.02 339.55,-136.02 346.55,-136.02"/>
</g>
<!-- 12 -->
<g id="node13" class="node">
<title>12</title>
<ellipse fill="white" stroke="black" cx="443.05" cy="-102.19" rx="55.31" ry="22.06"/>
<text text-anchor="middle" x="443.05" y="-97.99" font-family="Arial" font-size="14.00">steepness</text>
</g>
<!-- 8&#45;&gt;12 -->
<g id="edge12" class="edge">
<title>8&#45;&gt;12</title>
<path fill="none" stroke="black" d="M362.34,-166.25C375.71,-155.79 393.88,-141.6 409.6,-129.32"/>
<polygon fill="black" stroke="black" points="411.59,-132.21 417.32,-123.29 407.28,-126.69 411.59,-132.21"/>
</g>
<!-- 10 -->
<g id="node11" class="node">
<title>10</title>
<ellipse fill="white" stroke="black" cx="315.05" cy="-22.06" rx="34.96" ry="22.06"/>
<text text-anchor="middle" x="315.05" y="-17.86" font-family="Arial" font-size="14.00">0.565</text>
</g>
<!-- 9&#45;&gt;10 -->
<g id="edge10" class="edge">
<title>9&#45;&gt;10</title>
<path fill="none" stroke="black" d="M335.7,-80.66C332.85,-72.71 329.52,-63.43 326.38,-54.67"/>
<polygon fill="black" stroke="black" points="329.74,-53.65 323.07,-45.42 323.15,-56.01 329.74,-53.65"/>
</g>
<!-- 11 -->
<g id="node12" class="node">
<title>11</title>
<ellipse fill="white" stroke="black" cx="429.05" cy="-22.06" rx="60.82" ry="22.06"/>
<text text-anchor="middle" x="429.05" y="-17.86" font-family="Arial" font-size="14.00">elevation_u</text>
</g>
<!-- 9&#45;&gt;11 -->
<g id="edge11" class="edge">
<title>9&#45;&gt;11</title>
<path fill="none" stroke="black" d="M360.46,-85.38C371.49,-75.35 386.05,-62.12 398.93,-50.43"/>
<polygon fill="black" stroke="black" points="400.92,-53.35 405.96,-44.04 396.21,-48.17 400.92,-53.35"/>
</g>
</g>
</svg>
