<?xml version="1.0" encoding="UTF-8" standalone="no"?>
<!DOCTYPE svg PUBLIC "-//W3C//DTD SVG 1.1//EN"
 "http://www.w3.org/Graphics/SVG/1.1/DTD/svg11.dtd">
<!-- Generated by graphviz version 12.2.1 (0)
 -->
<!-- Title: G Pages: 1 -->
<svg width="592pt" height="485pt"
 viewBox="36.00 36.00 556.00 449.42" xmlns="http://www.w3.org/2000/svg" xmlns:xlink="http://www.w3.org/1999/xlink">
<g id="graph0" class="graph" transform="scale(1 1) rotate(0) translate(40 445.42)">
<title>G</title>
<polygon fill="white" stroke="none" points="-4,4 -4,-409.42 516,-409.42 516,4 -4,4"/>
<text text-anchor="middle" x="256" y="-388.82" font-family="Times New Roman,serif" font-size="14.00">(&#39;best_4tree_5000pop_15gen_25runs_res200_25subrun&#39;, &#39;&#39;)</text>
<!-- 0 -->
<g id="node1" class="node">
<title>0</title>
<ellipse fill="white" stroke="black" cx="239.04" cy="-342.56" rx="27" ry="22.06"/>
<text text-anchor="middle" x="239.04" y="-338.36" font-family="Arial" font-size="14.00">add</text>
</g>
<!-- 1 -->
<g id="node2" class="node">
<title>1</title>
<ellipse fill="white" stroke="black" cx="185.04" cy="-262.43" rx="63.57" ry="22.06"/>
<text text-anchor="middle" x="185.04" y="-258.23" font-family="Arial" font-size="14.00">if_then_else</text>
</g>
<!-- 0&#45;&gt;1 -->
<g id="edge1" class="edge">
<title>0&#45;&gt;1</title>
<path fill="none" stroke="black" d="M226.25,-323.04C220.15,-314.22 212.7,-303.44 205.82,-293.49"/>
<polygon fill="black" stroke="black" points="208.89,-291.77 200.32,-285.54 203.13,-295.75 208.89,-291.77"/>
</g>
<!-- 7 -->
<g id="node8" class="node">
<title>7</title>
<ellipse fill="white" stroke="black" cx="332.04" cy="-262.43" rx="27" ry="22.06"/>
<text text-anchor="middle" x="332.04" y="-258.23" font-family="Arial" font-size="14.00">sub</text>
</g>
<!-- 0&#45;&gt;7 -->
<g id="edge7" class="edge">
<title>0&#45;&gt;7</title>
<path fill="none" stroke="black" d="M257.42,-326.12C271.05,-314.67 289.84,-298.88 305.16,-286.02"/>
<polygon fill="black" stroke="black" points="307.14,-288.92 312.55,-279.81 302.64,-283.56 307.14,-288.92"/>
</g>
<!-- 2 -->
<g id="node3" class="node">
<title>2</title>
<ellipse fill="white" stroke="black" cx="47.04" cy="-182.31" rx="47.04" ry="22.06"/>
<text text-anchor="middle" x="47.04" y="-178.11" font-family="Arial" font-size="14.00">is_water</text>
</g>
<!-- 1&#45;&gt;2 -->
<g id="edge2" class="edge">
<title>1&#45;&gt;2</title>
<path fill="none" stroke="black" d="M152.69,-243.12C132.84,-231.88 107.28,-217.41 86.28,-205.52"/>
<polygon fill="black" stroke="black" points="88.12,-202.54 77.69,-200.66 84.67,-208.63 88.12,-202.54"/>
</g>
<!-- 3 -->
<g id="node4" class="node">
<title>3</title>
<ellipse fill="white" stroke="black" cx="147.04" cy="-182.31" rx="34.96" ry="22.06"/>
<text text-anchor="middle" x="147.04" y="-178.11" font-family="Arial" font-size="14.00">9.636</text>
</g>
<!-- 1&#45;&gt;3 -->
<g id="edge3" class="edge">
<title>1&#45;&gt;3</title>
<path fill="none" stroke="black" d="M174.86,-240.5C170.88,-232.31 166.23,-222.76 161.89,-213.83"/>
<polygon fill="black" stroke="black" points="165.18,-212.58 157.65,-205.12 158.88,-215.65 165.18,-212.58"/>
</g>
<!-- 4 -->
<g id="node5" class="node">
<title>4</title>
<ellipse fill="white" stroke="black" cx="227.04" cy="-182.31" rx="27" ry="22.06"/>
<text text-anchor="middle" x="227.04" y="-178.11" font-family="Arial" font-size="14.00">add</text>
</g>
<!-- 1&#45;&gt;4 -->
<g id="edge4" class="edge">
<title>1&#45;&gt;4</title>
<path fill="none" stroke="black" d="M196.3,-240.5C200.85,-232.02 206.2,-222.09 211.14,-212.9"/>
<polygon fill="black" stroke="black" points="214.11,-214.76 215.76,-204.29 207.95,-211.44 214.11,-214.76"/>
</g>
<!-- 5 -->
<g id="node6" class="node">
<title>5</title>
<ellipse fill="white" stroke="black" cx="100.04" cy="-102.19" rx="60.82" ry="22.06"/>
<text text-anchor="middle" x="100.04" y="-97.99" font-family="Arial" font-size="14.00">elevation_u</text>
</g>
<!-- 4&#45;&gt;5 -->
<g id="edge5" class="edge">
<title>4&#45;&gt;5</title>
<path fill="none" stroke="black" d="M205.79,-168.23C187.78,-157.16 161.49,-140.98 139.63,-127.53"/>
<polygon fill="black" stroke="black" points="141.58,-124.63 131.23,-122.37 137.91,-130.59 141.58,-124.63"/>
</g>
<!-- 6 -->
<g id="node7" class="node">
<title>6</title>
<ellipse fill="white" stroke="black" cx="239.04" cy="-102.19" rx="60.26" ry="22.06"/>
<text text-anchor="middle" x="239.04" y="-97.99" font-family="Arial" font-size="14.00">elevation_v</text>
</g>
<!-- 4&#45;&gt;6 -->
<g id="edge6" class="edge">
<title>4&#45;&gt;6</title>
<path fill="none" stroke="black" d="M230.32,-159.96C231.47,-152.47 232.79,-143.87 234.05,-135.68"/>
<polygon fill="black" stroke="black" points="237.48,-136.42 235.54,-126 230.56,-135.36 237.48,-136.42"/>
</g>
<!-- 8 -->
<g id="node9" class="node">
<title>8</title>
<ellipse fill="white" stroke="black" cx="332.04" cy="-182.31" rx="60.26" ry="22.06"/>
<text text-anchor="middle" x="332.04" y="-178.11" font-family="Arial" font-size="14.00">elevation_v</text>
</g>
<!-- 7&#45;&gt;8 -->
<g id="edge8" class="edge">
<title>7&#45;&gt;8</title>
<path fill="none" stroke="black" d="M332.04,-240.08C332.04,-232.68 332.04,-224.19 332.04,-216.08"/>
<polygon fill="black" stroke="black" points="335.54,-216.14 332.04,-206.14 328.54,-216.14 335.54,-216.14"/>
</g>
<!-- 9 -->
<g id="node10" class="node">
<title>9</title>
<ellipse fill="white" stroke="black" cx="437.04" cy="-182.31" rx="27" ry="22.06"/>
<text text-anchor="middle" x="437.04" y="-178.11" font-family="Arial" font-size="14.00">mul</text>
</g>
<!-- 7&#45;&gt;9 -->
<g id="edge9" class="edge">
<title>7&#45;&gt;9</title>
<path fill="none" stroke="black" d="M351.79,-246.74C367.78,-234.84 390.51,-217.93 408.48,-204.56"/>
<polygon fill="black" stroke="black" points="410.24,-207.62 416.17,-198.84 406.06,-202 410.24,-207.62"/>
</g>
<!-- 10 -->
<g id="node11" class="node">
<title>10</title>
<ellipse fill="white" stroke="black" cx="397.04" cy="-102.19" rx="27" ry="22.06"/>
<text text-anchor="middle" x="397.04" y="-97.99" font-family="Arial" font-size="14.00">add</text>
</g>
<!-- 9&#45;&gt;10 -->
<g id="edge10" class="edge">
<title>9&#45;&gt;10</title>
<path fill="none" stroke="black" d="M426.95,-161.59C422.5,-152.9 417.17,-142.49 412.25,-132.88"/>
<polygon fill="black" stroke="black" points="415.5,-131.55 407.82,-124.24 409.27,-134.74 415.5,-131.55"/>
</g>
<!-- 13 -->
<g id="node14" class="node">
<title>13</title>
<ellipse fill="white" stroke="black" cx="477.04" cy="-102.19" rx="34.96" ry="22.06"/>
<text text-anchor="middle" x="477.04" y="-97.99" font-family="Arial" font-size="14.00">0.874</text>
</g>
<!-- 9&#45;&gt;13 -->
<g id="edge13" class="edge">
<title>9&#45;&gt;13</title>
<path fill="none" stroke="black" d="M447.14,-161.59C451.44,-153.19 456.57,-143.18 461.35,-133.84"/>
<polygon fill="black" stroke="black" points="464.4,-135.55 465.85,-125.06 458.17,-132.36 464.4,-135.55"/>
</g>
<!-- 11 -->
<g id="node12" class="node">
<title>11</title>
<ellipse fill="white" stroke="black" cx="337.04" cy="-22.06" rx="55.31" ry="22.06"/>
<text text-anchor="middle" x="337.04" y="-17.86" font-family="Arial" font-size="14.00">steepness</text>
</g>
<!-- 10&#45;&gt;11 -->
<g id="edge11" class="edge">
<title>10&#45;&gt;11</title>
<path fill="none" stroke="black" d="M383.13,-83.07C376.18,-74.02 367.61,-62.86 359.74,-52.62"/>
<polygon fill="black" stroke="black" points="362.58,-50.56 353.71,-44.76 357.03,-54.83 362.58,-50.56"/>
</g>
<!-- 12 -->
<g id="node13" class="node">
<title>12</title>
<ellipse fill="white" stroke="black" cx="457.04" cy="-22.06" rx="47.05" ry="22.06"/>
<text text-anchor="middle" x="457.04" y="-17.86" font-family="Arial" font-size="14.00">distance</text>
</g>
<!-- 10&#45;&gt;12 -->
<g id="edge12" class="edge">
<title>10&#45;&gt;12</title>
<path fill="none" stroke="black" d="M410.96,-83.07C417.96,-73.95 426.61,-62.69 434.53,-52.38"/>
<polygon fill="black" stroke="black" points="437.28,-54.55 440.59,-44.48 431.73,-50.28 437.28,-54.55"/>
</g>
</g>
</svg>
