<?xml version="1.0" encoding="UTF-8" standalone="no"?>
<!DOCTYPE svg PUBLIC "-//W3C//DTD SVG 1.1//EN"
 "http://www.w3.org/Graphics/SVG/1.1/DTD/svg11.dtd">
<!-- Generated by graphviz version 12.2.1 (0)
 -->
<!-- Title: G Pages: 1 -->
<svg width="742pt" height="485pt"
 viewBox="36.00 36.00 706.32 449.42" xmlns="http://www.w3.org/2000/svg" xmlns:xlink="http://www.w3.org/1999/xlink">
<g id="graph0" class="graph" transform="scale(1 1) rotate(0) translate(40 445.42)">
<title>G</title>
<polygon fill="white" stroke="none" points="-4,4 -4,-409.42 666.32,-409.42 666.32,4 -4,4"/>
<text text-anchor="middle" x="331.16" y="-388.82" font-family="Times New Roman,serif" font-size="14.00">(&#39;best_tree_5000pop_15gen_25runs_res200_1subrun&#39;, &#39;&#39;)</text>
<!-- 0 -->
<g id="node1" class="node">
<title>0</title>
<ellipse fill="white" stroke="black" cx="304.26" cy="-342.56" rx="27" ry="22.06"/>
<text text-anchor="middle" x="304.26" y="-338.36" font-family="Arial" font-size="14.00">add</text>
</g>
<!-- 1 -->
<g id="node2" class="node">
<title>1</title>
<ellipse fill="white" stroke="black" cx="250.26" cy="-262.43" rx="63.57" ry="22.06"/>
<text text-anchor="middle" x="250.26" y="-258.23" font-family="Arial" font-size="14.00">if_then_else</text>
</g>
<!-- 0&#45;&gt;1 -->
<g id="edge1" class="edge">
<title>0&#45;&gt;1</title>
<path fill="none" stroke="black" d="M291.46,-323.04C285.37,-314.22 277.92,-303.44 271.04,-293.49"/>
<polygon fill="black" stroke="black" points="274.11,-291.77 265.54,-285.54 268.35,-295.75 274.11,-291.77"/>
</g>
<!-- 9 -->
<g id="node10" class="node">
<title>9</title>
<ellipse fill="white" stroke="black" cx="396.26" cy="-262.43" rx="27" ry="22.06"/>
<text text-anchor="middle" x="396.26" y="-258.23" font-family="Arial" font-size="14.00">sub</text>
</g>
<!-- 0&#45;&gt;9 -->
<g id="edge9" class="edge">
<title>0&#45;&gt;9</title>
<path fill="none" stroke="black" d="M322.44,-326.12C335.83,-314.75 354.27,-299.09 369.37,-286.27"/>
<polygon fill="black" stroke="black" points="371.3,-289.22 376.65,-280.08 366.77,-283.89 371.3,-289.22"/>
</g>
<!-- 2 -->
<g id="node3" class="node">
<title>2</title>
<ellipse fill="white" stroke="black" cx="72.26" cy="-182.31" rx="71.26" ry="22.06"/>
<text text-anchor="middle" x="72.26" y="-178.11" font-family="Arial" font-size="14.00">identity_water</text>
</g>
<!-- 1&#45;&gt;2 -->
<g id="edge2" class="edge">
<title>1&#45;&gt;2</title>
<path fill="none" stroke="black" d="M211.64,-244.48C185.62,-233.06 151.03,-217.88 122.82,-205.5"/>
<polygon fill="black" stroke="black" points="124.3,-202.33 113.74,-201.51 121.49,-208.74 124.3,-202.33"/>
</g>
<!-- 5 -->
<g id="node6" class="node">
<title>5</title>
<ellipse fill="white" stroke="black" cx="211.26" cy="-182.31" rx="47.05" ry="22.06"/>
<text text-anchor="middle" x="211.26" y="-178.11" font-family="Arial" font-size="14.00">distance</text>
</g>
<!-- 1&#45;&gt;5 -->
<g id="edge5" class="edge">
<title>1&#45;&gt;5</title>
<path fill="none" stroke="black" d="M239.81,-240.5C235.83,-232.53 231.21,-223.27 226.86,-214.55"/>
<polygon fill="black" stroke="black" points="230.02,-213.04 222.42,-205.66 223.75,-216.17 230.02,-213.04"/>
</g>
<!-- 6 -->
<g id="node7" class="node">
<title>6</title>
<ellipse fill="white" stroke="black" cx="303.26" cy="-182.31" rx="27" ry="22.06"/>
<text text-anchor="middle" x="303.26" y="-178.11" font-family="Arial" font-size="14.00">add</text>
</g>
<!-- 1&#45;&gt;6 -->
<g id="edge6" class="edge">
<title>1&#45;&gt;6</title>
<path fill="none" stroke="black" d="M264.46,-240.5C270.47,-231.64 277.56,-221.19 284.03,-211.66"/>
<polygon fill="black" stroke="black" points="286.9,-213.66 289.62,-203.42 281.11,-209.73 286.9,-213.66"/>
</g>
<!-- 3 -->
<g id="node4" class="node">
<title>3</title>
<ellipse fill="white" stroke="black" cx="71.26" cy="-102.19" rx="71.26" ry="22.06"/>
<text text-anchor="middle" x="71.26" y="-97.99" font-family="Arial" font-size="14.00">identity_water</text>
</g>
<!-- 2&#45;&gt;3 -->
<g id="edge3" class="edge">
<title>2&#45;&gt;3</title>
<path fill="none" stroke="black" d="M71.99,-159.96C71.89,-152.55 71.78,-144.07 71.68,-135.96"/>
<polygon fill="black" stroke="black" points="75.18,-135.97 71.55,-126.02 68.18,-136.06 75.18,-135.97"/>
</g>
<!-- 4 -->
<g id="node5" class="node">
<title>4</title>
<ellipse fill="white" stroke="black" cx="71.26" cy="-22.06" rx="47.04" ry="22.06"/>
<text text-anchor="middle" x="71.26" y="-17.86" font-family="Arial" font-size="14.00">is_water</text>
</g>
<!-- 3&#45;&gt;4 -->
<g id="edge4" class="edge">
<title>3&#45;&gt;4</title>
<path fill="none" stroke="black" d="M71.26,-79.84C71.26,-72.43 71.26,-63.95 71.26,-55.83"/>
<polygon fill="black" stroke="black" points="74.76,-55.9 71.26,-45.9 67.76,-55.9 74.76,-55.9"/>
</g>
<!-- 7 -->
<g id="node8" class="node">
<title>7</title>
<ellipse fill="white" stroke="black" cx="221.26" cy="-102.19" rx="60.26" ry="22.06"/>
<text text-anchor="middle" x="221.26" y="-97.99" font-family="Arial" font-size="14.00">elevation_v</text>
</g>
<!-- 6&#45;&gt;7 -->
<g id="edge7" class="edge">
<title>6&#45;&gt;7</title>
<path fill="none" stroke="black" d="M286.27,-165.12C275.9,-155.24 262.37,-142.35 250.34,-130.89"/>
<polygon fill="black" stroke="black" points="253.06,-128.65 243.41,-124.28 248.23,-133.72 253.06,-128.65"/>
</g>
<!-- 8 -->
<g id="node9" class="node">
<title>8</title>
<ellipse fill="white" stroke="black" cx="355.26" cy="-102.19" rx="55.31" ry="22.06"/>
<text text-anchor="middle" x="355.26" y="-97.99" font-family="Arial" font-size="14.00">steepness</text>
</g>
<!-- 6&#45;&gt;8 -->
<g id="edge8" class="edge">
<title>6&#45;&gt;8</title>
<path fill="none" stroke="black" d="M315.85,-162.4C321.67,-153.66 328.71,-143.07 335.23,-133.27"/>
<polygon fill="black" stroke="black" points="338.05,-135.37 340.67,-125.1 332.22,-131.49 338.05,-135.37"/>
</g>
<!-- 10 -->
<g id="node11" class="node">
<title>10</title>
<ellipse fill="white" stroke="black" cx="396.26" cy="-182.31" rx="47.05" ry="22.06"/>
<text text-anchor="middle" x="396.26" y="-178.11" font-family="Arial" font-size="14.00">distance</text>
</g>
<!-- 9&#45;&gt;10 -->
<g id="edge10" class="edge">
<title>9&#45;&gt;10</title>
<path fill="none" stroke="black" d="M396.26,-240.08C396.26,-232.68 396.26,-224.19 396.26,-216.08"/>
<polygon fill="black" stroke="black" points="399.76,-216.14 396.26,-206.14 392.76,-216.14 399.76,-216.14"/>
</g>
<!-- 11 -->
<g id="node12" class="node">
<title>11</title>
<ellipse fill="white" stroke="black" cx="489.26" cy="-182.31" rx="27" ry="22.06"/>
<text text-anchor="middle" x="489.26" y="-178.11" font-family="Arial" font-size="14.00">mul</text>
</g>
<!-- 9&#45;&gt;11 -->
<g id="edge11" class="edge">
<title>9&#45;&gt;11</title>
<path fill="none" stroke="black" d="M414.64,-246C428.26,-234.55 447.06,-218.76 462.37,-205.89"/>
<polygon fill="black" stroke="black" points="464.36,-208.8 469.77,-199.68 459.86,-203.44 464.36,-208.8"/>
</g>
<!-- 12 -->
<g id="node13" class="node">
<title>12</title>
<ellipse fill="white" stroke="black" cx="489.26" cy="-102.19" rx="60.82" ry="22.06"/>
<text text-anchor="middle" x="489.26" y="-97.99" font-family="Arial" font-size="14.00">elevation_u</text>
</g>
<!-- 11&#45;&gt;12 -->
<g id="edge12" class="edge">
<title>11&#45;&gt;12</title>
<path fill="none" stroke="black" d="M489.26,-159.96C489.26,-152.55 489.26,-144.07 489.26,-135.96"/>
<polygon fill="black" stroke="black" points="492.76,-136.02 489.26,-126.02 485.76,-136.02 492.76,-136.02"/>
</g>
<!-- 13 -->
<g id="node14" class="node">
<title>13</title>
<ellipse fill="white" stroke="black" cx="615.26" cy="-102.19" rx="47.05" ry="22.06"/>
<text text-anchor="middle" x="615.26" y="-97.99" font-family="Arial" font-size="14.00">distance</text>
</g>
<!-- 11&#45;&gt;13 -->
<g id="edge13" class="edge">
<title>11&#45;&gt;13</title>
<path fill="none" stroke="black" d="M510.35,-168.23C528.7,-156.86 555.72,-140.1 577.75,-126.44"/>
<polygon fill="black" stroke="black" points="579.53,-129.46 586.18,-121.21 575.84,-123.51 579.53,-129.46"/>
</g>
</g>
</svg>
