<?xml version="1.0" encoding="UTF-8" standalone="no"?>
<!DOCTYPE svg PUBLIC "-//W3C//DTD SVG 1.1//EN"
 "http://www.w3.org/Graphics/SVG/1.1/DTD/svg11.dtd">
<!-- Generated by graphviz version 12.2.1 (0)
 -->
<!-- Title: G Pages: 1 -->
<svg width="644pt" height="485pt"
 viewBox="36.00 36.00 608.00 449.42" xmlns="http://www.w3.org/2000/svg" xmlns:xlink="http://www.w3.org/1999/xlink">
<g id="graph0" class="graph" transform="scale(1 1) rotate(0) translate(40 445.42)">
<title>G</title>
<polygon fill="white" stroke="none" points="-4,4 -4,-409.42 568,-409.42 568,4 -4,4"/>
<text text-anchor="middle" x="282" y="-388.82" font-family="Times New Roman,serif" font-size="14.00">(&#39;best_tree_5000pop_15gen_25runs_res200_18subrun&#39;, &#39;&#39;)</text>
<!-- 0 -->
<g id="node1" class="node">
<title>0</title>
<ellipse fill="white" stroke="black" cx="278.04" cy="-342.56" rx="27" ry="22.06"/>
<text text-anchor="middle" x="278.04" y="-338.36" font-family="Arial" font-size="14.00">add</text>
</g>
<!-- 1 -->
<g id="node2" class="node">
<title>1</title>
<ellipse fill="white" stroke="black" cx="224.04" cy="-262.43" rx="63.57" ry="22.06"/>
<text text-anchor="middle" x="224.04" y="-258.23" font-family="Arial" font-size="14.00">if_then_else</text>
</g>
<!-- 0&#45;&gt;1 -->
<g id="edge1" class="edge">
<title>0&#45;&gt;1</title>
<path fill="none" stroke="black" d="M265.25,-323.04C259.15,-314.22 251.7,-303.44 244.82,-293.49"/>
<polygon fill="black" stroke="black" points="247.89,-291.77 239.32,-285.54 242.13,-295.75 247.89,-291.77"/>
</g>
<!-- 7 -->
<g id="node8" class="node">
<title>7</title>
<ellipse fill="white" stroke="black" cx="384.04" cy="-262.43" rx="27" ry="22.06"/>
<text text-anchor="middle" x="384.04" y="-258.23" font-family="Arial" font-size="14.00">sub</text>
</g>
<!-- 0&#45;&gt;7 -->
<g id="edge7" class="edge">
<title>0&#45;&gt;7</title>
<path fill="none" stroke="black" d="M297.49,-327.23C313.67,-315.3 336.95,-298.14 355.29,-284.62"/>
<polygon fill="black" stroke="black" points="357.17,-287.58 363.15,-278.83 353.02,-281.95 357.17,-287.58"/>
</g>
<!-- 2 -->
<g id="node3" class="node">
<title>2</title>
<ellipse fill="white" stroke="black" cx="47.04" cy="-182.31" rx="47.04" ry="22.06"/>
<text text-anchor="middle" x="47.04" y="-178.11" font-family="Arial" font-size="14.00">is_water</text>
</g>
<!-- 1&#45;&gt;2 -->
<g id="edge2" class="edge">
<title>1&#45;&gt;2</title>
<path fill="none" stroke="black" d="M185.64,-244.48C157.75,-232.17 119.96,-215.49 90.89,-202.66"/>
<polygon fill="black" stroke="black" points="92.55,-199.57 81.99,-198.73 89.72,-205.97 92.55,-199.57"/>
</g>
<!-- 3 -->
<g id="node4" class="node">
<title>3</title>
<ellipse fill="white" stroke="black" cx="173.04" cy="-182.31" rx="60.82" ry="22.06"/>
<text text-anchor="middle" x="173.04" y="-178.11" font-family="Arial" font-size="14.00">elevation_u</text>
</g>
<!-- 1&#45;&gt;3 -->
<g id="edge3" class="edge">
<title>1&#45;&gt;3</title>
<path fill="none" stroke="black" d="M210.38,-240.5C204.96,-232.2 198.63,-222.5 192.73,-213.47"/>
<polygon fill="black" stroke="black" points="195.8,-211.76 187.4,-205.3 189.94,-215.59 195.8,-211.76"/>
</g>
<!-- 4 -->
<g id="node5" class="node">
<title>4</title>
<ellipse fill="white" stroke="black" cx="279.04" cy="-182.31" rx="27" ry="22.06"/>
<text text-anchor="middle" x="279.04" y="-178.11" font-family="Arial" font-size="14.00">add</text>
</g>
<!-- 1&#45;&gt;4 -->
<g id="edge4" class="edge">
<title>1&#45;&gt;4</title>
<path fill="none" stroke="black" d="M238.78,-240.5C245.13,-231.48 252.65,-220.81 259.45,-211.14"/>
<polygon fill="black" stroke="black" points="262.19,-213.33 265.08,-203.14 256.46,-209.3 262.19,-213.33"/>
</g>
<!-- 5 -->
<g id="node6" class="node">
<title>5</title>
<ellipse fill="white" stroke="black" cx="157.04" cy="-102.19" rx="55.31" ry="22.06"/>
<text text-anchor="middle" x="157.04" y="-97.99" font-family="Arial" font-size="14.00">steepness</text>
</g>
<!-- 4&#45;&gt;5 -->
<g id="edge5" class="edge">
<title>4&#45;&gt;5</title>
<path fill="none" stroke="black" d="M258.07,-167.88C240.78,-156.81 215.81,-140.81 195.02,-127.5"/>
<polygon fill="black" stroke="black" points="197.08,-124.67 186.77,-122.22 193.31,-130.56 197.08,-124.67"/>
</g>
<!-- 6 -->
<g id="node7" class="node">
<title>6</title>
<ellipse fill="white" stroke="black" cx="291.04" cy="-102.19" rx="60.26" ry="22.06"/>
<text text-anchor="middle" x="291.04" y="-97.99" font-family="Arial" font-size="14.00">elevation_v</text>
</g>
<!-- 4&#45;&gt;6 -->
<g id="edge6" class="edge">
<title>4&#45;&gt;6</title>
<path fill="none" stroke="black" d="M282.32,-159.96C283.47,-152.47 284.79,-143.87 286.05,-135.68"/>
<polygon fill="black" stroke="black" points="289.48,-136.42 287.54,-126 282.56,-135.36 289.48,-136.42"/>
</g>
<!-- 8 -->
<g id="node9" class="node">
<title>8</title>
<ellipse fill="white" stroke="black" cx="384.04" cy="-182.31" rx="60.26" ry="22.06"/>
<text text-anchor="middle" x="384.04" y="-178.11" font-family="Arial" font-size="14.00">elevation_v</text>
</g>
<!-- 7&#45;&gt;8 -->
<g id="edge8" class="edge">
<title>7&#45;&gt;8</title>
<path fill="none" stroke="black" d="M384.04,-240.08C384.04,-232.68 384.04,-224.19 384.04,-216.08"/>
<polygon fill="black" stroke="black" points="387.54,-216.14 384.04,-206.14 380.54,-216.14 387.54,-216.14"/>
</g>
<!-- 9 -->
<g id="node10" class="node">
<title>9</title>
<ellipse fill="white" stroke="black" cx="489.04" cy="-182.31" rx="27" ry="22.06"/>
<text text-anchor="middle" x="489.04" y="-178.11" font-family="Arial" font-size="14.00">mul</text>
</g>
<!-- 7&#45;&gt;9 -->
<g id="edge9" class="edge">
<title>7&#45;&gt;9</title>
<path fill="none" stroke="black" d="M403.79,-246.74C419.78,-234.84 442.51,-217.93 460.48,-204.56"/>
<polygon fill="black" stroke="black" points="462.24,-207.62 468.17,-198.84 458.06,-202 462.24,-207.62"/>
</g>
<!-- 10 -->
<g id="node11" class="node">
<title>10</title>
<ellipse fill="white" stroke="black" cx="449.04" cy="-102.19" rx="27" ry="22.06"/>
<text text-anchor="middle" x="449.04" y="-97.99" font-family="Arial" font-size="14.00">add</text>
</g>
<!-- 9&#45;&gt;10 -->
<g id="edge10" class="edge">
<title>9&#45;&gt;10</title>
<path fill="none" stroke="black" d="M478.95,-161.59C474.5,-152.9 469.17,-142.49 464.25,-132.88"/>
<polygon fill="black" stroke="black" points="467.5,-131.55 459.82,-124.24 461.27,-134.74 467.5,-131.55"/>
</g>
<!-- 13 -->
<g id="node14" class="node">
<title>13</title>
<ellipse fill="white" stroke="black" cx="529.04" cy="-102.19" rx="34.96" ry="22.06"/>
<text text-anchor="middle" x="529.04" y="-97.99" font-family="Arial" font-size="14.00">0.812</text>
</g>
<!-- 9&#45;&gt;13 -->
<g id="edge13" class="edge">
<title>9&#45;&gt;13</title>
<path fill="none" stroke="black" d="M499.14,-161.59C503.44,-153.19 508.57,-143.18 513.35,-133.84"/>
<polygon fill="black" stroke="black" points="516.4,-135.55 517.85,-125.06 510.17,-132.36 516.4,-135.55"/>
</g>
<!-- 11 -->
<g id="node12" class="node">
<title>11</title>
<ellipse fill="white" stroke="black" cx="389.04" cy="-22.06" rx="55.31" ry="22.06"/>
<text text-anchor="middle" x="389.04" y="-17.86" font-family="Arial" font-size="14.00">steepness</text>
</g>
<!-- 10&#45;&gt;11 -->
<g id="edge11" class="edge">
<title>10&#45;&gt;11</title>
<path fill="none" stroke="black" d="M435.13,-83.07C428.18,-74.02 419.61,-62.86 411.74,-52.62"/>
<polygon fill="black" stroke="black" points="414.58,-50.56 405.71,-44.76 409.03,-54.83 414.58,-50.56"/>
</g>
<!-- 12 -->
<g id="node13" class="node">
<title>12</title>
<ellipse fill="white" stroke="black" cx="509.04" cy="-22.06" rx="47.05" ry="22.06"/>
<text text-anchor="middle" x="509.04" y="-17.86" font-family="Arial" font-size="14.00">distance</text>
</g>
<!-- 10&#45;&gt;12 -->
<g id="edge12" class="edge">
<title>10&#45;&gt;12</title>
<path fill="none" stroke="black" d="M462.96,-83.07C469.96,-73.95 478.61,-62.69 486.53,-52.38"/>
<polygon fill="black" stroke="black" points="489.28,-54.55 492.59,-44.48 483.73,-50.28 489.28,-54.55"/>
</g>
</g>
</svg>
