<?xml version="1.0" encoding="UTF-8" standalone="no"?>
<!DOCTYPE svg PUBLIC "-//W3C//DTD SVG 1.1//EN"
 "http://www.w3.org/Graphics/SVG/1.1/DTD/svg11.dtd">
<!-- Generated by graphviz version 12.2.1 (0)
 -->
<!-- Title: G Pages: 1 -->
<svg width="727pt" height="566pt"
 viewBox="36.00 36.00 691.32 529.54" xmlns="http://www.w3.org/2000/svg" xmlns:xlink="http://www.w3.org/1999/xlink">
<g id="graph0" class="graph" transform="scale(1 1) rotate(0) translate(40 525.54)">
<title>G</title>
<polygon fill="white" stroke="none" points="-4,4 -4,-489.54 651.32,-489.54 651.32,4 -4,4"/>
<text text-anchor="middle" x="323.66" y="-468.94" font-family="Times New Roman,serif" font-size="14.00">(&#39;best_tree_5000pop_15gen_25runs_res200_4subrun&#39;, &#39;&#39;)</text>
<!-- 0 -->
<g id="node1" class="node">
<title>0</title>
<ellipse fill="white" stroke="black" cx="314.26" cy="-422.68" rx="27" ry="22.06"/>
<text text-anchor="middle" x="314.26" y="-418.48" font-family="Arial" font-size="14.00">add</text>
</g>
<!-- 1 -->
<g id="node2" class="node">
<title>1</title>
<ellipse fill="white" stroke="black" cx="260.26" cy="-342.56" rx="63.57" ry="22.06"/>
<text text-anchor="middle" x="260.26" y="-338.36" font-family="Arial" font-size="14.00">if_then_else</text>
</g>
<!-- 0&#45;&gt;1 -->
<g id="edge1" class="edge">
<title>0&#45;&gt;1</title>
<path fill="none" stroke="black" d="M301.46,-403.16C295.37,-394.34 287.92,-383.57 281.04,-373.61"/>
<polygon fill="black" stroke="black" points="284.11,-371.9 275.54,-365.66 278.35,-375.88 284.11,-371.9"/>
</g>
<!-- 10 -->
<g id="node11" class="node">
<title>10</title>
<ellipse fill="white" stroke="black" cx="407.26" cy="-342.56" rx="27" ry="22.06"/>
<text text-anchor="middle" x="407.26" y="-338.36" font-family="Arial" font-size="14.00">sub</text>
</g>
<!-- 0&#45;&gt;10 -->
<g id="edge10" class="edge">
<title>0&#45;&gt;10</title>
<path fill="none" stroke="black" d="M332.64,-406.24C346.26,-394.8 365.06,-379.01 380.37,-366.14"/>
<polygon fill="black" stroke="black" points="382.36,-369.04 387.77,-359.93 377.86,-363.68 382.36,-369.04"/>
</g>
<!-- 2 -->
<g id="node3" class="node">
<title>2</title>
<ellipse fill="white" stroke="black" cx="71.26" cy="-262.43" rx="71.26" ry="22.06"/>
<text text-anchor="middle" x="71.26" y="-258.23" font-family="Arial" font-size="14.00">identity_water</text>
</g>
<!-- 1&#45;&gt;2 -->
<g id="edge2" class="edge">
<title>1&#45;&gt;2</title>
<path fill="none" stroke="black" d="M220.18,-324.99C191.97,-313.33 153.95,-297.61 123.39,-284.98"/>
<polygon fill="black" stroke="black" points="124.9,-281.82 114.32,-281.23 122.22,-288.29 124.9,-281.82"/>
</g>
<!-- 4 -->
<g id="node5" class="node">
<title>4</title>
<ellipse fill="white" stroke="black" cx="221.26" cy="-262.43" rx="60.82" ry="22.06"/>
<text text-anchor="middle" x="221.26" y="-258.23" font-family="Arial" font-size="14.00">elevation_u</text>
</g>
<!-- 1&#45;&gt;4 -->
<g id="edge4" class="edge">
<title>1&#45;&gt;4</title>
<path fill="none" stroke="black" d="M249.81,-320.62C245.83,-312.65 241.21,-303.39 236.86,-294.67"/>
<polygon fill="black" stroke="black" points="240.02,-293.16 232.42,-285.78 233.75,-296.29 240.02,-293.16"/>
</g>
<!-- 5 -->
<g id="node6" class="node">
<title>5</title>
<ellipse fill="white" stroke="black" cx="327.26" cy="-262.43" rx="27" ry="22.06"/>
<text text-anchor="middle" x="327.26" y="-258.23" font-family="Arial" font-size="14.00">add</text>
</g>
<!-- 1&#45;&gt;5 -->
<g id="edge5" class="edge">
<title>1&#45;&gt;5</title>
<path fill="none" stroke="black" d="M277.86,-321.03C286.08,-311.45 295.96,-299.93 304.71,-289.72"/>
<polygon fill="black" stroke="black" points="307.21,-292.19 311.06,-282.32 301.9,-287.63 307.21,-292.19"/>
</g>
<!-- 3 -->
<g id="node4" class="node">
<title>3</title>
<ellipse fill="white" stroke="black" cx="71.26" cy="-182.31" rx="47.04" ry="22.06"/>
<text text-anchor="middle" x="71.26" y="-178.11" font-family="Arial" font-size="14.00">is_water</text>
</g>
<!-- 2&#45;&gt;3 -->
<g id="edge3" class="edge">
<title>2&#45;&gt;3</title>
<path fill="none" stroke="black" d="M71.26,-240.08C71.26,-232.68 71.26,-224.19 71.26,-216.08"/>
<polygon fill="black" stroke="black" points="74.76,-216.14 71.26,-206.14 67.76,-216.14 74.76,-216.14"/>
</g>
<!-- 6 -->
<g id="node7" class="node">
<title>6</title>
<ellipse fill="white" stroke="black" cx="228.26" cy="-182.31" rx="27" ry="22.06"/>
<text text-anchor="middle" x="228.26" y="-178.11" font-family="Arial" font-size="14.00">neg</text>
</g>
<!-- 5&#45;&gt;6 -->
<g id="edge6" class="edge">
<title>5&#45;&gt;6</title>
<path fill="none" stroke="black" d="M308.17,-246.37C293.38,-234.7 272.68,-218.36 256.05,-205.23"/>
<polygon fill="black" stroke="black" points="258.5,-202.71 248.48,-199.26 254.16,-208.21 258.5,-202.71"/>
</g>
<!-- 9 -->
<g id="node10" class="node">
<title>9</title>
<ellipse fill="white" stroke="black" cx="333.26" cy="-182.31" rx="60.26" ry="22.06"/>
<text text-anchor="middle" x="333.26" y="-178.11" font-family="Arial" font-size="14.00">elevation_v</text>
</g>
<!-- 5&#45;&gt;9 -->
<g id="edge9" class="edge">
<title>5&#45;&gt;9</title>
<path fill="none" stroke="black" d="M328.9,-240.08C329.47,-232.68 330.12,-224.19 330.74,-216.08"/>
<polygon fill="black" stroke="black" points="334.23,-216.38 331.51,-206.14 327.25,-215.84 334.23,-216.38"/>
</g>
<!-- 7 -->
<g id="node8" class="node">
<title>7</title>
<ellipse fill="white" stroke="black" cx="228.26" cy="-102.19" rx="27" ry="22.06"/>
<text text-anchor="middle" x="228.26" y="-97.99" font-family="Arial" font-size="14.00">neg</text>
</g>
<!-- 6&#45;&gt;7 -->
<g id="edge7" class="edge">
<title>6&#45;&gt;7</title>
<path fill="none" stroke="black" d="M228.26,-159.96C228.26,-152.55 228.26,-144.07 228.26,-135.96"/>
<polygon fill="black" stroke="black" points="231.76,-136.02 228.26,-126.02 224.76,-136.02 231.76,-136.02"/>
</g>
<!-- 8 -->
<g id="node9" class="node">
<title>8</title>
<ellipse fill="white" stroke="black" cx="228.26" cy="-22.06" rx="55.31" ry="22.06"/>
<text text-anchor="middle" x="228.26" y="-17.86" font-family="Arial" font-size="14.00">steepness</text>
</g>
<!-- 7&#45;&gt;8 -->
<g id="edge8" class="edge">
<title>7&#45;&gt;8</title>
<path fill="none" stroke="black" d="M228.26,-79.84C228.26,-72.43 228.26,-63.95 228.26,-55.83"/>
<polygon fill="black" stroke="black" points="231.76,-55.9 228.26,-45.9 224.76,-55.9 231.76,-55.9"/>
</g>
<!-- 11 -->
<g id="node12" class="node">
<title>11</title>
<ellipse fill="white" stroke="black" cx="407.26" cy="-262.43" rx="34.96" ry="22.06"/>
<text text-anchor="middle" x="407.26" y="-258.23" font-family="Arial" font-size="14.00">5.398</text>
</g>
<!-- 10&#45;&gt;11 -->
<g id="edge11" class="edge">
<title>10&#45;&gt;11</title>
<path fill="none" stroke="black" d="M407.26,-320.21C407.26,-312.8 407.26,-304.32 407.26,-296.2"/>
<polygon fill="black" stroke="black" points="410.76,-296.27 407.26,-286.27 403.76,-296.27 410.76,-296.27"/>
</g>
<!-- 12 -->
<g id="node13" class="node">
<title>12</title>
<ellipse fill="white" stroke="black" cx="487.26" cy="-262.43" rx="27" ry="22.06"/>
<text text-anchor="middle" x="487.26" y="-258.23" font-family="Arial" font-size="14.00">add</text>
</g>
<!-- 10&#45;&gt;12 -->
<g id="edge12" class="edge">
<title>10&#45;&gt;12</title>
<path fill="none" stroke="black" d="M424.23,-324.99C435.26,-314.22 449.83,-299.98 462.19,-287.91"/>
<polygon fill="black" stroke="black" points="464.53,-290.52 469.24,-281.03 459.64,-285.52 464.53,-290.52"/>
</g>
<!-- 13 -->
<g id="node14" class="node">
<title>13</title>
<ellipse fill="white" stroke="black" cx="480.26" cy="-182.31" rx="55.31" ry="22.06"/>
<text text-anchor="middle" x="480.26" y="-178.11" font-family="Arial" font-size="14.00">steepness</text>
</g>
<!-- 12&#45;&gt;13 -->
<g id="edge13" class="edge">
<title>12&#45;&gt;13</title>
<path fill="none" stroke="black" d="M485.35,-240.08C484.69,-232.68 483.92,-224.19 483.2,-216.08"/>
<polygon fill="black" stroke="black" points="486.69,-215.79 482.31,-206.14 479.71,-216.41 486.69,-215.79"/>
</g>
<!-- 14 -->
<g id="node15" class="node">
<title>14</title>
<ellipse fill="white" stroke="black" cx="600.26" cy="-182.31" rx="47.05" ry="22.06"/>
<text text-anchor="middle" x="600.26" y="-178.11" font-family="Arial" font-size="14.00">distance</text>
</g>
<!-- 12&#45;&gt;14 -->
<g id="edge14" class="edge">
<title>12&#45;&gt;14</title>
<path fill="none" stroke="black" d="M507.46,-247.47C523.54,-236.35 546.41,-220.54 565.43,-207.39"/>
<polygon fill="black" stroke="black" points="567.2,-210.42 573.44,-201.85 563.22,-204.66 567.2,-210.42"/>
</g>
</g>
</svg>
