<?xml version="1.0" encoding="UTF-8" standalone="no"?>
<!DOCTYPE svg PUBLIC "-//W3C//DTD SVG 1.1//EN"
 "http://www.w3.org/Graphics/SVG/1.1/DTD/svg11.dtd">
<!-- Generated by graphviz version 12.2.1 (0)
 -->
<!-- Title: G Pages: 1 -->
<svg width="669pt" height="485pt"
 viewBox="36.00 36.00 633.22 449.42" xmlns="http://www.w3.org/2000/svg" xmlns:xlink="http://www.w3.org/1999/xlink">
<g id="graph0" class="graph" transform="scale(1 1) rotate(0) translate(40 445.42)">
<title>G</title>
<polygon fill="white" stroke="none" points="-4,4 -4,-409.42 593.22,-409.42 593.22,4 -4,4"/>
<text text-anchor="middle" x="294.61" y="-388.82" font-family="Times New Roman,serif" font-size="14.00">(&#39;best_5tree_5000pop_15gen_25runs_res200_25subrun&#39;, &#39;&#39;)</text>
<!-- 0 -->
<g id="node1" class="node">
<title>0</title>
<ellipse fill="white" stroke="black" cx="287.26" cy="-342.56" rx="27" ry="22.06"/>
<text text-anchor="middle" x="287.26" y="-338.36" font-family="Arial" font-size="14.00">add</text>
</g>
<!-- 1 -->
<g id="node2" class="node">
<title>1</title>
<ellipse fill="white" stroke="black" cx="233.26" cy="-262.43" rx="63.57" ry="22.06"/>
<text text-anchor="middle" x="233.26" y="-258.23" font-family="Arial" font-size="14.00">if_then_else</text>
</g>
<!-- 0&#45;&gt;1 -->
<g id="edge1" class="edge">
<title>0&#45;&gt;1</title>
<path fill="none" stroke="black" d="M274.46,-323.04C268.37,-314.22 260.92,-303.44 254.04,-293.49"/>
<polygon fill="black" stroke="black" points="257.11,-291.77 248.54,-285.54 251.35,-295.75 257.11,-291.77"/>
</g>
<!-- 8 -->
<g id="node9" class="node">
<title>8</title>
<ellipse fill="white" stroke="black" cx="380.26" cy="-262.43" rx="27" ry="22.06"/>
<text text-anchor="middle" x="380.26" y="-258.23" font-family="Arial" font-size="14.00">sub</text>
</g>
<!-- 0&#45;&gt;8 -->
<g id="edge8" class="edge">
<title>0&#45;&gt;8</title>
<path fill="none" stroke="black" d="M305.64,-326.12C319.26,-314.67 338.06,-298.88 353.37,-286.02"/>
<polygon fill="black" stroke="black" points="355.36,-288.92 360.77,-279.81 350.86,-283.56 355.36,-288.92"/>
</g>
<!-- 2 -->
<g id="node3" class="node">
<title>2</title>
<ellipse fill="white" stroke="black" cx="71.26" cy="-182.31" rx="71.26" ry="22.06"/>
<text text-anchor="middle" x="71.26" y="-178.11" font-family="Arial" font-size="14.00">identity_water</text>
</g>
<!-- 1&#45;&gt;2 -->
<g id="edge2" class="edge">
<title>1&#45;&gt;2</title>
<path fill="none" stroke="black" d="M196.91,-243.9C173.97,-232.84 144.09,-218.43 119.22,-206.44"/>
<polygon fill="black" stroke="black" points="120.79,-203.31 110.27,-202.12 117.75,-209.61 120.79,-203.31"/>
</g>
<!-- 4 -->
<g id="node5" class="node">
<title>4</title>
<ellipse fill="white" stroke="black" cx="195.26" cy="-182.31" rx="34.96" ry="22.06"/>
<text text-anchor="middle" x="195.26" y="-178.11" font-family="Arial" font-size="14.00">5.418</text>
</g>
<!-- 1&#45;&gt;4 -->
<g id="edge4" class="edge">
<title>1&#45;&gt;4</title>
<path fill="none" stroke="black" d="M223.08,-240.5C219.1,-232.31 214.45,-222.76 210.11,-213.83"/>
<polygon fill="black" stroke="black" points="213.39,-212.58 205.87,-205.12 207.1,-215.65 213.39,-212.58"/>
</g>
<!-- 5 -->
<g id="node6" class="node">
<title>5</title>
<ellipse fill="white" stroke="black" cx="275.26" cy="-182.31" rx="27" ry="22.06"/>
<text text-anchor="middle" x="275.26" y="-178.11" font-family="Arial" font-size="14.00">add</text>
</g>
<!-- 1&#45;&gt;5 -->
<g id="edge5" class="edge">
<title>1&#45;&gt;5</title>
<path fill="none" stroke="black" d="M244.52,-240.5C249.07,-232.02 254.41,-222.09 259.35,-212.9"/>
<polygon fill="black" stroke="black" points="262.33,-214.76 263.98,-204.29 256.16,-211.44 262.33,-214.76"/>
</g>
<!-- 3 -->
<g id="node4" class="node">
<title>3</title>
<ellipse fill="white" stroke="black" cx="71.26" cy="-102.19" rx="47.04" ry="22.06"/>
<text text-anchor="middle" x="71.26" y="-97.99" font-family="Arial" font-size="14.00">is_water</text>
</g>
<!-- 2&#45;&gt;3 -->
<g id="edge3" class="edge">
<title>2&#45;&gt;3</title>
<path fill="none" stroke="black" d="M71.26,-159.96C71.26,-152.55 71.26,-144.07 71.26,-135.96"/>
<polygon fill="black" stroke="black" points="74.76,-136.02 71.26,-126.02 67.76,-136.02 74.76,-136.02"/>
</g>
<!-- 6 -->
<g id="node7" class="node">
<title>6</title>
<ellipse fill="white" stroke="black" cx="219.26" cy="-102.19" rx="60.82" ry="22.06"/>
<text text-anchor="middle" x="219.26" y="-97.99" font-family="Arial" font-size="14.00">elevation_u</text>
</g>
<!-- 5&#45;&gt;6 -->
<g id="edge6" class="edge">
<title>5&#45;&gt;6</title>
<path fill="none" stroke="black" d="M261.99,-162.79C255.67,-153.97 247.94,-143.2 240.81,-133.24"/>
<polygon fill="black" stroke="black" points="243.77,-131.36 235.1,-125.28 238.08,-135.44 243.77,-131.36"/>
</g>
<!-- 7 -->
<g id="node8" class="node">
<title>7</title>
<ellipse fill="white" stroke="black" cx="358.26" cy="-102.19" rx="60.26" ry="22.06"/>
<text text-anchor="middle" x="358.26" y="-97.99" font-family="Arial" font-size="14.00">elevation_v</text>
</g>
<!-- 5&#45;&gt;7 -->
<g id="edge7" class="edge">
<title>5&#45;&gt;7</title>
<path fill="none" stroke="black" d="M292.46,-165.12C302.95,-155.24 316.65,-142.35 328.82,-130.89"/>
<polygon fill="black" stroke="black" points="330.97,-133.68 335.85,-124.28 326.17,-128.58 330.97,-133.68"/>
</g>
<!-- 9 -->
<g id="node10" class="node">
<title>9</title>
<ellipse fill="white" stroke="black" cx="380.26" cy="-182.31" rx="60.26" ry="22.06"/>
<text text-anchor="middle" x="380.26" y="-178.11" font-family="Arial" font-size="14.00">elevation_v</text>
</g>
<!-- 8&#45;&gt;9 -->
<g id="edge9" class="edge">
<title>8&#45;&gt;9</title>
<path fill="none" stroke="black" d="M380.26,-240.08C380.26,-232.68 380.26,-224.19 380.26,-216.08"/>
<polygon fill="black" stroke="black" points="383.76,-216.14 380.26,-206.14 376.76,-216.14 383.76,-216.14"/>
</g>
<!-- 10 -->
<g id="node11" class="node">
<title>10</title>
<ellipse fill="white" stroke="black" cx="485.26" cy="-182.31" rx="27" ry="22.06"/>
<text text-anchor="middle" x="485.26" y="-178.11" font-family="Arial" font-size="14.00">mul</text>
</g>
<!-- 8&#45;&gt;10 -->
<g id="edge10" class="edge">
<title>8&#45;&gt;10</title>
<path fill="none" stroke="black" d="M400.01,-246.74C416,-234.84 438.73,-217.93 456.7,-204.56"/>
<polygon fill="black" stroke="black" points="458.45,-207.62 464.39,-198.84 454.27,-202 458.45,-207.62"/>
</g>
<!-- 11 -->
<g id="node12" class="node">
<title>11</title>
<ellipse fill="white" stroke="black" cx="474.26" cy="-102.19" rx="27" ry="22.06"/>
<text text-anchor="middle" x="474.26" y="-97.99" font-family="Arial" font-size="14.00">add</text>
</g>
<!-- 10&#45;&gt;11 -->
<g id="edge11" class="edge">
<title>10&#45;&gt;11</title>
<path fill="none" stroke="black" d="M482.26,-159.96C481.2,-152.47 479.99,-143.87 478.84,-135.68"/>
<polygon fill="black" stroke="black" points="482.33,-135.42 477.47,-126.01 475.4,-136.4 482.33,-135.42"/>
</g>
<!-- 14 -->
<g id="node15" class="node">
<title>14</title>
<ellipse fill="white" stroke="black" cx="554.26" cy="-102.19" rx="34.96" ry="22.06"/>
<text text-anchor="middle" x="554.26" y="-97.99" font-family="Arial" font-size="14.00">0.869</text>
</g>
<!-- 10&#45;&gt;14 -->
<g id="edge14" class="edge">
<title>10&#45;&gt;14</title>
<path fill="none" stroke="black" d="M500.57,-163.97C509.28,-154.11 520.39,-141.54 530.23,-130.39"/>
<polygon fill="black" stroke="black" points="532.79,-132.79 536.78,-122.97 527.54,-128.15 532.79,-132.79"/>
</g>
<!-- 12 -->
<g id="node13" class="node">
<title>12</title>
<ellipse fill="white" stroke="black" cx="414.26" cy="-22.06" rx="55.31" ry="22.06"/>
<text text-anchor="middle" x="414.26" y="-17.86" font-family="Arial" font-size="14.00">steepness</text>
</g>
<!-- 11&#45;&gt;12 -->
<g id="edge12" class="edge">
<title>11&#45;&gt;12</title>
<path fill="none" stroke="black" d="M460.35,-83.07C453.4,-74.02 444.82,-62.86 436.96,-52.62"/>
<polygon fill="black" stroke="black" points="439.79,-50.56 430.93,-44.76 434.24,-54.83 439.79,-50.56"/>
</g>
<!-- 13 -->
<g id="node14" class="node">
<title>13</title>
<ellipse fill="white" stroke="black" cx="534.26" cy="-22.06" rx="47.05" ry="22.06"/>
<text text-anchor="middle" x="534.26" y="-17.86" font-family="Arial" font-size="14.00">distance</text>
</g>
<!-- 11&#45;&gt;13 -->
<g id="edge13" class="edge">
<title>11&#45;&gt;13</title>
<path fill="none" stroke="black" d="M488.18,-83.07C495.17,-73.95 503.83,-62.69 511.74,-52.38"/>
<polygon fill="black" stroke="black" points="514.49,-54.55 517.81,-44.48 508.94,-50.28 514.49,-54.55"/>
</g>
</g>
</svg>
