<?xml version="1.0" encoding="UTF-8" standalone="no"?>
<!DOCTYPE svg PUBLIC "-//W3C//DTD SVG 1.1//EN"
 "http://www.w3.org/Graphics/SVG/1.1/DTD/svg11.dtd">
<!-- Generated by graphviz version 12.2.1 (0)
 -->
<!-- Title: G Pages: 1 -->
<svg width="692pt" height="485pt"
 viewBox="36.00 36.00 656.32 449.42" xmlns="http://www.w3.org/2000/svg" xmlns:xlink="http://www.w3.org/1999/xlink">
<g id="graph0" class="graph" transform="scale(1 1) rotate(0) translate(40 445.42)">
<title>G</title>
<polygon fill="white" stroke="none" points="-4,4 -4,-409.42 616.32,-409.42 616.32,4 -4,4"/>
<text text-anchor="middle" x="306.16" y="-388.82" font-family="Times New Roman,serif" font-size="14.00">(&#39;best_tree_5000pop_15gen_25runs_res200_3subrun&#39;, &#39;&#39;)</text>
<!-- 0 -->
<g id="node1" class="node">
<title>0</title>
<ellipse fill="white" stroke="black" cx="314.26" cy="-342.56" rx="27" ry="22.06"/>
<text text-anchor="middle" x="314.26" y="-338.36" font-family="Arial" font-size="14.00">add</text>
</g>
<!-- 1 -->
<g id="node2" class="node">
<title>1</title>
<ellipse fill="white" stroke="black" cx="260.26" cy="-262.43" rx="63.57" ry="22.06"/>
<text text-anchor="middle" x="260.26" y="-258.23" font-family="Arial" font-size="14.00">if_then_else</text>
</g>
<!-- 0&#45;&gt;1 -->
<g id="edge1" class="edge">
<title>0&#45;&gt;1</title>
<path fill="none" stroke="black" d="M301.46,-323.04C295.37,-314.22 287.92,-303.44 281.04,-293.49"/>
<polygon fill="black" stroke="black" points="284.11,-291.77 275.54,-285.54 278.35,-295.75 284.11,-291.77"/>
</g>
<!-- 8 -->
<g id="node9" class="node">
<title>8</title>
<ellipse fill="white" stroke="black" cx="407.26" cy="-262.43" rx="27" ry="22.06"/>
<text text-anchor="middle" x="407.26" y="-258.23" font-family="Arial" font-size="14.00">sub</text>
</g>
<!-- 0&#45;&gt;8 -->
<g id="edge8" class="edge">
<title>0&#45;&gt;8</title>
<path fill="none" stroke="black" d="M332.64,-326.12C346.26,-314.67 365.06,-298.88 380.37,-286.02"/>
<polygon fill="black" stroke="black" points="382.36,-288.92 387.77,-279.81 377.86,-283.56 382.36,-288.92"/>
</g>
<!-- 2 -->
<g id="node3" class="node">
<title>2</title>
<ellipse fill="white" stroke="black" cx="71.26" cy="-182.31" rx="71.26" ry="22.06"/>
<text text-anchor="middle" x="71.26" y="-178.11" font-family="Arial" font-size="14.00">identity_water</text>
</g>
<!-- 1&#45;&gt;2 -->
<g id="edge2" class="edge">
<title>1&#45;&gt;2</title>
<path fill="none" stroke="black" d="M220.18,-244.86C191.97,-233.2 153.95,-217.49 123.39,-204.86"/>
<polygon fill="black" stroke="black" points="124.9,-201.69 114.32,-201.11 122.22,-208.16 124.9,-201.69"/>
</g>
<!-- 4 -->
<g id="node5" class="node">
<title>4</title>
<ellipse fill="white" stroke="black" cx="221.26" cy="-182.31" rx="60.82" ry="22.06"/>
<text text-anchor="middle" x="221.26" y="-178.11" font-family="Arial" font-size="14.00">elevation_u</text>
</g>
<!-- 1&#45;&gt;4 -->
<g id="edge4" class="edge">
<title>1&#45;&gt;4</title>
<path fill="none" stroke="black" d="M249.81,-240.5C245.83,-232.53 241.21,-223.27 236.86,-214.55"/>
<polygon fill="black" stroke="black" points="240.02,-213.04 232.42,-205.66 233.75,-216.17 240.02,-213.04"/>
</g>
<!-- 5 -->
<g id="node6" class="node">
<title>5</title>
<ellipse fill="white" stroke="black" cx="327.26" cy="-182.31" rx="27" ry="22.06"/>
<text text-anchor="middle" x="327.26" y="-178.11" font-family="Arial" font-size="14.00">add</text>
</g>
<!-- 1&#45;&gt;5 -->
<g id="edge5" class="edge">
<title>1&#45;&gt;5</title>
<path fill="none" stroke="black" d="M277.86,-240.91C286.08,-231.33 295.96,-219.81 304.71,-209.6"/>
<polygon fill="black" stroke="black" points="307.21,-212.06 311.06,-202.19 301.9,-207.51 307.21,-212.06"/>
</g>
<!-- 3 -->
<g id="node4" class="node">
<title>3</title>
<ellipse fill="white" stroke="black" cx="71.26" cy="-102.19" rx="47.04" ry="22.06"/>
<text text-anchor="middle" x="71.26" y="-97.99" font-family="Arial" font-size="14.00">is_water</text>
</g>
<!-- 2&#45;&gt;3 -->
<g id="edge3" class="edge">
<title>2&#45;&gt;3</title>
<path fill="none" stroke="black" d="M71.26,-159.96C71.26,-152.55 71.26,-144.07 71.26,-135.96"/>
<polygon fill="black" stroke="black" points="74.76,-136.02 71.26,-126.02 67.76,-136.02 74.76,-136.02"/>
</g>
<!-- 6 -->
<g id="node7" class="node">
<title>6</title>
<ellipse fill="white" stroke="black" cx="207.26" cy="-102.19" rx="55.31" ry="22.06"/>
<text text-anchor="middle" x="207.26" y="-97.99" font-family="Arial" font-size="14.00">steepness</text>
</g>
<!-- 5&#45;&gt;6 -->
<g id="edge6" class="edge">
<title>5&#45;&gt;6</title>
<path fill="none" stroke="black" d="M306.36,-167.7C289.51,-156.73 265.37,-141.02 245.14,-127.84"/>
<polygon fill="black" stroke="black" points="247.13,-124.96 236.84,-122.44 243.31,-130.83 247.13,-124.96"/>
</g>
<!-- 7 -->
<g id="node8" class="node">
<title>7</title>
<ellipse fill="white" stroke="black" cx="341.26" cy="-102.19" rx="60.26" ry="22.06"/>
<text text-anchor="middle" x="341.26" y="-97.99" font-family="Arial" font-size="14.00">elevation_v</text>
</g>
<!-- 5&#45;&gt;7 -->
<g id="edge7" class="edge">
<title>5&#45;&gt;7</title>
<path fill="none" stroke="black" d="M331.01,-160.37C332.37,-152.82 333.93,-144.1 335.42,-135.78"/>
<polygon fill="black" stroke="black" points="338.86,-136.4 337.18,-125.94 331.97,-135.17 338.86,-136.4"/>
</g>
<!-- 9 -->
<g id="node10" class="node">
<title>9</title>
<ellipse fill="white" stroke="black" cx="407.26" cy="-182.31" rx="34.96" ry="22.06"/>
<text text-anchor="middle" x="407.26" y="-178.11" font-family="Arial" font-size="14.00">5.398</text>
</g>
<!-- 8&#45;&gt;9 -->
<g id="edge9" class="edge">
<title>8&#45;&gt;9</title>
<path fill="none" stroke="black" d="M407.26,-240.08C407.26,-232.68 407.26,-224.19 407.26,-216.08"/>
<polygon fill="black" stroke="black" points="410.76,-216.14 407.26,-206.14 403.76,-216.14 410.76,-216.14"/>
</g>
<!-- 10 -->
<g id="node11" class="node">
<title>10</title>
<ellipse fill="white" stroke="black" cx="487.26" cy="-182.31" rx="27" ry="22.06"/>
<text text-anchor="middle" x="487.26" y="-178.11" font-family="Arial" font-size="14.00">mul</text>
</g>
<!-- 8&#45;&gt;10 -->
<g id="edge10" class="edge">
<title>8&#45;&gt;10</title>
<path fill="none" stroke="black" d="M424.23,-244.86C435.26,-234.09 449.83,-219.86 462.19,-207.79"/>
<polygon fill="black" stroke="black" points="464.53,-210.4 469.24,-200.91 459.64,-205.39 464.53,-210.4"/>
</g>
<!-- 11 -->
<g id="node12" class="node">
<title>11</title>
<ellipse fill="white" stroke="black" cx="473.26" cy="-102.19" rx="27" ry="22.06"/>
<text text-anchor="middle" x="473.26" y="-97.99" font-family="Arial" font-size="14.00">add</text>
</g>
<!-- 10&#45;&gt;11 -->
<g id="edge11" class="edge">
<title>10&#45;&gt;11</title>
<path fill="none" stroke="black" d="M483.51,-160.37C482.16,-152.82 480.59,-144.1 479.1,-135.78"/>
<polygon fill="black" stroke="black" points="482.55,-135.17 477.34,-125.94 475.66,-136.4 482.55,-135.17"/>
</g>
<!-- 14 -->
<g id="node15" class="node">
<title>14</title>
<ellipse fill="white" stroke="black" cx="565.26" cy="-102.19" rx="47.05" ry="22.06"/>
<text text-anchor="middle" x="565.26" y="-97.99" font-family="Arial" font-size="14.00">distance</text>
</g>
<!-- 10&#45;&gt;14 -->
<g id="edge14" class="edge">
<title>10&#45;&gt;14</title>
<path fill="none" stroke="black" d="M503.8,-164.74C513.74,-154.79 526.61,-141.89 538.02,-130.47"/>
<polygon fill="black" stroke="black" points="540.34,-133.1 544.92,-123.56 535.38,-128.16 540.34,-133.1"/>
</g>
<!-- 12 -->
<g id="node13" class="node">
<title>12</title>
<ellipse fill="white" stroke="black" cx="413.26" cy="-22.06" rx="55.31" ry="22.06"/>
<text text-anchor="middle" x="413.26" y="-17.86" font-family="Arial" font-size="14.00">steepness</text>
</g>
<!-- 11&#45;&gt;12 -->
<g id="edge12" class="edge">
<title>11&#45;&gt;12</title>
<path fill="none" stroke="black" d="M459.35,-83.07C452.4,-74.02 443.82,-62.86 435.96,-52.62"/>
<polygon fill="black" stroke="black" points="438.79,-50.56 429.93,-44.76 433.24,-54.83 438.79,-50.56"/>
</g>
<!-- 13 -->
<g id="node14" class="node">
<title>13</title>
<ellipse fill="white" stroke="black" cx="533.26" cy="-22.06" rx="47.05" ry="22.06"/>
<text text-anchor="middle" x="533.26" y="-17.86" font-family="Arial" font-size="14.00">distance</text>
</g>
<!-- 11&#45;&gt;13 -->
<g id="edge13" class="edge">
<title>11&#45;&gt;13</title>
<path fill="none" stroke="black" d="M487.18,-83.07C494.17,-73.95 502.83,-62.69 510.74,-52.38"/>
<polygon fill="black" stroke="black" points="513.49,-54.55 516.81,-44.48 507.94,-50.28 513.49,-54.55"/>
</g>
</g>
</svg>
