<?xml version="1.0" encoding="UTF-8" standalone="no"?>
<!DOCTYPE svg PUBLIC "-//W3C//DTD SVG 1.1//EN"
 "http://www.w3.org/Graphics/SVG/1.1/DTD/svg11.dtd">
<!-- Generated by graphviz version 12.2.1 (0)
 -->
<!-- Title: G Pages: 1 -->
<svg width="614pt" height="485pt"
 viewBox="36.00 36.00 578.09 449.42" xmlns="http://www.w3.org/2000/svg" xmlns:xlink="http://www.w3.org/1999/xlink">
<g id="graph0" class="graph" transform="scale(1 1) rotate(0) translate(40 445.42)">
<title>G</title>
<polygon fill="white" stroke="none" points="-4,4 -4,-409.42 538.09,-409.42 538.09,4 -4,4"/>
<text text-anchor="middle" x="267.04" y="-388.82" font-family="Times New Roman,serif" font-size="14.00">(&#39;best_tree_2000pop_15gen_20runs_res200_2subrun&#39;, &#39;&#39;)</text>
<!-- 0 -->
<g id="node1" class="node">
<title>0</title>
<ellipse fill="white" stroke="black" cx="202.26" cy="-342.56" rx="27" ry="22.06"/>
<text text-anchor="middle" x="202.26" y="-338.36" font-family="Arial" font-size="14.00">neg</text>
</g>
<!-- 1 -->
<g id="node2" class="node">
<title>1</title>
<ellipse fill="white" stroke="black" cx="202.26" cy="-262.43" rx="63.57" ry="22.06"/>
<text text-anchor="middle" x="202.26" y="-258.23" font-family="Arial" font-size="14.00">if_then_else</text>
</g>
<!-- 0&#45;&gt;1 -->
<g id="edge1" class="edge">
<title>0&#45;&gt;1</title>
<path fill="none" stroke="black" d="M202.26,-320.21C202.26,-312.8 202.26,-304.32 202.26,-296.2"/>
<polygon fill="black" stroke="black" points="205.76,-296.27 202.26,-286.27 198.76,-296.27 205.76,-296.27"/>
</g>
<!-- 2 -->
<g id="node3" class="node">
<title>2</title>
<ellipse fill="white" stroke="black" cx="110.26" cy="-182.31" rx="47.04" ry="22.06"/>
<text text-anchor="middle" x="110.26" y="-178.11" font-family="Arial" font-size="14.00">is_water</text>
</g>
<!-- 1&#45;&gt;2 -->
<g id="edge2" class="edge">
<title>1&#45;&gt;2</title>
<path fill="none" stroke="black" d="M179.05,-241.72C167.57,-231.97 153.56,-220.07 141.18,-209.56"/>
<polygon fill="black" stroke="black" points="143.56,-206.99 133.67,-203.19 139.03,-212.33 143.56,-206.99"/>
</g>
<!-- 3 -->
<g id="node4" class="node">
<title>3</title>
<ellipse fill="white" stroke="black" cx="202.26" cy="-182.31" rx="27" ry="22.06"/>
<text text-anchor="middle" x="202.26" y="-178.11" font-family="Arial" font-size="14.00">sub</text>
</g>
<!-- 1&#45;&gt;3 -->
<g id="edge3" class="edge">
<title>1&#45;&gt;3</title>
<path fill="none" stroke="black" d="M202.26,-240.08C202.26,-232.68 202.26,-224.19 202.26,-216.08"/>
<polygon fill="black" stroke="black" points="205.76,-216.14 202.26,-206.14 198.76,-216.14 205.76,-216.14"/>
</g>
<!-- 9 -->
<g id="node10" class="node">
<title>9</title>
<ellipse fill="white" stroke="black" cx="339.26" cy="-182.31" rx="27" ry="22.06"/>
<text text-anchor="middle" x="339.26" y="-178.11" font-family="Arial" font-size="14.00">sub</text>
</g>
<!-- 1&#45;&gt;9 -->
<g id="edge9" class="edge">
<title>1&#45;&gt;9</title>
<path fill="none" stroke="black" d="M234.39,-243.12C256.51,-230.5 285.76,-213.82 307.75,-201.28"/>
<polygon fill="black" stroke="black" points="309.32,-204.41 316.28,-196.42 305.86,-198.33 309.32,-204.41"/>
</g>
<!-- 4 -->
<g id="node5" class="node">
<title>4</title>
<ellipse fill="white" stroke="black" cx="60.26" cy="-102.19" rx="60.26" ry="22.06"/>
<text text-anchor="middle" x="60.26" y="-97.99" font-family="Arial" font-size="14.00">elevation_v</text>
</g>
<!-- 3&#45;&gt;4 -->
<g id="edge4" class="edge">
<title>3&#45;&gt;4</title>
<path fill="none" stroke="black" d="M180.63,-168.49C175.92,-165.74 170.94,-162.87 166.26,-160.25 145.87,-148.8 123.06,-136.46 103.83,-126.19"/>
<polygon fill="black" stroke="black" points="105.66,-123.2 95.19,-121.58 102.37,-129.37 105.66,-123.2"/>
</g>
<!-- 5 -->
<g id="node6" class="node">
<title>5</title>
<ellipse fill="white" stroke="black" cx="202.26" cy="-102.19" rx="63.57" ry="22.06"/>
<text text-anchor="middle" x="202.26" y="-97.99" font-family="Arial" font-size="14.00">if_then_else</text>
</g>
<!-- 3&#45;&gt;5 -->
<g id="edge5" class="edge">
<title>3&#45;&gt;5</title>
<path fill="none" stroke="black" d="M202.26,-159.96C202.26,-152.55 202.26,-144.07 202.26,-135.96"/>
<polygon fill="black" stroke="black" points="205.76,-136.02 202.26,-126.02 198.76,-136.02 205.76,-136.02"/>
</g>
<!-- 6 -->
<g id="node7" class="node">
<title>6</title>
<ellipse fill="white" stroke="black" cx="76.26" cy="-22.06" rx="47.04" ry="22.06"/>
<text text-anchor="middle" x="76.26" y="-17.86" font-family="Arial" font-size="14.00">is_water</text>
</g>
<!-- 5&#45;&gt;6 -->
<g id="edge6" class="edge">
<title>5&#45;&gt;6</title>
<path fill="none" stroke="black" d="M172.08,-82.47C154.56,-71.61 132.33,-57.82 113.7,-46.27"/>
<polygon fill="black" stroke="black" points="115.67,-43.38 105.33,-41.08 111.99,-49.33 115.67,-43.38"/>
</g>
<!-- 7 -->
<g id="node8" class="node">
<title>7</title>
<ellipse fill="white" stroke="black" cx="202.26" cy="-22.06" rx="60.82" ry="22.06"/>
<text text-anchor="middle" x="202.26" y="-17.86" font-family="Arial" font-size="14.00">elevation_u</text>
</g>
<!-- 5&#45;&gt;7 -->
<g id="edge7" class="edge">
<title>5&#45;&gt;7</title>
<path fill="none" stroke="black" d="M202.26,-79.84C202.26,-72.43 202.26,-63.95 202.26,-55.83"/>
<polygon fill="black" stroke="black" points="205.76,-55.9 202.26,-45.9 198.76,-55.9 205.76,-55.9"/>
</g>
<!-- 8 -->
<g id="node9" class="node">
<title>8</title>
<ellipse fill="white" stroke="black" cx="328.26" cy="-22.06" rx="47.05" ry="22.06"/>
<text text-anchor="middle" x="328.26" y="-17.86" font-family="Arial" font-size="14.00">distance</text>
</g>
<!-- 5&#45;&gt;8 -->
<g id="edge8" class="edge">
<title>5&#45;&gt;8</title>
<path fill="none" stroke="black" d="M232.44,-82.47C249.97,-71.61 272.2,-57.82 290.83,-46.27"/>
<polygon fill="black" stroke="black" points="292.54,-49.33 299.2,-41.08 288.85,-43.38 292.54,-49.33"/>
</g>
<!-- 10 -->
<g id="node11" class="node">
<title>10</title>
<ellipse fill="white" stroke="black" cx="339.26" cy="-102.19" rx="55.31" ry="22.06"/>
<text text-anchor="middle" x="339.26" y="-97.99" font-family="Arial" font-size="14.00">steepness</text>
</g>
<!-- 9&#45;&gt;10 -->
<g id="edge10" class="edge">
<title>9&#45;&gt;10</title>
<path fill="none" stroke="black" d="M339.26,-159.96C339.26,-152.55 339.26,-144.07 339.26,-135.96"/>
<polygon fill="black" stroke="black" points="342.76,-136.02 339.26,-126.02 335.76,-136.02 342.76,-136.02"/>
</g>
<!-- 11 -->
<g id="node12" class="node">
<title>11</title>
<ellipse fill="white" stroke="black" cx="473.26" cy="-102.19" rx="60.82" ry="22.06"/>
<text text-anchor="middle" x="473.26" y="-97.99" font-family="Arial" font-size="14.00">elevation_u</text>
</g>
<!-- 9&#45;&gt;11 -->
<g id="edge11" class="edge">
<title>9&#45;&gt;11</title>
<path fill="none" stroke="black" d="M360.79,-168.76C379.96,-157.59 408.51,-140.94 432.05,-127.21"/>
<polygon fill="black" stroke="black" points="433.61,-130.36 440.49,-122.29 430.09,-124.31 433.61,-130.36"/>
</g>
</g>
</svg>
