<?xml version="1.0" encoding="UTF-8" standalone="no"?>
<!DOCTYPE svg PUBLIC "-//W3C//DTD SVG 1.1//EN"
 "http://www.w3.org/Graphics/SVG/1.1/DTD/svg11.dtd">
<!-- Generated by graphviz version 12.2.1 (0)
 -->
<!-- Title: G Pages: 1 -->
<svg width="686pt" height="485pt"
 viewBox="36.00 36.00 650.32 449.42" xmlns="http://www.w3.org/2000/svg" xmlns:xlink="http://www.w3.org/1999/xlink">
<g id="graph0" class="graph" transform="scale(1 1) rotate(0) translate(40 445.42)">
<title>G</title>
<polygon fill="white" stroke="none" points="-4,4 -4,-409.42 610.32,-409.42 610.32,4 -4,4"/>
<text text-anchor="middle" x="303.16" y="-388.82" font-family="Times New Roman,serif" font-size="14.00">(&#39;best_5tree_500pop_15gen_15runs_res200_15subrun&#39;, &#39;&#39;)</text>
<!-- 0 -->
<g id="node1" class="node">
<title>0</title>
<ellipse fill="white" stroke="black" cx="215.05" cy="-342.56" rx="63.57" ry="22.06"/>
<text text-anchor="middle" x="215.05" y="-338.36" font-family="Arial" font-size="14.00">if_then_else</text>
</g>
<!-- 1 -->
<g id="node2" class="node">
<title>1</title>
<ellipse fill="white" stroke="black" cx="123.05" cy="-262.43" rx="47.04" ry="22.06"/>
<text text-anchor="middle" x="123.05" y="-258.23" font-family="Arial" font-size="14.00">is_water</text>
</g>
<!-- 0&#45;&gt;1 -->
<g id="edge1" class="edge">
<title>0&#45;&gt;1</title>
<path fill="none" stroke="black" d="M191.84,-321.84C180.36,-312.09 166.35,-300.19 153.97,-289.69"/>
<polygon fill="black" stroke="black" points="156.35,-287.12 146.46,-283.31 151.82,-292.45 156.35,-287.12"/>
</g>
<!-- 2 -->
<g id="node3" class="node">
<title>2</title>
<ellipse fill="white" stroke="black" cx="215.05" cy="-262.43" rx="27" ry="22.06"/>
<text text-anchor="middle" x="215.05" y="-258.23" font-family="Arial" font-size="14.00">neg</text>
</g>
<!-- 0&#45;&gt;2 -->
<g id="edge2" class="edge">
<title>0&#45;&gt;2</title>
<path fill="none" stroke="black" d="M215.05,-320.21C215.05,-312.8 215.05,-304.32 215.05,-296.2"/>
<polygon fill="black" stroke="black" points="218.55,-296.27 215.05,-286.27 211.55,-296.27 218.55,-296.27"/>
</g>
<!-- 4 -->
<g id="node5" class="node">
<title>4</title>
<ellipse fill="white" stroke="black" cx="301.05" cy="-262.43" rx="27" ry="22.06"/>
<text text-anchor="middle" x="301.05" y="-258.23" font-family="Arial" font-size="14.00">sub</text>
</g>
<!-- 0&#45;&gt;4 -->
<g id="edge4" class="edge">
<title>0&#45;&gt;4</title>
<path fill="none" stroke="black" d="M237.2,-321.44C248.73,-310.96 262.91,-298.08 274.97,-287.13"/>
<polygon fill="black" stroke="black" points="277.14,-289.88 282.19,-280.57 272.44,-284.7 277.14,-289.88"/>
</g>
<!-- 3 -->
<g id="node4" class="node">
<title>3</title>
<ellipse fill="white" stroke="black" cx="201.05" cy="-182.31" rx="55.31" ry="22.06"/>
<text text-anchor="middle" x="201.05" y="-178.11" font-family="Arial" font-size="14.00">steepness</text>
</g>
<!-- 2&#45;&gt;3 -->
<g id="edge3" class="edge">
<title>2&#45;&gt;3</title>
<path fill="none" stroke="black" d="M211.3,-240.5C209.95,-232.94 208.39,-224.22 206.89,-215.9"/>
<polygon fill="black" stroke="black" points="210.34,-215.29 205.13,-206.06 203.45,-216.52 210.34,-215.29"/>
</g>
<!-- 5 -->
<g id="node6" class="node">
<title>5</title>
<ellipse fill="white" stroke="black" cx="301.05" cy="-182.31" rx="27" ry="22.06"/>
<text text-anchor="middle" x="301.05" y="-178.11" font-family="Arial" font-size="14.00">sub</text>
</g>
<!-- 4&#45;&gt;5 -->
<g id="edge5" class="edge">
<title>4&#45;&gt;5</title>
<path fill="none" stroke="black" d="M301.05,-240.08C301.05,-232.68 301.05,-224.19 301.05,-216.08"/>
<polygon fill="black" stroke="black" points="304.55,-216.14 301.05,-206.14 297.55,-216.14 304.55,-216.14"/>
</g>
<!-- 12 -->
<g id="node13" class="node">
<title>12</title>
<ellipse fill="white" stroke="black" cx="407.05" cy="-182.31" rx="27" ry="22.06"/>
<text text-anchor="middle" x="407.05" y="-178.11" font-family="Arial" font-size="14.00">mul</text>
</g>
<!-- 4&#45;&gt;12 -->
<g id="edge12" class="edge">
<title>4&#45;&gt;12</title>
<path fill="none" stroke="black" d="M320.5,-247.1C336.68,-235.17 359.96,-218.02 378.3,-204.5"/>
<polygon fill="black" stroke="black" points="380.18,-207.46 386.16,-198.71 376.03,-201.82 380.18,-207.46"/>
</g>
<!-- 6 -->
<g id="node7" class="node">
<title>6</title>
<ellipse fill="white" stroke="black" cx="167.05" cy="-102.19" rx="27" ry="22.06"/>
<text text-anchor="middle" x="167.05" y="-97.99" font-family="Arial" font-size="14.00">sub</text>
</g>
<!-- 5&#45;&gt;6 -->
<g id="edge6" class="edge">
<title>5&#45;&gt;6</title>
<path fill="none" stroke="black" d="M279.36,-168.6C274.64,-165.85 269.68,-162.95 265.05,-160.25 242.86,-147.29 217.82,-132.71 198.6,-121.53"/>
<polygon fill="black" stroke="black" points="200.57,-118.63 190.17,-116.62 197.05,-124.68 200.57,-118.63"/>
</g>
<!-- 9 -->
<g id="node10" class="node">
<title>9</title>
<ellipse fill="white" stroke="black" cx="301.05" cy="-102.19" rx="27" ry="22.06"/>
<text text-anchor="middle" x="301.05" y="-97.99" font-family="Arial" font-size="14.00">mul</text>
</g>
<!-- 5&#45;&gt;9 -->
<g id="edge9" class="edge">
<title>5&#45;&gt;9</title>
<path fill="none" stroke="black" d="M301.05,-159.96C301.05,-152.55 301.05,-144.07 301.05,-135.96"/>
<polygon fill="black" stroke="black" points="304.55,-136.02 301.05,-126.02 297.55,-136.02 304.55,-136.02"/>
</g>
<!-- 7 -->
<g id="node8" class="node">
<title>7</title>
<ellipse fill="white" stroke="black" cx="47.05" cy="-22.06" rx="47.05" ry="22.06"/>
<text text-anchor="middle" x="47.05" y="-17.86" font-family="Arial" font-size="14.00">distance</text>
</g>
<!-- 6&#45;&gt;7 -->
<g id="edge7" class="edge">
<title>6&#45;&gt;7</title>
<path fill="none" stroke="black" d="M146.15,-87.58C128.88,-76.33 103.94,-60.1 83.41,-46.73"/>
<polygon fill="black" stroke="black" points="85.59,-43.97 75.3,-41.45 81.77,-49.84 85.59,-43.97"/>
</g>
<!-- 8 -->
<g id="node9" class="node">
<title>8</title>
<ellipse fill="white" stroke="black" cx="167.05" cy="-22.06" rx="55.31" ry="22.06"/>
<text text-anchor="middle" x="167.05" y="-17.86" font-family="Arial" font-size="14.00">steepness</text>
</g>
<!-- 6&#45;&gt;8 -->
<g id="edge8" class="edge">
<title>6&#45;&gt;8</title>
<path fill="none" stroke="black" d="M167.05,-79.84C167.05,-72.43 167.05,-63.95 167.05,-55.83"/>
<polygon fill="black" stroke="black" points="170.55,-55.9 167.05,-45.9 163.55,-55.9 170.55,-55.9"/>
</g>
<!-- 10 -->
<g id="node11" class="node">
<title>10</title>
<ellipse fill="white" stroke="black" cx="301.05" cy="-22.06" rx="60.82" ry="22.06"/>
<text text-anchor="middle" x="301.05" y="-17.86" font-family="Arial" font-size="14.00">elevation_u</text>
</g>
<!-- 9&#45;&gt;10 -->
<g id="edge10" class="edge">
<title>9&#45;&gt;10</title>
<path fill="none" stroke="black" d="M301.05,-79.84C301.05,-72.43 301.05,-63.95 301.05,-55.83"/>
<polygon fill="black" stroke="black" points="304.55,-55.9 301.05,-45.9 297.55,-55.9 304.55,-55.9"/>
</g>
<!-- 11 -->
<g id="node12" class="node">
<title>11</title>
<ellipse fill="white" stroke="black" cx="440.05" cy="-22.06" rx="60.26" ry="22.06"/>
<text text-anchor="middle" x="440.05" y="-17.86" font-family="Arial" font-size="14.00">elevation_v</text>
</g>
<!-- 9&#45;&gt;11 -->
<g id="edge11" class="edge">
<title>9&#45;&gt;11</title>
<path fill="none" stroke="black" d="M322.71,-88.41C327.43,-85.65 332.4,-82.77 337.05,-80.12 356.84,-68.86 378.9,-56.59 397.52,-46.33"/>
<polygon fill="black" stroke="black" points="399.07,-49.47 406.15,-41.59 395.7,-43.34 399.07,-49.47"/>
</g>
<!-- 13 -->
<g id="node14" class="node">
<title>13</title>
<ellipse fill="white" stroke="black" cx="407.05" cy="-102.19" rx="60.82" ry="22.06"/>
<text text-anchor="middle" x="407.05" y="-97.99" font-family="Arial" font-size="14.00">elevation_u</text>
</g>
<!-- 12&#45;&gt;13 -->
<g id="edge13" class="edge">
<title>12&#45;&gt;13</title>
<path fill="none" stroke="black" d="M407.05,-159.96C407.05,-152.55 407.05,-144.07 407.05,-135.96"/>
<polygon fill="black" stroke="black" points="410.55,-136.02 407.05,-126.02 403.55,-136.02 410.55,-136.02"/>
</g>
<!-- 14 -->
<g id="node15" class="node">
<title>14</title>
<ellipse fill="white" stroke="black" cx="546.05" cy="-102.19" rx="60.26" ry="22.06"/>
<text text-anchor="middle" x="546.05" y="-97.99" font-family="Arial" font-size="14.00">elevation_v</text>
</g>
<!-- 12&#45;&gt;14 -->
<g id="edge14" class="edge">
<title>12&#45;&gt;14</title>
<path fill="none" stroke="black" d="M429.08,-168.93C449.2,-157.62 479.48,-140.6 504.19,-126.71"/>
<polygon fill="black" stroke="black" points="505.73,-129.87 512.73,-121.92 502.3,-123.76 505.73,-129.87"/>
</g>
</g>
</svg>
