<?xml version="1.0" encoding="UTF-8" standalone="no"?>
<!DOCTYPE svg PUBLIC "-//W3C//DTD SVG 1.1//EN"
 "http://www.w3.org/Graphics/SVG/1.1/DTD/svg11.dtd">
<!-- Generated by graphviz version 12.2.1 (0)
 -->
<!-- Title: G Pages: 1 -->
<svg width="610pt" height="566pt"
 viewBox="36.00 36.00 574.31 529.54" xmlns="http://www.w3.org/2000/svg" xmlns:xlink="http://www.w3.org/1999/xlink">
<g id="graph0" class="graph" transform="scale(1 1) rotate(0) translate(40 525.54)">
<title>G</title>
<polygon fill="white" stroke="none" points="-4,4 -4,-489.54 534.31,-489.54 534.31,4 -4,4"/>
<text text-anchor="middle" x="265.15" y="-468.94" font-family="Times New Roman,serif" font-size="14.00">(&#39;best_3tree_500pop_15gen_15runs_res200_15subrun&#39;, &#39;&#39;)</text>
<!-- 0 -->
<g id="node1" class="node">
<title>0</title>
<ellipse fill="white" stroke="black" cx="139.04" cy="-422.68" rx="63.57" ry="22.06"/>
<text text-anchor="middle" x="139.04" y="-418.48" font-family="Arial" font-size="14.00">if_then_else</text>
</g>
<!-- 1 -->
<g id="node2" class="node">
<title>1</title>
<ellipse fill="white" stroke="black" cx="47.04" cy="-342.56" rx="47.04" ry="22.06"/>
<text text-anchor="middle" x="47.04" y="-338.36" font-family="Arial" font-size="14.00">is_water</text>
</g>
<!-- 0&#45;&gt;1 -->
<g id="edge1" class="edge">
<title>0&#45;&gt;1</title>
<path fill="none" stroke="black" d="M115.83,-401.97C104.35,-392.22 90.34,-380.32 77.96,-369.81"/>
<polygon fill="black" stroke="black" points="80.34,-367.24 70.45,-363.43 75.81,-372.58 80.34,-367.24"/>
</g>
<!-- 2 -->
<g id="node3" class="node">
<title>2</title>
<ellipse fill="white" stroke="black" cx="139.04" cy="-342.56" rx="27" ry="22.06"/>
<text text-anchor="middle" x="139.04" y="-338.36" font-family="Arial" font-size="14.00">neg</text>
</g>
<!-- 0&#45;&gt;2 -->
<g id="edge2" class="edge">
<title>0&#45;&gt;2</title>
<path fill="none" stroke="black" d="M139.04,-400.33C139.04,-392.93 139.04,-384.44 139.04,-376.33"/>
<polygon fill="black" stroke="black" points="142.54,-376.39 139.04,-366.39 135.54,-376.39 142.54,-376.39"/>
</g>
<!-- 4 -->
<g id="node5" class="node">
<title>4</title>
<ellipse fill="white" stroke="black" cx="225.04" cy="-342.56" rx="27" ry="22.06"/>
<text text-anchor="middle" x="225.04" y="-338.36" font-family="Arial" font-size="14.00">sub</text>
</g>
<!-- 0&#45;&gt;4 -->
<g id="edge4" class="edge">
<title>0&#45;&gt;4</title>
<path fill="none" stroke="black" d="M161.19,-401.56C172.73,-391.08 186.9,-378.21 198.96,-367.25"/>
<polygon fill="black" stroke="black" points="201.13,-370 206.18,-360.69 196.43,-364.82 201.13,-370"/>
</g>
<!-- 3 -->
<g id="node4" class="node">
<title>3</title>
<ellipse fill="white" stroke="black" cx="125.04" cy="-262.43" rx="55.31" ry="22.06"/>
<text text-anchor="middle" x="125.04" y="-258.23" font-family="Arial" font-size="14.00">steepness</text>
</g>
<!-- 2&#45;&gt;3 -->
<g id="edge3" class="edge">
<title>2&#45;&gt;3</title>
<path fill="none" stroke="black" d="M135.29,-320.62C133.94,-313.06 132.38,-304.34 130.89,-296.02"/>
<polygon fill="black" stroke="black" points="134.33,-295.41 129.12,-286.19 127.44,-296.65 134.33,-295.41"/>
</g>
<!-- 5 -->
<g id="node6" class="node">
<title>5</title>
<ellipse fill="white" stroke="black" cx="225.04" cy="-262.43" rx="27" ry="22.06"/>
<text text-anchor="middle" x="225.04" y="-258.23" font-family="Arial" font-size="14.00">sub</text>
</g>
<!-- 4&#45;&gt;5 -->
<g id="edge5" class="edge">
<title>4&#45;&gt;5</title>
<path fill="none" stroke="black" d="M225.04,-320.21C225.04,-312.8 225.04,-304.32 225.04,-296.2"/>
<polygon fill="black" stroke="black" points="228.54,-296.27 225.04,-286.27 221.54,-296.27 228.54,-296.27"/>
</g>
<!-- 12 -->
<g id="node13" class="node">
<title>12</title>
<ellipse fill="white" stroke="black" cx="331.04" cy="-262.43" rx="27" ry="22.06"/>
<text text-anchor="middle" x="331.04" y="-258.23" font-family="Arial" font-size="14.00">mul</text>
</g>
<!-- 4&#45;&gt;12 -->
<g id="edge12" class="edge">
<title>4&#45;&gt;12</title>
<path fill="none" stroke="black" d="M244.49,-327.23C260.67,-315.3 283.95,-298.14 302.29,-284.62"/>
<polygon fill="black" stroke="black" points="304.17,-287.58 310.15,-278.83 300.02,-281.95 304.17,-287.58"/>
</g>
<!-- 6 -->
<g id="node7" class="node">
<title>6</title>
<ellipse fill="white" stroke="black" cx="120.04" cy="-182.31" rx="60.26" ry="22.06"/>
<text text-anchor="middle" x="120.04" y="-178.11" font-family="Arial" font-size="14.00">elevation_v</text>
</g>
<!-- 5&#45;&gt;6 -->
<g id="edge6" class="edge">
<title>5&#45;&gt;6</title>
<path fill="none" stroke="black" d="M205.29,-246.74C191.16,-236.22 171.75,-221.78 155.02,-209.33"/>
<polygon fill="black" stroke="black" points="157.38,-206.73 147.27,-203.57 153.2,-212.34 157.38,-206.73"/>
</g>
<!-- 7 -->
<g id="node8" class="node">
<title>7</title>
<ellipse fill="white" stroke="black" cx="225.04" cy="-182.31" rx="27" ry="22.06"/>
<text text-anchor="middle" x="225.04" y="-178.11" font-family="Arial" font-size="14.00">sub</text>
</g>
<!-- 5&#45;&gt;7 -->
<g id="edge7" class="edge">
<title>5&#45;&gt;7</title>
<path fill="none" stroke="black" d="M225.04,-240.08C225.04,-232.68 225.04,-224.19 225.04,-216.08"/>
<polygon fill="black" stroke="black" points="228.54,-216.14 225.04,-206.14 221.54,-216.14 228.54,-216.14"/>
</g>
<!-- 8 -->
<g id="node9" class="node">
<title>8</title>
<ellipse fill="white" stroke="black" cx="179.04" cy="-102.19" rx="27" ry="22.06"/>
<text text-anchor="middle" x="179.04" y="-97.99" font-family="Arial" font-size="14.00">mul</text>
</g>
<!-- 7&#45;&gt;8 -->
<g id="edge8" class="edge">
<title>7&#45;&gt;8</title>
<path fill="none" stroke="black" d="M213.67,-162C208.42,-153.08 202.07,-142.29 196.25,-132.41"/>
<polygon fill="black" stroke="black" points="199.3,-130.69 191.21,-123.85 193.27,-134.24 199.3,-130.69"/>
</g>
<!-- 11 -->
<g id="node12" class="node">
<title>11</title>
<ellipse fill="white" stroke="black" cx="271.04" cy="-102.19" rx="47.05" ry="22.06"/>
<text text-anchor="middle" x="271.04" y="-97.99" font-family="Arial" font-size="14.00">distance</text>
</g>
<!-- 7&#45;&gt;11 -->
<g id="edge11" class="edge">
<title>7&#45;&gt;11</title>
<path fill="none" stroke="black" d="M236.42,-162C241.42,-153.5 247.41,-143.32 253,-133.83"/>
<polygon fill="black" stroke="black" points="256.01,-135.61 258.07,-125.22 249.98,-132.06 256.01,-135.61"/>
</g>
<!-- 9 -->
<g id="node10" class="node">
<title>9</title>
<ellipse fill="white" stroke="black" cx="110.04" cy="-22.06" rx="60.82" ry="22.06"/>
<text text-anchor="middle" x="110.04" y="-17.86" font-family="Arial" font-size="14.00">elevation_u</text>
</g>
<!-- 8&#45;&gt;9 -->
<g id="edge9" class="edge">
<title>8&#45;&gt;9</title>
<path fill="none" stroke="black" d="M163.73,-83.85C155.4,-74.41 144.87,-62.5 135.36,-51.72"/>
<polygon fill="black" stroke="black" points="138.25,-49.71 129,-44.53 133,-54.34 138.25,-49.71"/>
</g>
<!-- 10 -->
<g id="node11" class="node">
<title>10</title>
<ellipse fill="white" stroke="black" cx="249.04" cy="-22.06" rx="60.26" ry="22.06"/>
<text text-anchor="middle" x="249.04" y="-17.86" font-family="Arial" font-size="14.00">elevation_v</text>
</g>
<!-- 8&#45;&gt;10 -->
<g id="edge10" class="edge">
<title>8&#45;&gt;10</title>
<path fill="none" stroke="black" d="M194.58,-83.85C203.03,-74.41 213.71,-62.5 223.36,-51.72"/>
<polygon fill="black" stroke="black" points="225.75,-54.3 229.82,-44.52 220.54,-49.63 225.75,-54.3"/>
</g>
<!-- 13 -->
<g id="node14" class="node">
<title>13</title>
<ellipse fill="white" stroke="black" cx="331.04" cy="-182.31" rx="60.82" ry="22.06"/>
<text text-anchor="middle" x="331.04" y="-178.11" font-family="Arial" font-size="14.00">elevation_u</text>
</g>
<!-- 12&#45;&gt;13 -->
<g id="edge13" class="edge">
<title>12&#45;&gt;13</title>
<path fill="none" stroke="black" d="M331.04,-240.08C331.04,-232.68 331.04,-224.19 331.04,-216.08"/>
<polygon fill="black" stroke="black" points="334.54,-216.14 331.04,-206.14 327.54,-216.14 334.54,-216.14"/>
</g>
<!-- 14 -->
<g id="node15" class="node">
<title>14</title>
<ellipse fill="white" stroke="black" cx="470.04" cy="-182.31" rx="60.26" ry="22.06"/>
<text text-anchor="middle" x="470.04" y="-178.11" font-family="Arial" font-size="14.00">elevation_v</text>
</g>
<!-- 12&#45;&gt;14 -->
<g id="edge14" class="edge">
<title>12&#45;&gt;14</title>
<path fill="none" stroke="black" d="M353.07,-249.05C373.19,-237.75 403.47,-220.73 428.18,-206.84"/>
<polygon fill="black" stroke="black" points="429.72,-209.99 436.72,-202.04 426.29,-203.89 429.72,-209.99"/>
</g>
</g>
</svg>
