<?xml version="1.0" encoding="UTF-8" standalone="no"?>
<!DOCTYPE svg PUBLIC "-//W3C//DTD SVG 1.1//EN"
 "http://www.w3.org/Graphics/SVG/1.1/DTD/svg11.dtd">
<!-- Generated by graphviz version 12.2.1 (0)
 -->
<!-- Title: G Pages: 1 -->
<svg width="464pt" height="566pt"
 viewBox="36.00 36.00 428.35 529.54" xmlns="http://www.w3.org/2000/svg" xmlns:xlink="http://www.w3.org/1999/xlink">
<g id="graph0" class="graph" transform="scale(1 1) rotate(0) translate(40 525.54)">
<title>G</title>
<polygon fill="white" stroke="none" points="-4,4 -4,-489.54 388.35,-489.54 388.35,4 -4,4"/>
<text text-anchor="middle" x="192.18" y="-468.94" font-family="Times New Roman,serif" font-size="14.00">(&#39;best_2tree_500pop_15gen_15runs_res200_15subrun&#39;, &#39;&#39;)</text>
<!-- 0 -->
<g id="node1" class="node">
<title>0</title>
<ellipse fill="white" stroke="black" cx="173.04" cy="-422.68" rx="63.57" ry="22.06"/>
<text text-anchor="middle" x="173.04" y="-418.48" font-family="Arial" font-size="14.00">if_then_else</text>
</g>
<!-- 1 -->
<g id="node2" class="node">
<title>1</title>
<ellipse fill="white" stroke="black" cx="47.04" cy="-342.56" rx="47.04" ry="22.06"/>
<text text-anchor="middle" x="47.04" y="-338.36" font-family="Arial" font-size="14.00">is_water</text>
</g>
<!-- 0&#45;&gt;1 -->
<g id="edge1" class="edge">
<title>0&#45;&gt;1</title>
<path fill="none" stroke="black" d="M142.86,-402.97C125.34,-392.1 103.11,-378.32 84.48,-366.76"/>
<polygon fill="black" stroke="black" points="86.45,-363.87 76.11,-361.58 82.77,-369.82 86.45,-363.87"/>
</g>
<!-- 2 -->
<g id="node3" class="node">
<title>2</title>
<ellipse fill="white" stroke="black" cx="173.04" cy="-342.56" rx="60.82" ry="22.06"/>
<text text-anchor="middle" x="173.04" y="-338.36" font-family="Arial" font-size="14.00">elevation_u</text>
</g>
<!-- 0&#45;&gt;2 -->
<g id="edge2" class="edge">
<title>0&#45;&gt;2</title>
<path fill="none" stroke="black" d="M173.04,-400.33C173.04,-392.93 173.04,-384.44 173.04,-376.33"/>
<polygon fill="black" stroke="black" points="176.54,-376.39 173.04,-366.39 169.54,-376.39 176.54,-376.39"/>
</g>
<!-- 3 -->
<g id="node4" class="node">
<title>3</title>
<ellipse fill="white" stroke="black" cx="279.04" cy="-342.56" rx="27" ry="22.06"/>
<text text-anchor="middle" x="279.04" y="-338.36" font-family="Arial" font-size="14.00">sub</text>
</g>
<!-- 0&#45;&gt;3 -->
<g id="edge3" class="edge">
<title>0&#45;&gt;3</title>
<path fill="none" stroke="black" d="M199.52,-402.17C215,-390.76 234.55,-376.35 250.39,-364.67"/>
<polygon fill="black" stroke="black" points="252.04,-367.81 258.01,-359.06 247.89,-362.17 252.04,-367.81"/>
</g>
<!-- 4 -->
<g id="node5" class="node">
<title>4</title>
<ellipse fill="white" stroke="black" cx="229.04" cy="-262.43" rx="27" ry="22.06"/>
<text text-anchor="middle" x="229.04" y="-258.23" font-family="Arial" font-size="14.00">sub</text>
</g>
<!-- 3&#45;&gt;4 -->
<g id="edge4" class="edge">
<title>3&#45;&gt;4</title>
<path fill="none" stroke="black" d="M266.94,-322.64C261.03,-313.4 253.79,-302.09 247.23,-291.84"/>
<polygon fill="black" stroke="black" points="250.36,-290.25 242.03,-283.72 244.47,-294.02 250.36,-290.25"/>
</g>
<!-- 11 -->
<g id="node12" class="node">
<title>11</title>
<ellipse fill="white" stroke="black" cx="329.04" cy="-262.43" rx="55.31" ry="22.06"/>
<text text-anchor="middle" x="329.04" y="-258.23" font-family="Arial" font-size="14.00">steepness</text>
</g>
<!-- 3&#45;&gt;11 -->
<g id="edge11" class="edge">
<title>3&#45;&gt;11</title>
<path fill="none" stroke="black" d="M291.15,-322.64C296.74,-313.91 303.52,-303.32 309.79,-293.52"/>
<polygon fill="black" stroke="black" points="312.57,-295.67 315.01,-285.36 306.67,-291.9 312.57,-295.67"/>
</g>
<!-- 5 -->
<g id="node6" class="node">
<title>5</title>
<ellipse fill="white" stroke="black" cx="179.04" cy="-182.31" rx="55.31" ry="22.06"/>
<text text-anchor="middle" x="179.04" y="-178.11" font-family="Arial" font-size="14.00">steepness</text>
</g>
<!-- 4&#45;&gt;5 -->
<g id="edge5" class="edge">
<title>4&#45;&gt;5</title>
<path fill="none" stroke="black" d="M216.94,-242.52C211.35,-233.78 204.57,-223.19 198.3,-213.4"/>
<polygon fill="black" stroke="black" points="201.42,-211.78 193.08,-205.24 195.52,-215.55 201.42,-211.78"/>
</g>
<!-- 6 -->
<g id="node7" class="node">
<title>6</title>
<ellipse fill="white" stroke="black" cx="279.04" cy="-182.31" rx="27" ry="22.06"/>
<text text-anchor="middle" x="279.04" y="-178.11" font-family="Arial" font-size="14.00">sub</text>
</g>
<!-- 4&#45;&gt;6 -->
<g id="edge6" class="edge">
<title>4&#45;&gt;6</title>
<path fill="none" stroke="black" d="M241.15,-242.52C247.06,-233.28 254.3,-221.97 260.86,-211.72"/>
<polygon fill="black" stroke="black" points="263.62,-213.9 266.06,-203.59 257.72,-210.13 263.62,-213.9"/>
</g>
<!-- 7 -->
<g id="node8" class="node">
<title>7</title>
<ellipse fill="white" stroke="black" cx="233.04" cy="-102.19" rx="27" ry="22.06"/>
<text text-anchor="middle" x="233.04" y="-97.99" font-family="Arial" font-size="14.00">mul</text>
</g>
<!-- 6&#45;&gt;7 -->
<g id="edge7" class="edge">
<title>6&#45;&gt;7</title>
<path fill="none" stroke="black" d="M267.67,-162C262.42,-153.08 256.07,-142.29 250.25,-132.41"/>
<polygon fill="black" stroke="black" points="253.3,-130.69 245.21,-123.85 247.27,-134.24 253.3,-130.69"/>
</g>
<!-- 10 -->
<g id="node11" class="node">
<title>10</title>
<ellipse fill="white" stroke="black" cx="325.04" cy="-102.19" rx="47.05" ry="22.06"/>
<text text-anchor="middle" x="325.04" y="-97.99" font-family="Arial" font-size="14.00">distance</text>
</g>
<!-- 6&#45;&gt;10 -->
<g id="edge10" class="edge">
<title>6&#45;&gt;10</title>
<path fill="none" stroke="black" d="M290.42,-162C295.42,-153.5 301.41,-143.32 307,-133.83"/>
<polygon fill="black" stroke="black" points="310.01,-135.61 312.07,-125.22 303.98,-132.06 310.01,-135.61"/>
</g>
<!-- 8 -->
<g id="node9" class="node">
<title>8</title>
<ellipse fill="white" stroke="black" cx="164.04" cy="-22.06" rx="60.82" ry="22.06"/>
<text text-anchor="middle" x="164.04" y="-17.86" font-family="Arial" font-size="14.00">elevation_u</text>
</g>
<!-- 7&#45;&gt;8 -->
<g id="edge8" class="edge">
<title>7&#45;&gt;8</title>
<path fill="none" stroke="black" d="M217.73,-83.85C209.4,-74.41 198.87,-62.5 189.36,-51.72"/>
<polygon fill="black" stroke="black" points="192.25,-49.71 183,-44.53 187,-54.34 192.25,-49.71"/>
</g>
<!-- 9 -->
<g id="node10" class="node">
<title>9</title>
<ellipse fill="white" stroke="black" cx="303.04" cy="-22.06" rx="60.26" ry="22.06"/>
<text text-anchor="middle" x="303.04" y="-17.86" font-family="Arial" font-size="14.00">elevation_v</text>
</g>
<!-- 7&#45;&gt;9 -->
<g id="edge9" class="edge">
<title>7&#45;&gt;9</title>
<path fill="none" stroke="black" d="M248.58,-83.85C257.03,-74.41 267.71,-62.5 277.36,-51.72"/>
<polygon fill="black" stroke="black" points="279.75,-54.3 283.82,-44.52 274.54,-49.63 279.75,-54.3"/>
</g>
</g>
</svg>
