<?xml version="1.0" encoding="UTF-8" standalone="no"?>
<!DOCTYPE svg PUBLIC "-//W3C//DTD SVG 1.1//EN"
 "http://www.w3.org/Graphics/SVG/1.1/DTD/svg11.dtd">
<!-- Generated by graphviz version 12.2.1 (0)
 -->
<!-- Title: G Pages: 1 -->
<svg width="599pt" height="566pt"
 viewBox="36.00 36.00 563.31 529.54" xmlns="http://www.w3.org/2000/svg" xmlns:xlink="http://www.w3.org/1999/xlink">
<g id="graph0" class="graph" transform="scale(1 1) rotate(0) translate(40 525.54)">
<title>G</title>
<polygon fill="white" stroke="none" points="-4,4 -4,-489.54 523.31,-489.54 523.31,4 -4,4"/>
<text text-anchor="middle" x="259.65" y="-468.94" font-family="Times New Roman,serif" font-size="14.00">(&#39;best_tree_500pop_15gen_15runs_res200_9subrun&#39;, &#39;&#39;)</text>
<!-- 0 -->
<g id="node1" class="node">
<title>0</title>
<ellipse fill="white" stroke="black" cx="167.04" cy="-422.68" rx="63.57" ry="22.06"/>
<text text-anchor="middle" x="167.04" y="-418.48" font-family="Arial" font-size="14.00">if_then_else</text>
</g>
<!-- 1 -->
<g id="node2" class="node">
<title>1</title>
<ellipse fill="white" stroke="black" cx="47.04" cy="-342.56" rx="47.04" ry="22.06"/>
<text text-anchor="middle" x="47.04" y="-338.36" font-family="Arial" font-size="14.00">is_water</text>
</g>
<!-- 0&#45;&gt;1 -->
<g id="edge1" class="edge">
<title>0&#45;&gt;1</title>
<path fill="none" stroke="black" d="M138,-402.77C121.49,-392.02 100.68,-378.48 83.14,-367.05"/>
<polygon fill="black" stroke="black" points="85.33,-364.31 75.04,-361.78 81.51,-370.17 85.33,-364.31"/>
</g>
<!-- 2 -->
<g id="node3" class="node">
<title>2</title>
<ellipse fill="white" stroke="black" cx="167.04" cy="-342.56" rx="55.31" ry="22.06"/>
<text text-anchor="middle" x="167.04" y="-338.36" font-family="Arial" font-size="14.00">steepness</text>
</g>
<!-- 0&#45;&gt;2 -->
<g id="edge2" class="edge">
<title>0&#45;&gt;2</title>
<path fill="none" stroke="black" d="M167.04,-400.33C167.04,-392.93 167.04,-384.44 167.04,-376.33"/>
<polygon fill="black" stroke="black" points="170.54,-376.39 167.04,-366.39 163.54,-376.39 170.54,-376.39"/>
</g>
<!-- 3 -->
<g id="node4" class="node">
<title>3</title>
<ellipse fill="white" stroke="black" cx="267.04" cy="-342.56" rx="27" ry="22.06"/>
<text text-anchor="middle" x="267.04" y="-338.36" font-family="Arial" font-size="14.00">sub</text>
</g>
<!-- 0&#45;&gt;3 -->
<g id="edge3" class="edge">
<title>0&#45;&gt;3</title>
<path fill="none" stroke="black" d="M192.28,-401.97C206.56,-390.81 224.44,-376.84 239.14,-365.36"/>
<polygon fill="black" stroke="black" points="240.9,-368.42 246.62,-359.51 236.59,-362.91 240.9,-368.42"/>
</g>
<!-- 4 -->
<g id="node5" class="node">
<title>4</title>
<ellipse fill="white" stroke="black" cx="214.04" cy="-262.43" rx="27" ry="22.06"/>
<text text-anchor="middle" x="214.04" y="-258.23" font-family="Arial" font-size="14.00">sub</text>
</g>
<!-- 3&#45;&gt;4 -->
<g id="edge4" class="edge">
<title>3&#45;&gt;4</title>
<path fill="none" stroke="black" d="M254.21,-322.64C247.9,-313.34 240.16,-301.93 233.16,-291.61"/>
<polygon fill="black" stroke="black" points="236.12,-289.73 227.61,-283.42 230.32,-293.66 236.12,-289.73"/>
</g>
<!-- 11 -->
<g id="node12" class="node">
<title>11</title>
<ellipse fill="white" stroke="black" cx="320.04" cy="-262.43" rx="27" ry="22.06"/>
<text text-anchor="middle" x="320.04" y="-258.23" font-family="Arial" font-size="14.00">mul</text>
</g>
<!-- 3&#45;&gt;11 -->
<g id="edge11" class="edge">
<title>3&#45;&gt;11</title>
<path fill="none" stroke="black" d="M279.87,-322.64C286.19,-313.34 293.93,-301.93 300.93,-291.61"/>
<polygon fill="black" stroke="black" points="303.77,-293.66 306.48,-283.42 297.97,-289.73 303.77,-293.66"/>
</g>
<!-- 5 -->
<g id="node6" class="node">
<title>5</title>
<ellipse fill="white" stroke="black" cx="109.04" cy="-182.31" rx="60.26" ry="22.06"/>
<text text-anchor="middle" x="109.04" y="-178.11" font-family="Arial" font-size="14.00">elevation_v</text>
</g>
<!-- 4&#45;&gt;5 -->
<g id="edge5" class="edge">
<title>4&#45;&gt;5</title>
<path fill="none" stroke="black" d="M194.29,-246.74C180.16,-236.22 160.75,-221.78 144.02,-209.33"/>
<polygon fill="black" stroke="black" points="146.38,-206.73 136.27,-203.57 142.2,-212.34 146.38,-206.73"/>
</g>
<!-- 6 -->
<g id="node7" class="node">
<title>6</title>
<ellipse fill="white" stroke="black" cx="214.04" cy="-182.31" rx="27" ry="22.06"/>
<text text-anchor="middle" x="214.04" y="-178.11" font-family="Arial" font-size="14.00">sub</text>
</g>
<!-- 4&#45;&gt;6 -->
<g id="edge6" class="edge">
<title>4&#45;&gt;6</title>
<path fill="none" stroke="black" d="M214.04,-240.08C214.04,-232.68 214.04,-224.19 214.04,-216.08"/>
<polygon fill="black" stroke="black" points="217.54,-216.14 214.04,-206.14 210.54,-216.14 217.54,-216.14"/>
</g>
<!-- 7 -->
<g id="node8" class="node">
<title>7</title>
<ellipse fill="white" stroke="black" cx="168.04" cy="-102.19" rx="27" ry="22.06"/>
<text text-anchor="middle" x="168.04" y="-97.99" font-family="Arial" font-size="14.00">mul</text>
</g>
<!-- 6&#45;&gt;7 -->
<g id="edge7" class="edge">
<title>6&#45;&gt;7</title>
<path fill="none" stroke="black" d="M202.67,-162C197.42,-153.08 191.07,-142.29 185.25,-132.41"/>
<polygon fill="black" stroke="black" points="188.3,-130.69 180.21,-123.85 182.27,-134.24 188.3,-130.69"/>
</g>
<!-- 10 -->
<g id="node11" class="node">
<title>10</title>
<ellipse fill="white" stroke="black" cx="260.04" cy="-102.19" rx="47.05" ry="22.06"/>
<text text-anchor="middle" x="260.04" y="-97.99" font-family="Arial" font-size="14.00">distance</text>
</g>
<!-- 6&#45;&gt;10 -->
<g id="edge10" class="edge">
<title>6&#45;&gt;10</title>
<path fill="none" stroke="black" d="M225.42,-162C230.42,-153.5 236.41,-143.32 242,-133.83"/>
<polygon fill="black" stroke="black" points="245.01,-135.61 247.07,-125.22 238.98,-132.06 245.01,-135.61"/>
</g>
<!-- 8 -->
<g id="node9" class="node">
<title>8</title>
<ellipse fill="white" stroke="black" cx="99.04" cy="-22.06" rx="60.82" ry="22.06"/>
<text text-anchor="middle" x="99.04" y="-17.86" font-family="Arial" font-size="14.00">elevation_u</text>
</g>
<!-- 7&#45;&gt;8 -->
<g id="edge8" class="edge">
<title>7&#45;&gt;8</title>
<path fill="none" stroke="black" d="M152.73,-83.85C144.4,-74.41 133.87,-62.5 124.36,-51.72"/>
<polygon fill="black" stroke="black" points="127.25,-49.71 118,-44.53 122,-54.34 127.25,-49.71"/>
</g>
<!-- 9 -->
<g id="node10" class="node">
<title>9</title>
<ellipse fill="white" stroke="black" cx="238.04" cy="-22.06" rx="60.26" ry="22.06"/>
<text text-anchor="middle" x="238.04" y="-17.86" font-family="Arial" font-size="14.00">elevation_v</text>
</g>
<!-- 7&#45;&gt;9 -->
<g id="edge9" class="edge">
<title>7&#45;&gt;9</title>
<path fill="none" stroke="black" d="M183.58,-83.85C192.03,-74.41 202.71,-62.5 212.36,-51.72"/>
<polygon fill="black" stroke="black" points="214.75,-54.3 218.82,-44.52 209.54,-49.63 214.75,-54.3"/>
</g>
<!-- 12 -->
<g id="node13" class="node">
<title>12</title>
<ellipse fill="white" stroke="black" cx="320.04" cy="-182.31" rx="60.82" ry="22.06"/>
<text text-anchor="middle" x="320.04" y="-178.11" font-family="Arial" font-size="14.00">elevation_u</text>
</g>
<!-- 11&#45;&gt;12 -->
<g id="edge12" class="edge">
<title>11&#45;&gt;12</title>
<path fill="none" stroke="black" d="M320.04,-240.08C320.04,-232.68 320.04,-224.19 320.04,-216.08"/>
<polygon fill="black" stroke="black" points="323.54,-216.14 320.04,-206.14 316.54,-216.14 323.54,-216.14"/>
</g>
<!-- 13 -->
<g id="node14" class="node">
<title>13</title>
<ellipse fill="white" stroke="black" cx="459.04" cy="-182.31" rx="60.26" ry="22.06"/>
<text text-anchor="middle" x="459.04" y="-178.11" font-family="Arial" font-size="14.00">elevation_v</text>
</g>
<!-- 11&#45;&gt;13 -->
<g id="edge13" class="edge">
<title>11&#45;&gt;13</title>
<path fill="none" stroke="black" d="M342.07,-249.05C362.19,-237.75 392.47,-220.73 417.18,-206.84"/>
<polygon fill="black" stroke="black" points="418.72,-209.99 425.72,-202.04 415.29,-203.89 418.72,-209.99"/>
</g>
</g>
</svg>
